<?xml version="1.0" encoding="UTF-8" standalone="no"?><!DOCTYPE svg PUBLIC "-//W3C//DTD SVG 1.0//EN" "http://www.w3.org/TR/2001/REC-SVG-20010904/DTD/svg10.dtd" [ <!ATTLIST svg xmlns:xlink CDATA #FIXED "http://www.w3.org/1999/xlink">]><!-- Generated by WinGraphviz version ver1.02.23, 08/01/2003 (08/04/2003)     For user: Avi Ma'ayan   Title: G    Pages: 1 --><svg width="570px" height="276px" xmlns="http://www.w3.org/2000/svg" xmlns:xlink="http://www.w3.org/1999/xlink"><g id="graph0" class="graph" style="font-family:Times New Roman;font-size:18.67;"><title>G</title><g id="node1" class="node"><title>ABI1</title><a xlink:href="ABI1.html"><ellipse cx="313" cy="135" rx="37" ry="24" style="fill:turquoise;stroke:turquoise;"/><text text-anchor="middle" x="313" y="142" style="font-family:Times New Roman;"><![CDATA[ABI1]]></text></a></g><g id="node2" class="node"><title>SH3KBP1</title><a xlink:href="SH3KBP1.html"><ellipse cx="65" cy="231" rx="58" ry="24" style="fill:turquoise;stroke:turquoise;"/><text text-anchor="middle" x="65" y="238" style="font-family:Times New Roman;"><![CDATA[SH3KBP1]]></text></a></g><g id="edge2" class="edge"><title>ABI1-&gt;SH3KBP1</title><path style="fill:none;stroke:#0000ff;" d="M274,150C230,167 159,194 113,214"/><polygon style="fill:#0000ff;stroke:#0000ff;" points="282,150 280,145 273,147 276,153 282,150"/><polygon style="fill:#0000ff;stroke:#0000ff;" points="106,213 109,218 116,217 113,211 106,213"/></g><g id="node4" class="node"><title>ENAH</title><a xlink:href="ENAH.html"><ellipse cx="195" cy="231" rx="48" ry="24" style="fill:turquoise;stroke:turquoise;"/><text text-anchor="middle" x="195" y="238" style="font-family:Times New Roman;"><![CDATA[ENAH]]></text></a></g><g id="edge4" class="edge"><title>ABI1-&gt;ENAH</title><path style="fill:none;stroke:#0000ff;" d="M285,158C266,173 243,191 226,206"/><polygon style="fill:#0000ff;stroke:#0000ff;" points="293,157 289,151 284,155 288,161 293,157"/><polygon style="fill:#0000ff;stroke:#0000ff;" points="219,207 223,213 229,209 225,203 219,207"/></g><g id="node6" class="node"><title>NCK2</title><a xlink:href="NCK2.html"><ellipse cx="313" cy="231" rx="45" ry="24" style="fill:turquoise;stroke:turquoise;"/><text text-anchor="middle" x="313" y="238" style="font-family:Times New Roman;"><![CDATA[NCK2]]></text></a></g><g id="edge6" class="edge"><title>ABI1-&gt;NCK2</title><path style="fill:none;stroke:#0000ff;" d="M313,166C313,177 313,190 313,201"/><polygon style="fill:#0000ff;stroke:#0000ff;" points="317,159 310,159 310,166 317,166 317,159"/><polygon style="fill:#0000ff;stroke:#0000ff;" points="310,207 317,207 317,201 310,201 310,207"/></g><g id="node8" class="node"><title>PAK1</title><a xlink:href="PAK1.html"><ellipse cx="424" cy="231" rx="41" ry="24" style="fill:turquoise;stroke:turquoise;"/><text text-anchor="middle" x="424" y="238" style="font-family:Times New Roman;"><![CDATA[PAK1]]></text></a></g><g id="edge8" class="edge"><title>ABI1-&gt;PAK1</title><path style="fill:none;stroke:#0000ff;" d="M341,159C358,174 378,193 394,207"/><polygon style="fill:#0000ff;stroke:#0000ff;" points="338,153 334,158 340,162 344,157 338,153"/><polygon style="fill:#0000ff;stroke:#0000ff;" points="398,214 402,209 397,205 393,210 398,214"/></g><g id="node10" class="node"><title>SOS1</title><a xlink:href="SOS1.html"><ellipse cx="525" cy="231" rx="36" ry="24" style="fill:turquoise;stroke:turquoise;"/><text text-anchor="middle" x="525" y="238" style="font-family:Times New Roman;"><![CDATA[SOS1]]></text></a></g><g id="edge10" class="edge"><title>ABI1-&gt;SOS1</title><path style="fill:none;stroke:#0000ff;" d="M350,151C384,166 433,187 477,207 482,209 486,211 490,214"/><polygon style="fill:#0000ff;stroke:#0000ff;" points="345,146 342,151 349,154 352,149 345,146"/><polygon style="fill:#0000ff;stroke:#0000ff;" points="494,219 497,214 492,211 489,217 494,219"/></g><g id="node12" class="node"><title>ABL1</title><a xlink:href="ABL1.html"><ellipse cx="313" cy="39" rx="40" ry="24" style="fill:turquoise;stroke:turquoise;"/><text text-anchor="middle" x="313" y="46" style="font-family:Times New Roman;"><![CDATA[ABL1]]></text></a></g><g id="edge12" class="edge"><title>ABL1-&gt;ABI1</title><path style="fill:none;stroke:darkgreen;" d="M313,63C313,74 313,86 313,98"/><polygon style="fill:darkgreen;stroke:darkgreen;" points="317,98 313,111 310,98 317,98"/></g></g></svg>