<?xml version="1.0" encoding="UTF-8" standalone="no"?><!DOCTYPE svg PUBLIC "-//W3C//DTD SVG 1.0//EN" "http://www.w3.org/TR/2001/REC-SVG-20010904/DTD/svg10.dtd" [ <!ATTLIST svg xmlns:xlink CDATA #FIXED "http://www.w3.org/1999/xlink">]><!-- Generated by WinGraphviz version ver1.02.23, 08/01/2003 (08/04/2003)     For user: Avi Ma'ayan   Title: G    Pages: 1 --><!--="735px" height="111px" xmlns="http://www.w3.org/2000/svg" --><svg onload="init(evt)" width="735px" height="600px" xmlns="http://www.w3.org/2000/svg" xmlns:xlink="http://www.w3.org/1999/xlink">
<script type="text/ecmascript">
<![CDATA[
var svgDocument;
var zoomAmt;
var xOffset;
var yOffset;
var scale;
var maxScale;
var imageWidth;
var imageHeight;
function init(evt)
{
    svgDocument = evt.getTarget().getOwnerDocument();
    zoomAmt = 0;
    xOffset = 0;
    yOffset = 60;
    scale = 0.8;
    maxScale = 10;
    imageWidth = 742;
    imageHeight = 606;
    panRestore();
    //panUp();
}
function transformMap ()
{
    var obj = svgDocument.getElementById("Pathway");
    var centerX = imageWidth  / 2.0;
    var centerY = imageHeight / 2.0;
    var adjustX = (-centerX * (scale - 0.8)) + xOffset;
    var adjustY = (-centerY * (scale - 0.8)) + yOffset;
    var transParms = 'translate(' + adjustX + ',' + adjustY + ') ';
    transParms += 'scale(' + scale + ')';
    // alert(transParms);
    obj.setAttribute("transform", transParms); 
}
function click_node(id)
{
    var testx = parent.click_node;
    if (typeof(testx) == "function")
    {
		parent.click_node(id);
    }
}
function click_relation(id)
{
    var testx = parent.click_relation;
    if (typeof(testx) == "function")
    {
        parent.click_relation(id);
    }
}
function click_pathway(toId, fromId)
{
    var testx = parent.click_pathway;
    if (typeof(testx) == "function")
    {
	parent.click_pathway(toId, fromId);
    }
}
function check_interpath(evt, pathid)
{
  var obj = evt.getTarget();
  var testx = parent.is_frompath;
  var child = obj.firstChild;
  if (typeof(testx) == "function")
  {
    if (parent.is_frompath(pathid))
    {
      while (child != null)
      {
        if (child.nodeType == 1)
        {
          if ((child.localName == "g") || (child.localName == "polyline"))
          {
            child.setAttribute("style", "fill:none;stroke:red");
          }
          else if (child.localName == "polygon")
          {
            child.setAttribute("style", "fill:red;stroke:red");
          }
        }
        child = child.nextSibling;
      }
    }
  }
}
function set_status (msg)
{
 var obj = svgDocument.getElementById("status_text");
  var child;
 
  child = obj.firstChild;
  if ((child != null) && (child.nodeType == 3))
  {
    if ((msg != null) && (msg.length > 0))
    {
      child.data = msg;
    }
    else
    {
child.data = " ";
    }
  }
}
function zoomIn ()
{
    scale = scale + 0.8;
    if (scale > maxScale)
    {
       scale = maxScale;
    }
    transformMap();
    panUp();
    panUp();
    panUp();
    panUp();
    panUp();
    panUp();
    panUp();
    panUp();
    panUp();
    panUp();
    panUp();
    panUp();
}
function zoomOut ()
{
    scale = scale - 0.8;
    if (scale < 0.8)
    {
       scale = 0.8;
    }
    transformMap();
    panDown();
    panDown();
    panDown();
    panDown();
    panDown();
    panDown();
    panDown();
    panDown();
    panDown();
    panDown();
    panDown();
    panDown();
}
function panUp ()
{
    yOffset = yOffset + 20;
    transformMap();
}
function panDown ()
{
    yOffset = yOffset - 20;
    transformMap();
}
function panLeft ()
{
    xOffset = xOffset + 20;
    transformMap();
}
function panRight ()
{
    xOffset = xOffset - 20;
    transformMap();
}
function panRestore ()
{
    xOffset = 0;
    yOffset = 0;
    scale = 0.5;
    //obj = svgDocument.getElementById("zoom");
    //obj.setAttribute("x1", 0);
    //obj.setAttribute("x2", 0);
    transformMap();    
}
function doHighlight (evt, msg)
{
  var obj = evt.getTarget();
  obj.setAttribute("fill", "rgb(239,24,33)");
  set_status(msg);
}
function resetHighlight (evt)
{
  var obj = evt.getTarget();
  obj.setAttribute("fill", "rgb(99,154,206)");
  set_status(" ");
}
// ]]>
</script>
<defs>
<clipPath id="theClip">
<polygon points="1 61, 741 61, 741 665, 1 665"
style="fill: none;"/>
</clipPath>
</defs>
<!-- viewport outline -->
<rect x="0" y="61" width="742" height="606"
style="stroke: black; stroke-width: 1; fill: none;"/>
<!-- pathway graph style="clip-path: url(#theClip);" -->
<g style="clip-path: url(#theClip);">
<g id="Pathway"  transform="translate(0,60)">
<!-- prefile.include ends, begin pathway graph -->
<g id="stkecm;CMP_10705" class="graph">
</g>
<g id="graph0" class="graph" style="font-family:Times New Roman;font-size:6.95;"><title>G</title><g id="node1" class="node"><title>ABL1</title><a xlink:href="ABL1.html"><ellipse cx="412" cy="52" rx="14" ry="8" style="fill:turquoise;stroke:turquoise;"/><text text-anchor="middle" x="412" y="55" style="font-family:Times New Roman;"><![CDATA[ABL1]]></text></a></g><g id="node2" class="node"><title>ABI1</title><a xlink:href="ABI1.html"><ellipse cx="20" cy="88" rx="13" ry="8" style="fill:turquoise;stroke:turquoise;"/><text text-anchor="middle" x="20" y="90" style="font-family:Times New Roman;"><![CDATA[ABI1]]></text></a></g><g id="edge2" class="edge"><title>ABL1-&gt;ABI1</title><path style="fill:none;stroke:darkgreen;" d="M397,53C336,54 108,61 38,79 37,79 36,80 34,80"/><polygon style="fill:darkgreen;stroke:darkgreen;" points="35,81 30,82 34,79 35,81"/></g><g id="node4" class="node"><title>SORBS2</title><a xlink:href="SORBS2.html"><ellipse cx="63" cy="88" rx="20" ry="8" style="fill:turquoise;stroke:turquoise;"/><text text-anchor="middle" x="63" y="90" style="font-family:Times New Roman;"><![CDATA[SORBS2]]></text></a></g><g id="edge4" class="edge"><title>ABL1-&gt;SORBS2</title><path style="fill:none;stroke:darkgreen;" d="M397,53C342,56 149,66 88,79 87,79 85,80 83,80"/><polygon style="fill:darkgreen;stroke:darkgreen;" points="84,81 79,82 83,79 84,81"/></g><g id="node6" class="node"><title>BCAR1</title><a xlink:href="BCAR1.html"><ellipse cx="111" cy="88" rx="18" ry="8" style="fill:turquoise;stroke:turquoise;"/><text text-anchor="middle" x="111" y="90" style="font-family:Times New Roman;"><![CDATA[BCAR1]]></text></a></g><g id="edge6" class="edge"><title>ABL1-&gt;BCAR1</title><path style="fill:none;stroke:darkgreen;" d="M397,53C347,56 185,67 134,79 132,79 131,80 129,80"/><polygon style="fill:darkgreen;stroke:darkgreen;" points="130,81 125,82 129,79 130,81"/></g><g id="node8" class="node"><title>CAV1</title><a xlink:href="CAV1.html"><ellipse cx="154" cy="88" rx="15" ry="8" style="fill:turquoise;stroke:turquoise;"/><text text-anchor="middle" x="154" y="90" style="font-family:Times New Roman;"><![CDATA[CAV1]]></text></a></g><g id="edge8" class="edge"><title>ABL1-&gt;CAV1</title><path style="fill:none;stroke:darkgreen;" d="M397,53C352,57 217,68 174,79 173,79 172,80 171,80"/><polygon style="fill:darkgreen;stroke:darkgreen;" points="171,81 166,82 171,79 171,81"/></g><g id="node10" class="node"><title>CRK</title><a xlink:href="CRK.html"><ellipse cx="193" cy="88" rx="14" ry="8" style="fill:turquoise;stroke:turquoise;"/><text text-anchor="middle" x="193" y="90" style="font-family:Times New Roman;"><![CDATA[CRK]]></text></a></g><g id="edge10" class="edge"><title>ABL1-&gt;CRK</title><path style="fill:none;stroke:#0000ff;" d="M394,53C359,54 278,60 212,79 210,80 208,80 206,81"/><polygon style="fill:#0000ff;stroke:#0000ff;" points="397,54 397,51 394,51 394,54 397,54"/><polygon style="fill:#0000ff;stroke:#0000ff;" points="204,81 205,83 207,82 206,80 204,81"/></g><g id="node12" class="node"><title>CRKL</title><a xlink:href="CRKL.html"><ellipse cx="234" cy="88" rx="16" ry="8" style="fill:turquoise;stroke:turquoise;"/><text text-anchor="middle" x="234" y="90" style="font-family:Times New Roman;"><![CDATA[CRKL]]></text></a></g><g id="edge12" class="edge"><title>ABL1-&gt;CRKL</title><path style="fill:none;stroke:#0000ff;" d="M394,54C366,57 305,65 255,79 253,80 250,80 248,81"/><polygon style="fill:#0000ff;stroke:#0000ff;" points="397,55 397,53 394,53 394,55 397,55"/><polygon style="fill:#0000ff;stroke:#0000ff;" points="246,81 247,83 249,82 248,80 246,81"/></g><g id="node14" class="node"><title>NEDD9</title><a xlink:href="NEDD9.html"><ellipse cx="279" cy="88" rx="19" ry="8" style="fill:turquoise;stroke:turquoise;"/><text text-anchor="middle" x="279" y="90" style="font-family:Times New Roman;"><![CDATA[NEDD9]]></text></a></g><g id="edge14" class="edge"><title>ABL1-&gt;NEDD9</title><path style="fill:none;stroke:darkgreen;" d="M397,55C377,60 336,69 303,79 301,79 300,80 298,80"/><polygon style="fill:darkgreen;stroke:darkgreen;" points="299,81 294,82 298,79 299,81"/></g><g id="node16" class="node"><title>LASP1</title><a xlink:href="LASP1.html"><ellipse cx="324" cy="88" rx="16" ry="8" style="fill:turquoise;stroke:turquoise;"/><text text-anchor="middle" x="324" y="90" style="font-family:Times New Roman;"><![CDATA[LASP1]]></text></a></g><g id="edge16" class="edge"><title>ABL1-&gt;LASP1</title><path style="fill:none;stroke:darkgreen;" d="M399,57C386,63 364,72 345,79 344,79 343,80 341,80"/><polygon style="fill:darkgreen;stroke:darkgreen;" points="342,81 337,82 341,79 342,81"/></g><g id="node18" class="node"><title>RASA1</title><a xlink:href="RASA1.html"><ellipse cx="368" cy="88" rx="17" ry="8" style="fill:turquoise;stroke:turquoise;"/><text text-anchor="middle" x="368" y="90" style="font-family:Times New Roman;"><![CDATA[RASA1]]></text></a></g><g id="edge18" class="edge"><title>ABL1-&gt;RASA1</title><path style="fill:none;stroke:#0000ff;" d="M401,61C394,67 386,74 379,79"/><polygon style="fill:#0000ff;stroke:#0000ff;" points="404,61 402,59 400,60 402,62 404,61"/><polygon style="fill:#0000ff;stroke:#0000ff;" points="377,79 378,81 380,80 379,78 377,79"/></g><g id="node20" class="node"><title>GRLF1</title><a xlink:href="GRLF1.html"><ellipse cx="412" cy="88" rx="17" ry="8" style="fill:turquoise;stroke:turquoise;"/><text text-anchor="middle" x="412" y="90" style="font-family:Times New Roman;"><![CDATA[GRLF1]]></text></a></g><g id="edge20" class="edge"><title>ABL1-&gt;GRLF1</title><path style="fill:none;stroke:darkgreen;" d="M412,61C412,65 412,70 412,74"/><polygon style="fill:darkgreen;stroke:darkgreen;" points="413,74 412,79 411,74 413,74"/></g><g id="node22" class="node"><title>PAK1</title><a xlink:href="PAK1.html"><ellipse cx="454" cy="88" rx="15" ry="8" style="fill:turquoise;stroke:turquoise;"/><text text-anchor="middle" x="454" y="90" style="font-family:Times New Roman;"><![CDATA[PAK1]]></text></a></g><g id="edge22" class="edge"><title>ABL1-&gt;PAK1</title><path style="fill:none;stroke:darkgreen;" d="M418,60C424,66 432,73 439,78"/><polygon style="fill:darkgreen;stroke:darkgreen;" points="440,77 443,81 438,79 440,77"/></g><g id="node24" class="node"><title>PXN</title><a xlink:href="PXN.html"><ellipse cx="492" cy="88" rx="14" ry="8" style="fill:turquoise;stroke:turquoise;"/><text text-anchor="middle" x="492" y="90" style="font-family:Times New Roman;"><![CDATA[PXN]]></text></a></g><g id="edge24" class="edge"><title>ABL1-&gt;PXN</title><path style="fill:none;stroke:darkgreen;" d="M424,58C437,63 457,72 473,79 474,79 476,80 477,80"/><polygon style="fill:darkgreen;stroke:darkgreen;" points="477,79 481,82 476,81 477,79"/></g><g id="node26" class="node"><title>SORBS1</title><a xlink:href="SORBS1.html"><ellipse cx="535" cy="88" rx="19" ry="8" style="fill:turquoise;stroke:turquoise;"/><text text-anchor="middle" x="535" y="90" style="font-family:Times New Roman;"><![CDATA[SORBS1]]></text></a></g><g id="edge26" class="edge"><title>ABL1-&gt;SORBS1</title><path style="fill:none;stroke:#0000ff;" d="M428,56C448,61 482,70 511,79 514,80 516,80 518,81"/><polygon style="fill:#0000ff;stroke:#0000ff;" points="426,55 426,57 428,57 428,55 426,55"/><polygon style="fill:#0000ff;stroke:#0000ff;" points="520,83 521,81 518,80 517,82 520,83"/></g><g id="node28" class="node"><title>PTK2B</title><a xlink:href="PTK2B.html"><ellipse cx="582" cy="88" rx="18" ry="8" style="fill:turquoise;stroke:turquoise;"/><text text-anchor="middle" x="582" y="90" style="font-family:Times New Roman;"><![CDATA[PTK2B]]></text></a></g><g id="edge28" class="edge"><title>ABL1-&gt;PTK2B</title><path style="fill:none;stroke:#0000ff;" d="M429,55C457,58 513,66 559,79 561,80 563,80 566,81"/><polygon style="fill:#0000ff;stroke:#0000ff;" points="427,53 427,55 429,56 429,54 427,53"/><polygon style="fill:#0000ff;stroke:#0000ff;" points="567,83 568,81 566,80 565,82 567,83"/></g><g id="node30" class="node"><title>INPPL1</title><a xlink:href="INPPL1.html"><ellipse cx="627" cy="88" rx="18" ry="8" style="fill:turquoise;stroke:turquoise;"/><text text-anchor="middle" x="627" y="90" style="font-family:Times New Roman;"><![CDATA[INPPL1]]></text></a></g><g id="edge30" class="edge"><title>ABL1-&gt;INPPL1</title><path style="fill:none;stroke:#0000ff;" d="M429,53C463,56 541,63 605,79 607,80 609,80 611,81"/><polygon style="fill:#0000ff;stroke:#0000ff;" points="427,52 427,54 429,54 429,52 427,52"/><polygon style="fill:#0000ff;stroke:#0000ff;" points="613,83 614,81 611,80 610,82 613,83"/></g><g id="node32" class="node"><title>PTPN6</title><a xlink:href="PTPN6.html"><ellipse cx="673" cy="88" rx="17" ry="8" style="fill:turquoise;stroke:turquoise;"/><text text-anchor="middle" x="673" y="90" style="font-family:Times New Roman;"><![CDATA[PTPN6]]></text></a></g><g id="edge32" class="edge"><title>ABL1-&gt;PTPN6</title><path style="fill:none;stroke:darkgreen;" d="M427,53C465,54 567,58 650,79 652,79 653,80 655,80"/><polygon style="fill:darkgreen;stroke:darkgreen;" points="655,79 659,82 654,81 655,79"/></g><g id="node34" class="node"><title>CBL</title><a xlink:href="CBL.html"><ellipse cx="713" cy="88" rx="13" ry="8" style="fill:turquoise;stroke:turquoise;"/><text text-anchor="middle" x="713" y="90" style="font-family:Times New Roman;"><![CDATA[CBL]]></text></a></g><g id="edge34" class="edge"><title>ABL1-&gt;CBL</title><path style="fill:none;stroke:darkgreen;" d="M427,53C477,56 640,65 690,79 692,79 695,80 697,81"/><polygon style="fill:darkgreen;stroke:darkgreen;" points="697,80 701,83 696,82 697,80"/></g><g id="edge40" class="edge"><title>PAK1-&gt;ABL1</title><path style="fill:none;stroke:darkgreen;" d="M426,62C433,67 441,75 447,80"/><polygon style="fill:darkgreen;stroke:darkgreen;" points="426,63 422,59 427,61 426,63"/></g><g id="edge38" class="edge"><title>CBL-&gt;ABL1</title><path style="fill:none;stroke:#ff0000;" d="M434,53C493,56 650,65 699,79 701,79 703,80 704,81"/><polyline style="fill:none;stroke:#ff0000;" points="434,50 434,57 "/></g><g id="node36" class="node"><title>ACTB</title><a xlink:href="ACTB.html"><ellipse cx="367" cy="16" rx="16" ry="8" style="fill:turquoise;stroke:turquoise;"/><text text-anchor="middle" x="367" y="19" style="font-family:Times New Roman;"><![CDATA[ACTB]]></text></a></g><g id="edge36" class="edge"><title>ACTB-&gt;ABL1</title><path style="fill:none;stroke:#ff0000;" d="M377,24C383,28 390,35 397,40"/><polyline style="fill:none;stroke:#ff0000;" points="395,43 399,37 "/></g><g id="node40" class="node"><title>PTPN12</title><a xlink:href="PTPN12.html"><ellipse cx="412" cy="16" rx="19" ry="8" style="fill:turquoise;stroke:turquoise;"/><text text-anchor="middle" x="412" y="19" style="font-family:Times New Roman;"><![CDATA[PTPN12]]></text></a></g><g id="edge42" class="edge"><title>PTPN12-&gt;ABL1</title><path style="fill:none;stroke:#ff0000;" d="M412,25C412,28 412,32 412,36"/><polyline style="fill:none;stroke:#ff0000;" points="408,36 416,36 "/></g><g id="node42" class="node"><title>SRC</title><a xlink:href="SRC.html"><ellipse cx="454" cy="16" rx="13" ry="8" style="fill:turquoise;stroke:turquoise;"/><text text-anchor="middle" x="454" y="19" style="font-family:Times New Roman;"><![CDATA[SRC]]></text></a></g><g id="edge44" class="edge"><title>SRC-&gt;ABL1</title><path style="fill:none;stroke:darkgreen;" d="M445,23C439,28 431,36 424,42"/><polygon style="fill:darkgreen;stroke:darkgreen;" points="425,42 420,45 423,41 425,42"/></g></g></g></g>
<!-- navigation controls -->
<g id="navbox">
	<rect x="0" y="0" width="742" height="60"
		 style="fill:rgb(206,207,206);stroke:rgb(0,0,0);stroke-width:1"/>

	<polygon id="pan_right"
        onmouseup="panRight()"
        onmouseover="doHighlight(evt, 'Click to pan to the right')"
        onmouseout="resetHighlight(evt)"
		points="28.0732,13 32,20.5 28.0732,28 28.0732,23.4412 25,23.4412 25,17.4118 28.0732,17.4118"
		 transform="matrix(3.39111 0 0 2.98838 -12.6265 -29.7101)"
         fill="rgb(99,154,206)"
		 style="stroke:rgb(0,0,0);stroke-width:0.5"/>
	<polygon id="pan_left"
        onmouseup="panLeft()"
        onmouseover="doHighlight(evt, 'Click to pan to the left')"
        onmouseout="resetHighlight(evt)"
		points="123.991,25 120.064,32.5 123.991,40 123.991,35.4412 127.064,35.4412 127.064,29.4118
			123.991,29.4118" transform="matrix(3.39111 0 0 2.98838 -404.865 -65.5706)"
         fill="rgb(99,154,206)"
		 style="stroke:rgb(0,0,0);stroke-width:0.5"/>
	<polygon id="pan_down"
        onmouseup="panDown()"
        onmouseover="doHighlight(evt, 'Click to pan down')"
        onmouseout="resetHighlight(evt)"
		points="116.032,32.0408 123.532,35.9678 131.032,32.0408 126.473,32.0408 126.473,28.9678 120.444,28.9678
			120.444,32.0408" transform="matrix(3.39111 0 0 2.98838 -369.822 -50.6287)"
         fill="rgb(99,154,206)"
		 style="stroke:rgb(0,0,0);stroke-width:0.5"/>
	<polygon id="pan_up"
        onmouseup="panUp()"
  onmouseover="doHighlight(evt, 'Click to pan up')"
        onmouseout="resetHighlight(evt)"
		points="116.032,32.0408 123.532,35.9678 131.032,32.0408 126.473,32.0408 126.473,28.9678 120.444,28.9678
			120.444,32.0408" transform="matrix(3.39111 0 0 -2.98838 -369.823 111.74)"
         fill="rgb(99,154,206)"
		 style="stroke:rgb(0,0,0);stroke-width:0.5"/>
	<g id="go_home" 
         onmouseup="panRestore()" 
         onmouseover="doHighlight(evt, 'Click to restore graph to original position')"
         onmouseout="resetHighlight(evt)"
         fill="rgb(99,154,206)"
         transform="matrix(1 0 0 1 0 -0.333333)">
		<rect x="196" y="11" width="26" height="26"
			transform="translate(-19.1111 -2.66667)"
			 style="stroke:rgb(0,0,0);stroke-width:1"/>
		<line x1="182" y1="16" x2="182" y2="28"
			transform="matrix(1 0 0 1 2.22222 0.444444)"
			 style="fill:none;stroke:rgb(0,0,0);stroke-width:2"/>
		<line x1="187" y1="22" x2="187" y2="28"
			transform="matrix(1 0 0 1 2.22222 0.444444)"
			 style="fill:none;stroke:rgb(0,0,0);stroke-width:2"/>
	<line x1="192" y1="13" x2="192" y2="28"
			transform="matrix(1 0 0 1 2.22222 0.444444)"
			 style="fill:none;stroke:rgb(0,0,0);stroke-width:2"/>
		<line x1="182" y1="28" x2="192" y2="28"
			transform="matrix(1 0 0 1 2.22222 0.444444)"
	style="fill:none;stroke:rgb(0,0,0);stroke-width:2"/>
		<line x1="189" y1="12" x2="179" y2="21"
			 style="fill:none;stroke:rgb(0,0,0);stroke-width:2"/>
		<line x1="188" y1="12" x2="199" y2="20"
			 style="fill:none;stroke:rgb(0,0,0);stroke-width:2"/>
	</g>
	<g id="zoom_out" onmouseup="zoomOut()" 
             onmouseover="doHighlight(evt, 'Click to zoom out')"
             onmouseout="resetHighlight(evt)"
             fill="rgb(99,154,206)"
             transform="matrix(1 0 0 1 0 0)">
		<rect x="116" y="8" width="26" height="26"
			 style="stroke:rgb(0,0,0);stroke-width:1"/>
		<ellipse cx="126" cy="18" rx="6" ry="6"
			 style="stroke:rgb(0,0,0);stroke-width:1"/>
		<line x1="130" y1="23" x2="137" y2="29"
			transform="matrix(1 0 0 1 0.888889 -0.888889)"
			 style="fill:none;stroke:rgb(0,0,0);stroke-width:2"/>
		<line x1="123" y1="18" x2="129" y2="18"
			 style="fill:none;stroke:rgb(0,0,0);stroke-width:2"/>
	</g>
	<g id="zoom_in" onmouseup="zoomIn()" 
             onmouseover="doHighlight(evt, 'Click to zoom in')"
             onmouseout="resetHighlight(evt)"
             fill="rgb(99,154,206)"
             transform="matrix(1 0 0 1 0.888889 -0.444444)">
		<rect x="116" y="8" width="26" height="26"
			transform="matrix(1 0 0 1 29.7778 0.444444)"
			 style="stroke:rgb(0,0,0);stroke-width:1"/>
		<ellipse cx="126" cy="18" rx="6" ry="6"
			transform="matrix(1 0 0 1 29.7778 0.444444)"
			 style="stroke:rgb(0,0,0);stroke-width:1"/>
		<line x1="130" y1="23" x2="137" y2="29"
			transform="matrix(1 0 0 1 30.6667 -0.444445)"
		style="fill:none;stroke:rgb(0,0,0);stroke-width:2"/>
		<line x1="123" y1="18" x2="129" y2="18"
			transform="matrix(1 0 0 1 29.7778 0.444444)"
			 style="fill:none;stroke:rgb(0,0,0);stroke-width:2"/>
		<line x1="156" y1="15" x2="156" y2="22"
			 style="fill:none;stroke:rgb(0,0,0);stroke-width:2"/>
	</g>
	<g>
		<rect x="117" y="40" width="452" height="14"
			transform="matrix(1.54201 0 0 1 -64.1436 -0.222222)"
			 style="fill:rgb(192,192,192);stroke:rgb(0,0,0);stroke-width:1"/>
		<text id="status_text" x="183px" y="48px"
			transform="matrix(1 0 0 1 -63.5556 3.00778)"
			 style="fill:rgb(0,0,0);font-size:14;font-family:Arial"> </text>
	</g>
</g>	
</svg>