<?xml version="1.0" encoding="UTF-8" standalone="no"?><!DOCTYPE svg PUBLIC "-//W3C//DTD SVG 1.0//EN" "http://www.w3.org/TR/2001/REC-SVG-20010904/DTD/svg10.dtd" [ <!ATTLIST svg xmlns:xlink CDATA #FIXED "http://www.w3.org/1999/xlink">]><!-- Generated by WinGraphviz version ver1.02.23, 08/01/2003 (08/04/2003)     For user: Avi Ma'ayan   Title: G    Pages: 1 --><!--="735px" height="107px" xmlns="http://www.w3.org/2000/svg" --><svg onload="init(evt)" width="735px" height="600px" xmlns="http://www.w3.org/2000/svg" xmlns:xlink="http://www.w3.org/1999/xlink">
<script type="text/ecmascript">
<![CDATA[
var svgDocument;
var zoomAmt;
var xOffset;
var yOffset;
var scale;
var maxScale;
var imageWidth;
var imageHeight;
function init(evt)
{
    svgDocument = evt.getTarget().getOwnerDocument();
    zoomAmt = 0;
    xOffset = 0;
    yOffset = 60;
    scale = 0.8;
    maxScale = 10;
    imageWidth = 742;
    imageHeight = 606;
    panRestore();
    //panUp();
}
function transformMap ()
{
    var obj = svgDocument.getElementById("Pathway");
    var centerX = imageWidth  / 2.0;
    var centerY = imageHeight / 2.0;
    var adjustX = (-centerX * (scale - 0.8)) + xOffset;
    var adjustY = (-centerY * (scale - 0.8)) + yOffset;
    var transParms = 'translate(' + adjustX + ',' + adjustY + ') ';
    transParms += 'scale(' + scale + ')';
    // alert(transParms);
    obj.setAttribute("transform", transParms); 
}
function click_node(id)
{
    var testx = parent.click_node;
    if (typeof(testx) == "function")
    {
		parent.click_node(id);
    }
}
function click_relation(id)
{
    var testx = parent.click_relation;
    if (typeof(testx) == "function")
    {
        parent.click_relation(id);
    }
}
function click_pathway(toId, fromId)
{
    var testx = parent.click_pathway;
    if (typeof(testx) == "function")
    {
	parent.click_pathway(toId, fromId);
    }
}
function check_interpath(evt, pathid)
{
  var obj = evt.getTarget();
  var testx = parent.is_frompath;
  var child = obj.firstChild;
  if (typeof(testx) == "function")
  {
    if (parent.is_frompath(pathid))
    {
      while (child != null)
      {
        if (child.nodeType == 1)
        {
          if ((child.localName == "g") || (child.localName == "polyline"))
          {
            child.setAttribute("style", "fill:none;stroke:red");
          }
          else if (child.localName == "polygon")
          {
            child.setAttribute("style", "fill:red;stroke:red");
          }
        }
        child = child.nextSibling;
      }
    }
  }
}
function set_status (msg)
{
 var obj = svgDocument.getElementById("status_text");
  var child;
 
  child = obj.firstChild;
  if ((child != null) && (child.nodeType == 3))
  {
    if ((msg != null) && (msg.length > 0))
    {
      child.data = msg;
    }
    else
    {
child.data = " ";
    }
  }
}
function zoomIn ()
{
    scale = scale + 0.8;
    if (scale > maxScale)
    {
       scale = maxScale;
    }
    transformMap();
    panUp();
    panUp();
    panUp();
    panUp();
    panUp();
    panUp();
    panUp();
    panUp();
    panUp();
    panUp();
    panUp();
    panUp();
}
function zoomOut ()
{
    scale = scale - 0.8;
    if (scale < 0.8)
    {
       scale = 0.8;
    }
    transformMap();
    panDown();
    panDown();
    panDown();
    panDown();
    panDown();
    panDown();
    panDown();
    panDown();
    panDown();
    panDown();
    panDown();
    panDown();
}
function panUp ()
{
    yOffset = yOffset + 20;
    transformMap();
}
function panDown ()
{
    yOffset = yOffset - 20;
    transformMap();
}
function panLeft ()
{
    xOffset = xOffset + 20;
    transformMap();
}
function panRight ()
{
    xOffset = xOffset - 20;
    transformMap();
}
function panRestore ()
{
    xOffset = 0;
    yOffset = 0;
    scale = 0.5;
    //obj = svgDocument.getElementById("zoom");
    //obj.setAttribute("x1", 0);
    //obj.setAttribute("x2", 0);
    transformMap();    
}
function doHighlight (evt, msg)
{
  var obj = evt.getTarget();
  obj.setAttribute("fill", "rgb(239,24,33)");
  set_status(msg);
}
function resetHighlight (evt)
{
  var obj = evt.getTarget();
  obj.setAttribute("fill", "rgb(99,154,206)");
  set_status(" ");
}
// ]]>
</script>
<defs>
<clipPath id="theClip">
<polygon points="1 61, 741 61, 741 665, 1 665"
style="fill: none;"/>
</clipPath>
</defs>
<!-- viewport outline -->
<rect x="0" y="61" width="742" height="606"
style="stroke: black; stroke-width: 1; fill: none;"/>
<!-- pathway graph style="clip-path: url(#theClip);" -->
<g style="clip-path: url(#theClip);">
<g id="Pathway"  transform="translate(0,60)">
<!-- prefile.include ends, begin pathway graph -->
<g id="stkecm;CMP_10705" class="graph">
</g>
<g id="graph0" class="graph" style="font-family:Times New Roman;font-size:6.61;"><title>G</title><g id="node1" class="node"><title>ACTB</title><a xlink:href="ACTB.html"><ellipse cx="352" cy="51" rx="15" ry="8" style="fill:turquoise;stroke:turquoise;"/><text text-anchor="middle" x="352" y="53" style="font-family:Times New Roman;"><![CDATA[ACTB]]></text></a></g><g id="node2" class="node"><title>ABL1</title><a xlink:href="ABL1.html"><ellipse cx="20" cy="85" rx="14" ry="8" style="fill:turquoise;stroke:turquoise;"/><text text-anchor="middle" x="20" y="87" style="font-family:Times New Roman;"><![CDATA[ABL1]]></text></a></g><g id="edge2" class="edge"><title>ACTB-&gt;ABL1</title><path style="fill:none;stroke:#ff0000;" d="M337,51C282,53 96,61 39,76 38,76 38,77 37,77"/><polyline style="fill:none;stroke:#ff0000;" points="36,73 39,80 "/></g><g id="node4" class="node"><title>CTTN</title><a xlink:href="CTTN.html"><ellipse cx="59" cy="85" rx="15" ry="8" style="fill:turquoise;stroke:turquoise;"/><text text-anchor="middle" x="59" y="87" style="font-family:Times New Roman;"><![CDATA[CTTN]]></text></a></g><g id="edge4" class="edge"><title>ACTB-&gt;CTTN</title><path style="fill:none;stroke:#0000ff;" d="M335,52C282,55 127,64 78,76 76,77 74,77 72,78"/><polygon style="fill:#0000ff;stroke:#0000ff;" points="337,52 337,50 335,50 335,52 337,52"/><polygon style="fill:#0000ff;stroke:#0000ff;" points="70,78 71,80 73,79 72,77 70,78"/></g><g id="node6" class="node"><title>CSRP1</title><a xlink:href="CSRP1.html"><ellipse cx="98" cy="85" rx="15" ry="8" style="fill:turquoise;stroke:turquoise;"/><text text-anchor="middle" x="98" y="87" style="font-family:Times New Roman;"><![CDATA[CSRP1]]></text></a></g><g id="edge6" class="edge"><title>ACTB-&gt;CSRP1</title><path style="fill:none;stroke:#0000ff;" d="M335,52C287,55 160,65 118,76 116,77 114,77 112,78"/><polygon style="fill:#0000ff;stroke:#0000ff;" points="337,52 337,50 335,50 335,52 337,52"/><polygon style="fill:#0000ff;stroke:#0000ff;" points="109,78 110,80 113,79 112,77 109,78"/></g><g id="node8" class="node"><title>VIL2</title><a xlink:href="VIL2.html"><ellipse cx="136" cy="85" rx="13" ry="8" style="fill:turquoise;stroke:turquoise;"/><text text-anchor="middle" x="136" y="87" style="font-family:Times New Roman;"><![CDATA[VIL2]]></text></a></g><g id="edge8" class="edge"><title>ACTB-&gt;VIL2</title><path style="fill:none;stroke:#0000ff;" d="M335,51C300,52 219,57 154,76 152,77 150,77 148,78"/><polygon style="fill:#0000ff;stroke:#0000ff;" points="337,52 337,50 335,50 335,52 337,52"/><polygon style="fill:#0000ff;stroke:#0000ff;" points="146,78 147,80 149,79 148,77 146,78"/></g><g id="node10" class="node"><title>FLNA</title><a xlink:href="FLNA.html"><ellipse cx="174" cy="85" rx="16" ry="8" style="fill:turquoise;stroke:turquoise;"/><text text-anchor="middle" x="174" y="87" style="font-family:Times New Roman;"><![CDATA[FLNA]]></text></a></g><g id="edge10" class="edge"><title>ACTB-&gt;FLNA</title><path style="fill:none;stroke:#0000ff;" d="M335,52C305,55 244,62 194,76 193,77 190,77 188,78"/><polygon style="fill:#0000ff;stroke:#0000ff;" points="337,53 337,51 335,51 335,53 337,53"/><polygon style="fill:#0000ff;stroke:#0000ff;" points="186,78 187,80 189,79 188,77 186,78"/></g><g id="node12" class="node"><title>HSPB1</title><a xlink:href="HSPB1.html"><ellipse cx="215" cy="85" rx="16" ry="8" style="fill:turquoise;stroke:turquoise;"/><text text-anchor="middle" x="215" y="87" style="font-family:Times New Roman;"><![CDATA[HSPB1]]></text></a></g><g id="edge12" class="edge"><title>ACTB-&gt;HSPB1</title><path style="fill:none;stroke:#0000ff;" d="M335,53C312,57 270,65 235,76 233,77 231,77 229,78"/><polygon style="fill:#0000ff;stroke:#0000ff;" points="337,54 337,52 335,52 335,54 337,54"/><polygon style="fill:#0000ff;stroke:#0000ff;" points="227,78 227,80 229,79 228,77 227,78"/></g><g id="node14" class="node"><title>LASP1</title><a xlink:href="LASP1.html"><ellipse cx="255" cy="85" rx="16" ry="8" style="fill:turquoise;stroke:turquoise;"/><text text-anchor="middle" x="255" y="87" style="font-family:Times New Roman;"><![CDATA[LASP1]]></text></a></g><g id="edge14" class="edge"><title>ACTB-&gt;LASP1</title><path style="fill:none;stroke:#0000ff;" d="M336,55C321,61 297,69 276,76 274,77 272,78 270,78"/><polygon style="fill:#0000ff;stroke:#0000ff;" points="339,56 339,54 336,54 336,56 339,56"/><polygon style="fill:#0000ff;stroke:#0000ff;" points="268,78 268,80 270,79 269,77 268,78"/></g><g id="node16" class="node"><title>LYN</title><a xlink:href="LYN.html"><ellipse cx="294" cy="85" rx="13" ry="8" style="fill:turquoise;stroke:turquoise;"/><text text-anchor="middle" x="294" y="87" style="font-family:Times New Roman;"><![CDATA[LYN]]></text></a></g><g id="edge16" class="edge"><title>ACTB-&gt;LYN</title><path style="fill:none;stroke:#0000ff;" d="M339,58C329,64 316,72 306,78"/><polygon style="fill:#0000ff;stroke:#0000ff;" points="342,58 341,56 339,57 340,59 342,58"/><polygon style="fill:#0000ff;stroke:#0000ff;" points="303,78 304,80 306,79 305,77 303,78"/></g><g id="node18" class="node"><title>NEXN</title><a xlink:href="NEXN.html"><ellipse cx="333" cy="85" rx="16" ry="8" style="fill:turquoise;stroke:turquoise;"/><text text-anchor="middle" x="333" y="87" style="font-family:Times New Roman;"><![CDATA[NEXN]]></text></a></g><g id="edge18" class="edge"><title>ACTB-&gt;NEXN</title><path style="fill:none;stroke:#0000ff;" d="M347,61C344,65 341,70 338,75"/><polygon style="fill:#0000ff;stroke:#0000ff;" points="349,59 347,58 346,60 348,61 349,59"/><polygon style="fill:#0000ff;stroke:#0000ff;" points="336,76 338,77 339,75 337,74 336,76"/></g><g id="node20" class="node"><title>PAK1</title><a xlink:href="PAK1.html"><ellipse cx="373" cy="85" rx="14" ry="8" style="fill:turquoise;stroke:turquoise;"/><text text-anchor="middle" x="373" y="87" style="font-family:Times New Roman;"><![CDATA[PAK1]]></text></a></g><g id="edge20" class="edge"><title>ACTB-&gt;PAK1</title><path style="fill:none;stroke:#0000ff;" d="M358,61C361,65 364,70 367,75"/><polygon style="fill:#0000ff;stroke:#0000ff;" points="358,58 356,59 357,61 359,60 358,58"/><polygon style="fill:#0000ff;stroke:#0000ff;" points="367,77 369,76 368,74 366,75 367,77"/></g><g id="node22" class="node"><title>PARVA</title><a xlink:href="PARVA.html"><ellipse cx="415" cy="85" rx="19" ry="8" style="fill:turquoise;stroke:turquoise;"/><text text-anchor="middle" x="415" y="87" style="font-family:Times New Roman;"><![CDATA[PARVA]]></text></a></g><g id="edge22" class="edge"><title>ACTB-&gt;PARVA</title><path style="fill:none;stroke:#0000ff;" d="M366,58C377,63 391,71 401,77"/><polygon style="fill:#0000ff;stroke:#0000ff;" points="364,56 363,58 365,59 366,57 364,56"/><polygon style="fill:#0000ff;stroke:#0000ff;" points="402,79 403,77 402,76 401,78 402,79"/></g><g id="node24" class="node"><title>PRKCA</title><a xlink:href="PRKCA.html"><ellipse cx="462" cy="85" rx="18" ry="8" style="fill:turquoise;stroke:turquoise;"/><text text-anchor="middle" x="462" y="87" style="font-family:Times New Roman;"><![CDATA[PRKCA]]></text></a></g><g id="edge24" class="edge"><title>ACTB-&gt;PRKCA</title><path style="fill:none;stroke:#0000ff;" d="M369,55C386,60 414,69 439,76 441,77 443,77 445,78"/><polygon style="fill:#0000ff;stroke:#0000ff;" points="367,53 367,55 369,56 369,54 367,53"/><polygon style="fill:#0000ff;stroke:#0000ff;" points="447,80 448,78 446,77 445,79 447,80"/></g><g id="node26" class="node"><title>PLEC1</title><a xlink:href="PLEC1.html"><ellipse cx="505" cy="85" rx="16" ry="8" style="fill:turquoise;stroke:turquoise;"/><text text-anchor="middle" x="505" y="87" style="font-family:Times New Roman;"><![CDATA[PLEC1]]></text></a></g><g id="edge26" class="edge"><title>ACTB-&gt;PLEC1</title><path style="fill:none;stroke:#0000ff;" d="M370,53C395,56 444,64 485,76 487,77 489,77 491,78"/><polygon style="fill:#0000ff;stroke:#0000ff;" points="368,52 368,53 370,54 370,52 368,52"/><polygon style="fill:#0000ff;stroke:#0000ff;" points="493,80 494,78 491,77 490,79 493,80"/></g><g id="node28" class="node"><title>ARHGAP24</title><a xlink:href="ARHGAP24.html"><ellipse cx="556" cy="85" rx="26" ry="8" style="fill:turquoise;stroke:turquoise;"/><text text-anchor="middle" x="556" y="87" style="font-family:Times New Roman;"><![CDATA[ARHGAP24]]></text></a></g><g id="edge28" class="edge"><title>ACTB-&gt;ARHGAP24</title><path style="fill:none;stroke:#0000ff;" d="M370,52C402,56 469,64 526,76 528,77 532,77 535,78"/><polygon style="fill:#0000ff;stroke:#0000ff;" points="368,51 368,53 370,53 370,52 368,51"/><polygon style="fill:#0000ff;stroke:#0000ff;" points="536,80 537,78 535,77 534,79 536,80"/></g><g id="node30" class="node"><title>TLN1</title><a xlink:href="TLN1.html"><ellipse cx="605" cy="85" rx="14" ry="8" style="fill:turquoise;stroke:turquoise;"/><text text-anchor="middle" x="605" y="87" style="font-family:Times New Roman;"><![CDATA[TLN1]]></text></a></g><g id="edge30" class="edge"><title>ACTB-&gt;TLN1</title><path style="fill:none;stroke:#0000ff;" d="M370,52C418,55 545,65 587,76 589,77 591,77 593,78"/><polygon style="fill:#0000ff;stroke:#0000ff;" points="368,50 368,52 370,52 370,50 368,50"/><polygon style="fill:#0000ff;stroke:#0000ff;" points="594,80 595,78 593,77 592,79 594,80"/></g><g id="node32" class="node"><title>TNS1</title><a xlink:href="TNS1.html"><ellipse cx="642" cy="85" rx="13" ry="8" style="fill:turquoise;stroke:turquoise;"/><text text-anchor="middle" x="642" y="87" style="font-family:Times New Roman;"><![CDATA[TNS1]]></text></a></g><g id="edge32" class="edge"><title>ACTB-&gt;TNS1</title><path style="fill:none;stroke:#0000ff;" d="M370,52C423,54 576,63 624,76 626,77 628,77 629,78"/><polygon style="fill:#0000ff;stroke:#0000ff;" points="368,50 368,52 370,52 370,50 368,50"/><polygon style="fill:#0000ff;stroke:#0000ff;" points="631,80 632,78 630,77 629,79 631,80"/></g><g id="node34" class="node"><title>VCL</title><a xlink:href="VCL.html"><ellipse cx="677" cy="85" rx="13" ry="8" style="fill:turquoise;stroke:turquoise;"/><text text-anchor="middle" x="677" y="87" style="font-family:Times New Roman;"><![CDATA[VCL]]></text></a></g><g id="edge34" class="edge"><title>ACTB-&gt;VCL</title><path style="fill:none;stroke:#0000ff;" d="M370,51C428,53 605,61 660,76 662,77 663,77 665,78"/><polygon style="fill:#0000ff;stroke:#0000ff;" points="368,50 368,52 370,52 370,50 368,50"/><polygon style="fill:#0000ff;stroke:#0000ff;" points="667,80 668,78 665,77 664,79 667,80"/></g><g id="node36" class="node"><title>PLD1</title><a xlink:href="PLD1.html"><ellipse cx="712" cy="85" rx="13" ry="8" style="fill:turquoise;stroke:turquoise;"/><text text-anchor="middle" x="712" y="87" style="font-family:Times New Roman;"><![CDATA[PLD1]]></text></a></g><g id="edge36" class="edge"><title>ACTB-&gt;PLD1</title><path style="fill:none;stroke:#ff0000;" d="M368,51C427,52 631,60 695,76 695,76 695,77 696,77"/><polyline style="fill:none;stroke:#ff0000;" points="694,80 697,73 "/></g><g id="node38" class="node"><title>ACTN1</title><a xlink:href="ACTN1.html"><ellipse cx="250" cy="17" rx="17" ry="8" style="fill:turquoise;stroke:turquoise;"/><text text-anchor="middle" x="250" y="19" style="font-family:Times New Roman;"><![CDATA[ACTN1]]></text></a></g><g id="edge38" class="edge"><title>ACTN1-&gt;ACTB</title><path style="fill:none;stroke:#0000ff;" d="M265,23C267,24 269,24 271,25 294,33 320,41 336,46"/><polygon style="fill:#0000ff;stroke:#0000ff;" points="264,21 263,23 265,24 266,22 264,21"/><polygon style="fill:#0000ff;stroke:#0000ff;" points="339,48 339,46 336,45 336,47 339,48"/></g><g id="node40" class="node"><title>ARPC2</title><a xlink:href="ARPC2.html"><ellipse cx="294" cy="17" rx="17" ry="8" style="fill:turquoise;stroke:turquoise;"/><text text-anchor="middle" x="294" y="19" style="font-family:Times New Roman;"><![CDATA[ARPC2]]></text></a></g><g id="edge40" class="edge"><title>ARPC2-&gt;ACTB</title><path style="fill:none;stroke:darkgreen;" d="M305,23C314,29 328,36 338,42"/><polygon style="fill:darkgreen;stroke:darkgreen;" points="338,41 342,44 337,43 338,41"/></g><g id="node42" class="node"><title>CFL1</title><a xlink:href="CFL1.html"><ellipse cx="333" cy="17" rx="13" ry="8" style="fill:turquoise;stroke:turquoise;"/><text text-anchor="middle" x="333" y="19" style="font-family:Times New Roman;"><![CDATA[CFL1]]></text></a></g><g id="edge42" class="edge"><title>CFL1-&gt;ACTB</title><path style="fill:none;stroke:#0000ff;" d="M339,27C341,31 344,36 347,40"/><polygon style="fill:#0000ff;stroke:#0000ff;" points="339,24 337,25 338,27 340,26 339,24"/><polygon style="fill:#0000ff;stroke:#0000ff;" points="347,43 349,42 348,40 346,41 347,43"/></g><g id="node44" class="node"><title>KEAP1</title><a xlink:href="KEAP1.html"><ellipse cx="372" cy="17" rx="16" ry="8" style="fill:turquoise;stroke:turquoise;"/><text text-anchor="middle" x="372" y="19" style="font-family:Times New Roman;"><![CDATA[KEAP1]]></text></a></g><g id="edge44" class="edge"><title>KEAP1-&gt;ACTB</title><path style="fill:none;stroke:#0000ff;" d="M366,27C364,31 361,36 358,41"/><polygon style="fill:#0000ff;stroke:#0000ff;" points="368,25 366,24 365,26 367,27 368,25"/><polygon style="fill:#0000ff;stroke:#0000ff;" points="356,42 358,43 359,41 357,40 356,42"/></g><g id="node46" class="node"><title>PFN1</title><a xlink:href="PFN1.html"><ellipse cx="411" cy="17" rx="13" ry="8" style="fill:turquoise;stroke:turquoise;"/><text text-anchor="middle" x="411" y="19" style="font-family:Times New Roman;"><![CDATA[PFN1]]></text></a></g><g id="edge46" class="edge"><title>PFN1-&gt;ACTB</title><path style="fill:none;stroke:#0000ff;" d="M399,23C389,29 376,37 366,43"/><polygon style="fill:#0000ff;stroke:#0000ff;" points="402,23 401,21 399,22 400,24 402,23"/><polygon style="fill:#0000ff;stroke:#0000ff;" points="363,44 364,45 366,44 365,42 363,44"/></g><g id="node48" class="node"><title>VASP</title><a xlink:href="VASP.html"><ellipse cx="449" cy="17" rx="15" ry="8" style="fill:turquoise;stroke:turquoise;"/><text text-anchor="middle" x="449" y="19" style="font-family:Times New Roman;"><![CDATA[VASP]]></text></a></g><g id="edge48" class="edge"><title>VASP-&gt;ACTB</title><path style="fill:none;stroke:#0000ff;" d="M435,23C433,24 431,24 429,25 408,33 384,41 369,46"/><polygon style="fill:#0000ff;stroke:#0000ff;" points="437,23 436,21 434,22 435,24 437,23"/><polygon style="fill:#0000ff;stroke:#0000ff;" points="366,45 366,47 369,47 369,45 366,45"/></g></g></g></g>
<!-- navigation controls -->
<g id="navbox">
	<rect x="0" y="0" width="742" height="60"
		 style="fill:rgb(206,207,206);stroke:rgb(0,0,0);stroke-width:1"/>

	<polygon id="pan_right"
        onmouseup="panRight()"
        onmouseover="doHighlight(evt, 'Click to pan to the right')"
        onmouseout="resetHighlight(evt)"
		points="28.0732,13 32,20.5 28.0732,28 28.0732,23.4412 25,23.4412 25,17.4118 28.0732,17.4118"
		 transform="matrix(3.39111 0 0 2.98838 -12.6265 -29.7101)"
         fill="rgb(99,154,206)"
		 style="stroke:rgb(0,0,0);stroke-width:0.5"/>
	<polygon id="pan_left"
        onmouseup="panLeft()"
        onmouseover="doHighlight(evt, 'Click to pan to the left')"
        onmouseout="resetHighlight(evt)"
		points="123.991,25 120.064,32.5 123.991,40 123.991,35.4412 127.064,35.4412 127.064,29.4118
			123.991,29.4118" transform="matrix(3.39111 0 0 2.98838 -404.865 -65.5706)"
         fill="rgb(99,154,206)"
		 style="stroke:rgb(0,0,0);stroke-width:0.5"/>
	<polygon id="pan_down"
        onmouseup="panDown()"
        onmouseover="doHighlight(evt, 'Click to pan down')"
        onmouseout="resetHighlight(evt)"
		points="116.032,32.0408 123.532,35.9678 131.032,32.0408 126.473,32.0408 126.473,28.9678 120.444,28.9678
			120.444,32.0408" transform="matrix(3.39111 0 0 2.98838 -369.822 -50.6287)"
         fill="rgb(99,154,206)"
		 style="stroke:rgb(0,0,0);stroke-width:0.5"/>
	<polygon id="pan_up"
        onmouseup="panUp()"
  onmouseover="doHighlight(evt, 'Click to pan up')"
        onmouseout="resetHighlight(evt)"
		points="116.032,32.0408 123.532,35.9678 131.032,32.0408 126.473,32.0408 126.473,28.9678 120.444,28.9678
			120.444,32.0408" transform="matrix(3.39111 0 0 -2.98838 -369.823 111.74)"
         fill="rgb(99,154,206)"
		 style="stroke:rgb(0,0,0);stroke-width:0.5"/>
	<g id="go_home" 
         onmouseup="panRestore()" 
         onmouseover="doHighlight(evt, 'Click to restore graph to original position')"
         onmouseout="resetHighlight(evt)"
         fill="rgb(99,154,206)"
         transform="matrix(1 0 0 1 0 -0.333333)">
		<rect x="196" y="11" width="26" height="26"
			transform="translate(-19.1111 -2.66667)"
			 style="stroke:rgb(0,0,0);stroke-width:1"/>
		<line x1="182" y1="16" x2="182" y2="28"
			transform="matrix(1 0 0 1 2.22222 0.444444)"
			 style="fill:none;stroke:rgb(0,0,0);stroke-width:2"/>
		<line x1="187" y1="22" x2="187" y2="28"
			transform="matrix(1 0 0 1 2.22222 0.444444)"
			 style="fill:none;stroke:rgb(0,0,0);stroke-width:2"/>
	<line x1="192" y1="13" x2="192" y2="28"
			transform="matrix(1 0 0 1 2.22222 0.444444)"
			 style="fill:none;stroke:rgb(0,0,0);stroke-width:2"/>
		<line x1="182" y1="28" x2="192" y2="28"
			transform="matrix(1 0 0 1 2.22222 0.444444)"
	style="fill:none;stroke:rgb(0,0,0);stroke-width:2"/>
		<line x1="189" y1="12" x2="179" y2="21"
			 style="fill:none;stroke:rgb(0,0,0);stroke-width:2"/>
		<line x1="188" y1="12" x2="199" y2="20"
			 style="fill:none;stroke:rgb(0,0,0);stroke-width:2"/>
	</g>
	<g id="zoom_out" onmouseup="zoomOut()" 
             onmouseover="doHighlight(evt, 'Click to zoom out')"
             onmouseout="resetHighlight(evt)"
             fill="rgb(99,154,206)"
             transform="matrix(1 0 0 1 0 0)">
		<rect x="116" y="8" width="26" height="26"
			 style="stroke:rgb(0,0,0);stroke-width:1"/>
		<ellipse cx="126" cy="18" rx="6" ry="6"
			 style="stroke:rgb(0,0,0);stroke-width:1"/>
		<line x1="130" y1="23" x2="137" y2="29"
			transform="matrix(1 0 0 1 0.888889 -0.888889)"
			 style="fill:none;stroke:rgb(0,0,0);stroke-width:2"/>
		<line x1="123" y1="18" x2="129" y2="18"
			 style="fill:none;stroke:rgb(0,0,0);stroke-width:2"/>
	</g>
	<g id="zoom_in" onmouseup="zoomIn()" 
             onmouseover="doHighlight(evt, 'Click to zoom in')"
             onmouseout="resetHighlight(evt)"
             fill="rgb(99,154,206)"
             transform="matrix(1 0 0 1 0.888889 -0.444444)">
		<rect x="116" y="8" width="26" height="26"
			transform="matrix(1 0 0 1 29.7778 0.444444)"
			 style="stroke:rgb(0,0,0);stroke-width:1"/>
		<ellipse cx="126" cy="18" rx="6" ry="6"
			transform="matrix(1 0 0 1 29.7778 0.444444)"
			 style="stroke:rgb(0,0,0);stroke-width:1"/>
		<line x1="130" y1="23" x2="137" y2="29"
			transform="matrix(1 0 0 1 30.6667 -0.444445)"
		style="fill:none;stroke:rgb(0,0,0);stroke-width:2"/>
		<line x1="123" y1="18" x2="129" y2="18"
			transform="matrix(1 0 0 1 29.7778 0.444444)"
			 style="fill:none;stroke:rgb(0,0,0);stroke-width:2"/>
		<line x1="156" y1="15" x2="156" y2="22"
			 style="fill:none;stroke:rgb(0,0,0);stroke-width:2"/>
	</g>
	<g>
		<rect x="117" y="40" width="452" height="14"
			transform="matrix(1.54201 0 0 1 -64.1436 -0.222222)"
			 style="fill:rgb(192,192,192);stroke:rgb(0,0,0);stroke-width:1"/>
		<text id="status_text" x="183px" y="48px"
			transform="matrix(1 0 0 1 -63.5556 3.00778)"
			 style="fill:rgb(0,0,0);font-size:14;font-family:Arial"> </text>
	</g>
</g>	
</svg>