<?xml version="1.0" encoding="UTF-8" standalone="no"?><!DOCTYPE svg PUBLIC "-//W3C//DTD SVG 1.0//EN" "http://www.w3.org/TR/2001/REC-SVG-20010904/DTD/svg10.dtd" [ <!ATTLIST svg xmlns:xlink CDATA #FIXED "http://www.w3.org/1999/xlink">]><!-- Generated by WinGraphviz version ver1.02.23, 08/01/2003 (08/04/2003)     For user: Avi Ma'ayan   Title: G    Pages: 1 --><!--="735px" height="158px" xmlns="http://www.w3.org/2000/svg" --><svg onload="init(evt)" width="735px" height="600px" xmlns="http://www.w3.org/2000/svg" xmlns:xlink="http://www.w3.org/1999/xlink">
<script type="text/ecmascript">
<![CDATA[
var svgDocument;
var zoomAmt;
var xOffset;
var yOffset;
var scale;
var maxScale;
var imageWidth;
var imageHeight;
function init(evt)
{
    svgDocument = evt.getTarget().getOwnerDocument();
    zoomAmt = 0;
    xOffset = 0;
    yOffset = 60;
    scale = 0.8;
    maxScale = 10;
    imageWidth = 742;
    imageHeight = 606;
    panRestore();
    //panUp();
}
function transformMap ()
{
    var obj = svgDocument.getElementById("Pathway");
    var centerX = imageWidth  / 2.0;
    var centerY = imageHeight / 2.0;
    var adjustX = (-centerX * (scale - 0.8)) + xOffset;
    var adjustY = (-centerY * (scale - 0.8)) + yOffset;
    var transParms = 'translate(' + adjustX + ',' + adjustY + ') ';
    transParms += 'scale(' + scale + ')';
    // alert(transParms);
    obj.setAttribute("transform", transParms); 
}
function click_node(id)
{
    var testx = parent.click_node;
    if (typeof(testx) == "function")
    {
		parent.click_node(id);
    }
}
function click_relation(id)
{
    var testx = parent.click_relation;
    if (typeof(testx) == "function")
    {
        parent.click_relation(id);
    }
}
function click_pathway(toId, fromId)
{
    var testx = parent.click_pathway;
    if (typeof(testx) == "function")
    {
	parent.click_pathway(toId, fromId);
    }
}
function check_interpath(evt, pathid)
{
  var obj = evt.getTarget();
  var testx = parent.is_frompath;
  var child = obj.firstChild;
  if (typeof(testx) == "function")
  {
    if (parent.is_frompath(pathid))
    {
      while (child != null)
      {
        if (child.nodeType == 1)
        {
          if ((child.localName == "g") || (child.localName == "polyline"))
          {
            child.setAttribute("style", "fill:none;stroke:red");
          }
          else if (child.localName == "polygon")
          {
            child.setAttribute("style", "fill:red;stroke:red");
          }
        }
        child = child.nextSibling;
      }
    }
  }
}
function set_status (msg)
{
 var obj = svgDocument.getElementById("status_text");
  var child;
 
  child = obj.firstChild;
  if ((child != null) && (child.nodeType == 3))
  {
    if ((msg != null) && (msg.length > 0))
    {
      child.data = msg;
    }
    else
    {
child.data = " ";
    }
  }
}
function zoomIn ()
{
    scale = scale + 0.8;
    if (scale > maxScale)
    {
       scale = maxScale;
    }
    transformMap();
    panUp();
    panUp();
    panUp();
    panUp();
    panUp();
    panUp();
    panUp();
    panUp();
    panUp();
    panUp();
    panUp();
    panUp();
}
function zoomOut ()
{
    scale = scale - 0.8;
    if (scale < 0.8)
    {
       scale = 0.8;
    }
    transformMap();
    panDown();
    panDown();
    panDown();
    panDown();
    panDown();
    panDown();
    panDown();
    panDown();
    panDown();
    panDown();
    panDown();
    panDown();
}
function panUp ()
{
    yOffset = yOffset + 20;
    transformMap();
}
function panDown ()
{
    yOffset = yOffset - 20;
    transformMap();
}
function panLeft ()
{
    xOffset = xOffset + 20;
    transformMap();
}
function panRight ()
{
    xOffset = xOffset - 20;
    transformMap();
}
function panRestore ()
{
    xOffset = 0;
    yOffset = 0;
    scale = 0.5;
    //obj = svgDocument.getElementById("zoom");
    //obj.setAttribute("x1", 0);
    //obj.setAttribute("x2", 0);
    transformMap();    
}
function doHighlight (evt, msg)
{
  var obj = evt.getTarget();
  obj.setAttribute("fill", "rgb(239,24,33)");
  set_status(msg);
}
function resetHighlight (evt)
{
  var obj = evt.getTarget();
  obj.setAttribute("fill", "rgb(99,154,206)");
  set_status(" ");
}
// ]]>
</script>
<defs>
<clipPath id="theClip">
<polygon points="1 61, 741 61, 741 665, 1 665"
style="fill: none;"/>
</clipPath>
</defs>
<!-- viewport outline -->
<rect x="0" y="61" width="742" height="606"
style="stroke: black; stroke-width: 1; fill: none;"/>
<!-- pathway graph style="clip-path: url(#theClip);" -->
<g style="clip-path: url(#theClip);">
<g id="Pathway"  transform="translate(0,60)">
<!-- prefile.include ends, begin pathway graph -->
<g id="stkecm;CMP_10705" class="graph">
</g>
<g id="graph0" class="graph" style="font-family:Times New Roman;font-size:10.24;"><title>G</title><g id="node1" class="node"><title>ACTN1</title><a xlink:href="ACTN1.html"><ellipse cx="380" cy="76" rx="27" ry="13" style="fill:turquoise;stroke:turquoise;"/><text text-anchor="middle" x="380" y="80" style="font-family:Times New Roman;"><![CDATA[ACTN1]]></text></a></g><g id="node2" class="node"><title>ACTB</title><a xlink:href="ACTB.html"><ellipse cx="30" cy="129" rx="24" ry="13" style="fill:turquoise;stroke:turquoise;"/><text text-anchor="middle" x="30" y="132" style="font-family:Times New Roman;"><![CDATA[ACTB]]></text></a></g><g id="edge2" class="edge"><title>ACTN1-&gt;ACTB</title><path style="fill:none;stroke:#0000ff;" d="M349,77C292,80 165,89 61,116 58,117 54,118 52,119"/><polygon style="fill:#0000ff;stroke:#0000ff;" points="353,78 353,75 349,75 349,78 353,78"/><polygon style="fill:#0000ff;stroke:#0000ff;" points="48,119 49,121 53,121 52,118 48,119"/></g><g id="node4" class="node"><title>CSRP1</title><a xlink:href="CSRP1.html"><ellipse cx="92" cy="129" rx="24" ry="13" style="fill:turquoise;stroke:turquoise;"/><text text-anchor="middle" x="92" y="132" style="font-family:Times New Roman;"><![CDATA[CSRP1]]></text></a></g><g id="edge4" class="edge"><title>ACTN1-&gt;CSRP1</title><path style="fill:none;stroke:#0000ff;" d="M349,78C302,83 203,93 123,116 120,117 116,118 113,119"/><polygon style="fill:#0000ff;stroke:#0000ff;" points="353,80 353,76 349,76 349,80 353,80"/><polygon style="fill:#0000ff;stroke:#0000ff;" points="109,119 111,121 114,121 113,118 109,119"/></g><g id="node6" class="node"><title>ITGB1</title><a xlink:href="ITGB1.html"><ellipse cx="153" cy="129" rx="24" ry="13" style="fill:turquoise;stroke:turquoise;"/><text text-anchor="middle" x="153" y="132" style="font-family:Times New Roman;"><![CDATA[ITGB1]]></text></a></g><g id="edge6" class="edge"><title>ACTN1-&gt;ITGB1</title><path style="fill:none;stroke:#0000ff;" d="M350,81C311,86 243,98 184,116 181,117 178,118 175,119"/><polygon style="fill:#0000ff;stroke:#0000ff;" points="354,81 354,78 350,79 350,82 354,81"/><polygon style="fill:#0000ff;stroke:#0000ff;" points="172,119 173,122 176,121 174,118 172,119"/></g><g id="node8" class="node"><title>LPP</title><a xlink:href="LPP.html"><ellipse cx="210" cy="129" rx="19" ry="13" style="fill:turquoise;stroke:turquoise;"/><text text-anchor="middle" x="210" y="132" style="font-family:Times New Roman;"><![CDATA[LPP]]></text></a></g><g id="edge8" class="edge"><title>ACTN1-&gt;LPP</title><path style="fill:none;stroke:#0000ff;" d="M352,82C322,89 276,101 237,116 234,117 231,119 229,119"/><polygon style="fill:#0000ff;stroke:#0000ff;" points="355,83 355,80 352,81 352,83 355,83"/><polygon style="fill:#0000ff;stroke:#0000ff;" points="225,119 226,122 229,121 228,118 225,119"/></g><g id="node10" class="node"><title>PALLD</title><a xlink:href="PALLD.html"><ellipse cx="272" cy="129" rx="28" ry="13" style="fill:turquoise;stroke:turquoise;"/><text text-anchor="middle" x="272" y="132" style="font-family:Times New Roman;"><![CDATA[PALLD]]></text></a></g><g id="edge10" class="edge"><title>ACTN1-&gt;PALLD</title><path style="fill:none;stroke:#0000ff;" d="M357,87C338,96 313,109 294,118"/><polygon style="fill:#0000ff;stroke:#0000ff;" points="362,87 360,84 357,86 358,89 362,87"/><polygon style="fill:#0000ff;stroke:#0000ff;" points="291,118 292,121 295,119 294,116 291,118"/></g><g id="node12" class="node"><title>PARVB</title><a xlink:href="PARVB.html"><ellipse cx="343" cy="129" rx="29" ry="13" style="fill:turquoise;stroke:turquoise;"/><text text-anchor="middle" x="343" y="132" style="font-family:Times New Roman;"><![CDATA[PARVB]]></text></a></g><g id="edge12" class="edge"><title>ACTN1-&gt;PARVB</title><path style="fill:none;stroke:#0000ff;" d="M369,91C365,98 359,106 354,113"/><polygon style="fill:#0000ff;stroke:#0000ff;" points="373,89 370,87 368,90 371,92 373,89"/><polygon style="fill:#0000ff;stroke:#0000ff;" points="350,114 353,116 355,113 352,111 350,114"/></g><g id="node14" class="node"><title>RAVER1</title><a xlink:href="RAVER1.html"><ellipse cx="417" cy="129" rx="32" ry="13" style="fill:turquoise;stroke:turquoise;"/><text text-anchor="middle" x="417" y="132" style="font-family:Times New Roman;"><![CDATA[RAVER1]]></text></a></g><g id="edge14" class="edge"><title>ACTN1-&gt;RAVER1</title><path style="fill:none;stroke:#0000ff;" d="M391,91C395,98 401,106 406,113"/><polygon style="fill:#0000ff;stroke:#0000ff;" points="390,87 387,89 390,92 393,90 390,87"/><polygon style="fill:#0000ff;stroke:#0000ff;" points="407,116 410,114 408,111 405,113 407,116"/></g><g id="node16" class="node"><title>SDC4</title><a xlink:href="SDC4.html"><ellipse cx="485" cy="129" rx="22" ry="13" style="fill:turquoise;stroke:turquoise;"/><text text-anchor="middle" x="485" y="132" style="font-family:Times New Roman;"><![CDATA[SDC4]]></text></a></g><g id="edge16" class="edge"><title>ACTN1-&gt;SDC4</title><path style="fill:none;stroke:#0000ff;" d="M403,88C422,97 447,110 465,119"/><polygon style="fill:#0000ff;stroke:#0000ff;" points="400,84 398,87 401,89 403,86 400,84"/><polygon style="fill:#0000ff;stroke:#0000ff;" points="467,121 469,119 466,117 464,120 467,121"/></g><g id="node18" class="node"><title>TES</title><a xlink:href="TES.html"><ellipse cx="541" cy="129" rx="19" ry="13" style="fill:turquoise;stroke:turquoise;"/><text text-anchor="middle" x="541" y="132" style="font-family:Times New Roman;"><![CDATA[TES]]></text></a></g><g id="edge18" class="edge"><title>ACTN1-&gt;TES</title><path style="fill:none;stroke:#0000ff;" d="M408,83C436,89 478,102 515,116 518,117 521,119 523,119"/><polygon style="fill:#0000ff;stroke:#0000ff;" points="404,81 404,83 408,84 408,81 404,81"/><polygon style="fill:#0000ff;stroke:#0000ff;" points="525,122 526,119 523,118 522,121 525,122"/></g><g id="node20" class="node"><title>VCL</title><a xlink:href="VCL.html"><ellipse cx="594" cy="129" rx="20" ry="13" style="fill:turquoise;stroke:turquoise;"/><text text-anchor="middle" x="594" y="132" style="font-family:Times New Roman;"><![CDATA[VCL]]></text></a></g><g id="edge20" class="edge"><title>ACTN1-&gt;VCL</title><path style="fill:none;stroke:#0000ff;" d="M410,81C447,86 513,97 567,116 570,116 573,118 575,119"/><polygon style="fill:#0000ff;stroke:#0000ff;" points="406,78 406,81 410,82 410,79 406,78"/><polygon style="fill:#0000ff;stroke:#0000ff;" points="578,121 579,119 576,117 575,120 578,121"/></g><g id="node22" class="node"><title>ZYX</title><a xlink:href="ZYX.html"><ellipse cx="649" cy="129" rx="21" ry="13" style="fill:turquoise;stroke:turquoise;"/><text text-anchor="middle" x="649" y="132" style="font-family:Times New Roman;"><![CDATA[ZYX]]></text></a></g><g id="edge22" class="edge"><title>ACTN1-&gt;ZYX</title><path style="fill:none;stroke:#0000ff;" d="M411,78C457,83 548,93 622,116 624,117 627,118 630,119"/><polygon style="fill:#0000ff;stroke:#0000ff;" points="407,76 407,80 411,80 411,76 407,76"/><polygon style="fill:#0000ff;stroke:#0000ff;" points="633,121 634,119 630,118 629,121 633,121"/></g><g id="node24" class="node"><title>PLD1</title><a xlink:href="PLD1.html"><ellipse cx="705" cy="129" rx="21" ry="13" style="fill:turquoise;stroke:turquoise;"/><text text-anchor="middle" x="705" y="132" style="font-family:Times New Roman;"><![CDATA[PLD1]]></text></a></g><g id="edge24" class="edge"><title>ACTN1-&gt;PLD1</title><path style="fill:none;stroke:#ff0000;" d="M407,77C460,79 581,87 677,116 678,116 679,116 679,116"/><polyline style="fill:none;stroke:#ff0000;" points="676,121 681,111 "/></g><g id="node26" class="node"><title>CAPN1</title><a xlink:href="CAPN1.html"><ellipse cx="262" cy="23" rx="27" ry="13" style="fill:turquoise;stroke:turquoise;"/><text text-anchor="middle" x="262" y="27" style="font-family:Times New Roman;"><![CDATA[CAPN1]]></text></a></g><g id="edge26" class="edge"><title>CAPN1-&gt;ACTN1</title><path style="fill:none;stroke:#ff0000;" d="M281,32C300,41 330,54 351,64"/><polyline style="fill:none;stroke:#ff0000;" points="347,68 352,58 "/></g><g id="node28" class="node"><title>PTK2</title><a xlink:href="PTK2.html"><ellipse cx="324" cy="23" rx="22" ry="13" style="fill:turquoise;stroke:turquoise;"/><text text-anchor="middle" x="324" y="27" style="font-family:Times New Roman;"><![CDATA[PTK2]]></text></a></g><g id="edge28" class="edge"><title>PTK2-&gt;ACTN1</title><path style="fill:none;stroke:darkgreen;" d="M336,35C344,42 354,52 363,60"/><polygon style="fill:darkgreen;stroke:darkgreen;" points="363,59 368,64 361,61 363,59"/></g><g id="node30" class="node"><title>PIP3</title><a xlink:href="PIP3.html"><ellipse cx="380" cy="23" rx="19" ry="13" style="fill:turquoise;stroke:turquoise;"/><text text-anchor="middle" x="380" y="27" style="font-family:Times New Roman;"><![CDATA[PIP3]]></text></a></g><g id="edge30" class="edge"><title>PIP3-&gt;ACTN1</title><path style="fill:none;stroke:darkgreen;" d="M380,37C380,42 380,49 380,56"/><polygon style="fill:darkgreen;stroke:darkgreen;" points="382,56 380,63 379,56 382,56"/></g><g id="node32" class="node"><title>PTPN1</title><a xlink:href="PTPN1.html"><ellipse cx="438" cy="23" rx="24" ry="13" style="fill:turquoise;stroke:turquoise;"/><text text-anchor="middle" x="438" y="27" style="font-family:Times New Roman;"><![CDATA[PTPN1]]></text></a></g><g id="edge32" class="edge"><title>PTPN1-&gt;ACTN1</title><path style="fill:none;stroke:#ff0000;" d="M425,35C418,42 409,50 401,57"/><polyline style="fill:none;stroke:#ff0000;" points="398,53 405,61 "/></g><g id="node34" class="node"><title>PTPN6</title><a xlink:href="PTPN6.html"><ellipse cx="502" cy="23" rx="26" ry="13" style="fill:turquoise;stroke:turquoise;"/><text text-anchor="middle" x="502" y="27" style="font-family:Times New Roman;"><![CDATA[PTPN6]]></text></a></g><g id="edge34" class="edge"><title>PTPN6-&gt;ACTN1</title><path style="fill:none;stroke:#ff0000;" d="M482,32C462,40 432,53 409,63"/><polyline style="fill:none;stroke:#ff0000;" points="408,58 413,67 "/></g></g></g></g>
<!-- navigation controls -->
<g id="navbox">
	<rect x="0" y="0" width="742" height="60"
		 style="fill:rgb(206,207,206);stroke:rgb(0,0,0);stroke-width:1"/>

	<polygon id="pan_right"
        onmouseup="panRight()"
        onmouseover="doHighlight(evt, 'Click to pan to the right')"
        onmouseout="resetHighlight(evt)"
		points="28.0732,13 32,20.5 28.0732,28 28.0732,23.4412 25,23.4412 25,17.4118 28.0732,17.4118"
		 transform="matrix(3.39111 0 0 2.98838 -12.6265 -29.7101)"
         fill="rgb(99,154,206)"
		 style="stroke:rgb(0,0,0);stroke-width:0.5"/>
	<polygon id="pan_left"
        onmouseup="panLeft()"
        onmouseover="doHighlight(evt, 'Click to pan to the left')"
        onmouseout="resetHighlight(evt)"
		points="123.991,25 120.064,32.5 123.991,40 123.991,35.4412 127.064,35.4412 127.064,29.4118
			123.991,29.4118" transform="matrix(3.39111 0 0 2.98838 -404.865 -65.5706)"
         fill="rgb(99,154,206)"
		 style="stroke:rgb(0,0,0);stroke-width:0.5"/>
	<polygon id="pan_down"
        onmouseup="panDown()"
        onmouseover="doHighlight(evt, 'Click to pan down')"
        onmouseout="resetHighlight(evt)"
		points="116.032,32.0408 123.532,35.9678 131.032,32.0408 126.473,32.0408 126.473,28.9678 120.444,28.9678
			120.444,32.0408" transform="matrix(3.39111 0 0 2.98838 -369.822 -50.6287)"
         fill="rgb(99,154,206)"
		 style="stroke:rgb(0,0,0);stroke-width:0.5"/>
	<polygon id="pan_up"
        onmouseup="panUp()"
  onmouseover="doHighlight(evt, 'Click to pan up')"
        onmouseout="resetHighlight(evt)"
		points="116.032,32.0408 123.532,35.9678 131.032,32.0408 126.473,32.0408 126.473,28.9678 120.444,28.9678
			120.444,32.0408" transform="matrix(3.39111 0 0 -2.98838 -369.823 111.74)"
         fill="rgb(99,154,206)"
		 style="stroke:rgb(0,0,0);stroke-width:0.5"/>
	<g id="go_home" 
         onmouseup="panRestore()" 
         onmouseover="doHighlight(evt, 'Click to restore graph to original position')"
         onmouseout="resetHighlight(evt)"
         fill="rgb(99,154,206)"
         transform="matrix(1 0 0 1 0 -0.333333)">
		<rect x="196" y="11" width="26" height="26"
			transform="translate(-19.1111 -2.66667)"
			 style="stroke:rgb(0,0,0);stroke-width:1"/>
		<line x1="182" y1="16" x2="182" y2="28"
			transform="matrix(1 0 0 1 2.22222 0.444444)"
			 style="fill:none;stroke:rgb(0,0,0);stroke-width:2"/>
		<line x1="187" y1="22" x2="187" y2="28"
			transform="matrix(1 0 0 1 2.22222 0.444444)"
			 style="fill:none;stroke:rgb(0,0,0);stroke-width:2"/>
	<line x1="192" y1="13" x2="192" y2="28"
			transform="matrix(1 0 0 1 2.22222 0.444444)"
			 style="fill:none;stroke:rgb(0,0,0);stroke-width:2"/>
		<line x1="182" y1="28" x2="192" y2="28"
			transform="matrix(1 0 0 1 2.22222 0.444444)"
	style="fill:none;stroke:rgb(0,0,0);stroke-width:2"/>
		<line x1="189" y1="12" x2="179" y2="21"
			 style="fill:none;stroke:rgb(0,0,0);stroke-width:2"/>
		<line x1="188" y1="12" x2="199" y2="20"
			 style="fill:none;stroke:rgb(0,0,0);stroke-width:2"/>
	</g>
	<g id="zoom_out" onmouseup="zoomOut()" 
             onmouseover="doHighlight(evt, 'Click to zoom out')"
             onmouseout="resetHighlight(evt)"
             fill="rgb(99,154,206)"
             transform="matrix(1 0 0 1 0 0)">
		<rect x="116" y="8" width="26" height="26"
			 style="stroke:rgb(0,0,0);stroke-width:1"/>
		<ellipse cx="126" cy="18" rx="6" ry="6"
			 style="stroke:rgb(0,0,0);stroke-width:1"/>
		<line x1="130" y1="23" x2="137" y2="29"
			transform="matrix(1 0 0 1 0.888889 -0.888889)"
			 style="fill:none;stroke:rgb(0,0,0);stroke-width:2"/>
		<line x1="123" y1="18" x2="129" y2="18"
			 style="fill:none;stroke:rgb(0,0,0);stroke-width:2"/>
	</g>
	<g id="zoom_in" onmouseup="zoomIn()" 
             onmouseover="doHighlight(evt, 'Click to zoom in')"
             onmouseout="resetHighlight(evt)"
             fill="rgb(99,154,206)"
             transform="matrix(1 0 0 1 0.888889 -0.444444)">
		<rect x="116" y="8" width="26" height="26"
			transform="matrix(1 0 0 1 29.7778 0.444444)"
			 style="stroke:rgb(0,0,0);stroke-width:1"/>
		<ellipse cx="126" cy="18" rx="6" ry="6"
			transform="matrix(1 0 0 1 29.7778 0.444444)"
			 style="stroke:rgb(0,0,0);stroke-width:1"/>
		<line x1="130" y1="23" x2="137" y2="29"
			transform="matrix(1 0 0 1 30.6667 -0.444445)"
		style="fill:none;stroke:rgb(0,0,0);stroke-width:2"/>
		<line x1="123" y1="18" x2="129" y2="18"
			transform="matrix(1 0 0 1 29.7778 0.444444)"
			 style="fill:none;stroke:rgb(0,0,0);stroke-width:2"/>
		<line x1="156" y1="15" x2="156" y2="22"
			 style="fill:none;stroke:rgb(0,0,0);stroke-width:2"/>
	</g>
	<g>
		<rect x="117" y="40" width="452" height="14"
			transform="matrix(1.54201 0 0 1 -64.1436 -0.222222)"
			 style="fill:rgb(192,192,192);stroke:rgb(0,0,0);stroke-width:1"/>
		<text id="status_text" x="183px" y="48px"
			transform="matrix(1 0 0 1 -63.5556 3.00778)"
			 style="fill:rgb(0,0,0);font-size:14;font-family:Arial"> </text>
	</g>
</g>	
</svg>