<?xml version="1.0" encoding="UTF-8" standalone="no"?><!DOCTYPE svg PUBLIC "-//W3C//DTD SVG 1.0//EN" "http://www.w3.org/TR/2001/REC-SVG-20010904/DTD/svg10.dtd" [ <!ATTLIST svg xmlns:xlink CDATA #FIXED "http://www.w3.org/1999/xlink">]><!-- Generated by WinGraphviz version ver1.02.23, 08/01/2003 (08/04/2003)     For user: Avi Ma'ayan   Title: G    Pages: 1 --><svg width="570px" height="276px" xmlns="http://www.w3.org/2000/svg" xmlns:xlink="http://www.w3.org/1999/xlink"><g id="graph0" class="graph" style="font-family:Times New Roman;font-size:18.67;"><title>G</title><g id="node1" class="node"><title>ADAM12</title><a xlink:href="ADAM12.html"><ellipse cx="280" cy="135" rx="58" ry="24" style="fill:turquoise;stroke:turquoise;"/><text text-anchor="middle" x="280" y="142" style="font-family:Times New Roman;"><![CDATA[ADAM12]]></text></a></g><g id="node2" class="node"><title>GRB2</title><a xlink:href="GRB2.html"><ellipse cx="50" cy="231" rx="44" ry="24" style="fill:turquoise;stroke:turquoise;"/><text text-anchor="middle" x="50" y="238" style="font-family:Times New Roman;"><![CDATA[GRB2]]></text></a></g><g id="edge2" class="edge"><title>ADAM12-&gt;GRB2</title><path style="fill:none;stroke:#0000ff;" d="M231,155C197,170 149,190 106,207 101,210 96,213 92,214"/><polygon style="fill:#0000ff;stroke:#0000ff;" points="239,155 237,150 230,153 233,158 239,155"/><polygon style="fill:#0000ff;stroke:#0000ff;" points="85,214 88,219 93,217 90,211 85,214"/></g><g id="node4" class="node"><title>ITGA5</title><a xlink:href="ITGA5.html"><ellipse cx="165" cy="231" rx="46" ry="24" style="fill:turquoise;stroke:turquoise;"/><text text-anchor="middle" x="165" y="238" style="font-family:Times New Roman;"><![CDATA[ITGA5]]></text></a></g><g id="edge4" class="edge"><title>ADAM12-&gt;ITGA5</title><path style="fill:none;stroke:#0000ff;" d="M247,161C231,175 211,193 194,207"/><polygon style="fill:#0000ff;stroke:#0000ff;" points="255,159 251,154 246,158 250,163 255,159"/><polygon style="fill:#0000ff;stroke:#0000ff;" points="187,209 191,214 197,210 193,205 187,209"/></g><g id="node6" class="node"><title>ITGB1</title><a xlink:href="ITGB1.html"><ellipse cx="280" cy="231" rx="44" ry="24" style="fill:turquoise;stroke:turquoise;"/><text text-anchor="middle" x="280" y="238" style="font-family:Times New Roman;"><![CDATA[ITGB1]]></text></a></g><g id="edge6" class="edge"><title>ADAM12-&gt;ITGB1</title><path style="fill:none;stroke:#0000ff;" d="M280,166C280,177 280,190 280,201"/><polygon style="fill:#0000ff;stroke:#0000ff;" points="284,159 277,159 277,166 284,166 284,159"/><polygon style="fill:#0000ff;stroke:#0000ff;" points="277,207 284,207 284,201 277,201 277,207"/></g><g id="node8" class="node"><title>PIK3CA</title><a xlink:href="PIK3CA.html"><ellipse cx="401" cy="231" rx="53" ry="24" style="fill:turquoise;stroke:turquoise;"/><text text-anchor="middle" x="401" y="238" style="font-family:Times New Roman;"><![CDATA[PIK3CA]]></text></a></g><g id="edge8" class="edge"><title>ADAM12-&gt;PIK3CA</title><path style="fill:none;stroke:darkgreen;" d="M308,157C325,170 346,189 365,202"/><polygon style="fill:darkgreen;stroke:darkgreen;" points="366,199 374,210 362,203 366,199"/></g><g id="node10" class="node"><title>SDC4</title><a xlink:href="SDC4.html"><ellipse cx="519" cy="231" rx="41" ry="24" style="fill:turquoise;stroke:turquoise;"/><text text-anchor="middle" x="519" y="238" style="font-family:Times New Roman;"><![CDATA[SDC4]]></text></a></g><g id="edge10" class="edge"><title>ADAM12-&gt;SDC4</title><path style="fill:none;stroke:#0000ff;" d="M330,154C366,169 420,189 466,207 472,210 477,213 481,214"/><polygon style="fill:#0000ff;stroke:#0000ff;" points="325,149 322,154 329,157 332,151 325,149"/><polygon style="fill:#0000ff;stroke:#0000ff;" points="485,219 488,214 482,211 480,217 485,219"/></g><g id="node12" class="node"><title>SRC</title><a xlink:href="SRC.html"><ellipse cx="280" cy="39" rx="36" ry="24" style="fill:turquoise;stroke:turquoise;"/><text text-anchor="middle" x="280" y="46" style="font-family:Times New Roman;"><![CDATA[SRC]]></text></a></g><g id="edge12" class="edge"><title>SRC-&gt;ADAM12</title><path style="fill:none;stroke:darkgreen;" d="M280,63C280,74 280,86 280,98"/><polygon style="fill:darkgreen;stroke:darkgreen;" points="284,98 280,111 277,98 284,98"/></g></g></svg>