<?xml version="1.0" encoding="UTF-8" standalone="no"?><!DOCTYPE svg PUBLIC "-//W3C//DTD SVG 1.0//EN" "http://www.w3.org/TR/2001/REC-SVG-20010904/DTD/svg10.dtd" [ <!ATTLIST svg xmlns:xlink CDATA #FIXED "http://www.w3.org/1999/xlink">]><!-- Generated by WinGraphviz version ver1.02.23, 08/01/2003 (08/04/2003)     For user: Avi Ma'ayan   Title: G    Pages: 1 --><!--="735px" height="263px" xmlns="http://www.w3.org/2000/svg" --><svg onload="init(evt)" width="735px" height="600px" xmlns="http://www.w3.org/2000/svg" xmlns:xlink="http://www.w3.org/1999/xlink">
<script type="text/ecmascript">
<![CDATA[
var svgDocument;
var zoomAmt;
var xOffset;
var yOffset;
var scale;
var maxScale;
var imageWidth;
var imageHeight;
function init(evt)
{
    svgDocument = evt.getTarget().getOwnerDocument();
    zoomAmt = 0;
    xOffset = 0;
    yOffset = 60;
    scale = 0.8;
    maxScale = 10;
    imageWidth = 742;
    imageHeight = 606;
    panRestore();
    //panUp();
}
function transformMap ()
{
    var obj = svgDocument.getElementById("Pathway");
    var centerX = imageWidth  / 2.0;
    var centerY = imageHeight / 2.0;
    var adjustX = (-centerX * (scale - 0.8)) + xOffset;
    var adjustY = (-centerY * (scale - 0.8)) + yOffset;
    var transParms = 'translate(' + adjustX + ',' + adjustY + ') ';
    transParms += 'scale(' + scale + ')';
    // alert(transParms);
    obj.setAttribute("transform", transParms); 
}
function click_node(id)
{
    var testx = parent.click_node;
    if (typeof(testx) == "function")
    {
		parent.click_node(id);
    }
}
function click_relation(id)
{
    var testx = parent.click_relation;
    if (typeof(testx) == "function")
    {
        parent.click_relation(id);
    }
}
function click_pathway(toId, fromId)
{
    var testx = parent.click_pathway;
    if (typeof(testx) == "function")
    {
	parent.click_pathway(toId, fromId);
    }
}
function check_interpath(evt, pathid)
{
  var obj = evt.getTarget();
  var testx = parent.is_frompath;
  var child = obj.firstChild;
  if (typeof(testx) == "function")
  {
    if (parent.is_frompath(pathid))
    {
      while (child != null)
      {
        if (child.nodeType == 1)
        {
          if ((child.localName == "g") || (child.localName == "polyline"))
          {
            child.setAttribute("style", "fill:none;stroke:red");
          }
          else if (child.localName == "polygon")
          {
            child.setAttribute("style", "fill:red;stroke:red");
          }
        }
        child = child.nextSibling;
      }
    }
  }
}
function set_status (msg)
{
 var obj = svgDocument.getElementById("status_text");
  var child;
 
  child = obj.firstChild;
  if ((child != null) && (child.nodeType == 3))
  {
    if ((msg != null) && (msg.length > 0))
    {
      child.data = msg;
    }
    else
    {
child.data = " ";
    }
  }
}
function zoomIn ()
{
    scale = scale + 0.8;
    if (scale > maxScale)
    {
       scale = maxScale;
    }
    transformMap();
    panUp();
    panUp();
    panUp();
    panUp();
    panUp();
    panUp();
    panUp();
    panUp();
    panUp();
    panUp();
    panUp();
    panUp();
}
function zoomOut ()
{
    scale = scale - 0.8;
    if (scale < 0.8)
    {
       scale = 0.8;
    }
    transformMap();
    panDown();
    panDown();
    panDown();
    panDown();
    panDown();
    panDown();
    panDown();
    panDown();
    panDown();
    panDown();
    panDown();
    panDown();
}
function panUp ()
{
    yOffset = yOffset + 20;
    transformMap();
}
function panDown ()
{
    yOffset = yOffset - 20;
    transformMap();
}
function panLeft ()
{
    xOffset = xOffset + 20;
    transformMap();
}
function panRight ()
{
    xOffset = xOffset - 20;
    transformMap();
}
function panRestore ()
{
    xOffset = 0;
    yOffset = 0;
    scale = 0.5;
    //obj = svgDocument.getElementById("zoom");
    //obj.setAttribute("x1", 0);
    //obj.setAttribute("x2", 0);
    transformMap();    
}
function doHighlight (evt, msg)
{
  var obj = evt.getTarget();
  obj.setAttribute("fill", "rgb(239,24,33)");
  set_status(msg);
}
function resetHighlight (evt)
{
  var obj = evt.getTarget();
  obj.setAttribute("fill", "rgb(99,154,206)");
  set_status(" ");
}
// ]]>
</script>
<defs>
<clipPath id="theClip">
<polygon points="1 61, 741 61, 741 665, 1 665"
style="fill: none;"/>
</clipPath>
</defs>
<!-- viewport outline -->
<rect x="0" y="61" width="742" height="606"
style="stroke: black; stroke-width: 1; fill: none;"/>
<!-- pathway graph style="clip-path: url(#theClip);" -->
<g style="clip-path: url(#theClip);">
<g id="Pathway"  transform="translate(0,60)">
<!-- prefile.include ends, begin pathway graph -->
<g id="stkecm;CMP_10705" class="graph">
</g>
<g id="graph0" class="graph" style="font-family:Times New Roman;font-size:17.81;"><title>G</title><g id="node1" class="node"><title>AKT1</title><a xlink:href="AKT1.html"><ellipse cx="357" cy="128" rx="39" ry="22" style="fill:turquoise;stroke:turquoise;"/><text text-anchor="middle" x="357" y="135" style="font-family:Times New Roman;"><![CDATA[AKT1]]></text></a></g><g id="node2" class="node"><title>ITGB1</title><a xlink:href="ITGB1.html"><ellipse cx="48" cy="220" rx="41" ry="22" style="fill:turquoise;stroke:turquoise;"/><text text-anchor="middle" x="48" y="226" style="font-family:Times New Roman;"><![CDATA[ITGB1]]></text></a></g><g id="edge2" class="edge"><title>AKT1-&gt;ITGB1</title><path style="fill:none;stroke:darkgreen;" d="M320,137C269,149 178,170 102,197 99,198 95,199 91,201"/><polygon style="fill:darkgreen;stroke:darkgreen;" points="94,203 81,206 91,197 94,203"/></g><g id="node4" class="node"><title>IRS1</title><a xlink:href="IRS1.html"><ellipse cx="147" cy="220" rx="34" ry="22" style="fill:turquoise;stroke:turquoise;"/><text text-anchor="middle" x="147" y="226" style="font-family:Times New Roman;"><![CDATA[IRS1]]></text></a></g><g id="edge4" class="edge"><title>AKT1-&gt;IRS1</title><path style="fill:none;stroke:darkgreen;" d="M324,141C291,155 239,177 193,197 191,198 188,199 187,199"/><polygon style="fill:darkgreen;stroke:darkgreen;" points="188,202 175,206 186,197 188,202"/></g><g id="node6" class="node"><title>PAK1</title><a xlink:href="PAK1.html"><ellipse cx="244" cy="220" rx="39" ry="22" style="fill:turquoise;stroke:turquoise;"/><text text-anchor="middle" x="244" y="226" style="font-family:Times New Roman;"><![CDATA[PAK1]]></text></a></g><g id="edge6" class="edge"><title>AKT1-&gt;PAK1</title><path style="fill:none;stroke:darkgreen;" d="M334,147C317,160 295,179 276,193"/><polygon style="fill:darkgreen;stroke:darkgreen;" points="278,194 267,201 275,191 278,194"/></g><g id="node8" class="node"><title>PRKCA</title><a xlink:href="PRKCA.html"><ellipse cx="357" cy="220" rx="50" ry="22" style="fill:turquoise;stroke:turquoise;"/><text text-anchor="middle" x="357" y="226" style="font-family:Times New Roman;"><![CDATA[PRKCA]]></text></a></g><g id="edge8" class="edge"><title>AKT1-&gt;PRKCA</title><path style="fill:none;stroke:#0000ff;" d="M357,157C357,168 357,180 357,191"/><polygon style="fill:#0000ff;stroke:#0000ff;" points="361,151 355,151 355,157 361,157 361,151"/><polygon style="fill:#0000ff;stroke:#0000ff;" points="355,197 361,197 361,191 355,191 355,197"/></g><g id="node10" class="node"><title>PTEN</title><a xlink:href="PTEN.html"><ellipse cx="473" cy="220" rx="41" ry="22" style="fill:turquoise;stroke:turquoise;"/><text text-anchor="middle" x="473" y="226" style="font-family:Times New Roman;"><![CDATA[PTEN]]></text></a></g><g id="edge10" class="edge"><title>AKT1-&gt;PTEN</title><path style="fill:none;stroke:darkgreen;" d="M380,147C398,160 421,179 440,193"/><polygon style="fill:darkgreen;stroke:darkgreen;" points="441,191 449,201 437,194 441,191"/></g><g id="node12" class="node"><title>PTPN1</title><a xlink:href="PTPN1.html"><ellipse cx="581" cy="220" rx="43" ry="22" style="fill:turquoise;stroke:turquoise;"/><text text-anchor="middle" x="581" y="226" style="font-family:Times New Roman;"><![CDATA[PTPN1]]></text></a></g><g id="edge12" class="edge"><title>AKT1-&gt;PTPN1</title><path style="fill:none;stroke:#ff0000;" d="M390,141C423,155 479,178 526,197 528,197 529,198 532,198"/><polyline style="fill:none;stroke:#ff0000;" points="525,206 534,189 "/></g><g id="node14" class="node"><title>RAC1</title><a xlink:href="RAC1.html"><ellipse cx="687" cy="220" rx="39" ry="22" style="fill:turquoise;stroke:turquoise;"/><text text-anchor="middle" x="687" y="226" style="font-family:Times New Roman;"><![CDATA[RAC1]]></text></a></g><g id="edge14" class="edge"><title>AKT1-&gt;RAC1</title><path style="fill:none;stroke:darkgreen;" d="M394,136C449,146 552,169 636,197 638,198 642,199 645,201"/><polygon style="fill:darkgreen;stroke:darkgreen;" points="646,198 656,206 643,203 646,198"/></g><g id="node16" class="node"><title>ILK</title><a xlink:href="ILK.html"><ellipse cx="108" cy="37" rx="34" ry="22" style="fill:turquoise;stroke:turquoise;"/><text text-anchor="middle" x="108" y="43" style="font-family:Times New Roman;"><![CDATA[ILK]]></text></a></g><g id="edge16" class="edge"><title>ILK-&gt;AKT1</title><path style="fill:none;stroke:darkgreen;" d="M135,52C141,54 147,57 154,59 207,81 268,101 310,114"/><polygon style="fill:darkgreen;stroke:darkgreen;" points="310,110 322,118 309,117 310,110"/></g><g id="node18" class="node"><title>PDPK1</title><a xlink:href="PDPK1.html"><ellipse cx="210" cy="37" rx="44" ry="22" style="fill:turquoise;stroke:turquoise;"/><text text-anchor="middle" x="210" y="43" style="font-family:Times New Roman;"><![CDATA[PDPK1]]></text></a></g><g id="edge18" class="edge"><title>PDPK1-&gt;AKT1</title><path style="fill:none;stroke:darkgreen;" d="M238,54C262,68 295,90 320,105"/><polygon style="fill:darkgreen;stroke:darkgreen;" points="320,101 329,112 317,107 320,101"/></g><g id="node20" class="node"><title>PIP2</title><a xlink:href="PIP2.html"><ellipse cx="311" cy="37" rx="34" ry="22" style="fill:turquoise;stroke:turquoise;"/><text text-anchor="middle" x="311" y="43" style="font-family:Times New Roman;"><![CDATA[PIP2]]></text></a></g><g id="edge20" class="edge"><title>PIP2-&gt;AKT1</title><path style="fill:none;stroke:darkgreen;" d="M323,58C328,70 334,82 341,95"/><polygon style="fill:darkgreen;stroke:darkgreen;" points="343,94 346,107 338,96 343,94"/></g><g id="node22" class="node"><title>PIP3</title><a xlink:href="PIP3.html"><ellipse cx="403" cy="37" rx="34" ry="22" style="fill:turquoise;stroke:turquoise;"/><text text-anchor="middle" x="403" y="43" style="font-family:Times New Roman;"><![CDATA[PIP3]]></text></a></g><g id="edge22" class="edge"><title>PIP3-&gt;AKT1</title><path style="fill:none;stroke:darkgreen;" d="M392,58C387,70 380,82 374,95"/><polygon style="fill:darkgreen;stroke:darkgreen;" points="376,96 369,107 371,94 376,96"/></g><g id="node24" class="node"><title>PPP2CA</title><a xlink:href="PPP2CA.html"><ellipse cx="512" cy="37" rx="52" ry="22" style="fill:turquoise;stroke:turquoise;"/><text text-anchor="middle" x="512" y="43" style="font-family:Times New Roman;"><![CDATA[PPP2CA]]></text></a></g><g id="edge24" class="edge"><title>PPP2CA-&gt;AKT1</title><path style="fill:none;stroke:#ff0000;" d="M481,56C458,70 426,89 401,103"/><polyline style="fill:none;stroke:#ff0000;" points="397,94 407,110 "/></g><g id="node26" class="node"><title>SRC</title><a xlink:href="SRC.html"><ellipse cx="622" cy="37" rx="34" ry="22" style="fill:turquoise;stroke:turquoise;"/><text text-anchor="middle" x="622" y="43" style="font-family:Times New Roman;"><![CDATA[SRC]]></text></a></g><g id="edge26" class="edge"><title>SRC-&gt;AKT1</title><path style="fill:none;stroke:darkgreen;" d="M595,52C589,54 582,57 576,59 519,84 451,104 407,115"/><polygon style="fill:darkgreen;stroke:darkgreen;" points="407,119 394,119 406,113 407,119"/></g></g></g></g>
<!-- navigation controls -->
<g id="navbox">
	<rect x="0" y="0" width="742" height="60"
		 style="fill:rgb(206,207,206);stroke:rgb(0,0,0);stroke-width:1"/>

	<polygon id="pan_right"
        onmouseup="panRight()"
        onmouseover="doHighlight(evt, 'Click to pan to the right')"
        onmouseout="resetHighlight(evt)"
		points="28.0732,13 32,20.5 28.0732,28 28.0732,23.4412 25,23.4412 25,17.4118 28.0732,17.4118"
		 transform="matrix(3.39111 0 0 2.98838 -12.6265 -29.7101)"
         fill="rgb(99,154,206)"
		 style="stroke:rgb(0,0,0);stroke-width:0.5"/>
	<polygon id="pan_left"
        onmouseup="panLeft()"
        onmouseover="doHighlight(evt, 'Click to pan to the left')"
        onmouseout="resetHighlight(evt)"
		points="123.991,25 120.064,32.5 123.991,40 123.991,35.4412 127.064,35.4412 127.064,29.4118
			123.991,29.4118" transform="matrix(3.39111 0 0 2.98838 -404.865 -65.5706)"
         fill="rgb(99,154,206)"
		 style="stroke:rgb(0,0,0);stroke-width:0.5"/>
	<polygon id="pan_down"
        onmouseup="panDown()"
        onmouseover="doHighlight(evt, 'Click to pan down')"
        onmouseout="resetHighlight(evt)"
		points="116.032,32.0408 123.532,35.9678 131.032,32.0408 126.473,32.0408 126.473,28.9678 120.444,28.9678
			120.444,32.0408" transform="matrix(3.39111 0 0 2.98838 -369.822 -50.6287)"
         fill="rgb(99,154,206)"
		 style="stroke:rgb(0,0,0);stroke-width:0.5"/>
	<polygon id="pan_up"
        onmouseup="panUp()"
  onmouseover="doHighlight(evt, 'Click to pan up')"
        onmouseout="resetHighlight(evt)"
		points="116.032,32.0408 123.532,35.9678 131.032,32.0408 126.473,32.0408 126.473,28.9678 120.444,28.9678
			120.444,32.0408" transform="matrix(3.39111 0 0 -2.98838 -369.823 111.74)"
         fill="rgb(99,154,206)"
		 style="stroke:rgb(0,0,0);stroke-width:0.5"/>
	<g id="go_home" 
         onmouseup="panRestore()" 
         onmouseover="doHighlight(evt, 'Click to restore graph to original position')"
         onmouseout="resetHighlight(evt)"
         fill="rgb(99,154,206)"
         transform="matrix(1 0 0 1 0 -0.333333)">
		<rect x="196" y="11" width="26" height="26"
			transform="translate(-19.1111 -2.66667)"
			 style="stroke:rgb(0,0,0);stroke-width:1"/>
		<line x1="182" y1="16" x2="182" y2="28"
			transform="matrix(1 0 0 1 2.22222 0.444444)"
			 style="fill:none;stroke:rgb(0,0,0);stroke-width:2"/>
		<line x1="187" y1="22" x2="187" y2="28"
			transform="matrix(1 0 0 1 2.22222 0.444444)"
			 style="fill:none;stroke:rgb(0,0,0);stroke-width:2"/>
	<line x1="192" y1="13" x2="192" y2="28"
			transform="matrix(1 0 0 1 2.22222 0.444444)"
			 style="fill:none;stroke:rgb(0,0,0);stroke-width:2"/>
		<line x1="182" y1="28" x2="192" y2="28"
			transform="matrix(1 0 0 1 2.22222 0.444444)"
	style="fill:none;stroke:rgb(0,0,0);stroke-width:2"/>
		<line x1="189" y1="12" x2="179" y2="21"
			 style="fill:none;stroke:rgb(0,0,0);stroke-width:2"/>
		<line x1="188" y1="12" x2="199" y2="20"
			 style="fill:none;stroke:rgb(0,0,0);stroke-width:2"/>
	</g>
	<g id="zoom_out" onmouseup="zoomOut()" 
             onmouseover="doHighlight(evt, 'Click to zoom out')"
             onmouseout="resetHighlight(evt)"
             fill="rgb(99,154,206)"
             transform="matrix(1 0 0 1 0 0)">
		<rect x="116" y="8" width="26" height="26"
			 style="stroke:rgb(0,0,0);stroke-width:1"/>
		<ellipse cx="126" cy="18" rx="6" ry="6"
			 style="stroke:rgb(0,0,0);stroke-width:1"/>
		<line x1="130" y1="23" x2="137" y2="29"
			transform="matrix(1 0 0 1 0.888889 -0.888889)"
			 style="fill:none;stroke:rgb(0,0,0);stroke-width:2"/>
		<line x1="123" y1="18" x2="129" y2="18"
			 style="fill:none;stroke:rgb(0,0,0);stroke-width:2"/>
	</g>
	<g id="zoom_in" onmouseup="zoomIn()" 
             onmouseover="doHighlight(evt, 'Click to zoom in')"
             onmouseout="resetHighlight(evt)"
             fill="rgb(99,154,206)"
             transform="matrix(1 0 0 1 0.888889 -0.444444)">
		<rect x="116" y="8" width="26" height="26"
			transform="matrix(1 0 0 1 29.7778 0.444444)"
			 style="stroke:rgb(0,0,0);stroke-width:1"/>
		<ellipse cx="126" cy="18" rx="6" ry="6"
			transform="matrix(1 0 0 1 29.7778 0.444444)"
			 style="stroke:rgb(0,0,0);stroke-width:1"/>
		<line x1="130" y1="23" x2="137" y2="29"
			transform="matrix(1 0 0 1 30.6667 -0.444445)"
		style="fill:none;stroke:rgb(0,0,0);stroke-width:2"/>
		<line x1="123" y1="18" x2="129" y2="18"
			transform="matrix(1 0 0 1 29.7778 0.444444)"
			 style="fill:none;stroke:rgb(0,0,0);stroke-width:2"/>
		<line x1="156" y1="15" x2="156" y2="22"
			 style="fill:none;stroke:rgb(0,0,0);stroke-width:2"/>
	</g>
	<g>
		<rect x="117" y="40" width="452" height="14"
			transform="matrix(1.54201 0 0 1 -64.1436 -0.222222)"
			 style="fill:rgb(192,192,192);stroke:rgb(0,0,0);stroke-width:1"/>
		<text id="status_text" x="183px" y="48px"
			transform="matrix(1 0 0 1 -63.5556 3.00778)"
			 style="fill:rgb(0,0,0);font-size:14;font-family:Arial"> </text>
	</g>
</g>	
</svg>