<?xml version="1.0" encoding="UTF-8" standalone="no"?><!DOCTYPE svg PUBLIC "-//W3C//DTD SVG 1.0//EN" "http://www.w3.org/TR/2001/REC-SVG-20010904/DTD/svg10.dtd" [ <!ATTLIST svg xmlns:xlink CDATA #FIXED "http://www.w3.org/1999/xlink">]><!-- Generated by WinGraphviz version ver1.02.23, 08/01/2003 (08/04/2003)     For user: Avi Ma'ayan   Title: G    Pages: 1 --><svg width="327px" height="276px" xmlns="http://www.w3.org/2000/svg" xmlns:xlink="http://www.w3.org/1999/xlink"><g id="graph0" class="graph" style="font-family:Times New Roman;font-size:18.67;"><title>G</title><g id="node1" class="node"><title>ARF1</title><a xlink:href="ARF1.html"><ellipse cx="159" cy="135" rx="40" ry="24" style="fill:turquoise;stroke:turquoise;"/><text text-anchor="middle" x="159" y="142" style="font-family:Times New Roman;"><![CDATA[ARF1]]></text></a></g><g id="node2" class="node"><title>PXN</title><a xlink:href="PXN.html"><ellipse cx="109" cy="231" rx="38" ry="24" style="fill:turquoise;stroke:turquoise;"/><text text-anchor="middle" x="109" y="238" style="font-family:Times New Roman;"><![CDATA[PXN]]></text></a></g><g id="edge2" class="edge"><title>ARF1-&gt;PXN</title><path style="fill:none;stroke:#0000ff;" d="M145,163C138,177 130,190 124,203"/><polygon style="fill:#0000ff;stroke:#0000ff;" points="150,159 145,157 142,162 147,165 150,159"/><polygon style="fill:#0000ff;stroke:#0000ff;" points="118,207 124,210 126,205 121,202 118,207"/></g><g id="node4" class="node"><title>PLD1</title><a xlink:href="PLD1.html"><ellipse cx="210" cy="231" rx="38" ry="24" style="fill:turquoise;stroke:turquoise;"/><text text-anchor="middle" x="210" y="238" style="font-family:Times New Roman;"><![CDATA[PLD1]]></text></a></g><g id="edge4" class="edge"><title>ARF1-&gt;PLD1</title><path style="fill:none;stroke:darkgreen;" d="M171,158C178,170 185,185 193,197"/><polygon style="fill:darkgreen;stroke:darkgreen;" points="195,195 198,209 190,198 195,195"/></g><g id="node6" class="node"><title>DDEF1</title><a xlink:href="DDEF1.html"><ellipse cx="53" cy="39" rx="46" ry="24" style="fill:turquoise;stroke:turquoise;"/><text text-anchor="middle" x="53" y="46" style="font-family:Times New Roman;"><![CDATA[DDEF1]]></text></a></g><g id="edge6" class="edge"><title>DDEF1-&gt;ARF1</title><path style="fill:none;stroke:#ff0000;" d="M77,61C90,73 108,89 122,102"/><polyline style="fill:none;stroke:#ff0000;" points="116,109 129,94 "/></g><g id="node8" class="node"><title>GIT1</title><a xlink:href="GIT1.html"><ellipse cx="159" cy="39" rx="36" ry="24" style="fill:turquoise;stroke:turquoise;"/><text text-anchor="middle" x="159" y="46" style="font-family:Times New Roman;"><![CDATA[GIT1]]></text></a></g><g id="edge8" class="edge"><title>GIT1-&gt;ARF1</title><path style="fill:none;stroke:#ff0000;" d="M159,63C159,71 159,82 159,91"/><polyline style="fill:none;stroke:#ff0000;" points="150,91 170,91 "/></g><g id="node10" class="node"><title>DDEF2</title><a xlink:href="DDEF2.html"><ellipse cx="269" cy="39" rx="49" ry="24" style="fill:turquoise;stroke:turquoise;"/><text text-anchor="middle" x="269" y="46" style="font-family:Times New Roman;"><![CDATA[DDEF2]]></text></a></g><g id="edge10" class="edge"><title>DDEF2-&gt;ARF1</title><path style="fill:none;stroke:#ff0000;" d="M245,61C230,73 213,89 197,103"/><polyline style="fill:none;stroke:#ff0000;" points="191,95 203,110 "/></g></g></svg>