<?xml version="1.0" encoding="UTF-8" standalone="no"?><!DOCTYPE svg PUBLIC "-//W3C//DTD SVG 1.0//EN" "http://www.w3.org/TR/2001/REC-SVG-20010904/DTD/svg10.dtd" [ <!ATTLIST svg xmlns:xlink CDATA #FIXED "http://www.w3.org/1999/xlink">]><!-- Generated by WinGraphviz version ver1.02.23, 08/01/2003 (08/04/2003)     For user: Avi Ma'ayan   Title: G    Pages: 1 --><svg width="234px" height="276px" xmlns="http://www.w3.org/2000/svg" xmlns:xlink="http://www.w3.org/1999/xlink"><g id="graph0" class="graph" style="font-family:Times New Roman;font-size:18.67;"><title>G</title><g id="node1" class="node"><title>PTK2</title><a xlink:href="PTK2.html"><ellipse cx="116" cy="39" rx="41" ry="24" style="fill:turquoise;stroke:turquoise;"/><text text-anchor="middle" x="116" y="46" style="font-family:Times New Roman;"><![CDATA[PTK2]]></text></a></g><g id="node2" class="node"><title>ARHGAP26</title><a xlink:href="ARHGAP26.html"><ellipse cx="116" cy="135" rx="73" ry="24" style="fill:turquoise;stroke:turquoise;"/><text text-anchor="middle" x="116" y="142" style="font-family:Times New Roman;"><![CDATA[ARHGAP26]]></text></a></g><g id="edge2" class="edge"><title>PTK2-&gt;ARHGAP26</title><path style="fill:none;stroke:#0000ff;" d="M116,70C116,81 116,94 116,105"/><polygon style="fill:#0000ff;stroke:#0000ff;" points="120,63 113,63 113,70 120,70 120,63"/><polygon style="fill:#0000ff;stroke:#0000ff;" points="113,111 120,111 120,105 113,105 113,111"/></g><g id="node4" class="node"><title>PTK2B</title><a xlink:href="PTK2B.html"><ellipse cx="55" cy="231" rx="49" ry="24" style="fill:turquoise;stroke:turquoise;"/><text text-anchor="middle" x="55" y="238" style="font-family:Times New Roman;"><![CDATA[PTK2B]]></text></a></g><g id="edge4" class="edge"><title>ARHGAP26-&gt;PTK2B</title><path style="fill:none;stroke:#0000ff;" d="M97,165C90,177 81,190 73,202"/><polygon style="fill:#0000ff;stroke:#0000ff;" points="104,161 98,157 94,162 100,166 104,161"/><polygon style="fill:#0000ff;stroke:#0000ff;" points="68,206 73,209 76,203 70,201 68,206"/></g><g id="node6" class="node"><title>RHOA</title><a xlink:href="RHOA.html"><ellipse cx="177" cy="231" rx="48" ry="24" style="fill:turquoise;stroke:turquoise;"/><text text-anchor="middle" x="177" y="238" style="font-family:Times New Roman;"><![CDATA[RHOA]]></text></a></g><g id="edge6" class="edge"><title>ARHGAP26-&gt;RHOA</title><path style="fill:none;stroke:#ff0000;" d="M130,159C137,169 143,181 151,191"/><polyline style="fill:none;stroke:#ff0000;" points="142,197 159,185 "/></g></g></svg>