<?xml version="1.0" encoding="UTF-8" standalone="no"?><!DOCTYPE svg PUBLIC "-//W3C//DTD SVG 1.0//EN" "http://www.w3.org/TR/2001/REC-SVG-20010904/DTD/svg10.dtd" [ <!ATTLIST svg xmlns:xlink CDATA #FIXED "http://www.w3.org/1999/xlink">]><!-- Generated by WinGraphviz version ver1.02.23, 08/01/2003 (08/04/2003)     For user: Avi Ma'ayan   Title: G    Pages: 1 --><svg width="164px" height="276px" xmlns="http://www.w3.org/2000/svg" xmlns:xlink="http://www.w3.org/1999/xlink"><g id="graph0" class="graph" style="font-family:Times New Roman;font-size:18.67;"><title>G</title><g id="node1" class="node"><title>ACTB</title><a xlink:href="ACTB.html"><ellipse cx="81" cy="39" rx="44" ry="24" style="fill:turquoise;stroke:turquoise;"/><text text-anchor="middle" x="81" y="46" style="font-family:Times New Roman;"><![CDATA[ACTB]]></text></a></g><g id="node2" class="node"><title>ARHGAP24</title><a xlink:href="ARHGAP24.html"><ellipse cx="81" cy="135" rx="74" ry="24" style="fill:turquoise;stroke:turquoise;"/><text text-anchor="middle" x="81" y="142" style="font-family:Times New Roman;"><![CDATA[ARHGAP24]]></text></a></g><g id="edge2" class="edge"><title>ACTB-&gt;ARHGAP24</title><path style="fill:none;stroke:#0000ff;" d="M81,70C81,81 81,94 81,105"/><polygon style="fill:#0000ff;stroke:#0000ff;" points="85,63 78,63 78,70 85,70 85,63"/><polygon style="fill:#0000ff;stroke:#0000ff;" points="78,111 85,111 85,105 78,105 78,111"/></g><g id="node4" class="node"><title>RAC1</title><a xlink:href="RAC1.html"><ellipse cx="81" cy="231" rx="41" ry="24" style="fill:turquoise;stroke:turquoise;"/><text text-anchor="middle" x="81" y="238" style="font-family:Times New Roman;"><![CDATA[RAC1]]></text></a></g><g id="edge4" class="edge"><title>ARHGAP24-&gt;RAC1</title><path style="fill:none;stroke:#ff0000;" d="M81,159C81,167 81,178 81,187"/><polyline style="fill:none;stroke:#ff0000;" points="72,187 92,187 "/></g></g></svg>