<?xml version="1.0" encoding="UTF-8" standalone="no"?><!DOCTYPE svg PUBLIC "-//W3C//DTD SVG 1.0//EN" "http://www.w3.org/TR/2001/REC-SVG-20010904/DTD/svg10.dtd" [ <!ATTLIST svg xmlns:xlink CDATA #FIXED "http://www.w3.org/1999/xlink">]><!-- Generated by WinGraphviz version ver1.02.23, 08/01/2003 (08/04/2003)     For user: Avi Ma'ayan   Title: G    Pages: 1 --><svg width="447px" height="276px" xmlns="http://www.w3.org/2000/svg" xmlns:xlink="http://www.w3.org/1999/xlink"><g id="graph0" class="graph" style="font-family:Times New Roman;font-size:18.67;"><title>G</title><g id="node1" class="node"><title>CAPN1</title><a xlink:href="CAPN1.html"><ellipse cx="55" cy="39" rx="49" ry="24" style="fill:turquoise;stroke:turquoise;"/><text text-anchor="middle" x="55" y="46" style="font-family:Times New Roman;"><![CDATA[CAPN1]]></text></a></g><g id="node2" class="node"><title>ARHGEF6</title><a xlink:href="ARHGEF6.html"><ellipse cx="215" cy="135" rx="66" ry="24" style="fill:turquoise;stroke:turquoise;"/><text text-anchor="middle" x="215" y="142" style="font-family:Times New Roman;"><![CDATA[ARHGEF6]]></text></a></g><g id="edge2" class="edge"><title>CAPN1-&gt;ARHGEF6</title><path style="fill:none;stroke:#0000ff;" d="M92,61C116,75 149,95 174,110"/><polygon style="fill:#0000ff;stroke:#0000ff;" points="88,55 85,61 90,63 93,58 88,55"/><polygon style="fill:#0000ff;stroke:#0000ff;" points="179,117 182,111 177,107 174,113 179,117"/></g><g id="node10" class="node"><title>CBL</title><a xlink:href="CBL.html"><ellipse cx="105" cy="231" rx="36" ry="24" style="fill:turquoise;stroke:turquoise;"/><text text-anchor="middle" x="105" y="238" style="font-family:Times New Roman;"><![CDATA[CBL]]></text></a></g><g id="edge10" class="edge"><title>ARHGEF6-&gt;CBL</title><path style="fill:none;stroke:#ff0000;" d="M190,158C175,170 157,186 141,201"/><polyline style="fill:none;stroke:#ff0000;" points="135,191 149,207 "/></g><g id="node12" class="node"><title>PPM1M</title><a xlink:href="PPM1M.html"><ellipse cx="215" cy="231" rx="50" ry="24" style="fill:turquoise;stroke:turquoise;"/><text text-anchor="middle" x="215" y="238" style="font-family:Times New Roman;"><![CDATA[PPM1M]]></text></a></g><g id="edge12" class="edge"><title>ARHGEF6-&gt;PPM1M</title><path style="fill:none;stroke:#0000ff;" d="M215,166C215,177 215,190 215,201"/><polygon style="fill:#0000ff;stroke:#0000ff;" points="219,159 213,159 213,166 219,166 219,159"/><polygon style="fill:#0000ff;stroke:#0000ff;" points="213,207 219,207 219,201 213,201 213,207"/></g><g id="node14" class="node"><title>RAC1</title><a xlink:href="RAC1.html"><ellipse cx="332" cy="231" rx="41" ry="24" style="fill:turquoise;stroke:turquoise;"/><text text-anchor="middle" x="332" y="238" style="font-family:Times New Roman;"><![CDATA[RAC1]]></text></a></g><g id="edge14" class="edge"><title>ARHGEF6-&gt;RAC1</title><path style="fill:none;stroke:darkgreen;" d="M242,158C260,171 281,189 298,203"/><polygon style="fill:darkgreen;stroke:darkgreen;" points="300,201 308,211 296,205 300,201"/></g><g id="node4" class="node"><title>GIT1</title><a xlink:href="GIT1.html"><ellipse cx="165" cy="39" rx="36" ry="24" style="fill:turquoise;stroke:turquoise;"/><text text-anchor="middle" x="165" y="46" style="font-family:Times New Roman;"><![CDATA[GIT1]]></text></a></g><g id="edge4" class="edge"><title>GIT1-&gt;ARHGEF6</title><path style="fill:none;stroke:#0000ff;" d="M179,67C186,79 194,94 201,106"/><polygon style="fill:#0000ff;stroke:#0000ff;" points="179,61 174,63 177,69 182,66 179,61"/><polygon style="fill:#0000ff;stroke:#0000ff;" points="201,113 206,110 203,105 198,107 201,113"/></g><g id="node6" class="node"><title>PAK1</title><a xlink:href="PAK1.html"><ellipse cx="266" cy="39" rx="41" ry="24" style="fill:turquoise;stroke:turquoise;"/><text text-anchor="middle" x="266" y="46" style="font-family:Times New Roman;"><![CDATA[PAK1]]></text></a></g><g id="edge6" class="edge"><title>PAK1-&gt;ARHGEF6</title><path style="fill:none;stroke:#0000ff;" d="M251,67C245,81 238,94 231,106"/><polygon style="fill:#0000ff;stroke:#0000ff;" points="257,63 251,61 249,66 254,69 257,63"/><polygon style="fill:#0000ff;stroke:#0000ff;" points="226,110 231,113 234,107 229,105 226,110"/></g><g id="node8" class="node"><title>PARVB</title><a xlink:href="PARVB.html"><ellipse cx="385" cy="39" rx="53" ry="24" style="fill:turquoise;stroke:turquoise;"/><text text-anchor="middle" x="385" y="46" style="font-family:Times New Roman;"><![CDATA[PARVB]]></text></a></g><g id="edge8" class="edge"><title>PARVB-&gt;ARHGEF6</title><path style="fill:none;stroke:#0000ff;" d="M346,61C320,75 285,97 258,111"/><polygon style="fill:#0000ff;stroke:#0000ff;" points="353,61 350,55 345,58 348,63 353,61"/><polygon style="fill:#0000ff;stroke:#0000ff;" points="250,113 253,118 258,114 255,109 250,113"/></g></g></svg>