<?xml version="1.0" encoding="UTF-8" standalone="no"?><!DOCTYPE svg PUBLIC "-//W3C//DTD SVG 1.0//EN" "http://www.w3.org/TR/2001/REC-SVG-20010904/DTD/svg10.dtd" [ <!ATTLIST svg xmlns:xlink CDATA #FIXED "http://www.w3.org/1999/xlink">]><!-- Generated by WinGraphviz version ver1.02.23, 08/01/2003 (08/04/2003)     For user: Avi Ma'ayan   Title: G    Pages: 1 --><svg width="340px" height="276px" xmlns="http://www.w3.org/2000/svg" xmlns:xlink="http://www.w3.org/1999/xlink"><g id="graph0" class="graph" style="font-family:Times New Roman;font-size:18.67;"><title>G</title><g id="node1" class="node"><title>ITGA5</title><a xlink:href="ITGA5.html"><ellipse cx="53" cy="39" rx="46" ry="24" style="fill:turquoise;stroke:turquoise;"/><text text-anchor="middle" x="53" y="46" style="font-family:Times New Roman;"><![CDATA[ITGA5]]></text></a></g><g id="node2" class="node"><title>ARHGAP5</title><a xlink:href="ARHGAP5.html"><ellipse cx="167" cy="135" rx="68" ry="24" style="fill:turquoise;stroke:turquoise;"/><text text-anchor="middle" x="167" y="142" style="font-family:Times New Roman;"><![CDATA[ARHGAP5]]></text></a></g><g id="edge2" class="edge"><title>ITGA5-&gt;ARHGAP5</title><path style="fill:none;stroke:#0000ff;" d="M82,65C100,78 120,94 135,109"/><polygon style="fill:#0000ff;stroke:#0000ff;" points="81,58 76,63 81,69 86,63 81,58"/><polygon style="fill:#0000ff;stroke:#0000ff;" points="139,115 143,110 138,106 134,111 139,115"/></g><g id="node8" class="node"><title>RHOA</title><a xlink:href="RHOA.html"><ellipse cx="167" cy="231" rx="48" ry="24" style="fill:turquoise;stroke:turquoise;"/><text text-anchor="middle" x="167" y="238" style="font-family:Times New Roman;"><![CDATA[RHOA]]></text></a></g><g id="edge8" class="edge"><title>ARHGAP5-&gt;RHOA</title><path style="fill:none;stroke:#ff0000;" d="M167,159C167,167 167,178 167,187"/><polyline style="fill:none;stroke:#ff0000;" points="158,187 178,187 "/></g><g id="node4" class="node"><title>ITGB1</title><a xlink:href="ITGB1.html"><ellipse cx="167" cy="39" rx="44" ry="24" style="fill:turquoise;stroke:turquoise;"/><text text-anchor="middle" x="167" y="46" style="font-family:Times New Roman;"><![CDATA[ITGB1]]></text></a></g><g id="edge4" class="edge"><title>ITGB1-&gt;ARHGAP5</title><path style="fill:none;stroke:#0000ff;" d="M167,70C167,81 167,94 167,105"/><polygon style="fill:#0000ff;stroke:#0000ff;" points="171,63 165,63 165,70 171,70 171,63"/><polygon style="fill:#0000ff;stroke:#0000ff;" points="165,111 171,111 171,105 165,105 165,111"/></g><g id="node6" class="node"><title>RASA1</title><a xlink:href="RASA1.html"><ellipse cx="284" cy="39" rx="48" ry="24" style="fill:turquoise;stroke:turquoise;"/><text text-anchor="middle" x="284" y="46" style="font-family:Times New Roman;"><![CDATA[RASA1]]></text></a></g><g id="edge6" class="edge"><title>RASA1-&gt;ARHGAP5</title><path style="fill:none;stroke:#0000ff;" d="M254,65C237,78 217,94 201,109"/><polygon style="fill:#0000ff;stroke:#0000ff;" points="261,63 255,58 250,63 255,69 261,63"/><polygon style="fill:#0000ff;stroke:#0000ff;" points="194,110 198,115 203,111 199,106 194,110"/></g></g></svg>