<?xml version="1.0" encoding="UTF-8" standalone="no"?><!DOCTYPE svg PUBLIC "-//W3C//DTD SVG 1.0//EN" "http://www.w3.org/TR/2001/REC-SVG-20010904/DTD/svg10.dtd" [ <!ATTLIST svg xmlns:xlink CDATA #FIXED "http://www.w3.org/1999/xlink">]><!-- Generated by WinGraphviz version ver1.02.23, 08/01/2003 (08/04/2003)     For user: Avi Ma'ayan   Title: G    Pages: 1 --><svg width="431px" height="180px" xmlns="http://www.w3.org/2000/svg" xmlns:xlink="http://www.w3.org/1999/xlink"><g id="graph0" class="graph" style="font-family:Times New Roman;font-size:18.67;"><title>G</title><g id="node1" class="node"><title>ARPC2</title><a xlink:href="ARPC2.html"><ellipse cx="219" cy="39" rx="50" ry="24" style="fill:turquoise;stroke:turquoise;"/><text text-anchor="middle" x="219" y="46" style="font-family:Times New Roman;"><![CDATA[ARPC2]]></text></a></g><g id="node2" class="node"><title>ACTB</title><a xlink:href="ACTB.html"><ellipse cx="50" cy="135" rx="44" ry="24" style="fill:turquoise;stroke:turquoise;"/><text text-anchor="middle" x="50" y="142" style="font-family:Times New Roman;"><![CDATA[ACTB]]></text></a></g><g id="edge2" class="edge"><title>ARPC2-&gt;ACTB</title><path style="fill:none;stroke:darkgreen;" d="M187,58C161,74 121,95 92,113"/><polygon style="fill:darkgreen;stroke:darkgreen;" points="94,115 81,118 92,109 94,115"/></g><g id="node4" class="node"><title>CTTN</title><a xlink:href="CTTN.html"><ellipse cx="162" cy="135" rx="44" ry="24" style="fill:turquoise;stroke:turquoise;"/><text text-anchor="middle" x="162" y="142" style="font-family:Times New Roman;"><![CDATA[CTTN]]></text></a></g><g id="edge4" class="edge"><title>ARPC2-&gt;CTTN</title><path style="fill:none;stroke:#0000ff;" d="M203,67C195,81 186,94 178,107"/><polygon style="fill:#0000ff;stroke:#0000ff;" points="209,63 203,61 201,66 206,69 209,63"/><polygon style="fill:#0000ff;stroke:#0000ff;" points="173,111 178,114 181,109 175,106 173,111"/></g><g id="node6" class="node"><title>TIAM1</title><a xlink:href="TIAM1.html"><ellipse cx="277" cy="135" rx="46" ry="24" style="fill:turquoise;stroke:turquoise;"/><text text-anchor="middle" x="277" y="142" style="font-family:Times New Roman;"><![CDATA[TIAM1]]></text></a></g><g id="edge6" class="edge"><title>ARPC2-&gt;TIAM1</title><path style="fill:none;stroke:#0000ff;" d="M235,67C243,81 253,94 261,107"/><polygon style="fill:#0000ff;stroke:#0000ff;" points="235,61 230,63 233,69 238,66 235,61"/><polygon style="fill:#0000ff;stroke:#0000ff;" points="261,114 266,111 264,106 258,109 261,114"/></g><g id="node8" class="node"><title>VCL</title><a xlink:href="VCL.html"><ellipse cx="385" cy="135" rx="37" ry="24" style="fill:turquoise;stroke:turquoise;"/><text text-anchor="middle" x="385" y="142" style="font-family:Times New Roman;"><![CDATA[VCL]]></text></a></g><g id="edge8" class="edge"><title>ARPC2-&gt;VCL</title><path style="fill:none;stroke:#0000ff;" d="M258,62C286,78 324,101 352,117"/><polygon style="fill:#0000ff;stroke:#0000ff;" points="253,55 250,61 255,65 258,59 253,55"/><polygon style="fill:#0000ff;stroke:#0000ff;" points="356,122 358,117 353,114 350,119 356,122"/></g></g></svg>