<?xml version="1.0" encoding="UTF-8" standalone="no"?><!DOCTYPE svg PUBLIC "-//W3C//DTD SVG 1.0//EN" "http://www.w3.org/TR/2001/REC-SVG-20010904/DTD/svg10.dtd" [ <!ATTLIST svg xmlns:xlink CDATA #FIXED "http://www.w3.org/1999/xlink">]><!-- Generated by WinGraphviz version ver1.02.23, 08/01/2003 (08/04/2003)     For user: Avi Ma'ayan   Title: G    Pages: 1 --><!--="735px" height="150px" xmlns="http://www.w3.org/2000/svg" --><svg onload="init(evt)" width="735px" height="600px" xmlns="http://www.w3.org/2000/svg" xmlns:xlink="http://www.w3.org/1999/xlink">
<script type="text/ecmascript">
<![CDATA[
var svgDocument;
var zoomAmt;
var xOffset;
var yOffset;
var scale;
var maxScale;
var imageWidth;
var imageHeight;
function init(evt)
{
    svgDocument = evt.getTarget().getOwnerDocument();
    zoomAmt = 0;
    xOffset = 0;
    yOffset = 60;
    scale = 0.8;
    maxScale = 10;
    imageWidth = 742;
    imageHeight = 606;
    panRestore();
    //panUp();
}
function transformMap ()
{
    var obj = svgDocument.getElementById("Pathway");
    var centerX = imageWidth  / 2.0;
    var centerY = imageHeight / 2.0;
    var adjustX = (-centerX * (scale - 0.8)) + xOffset;
    var adjustY = (-centerY * (scale - 0.8)) + yOffset;
    var transParms = 'translate(' + adjustX + ',' + adjustY + ') ';
    transParms += 'scale(' + scale + ')';
    // alert(transParms);
    obj.setAttribute("transform", transParms); 
}
function click_node(id)
{
    var testx = parent.click_node;
    if (typeof(testx) == "function")
    {
		parent.click_node(id);
    }
}
function click_relation(id)
{
    var testx = parent.click_relation;
    if (typeof(testx) == "function")
    {
        parent.click_relation(id);
    }
}
function click_pathway(toId, fromId)
{
    var testx = parent.click_pathway;
    if (typeof(testx) == "function")
    {
	parent.click_pathway(toId, fromId);
    }
}
function check_interpath(evt, pathid)
{
  var obj = evt.getTarget();
  var testx = parent.is_frompath;
  var child = obj.firstChild;
  if (typeof(testx) == "function")
  {
    if (parent.is_frompath(pathid))
    {
      while (child != null)
      {
        if (child.nodeType == 1)
        {
          if ((child.localName == "g") || (child.localName == "polyline"))
          {
            child.setAttribute("style", "fill:none;stroke:red");
          }
          else if (child.localName == "polygon")
          {
            child.setAttribute("style", "fill:red;stroke:red");
          }
        }
        child = child.nextSibling;
      }
    }
  }
}
function set_status (msg)
{
 var obj = svgDocument.getElementById("status_text");
  var child;
 
  child = obj.firstChild;
  if ((child != null) && (child.nodeType == 3))
  {
    if ((msg != null) && (msg.length > 0))
    {
      child.data = msg;
    }
    else
    {
child.data = " ";
    }
  }
}
function zoomIn ()
{
    scale = scale + 0.8;
    if (scale > maxScale)
    {
       scale = maxScale;
    }
    transformMap();
    panUp();
    panUp();
    panUp();
    panUp();
    panUp();
    panUp();
    panUp();
    panUp();
    panUp();
    panUp();
    panUp();
    panUp();
}
function zoomOut ()
{
    scale = scale - 0.8;
    if (scale < 0.8)
    {
       scale = 0.8;
    }
    transformMap();
    panDown();
    panDown();
    panDown();
    panDown();
    panDown();
    panDown();
    panDown();
    panDown();
    panDown();
    panDown();
    panDown();
    panDown();
}
function panUp ()
{
    yOffset = yOffset + 20;
    transformMap();
}
function panDown ()
{
    yOffset = yOffset - 20;
    transformMap();
}
function panLeft ()
{
    xOffset = xOffset + 20;
    transformMap();
}
function panRight ()
{
    xOffset = xOffset - 20;
    transformMap();
}
function panRestore ()
{
    xOffset = 0;
    yOffset = 0;
    scale = 0.5;
    //obj = svgDocument.getElementById("zoom");
    //obj.setAttribute("x1", 0);
    //obj.setAttribute("x2", 0);
    transformMap();    
}
function doHighlight (evt, msg)
{
  var obj = evt.getTarget();
  obj.setAttribute("fill", "rgb(239,24,33)");
  set_status(msg);
}
function resetHighlight (evt)
{
  var obj = evt.getTarget();
  obj.setAttribute("fill", "rgb(99,154,206)");
  set_status(" ");
}
// ]]>
</script>
<defs>
<clipPath id="theClip">
<polygon points="1 61, 741 61, 741 665, 1 665"
style="fill: none;"/>
</clipPath>
</defs>
<!-- viewport outline -->
<rect x="0" y="61" width="742" height="606"
style="stroke: black; stroke-width: 1; fill: none;"/>
<!-- pathway graph style="clip-path: url(#theClip);" -->
<g style="clip-path: url(#theClip);">
<g id="Pathway"  transform="translate(0,60)">
<!-- prefile.include ends, begin pathway graph -->
<g id="stkecm;CMP_10705" class="graph">
</g>
<g id="graph0" class="graph" style="font-family:Times New Roman;font-size:9.64;"><title>G</title><g id="node1" class="node"><title>ABL1</title><a xlink:href="ABL1.html"><ellipse cx="27" cy="23" rx="20" ry="12" style="fill:turquoise;stroke:turquoise;"/><text text-anchor="middle" x="27" y="26" style="font-family:Times New Roman;"><![CDATA[ABL1]]></text></a></g><g id="node2" class="node"><title>BCAR1</title><a xlink:href="BCAR1.html"><ellipse cx="361" cy="72" rx="25" ry="12" style="fill:turquoise;stroke:turquoise;"/><text text-anchor="middle" x="361" y="76" style="font-family:Times New Roman;"><![CDATA[BCAR1]]></text></a></g><g id="edge2" class="edge"><title>ABL1-&gt;BCAR1</title><path style="fill:none;stroke:darkgreen;" d="M43,31C46,32 50,35 54,35 105,50 261,64 328,70"/><polygon style="fill:darkgreen;stroke:darkgreen;" points="328,68 335,70 328,71 328,68"/></g><g id="node10" class="node"><title>CRK</title><a xlink:href="CRK.html"><ellipse cx="149" cy="122" rx="19" ry="12" style="fill:turquoise;stroke:turquoise;"/><text text-anchor="middle" x="149" y="125" style="font-family:Times New Roman;"><![CDATA[CRK]]></text></a></g><g id="edge10" class="edge"><title>BCAR1-&gt;CRK</title><path style="fill:none;stroke:#0000ff;" d="M332,76C296,81 230,92 175,110 173,111 170,112 167,113"/><polygon style="fill:#0000ff;stroke:#0000ff;" points="336,77 336,74 332,74 332,77 336,77"/><polygon style="fill:#0000ff;stroke:#0000ff;" points="164,112 165,115 169,114 167,112 164,112"/></g><g id="node12" class="node"><title>CRKL</title><a xlink:href="CRKL.html"><ellipse cx="205" cy="122" rx="23" ry="12" style="fill:turquoise;stroke:turquoise;"/><text text-anchor="middle" x="205" y="125" style="font-family:Times New Roman;"><![CDATA[CRKL]]></text></a></g><g id="edge12" class="edge"><title>BCAR1-&gt;CRKL</title><path style="fill:none;stroke:#0000ff;" d="M335,79C309,86 269,98 235,110 232,111 229,112 226,113"/><polygon style="fill:#0000ff;stroke:#0000ff;" points="338,80 338,77 335,78 335,81 338,80"/><polygon style="fill:#0000ff;stroke:#0000ff;" points="222,113 224,116 226,114 225,112 222,113"/></g><g id="node14" class="node"><title>PTK2</title><a xlink:href="PTK2.html"><ellipse cx="262" cy="122" rx="21" ry="12" style="fill:turquoise;stroke:turquoise;"/><text text-anchor="middle" x="262" y="125" style="font-family:Times New Roman;"><![CDATA[PTK2]]></text></a></g><g id="edge14" class="edge"><title>BCAR1-&gt;PTK2</title><path style="fill:none;stroke:#0000ff;" d="M339,83C322,92 298,104 282,112"/><polygon style="fill:#0000ff;stroke:#0000ff;" points="343,83 342,80 339,82 341,85 343,83"/><polygon style="fill:#0000ff;stroke:#0000ff;" points="278,112 279,115 282,114 281,111 278,112"/></g><g id="node16" class="node"><title>MAPK8</title><a xlink:href="MAPK8.html"><ellipse cx="323" cy="122" rx="27" ry="12" style="fill:turquoise;stroke:turquoise;"/><text text-anchor="middle" x="323" y="125" style="font-family:Times New Roman;"><![CDATA[MAPK8]]></text></a></g><g id="edge16" class="edge"><title>BCAR1-&gt;MAPK8</title><path style="fill:none;stroke:#0000ff;" d="M350,87C345,93 339,101 335,107"/><polygon style="fill:#0000ff;stroke:#0000ff;" points="353,85 350,83 348,85 351,88 353,85"/><polygon style="fill:#0000ff;stroke:#0000ff;" points="331,108 334,110 336,107 333,105 331,108"/></g><g id="node18" class="node"><title>MAPK8IP3</title><a xlink:href="MAPK8IP3.html"><ellipse cx="399" cy="122" rx="35" ry="12" style="fill:turquoise;stroke:turquoise;"/><text text-anchor="middle" x="399" y="125" style="font-family:Times New Roman;"><![CDATA[MAPK8IP3]]></text></a></g><g id="edge18" class="edge"><title>BCAR1-&gt;MAPK8IP3</title><path style="fill:none;stroke:#0000ff;" d="M372,87C376,93 383,101 388,107"/><polygon style="fill:#0000ff;stroke:#0000ff;" points="371,83 368,85 370,88 373,85 371,83"/><polygon style="fill:#0000ff;stroke:#0000ff;" points="388,110 391,108 389,105 386,107 388,110"/></g><g id="node20" class="node"><title>LYN</title><a xlink:href="LYN.html"><ellipse cx="466" cy="122" rx="19" ry="12" style="fill:turquoise;stroke:turquoise;"/><text text-anchor="middle" x="466" y="125" style="font-family:Times New Roman;"><![CDATA[LYN]]></text></a></g><g id="edge20" class="edge"><title>BCAR1-&gt;LYN</title><path style="fill:none;stroke:#0000ff;" d="M383,83C398,90 420,101 440,110 443,111 445,112 447,113"/><polygon style="fill:#0000ff;stroke:#0000ff;" points="380,80 379,83 382,84 383,81 380,80"/><polygon style="fill:#0000ff;stroke:#0000ff;" points="449,116 451,113 448,112 447,114 449,116"/></g><g id="node22" class="node"><title>PTK2B</title><a xlink:href="PTK2B.html"><ellipse cx="524" cy="122" rx="25" ry="12" style="fill:turquoise;stroke:turquoise;"/><text text-anchor="middle" x="524" y="125" style="font-family:Times New Roman;"><![CDATA[PTK2B]]></text></a></g><g id="edge22" class="edge"><title>BCAR1-&gt;PTK2B</title><path style="fill:none;stroke:#0000ff;" d="M387,79C413,85 456,98 492,110 495,111 498,112 501,113"/><polygon style="fill:#0000ff;stroke:#0000ff;" points="383,77 383,79 387,80 387,77 383,77"/><polygon style="fill:#0000ff;stroke:#0000ff;" points="503,115 505,112 501,112 500,114 503,115"/></g><g id="node24" class="node"><title>TRIP6</title><a xlink:href="TRIP6.html"><ellipse cx="584" cy="122" rx="22" ry="12" style="fill:turquoise;stroke:turquoise;"/><text text-anchor="middle" x="584" y="125" style="font-family:Times New Roman;"><![CDATA[TRIP6]]></text></a></g><g id="edge24" class="edge"><title>BCAR1-&gt;TRIP6</title><path style="fill:none;stroke:#0000ff;" d="M389,76C427,81 497,92 555,110 558,111 562,112 564,113"/><polygon style="fill:#0000ff;stroke:#0000ff;" points="385,74 385,77 389,77 389,74 385,74"/><polygon style="fill:#0000ff;stroke:#0000ff;" points="566,115 568,112 564,112 563,114 566,115"/></g><g id="node4" class="node"><title>JUB</title><a xlink:href="JUB.html"><ellipse cx="78" cy="23" rx="18" ry="12" style="fill:turquoise;stroke:turquoise;"/><text text-anchor="middle" x="78" y="26" style="font-family:Times New Roman;"><![CDATA[JUB]]></text></a></g><g id="edge4" class="edge"><title>JUB-&gt;BCAR1</title><path style="fill:none;stroke:#0000ff;" d="M95,32C98,33 100,34 103,35 184,61 283,68 331,72"/><polygon style="fill:#0000ff;stroke:#0000ff;" points="93,30 92,32 95,33 96,30 93,30"/><polygon style="fill:#0000ff;stroke:#0000ff;" points="335,73 335,70 332,70 332,73 335,73"/></g><g id="node6" class="node"><title>BCAR3</title><a xlink:href="BCAR3.html"><ellipse cx="136" cy="23" rx="26" ry="12" style="fill:turquoise;stroke:turquoise;"/><text text-anchor="middle" x="136" y="26" style="font-family:Times New Roman;"><![CDATA[BCAR3]]></text></a></g><g id="edge6" class="edge"><title>BCAR3-&gt;BCAR1</title><path style="fill:none;stroke:#0000ff;" d="M158,32C162,33 164,34 168,35 225,52 295,63 332,68"/><polygon style="fill:#0000ff;stroke:#0000ff;" points="156,30 155,32 158,33 160,30 156,30"/><polygon style="fill:#0000ff;stroke:#0000ff;" points="336,70 336,68 332,67 332,70 336,70"/></g><g id="node8" class="node"><title>RAPGEF1</title><a xlink:href="RAPGEF1.html"><ellipse cx="206" cy="23" rx="32" ry="12" style="fill:turquoise;stroke:turquoise;"/><text text-anchor="middle" x="206" y="26" style="font-family:Times New Roman;"><![CDATA[RAPGEF1]]></text></a></g><g id="edge8" class="edge"><title>RAPGEF1-&gt;BCAR1</title><path style="fill:none;stroke:#0000ff;" d="M234,32C263,41 308,55 336,64"/><polygon style="fill:#0000ff;stroke:#0000ff;" points="232,30 231,32 234,33 235,30 232,30"/><polygon style="fill:#0000ff;stroke:#0000ff;" points="339,67 340,64 337,63 335,65 339,67"/></g><g id="node26" class="node"><title>FYN</title><a xlink:href="FYN.html"><ellipse cx="271" cy="23" rx="19" ry="12" style="fill:turquoise;stroke:turquoise;"/><text text-anchor="middle" x="271" y="26" style="font-family:Times New Roman;"><![CDATA[FYN]]></text></a></g><g id="edge26" class="edge"><title>FYN-&gt;BCAR1</title><path style="fill:none;stroke:darkgreen;" d="M286,31C301,39 322,51 338,60"/><polygon style="fill:darkgreen;stroke:darkgreen;" points="338,58 343,63 337,61 338,58"/></g><g id="node28" class="node"><title>PTPRF</title><a xlink:href="PTPRF.html"><ellipse cx="328" cy="23" rx="24" ry="12" style="fill:turquoise;stroke:turquoise;"/><text text-anchor="middle" x="328" y="26" style="font-family:Times New Roman;"><![CDATA[PTPRF]]></text></a></g><g id="edge28" class="edge"><title>PTPRF-&gt;BCAR1</title><path style="fill:none;stroke:#ff0000;" d="M336,35C339,40 343,46 348,52"/><polyline style="fill:none;stroke:#ff0000;" points="343,55 352,49 "/></g><g id="node30" class="node"><title>PPP2CA</title><a xlink:href="PPP2CA.html"><ellipse cx="394" cy="23" rx="28" ry="12" style="fill:turquoise;stroke:turquoise;"/><text text-anchor="middle" x="394" y="26" style="font-family:Times New Roman;"><![CDATA[PPP2CA]]></text></a></g><g id="edge30" class="edge"><title>PPP2CA-&gt;BCAR1</title><path style="fill:none;stroke:#ff0000;" d="M385,35C382,40 378,46 374,52"/><polyline style="fill:none;stroke:#ff0000;" points="370,49 379,55 "/></g><g id="node32" class="node"><title>PTPN1</title><a xlink:href="PTPN1.html"><ellipse cx="458" cy="23" rx="23" ry="12" style="fill:turquoise;stroke:turquoise;"/><text text-anchor="middle" x="458" y="26" style="font-family:Times New Roman;"><![CDATA[PTPN1]]></text></a></g><g id="edge32" class="edge"><title>PTPN1-&gt;BCAR1</title><path style="fill:none;stroke:#ff0000;" d="M441,32C426,39 404,50 387,59"/><polyline style="fill:none;stroke:#ff0000;" points="385,54 390,63 "/></g><g id="node34" class="node"><title>PTPN12</title><a xlink:href="PTPN12.html"><ellipse cx="520" cy="23" rx="26" ry="12" style="fill:turquoise;stroke:turquoise;"/><text text-anchor="middle" x="520" y="26" style="font-family:Times New Roman;"><![CDATA[PTPN12]]></text></a></g><g id="edge34" class="edge"><title>PTPN12-&gt;BCAR1</title><path style="fill:none;stroke:#ff0000;" d="M500,31C496,32 491,34 487,35 454,46 416,57 391,64"/><polyline style="fill:none;stroke:#ff0000;" points="392,59 394,69 "/></g><g id="node36" class="node"><title>PTPRA</title><a xlink:href="PTPRA.html"><ellipse cx="586" cy="23" rx="26" ry="12" style="fill:turquoise;stroke:turquoise;"/><text text-anchor="middle" x="586" y="26" style="font-family:Times New Roman;"><![CDATA[PTPRA]]></text></a></g><g id="edge36" class="edge"><title>PTPRA-&gt;BCAR1</title><path style="fill:none;stroke:#ff0000;" d="M566,31C562,32 558,34 553,35 499,51 434,61 395,68"/><polyline style="fill:none;stroke:#ff0000;" points="395,62 396,72 "/></g><g id="node38" class="node"><title>PTPRH</title><a xlink:href="PTPRH.html"><ellipse cx="650" cy="23" rx="26" ry="12" style="fill:turquoise;stroke:turquoise;"/><text text-anchor="middle" x="650" y="26" style="font-family:Times New Roman;"><![CDATA[PTPRH]]></text></a></g><g id="edge38" class="edge"><title>PTPRH-&gt;BCAR1</title><path style="fill:none;stroke:#ff0000;" d="M631,31C627,32 622,35 618,35 540,56 445,65 396,70"/><polyline style="fill:none;stroke:#ff0000;" points="396,65 396,75 "/></g><g id="node40" class="node"><title>SRC</title><a xlink:href="SRC.html"><ellipse cx="708" cy="23" rx="18" ry="12" style="fill:turquoise;stroke:turquoise;"/><text text-anchor="middle" x="708" y="26" style="font-family:Times New Roman;"><![CDATA[SRC]]></text></a></g><g id="edge40" class="edge"><title>SRC-&gt;BCAR1</title><path style="fill:none;stroke:darkgreen;" d="M694,31C690,32 686,34 683,35 629,51 465,65 394,70"/><polygon style="fill:darkgreen;stroke:darkgreen;" points="393,72 386,70 393,68 393,72"/></g></g></g></g>
<!-- navigation controls -->
<g id="navbox">
	<rect x="0" y="0" width="742" height="60"
		 style="fill:rgb(206,207,206);stroke:rgb(0,0,0);stroke-width:1"/>

	<polygon id="pan_right"
        onmouseup="panRight()"
        onmouseover="doHighlight(evt, 'Click to pan to the right')"
        onmouseout="resetHighlight(evt)"
		points="28.0732,13 32,20.5 28.0732,28 28.0732,23.4412 25,23.4412 25,17.4118 28.0732,17.4118"
		 transform="matrix(3.39111 0 0 2.98838 -12.6265 -29.7101)"
         fill="rgb(99,154,206)"
		 style="stroke:rgb(0,0,0);stroke-width:0.5"/>
	<polygon id="pan_left"
        onmouseup="panLeft()"
        onmouseover="doHighlight(evt, 'Click to pan to the left')"
        onmouseout="resetHighlight(evt)"
		points="123.991,25 120.064,32.5 123.991,40 123.991,35.4412 127.064,35.4412 127.064,29.4118
			123.991,29.4118" transform="matrix(3.39111 0 0 2.98838 -404.865 -65.5706)"
         fill="rgb(99,154,206)"
		 style="stroke:rgb(0,0,0);stroke-width:0.5"/>
	<polygon id="pan_down"
        onmouseup="panDown()"
        onmouseover="doHighlight(evt, 'Click to pan down')"
        onmouseout="resetHighlight(evt)"
		points="116.032,32.0408 123.532,35.9678 131.032,32.0408 126.473,32.0408 126.473,28.9678 120.444,28.9678
			120.444,32.0408" transform="matrix(3.39111 0 0 2.98838 -369.822 -50.6287)"
         fill="rgb(99,154,206)"
		 style="stroke:rgb(0,0,0);stroke-width:0.5"/>
	<polygon id="pan_up"
        onmouseup="panUp()"
  onmouseover="doHighlight(evt, 'Click to pan up')"
        onmouseout="resetHighlight(evt)"
		points="116.032,32.0408 123.532,35.9678 131.032,32.0408 126.473,32.0408 126.473,28.9678 120.444,28.9678
			120.444,32.0408" transform="matrix(3.39111 0 0 -2.98838 -369.823 111.74)"
         fill="rgb(99,154,206)"
		 style="stroke:rgb(0,0,0);stroke-width:0.5"/>
	<g id="go_home" 
         onmouseup="panRestore()" 
         onmouseover="doHighlight(evt, 'Click to restore graph to original position')"
         onmouseout="resetHighlight(evt)"
         fill="rgb(99,154,206)"
         transform="matrix(1 0 0 1 0 -0.333333)">
		<rect x="196" y="11" width="26" height="26"
			transform="translate(-19.1111 -2.66667)"
			 style="stroke:rgb(0,0,0);stroke-width:1"/>
		<line x1="182" y1="16" x2="182" y2="28"
			transform="matrix(1 0 0 1 2.22222 0.444444)"
			 style="fill:none;stroke:rgb(0,0,0);stroke-width:2"/>
		<line x1="187" y1="22" x2="187" y2="28"
			transform="matrix(1 0 0 1 2.22222 0.444444)"
			 style="fill:none;stroke:rgb(0,0,0);stroke-width:2"/>
	<line x1="192" y1="13" x2="192" y2="28"
			transform="matrix(1 0 0 1 2.22222 0.444444)"
			 style="fill:none;stroke:rgb(0,0,0);stroke-width:2"/>
		<line x1="182" y1="28" x2="192" y2="28"
			transform="matrix(1 0 0 1 2.22222 0.444444)"
	style="fill:none;stroke:rgb(0,0,0);stroke-width:2"/>
		<line x1="189" y1="12" x2="179" y2="21"
			 style="fill:none;stroke:rgb(0,0,0);stroke-width:2"/>
		<line x1="188" y1="12" x2="199" y2="20"
			 style="fill:none;stroke:rgb(0,0,0);stroke-width:2"/>
	</g>
	<g id="zoom_out" onmouseup="zoomOut()" 
             onmouseover="doHighlight(evt, 'Click to zoom out')"
             onmouseout="resetHighlight(evt)"
             fill="rgb(99,154,206)"
             transform="matrix(1 0 0 1 0 0)">
		<rect x="116" y="8" width="26" height="26"
			 style="stroke:rgb(0,0,0);stroke-width:1"/>
		<ellipse cx="126" cy="18" rx="6" ry="6"
			 style="stroke:rgb(0,0,0);stroke-width:1"/>
		<line x1="130" y1="23" x2="137" y2="29"
			transform="matrix(1 0 0 1 0.888889 -0.888889)"
			 style="fill:none;stroke:rgb(0,0,0);stroke-width:2"/>
		<line x1="123" y1="18" x2="129" y2="18"
			 style="fill:none;stroke:rgb(0,0,0);stroke-width:2"/>
	</g>
	<g id="zoom_in" onmouseup="zoomIn()" 
             onmouseover="doHighlight(evt, 'Click to zoom in')"
             onmouseout="resetHighlight(evt)"
             fill="rgb(99,154,206)"
             transform="matrix(1 0 0 1 0.888889 -0.444444)">
		<rect x="116" y="8" width="26" height="26"
			transform="matrix(1 0 0 1 29.7778 0.444444)"
			 style="stroke:rgb(0,0,0);stroke-width:1"/>
		<ellipse cx="126" cy="18" rx="6" ry="6"
			transform="matrix(1 0 0 1 29.7778 0.444444)"
			 style="stroke:rgb(0,0,0);stroke-width:1"/>
		<line x1="130" y1="23" x2="137" y2="29"
			transform="matrix(1 0 0 1 30.6667 -0.444445)"
		style="fill:none;stroke:rgb(0,0,0);stroke-width:2"/>
		<line x1="123" y1="18" x2="129" y2="18"
			transform="matrix(1 0 0 1 29.7778 0.444444)"
			 style="fill:none;stroke:rgb(0,0,0);stroke-width:2"/>
		<line x1="156" y1="15" x2="156" y2="22"
			 style="fill:none;stroke:rgb(0,0,0);stroke-width:2"/>
	</g>
	<g>
		<rect x="117" y="40" width="452" height="14"
			transform="matrix(1.54201 0 0 1 -64.1436 -0.222222)"
			 style="fill:rgb(192,192,192);stroke:rgb(0,0,0);stroke-width:1"/>
		<text id="status_text" x="183px" y="48px"
			transform="matrix(1 0 0 1 -63.5556 3.00778)"
			 style="fill:rgb(0,0,0);font-size:14;font-family:Arial"> </text>
	</g>
</g>	
</svg>