<?xml version="1.0" encoding="UTF-8" standalone="no"?><!DOCTYPE svg PUBLIC "-//W3C//DTD SVG 1.0//EN" "http://www.w3.org/TR/2001/REC-SVG-20010904/DTD/svg10.dtd" [ <!ATTLIST svg xmlns:xlink CDATA #FIXED "http://www.w3.org/1999/xlink">]><!-- Generated by WinGraphviz version ver1.02.23, 08/01/2003 (08/04/2003)     For user: Avi Ma'ayan   Title: G    Pages: 1 --><svg width="695px" height="180px" xmlns="http://www.w3.org/2000/svg" xmlns:xlink="http://www.w3.org/1999/xlink"><g id="graph0" class="graph" style="font-family:Times New Roman;font-size:18.67;"><title>G</title><g id="node1" class="node"><title>BCAR3</title><a xlink:href="BCAR3.html"><ellipse cx="318" cy="39" rx="50" ry="24" style="fill:turquoise;stroke:turquoise;"/><text text-anchor="middle" x="318" y="46" style="font-family:Times New Roman;"><![CDATA[BCAR3]]></text></a></g><g id="node2" class="node"><title>CRK</title><a xlink:href="CRK.html"><ellipse cx="45" cy="135" rx="38" ry="24" style="fill:turquoise;stroke:turquoise;"/><text text-anchor="middle" x="45" y="142" style="font-family:Times New Roman;"><![CDATA[CRK]]></text></a></g><g id="edge2" class="edge"><title>BCAR3-&gt;CRK</title><path style="fill:none;stroke:#0000ff;" d="M269,53C222,66 154,89 96,111 90,114 85,115 81,118"/><polygon style="fill:#0000ff;stroke:#0000ff;" points="276,54 273,49 266,50 269,55 276,54"/><polygon style="fill:#0000ff;stroke:#0000ff;" points="74,118 77,123 82,121 80,115 74,118"/></g><g id="node4" class="node"><title>RAC1</title><a xlink:href="RAC1.html"><ellipse cx="149" cy="135" rx="41" ry="24" style="fill:turquoise;stroke:turquoise;"/><text text-anchor="middle" x="149" y="142" style="font-family:Times New Roman;"><![CDATA[RAC1]]></text></a></g><g id="edge4" class="edge"><title>BCAR3-&gt;RAC1</title><path style="fill:none;stroke:darkgreen;" d="M286,58C258,74 218,97 189,113"/><polygon style="fill:darkgreen;stroke:darkgreen;" points="191,115 178,118 189,109 191,115"/></g><g id="node6" class="node"><title>HRAS</title><a xlink:href="HRAS.html"><ellipse cx="260" cy="135" rx="45" ry="24" style="fill:turquoise;stroke:turquoise;"/><text text-anchor="middle" x="260" y="142" style="font-family:Times New Roman;"><![CDATA[HRAS]]></text></a></g><g id="edge6" class="edge"><title>BCAR3-&gt;HRAS</title><path style="fill:none;stroke:darkgreen;" d="M305,62C298,73 289,87 281,101"/><polygon style="fill:darkgreen;stroke:darkgreen;" points="284,102 274,111 278,98 284,102"/></g><g id="node8" class="node"><title>BCAR1</title><a xlink:href="BCAR1.html"><ellipse cx="378" cy="135" rx="49" ry="24" style="fill:turquoise;stroke:turquoise;"/><text text-anchor="middle" x="378" y="142" style="font-family:Times New Roman;"><![CDATA[BCAR1]]></text></a></g><g id="edge8" class="edge"><title>BCAR3-&gt;BCAR1</title><path style="fill:none;stroke:#0000ff;" d="M336,67C344,81 353,94 361,107"/><polygon style="fill:#0000ff;stroke:#0000ff;" points="336,61 330,63 333,69 338,66 336,61"/><polygon style="fill:#0000ff;stroke:#0000ff;" points="361,114 366,111 364,106 358,109 361,114"/></g><g id="node10" class="node"><title>NEDD9</title><a xlink:href="NEDD9.html"><ellipse cx="504" cy="135" rx="52" ry="24" style="fill:turquoise;stroke:turquoise;"/><text text-anchor="middle" x="504" y="142" style="font-family:Times New Roman;"><![CDATA[NEDD9]]></text></a></g><g id="edge10" class="edge"><title>BCAR3-&gt;NEDD9</title><path style="fill:none;stroke:#0000ff;" d="M360,59C390,75 432,98 464,114"/><polygon style="fill:#0000ff;stroke:#0000ff;" points="354,54 352,59 358,62 361,57 354,54"/><polygon style="fill:#0000ff;stroke:#0000ff;" points="468,119 470,114 465,111 462,117 468,119"/></g><g id="node12" class="node"><title>PIK3CA</title><a xlink:href="PIK3CA.html"><ellipse cx="633" cy="135" rx="53" ry="24" style="fill:turquoise;stroke:turquoise;"/><text text-anchor="middle" x="633" y="142" style="font-family:Times New Roman;"><![CDATA[PIK3CA]]></text></a></g><g id="edge12" class="edge"><title>BCAR3-&gt;PIK3CA</title><path style="fill:none;stroke:darkgreen;" d="M362,51C413,65 496,89 567,111 571,113 575,114 581,115"/><polygon style="fill:darkgreen;stroke:darkgreen;" points="581,111 591,121 578,118 581,111"/></g></g></svg>