<?xml version="1.0" encoding="UTF-8" standalone="no"?><!DOCTYPE svg PUBLIC "-//W3C//DTD SVG 1.0//EN" "http://www.w3.org/TR/2001/REC-SVG-20010904/DTD/svg10.dtd" [ <!ATTLIST svg xmlns:xlink CDATA #FIXED "http://www.w3.org/1999/xlink">]><!-- Generated by WinGraphviz version ver1.02.23, 08/01/2003 (08/04/2003)     For user: Avi Ma'ayan   Title: G    Pages: 1 --><svg width="210px" height="180px" xmlns="http://www.w3.org/2000/svg" xmlns:xlink="http://www.w3.org/1999/xlink"><g id="graph0" class="graph" style="font-family:Times New Roman;font-size:18.67;"><title>G</title><g id="node1" class="node"><title>CALR</title><a xlink:href="CALR.html"><ellipse cx="108" cy="39" rx="45" ry="24" style="fill:turquoise;stroke:turquoise;"/><text text-anchor="middle" x="108" y="46" style="font-family:Times New Roman;"><![CDATA[CALR]]></text></a></g><g id="node2" class="node"><title>ITGA5</title><a xlink:href="ITGA5.html"><ellipse cx="53" cy="135" rx="46" ry="24" style="fill:turquoise;stroke:turquoise;"/><text text-anchor="middle" x="53" y="142" style="font-family:Times New Roman;"><![CDATA[ITGA5]]></text></a></g><g id="edge2" class="edge"><title>CALR-&gt;ITGA5</title><path style="fill:none;stroke:#0000ff;" d="M92,67C85,81 76,94 69,107"/><polygon style="fill:#0000ff;stroke:#0000ff;" points="97,63 92,61 89,66 94,69 97,63"/><polygon style="fill:#0000ff;stroke:#0000ff;" points="63,111 69,114 72,109 66,106 63,111"/></g><g id="node4" class="node"><title>LRP1</title><a xlink:href="LRP1.html"><ellipse cx="162" cy="135" rx="38" ry="24" style="fill:limegreen;stroke:limegreen;"/><text text-anchor="middle" x="162" y="142" style="font-family:Times New Roman;"><![CDATA[LRP1]]></text></a></g><g id="edge4" class="edge"><title>CALR-&gt;LRP1</title><path style="fill:none;stroke:#0000ff;" d="M124,67C130,81 139,94 146,107"/><polygon style="fill:#0000ff;stroke:#0000ff;" points="124,61 118,63 121,69 126,66 124,61"/><polygon style="fill:#0000ff;stroke:#0000ff;" points="146,114 151,111 149,106 143,109 146,114"/></g></g></svg>