<?xml version="1.0" encoding="UTF-8" standalone="no"?><!DOCTYPE svg PUBLIC "-//W3C//DTD SVG 1.0//EN" "http://www.w3.org/TR/2001/REC-SVG-20010904/DTD/svg10.dtd" [ <!ATTLIST svg xmlns:xlink CDATA #FIXED "http://www.w3.org/1999/xlink">]><!-- Generated by WinGraphviz version ver1.02.23, 08/01/2003 (08/04/2003)     For user: Avi Ma'ayan   Title: G    Pages: 1 --><!--="735px" height="111px" xmlns="http://www.w3.org/2000/svg" --><svg onload="init(evt)" width="735px" height="600px" xmlns="http://www.w3.org/2000/svg" xmlns:xlink="http://www.w3.org/1999/xlink">
<script type="text/ecmascript">
<![CDATA[
var svgDocument;
var zoomAmt;
var xOffset;
var yOffset;
var scale;
var maxScale;
var imageWidth;
var imageHeight;
function init(evt)
{
    svgDocument = evt.getTarget().getOwnerDocument();
    zoomAmt = 0;
    xOffset = 0;
    yOffset = 60;
    scale = 0.8;
    maxScale = 10;
    imageWidth = 742;
    imageHeight = 606;
    panRestore();
    //panUp();
}
function transformMap ()
{
    var obj = svgDocument.getElementById("Pathway");
    var centerX = imageWidth  / 2.0;
    var centerY = imageHeight / 2.0;
    var adjustX = (-centerX * (scale - 0.8)) + xOffset;
    var adjustY = (-centerY * (scale - 0.8)) + yOffset;
    var transParms = 'translate(' + adjustX + ',' + adjustY + ') ';
    transParms += 'scale(' + scale + ')';
    // alert(transParms);
    obj.setAttribute("transform", transParms); 
}
function click_node(id)
{
    var testx = parent.click_node;
    if (typeof(testx) == "function")
    {
		parent.click_node(id);
    }
}
function click_relation(id)
{
    var testx = parent.click_relation;
    if (typeof(testx) == "function")
    {
        parent.click_relation(id);
    }
}
function click_pathway(toId, fromId)
{
    var testx = parent.click_pathway;
    if (typeof(testx) == "function")
    {
	parent.click_pathway(toId, fromId);
    }
}
function check_interpath(evt, pathid)
{
  var obj = evt.getTarget();
  var testx = parent.is_frompath;
  var child = obj.firstChild;
  if (typeof(testx) == "function")
  {
    if (parent.is_frompath(pathid))
    {
      while (child != null)
      {
        if (child.nodeType == 1)
        {
          if ((child.localName == "g") || (child.localName == "polyline"))
          {
            child.setAttribute("style", "fill:none;stroke:red");
          }
          else if (child.localName == "polygon")
          {
            child.setAttribute("style", "fill:red;stroke:red");
          }
        }
        child = child.nextSibling;
      }
    }
  }
}
function set_status (msg)
{
 var obj = svgDocument.getElementById("status_text");
  var child;
 
  child = obj.firstChild;
  if ((child != null) && (child.nodeType == 3))
  {
    if ((msg != null) && (msg.length > 0))
    {
      child.data = msg;
    }
    else
    {
child.data = " ";
    }
  }
}
function zoomIn ()
{
    scale = scale + 0.8;
    if (scale > maxScale)
    {
       scale = maxScale;
    }
    transformMap();
    panUp();
    panUp();
    panUp();
    panUp();
    panUp();
    panUp();
    panUp();
    panUp();
    panUp();
    panUp();
    panUp();
    panUp();
}
function zoomOut ()
{
    scale = scale - 0.8;
    if (scale < 0.8)
    {
       scale = 0.8;
    }
    transformMap();
    panDown();
    panDown();
    panDown();
    panDown();
    panDown();
    panDown();
    panDown();
    panDown();
    panDown();
    panDown();
    panDown();
    panDown();
}
function panUp ()
{
    yOffset = yOffset + 20;
    transformMap();
}
function panDown ()
{
    yOffset = yOffset - 20;
    transformMap();
}
function panLeft ()
{
    xOffset = xOffset + 20;
    transformMap();
}
function panRight ()
{
    xOffset = xOffset - 20;
    transformMap();
}
function panRestore ()
{
    xOffset = 0;
    yOffset = 0;
    scale = 0.5;
    //obj = svgDocument.getElementById("zoom");
    //obj.setAttribute("x1", 0);
    //obj.setAttribute("x2", 0);
    transformMap();    
}
function doHighlight (evt, msg)
{
  var obj = evt.getTarget();
  obj.setAttribute("fill", "rgb(239,24,33)");
  set_status(msg);
}
function resetHighlight (evt)
{
  var obj = evt.getTarget();
  obj.setAttribute("fill", "rgb(99,154,206)");
  set_status(" ");
}
// ]]>
</script>
<defs>
<clipPath id="theClip">
<polygon points="1 61, 741 61, 741 665, 1 665"
style="fill: none;"/>
</clipPath>
</defs>
<!-- viewport outline -->
<rect x="0" y="61" width="742" height="606"
style="stroke: black; stroke-width: 1; fill: none;"/>
<!-- pathway graph style="clip-path: url(#theClip);" -->
<g style="clip-path: url(#theClip);">
<g id="Pathway"  transform="translate(0,60)">
<!-- prefile.include ends, begin pathway graph -->
<g id="stkecm;CMP_10705" class="graph">
</g>
<g id="graph0" class="graph" style="font-family:Times New Roman;font-size:6.92;"><title>G</title><g id="node1" class="node"><title>CAPN1</title><a xlink:href="CAPN1.html"><ellipse cx="350" cy="52" rx="18" ry="8" style="fill:turquoise;stroke:turquoise;"/><text text-anchor="middle" x="350" y="55" style="font-family:Times New Roman;"><![CDATA[CAPN1]]></text></a></g><g id="node2" class="node"><title>PRKCA</title><a xlink:href="PRKCA.html"><ellipse cx="26" cy="88" rx="19" ry="8" style="fill:turquoise;stroke:turquoise;"/><text text-anchor="middle" x="26" y="90" style="font-family:Times New Roman;"><![CDATA[PRKCA]]></text></a></g><g id="edge2" class="edge"><title>CAPN1-&gt;PRKCA</title><path style="fill:none;stroke:#ff0000;" d="M332,53C274,56 101,67 46,79"/><polyline style="fill:none;stroke:#ff0000;" points="45,76 47,83 "/></g><g id="node4" class="node"><title>ACTN1</title><a xlink:href="ACTN1.html"><ellipse cx="73" cy="88" rx="18" ry="8" style="fill:turquoise;stroke:turquoise;"/><text text-anchor="middle" x="73" y="90" style="font-family:Times New Roman;"><![CDATA[ACTN1]]></text></a></g><g id="edge4" class="edge"><title>CAPN1-&gt;ACTN1</title><path style="fill:none;stroke:#ff0000;" d="M332,54C281,57 141,68 96,79 95,80 94,80 93,80"/><polyline style="fill:none;stroke:#ff0000;" points="93,76 95,84 "/></g><g id="node6" class="node"><title>CTTN</title><a xlink:href="CTTN.html"><ellipse cx="116" cy="88" rx="16" ry="8" style="fill:turquoise;stroke:turquoise;"/><text text-anchor="middle" x="116" y="90" style="font-family:Times New Roman;"><![CDATA[CTTN]]></text></a></g><g id="edge6" class="edge"><title>CAPN1-&gt;CTTN</title><path style="fill:none;stroke:#ff0000;" d="M332,53C294,54 207,60 137,79 137,80 136,80 135,80"/><polyline style="fill:none;stroke:#ff0000;" points="135,76 137,84 "/></g><g id="node8" class="node"><title>VIL2</title><a xlink:href="VIL2.html"><ellipse cx="156" cy="88" rx="14" ry="8" style="fill:turquoise;stroke:turquoise;"/><text text-anchor="middle" x="156" y="90" style="font-family:Times New Roman;"><![CDATA[VIL2]]></text></a></g><g id="edge8" class="edge"><title>CAPN1-&gt;VIL2</title><path style="fill:none;stroke:#ff0000;" d="M332,53C299,56 231,62 175,79 174,79 174,80 173,80"/><polyline style="fill:none;stroke:#ff0000;" points="172,76 175,83 "/></g><g id="node10" class="node"><title>PTK2</title><a xlink:href="PTK2.html"><ellipse cx="195" cy="88" rx="15" ry="8" style="fill:turquoise;stroke:turquoise;"/><text text-anchor="middle" x="195" y="90" style="font-family:Times New Roman;"><![CDATA[PTK2]]></text></a></g><g id="edge10" class="edge"><title>CAPN1-&gt;PTK2</title><path style="fill:none;stroke:#ff0000;" d="M332,55C306,58 256,66 214,79 214,79 213,80 213,80"/><polyline style="fill:none;stroke:#ff0000;" points="212,76 215,83 "/></g><g id="node12" class="node"><title>FLNA</title><a xlink:href="FLNA.html"><ellipse cx="236" cy="88" rx="16" ry="8" style="fill:turquoise;stroke:turquoise;"/><text text-anchor="middle" x="236" y="90" style="font-family:Times New Roman;"><![CDATA[FLNA]]></text></a></g><g id="edge12" class="edge"><title>CAPN1-&gt;FLNA</title><path style="fill:none;stroke:#ff0000;" d="M334,56C315,61 284,70 257,79 256,80 255,80 255,80"/><polyline style="fill:none;stroke:#ff0000;" points="254,77 257,84 "/></g><g id="node14" class="node"><title>ITGB1</title><a xlink:href="ITGB1.html"><ellipse cx="278" cy="88" rx="16" ry="8" style="fill:turquoise;stroke:turquoise;"/><text text-anchor="middle" x="278" y="90" style="font-family:Times New Roman;"><![CDATA[ITGB1]]></text></a></g><g id="edge14" class="edge"><title>CAPN1-&gt;ITGB1</title><path style="fill:none;stroke:#ff0000;" d="M337,59C326,64 309,73 296,79"/><polyline style="fill:none;stroke:#ff0000;" points="295,76 298,82 "/></g><g id="node16" class="node"><title>MARCKS</title><a xlink:href="MARCKS.html"><ellipse cx="327" cy="88" rx="23" ry="8" style="fill:turquoise;stroke:turquoise;"/><text text-anchor="middle" x="327" y="90" style="font-family:Times New Roman;"><![CDATA[MARCKS]]></text></a></g><g id="edge16" class="edge"><title>CAPN1-&gt;MARCKS</title><path style="fill:none;stroke:#ff0000;" d="M344,61C342,65 339,69 336,73"/><polyline style="fill:none;stroke:#ff0000;" points="333,71 339,75 "/></g><g id="node18" class="node"><title>PXN</title><a xlink:href="PXN.html"><ellipse cx="374" cy="88" rx="14" ry="8" style="fill:turquoise;stroke:turquoise;"/><text text-anchor="middle" x="374" y="90" style="font-family:Times New Roman;"><![CDATA[PXN]]></text></a></g><g id="edge18" class="edge"><title>CAPN1-&gt;PXN</title><path style="fill:none;stroke:#ff0000;" d="M356,61C358,65 361,69 364,74"/><polyline style="fill:none;stroke:#ff0000;" points="361,76 367,71 "/></g><g id="node20" class="node"><title>ARHGEF6</title><a xlink:href="ARHGEF6.html"><ellipse cx="422" cy="88" rx="24" ry="8" style="fill:turquoise;stroke:turquoise;"/><text text-anchor="middle" x="422" y="90" style="font-family:Times New Roman;"><![CDATA[ARHGEF6]]></text></a></g><g id="edge20" class="edge"><title>CAPN1-&gt;ARHGEF6</title><path style="fill:none;stroke:#0000ff;" d="M365,60C377,66 393,74 405,80"/><polygon style="fill:#0000ff;stroke:#0000ff;" points="363,58 362,60 365,61 366,59 363,58"/><polygon style="fill:#0000ff;stroke:#0000ff;" points="406,82 407,80 405,79 404,81 406,82"/></g><g id="node22" class="node"><title>PTPN1</title><a xlink:href="PTPN1.html"><ellipse cx="472" cy="88" rx="16" ry="8" style="fill:turquoise;stroke:turquoise;"/><text text-anchor="middle" x="472" y="90" style="font-family:Times New Roman;"><![CDATA[PTPN1]]></text></a></g><g id="edge22" class="edge"><title>CAPN1-&gt;PTPN1</title><path style="fill:none;stroke:#ff0000;" d="M367,56C387,61 422,69 451,79 451,80 452,80 453,80"/><polyline style="fill:none;stroke:#ff0000;" points="451,84 454,77 "/></g><g id="node24" class="node"><title>RHOA</title><a xlink:href="RHOA.html"><ellipse cx="516" cy="88" rx="17" ry="8" style="fill:turquoise;stroke:turquoise;"/><text text-anchor="middle" x="516" y="90" style="font-family:Times New Roman;"><![CDATA[RHOA]]></text></a></g><g id="edge24" class="edge"><title>CAPN1-&gt;RHOA</title><path style="fill:none;stroke:#ff0000;" d="M368,55C395,58 449,66 493,79 494,80 495,80 495,80"/><polyline style="fill:none;stroke:#ff0000;" points="493,84 496,76 "/></g><g id="node26" class="node"><title>PTPN6</title><a xlink:href="PTPN6.html"><ellipse cx="560" cy="88" rx="17" ry="8" style="fill:turquoise;stroke:turquoise;"/><text text-anchor="middle" x="560" y="90" style="font-family:Times New Roman;"><![CDATA[PTPN6]]></text></a></g><g id="edge26" class="edge"><title>CAPN1-&gt;PTPN6</title><path style="fill:none;stroke:#ff0000;" d="M368,53C402,56 477,63 538,79 538,79 539,80 539,80"/><polyline style="fill:none;stroke:#ff0000;" points="538,83 540,76 "/></g><g id="node28" class="node"><title>SRC</title><a xlink:href="SRC.html"><ellipse cx="600" cy="88" rx="13" ry="8" style="fill:turquoise;stroke:turquoise;"/><text text-anchor="middle" x="600" y="90" style="font-family:Times New Roman;"><![CDATA[SRC]]></text></a></g><g id="edge28" class="edge"><title>CAPN1-&gt;SRC</title><path style="fill:none;stroke:#ff0000;" d="M368,54C416,57 542,68 582,79 582,79 583,79 583,79"/><polyline style="fill:none;stroke:#ff0000;" points="581,83 584,76 "/></g><g id="node30" class="node"><title>TLN1</title><a xlink:href="TLN1.html"><ellipse cx="637" cy="88" rx="14" ry="8" style="fill:turquoise;stroke:turquoise;"/><text text-anchor="middle" x="637" y="90" style="font-family:Times New Roman;"><![CDATA[TLN1]]></text></a></g><g id="edge30" class="edge"><title>CAPN1-&gt;TLN1</title><path style="fill:none;stroke:#ff0000;" d="M368,53C421,57 570,67 618,79 618,79 619,80 619,80"/><polyline style="fill:none;stroke:#ff0000;" points="617,83 620,76 "/></g><g id="node32" class="node"><title>TNS1</title><a xlink:href="TNS1.html"><ellipse cx="675" cy="88" rx="14" ry="8" style="fill:turquoise;stroke:turquoise;"/><text text-anchor="middle" x="675" y="90" style="font-family:Times New Roman;"><![CDATA[TNS1]]></text></a></g><g id="edge32" class="edge"><title>CAPN1-&gt;TNS1</title><path style="fill:none;stroke:#ff0000;" d="M368,53C426,56 602,64 656,79 657,79 657,80 658,80"/><polyline style="fill:none;stroke:#ff0000;" points="656,83 659,76 "/></g><g id="node34" class="node"><title>VCL</title><a xlink:href="VCL.html"><ellipse cx="712" cy="88" rx="13" ry="8" style="fill:turquoise;stroke:turquoise;"/><text text-anchor="middle" x="712" y="90" style="font-family:Times New Roman;"><![CDATA[VCL]]></text></a></g><g id="edge34" class="edge"><title>CAPN1-&gt;VCL</title><path style="fill:none;stroke:#ff0000;" d="M368,53C430,55 632,62 694,79 695,79 695,80 696,80"/><polyline style="fill:none;stroke:#ff0000;" points="694,83 696,76 "/></g><g id="edge40" class="edge"><title>PRKCA-&gt;CAPN1</title><path style="fill:none;stroke:darkgreen;" d="M327,54C268,57 107,68 55,79 51,80 47,82 42,83"/><polygon style="fill:darkgreen;stroke:darkgreen;" points="327,53 332,53 327,55 327,53"/></g><g id="node36" class="node"><title>MAPK1</title><a xlink:href="MAPK1.html"><ellipse cx="298" cy="17" rx="19" ry="8" style="fill:turquoise;stroke:turquoise;"/><text text-anchor="middle" x="298" y="19" style="font-family:Times New Roman;"><![CDATA[MAPK1]]></text></a></g><g id="edge36" class="edge"><title>MAPK1-&gt;CAPN1</title><path style="fill:none;stroke:darkgreen;" d="M309,24C317,29 327,37 336,42"/><polygon style="fill:darkgreen;stroke:darkgreen;" points="336,41 339,45 335,43 336,41"/></g><g id="node38" class="node"><title>PRKACA</title><a xlink:href="PRKACA.html"><ellipse cx="350" cy="17" rx="23" ry="8" style="fill:turquoise;stroke:turquoise;"/><text text-anchor="middle" x="350" y="19" style="font-family:Times New Roman;"><![CDATA[PRKACA]]></text></a></g><g id="edge38" class="edge"><title>PRKACA-&gt;CAPN1</title><path style="fill:none;stroke:darkgreen;" d="M350,26C350,30 350,34 350,39"/><polygon style="fill:darkgreen;stroke:darkgreen;" points="351,39 350,43 349,39 351,39"/></g><g id="node41" class="node"><title>CALCIUM</title><a xlink:href="CALCIUM.html"><ellipse cx="407" cy="17" rx="25" ry="8" style="fill:turquoise;stroke:turquoise;"/><text text-anchor="middle" x="407" y="19" style="font-family:Times New Roman;"><![CDATA[CALCIUM]]></text></a></g><g id="edge42" class="edge"><title>CALCIUM-&gt;CAPN1</title><path style="fill:none;stroke:darkgreen;" d="M395,25C386,30 374,38 365,43"/><polygon style="fill:darkgreen;stroke:darkgreen;" points="366,44 361,45 365,42 366,44"/></g></g></g></g>
<!-- navigation controls -->
<g id="navbox">
	<rect x="0" y="0" width="742" height="60"
		 style="fill:rgb(206,207,206);stroke:rgb(0,0,0);stroke-width:1"/>

	<polygon id="pan_right"
        onmouseup="panRight()"
        onmouseover="doHighlight(evt, 'Click to pan to the right')"
        onmouseout="resetHighlight(evt)"
		points="28.0732,13 32,20.5 28.0732,28 28.0732,23.4412 25,23.4412 25,17.4118 28.0732,17.4118"
		 transform="matrix(3.39111 0 0 2.98838 -12.6265 -29.7101)"
         fill="rgb(99,154,206)"
		 style="stroke:rgb(0,0,0);stroke-width:0.5"/>
	<polygon id="pan_left"
        onmouseup="panLeft()"
        onmouseover="doHighlight(evt, 'Click to pan to the left')"
        onmouseout="resetHighlight(evt)"
		points="123.991,25 120.064,32.5 123.991,40 123.991,35.4412 127.064,35.4412 127.064,29.4118
			123.991,29.4118" transform="matrix(3.39111 0 0 2.98838 -404.865 -65.5706)"
         fill="rgb(99,154,206)"
		 style="stroke:rgb(0,0,0);stroke-width:0.5"/>
	<polygon id="pan_down"
        onmouseup="panDown()"
        onmouseover="doHighlight(evt, 'Click to pan down')"
        onmouseout="resetHighlight(evt)"
		points="116.032,32.0408 123.532,35.9678 131.032,32.0408 126.473,32.0408 126.473,28.9678 120.444,28.9678
			120.444,32.0408" transform="matrix(3.39111 0 0 2.98838 -369.822 -50.6287)"
         fill="rgb(99,154,206)"
		 style="stroke:rgb(0,0,0);stroke-width:0.5"/>
	<polygon id="pan_up"
        onmouseup="panUp()"
  onmouseover="doHighlight(evt, 'Click to pan up')"
        onmouseout="resetHighlight(evt)"
		points="116.032,32.0408 123.532,35.9678 131.032,32.0408 126.473,32.0408 126.473,28.9678 120.444,28.9678
			120.444,32.0408" transform="matrix(3.39111 0 0 -2.98838 -369.823 111.74)"
         fill="rgb(99,154,206)"
		 style="stroke:rgb(0,0,0);stroke-width:0.5"/>
	<g id="go_home" 
         onmouseup="panRestore()" 
         onmouseover="doHighlight(evt, 'Click to restore graph to original position')"
         onmouseout="resetHighlight(evt)"
         fill="rgb(99,154,206)"
         transform="matrix(1 0 0 1 0 -0.333333)">
		<rect x="196" y="11" width="26" height="26"
			transform="translate(-19.1111 -2.66667)"
			 style="stroke:rgb(0,0,0);stroke-width:1"/>
		<line x1="182" y1="16" x2="182" y2="28"
			transform="matrix(1 0 0 1 2.22222 0.444444)"
			 style="fill:none;stroke:rgb(0,0,0);stroke-width:2"/>
		<line x1="187" y1="22" x2="187" y2="28"
			transform="matrix(1 0 0 1 2.22222 0.444444)"
			 style="fill:none;stroke:rgb(0,0,0);stroke-width:2"/>
	<line x1="192" y1="13" x2="192" y2="28"
			transform="matrix(1 0 0 1 2.22222 0.444444)"
			 style="fill:none;stroke:rgb(0,0,0);stroke-width:2"/>
		<line x1="182" y1="28" x2="192" y2="28"
			transform="matrix(1 0 0 1 2.22222 0.444444)"
	style="fill:none;stroke:rgb(0,0,0);stroke-width:2"/>
		<line x1="189" y1="12" x2="179" y2="21"
			 style="fill:none;stroke:rgb(0,0,0);stroke-width:2"/>
		<line x1="188" y1="12" x2="199" y2="20"
			 style="fill:none;stroke:rgb(0,0,0);stroke-width:2"/>
	</g>
	<g id="zoom_out" onmouseup="zoomOut()" 
             onmouseover="doHighlight(evt, 'Click to zoom out')"
             onmouseout="resetHighlight(evt)"
             fill="rgb(99,154,206)"
             transform="matrix(1 0 0 1 0 0)">
		<rect x="116" y="8" width="26" height="26"
			 style="stroke:rgb(0,0,0);stroke-width:1"/>
		<ellipse cx="126" cy="18" rx="6" ry="6"
			 style="stroke:rgb(0,0,0);stroke-width:1"/>
		<line x1="130" y1="23" x2="137" y2="29"
			transform="matrix(1 0 0 1 0.888889 -0.888889)"
			 style="fill:none;stroke:rgb(0,0,0);stroke-width:2"/>
		<line x1="123" y1="18" x2="129" y2="18"
			 style="fill:none;stroke:rgb(0,0,0);stroke-width:2"/>
	</g>
	<g id="zoom_in" onmouseup="zoomIn()" 
             onmouseover="doHighlight(evt, 'Click to zoom in')"
             onmouseout="resetHighlight(evt)"
             fill="rgb(99,154,206)"
             transform="matrix(1 0 0 1 0.888889 -0.444444)">
		<rect x="116" y="8" width="26" height="26"
			transform="matrix(1 0 0 1 29.7778 0.444444)"
			 style="stroke:rgb(0,0,0);stroke-width:1"/>
		<ellipse cx="126" cy="18" rx="6" ry="6"
			transform="matrix(1 0 0 1 29.7778 0.444444)"
			 style="stroke:rgb(0,0,0);stroke-width:1"/>
		<line x1="130" y1="23" x2="137" y2="29"
			transform="matrix(1 0 0 1 30.6667 -0.444445)"
		style="fill:none;stroke:rgb(0,0,0);stroke-width:2"/>
		<line x1="123" y1="18" x2="129" y2="18"
			transform="matrix(1 0 0 1 29.7778 0.444444)"
			 style="fill:none;stroke:rgb(0,0,0);stroke-width:2"/>
		<line x1="156" y1="15" x2="156" y2="22"
			 style="fill:none;stroke:rgb(0,0,0);stroke-width:2"/>
	</g>
	<g>
		<rect x="117" y="40" width="452" height="14"
			transform="matrix(1.54201 0 0 1 -64.1436 -0.222222)"
			 style="fill:rgb(192,192,192);stroke:rgb(0,0,0);stroke-width:1"/>
		<text id="status_text" x="183px" y="48px"
			transform="matrix(1 0 0 1 -63.5556 3.00778)"
			 style="fill:rgb(0,0,0);font-size:14;font-family:Arial"> </text>
	</g>
</g>	
</svg>