<?xml version="1.0" encoding="UTF-8" standalone="no"?><!DOCTYPE svg PUBLIC "-//W3C//DTD SVG 1.0//EN" "http://www.w3.org/TR/2001/REC-SVG-20010904/DTD/svg10.dtd" [ <!ATTLIST svg xmlns:xlink CDATA #FIXED "http://www.w3.org/1999/xlink">]><!-- Generated by WinGraphviz version ver1.02.23, 08/01/2003 (08/04/2003)     For user: Avi Ma'ayan   Title: G    Pages: 1 --><!--="735px" height="155px" xmlns="http://www.w3.org/2000/svg" --><svg onload="init(evt)" width="735px" height="600px" xmlns="http://www.w3.org/2000/svg" xmlns:xlink="http://www.w3.org/1999/xlink">
<script type="text/ecmascript">
<![CDATA[
var svgDocument;
var zoomAmt;
var xOffset;
var yOffset;
var scale;
var maxScale;
var imageWidth;
var imageHeight;
function init(evt)
{
    svgDocument = evt.getTarget().getOwnerDocument();
    zoomAmt = 0;
    xOffset = 0;
    yOffset = 60;
    scale = 0.8;
    maxScale = 10;
    imageWidth = 742;
    imageHeight = 606;
    panRestore();
    //panUp();
}
function transformMap ()
{
    var obj = svgDocument.getElementById("Pathway");
    var centerX = imageWidth  / 2.0;
    var centerY = imageHeight / 2.0;
    var adjustX = (-centerX * (scale - 0.8)) + xOffset;
    var adjustY = (-centerY * (scale - 0.8)) + yOffset;
    var transParms = 'translate(' + adjustX + ',' + adjustY + ') ';
    transParms += 'scale(' + scale + ')';
    // alert(transParms);
    obj.setAttribute("transform", transParms); 
}
function click_node(id)
{
    var testx = parent.click_node;
    if (typeof(testx) == "function")
    {
		parent.click_node(id);
    }
}
function click_relation(id)
{
    var testx = parent.click_relation;
    if (typeof(testx) == "function")
    {
        parent.click_relation(id);
    }
}
function click_pathway(toId, fromId)
{
    var testx = parent.click_pathway;
    if (typeof(testx) == "function")
    {
	parent.click_pathway(toId, fromId);
    }
}
function check_interpath(evt, pathid)
{
  var obj = evt.getTarget();
  var testx = parent.is_frompath;
  var child = obj.firstChild;
  if (typeof(testx) == "function")
  {
    if (parent.is_frompath(pathid))
    {
      while (child != null)
      {
        if (child.nodeType == 1)
        {
          if ((child.localName == "g") || (child.localName == "polyline"))
          {
            child.setAttribute("style", "fill:none;stroke:red");
          }
          else if (child.localName == "polygon")
          {
            child.setAttribute("style", "fill:red;stroke:red");
          }
        }
        child = child.nextSibling;
      }
    }
  }
}
function set_status (msg)
{
 var obj = svgDocument.getElementById("status_text");
  var child;
 
  child = obj.firstChild;
  if ((child != null) && (child.nodeType == 3))
  {
    if ((msg != null) && (msg.length > 0))
    {
      child.data = msg;
    }
    else
    {
child.data = " ";
    }
  }
}
function zoomIn ()
{
    scale = scale + 0.8;
    if (scale > maxScale)
    {
       scale = maxScale;
    }
    transformMap();
    panUp();
    panUp();
    panUp();
    panUp();
    panUp();
    panUp();
    panUp();
    panUp();
    panUp();
    panUp();
    panUp();
    panUp();
}
function zoomOut ()
{
    scale = scale - 0.8;
    if (scale < 0.8)
    {
       scale = 0.8;
    }
    transformMap();
    panDown();
    panDown();
    panDown();
    panDown();
    panDown();
    panDown();
    panDown();
    panDown();
    panDown();
    panDown();
    panDown();
    panDown();
}
function panUp ()
{
    yOffset = yOffset + 20;
    transformMap();
}
function panDown ()
{
    yOffset = yOffset - 20;
    transformMap();
}
function panLeft ()
{
    xOffset = xOffset + 20;
    transformMap();
}
function panRight ()
{
    xOffset = xOffset - 20;
    transformMap();
}
function panRestore ()
{
    xOffset = 0;
    yOffset = 0;
    scale = 0.5;
    //obj = svgDocument.getElementById("zoom");
    //obj.setAttribute("x1", 0);
    //obj.setAttribute("x2", 0);
    transformMap();    
}
function doHighlight (evt, msg)
{
  var obj = evt.getTarget();
  obj.setAttribute("fill", "rgb(239,24,33)");
  set_status(msg);
}
function resetHighlight (evt)
{
  var obj = evt.getTarget();
  obj.setAttribute("fill", "rgb(99,154,206)");
  set_status(" ");
}
// ]]>
</script>
<defs>
<clipPath id="theClip">
<polygon points="1 61, 741 61, 741 665, 1 665"
style="fill: none;"/>
</clipPath>
</defs>
<!-- viewport outline -->
<rect x="0" y="61" width="742" height="606"
style="stroke: black; stroke-width: 1; fill: none;"/>
<!-- pathway graph style="clip-path: url(#theClip);" -->
<g style="clip-path: url(#theClip);">
<g id="Pathway"  transform="translate(0,60)">
<!-- prefile.include ends, begin pathway graph -->
<g id="stkecm;CMP_10705" class="graph">
</g>
<g id="graph0" class="graph" style="font-family:Times New Roman;font-size:10.06;"><title>G</title><g id="node1" class="node"><title>ABL1</title><a xlink:href="ABL1.html"><ellipse cx="335" cy="23" rx="21" ry="12" style="fill:turquoise;stroke:turquoise;"/><text text-anchor="middle" x="335" y="26" style="font-family:Times New Roman;"><![CDATA[ABL1]]></text></a></g><g id="node2" class="node"><title>CAV1</title><a xlink:href="CAV1.html"><ellipse cx="361" cy="74" rx="22" ry="12" style="fill:turquoise;stroke:turquoise;"/><text text-anchor="middle" x="361" y="78" style="font-family:Times New Roman;"><![CDATA[CAV1]]></text></a></g><g id="edge2" class="edge"><title>ABL1-&gt;CAV1</title><path style="fill:none;stroke:darkgreen;" d="M341,35C345,41 348,49 352,56"/><polygon style="fill:darkgreen;stroke:darkgreen;" points="353,55 355,62 350,56 353,55"/></g><g id="node4" class="node"><title>CSK</title><a xlink:href="CSK.html"><ellipse cx="26" cy="126" rx="19" ry="12" style="fill:turquoise;stroke:turquoise;"/><text text-anchor="middle" x="26" y="130" style="font-family:Times New Roman;"><![CDATA[CSK]]></text></a></g><g id="edge4" class="edge"><title>CAV1-&gt;CSK</title><path style="fill:none;stroke:#0000ff;" d="M335,77C270,82 105,97 51,113 49,114 46,115 44,116"/><polygon style="fill:#0000ff;stroke:#0000ff;" points="338,78 338,74 335,74 335,78 338,78"/><polygon style="fill:#0000ff;stroke:#0000ff;" points="40,116 41,119 44,118 43,115 40,116"/></g><g id="node6" class="node"><title>DNM2</title><a xlink:href="DNM2.html"><ellipse cx="84" cy="126" rx="25" ry="12" style="fill:turquoise;stroke:turquoise;"/><text text-anchor="middle" x="84" y="130" style="font-family:Times New Roman;"><![CDATA[DNM2]]></text></a></g><g id="edge6" class="edge"><title>CAV1-&gt;DNM2</title><path style="fill:none;stroke:#0000ff;" d="M335,77C289,82 194,92 116,113 113,115 110,115 107,117"/><polygon style="fill:#0000ff;stroke:#0000ff;" points="338,78 338,74 335,74 335,78 338,78"/><polygon style="fill:#0000ff;stroke:#0000ff;" points="103,116 105,119 108,118 107,115 103,116"/></g><g id="node8" class="node"><title>FLNA</title><a xlink:href="FLNA.html"><ellipse cx="147" cy="126" rx="24" ry="12" style="fill:turquoise;stroke:turquoise;"/><text text-anchor="middle" x="147" y="130" style="font-family:Times New Roman;"><![CDATA[FLNA]]></text></a></g><g id="edge8" class="edge"><title>CAV1-&gt;FLNA</title><path style="fill:none;stroke:#0000ff;" d="M335,79C300,84 233,97 178,113 175,115 172,115 169,117"/><polygon style="fill:#0000ff;stroke:#0000ff;" points="339,79 339,77 335,77 335,80 339,79"/><polygon style="fill:#0000ff;stroke:#0000ff;" points="165,117 166,120 169,118 168,115 165,117"/></g><g id="node10" class="node"><title>GRB7</title><a xlink:href="GRB7.html"><ellipse cx="208" cy="126" rx="23" ry="12" style="fill:turquoise;stroke:turquoise;"/><text text-anchor="middle" x="208" y="130" style="font-family:Times New Roman;"><![CDATA[GRB7]]></text></a></g><g id="edge10" class="edge"><title>CAV1-&gt;GRB7</title><path style="fill:none;stroke:#0000ff;" d="M337,81C312,89 273,101 238,113 235,115 233,116 230,117"/><polygon style="fill:#0000ff;stroke:#0000ff;" points="340,82 340,79 337,79 337,82 340,82"/><polygon style="fill:#0000ff;stroke:#0000ff;" points="226,117 227,120 230,118 229,115 226,117"/></g><g id="node12" class="node"><title>KCNH2</title><a xlink:href="KCNH2.html"><ellipse cx="273" cy="126" rx="28" ry="12" style="fill:turquoise;stroke:turquoise;"/><text text-anchor="middle" x="273" y="130" style="font-family:Times New Roman;"><![CDATA[KCNH2]]></text></a></g><g id="edge12" class="edge"><title>CAV1-&gt;KCNH2</title><path style="fill:none;stroke:#0000ff;" d="M342,86C327,95 308,106 294,115"/><polygon style="fill:#0000ff;stroke:#0000ff;" points="346,85 345,82 342,84 343,87 346,85"/><polygon style="fill:#0000ff;stroke:#0000ff;" points="291,115 292,118 295,116 294,113 291,115"/></g><g id="node14" class="node"><title>ILK</title><a xlink:href="ILK.html"><ellipse cx="335" cy="126" rx="19" ry="12" style="fill:turquoise;stroke:turquoise;"/><text text-anchor="middle" x="335" y="130" style="font-family:Times New Roman;"><![CDATA[ILK]]></text></a></g><g id="edge14" class="edge"><title>CAV1-&gt;ILK</title><path style="fill:none;stroke:#0000ff;" d="M353,90C350,97 346,104 342,111"/><polygon style="fill:#0000ff;stroke:#0000ff;" points="356,87 353,86 352,89 355,90 356,87"/><polygon style="fill:#0000ff;stroke:#0000ff;" points="340,113 342,115 344,112 341,110 340,113"/></g><g id="node16" class="node"><title>INSR</title><a xlink:href="INSR.html"><ellipse cx="388" cy="126" rx="21" ry="12" style="fill:turquoise;stroke:turquoise;"/><text text-anchor="middle" x="388" y="130" style="font-family:Times New Roman;"><![CDATA[INSR]]></text></a></g><g id="edge16" class="edge"><title>CAV1-&gt;INSR</title><path style="fill:none;stroke:#0000ff;" d="M369,90C373,97 377,104 381,111"/><polygon style="fill:#0000ff;stroke:#0000ff;" points="369,86 366,87 368,90 370,89 369,86"/><polygon style="fill:#0000ff;stroke:#0000ff;" points="381,115 383,113 382,110 379,112 381,115"/></g><g id="node18" class="node"><title>NF2</title><a xlink:href="NF2.html"><ellipse cx="442" cy="126" rx="19" ry="12" style="fill:turquoise;stroke:turquoise;"/><text text-anchor="middle" x="442" y="130" style="font-family:Times New Roman;"><![CDATA[NF2]]></text></a></g><g id="edge18" class="edge"><title>CAV1-&gt;NF2</title><path style="fill:none;stroke:#0000ff;" d="M380,87C393,95 411,107 425,115"/><polygon style="fill:#0000ff;stroke:#0000ff;" points="377,83 376,86 378,88 380,85 377,83"/><polygon style="fill:#0000ff;stroke:#0000ff;" points="427,118 429,115 426,114 424,117 427,118"/></g><g id="node20" class="node"><title>PPP2CA</title><a xlink:href="PPP2CA.html"><ellipse cx="504" cy="126" rx="29" ry="12" style="fill:turquoise;stroke:turquoise;"/><text text-anchor="middle" x="504" y="130" style="font-family:Times New Roman;"><![CDATA[PPP2CA]]></text></a></g><g id="edge20" class="edge"><title>CAV1-&gt;PPP2CA</title><path style="fill:none;stroke:#ff0000;" d="M381,82C404,90 444,105 473,115"/><polyline style="fill:none;stroke:#ff0000;" points="469,119 473,109 "/></g><g id="node22" class="node"><title>PTEN</title><a xlink:href="PTEN.html"><ellipse cx="570" cy="126" rx="23" ry="12" style="fill:turquoise;stroke:turquoise;"/><text text-anchor="middle" x="570" y="130" style="font-family:Times New Roman;"><![CDATA[PTEN]]></text></a></g><g id="edge22" class="edge"><title>CAV1-&gt;PTEN</title><path style="fill:none;stroke:#0000ff;" d="M387,79C422,84 486,97 540,113 543,115 546,115 549,117"/><polygon style="fill:#0000ff;stroke:#0000ff;" points="383,77 383,79 387,80 387,77 383,77"/><polygon style="fill:#0000ff;stroke:#0000ff;" points="551,120 552,117 549,115 548,118 551,120"/></g><g id="node24" class="node"><title>PTPN1</title><a xlink:href="PTPN1.html"><ellipse cx="631" cy="126" rx="24" ry="12" style="fill:turquoise;stroke:turquoise;"/><text text-anchor="middle" x="631" y="130" style="font-family:Times New Roman;"><![CDATA[PTPN1]]></text></a></g><g id="edge24" class="edge"><title>CAV1-&gt;PTPN1</title><path style="fill:none;stroke:#0000ff;" d="M388,77C432,81 525,92 600,113 603,115 607,115 610,117"/><polygon style="fill:#0000ff;stroke:#0000ff;" points="384,74 384,78 388,78 388,74 384,74"/><polygon style="fill:#0000ff;stroke:#0000ff;" points="612,119 613,116 610,115 608,118 612,119"/></g><g id="node26" class="node"><title>PLAUR</title><a xlink:href="PLAUR.html"><ellipse cx="697" cy="126" rx="28" ry="12" style="fill:limegreen;stroke:limegreen;"/><text text-anchor="middle" x="697" y="130" style="font-family:Times New Roman;"><![CDATA[PLAUR]]></text></a></g><g id="edge26" class="edge"><title>CAV1-&gt;PLAUR</title><path style="fill:none;stroke:#0000ff;" d="M388,76C440,79 562,90 662,113 666,115 669,115 673,117"/><polygon style="fill:#0000ff;stroke:#0000ff;" points="384,74 384,77 388,77 388,74 384,74"/><polygon style="fill:#0000ff;stroke:#0000ff;" points="675,119 677,116 673,115 672,118 675,119"/></g><g id="node28" class="node"><title>SRC</title><a xlink:href="SRC.html"><ellipse cx="388" cy="23" rx="19" ry="12" style="fill:turquoise;stroke:turquoise;"/><text text-anchor="middle" x="388" y="26" style="font-family:Times New Roman;"><![CDATA[SRC]]></text></a></g><g id="edge28" class="edge"><title>SRC-&gt;CAV1</title><path style="fill:none;stroke:darkgreen;" d="M382,35C378,41 375,49 371,56"/><polygon style="fill:darkgreen;stroke:darkgreen;" points="373,56 368,61 370,54 373,56"/></g></g></g></g>
<!-- navigation controls -->
<g id="navbox">
	<rect x="0" y="0" width="742" height="60"
		 style="fill:rgb(206,207,206);stroke:rgb(0,0,0);stroke-width:1"/>

	<polygon id="pan_right"
        onmouseup="panRight()"
        onmouseover="doHighlight(evt, 'Click to pan to the right')"
        onmouseout="resetHighlight(evt)"
		points="28.0732,13 32,20.5 28.0732,28 28.0732,23.4412 25,23.4412 25,17.4118 28.0732,17.4118"
		 transform="matrix(3.39111 0 0 2.98838 -12.6265 -29.7101)"
         fill="rgb(99,154,206)"
		 style="stroke:rgb(0,0,0);stroke-width:0.5"/>
	<polygon id="pan_left"
        onmouseup="panLeft()"
        onmouseover="doHighlight(evt, 'Click to pan to the left')"
        onmouseout="resetHighlight(evt)"
		points="123.991,25 120.064,32.5 123.991,40 123.991,35.4412 127.064,35.4412 127.064,29.4118
			123.991,29.4118" transform="matrix(3.39111 0 0 2.98838 -404.865 -65.5706)"
         fill="rgb(99,154,206)"
		 style="stroke:rgb(0,0,0);stroke-width:0.5"/>
	<polygon id="pan_down"
        onmouseup="panDown()"
        onmouseover="doHighlight(evt, 'Click to pan down')"
        onmouseout="resetHighlight(evt)"
		points="116.032,32.0408 123.532,35.9678 131.032,32.0408 126.473,32.0408 126.473,28.9678 120.444,28.9678
			120.444,32.0408" transform="matrix(3.39111 0 0 2.98838 -369.822 -50.6287)"
         fill="rgb(99,154,206)"
		 style="stroke:rgb(0,0,0);stroke-width:0.5"/>
	<polygon id="pan_up"
        onmouseup="panUp()"
  onmouseover="doHighlight(evt, 'Click to pan up')"
        onmouseout="resetHighlight(evt)"
		points="116.032,32.0408 123.532,35.9678 131.032,32.0408 126.473,32.0408 126.473,28.9678 120.444,28.9678
			120.444,32.0408" transform="matrix(3.39111 0 0 -2.98838 -369.823 111.74)"
         fill="rgb(99,154,206)"
		 style="stroke:rgb(0,0,0);stroke-width:0.5"/>
	<g id="go_home" 
         onmouseup="panRestore()" 
         onmouseover="doHighlight(evt, 'Click to restore graph to original position')"
         onmouseout="resetHighlight(evt)"
         fill="rgb(99,154,206)"
         transform="matrix(1 0 0 1 0 -0.333333)">
		<rect x="196" y="11" width="26" height="26"
			transform="translate(-19.1111 -2.66667)"
			 style="stroke:rgb(0,0,0);stroke-width:1"/>
		<line x1="182" y1="16" x2="182" y2="28"
			transform="matrix(1 0 0 1 2.22222 0.444444)"
			 style="fill:none;stroke:rgb(0,0,0);stroke-width:2"/>
		<line x1="187" y1="22" x2="187" y2="28"
			transform="matrix(1 0 0 1 2.22222 0.444444)"
			 style="fill:none;stroke:rgb(0,0,0);stroke-width:2"/>
	<line x1="192" y1="13" x2="192" y2="28"
			transform="matrix(1 0 0 1 2.22222 0.444444)"
			 style="fill:none;stroke:rgb(0,0,0);stroke-width:2"/>
		<line x1="182" y1="28" x2="192" y2="28"
			transform="matrix(1 0 0 1 2.22222 0.444444)"
	style="fill:none;stroke:rgb(0,0,0);stroke-width:2"/>
		<line x1="189" y1="12" x2="179" y2="21"
			 style="fill:none;stroke:rgb(0,0,0);stroke-width:2"/>
		<line x1="188" y1="12" x2="199" y2="20"
			 style="fill:none;stroke:rgb(0,0,0);stroke-width:2"/>
	</g>
	<g id="zoom_out" onmouseup="zoomOut()" 
             onmouseover="doHighlight(evt, 'Click to zoom out')"
             onmouseout="resetHighlight(evt)"
             fill="rgb(99,154,206)"
             transform="matrix(1 0 0 1 0 0)">
		<rect x="116" y="8" width="26" height="26"
			 style="stroke:rgb(0,0,0);stroke-width:1"/>
		<ellipse cx="126" cy="18" rx="6" ry="6"
			 style="stroke:rgb(0,0,0);stroke-width:1"/>
		<line x1="130" y1="23" x2="137" y2="29"
			transform="matrix(1 0 0 1 0.888889 -0.888889)"
			 style="fill:none;stroke:rgb(0,0,0);stroke-width:2"/>
		<line x1="123" y1="18" x2="129" y2="18"
			 style="fill:none;stroke:rgb(0,0,0);stroke-width:2"/>
	</g>
	<g id="zoom_in" onmouseup="zoomIn()" 
             onmouseover="doHighlight(evt, 'Click to zoom in')"
             onmouseout="resetHighlight(evt)"
             fill="rgb(99,154,206)"
             transform="matrix(1 0 0 1 0.888889 -0.444444)">
		<rect x="116" y="8" width="26" height="26"
			transform="matrix(1 0 0 1 29.7778 0.444444)"
			 style="stroke:rgb(0,0,0);stroke-width:1"/>
		<ellipse cx="126" cy="18" rx="6" ry="6"
			transform="matrix(1 0 0 1 29.7778 0.444444)"
			 style="stroke:rgb(0,0,0);stroke-width:1"/>
		<line x1="130" y1="23" x2="137" y2="29"
			transform="matrix(1 0 0 1 30.6667 -0.444445)"
		style="fill:none;stroke:rgb(0,0,0);stroke-width:2"/>
		<line x1="123" y1="18" x2="129" y2="18"
			transform="matrix(1 0 0 1 29.7778 0.444444)"
			 style="fill:none;stroke:rgb(0,0,0);stroke-width:2"/>
		<line x1="156" y1="15" x2="156" y2="22"
			 style="fill:none;stroke:rgb(0,0,0);stroke-width:2"/>
	</g>
	<g>
		<rect x="117" y="40" width="452" height="14"
			transform="matrix(1.54201 0 0 1 -64.1436 -0.222222)"
			 style="fill:rgb(192,192,192);stroke:rgb(0,0,0);stroke-width:1"/>
		<text id="status_text" x="183px" y="48px"
			transform="matrix(1 0 0 1 -63.5556 3.00778)"
			 style="fill:rgb(0,0,0);font-size:14;font-family:Arial"> </text>
	</g>
</g>	
</svg>