<?xml version="1.0" encoding="UTF-8" standalone="no"?><!DOCTYPE svg PUBLIC "-//W3C//DTD SVG 1.0//EN" "http://www.w3.org/TR/2001/REC-SVG-20010904/DTD/svg10.dtd" [ <!ATTLIST svg xmlns:xlink CDATA #FIXED "http://www.w3.org/1999/xlink">]><!-- Generated by WinGraphviz version ver1.02.23, 08/01/2003 (08/04/2003)     For user: Avi Ma'ayan   Title: G    Pages: 1 --><!--="735px" height="118px" xmlns="http://www.w3.org/2000/svg" --><svg onload="init(evt)" width="735px" height="600px" xmlns="http://www.w3.org/2000/svg" xmlns:xlink="http://www.w3.org/1999/xlink">
<script type="text/ecmascript">
<![CDATA[
var svgDocument;
var zoomAmt;
var xOffset;
var yOffset;
var scale;
var maxScale;
var imageWidth;
var imageHeight;
function init(evt)
{
    svgDocument = evt.getTarget().getOwnerDocument();
    zoomAmt = 0;
    xOffset = 0;
    yOffset = 60;
    scale = 0.8;
    maxScale = 10;
    imageWidth = 742;
    imageHeight = 606;
    panRestore();
    //panUp();
}
function transformMap ()
{
    var obj = svgDocument.getElementById("Pathway");
    var centerX = imageWidth  / 2.0;
    var centerY = imageHeight / 2.0;
    var adjustX = (-centerX * (scale - 0.8)) + xOffset;
    var adjustY = (-centerY * (scale - 0.8)) + yOffset;
    var transParms = 'translate(' + adjustX + ',' + adjustY + ') ';
    transParms += 'scale(' + scale + ')';
    // alert(transParms);
    obj.setAttribute("transform", transParms); 
}
function click_node(id)
{
    var testx = parent.click_node;
    if (typeof(testx) == "function")
    {
		parent.click_node(id);
    }
}
function click_relation(id)
{
    var testx = parent.click_relation;
    if (typeof(testx) == "function")
    {
        parent.click_relation(id);
    }
}
function click_pathway(toId, fromId)
{
    var testx = parent.click_pathway;
    if (typeof(testx) == "function")
    {
	parent.click_pathway(toId, fromId);
    }
}
function check_interpath(evt, pathid)
{
  var obj = evt.getTarget();
  var testx = parent.is_frompath;
  var child = obj.firstChild;
  if (typeof(testx) == "function")
  {
    if (parent.is_frompath(pathid))
    {
      while (child != null)
      {
        if (child.nodeType == 1)
        {
          if ((child.localName == "g") || (child.localName == "polyline"))
          {
            child.setAttribute("style", "fill:none;stroke:red");
          }
          else if (child.localName == "polygon")
          {
            child.setAttribute("style", "fill:red;stroke:red");
          }
        }
        child = child.nextSibling;
      }
    }
  }
}
function set_status (msg)
{
 var obj = svgDocument.getElementById("status_text");
  var child;
 
  child = obj.firstChild;
  if ((child != null) && (child.nodeType == 3))
  {
    if ((msg != null) && (msg.length > 0))
    {
      child.data = msg;
    }
    else
    {
child.data = " ";
    }
  }
}
function zoomIn ()
{
    scale = scale + 0.8;
    if (scale > maxScale)
    {
       scale = maxScale;
    }
    transformMap();
    panUp();
    panUp();
    panUp();
    panUp();
    panUp();
    panUp();
    panUp();
    panUp();
    panUp();
    panUp();
    panUp();
    panUp();
}
function zoomOut ()
{
    scale = scale - 0.8;
    if (scale < 0.8)
    {
       scale = 0.8;
    }
    transformMap();
    panDown();
    panDown();
    panDown();
    panDown();
    panDown();
    panDown();
    panDown();
    panDown();
    panDown();
    panDown();
    panDown();
    panDown();
}
function panUp ()
{
    yOffset = yOffset + 20;
    transformMap();
}
function panDown ()
{
    yOffset = yOffset - 20;
    transformMap();
}
function panLeft ()
{
    xOffset = xOffset + 20;
    transformMap();
}
function panRight ()
{
    xOffset = xOffset - 20;
    transformMap();
}
function panRestore ()
{
    xOffset = 0;
    yOffset = 0;
    scale = 0.5;
    //obj = svgDocument.getElementById("zoom");
    //obj.setAttribute("x1", 0);
    //obj.setAttribute("x2", 0);
    transformMap();    
}
function doHighlight (evt, msg)
{
  var obj = evt.getTarget();
  obj.setAttribute("fill", "rgb(239,24,33)");
  set_status(msg);
}
function resetHighlight (evt)
{
  var obj = evt.getTarget();
  obj.setAttribute("fill", "rgb(99,154,206)");
  set_status(" ");
}
// ]]>
</script>
<defs>
<clipPath id="theClip">
<polygon points="1 61, 741 61, 741 665, 1 665"
style="fill: none;"/>
</clipPath>
</defs>
<!-- viewport outline -->
<rect x="0" y="61" width="742" height="606"
style="stroke: black; stroke-width: 1; fill: none;"/>
<!-- pathway graph style="clip-path: url(#theClip);" -->
<g style="clip-path: url(#theClip);">
<g id="Pathway"  transform="translate(0,60)">
<!-- prefile.include ends, begin pathway graph -->
<g id="stkecm;CMP_10705" class="graph">
</g>
<g id="graph0" class="graph" style="font-family:Times New Roman;font-size:7.39;"><title>G</title><g id="node1" class="node"><title>ABL1</title><a xlink:href="ABL1.html"><ellipse cx="270" cy="18" rx="15" ry="9" style="fill:turquoise;stroke:turquoise;"/><text text-anchor="middle" x="270" y="21" style="font-family:Times New Roman;"><![CDATA[ABL1]]></text></a></g><g id="node2" class="node"><title>CBL</title><a xlink:href="CBL.html"><ellipse cx="404" cy="56" rx="14" ry="9" style="fill:turquoise;stroke:turquoise;"/><text text-anchor="middle" x="404" y="59" style="font-family:Times New Roman;"><![CDATA[CBL]]></text></a></g><g id="edge2" class="edge"><title>ABL1-&gt;CBL</title><path style="fill:none;stroke:darkgreen;" d="M280,25C282,26 283,27 285,28 319,40 361,49 385,53"/><polygon style="fill:darkgreen;stroke:darkgreen;" points="385,51 390,54 385,54 385,51"/></g><g id="edge8" class="edge"><title>CBL-&gt;ABL1</title><path style="fill:none;stroke:#ff0000;" d="M290,26C292,27 293,27 295,28 329,40 369,49 390,53"/><polyline style="fill:none;stroke:#ff0000;" points="292,23 289,30 "/></g><g id="node6" class="node"><title>ITGA5</title><a xlink:href="ITGA5.html"><ellipse cx="25" cy="94" rx="18" ry="9" style="fill:turquoise;stroke:turquoise;"/><text text-anchor="middle" x="25" y="97" style="font-family:Times New Roman;"><![CDATA[ITGA5]]></text></a></g><g id="edge6" class="edge"><title>CBL-&gt;ITGA5</title><path style="fill:none;stroke:#ff0000;" d="M389,57C331,59 115,69 48,85 47,85 46,85 45,85"/><polyline style="fill:none;stroke:#ff0000;" points="44,81 47,89 "/></g><g id="node9" class="node"><title>SH3KBP1</title><a xlink:href="SH3KBP1.html"><ellipse cx="76" cy="94" rx="23" ry="9" style="fill:turquoise;stroke:turquoise;"/><text text-anchor="middle" x="76" y="97" style="font-family:Times New Roman;"><![CDATA[SH3KBP1]]></text></a></g><g id="edge10" class="edge"><title>CBL-&gt;SH3KBP1</title><path style="fill:none;stroke:#0000ff;" d="M387,56C341,57 210,62 104,85 101,86 98,86 95,87"/><polygon style="fill:#0000ff;stroke:#0000ff;" points="389,57 389,55 387,55 387,57 389,57"/><polygon style="fill:#0000ff;stroke:#0000ff;" points="93,87 94,89 96,88 95,86 93,87"/></g><g id="node11" class="node"><title>CRK</title><a xlink:href="CRK.html"><ellipse cx="124" cy="94" rx="15" ry="9" style="fill:turquoise;stroke:turquoise;"/><text text-anchor="middle" x="124" y="97" style="font-family:Times New Roman;"><![CDATA[CRK]]></text></a></g><g id="edge12" class="edge"><title>CBL-&gt;CRK</title><path style="fill:none;stroke:#0000ff;" d="M387,57C337,61 190,72 144,85 142,86 140,86 138,87"/><polygon style="fill:#0000ff;stroke:#0000ff;" points="389,58 389,56 387,56 387,58 389,58"/><polygon style="fill:#0000ff;stroke:#0000ff;" points="135,87 136,89 139,88 138,86 135,87"/></g><g id="node13" class="node"><title>CRKL</title><a xlink:href="CRKL.html"><ellipse cx="167" cy="94" rx="17" ry="9" style="fill:turquoise;stroke:turquoise;"/><text text-anchor="middle" x="167" y="97" style="font-family:Times New Roman;"><![CDATA[CRKL]]></text></a></g><g id="edge14" class="edge"><title>CBL-&gt;CRKL</title><path style="fill:none;stroke:#0000ff;" d="M387,57C350,59 262,66 189,85 187,86 185,86 182,87"/><polygon style="fill:#0000ff;stroke:#0000ff;" points="389,58 389,55 387,55 387,58 389,58"/><polygon style="fill:#0000ff;stroke:#0000ff;" points="180,87 181,89 184,88 182,86 180,87"/></g><g id="node15" class="node"><title>DNM2</title><a xlink:href="DNM2.html"><ellipse cx="213" cy="94" rx="19" ry="9" style="fill:turquoise;stroke:turquoise;"/><text text-anchor="middle" x="213" y="97" style="font-family:Times New Roman;"><![CDATA[DNM2]]></text></a></g><g id="edge16" class="edge"><title>CBL-&gt;DNM2</title><path style="fill:none;stroke:#0000ff;" d="M387,58C357,61 291,70 237,85 234,86 232,86 230,87"/><polygon style="fill:#0000ff;stroke:#0000ff;" points="389,59 389,57 387,57 387,59 389,59"/><polygon style="fill:#0000ff;stroke:#0000ff;" points="227,87 228,89 231,88 230,86 227,87"/></g><g id="node17" class="node"><title>GRB2</title><a xlink:href="GRB2.html"><ellipse cx="259" cy="94" rx="17" ry="9" style="fill:turquoise;stroke:turquoise;"/><text text-anchor="middle" x="259" y="97" style="font-family:Times New Roman;"><![CDATA[GRB2]]></text></a></g><g id="edge18" class="edge"><title>CBL-&gt;GRB2</title><path style="fill:none;stroke:#0000ff;" d="M387,59C364,63 318,73 281,85 279,86 277,86 275,87"/><polygon style="fill:#0000ff;stroke:#0000ff;" points="390,60 390,58 387,58 387,60 390,60"/><polygon style="fill:#0000ff;stroke:#0000ff;" points="272,87 273,89 275,88 274,86 272,87"/></g><g id="node19" class="node"><title>PIK3CA</title><a xlink:href="PIK3CA.html"><ellipse cx="307" cy="94" rx="21" ry="9" style="fill:turquoise;stroke:turquoise;"/><text text-anchor="middle" x="307" y="97" style="font-family:Times New Roman;"><![CDATA[PIK3CA]]></text></a></g><g id="edge20" class="edge"><title>CBL-&gt;PIK3CA</title><path style="fill:none;stroke:#ff0000;" d="M391,61C376,67 349,78 330,85"/><polyline style="fill:none;stroke:#ff0000;" points="329,81 332,89 "/></g><g id="node21" class="node"><title>PLCG1</title><a xlink:href="PLCG1.html"><ellipse cx="356" cy="94" rx="18" ry="9" style="fill:turquoise;stroke:turquoise;"/><text text-anchor="middle" x="356" y="97" style="font-family:Times New Roman;"><![CDATA[PLCG1]]></text></a></g><g id="edge22" class="edge"><title>CBL-&gt;PLCG1</title><path style="fill:none;stroke:#0000ff;" d="M393,65C385,71 376,78 368,85"/><polygon style="fill:#0000ff;stroke:#0000ff;" points="396,65 394,62 392,64 394,66 396,65"/><polygon style="fill:#0000ff;stroke:#0000ff;" points="366,85 367,87 369,86 368,84 366,85"/></g><g id="node23" class="node"><title>PTK2B</title><a xlink:href="PTK2B.html"><ellipse cx="404" cy="94" rx="19" ry="9" style="fill:turquoise;stroke:turquoise;"/><text text-anchor="middle" x="404" y="97" style="font-family:Times New Roman;"><![CDATA[PTK2B]]></text></a></g><g id="edge24" class="edge"><title>CBL-&gt;PTK2B</title><path style="fill:none;stroke:#0000ff;" d="M404,68C404,72 404,78 404,82"/><polygon style="fill:#0000ff;stroke:#0000ff;" points="405,66 403,66 403,68 405,68 405,66"/><polygon style="fill:#0000ff;stroke:#0000ff;" points="403,85 405,85 405,82 403,82 403,85"/></g><g id="node25" class="node"><title>OSTF1</title><a xlink:href="OSTF1.html"><ellipse cx="450" cy="94" rx="17" ry="9" style="fill:turquoise;stroke:turquoise;"/><text text-anchor="middle" x="450" y="97" style="font-family:Times New Roman;"><![CDATA[OSTF1]]></text></a></g><g id="edge26" class="edge"><title>CBL-&gt;OSTF1</title><path style="fill:none;stroke:#0000ff;" d="M415,65C422,71 431,78 438,85"/><polygon style="fill:#0000ff;stroke:#0000ff;" points="414,62 412,65 414,66 416,64 414,62"/><polygon style="fill:#0000ff;stroke:#0000ff;" points="440,87 442,85 440,84 438,86 440,87"/></g><g id="node27" class="node"><title>SHC1</title><a xlink:href="SHC1.html"><ellipse cx="492" cy="94" rx="15" ry="9" style="fill:turquoise;stroke:turquoise;"/><text text-anchor="middle" x="492" y="97" style="font-family:Times New Roman;"><![CDATA[SHC1]]></text></a></g><g id="edge28" class="edge"><title>CBL-&gt;SHC1</title><path style="fill:none;stroke:#0000ff;" d="M418,62C432,68 454,77 472,85 474,86 476,87 478,87"/><polygon style="fill:#0000ff;stroke:#0000ff;" points="416,60 415,62 418,63 419,61 416,60"/><polygon style="fill:#0000ff;stroke:#0000ff;" points="480,89 481,87 479,86 478,88 480,89"/></g><g id="node29" class="node"><title>INPPL1</title><a xlink:href="INPPL1.html"><ellipse cx="537" cy="94" rx="19" ry="9" style="fill:turquoise;stroke:turquoise;"/><text text-anchor="middle" x="537" y="97" style="font-family:Times New Roman;"><![CDATA[INPPL1]]></text></a></g><g id="edge30" class="edge"><title>CBL-&gt;INPPL1</title><path style="fill:none;stroke:#0000ff;" d="M420,60C441,65 480,74 512,85 514,86 517,86 519,87"/><polygon style="fill:#0000ff;stroke:#0000ff;" points="417,58 417,60 420,61 420,59 417,58"/><polygon style="fill:#0000ff;stroke:#0000ff;" points="521,89 522,87 519,86 518,88 521,89"/></g><g id="node31" class="node"><title>SRC</title><a xlink:href="SRC.html"><ellipse cx="580" cy="94" rx="14" ry="9" style="fill:turquoise;stroke:turquoise;"/><text text-anchor="middle" x="580" y="97" style="font-family:Times New Roman;"><![CDATA[SRC]]></text></a></g><g id="edge32" class="edge"><title>CBL-&gt;SRC</title><path style="fill:none;stroke:#0000ff;" d="M421,58C450,61 511,68 561,85 563,85 565,86 567,87"/><polygon style="fill:#0000ff;stroke:#0000ff;" points="418,56 418,58 421,59 421,57 418,56"/><polygon style="fill:#0000ff;stroke:#0000ff;" points="568,89 569,87 567,86 566,88 568,89"/></g><g id="node33" class="node"><title>SYK</title><a xlink:href="SYK.html"><ellipse cx="618" cy="94" rx="14" ry="9" style="fill:turquoise;stroke:turquoise;"/><text text-anchor="middle" x="618" y="97" style="font-family:Times New Roman;"><![CDATA[SYK]]></text></a></g><g id="edge34" class="edge"><title>CBL-&gt;SYK</title><path style="fill:none;stroke:#ff0000;" d="M418,57C451,59 530,65 594,85 596,85 597,86 599,86"/><polyline style="fill:none;stroke:#ff0000;" points="596,89 600,82 "/></g><g id="node35" class="node"><title>TUBA1</title><a xlink:href="TUBA1.html"><ellipse cx="662" cy="94" rx="19" ry="9" style="fill:turquoise;stroke:turquoise;"/><text text-anchor="middle" x="662" y="97" style="font-family:Times New Roman;"><![CDATA[TUBA1]]></text></a></g><g id="edge36" class="edge"><title>CBL-&gt;TUBA1</title><path style="fill:none;stroke:#0000ff;" d="M421,57C460,59 558,65 638,85 641,86 643,86 645,87"/><polygon style="fill:#0000ff;stroke:#0000ff;" points="418,55 418,58 421,58 421,55 418,55"/><polygon style="fill:#0000ff;stroke:#0000ff;" points="647,89 648,87 645,86 644,88 647,89"/></g><g id="node37" class="node"><title>VAV1</title><a xlink:href="VAV1.html"><ellipse cx="709" cy="94" rx="17" ry="9" style="fill:turquoise;stroke:turquoise;"/><text text-anchor="middle" x="709" y="97" style="font-family:Times New Roman;"><![CDATA[VAV1]]></text></a></g><g id="edge38" class="edge"><title>CBL-&gt;VAV1</title><path style="fill:none;stroke:#ff0000;" d="M418,57C468,60 635,71 687,85 687,85 688,85 689,86"/><polyline style="fill:none;stroke:#ff0000;" points="687,89 689,81 "/></g><g id="node4" class="node"><title>SORBS2</title><a xlink:href="SORBS2.html"><ellipse cx="317" cy="18" rx="21" ry="9" style="fill:turquoise;stroke:turquoise;"/><text text-anchor="middle" x="317" y="21" style="font-family:Times New Roman;"><![CDATA[SORBS2]]></text></a></g><g id="edge4" class="edge"><title>SORBS2-&gt;CBL</title><path style="fill:none;stroke:#0000ff;" d="M334,26C350,33 374,43 389,50"/><polygon style="fill:#0000ff;stroke:#0000ff;" points="332,24 331,26 333,27 334,25 332,24"/><polygon style="fill:#0000ff;stroke:#0000ff;" points="391,52 392,50 389,49 388,51 391,52"/></g><g id="edge52" class="edge"><title>SYK-&gt;CBL</title><path style="fill:none;stroke:darkgreen;" d="M423,57C460,59 540,66 604,85 605,85 607,86 609,87"/><polygon style="fill:darkgreen;stroke:darkgreen;" points="423,58 418,57 423,55 423,58"/></g><g id="node39" class="node"><title>FYN</title><a xlink:href="FYN.html"><ellipse cx="363" cy="18" rx="15" ry="9" style="fill:turquoise;stroke:turquoise;"/><text text-anchor="middle" x="363" y="21" style="font-family:Times New Roman;"><![CDATA[FYN]]></text></a></g><g id="edge40" class="edge"><title>FYN-&gt;CBL</title><path style="fill:none;stroke:darkgreen;" d="M371,26C377,31 385,39 392,45"/><polygon style="fill:darkgreen;stroke:darkgreen;" points="392,44 395,48 390,46 392,44"/></g><g id="node41" class="node"><title>INSR</title><a xlink:href="INSR.html"><ellipse cx="404" cy="18" rx="15" ry="9" style="fill:turquoise;stroke:turquoise;"/><text text-anchor="middle" x="404" y="21" style="font-family:Times New Roman;"><![CDATA[INSR]]></text></a></g><g id="edge42" class="edge"><title>INSR-&gt;CBL</title><path style="fill:none;stroke:darkgreen;" d="M404,28C404,32 404,37 404,41"/><polygon style="fill:darkgreen;stroke:darkgreen;" points="405,41 404,47 403,41 405,41"/></g><g id="node43" class="node"><title>LYN</title><a xlink:href="LYN.html"><ellipse cx="444" cy="18" rx="15" ry="9" style="fill:turquoise;stroke:turquoise;"/><text text-anchor="middle" x="444" y="21" style="font-family:Times New Roman;"><![CDATA[LYN]]></text></a></g><g id="edge44" class="edge"><title>LYN-&gt;CBL</title><path style="fill:none;stroke:darkgreen;" d="M436,26C430,31 422,39 416,45"/><polygon style="fill:darkgreen;stroke:darkgreen;" points="417,46 412,48 415,44 417,46"/></g><g id="node45" class="node"><title>ARHGEF6</title><a xlink:href="ARHGEF6.html"><ellipse cx="495" cy="18" rx="26" ry="9" style="fill:turquoise;stroke:turquoise;"/><text text-anchor="middle" x="495" y="21" style="font-family:Times New Roman;"><![CDATA[ARHGEF6]]></text></a></g><g id="edge46" class="edge"><title>ARHGEF6-&gt;CBL</title><path style="fill:none;stroke:#ff0000;" d="M478,25C462,32 438,42 422,48"/><polyline style="fill:none;stroke:#ff0000;" points="422,44 425,51 "/></g><g id="node47" class="node"><title>SORBS1</title><a xlink:href="SORBS1.html"><ellipse cx="552" cy="18" rx="20" ry="9" style="fill:turquoise;stroke:turquoise;"/><text text-anchor="middle" x="552" y="21" style="font-family:Times New Roman;"><![CDATA[SORBS1]]></text></a></g><g id="edge48" class="edge"><title>SORBS1-&gt;CBL</title><path style="fill:none;stroke:#0000ff;" d="M534,25C531,26 529,27 527,28 489,39 444,49 420,53"/><polygon style="fill:#0000ff;stroke:#0000ff;" points="537,25 536,23 533,24 534,26 537,25"/><polygon style="fill:#0000ff;stroke:#0000ff;" points="417,52 417,55 420,54 420,52 417,52"/></g><g id="node49" class="node"><title>PTPN6</title><a xlink:href="PTPN6.html"><ellipse cx="601" cy="18" rx="19" ry="9" style="fill:turquoise;stroke:turquoise;"/><text text-anchor="middle" x="601" y="21" style="font-family:Times New Roman;"><![CDATA[PTPN6]]></text></a></g><g id="edge50" class="edge"><title>PTPN6-&gt;CBL</title><path style="fill:none;stroke:#ff0000;" d="M587,24C584,25 580,27 577,28 523,43 458,51 425,55"/><polyline style="fill:none;stroke:#ff0000;" points="425,50 426,58 "/></g></g></g></g>
<!-- navigation controls -->
<g id="navbox">
	<rect x="0" y="0" width="742" height="60"
		 style="fill:rgb(206,207,206);stroke:rgb(0,0,0);stroke-width:1"/>

	<polygon id="pan_right"
        onmouseup="panRight()"
        onmouseover="doHighlight(evt, 'Click to pan to the right')"
        onmouseout="resetHighlight(evt)"
		points="28.0732,13 32,20.5 28.0732,28 28.0732,23.4412 25,23.4412 25,17.4118 28.0732,17.4118"
		 transform="matrix(3.39111 0 0 2.98838 -12.6265 -29.7101)"
         fill="rgb(99,154,206)"
		 style="stroke:rgb(0,0,0);stroke-width:0.5"/>
	<polygon id="pan_left"
        onmouseup="panLeft()"
        onmouseover="doHighlight(evt, 'Click to pan to the left')"
        onmouseout="resetHighlight(evt)"
		points="123.991,25 120.064,32.5 123.991,40 123.991,35.4412 127.064,35.4412 127.064,29.4118
			123.991,29.4118" transform="matrix(3.39111 0 0 2.98838 -404.865 -65.5706)"
         fill="rgb(99,154,206)"
		 style="stroke:rgb(0,0,0);stroke-width:0.5"/>
	<polygon id="pan_down"
        onmouseup="panDown()"
        onmouseover="doHighlight(evt, 'Click to pan down')"
        onmouseout="resetHighlight(evt)"
		points="116.032,32.0408 123.532,35.9678 131.032,32.0408 126.473,32.0408 126.473,28.9678 120.444,28.9678
			120.444,32.0408" transform="matrix(3.39111 0 0 2.98838 -369.822 -50.6287)"
         fill="rgb(99,154,206)"
		 style="stroke:rgb(0,0,0);stroke-width:0.5"/>
	<polygon id="pan_up"
        onmouseup="panUp()"
  onmouseover="doHighlight(evt, 'Click to pan up')"
        onmouseout="resetHighlight(evt)"
		points="116.032,32.0408 123.532,35.9678 131.032,32.0408 126.473,32.0408 126.473,28.9678 120.444,28.9678
			120.444,32.0408" transform="matrix(3.39111 0 0 -2.98838 -369.823 111.74)"
         fill="rgb(99,154,206)"
		 style="stroke:rgb(0,0,0);stroke-width:0.5"/>
	<g id="go_home" 
         onmouseup="panRestore()" 
         onmouseover="doHighlight(evt, 'Click to restore graph to original position')"
         onmouseout="resetHighlight(evt)"
         fill="rgb(99,154,206)"
         transform="matrix(1 0 0 1 0 -0.333333)">
		<rect x="196" y="11" width="26" height="26"
			transform="translate(-19.1111 -2.66667)"
			 style="stroke:rgb(0,0,0);stroke-width:1"/>
		<line x1="182" y1="16" x2="182" y2="28"
			transform="matrix(1 0 0 1 2.22222 0.444444)"
			 style="fill:none;stroke:rgb(0,0,0);stroke-width:2"/>
		<line x1="187" y1="22" x2="187" y2="28"
			transform="matrix(1 0 0 1 2.22222 0.444444)"
			 style="fill:none;stroke:rgb(0,0,0);stroke-width:2"/>
	<line x1="192" y1="13" x2="192" y2="28"
			transform="matrix(1 0 0 1 2.22222 0.444444)"
			 style="fill:none;stroke:rgb(0,0,0);stroke-width:2"/>
		<line x1="182" y1="28" x2="192" y2="28"
			transform="matrix(1 0 0 1 2.22222 0.444444)"
	style="fill:none;stroke:rgb(0,0,0);stroke-width:2"/>
		<line x1="189" y1="12" x2="179" y2="21"
			 style="fill:none;stroke:rgb(0,0,0);stroke-width:2"/>
		<line x1="188" y1="12" x2="199" y2="20"
			 style="fill:none;stroke:rgb(0,0,0);stroke-width:2"/>
	</g>
	<g id="zoom_out" onmouseup="zoomOut()" 
             onmouseover="doHighlight(evt, 'Click to zoom out')"
             onmouseout="resetHighlight(evt)"
             fill="rgb(99,154,206)"
             transform="matrix(1 0 0 1 0 0)">
		<rect x="116" y="8" width="26" height="26"
			 style="stroke:rgb(0,0,0);stroke-width:1"/>
		<ellipse cx="126" cy="18" rx="6" ry="6"
			 style="stroke:rgb(0,0,0);stroke-width:1"/>
		<line x1="130" y1="23" x2="137" y2="29"
			transform="matrix(1 0 0 1 0.888889 -0.888889)"
			 style="fill:none;stroke:rgb(0,0,0);stroke-width:2"/>
		<line x1="123" y1="18" x2="129" y2="18"
			 style="fill:none;stroke:rgb(0,0,0);stroke-width:2"/>
	</g>
	<g id="zoom_in" onmouseup="zoomIn()" 
             onmouseover="doHighlight(evt, 'Click to zoom in')"
             onmouseout="resetHighlight(evt)"
             fill="rgb(99,154,206)"
             transform="matrix(1 0 0 1 0.888889 -0.444444)">
		<rect x="116" y="8" width="26" height="26"
			transform="matrix(1 0 0 1 29.7778 0.444444)"
			 style="stroke:rgb(0,0,0);stroke-width:1"/>
		<ellipse cx="126" cy="18" rx="6" ry="6"
			transform="matrix(1 0 0 1 29.7778 0.444444)"
			 style="stroke:rgb(0,0,0);stroke-width:1"/>
		<line x1="130" y1="23" x2="137" y2="29"
			transform="matrix(1 0 0 1 30.6667 -0.444445)"
		style="fill:none;stroke:rgb(0,0,0);stroke-width:2"/>
		<line x1="123" y1="18" x2="129" y2="18"
			transform="matrix(1 0 0 1 29.7778 0.444444)"
			 style="fill:none;stroke:rgb(0,0,0);stroke-width:2"/>
		<line x1="156" y1="15" x2="156" y2="22"
			 style="fill:none;stroke:rgb(0,0,0);stroke-width:2"/>
	</g>
	<g>
		<rect x="117" y="40" width="452" height="14"
			transform="matrix(1.54201 0 0 1 -64.1436 -0.222222)"
			 style="fill:rgb(192,192,192);stroke:rgb(0,0,0);stroke-width:1"/>
		<text id="status_text" x="183px" y="48px"
			transform="matrix(1 0 0 1 -63.5556 3.00778)"
			 style="fill:rgb(0,0,0);font-size:14;font-family:Arial"> </text>
	</g>
</g>	
</svg>