<?xml version="1.0" encoding="UTF-8" standalone="no"?><!DOCTYPE svg PUBLIC "-//W3C//DTD SVG 1.0//EN" "http://www.w3.org/TR/2001/REC-SVG-20010904/DTD/svg10.dtd" [ <!ATTLIST svg xmlns:xlink CDATA #FIXED "http://www.w3.org/1999/xlink">]><!-- Generated by WinGraphviz version ver1.02.23, 08/01/2003 (08/04/2003)     For user: Avi Ma'ayan   Title: G    Pages: 1 --><svg width="434px" height="276px" xmlns="http://www.w3.org/2000/svg" xmlns:xlink="http://www.w3.org/1999/xlink"><g id="graph0" class="graph" style="font-family:Times New Roman;font-size:18.67;"><title>G</title><g id="node1" class="node"><title>PTK2</title><a xlink:href="PTK2.html"><ellipse cx="225" cy="39" rx="41" ry="24" style="fill:turquoise;stroke:turquoise;"/><text text-anchor="middle" x="225" y="46" style="font-family:Times New Roman;"><![CDATA[PTK2]]></text></a></g><g id="node2" class="node"><title>CD47</title><a xlink:href="CD47.html"><ellipse cx="225" cy="135" rx="40" ry="24" style="fill:limegreen;stroke:limegreen;"/><text text-anchor="middle" x="225" y="142" style="font-family:Times New Roman;"><![CDATA[CD47]]></text></a></g><g id="edge2" class="edge"><title>PTK2-&gt;CD47</title><path style="fill:none;stroke:#0000ff;" d="M225,70C225,81 225,94 225,105"/><polygon style="fill:#0000ff;stroke:#0000ff;" points="229,63 222,63 222,70 229,70 229,63"/><polygon style="fill:#0000ff;stroke:#0000ff;" points="222,111 229,111 229,105 222,105 222,111"/></g><g id="node4" class="node"><title>ITGA5</title><a xlink:href="ITGA5.html"><ellipse cx="53" cy="231" rx="46" ry="24" style="fill:turquoise;stroke:turquoise;"/><text text-anchor="middle" x="53" y="238" style="font-family:Times New Roman;"><![CDATA[ITGA5]]></text></a></g><g id="edge4" class="edge"><title>CD47-&gt;ITGA5</title><path style="fill:none;stroke:#0000ff;" d="M189,155C159,171 118,194 90,211"/><polygon style="fill:#0000ff;stroke:#0000ff;" points="197,154 194,149 189,153 191,158 197,154"/><polygon style="fill:#0000ff;stroke:#0000ff;" points="84,211 86,217 92,214 89,209 84,211"/></g><g id="node6" class="node"><title>ITGB1</title><a xlink:href="ITGB1.html"><ellipse cx="167" cy="231" rx="44" ry="24" style="fill:turquoise;stroke:turquoise;"/><text text-anchor="middle" x="167" y="238" style="font-family:Times New Roman;"><![CDATA[ITGB1]]></text></a></g><g id="edge6" class="edge"><title>CD47-&gt;ITGB1</title><path style="fill:none;stroke:#0000ff;" d="M209,163C201,175 191,190 183,202"/><polygon style="fill:#0000ff;stroke:#0000ff;" points="214,159 209,157 206,162 211,165 214,159"/><polygon style="fill:#0000ff;stroke:#0000ff;" points="178,206 183,209 186,203 181,201 178,206"/></g><g id="node8" class="node"><title>SIRPA</title><a xlink:href="SIRPA.html"><ellipse cx="282" cy="231" rx="46" ry="24" style="fill:limegreen;stroke:limegreen;"/><text text-anchor="middle" x="282" y="238" style="font-family:Times New Roman;"><![CDATA[SIRPA]]></text></a></g><g id="edge8" class="edge"><title>CD47-&gt;SIRPA</title><path style="fill:none;stroke:#0000ff;" d="M241,163C249,175 258,190 266,202"/><polygon style="fill:#0000ff;stroke:#0000ff;" points="241,157 235,159 238,165 243,162 241,157"/><polygon style="fill:#0000ff;stroke:#0000ff;" points="266,209 272,206 269,201 264,203 266,209"/></g><g id="node10" class="node"><title>SRC</title><a xlink:href="SRC.html"><ellipse cx="389" cy="231" rx="36" ry="24" style="fill:turquoise;stroke:turquoise;"/><text text-anchor="middle" x="389" y="238" style="font-family:Times New Roman;"><![CDATA[SRC]]></text></a></g><g id="edge10" class="edge"><title>CD47-&gt;SRC</title><path style="fill:none;stroke:#0000ff;" d="M261,157C290,173 329,197 357,213"/><polygon style="fill:#0000ff;stroke:#0000ff;" points="255,150 253,155 258,159 261,154 255,150"/><polygon style="fill:#0000ff;stroke:#0000ff;" points="361,218 364,213 358,210 356,215 361,218"/></g></g></svg>