<?xml version="1.0" encoding="UTF-8" standalone="no"?><!DOCTYPE svg PUBLIC "-//W3C//DTD SVG 1.0//EN" "http://www.w3.org/TR/2001/REC-SVG-20010904/DTD/svg10.dtd" [ <!ATTLIST svg xmlns:xlink CDATA #FIXED "http://www.w3.org/1999/xlink">]><!-- Generated by WinGraphviz version ver1.02.23, 08/01/2003 (08/04/2003)     For user: Avi Ma'ayan   Title: G    Pages: 1 --><svg width="655px" height="180px" xmlns="http://www.w3.org/2000/svg" xmlns:xlink="http://www.w3.org/1999/xlink"><g id="graph0" class="graph" style="font-family:Times New Roman;font-size:18.67;"><title>G</title><g id="node1" class="node"><title>CEACAM1</title><a xlink:href="CEACAM1.html"><ellipse cx="316" cy="39" rx="66" ry="24" style="fill:turquoise;stroke:turquoise;"/><text text-anchor="middle" x="316" y="46" style="font-family:Times New Roman;"><![CDATA[CEACAM1]]></text></a></g><g id="node2" class="node"><title>FLNA</title><a xlink:href="FLNA.html"><ellipse cx="51" cy="135" rx="45" ry="24" style="fill:turquoise;stroke:turquoise;"/><text text-anchor="middle" x="51" y="142" style="font-family:Times New Roman;"><![CDATA[FLNA]]></text></a></g><g id="edge2" class="edge"><title>CEACAM1-&gt;FLNA</title><path style="fill:none;stroke:#0000ff;" d="M260,58C219,73 159,93 109,111 104,114 98,117 93,118"/><polygon style="fill:#0000ff;stroke:#0000ff;" points="268,58 265,53 258,55 261,61 268,58"/><polygon style="fill:#0000ff;stroke:#0000ff;" points="86,118 89,123 94,121 92,115 86,118"/></g><g id="node4" class="node"><title>PXN</title><a xlink:href="PXN.html"><ellipse cx="159" cy="135" rx="38" ry="24" style="fill:turquoise;stroke:turquoise;"/><text text-anchor="middle" x="159" y="142" style="font-family:Times New Roman;"><![CDATA[PXN]]></text></a></g><g id="edge4" class="edge"><title>CEACAM1-&gt;PXN</title><path style="fill:none;stroke:#0000ff;" d="M276,65C250,81 218,101 193,115"/><polygon style="fill:#0000ff;stroke:#0000ff;" points="284,63 281,58 276,62 278,67 284,63"/><polygon style="fill:#0000ff;stroke:#0000ff;" points="186,115 189,121 194,118 191,113 186,115"/></g><g id="node6" class="node"><title>SHC1</title><a xlink:href="SHC1.html"><ellipse cx="261" cy="135" rx="38" ry="24" style="fill:turquoise;stroke:turquoise;"/><text text-anchor="middle" x="261" y="142" style="font-family:Times New Roman;"><![CDATA[SHC1]]></text></a></g><g id="edge6" class="edge"><title>CEACAM1-&gt;SHC1</title><path style="fill:none;stroke:#0000ff;" d="M300,69C293,81 284,95 277,107"/><polygon style="fill:#0000ff;stroke:#0000ff;" points="305,65 300,62 297,67 302,70 305,65"/><polygon style="fill:#0000ff;stroke:#0000ff;" points="272,111 277,114 280,109 274,106 272,111"/></g><g id="node8" class="node"><title>PTPN6</title><a xlink:href="PTPN6.html"><ellipse cx="372" cy="135" rx="48" ry="24" style="fill:turquoise;stroke:turquoise;"/><text text-anchor="middle" x="372" y="142" style="font-family:Times New Roman;"><![CDATA[PTPN6]]></text></a></g><g id="edge8" class="edge"><title>CEACAM1-&gt;PTPN6</title><path style="fill:none;stroke:#0000ff;" d="M332,69C340,81 348,94 356,106"/><polygon style="fill:#0000ff;stroke:#0000ff;" points="332,62 326,65 329,70 334,67 332,62"/><polygon style="fill:#0000ff;stroke:#0000ff;" points="356,113 361,110 358,105 353,107 356,113"/></g><g id="node10" class="node"><title>PTPN11</title><a xlink:href="PTPN11.html"><ellipse cx="493" cy="135" rx="49" ry="24" style="fill:turquoise;stroke:turquoise;"/><text text-anchor="middle" x="493" y="142" style="font-family:Times New Roman;"><![CDATA[PTPN11]]></text></a></g><g id="edge10" class="edge"><title>CEACAM1-&gt;PTPN11</title><path style="fill:none;stroke:#0000ff;" d="M360,63C389,78 426,99 454,115"/><polygon style="fill:#0000ff;stroke:#0000ff;" points="354,57 352,62 357,66 360,61 354,57"/><polygon style="fill:#0000ff;stroke:#0000ff;" points="458,121 461,115 456,113 453,118 458,121"/></g><g id="node12" class="node"><title>TLN1</title><a xlink:href="TLN1.html"><ellipse cx="606" cy="135" rx="40" ry="24" style="fill:turquoise;stroke:turquoise;"/><text text-anchor="middle" x="606" y="142" style="font-family:Times New Roman;"><![CDATA[TLN1]]></text></a></g><g id="edge12" class="edge"><title>CEACAM1-&gt;TLN1</title><path style="fill:none;stroke:#0000ff;" d="M377,55C425,69 494,90 554,111 559,114 565,115 569,118"/><polygon style="fill:#0000ff;stroke:#0000ff;" points="370,51 370,57 377,58 377,53 370,51"/><polygon style="fill:#0000ff;stroke:#0000ff;" points="573,123 575,118 570,115 567,121 573,123"/></g></g></svg>