<?xml version="1.0" encoding="UTF-8" standalone="no"?><!DOCTYPE svg PUBLIC "-//W3C//DTD SVG 1.0//EN" "http://www.w3.org/TR/2001/REC-SVG-20010904/DTD/svg10.dtd" [ <!ATTLIST svg xmlns:xlink CDATA #FIXED "http://www.w3.org/1999/xlink">]><!-- Generated by WinGraphviz version ver1.02.23, 08/01/2003 (08/04/2003)     For user: Avi Ma'ayan   Title: G    Pages: 1 --><svg width="359px" height="276px" xmlns="http://www.w3.org/2000/svg" xmlns:xlink="http://www.w3.org/1999/xlink"><g id="graph0" class="graph" style="font-family:Times New Roman;font-size:18.67;"><title>G</title><g id="node1" class="node"><title>CFL1</title><a xlink:href="CFL1.html"><ellipse cx="181" cy="135" rx="37" ry="24" style="fill:turquoise;stroke:turquoise;"/><text text-anchor="middle" x="181" y="142" style="font-family:Times New Roman;"><![CDATA[CFL1]]></text></a></g><g id="node2" class="node"><title>ACTB</title><a xlink:href="ACTB.html"><ellipse cx="181" cy="231" rx="44" ry="24" style="fill:turquoise;stroke:turquoise;"/><text text-anchor="middle" x="181" y="238" style="font-family:Times New Roman;"><![CDATA[ACTB]]></text></a></g><g id="edge2" class="edge"><title>CFL1-&gt;ACTB</title><path style="fill:none;stroke:#0000ff;" d="M181,166C181,177 181,190 181,201"/><polygon style="fill:#0000ff;stroke:#0000ff;" points="185,159 178,159 178,166 185,166 185,159"/><polygon style="fill:#0000ff;stroke:#0000ff;" points="178,207 185,207 185,201 178,201 178,207"/></g><g id="node4" class="node"><title>LIMK1</title><a xlink:href="LIMK1.html"><ellipse cx="54" cy="39" rx="48" ry="24" style="fill:turquoise;stroke:turquoise;"/><text text-anchor="middle" x="54" y="46" style="font-family:Times New Roman;"><![CDATA[LIMK1]]></text></a></g><g id="edge4" class="edge"><title>LIMK1-&gt;CFL1</title><path style="fill:none;stroke:darkgreen;" d="M81,59C101,74 126,94 147,110"/><polygon style="fill:darkgreen;stroke:darkgreen;" points="147,106 157,117 143,111 147,106"/></g><g id="node6" class="node"><title>PPP2CA</title><a xlink:href="PPP2CA.html"><ellipse cx="181" cy="39" rx="54" ry="24" style="fill:turquoise;stroke:turquoise;"/><text text-anchor="middle" x="181" y="46" style="font-family:Times New Roman;"><![CDATA[PPP2CA]]></text></a></g><g id="edge6" class="edge"><title>PPP2CA-&gt;CFL1</title><path style="fill:none;stroke:#ff0000;" d="M181,63C181,71 181,82 181,91"/><polyline style="fill:none;stroke:#ff0000;" points="171,91 191,91 "/></g><g id="node8" class="node"><title>TESK1</title><a xlink:href="TESK1.html"><ellipse cx="305" cy="39" rx="45" ry="24" style="fill:turquoise;stroke:turquoise;"/><text text-anchor="middle" x="305" y="46" style="font-family:Times New Roman;"><![CDATA[TESK1]]></text></a></g><g id="edge8" class="edge"><title>TESK1-&gt;CFL1</title><path style="fill:none;stroke:darkgreen;" d="M280,59C260,74 234,94 214,110"/><polygon style="fill:darkgreen;stroke:darkgreen;" points="218,111 205,117 214,106 218,111"/></g></g></svg>