<?xml version="1.0" encoding="UTF-8" standalone="no"?><!DOCTYPE svg PUBLIC "-//W3C//DTD SVG 1.0//EN" "http://www.w3.org/TR/2001/REC-SVG-20010904/DTD/svg10.dtd" [ <!ATTLIST svg xmlns:xlink CDATA #FIXED "http://www.w3.org/1999/xlink">]><!-- Generated by WinGraphviz version ver1.02.23, 08/01/2003 (08/04/2003)     For user: Avi Ma'ayan   Title: G    Pages: 1 --><!--="735px" height="184px" xmlns="http://www.w3.org/2000/svg" --><svg onload="init(evt)" width="735px" height="600px" xmlns="http://www.w3.org/2000/svg" xmlns:xlink="http://www.w3.org/1999/xlink">
<script type="text/ecmascript">
<![CDATA[
var svgDocument;
var zoomAmt;
var xOffset;
var yOffset;
var scale;
var maxScale;
var imageWidth;
var imageHeight;
function init(evt)
{
    svgDocument = evt.getTarget().getOwnerDocument();
    zoomAmt = 0;
    xOffset = 0;
    yOffset = 60;
    scale = 0.8;
    maxScale = 10;
    imageWidth = 742;
    imageHeight = 606;
    panRestore();
    //panUp();
}
function transformMap ()
{
    var obj = svgDocument.getElementById("Pathway");
    var centerX = imageWidth  / 2.0;
    var centerY = imageHeight / 2.0;
    var adjustX = (-centerX * (scale - 0.8)) + xOffset;
    var adjustY = (-centerY * (scale - 0.8)) + yOffset;
    var transParms = 'translate(' + adjustX + ',' + adjustY + ') ';
    transParms += 'scale(' + scale + ')';
    // alert(transParms);
    obj.setAttribute("transform", transParms); 
}
function click_node(id)
{
    var testx = parent.click_node;
    if (typeof(testx) == "function")
    {
		parent.click_node(id);
    }
}
function click_relation(id)
{
    var testx = parent.click_relation;
    if (typeof(testx) == "function")
    {
        parent.click_relation(id);
    }
}
function click_pathway(toId, fromId)
{
    var testx = parent.click_pathway;
    if (typeof(testx) == "function")
    {
	parent.click_pathway(toId, fromId);
    }
}
function check_interpath(evt, pathid)
{
  var obj = evt.getTarget();
  var testx = parent.is_frompath;
  var child = obj.firstChild;
  if (typeof(testx) == "function")
  {
    if (parent.is_frompath(pathid))
    {
      while (child != null)
      {
        if (child.nodeType == 1)
        {
          if ((child.localName == "g") || (child.localName == "polyline"))
          {
            child.setAttribute("style", "fill:none;stroke:red");
          }
          else if (child.localName == "polygon")
          {
            child.setAttribute("style", "fill:red;stroke:red");
          }
        }
        child = child.nextSibling;
      }
    }
  }
}
function set_status (msg)
{
 var obj = svgDocument.getElementById("status_text");
  var child;
 
  child = obj.firstChild;
  if ((child != null) && (child.nodeType == 3))
  {
    if ((msg != null) && (msg.length > 0))
    {
      child.data = msg;
    }
    else
    {
child.data = " ";
    }
  }
}
function zoomIn ()
{
    scale = scale + 0.8;
    if (scale > maxScale)
    {
       scale = maxScale;
    }
    transformMap();
    panUp();
    panUp();
    panUp();
    panUp();
    panUp();
    panUp();
    panUp();
    panUp();
    panUp();
    panUp();
    panUp();
    panUp();
}
function zoomOut ()
{
    scale = scale - 0.8;
    if (scale < 0.8)
    {
       scale = 0.8;
    }
    transformMap();
    panDown();
    panDown();
    panDown();
    panDown();
    panDown();
    panDown();
    panDown();
    panDown();
    panDown();
    panDown();
    panDown();
    panDown();
}
function panUp ()
{
    yOffset = yOffset + 20;
    transformMap();
}
function panDown ()
{
    yOffset = yOffset - 20;
    transformMap();
}
function panLeft ()
{
    xOffset = xOffset + 20;
    transformMap();
}
function panRight ()
{
    xOffset = xOffset - 20;
    transformMap();
}
function panRestore ()
{
    xOffset = 0;
    yOffset = 0;
    scale = 0.5;
    //obj = svgDocument.getElementById("zoom");
    //obj.setAttribute("x1", 0);
    //obj.setAttribute("x2", 0);
    transformMap();    
}
function doHighlight (evt, msg)
{
  var obj = evt.getTarget();
  obj.setAttribute("fill", "rgb(239,24,33)");
  set_status(msg);
}
function resetHighlight (evt)
{
  var obj = evt.getTarget();
  obj.setAttribute("fill", "rgb(99,154,206)");
  set_status(" ");
}
// ]]>
</script>
<defs>
<clipPath id="theClip">
<polygon points="1 61, 741 61, 741 665, 1 665"
style="fill: none;"/>
</clipPath>
</defs>
<!-- viewport outline -->
<rect x="0" y="61" width="742" height="606"
style="stroke: black; stroke-width: 1; fill: none;"/>
<!-- pathway graph style="clip-path: url(#theClip);" -->
<g style="clip-path: url(#theClip);">
<g id="Pathway"  transform="translate(0,60)">
<!-- prefile.include ends, begin pathway graph -->
<g id="stkecm;CMP_10705" class="graph">
</g>
<g id="graph0" class="graph" style="font-family:Times New Roman;font-size:12.12;"><title>G</title><g id="node1" class="node"><title>ABL1</title><a xlink:href="ABL1.html"><ellipse cx="109" cy="27" rx="25" ry="15" style="fill:turquoise;stroke:turquoise;"/><text text-anchor="middle" x="109" y="31" style="font-family:Times New Roman;"><![CDATA[ABL1]]></text></a></g><g id="node2" class="node"><title>CRK</title><a xlink:href="CRK.html"><ellipse cx="396" cy="89" rx="25" ry="15" style="fill:turquoise;stroke:turquoise;"/><text text-anchor="middle" x="396" y="93" style="font-family:Times New Roman;"><![CDATA[CRK]]></text></a></g><g id="edge2" class="edge"><title>ABL1-&gt;CRK</title><path style="fill:none;stroke:#0000ff;" d="M133,39C136,40 139,41 143,42 223,68 319,81 366,86"/><polygon style="fill:#0000ff;stroke:#0000ff;" points="130,35 128,39 132,41 133,37 130,35"/><polygon style="fill:#0000ff;stroke:#0000ff;" points="371,88 371,85 367,84 367,87 371,88"/></g><g id="node14" class="node"><title>DOCK1</title><a xlink:href="DOCK1.html"><ellipse cx="39" cy="151" rx="32" ry="15" style="fill:turquoise;stroke:turquoise;"/><text text-anchor="middle" x="39" y="156" style="font-family:Times New Roman;"><![CDATA[DOCK1]]></text></a></g><g id="edge14" class="edge"><title>CRK-&gt;DOCK1</title><path style="fill:none;stroke:#0000ff;" d="M367,91C311,96 184,109 80,136 75,137 72,138 68,140"/><polygon style="fill:#0000ff;stroke:#0000ff;" points="371,92 371,88 367,88 367,92 371,92"/><polygon style="fill:#0000ff;stroke:#0000ff;" points="63,139 65,143 69,142 68,138 63,139"/></g><g id="node16" class="node"><title>ELMO1</title><a xlink:href="ELMO1.html"><ellipse cx="120" cy="151" rx="32" ry="15" style="fill:turquoise;stroke:turquoise;"/><text text-anchor="middle" x="120" y="156" style="font-family:Times New Roman;"><![CDATA[ELMO1]]></text></a></g><g id="edge16" class="edge"><title>CRK-&gt;ELMO1</title><path style="fill:none;stroke:#0000ff;" d="M368,93C323,100 235,115 161,136 157,137 153,138 149,140"/><polygon style="fill:#0000ff;stroke:#0000ff;" points="372,94 372,91 368,92 368,95 372,94"/><polygon style="fill:#0000ff;stroke:#0000ff;" points="145,139 146,143 151,142 149,138 145,139"/></g><g id="node18" class="node"><title>GRB2</title><a xlink:href="GRB2.html"><ellipse cx="197" cy="151" rx="28" ry="15" style="fill:turquoise;stroke:turquoise;"/><text text-anchor="middle" x="197" y="156" style="font-family:Times New Roman;"><![CDATA[GRB2]]></text></a></g><g id="edge18" class="edge"><title>CRK-&gt;GRB2</title><path style="fill:none;stroke:#0000ff;" d="M369,96C336,105 280,119 234,136 230,137 227,138 223,140"/><polygon style="fill:#0000ff;stroke:#0000ff;" points="373,97 373,93 369,94 369,98 373,97"/><polygon style="fill:#0000ff;stroke:#0000ff;" points="219,140 221,144 224,142 223,138 219,140"/></g><g id="node20" class="node"><title>NEDD9</title><a xlink:href="NEDD9.html"><ellipse cx="275" cy="151" rx="33" ry="15" style="fill:turquoise;stroke:turquoise;"/><text text-anchor="middle" x="275" y="156" style="font-family:Times New Roman;"><![CDATA[NEDD9]]></text></a></g><g id="edge20" class="edge"><title>CRK-&gt;NEDD9</title><path style="fill:none;stroke:#0000ff;" d="M373,101C352,112 323,127 301,138"/><polygon style="fill:#0000ff;stroke:#0000ff;" points="378,101 377,98 372,99 374,103 378,101"/><polygon style="fill:#0000ff;stroke:#0000ff;" points="297,138 299,142 302,140 300,137 297,138"/></g><g id="node22" class="node"><title>MAPK8</title><a xlink:href="MAPK8.html"><ellipse cx="359" cy="151" rx="34" ry="15" style="fill:turquoise;stroke:turquoise;"/><text text-anchor="middle" x="359" y="156" style="font-family:Times New Roman;"><![CDATA[MAPK8]]></text></a></g><g id="edge22" class="edge"><title>CRK-&gt;MAPK8</title><path style="fill:none;stroke:#0000ff;" d="M386,107C381,115 375,125 370,132"/><polygon style="fill:#0000ff;stroke:#0000ff;" points="390,105 386,103 384,106 388,108 390,105"/><polygon style="fill:#0000ff;stroke:#0000ff;" points="366,135 370,137 371,133 368,131 366,135"/></g><g id="node24" class="node"><title>PXN</title><a xlink:href="PXN.html"><ellipse cx="435" cy="151" rx="25" ry="15" style="fill:turquoise;stroke:turquoise;"/><text text-anchor="middle" x="435" y="156" style="font-family:Times New Roman;"><![CDATA[PXN]]></text></a></g><g id="edge24" class="edge"><title>CRK-&gt;PXN</title><path style="fill:none;stroke:#0000ff;" d="M407,107C412,115 418,125 423,133"/><polygon style="fill:#0000ff;stroke:#0000ff;" points="407,103 403,105 405,108 409,106 407,103"/><polygon style="fill:#0000ff;stroke:#0000ff;" points="423,137 427,136 425,132 422,134 423,137"/></g><g id="node26" class="node"><title>RICS</title><a xlink:href="RICS.html"><ellipse cx="500" cy="151" rx="25" ry="15" style="fill:turquoise;stroke:turquoise;"/><text text-anchor="middle" x="500" y="156" style="font-family:Times New Roman;"><![CDATA[RICS]]></text></a></g><g id="edge26" class="edge"><title>CRK-&gt;RICS</title><path style="fill:none;stroke:#0000ff;" d="M419,103C437,113 461,128 479,138"/><polygon style="fill:#0000ff;stroke:#0000ff;" points="415,99 414,102 417,105 419,101 415,99"/><polygon style="fill:#0000ff;stroke:#0000ff;" points="481,142 483,138 480,137 478,140 481,142"/></g><g id="node28" class="node"><title>SHC1</title><a xlink:href="SHC1.html"><ellipse cx="566" cy="151" rx="25" ry="15" style="fill:turquoise;stroke:turquoise;"/><text text-anchor="middle" x="566" y="156" style="font-family:Times New Roman;"><![CDATA[SHC1]]></text></a></g><g id="edge28" class="edge"><title>CRK-&gt;SHC1</title><path style="fill:none;stroke:#0000ff;" d="M423,97C451,106 495,121 533,136 537,137 540,139 543,140"/><polygon style="fill:#0000ff;stroke:#0000ff;" points="419,94 419,98 423,99 423,95 419,94"/><polygon style="fill:#0000ff;stroke:#0000ff;" points="545,144 547,140 544,138 542,142 545,144"/></g><g id="node30" class="node"><title>SOS1</title><a xlink:href="SOS1.html"><ellipse cx="630" cy="151" rx="23" ry="15" style="fill:turquoise;stroke:turquoise;"/><text text-anchor="middle" x="630" y="156" style="font-family:Times New Roman;"><![CDATA[SOS1]]></text></a></g><g id="edge30" class="edge"><title>CRK-&gt;SOS1</title><path style="fill:none;stroke:#0000ff;" d="M425,93C465,100 539,114 599,136 602,137 606,139 608,140"/><polygon style="fill:#0000ff;stroke:#0000ff;" points="421,91 421,94 425,95 425,92 421,91"/><polygon style="fill:#0000ff;stroke:#0000ff;" points="611,144 613,140 609,138 608,142 611,144"/></g><g id="node32" class="node"><title>VAV1</title><a xlink:href="VAV1.html"><ellipse cx="698" cy="151" rx="28" ry="15" style="fill:turquoise;stroke:turquoise;"/><text text-anchor="middle" x="698" y="156" style="font-family:Times New Roman;"><![CDATA[VAV1]]></text></a></g><g id="edge32" class="edge"><title>CRK-&gt;VAV1</title><path style="fill:none;stroke:#0000ff;" d="M426,92C474,98 577,112 661,136 665,137 669,138 673,140"/><polygon style="fill:#0000ff;stroke:#0000ff;" points="422,90 422,93 426,94 426,91 422,90"/><polygon style="fill:#0000ff;stroke:#0000ff;" points="675,143 677,139 673,138 671,142 675,143"/></g><g id="node4" class="node"><title>BCAR3</title><a xlink:href="BCAR3.html"><ellipse cx="184" cy="27" rx="32" ry="15" style="fill:turquoise;stroke:turquoise;"/><text text-anchor="middle" x="184" y="31" style="font-family:Times New Roman;"><![CDATA[BCAR3]]></text></a></g><g id="edge4" class="edge"><title>BCAR3-&gt;CRK</title><path style="fill:none;stroke:#0000ff;" d="M212,38C216,40 220,41 224,42 275,59 334,74 369,83"/><polygon style="fill:#0000ff;stroke:#0000ff;" points="210,35 208,39 212,40 214,36 210,35"/><polygon style="fill:#0000ff;stroke:#0000ff;" points="373,86 373,82 369,81 369,85 373,86"/></g><g id="node6" class="node"><title>RAPGEF1</title><a xlink:href="RAPGEF1.html"><ellipse cx="273" cy="27" rx="40" ry="15" style="fill:turquoise;stroke:turquoise;"/><text text-anchor="middle" x="273" y="31" style="font-family:Times New Roman;"><![CDATA[RAPGEF1]]></text></a></g><g id="edge6" class="edge"><title>RAPGEF1-&gt;CRK</title><path style="fill:none;stroke:#0000ff;" d="M301,41C323,52 352,67 372,78"/><polygon style="fill:#0000ff;stroke:#0000ff;" points="299,37 297,41 300,42 302,39 299,37"/><polygon style="fill:#0000ff;stroke:#0000ff;" points="376,81 377,78 373,76 371,80 376,81"/></g><g id="node8" class="node"><title>BCAR1</title><a xlink:href="BCAR1.html"><ellipse cx="361" cy="27" rx="32" ry="15" style="fill:turquoise;stroke:turquoise;"/><text text-anchor="middle" x="361" y="31" style="font-family:Times New Roman;"><![CDATA[BCAR1]]></text></a></g><g id="edge8" class="edge"><title>BCAR1-&gt;CRK</title><path style="fill:none;stroke:#0000ff;" d="M371,45C376,54 382,62 386,71"/><polygon style="fill:#0000ff;stroke:#0000ff;" points="371,41 368,42 370,46 373,44 371,41"/><polygon style="fill:#0000ff;stroke:#0000ff;" points="386,75 390,73 388,70 384,72 386,75"/></g><g id="node10" class="node"><title>CBL</title><a xlink:href="CBL.html"><ellipse cx="432" cy="27" rx="23" ry="15" style="fill:turquoise;stroke:turquoise;"/><text text-anchor="middle" x="432" y="31" style="font-family:Times New Roman;"><![CDATA[CBL]]></text></a></g><g id="edge10" class="edge"><title>CBL-&gt;CRK</title><path style="fill:none;stroke:#0000ff;" d="M422,45C417,53 411,62 407,71"/><polygon style="fill:#0000ff;stroke:#0000ff;" points="425,42 422,41 420,44 423,46 425,42"/><polygon style="fill:#0000ff;stroke:#0000ff;" points="403,73 407,75 409,72 405,70 403,73"/></g><g id="node12" class="node"><title>CTTN</title><a xlink:href="CTTN.html"><ellipse cx="499" cy="27" rx="28" ry="15" style="fill:turquoise;stroke:turquoise;"/><text text-anchor="middle" x="499" y="31" style="font-family:Times New Roman;"><![CDATA[CTTN]]></text></a></g><g id="edge12" class="edge"><title>CTTN-&gt;CRK</title><path style="fill:none;stroke:#0000ff;" d="M477,40C460,50 435,65 419,75"/><polygon style="fill:#0000ff;stroke:#0000ff;" points="481,40 480,36 476,38 478,41 481,40"/><polygon style="fill:#0000ff;stroke:#0000ff;" points="414,76 415,80 419,77 417,73 414,76"/></g><g id="node34" class="node"><title>GAB1</title><a xlink:href="GAB1.html"><ellipse cx="571" cy="27" rx="27" ry="15" style="fill:turquoise;stroke:turquoise;"/><text text-anchor="middle" x="571" y="31" style="font-family:Times New Roman;"><![CDATA[GAB1]]></text></a></g><g id="edge34" class="edge"><title>GAB1-&gt;CRK</title><path style="fill:none;stroke:#0000ff;" d="M546,38C543,40 539,41 536,42 497,58 451,72 423,81"/><polygon style="fill:#0000ff;stroke:#0000ff;" points="550,38 549,35 545,36 547,40 550,38"/><polygon style="fill:#0000ff;stroke:#0000ff;" points="419,80 419,84 423,83 423,80 419,80"/></g><g id="node36" class="node"><title>PTPN1</title><a xlink:href="PTPN1.html"><ellipse cx="644" cy="27" rx="29" ry="15" style="fill:turquoise;stroke:turquoise;"/><text text-anchor="middle" x="644" y="31" style="font-family:Times New Roman;"><![CDATA[PTPN1]]></text></a></g><g id="edge36" class="edge"><title>PTPN1-&gt;CRK</title><path style="fill:none;stroke:#ff0000;" d="M621,37C616,39 611,41 607,42 547,62 475,76 433,83"/><polyline style="fill:none;stroke:#ff0000;" points="433,76 435,89 "/></g></g></g></g>
<!-- navigation controls -->
<g id="navbox">
	<rect x="0" y="0" width="742" height="60"
		 style="fill:rgb(206,207,206);stroke:rgb(0,0,0);stroke-width:1"/>

	<polygon id="pan_right"
        onmouseup="panRight()"
        onmouseover="doHighlight(evt, 'Click to pan to the right')"
        onmouseout="resetHighlight(evt)"
		points="28.0732,13 32,20.5 28.0732,28 28.0732,23.4412 25,23.4412 25,17.4118 28.0732,17.4118"
		 transform="matrix(3.39111 0 0 2.98838 -12.6265 -29.7101)"
         fill="rgb(99,154,206)"
		 style="stroke:rgb(0,0,0);stroke-width:0.5"/>
	<polygon id="pan_left"
        onmouseup="panLeft()"
        onmouseover="doHighlight(evt, 'Click to pan to the left')"
        onmouseout="resetHighlight(evt)"
		points="123.991,25 120.064,32.5 123.991,40 123.991,35.4412 127.064,35.4412 127.064,29.4118
			123.991,29.4118" transform="matrix(3.39111 0 0 2.98838 -404.865 -65.5706)"
         fill="rgb(99,154,206)"
		 style="stroke:rgb(0,0,0);stroke-width:0.5"/>
	<polygon id="pan_down"
        onmouseup="panDown()"
        onmouseover="doHighlight(evt, 'Click to pan down')"
        onmouseout="resetHighlight(evt)"
		points="116.032,32.0408 123.532,35.9678 131.032,32.0408 126.473,32.0408 126.473,28.9678 120.444,28.9678
			120.444,32.0408" transform="matrix(3.39111 0 0 2.98838 -369.822 -50.6287)"
         fill="rgb(99,154,206)"
		 style="stroke:rgb(0,0,0);stroke-width:0.5"/>
	<polygon id="pan_up"
        onmouseup="panUp()"
  onmouseover="doHighlight(evt, 'Click to pan up')"
        onmouseout="resetHighlight(evt)"
		points="116.032,32.0408 123.532,35.9678 131.032,32.0408 126.473,32.0408 126.473,28.9678 120.444,28.9678
			120.444,32.0408" transform="matrix(3.39111 0 0 -2.98838 -369.823 111.74)"
         fill="rgb(99,154,206)"
		 style="stroke:rgb(0,0,0);stroke-width:0.5"/>
	<g id="go_home" 
         onmouseup="panRestore()" 
         onmouseover="doHighlight(evt, 'Click to restore graph to original position')"
         onmouseout="resetHighlight(evt)"
         fill="rgb(99,154,206)"
         transform="matrix(1 0 0 1 0 -0.333333)">
		<rect x="196" y="11" width="26" height="26"
			transform="translate(-19.1111 -2.66667)"
			 style="stroke:rgb(0,0,0);stroke-width:1"/>
		<line x1="182" y1="16" x2="182" y2="28"
			transform="matrix(1 0 0 1 2.22222 0.444444)"
			 style="fill:none;stroke:rgb(0,0,0);stroke-width:2"/>
		<line x1="187" y1="22" x2="187" y2="28"
			transform="matrix(1 0 0 1 2.22222 0.444444)"
			 style="fill:none;stroke:rgb(0,0,0);stroke-width:2"/>
	<line x1="192" y1="13" x2="192" y2="28"
			transform="matrix(1 0 0 1 2.22222 0.444444)"
			 style="fill:none;stroke:rgb(0,0,0);stroke-width:2"/>
		<line x1="182" y1="28" x2="192" y2="28"
			transform="matrix(1 0 0 1 2.22222 0.444444)"
	style="fill:none;stroke:rgb(0,0,0);stroke-width:2"/>
		<line x1="189" y1="12" x2="179" y2="21"
			 style="fill:none;stroke:rgb(0,0,0);stroke-width:2"/>
		<line x1="188" y1="12" x2="199" y2="20"
			 style="fill:none;stroke:rgb(0,0,0);stroke-width:2"/>
	</g>
	<g id="zoom_out" onmouseup="zoomOut()" 
             onmouseover="doHighlight(evt, 'Click to zoom out')"
             onmouseout="resetHighlight(evt)"
             fill="rgb(99,154,206)"
             transform="matrix(1 0 0 1 0 0)">
		<rect x="116" y="8" width="26" height="26"
			 style="stroke:rgb(0,0,0);stroke-width:1"/>
		<ellipse cx="126" cy="18" rx="6" ry="6"
			 style="stroke:rgb(0,0,0);stroke-width:1"/>
		<line x1="130" y1="23" x2="137" y2="29"
			transform="matrix(1 0 0 1 0.888889 -0.888889)"
			 style="fill:none;stroke:rgb(0,0,0);stroke-width:2"/>
		<line x1="123" y1="18" x2="129" y2="18"
			 style="fill:none;stroke:rgb(0,0,0);stroke-width:2"/>
	</g>
	<g id="zoom_in" onmouseup="zoomIn()" 
             onmouseover="doHighlight(evt, 'Click to zoom in')"
             onmouseout="resetHighlight(evt)"
             fill="rgb(99,154,206)"
             transform="matrix(1 0 0 1 0.888889 -0.444444)">
		<rect x="116" y="8" width="26" height="26"
			transform="matrix(1 0 0 1 29.7778 0.444444)"
			 style="stroke:rgb(0,0,0);stroke-width:1"/>
		<ellipse cx="126" cy="18" rx="6" ry="6"
			transform="matrix(1 0 0 1 29.7778 0.444444)"
			 style="stroke:rgb(0,0,0);stroke-width:1"/>
		<line x1="130" y1="23" x2="137" y2="29"
			transform="matrix(1 0 0 1 30.6667 -0.444445)"
		style="fill:none;stroke:rgb(0,0,0);stroke-width:2"/>
		<line x1="123" y1="18" x2="129" y2="18"
			transform="matrix(1 0 0 1 29.7778 0.444444)"
			 style="fill:none;stroke:rgb(0,0,0);stroke-width:2"/>
		<line x1="156" y1="15" x2="156" y2="22"
			 style="fill:none;stroke:rgb(0,0,0);stroke-width:2"/>
	</g>
	<g>
		<rect x="117" y="40" width="452" height="14"
			transform="matrix(1.54201 0 0 1 -64.1436 -0.222222)"
			 style="fill:rgb(192,192,192);stroke:rgb(0,0,0);stroke-width:1"/>
		<text id="status_text" x="183px" y="48px"
			transform="matrix(1 0 0 1 -63.5556 3.00778)"
			 style="fill:rgb(0,0,0);font-size:14;font-family:Arial"> </text>
	</g>
</g>	
</svg>