<?xml version="1.0" encoding="UTF-8" standalone="no"?><!DOCTYPE svg PUBLIC "-//W3C//DTD SVG 1.0//EN" "http://www.w3.org/TR/2001/REC-SVG-20010904/DTD/svg10.dtd" [ <!ATTLIST svg xmlns:xlink CDATA #FIXED "http://www.w3.org/1999/xlink">]><!-- Generated by WinGraphviz version ver1.02.23, 08/01/2003 (08/04/2003)     For user: Avi Ma'ayan   Title: G    Pages: 1 --><svg width="735px" height="271px" xmlns="http://www.w3.org/2000/svg" xmlns:xlink="http://www.w3.org/1999/xlink"><g id="graph0" class="graph" style="font-family:Times New Roman;font-size:18.33;"><title>G</title><g id="node1" class="node"><title>ABL1</title><a xlink:href="ABL1.html"><ellipse cx="140" cy="38" rx="39" ry="23" style="fill:turquoise;stroke:turquoise;"/><text text-anchor="middle" x="140" y="45" style="font-family:Times New Roman;"><![CDATA[ABL1]]></text></a></g><g id="node2" class="node"><title>CRKL</title><a xlink:href="CRKL.html"><ellipse cx="398" cy="133" rx="44" ry="23" style="fill:turquoise;stroke:turquoise;"/><text text-anchor="middle" x="398" y="139" style="font-family:Times New Roman;"><![CDATA[CRKL]]></text></a></g><g id="edge2" class="edge"><title>ABL1-&gt;CRKL</title><path style="fill:none;stroke:#0000ff;" d="M176,55C180,58 186,59 191,62 246,84 310,105 352,119"/><polygon style="fill:#0000ff;stroke:#0000ff;" points="172,50 170,55 175,58 178,53 172,50"/><polygon style="fill:#0000ff;stroke:#0000ff;" points="358,123 358,118 352,117 352,122 358,123"/></g><g id="node10" class="node"><title>NEDD9</title><a xlink:href="NEDD9.html"><ellipse cx="57" cy="227" rx="51" ry="23" style="fill:turquoise;stroke:turquoise;"/><text text-anchor="middle" x="57" y="233" style="font-family:Times New Roman;"><![CDATA[NEDD9]]></text></a></g><g id="edge10" class="edge"><title>CRKL-&gt;NEDD9</title><path style="fill:none;stroke:#0000ff;" d="M349,143C294,155 200,178 120,203 114,206 108,207 102,210"/><polygon style="fill:#0000ff;stroke:#0000ff;" points="356,144 356,139 349,140 349,146 356,144"/><polygon style="fill:#0000ff;stroke:#0000ff;" points="95,208 98,214 104,212 102,207 95,208"/></g><g id="node12" class="node"><title>PXN</title><a xlink:href="PXN.html"><ellipse cx="170" cy="227" rx="37" ry="23" style="fill:turquoise;stroke:turquoise;"/><text text-anchor="middle" x="170" y="233" style="font-family:Times New Roman;"><![CDATA[PXN]]></text></a></g><g id="edge12" class="edge"><title>CRKL-&gt;PXN</title><path style="fill:none;stroke:#0000ff;" d="M354,150C319,163 265,184 220,203 214,206 209,208 205,210"/><polygon style="fill:#0000ff;stroke:#0000ff;" points="362,150 360,144 353,147 356,152 362,150"/><polygon style="fill:#0000ff;stroke:#0000ff;" points="199,210 201,215 206,212 204,207 199,210"/></g><g id="node14" class="node"><title>PIK3CA</title><a xlink:href="PIK3CA.html"><ellipse cx="284" cy="227" rx="52" ry="23" style="fill:turquoise;stroke:turquoise;"/><text text-anchor="middle" x="284" y="233" style="font-family:Times New Roman;"><![CDATA[PIK3CA]]></text></a></g><g id="edge14" class="edge"><title>CRKL-&gt;PIK3CA</title><path style="fill:none;stroke:#0000ff;" d="M369,156C352,171 331,188 314,202"/><polygon style="fill:#0000ff;stroke:#0000ff;" points="377,155 373,150 367,153 371,159 377,155"/><polygon style="fill:#0000ff;stroke:#0000ff;" points="307,203 311,208 316,205 312,199 307,203"/></g><g id="node16" class="node"><title>RICS</title><a xlink:href="RICS.html"><ellipse cx="398" cy="227" rx="37" ry="23" style="fill:turquoise;stroke:turquoise;"/><text text-anchor="middle" x="398" y="233" style="font-family:Times New Roman;"><![CDATA[RICS]]></text></a></g><g id="edge16" class="edge"><title>CRKL-&gt;RICS</title><path style="fill:none;stroke:#0000ff;" d="M398,163C398,173 398,186 398,197"/><polygon style="fill:#0000ff;stroke:#0000ff;" points="402,156 395,156 395,163 402,163 402,156"/><polygon style="fill:#0000ff;stroke:#0000ff;" points="395,203 402,203 402,197 395,197 395,203"/></g><g id="node18" class="node"><title>SHC1</title><a xlink:href="SHC1.html"><ellipse cx="497" cy="227" rx="37" ry="23" style="fill:turquoise;stroke:turquoise;"/><text text-anchor="middle" x="497" y="233" style="font-family:Times New Roman;"><![CDATA[SHC1]]></text></a></g><g id="edge18" class="edge"><title>CRKL-&gt;SHC1</title><path style="fill:none;stroke:#0000ff;" d="M425,157C439,172 456,189 471,203"/><polygon style="fill:#0000ff;stroke:#0000ff;" points="422,151 419,156 424,160 428,155 422,151"/><polygon style="fill:#0000ff;stroke:#0000ff;" points="475,210 479,205 474,201 470,206 475,210"/></g><g id="node20" class="node"><title>SOS1</title><a xlink:href="SOS1.html"><ellipse cx="594" cy="227" rx="35" ry="23" style="fill:turquoise;stroke:turquoise;"/><text text-anchor="middle" x="594" y="233" style="font-family:Times New Roman;"><![CDATA[SOS1]]></text></a></g><g id="edge20" class="edge"><title>CRKL-&gt;SOS1</title><path style="fill:none;stroke:#0000ff;" d="M438,151C468,165 510,186 547,203 552,205 556,207 560,210"/><polygon style="fill:#0000ff;stroke:#0000ff;" points="433,146 430,151 437,153 439,148 433,146"/><polygon style="fill:#0000ff;stroke:#0000ff;" points="564,215 566,210 561,207 559,212 564,215"/></g><g id="node22" class="node"><title>SYK</title><a xlink:href="SYK.html"><ellipse cx="690" cy="227" rx="36" ry="23" style="fill:turquoise;stroke:turquoise;"/><text text-anchor="middle" x="690" y="233" style="font-family:Times New Roman;"><![CDATA[SYK]]></text></a></g><g id="edge22" class="edge"><title>CRKL-&gt;SYK</title><path style="fill:none;stroke:#0000ff;" d="M445,144C493,156 573,178 641,203 646,206 652,207 655,210"/><polygon style="fill:#0000ff;stroke:#0000ff;" points="438,140 438,146 445,147 445,142 438,140"/><polygon style="fill:#0000ff;stroke:#0000ff;" points="659,215 662,210 657,207 654,212 659,215"/></g><g id="node4" class="node"><title>RAPGEF1</title><a xlink:href="RAPGEF1.html"><ellipse cx="264" cy="38" rx="61" ry="23" style="fill:turquoise;stroke:turquoise;"/><text text-anchor="middle" x="264" y="45" style="font-family:Times New Roman;"><![CDATA[RAPGEF1]]></text></a></g><g id="edge4" class="edge"><title>RAPGEF1-&gt;CRKL</title><path style="fill:none;stroke:#0000ff;" d="M299,62C319,76 345,95 365,109"/><polygon style="fill:#0000ff;stroke:#0000ff;" points="295,57 293,62 298,64 301,59 295,57"/><polygon style="fill:#0000ff;stroke:#0000ff;" points="370,116 373,110 367,106 365,112 370,116"/></g><g id="node6" class="node"><title>BCAR1</title><a xlink:href="BCAR1.html"><ellipse cx="398" cy="38" rx="48" ry="23" style="fill:turquoise;stroke:turquoise;"/><text text-anchor="middle" x="398" y="45" style="font-family:Times New Roman;"><![CDATA[BCAR1]]></text></a></g><g id="edge6" class="edge"><title>BCAR1-&gt;CRKL</title><path style="fill:none;stroke:#0000ff;" d="M398,68C398,79 398,92 398,102"/><polygon style="fill:#0000ff;stroke:#0000ff;" points="402,62 395,62 395,68 402,68 402,62"/><polygon style="fill:#0000ff;stroke:#0000ff;" points="395,109 402,109 402,102 395,102 395,109"/></g><g id="node8" class="node"><title>CBL</title><a xlink:href="CBL.html"><ellipse cx="505" cy="38" rx="35" ry="23" style="fill:turquoise;stroke:turquoise;"/><text text-anchor="middle" x="505" y="45" style="font-family:Times New Roman;"><![CDATA[CBL]]></text></a></g><g id="edge8" class="edge"><title>CBL-&gt;CRKL</title><path style="fill:none;stroke:#0000ff;" d="M479,62C462,75 442,93 426,108"/><polygon style="fill:#0000ff;stroke:#0000ff;" points="485,61 480,55 475,61 480,66 485,61"/><polygon style="fill:#0000ff;stroke:#0000ff;" points="420,109 424,114 429,110 425,105 420,109"/></g><g id="node24" class="node"><title>GAB1</title><a xlink:href="GAB1.html"><ellipse cx="606" cy="38" rx="41" ry="23" style="fill:turquoise;stroke:turquoise;"/><text text-anchor="middle" x="606" y="45" style="font-family:Times New Roman;"><![CDATA[GAB1]]></text></a></g><g id="edge24" class="edge"><title>GAB1-&gt;CRKL</title><path style="fill:none;stroke:#0000ff;" d="M568,55C531,72 476,99 438,114"/><polygon style="fill:#0000ff;stroke:#0000ff;" points="574,55 572,50 566,53 569,58 574,55"/><polygon style="fill:#0000ff;stroke:#0000ff;" points="430,114 433,119 439,117 437,112 430,114"/></g></g></svg>