<?xml version="1.0" encoding="UTF-8" standalone="no"?><!DOCTYPE svg PUBLIC "-//W3C//DTD SVG 1.0//EN" "http://www.w3.org/TR/2001/REC-SVG-20010904/DTD/svg10.dtd" [ <!ATTLIST svg xmlns:xlink CDATA #FIXED "http://www.w3.org/1999/xlink">]><!-- Generated by WinGraphviz version ver1.02.23, 08/01/2003 (08/04/2003)     For user: Avi Ma'ayan   Title: G    Pages: 1 --><svg width="735px" height="195px" xmlns="http://www.w3.org/2000/svg" xmlns:xlink="http://www.w3.org/1999/xlink"><g id="graph0" class="graph" style="font-family:Times New Roman;font-size:12.89;"><title>G</title><g id="node1" class="node"><title>CAV1</title><a xlink:href="CAV1.html"><ellipse cx="327" cy="28" rx="29" ry="16" style="fill:turquoise;stroke:turquoise;"/><text text-anchor="middle" x="327" y="33" style="font-family:Times New Roman;"><![CDATA[CAV1]]></text></a></g><g id="node2" class="node"><title>CSK</title><a xlink:href="CSK.html"><ellipse cx="371" cy="95" rx="24" ry="16" style="fill:turquoise;stroke:turquoise;"/><text text-anchor="middle" x="371" y="99" style="font-family:Times New Roman;"><![CDATA[CSK]]></text></a></g><g id="edge2" class="edge"><title>CAV1-&gt;CSK</title><path style="fill:none;stroke:#0000ff;" d="M339,48C345,56 352,67 358,75"/><polygon style="fill:#0000ff;stroke:#0000ff;" points="339,42 335,45 338,49 341,46 339,42"/><polygon style="fill:#0000ff;stroke:#0000ff;" points="359,80 362,77 360,73 356,76 359,80"/></g><g id="node4" class="node"><title>PTK2</title><a xlink:href="PTK2.html"><ellipse cx="35" cy="161" rx="28" ry="16" style="fill:turquoise;stroke:turquoise;"/><text text-anchor="middle" x="35" y="165" style="font-family:Times New Roman;"><![CDATA[PTK2]]></text></a></g><g id="edge4" class="edge"><title>CSK-&gt;PTK2</title><path style="fill:none;stroke:#0000ff;" d="M341,96C287,102 168,116 72,144 68,146 64,147 60,149"/><polygon style="fill:#0000ff;stroke:#0000ff;" points="346,98 346,94 341,94 341,98 346,98"/><polygon style="fill:#0000ff;stroke:#0000ff;" points="56,148 58,152 62,151 60,147 56,148"/></g><g id="node6" class="node"><title>FYN</title><a xlink:href="FYN.html"><ellipse cx="107" cy="161" rx="26" ry="16" style="fill:turquoise;stroke:turquoise;"/><text text-anchor="middle" x="107" y="165" style="font-family:Times New Roman;"><![CDATA[FYN]]></text></a></g><g id="edge6" class="edge"><title>CSK-&gt;FYN</title><path style="fill:none;stroke:darkgreen;" d="M346,98C304,105 214,120 142,144 140,145 137,146 135,147"/><polygon style="fill:darkgreen;stroke:darkgreen;" points="137,149 128,151 135,144 137,149"/></g><g id="node8" class="node"><title>TGFB1I1</title><a xlink:href="TGFB1I1.html"><ellipse cx="187" cy="161" rx="36" ry="16" style="fill:turquoise;stroke:turquoise;"/><text text-anchor="middle" x="187" y="165" style="font-family:Times New Roman;"><![CDATA[TGFB1I1]]></text></a></g><g id="edge8" class="edge"><title>CSK-&gt;TGFB1I1</title><path style="fill:none;stroke:#0000ff;" d="M344,105C316,114 271,131 232,144 227,146 223,147 219,149"/><polygon style="fill:#0000ff;stroke:#0000ff;" points="350,105 348,101 343,103 345,107 350,105"/><polygon style="fill:#0000ff;stroke:#0000ff;" points="214,149 216,153 220,151 218,147 214,149"/></g><g id="node10" class="node"><title>INSR</title><a xlink:href="INSR.html"><ellipse cx="268" cy="161" rx="27" ry="16" style="fill:turquoise;stroke:turquoise;"/><text text-anchor="middle" x="268" y="165" style="font-family:Times New Roman;"><![CDATA[INSR]]></text></a></g><g id="edge10" class="edge"><title>CSK-&gt;INSR</title><path style="fill:none;stroke:#0000ff;" d="M348,109C331,119 308,135 291,146"/><polygon style="fill:#0000ff;stroke:#0000ff;" points="353,108 351,105 348,107 350,111 353,108"/><polygon style="fill:#0000ff;stroke:#0000ff;" points="286,147 289,151 293,148 290,144 286,147"/></g><g id="node12" class="node"><title>IRS1</title><a xlink:href="IRS1.html"><ellipse cx="337" cy="161" rx="24" ry="16" style="fill:turquoise;stroke:turquoise;"/><text text-anchor="middle" x="337" y="165" style="font-family:Times New Roman;"><![CDATA[IRS1]]></text></a></g><g id="edge12" class="edge"><title>CSK-&gt;IRS1</title><path style="fill:none;stroke:darkgreen;" d="M362,110C358,118 353,128 349,137"/><polygon style="fill:darkgreen;stroke:darkgreen;" points="351,138 345,145 347,136 351,138"/></g><g id="node14" class="node"><title>LYN</title><a xlink:href="LYN.html"><ellipse cx="405" cy="161" rx="26" ry="16" style="fill:turquoise;stroke:turquoise;"/><text text-anchor="middle" x="405" y="165" style="font-family:Times New Roman;"><![CDATA[LYN]]></text></a></g><g id="edge14" class="edge"><title>CSK-&gt;LYN</title><path style="fill:none;stroke:darkgreen;" d="M379,110C384,118 388,128 393,136"/><polygon style="fill:darkgreen;stroke:darkgreen;" points="395,135 397,144 391,137 395,135"/></g><g id="node16" class="node"><title>PXN</title><a xlink:href="PXN.html"><ellipse cx="475" cy="161" rx="26" ry="16" style="fill:turquoise;stroke:turquoise;"/><text text-anchor="middle" x="475" y="165" style="font-family:Times New Roman;"><![CDATA[PXN]]></text></a></g><g id="edge16" class="edge"><title>CSK-&gt;PXN</title><path style="fill:none;stroke:#0000ff;" d="M394,109C411,120 434,136 452,147"/><polygon style="fill:#0000ff;stroke:#0000ff;" points="390,105 388,108 392,111 394,107 390,105"/><polygon style="fill:#0000ff;stroke:#0000ff;" points="455,151 456,147 453,145 451,149 455,151"/></g><g id="node18" class="node"><title>PTPN12</title><a xlink:href="PTPN12.html"><ellipse cx="554" cy="161" rx="35" ry="16" style="fill:turquoise;stroke:turquoise;"/><text text-anchor="middle" x="554" y="165" style="font-family:Times New Roman;"><![CDATA[PTPN12]]></text></a></g><g id="edge18" class="edge"><title>CSK-&gt;PTPN12</title><path style="fill:none;stroke:#0000ff;" d="M397,105C426,114 470,131 510,144 514,146 518,147 523,149"/><polygon style="fill:#0000ff;stroke:#0000ff;" points="394,101 392,105 397,107 398,103 394,101"/><polygon style="fill:#0000ff;stroke:#0000ff;" points="525,153 527,149 524,147 522,151 525,153"/></g><g id="node20" class="node"><title>SHC1</title><a xlink:href="SHC1.html"><ellipse cx="633" cy="161" rx="26" ry="16" style="fill:turquoise;stroke:turquoise;"/><text text-anchor="middle" x="633" y="165" style="font-family:Times New Roman;"><![CDATA[SHC1]]></text></a></g><g id="edge20" class="edge"><title>CSK-&gt;SHC1</title><path style="fill:none;stroke:#0000ff;" d="M399,99C444,106 528,121 598,144 602,146 606,147 608,149"/><polygon style="fill:#0000ff;stroke:#0000ff;" points="395,96 395,100 399,101 399,97 395,96"/><polygon style="fill:#0000ff;stroke:#0000ff;" points="611,153 613,149 609,147 607,151 611,153"/></g><g id="node22" class="node"><title>SRC</title><a xlink:href="SRC.html"><ellipse cx="701" cy="161" rx="24" ry="16" style="fill:turquoise;stroke:turquoise;"/><text text-anchor="middle" x="701" y="165" style="font-family:Times New Roman;"><![CDATA[SRC]]></text></a></g><g id="edge22" class="edge"><title>CSK-&gt;SRC</title><path style="fill:none;stroke:darkgreen;" d="M396,96C447,100 570,112 668,144 670,145 672,146 675,147"/><polygon style="fill:darkgreen;stroke:darkgreen;" points="675,144 682,150 673,149 675,144"/></g><g id="node24" class="node"><title>PRKACA</title><a xlink:href="PRKACA.html"><ellipse cx="416" cy="28" rx="43" ry="16" style="fill:turquoise;stroke:turquoise;"/><text text-anchor="middle" x="416" y="33" style="font-family:Times New Roman;"><![CDATA[PRKACA]]></text></a></g><g id="edge24" class="edge"><title>PRKACA-&gt;CSK</title><path style="fill:none;stroke:darkgreen;" d="M405,44C399,52 392,63 386,72"/><polygon style="fill:darkgreen;stroke:darkgreen;" points="388,73 382,79 385,70 388,73"/></g></g></svg>