<?xml version="1.0" encoding="UTF-8" standalone="no"?><!DOCTYPE svg PUBLIC "-//W3C//DTD SVG 1.0//EN" "http://www.w3.org/TR/2001/REC-SVG-20010904/DTD/svg10.dtd" [ <!ATTLIST svg xmlns:xlink CDATA #FIXED "http://www.w3.org/1999/xlink">]><!-- Generated by WinGraphviz version ver1.02.23, 08/01/2003 (08/04/2003)     For user: Avi Ma'ayan   Title: G    Pages: 1 --><svg width="226px" height="276px" xmlns="http://www.w3.org/2000/svg" xmlns:xlink="http://www.w3.org/1999/xlink"><g id="graph0" class="graph" style="font-family:Times New Roman;font-size:18.67;"><title>G</title><g id="node1" class="node"><title>ACTB</title><a xlink:href="ACTB.html"><ellipse cx="50" cy="39" rx="44" ry="24" style="fill:turquoise;stroke:turquoise;"/><text text-anchor="middle" x="50" y="46" style="font-family:Times New Roman;"><![CDATA[ACTB]]></text></a></g><g id="node2" class="node"><title>CSRP1</title><a xlink:href="CSRP1.html"><ellipse cx="109" cy="135" rx="44" ry="24" style="fill:turquoise;stroke:turquoise;"/><text text-anchor="middle" x="109" y="142" style="font-family:Times New Roman;"><![CDATA[CSRP1]]></text></a></g><g id="edge2" class="edge"><title>ACTB-&gt;CSRP1</title><path style="fill:none;stroke:#0000ff;" d="M68,67C76,81 85,94 93,107"/><polygon style="fill:#0000ff;stroke:#0000ff;" points="68,61 62,63 65,69 70,66 68,61"/><polygon style="fill:#0000ff;stroke:#0000ff;" points="93,114 98,111 96,106 90,109 93,114"/></g><g id="node6" class="node"><title>ZYX</title><a xlink:href="ZYX.html"><ellipse cx="109" cy="231" rx="38" ry="24" style="fill:turquoise;stroke:turquoise;"/><text text-anchor="middle" x="109" y="238" style="font-family:Times New Roman;"><![CDATA[ZYX]]></text></a></g><g id="edge6" class="edge"><title>CSRP1-&gt;ZYX</title><path style="fill:none;stroke:#0000ff;" d="M109,166C109,177 109,190 109,201"/><polygon style="fill:#0000ff;stroke:#0000ff;" points="113,159 106,159 106,166 113,166 113,159"/><polygon style="fill:#0000ff;stroke:#0000ff;" points="106,207 113,207 113,201 106,201 106,207"/></g><g id="node4" class="node"><title>ACTN1</title><a xlink:href="ACTN1.html"><ellipse cx="167" cy="39" rx="49" ry="24" style="fill:turquoise;stroke:turquoise;"/><text text-anchor="middle" x="167" y="46" style="font-family:Times New Roman;"><![CDATA[ACTN1]]></text></a></g><g id="edge4" class="edge"><title>ACTN1-&gt;CSRP1</title><path style="fill:none;stroke:#0000ff;" d="M150,67C142,81 133,94 125,107"/><polygon style="fill:#0000ff;stroke:#0000ff;" points="155,63 150,61 147,66 153,69 155,63"/><polygon style="fill:#0000ff;stroke:#0000ff;" points="120,111 125,114 128,109 122,106 120,111"/></g></g></svg>