<?xml version="1.0" encoding="UTF-8" standalone="no"?><!DOCTYPE svg PUBLIC "-//W3C//DTD SVG 1.0//EN" "http://www.w3.org/TR/2001/REC-SVG-20010904/DTD/svg10.dtd" [ <!ATTLIST svg xmlns:xlink CDATA #FIXED "http://www.w3.org/1999/xlink">]><!-- Generated by WinGraphviz version ver1.02.23, 08/01/2003 (08/04/2003)     For user: Avi Ma'ayan   Title: G    Pages: 1 --><svg width="663px" height="276px" xmlns="http://www.w3.org/2000/svg" xmlns:xlink="http://www.w3.org/1999/xlink"><g id="graph0" class="graph" style="font-family:Times New Roman;font-size:18.67;"><title>G</title><g id="node1" class="node"><title>ACTB</title><a xlink:href="ACTB.html"><ellipse cx="50" cy="39" rx="44" ry="24" style="fill:turquoise;stroke:turquoise;"/><text text-anchor="middle" x="50" y="46" style="font-family:Times New Roman;"><![CDATA[ACTB]]></text></a></g><g id="node2" class="node"><title>CTTN</title><a xlink:href="CTTN.html"><ellipse cx="350" cy="135" rx="44" ry="24" style="fill:turquoise;stroke:turquoise;"/><text text-anchor="middle" x="350" y="142" style="font-family:Times New Roman;"><![CDATA[CTTN]]></text></a></g><g id="edge2" class="edge"><title>ACTB-&gt;CTTN</title><path style="fill:none;stroke:#0000ff;" d="M89,57C94,59 101,61 106,63 174,87 254,110 304,123"/><polygon style="fill:#0000ff;stroke:#0000ff;" points="85,53 82,58 89,59 92,54 85,53"/><polygon style="fill:#0000ff;stroke:#0000ff;" points="310,127 310,122 304,121 304,126 310,127"/></g><g id="node10" class="node"><title>CRK</title><a xlink:href="CRK.html"><ellipse cx="239" cy="231" rx="38" ry="24" style="fill:turquoise;stroke:turquoise;"/><text text-anchor="middle" x="239" y="238" style="font-family:Times New Roman;"><![CDATA[CRK]]></text></a></g><g id="edge10" class="edge"><title>CTTN-&gt;CRK</title><path style="fill:none;stroke:#0000ff;" d="M321,159C304,174 284,193 268,207"/><polygon style="fill:#0000ff;stroke:#0000ff;" points="329,158 325,153 320,157 324,162 329,158"/><polygon style="fill:#0000ff;stroke:#0000ff;" points="261,209 265,214 270,210 266,205 261,209"/></g><g id="node12" class="node"><title>DNM2</title><a xlink:href="DNM2.html"><ellipse cx="350" cy="231" rx="48" ry="24" style="fill:turquoise;stroke:turquoise;"/><text text-anchor="middle" x="350" y="238" style="font-family:Times New Roman;"><![CDATA[DNM2]]></text></a></g><g id="edge12" class="edge"><title>CTTN-&gt;DNM2</title><path style="fill:none;stroke:#0000ff;" d="M350,166C350,177 350,190 350,201"/><polygon style="fill:#0000ff;stroke:#0000ff;" points="354,159 348,159 348,166 354,166 354,159"/><polygon style="fill:#0000ff;stroke:#0000ff;" points="348,207 354,207 354,201 348,201 348,207"/></g><g id="node14" class="node"><title>PAK1</title><a xlink:href="PAK1.html"><ellipse cx="464" cy="231" rx="41" ry="24" style="fill:turquoise;stroke:turquoise;"/><text text-anchor="middle" x="464" y="238" style="font-family:Times New Roman;"><![CDATA[PAK1]]></text></a></g><g id="edge14" class="edge"><title>CTTN-&gt;PAK1</title><path style="fill:none;stroke:#0000ff;" d="M380,159C397,174 418,193 436,207"/><polygon style="fill:#0000ff;stroke:#0000ff;" points="377,153 373,158 378,162 382,157 377,153"/><polygon style="fill:#0000ff;stroke:#0000ff;" points="440,214 444,209 438,205 434,210 440,214"/></g><g id="node4" class="node"><title>ARPC2</title><a xlink:href="ARPC2.html"><ellipse cx="169" cy="39" rx="50" ry="24" style="fill:turquoise;stroke:turquoise;"/><text text-anchor="middle" x="169" y="46" style="font-family:Times New Roman;"><![CDATA[ARPC2]]></text></a></g><g id="edge4" class="edge"><title>ARPC2-&gt;CTTN</title><path style="fill:none;stroke:#0000ff;" d="M209,61C239,77 282,101 312,115"/><polygon style="fill:#0000ff;stroke:#0000ff;" points="205,55 202,61 207,63 210,58 205,55"/><polygon style="fill:#0000ff;stroke:#0000ff;" points="317,121 320,115 313,113 310,118 317,121"/></g><g id="node6" class="node"><title>DDEF1</title><a xlink:href="DDEF1.html"><ellipse cx="290" cy="39" rx="46" ry="24" style="fill:turquoise;stroke:turquoise;"/><text text-anchor="middle" x="290" y="46" style="font-family:Times New Roman;"><![CDATA[DDEF1]]></text></a></g><g id="edge6" class="edge"><title>DDEF1-&gt;CTTN</title><path style="fill:none;stroke:#0000ff;" d="M308,67C316,81 325,94 333,107"/><polygon style="fill:#0000ff;stroke:#0000ff;" points="308,61 302,63 305,69 310,66 308,61"/><polygon style="fill:#0000ff;stroke:#0000ff;" points="333,114 338,111 336,106 330,109 333,114"/></g><g id="node8" class="node"><title>CAPN1</title><a xlink:href="CAPN1.html"><ellipse cx="410" cy="39" rx="49" ry="24" style="fill:turquoise;stroke:turquoise;"/><text text-anchor="middle" x="410" y="46" style="font-family:Times New Roman;"><![CDATA[CAPN1]]></text></a></g><g id="edge8" class="edge"><title>CAPN1-&gt;CTTN</title><path style="fill:none;stroke:#ff0000;" d="M396,62C389,73 382,85 376,95"/><polyline style="fill:none;stroke:#ff0000;" points="366,90 384,101 "/></g><g id="node16" class="node"><title>SRC</title><a xlink:href="SRC.html"><ellipse cx="519" cy="39" rx="36" ry="24" style="fill:turquoise;stroke:turquoise;"/><text text-anchor="middle" x="519" y="46" style="font-family:Times New Roman;"><![CDATA[SRC]]></text></a></g><g id="edge16" class="edge"><title>SRC-&gt;CTTN</title><path style="fill:none;stroke:darkgreen;" d="M492,55C464,71 422,94 392,111"/><polygon style="fill:darkgreen;stroke:darkgreen;" points="394,114 381,118 390,109 394,114"/></g><g id="node18" class="node"><title>SYK</title><a xlink:href="SYK.html"><ellipse cx="617" cy="39" rx="37" ry="24" style="fill:turquoise;stroke:turquoise;"/><text text-anchor="middle" x="617" y="46" style="font-family:Times New Roman;"><![CDATA[SYK]]></text></a></g><g id="edge18" class="edge"><title>SYK-&gt;CTTN</title><path style="fill:none;stroke:darkgreen;" d="M587,55C581,58 574,61 567,63 512,86 446,107 402,121"/><polygon style="fill:darkgreen;stroke:darkgreen;" points="404,123 390,125 402,117 404,123"/></g></g></svg>