<?xml version="1.0" encoding="UTF-8" standalone="no"?><!DOCTYPE svg PUBLIC "-//W3C//DTD SVG 1.0//EN" "http://www.w3.org/TR/2001/REC-SVG-20010904/DTD/svg10.dtd" [ <!ATTLIST svg xmlns:xlink CDATA #FIXED "http://www.w3.org/1999/xlink">]><!-- Generated by WinGraphviz version ver1.02.23, 08/01/2003 (08/04/2003)     For user: Avi Ma'ayan   Title: G    Pages: 1 --><svg width="538px" height="276px" xmlns="http://www.w3.org/2000/svg" xmlns:xlink="http://www.w3.org/1999/xlink"><g id="graph0" class="graph" style="font-family:Times New Roman;font-size:18.67;"><title>G</title><g id="node1" class="node"><title>DDEF1</title><a xlink:href="DDEF1.html"><ellipse cx="264" cy="135" rx="46" ry="24" style="fill:turquoise;stroke:turquoise;"/><text text-anchor="middle" x="264" y="142" style="font-family:Times New Roman;"><![CDATA[DDEF1]]></text></a></g><g id="node2" class="node"><title>ARF1</title><a xlink:href="ARF1.html"><ellipse cx="46" cy="231" rx="40" ry="24" style="fill:turquoise;stroke:turquoise;"/><text text-anchor="middle" x="46" y="238" style="font-family:Times New Roman;"><![CDATA[ARF1]]></text></a></g><g id="edge2" class="edge"><title>DDEF1-&gt;ARF1</title><path style="fill:none;stroke:#ff0000;" d="M227,151C194,166 142,187 98,207 97,207 96,209 94,209"/><polyline style="fill:none;stroke:#ff0000;" points="92,199 101,217 "/></g><g id="node4" class="node"><title>CTTN</title><a xlink:href="CTTN.html"><ellipse cx="154" cy="231" rx="44" ry="24" style="fill:turquoise;stroke:turquoise;"/><text text-anchor="middle" x="154" y="238" style="font-family:Times New Roman;"><![CDATA[CTTN]]></text></a></g><g id="edge4" class="edge"><title>DDEF1-&gt;CTTN</title><path style="fill:none;stroke:#0000ff;" d="M234,161C218,175 198,193 183,207"/><polygon style="fill:#0000ff;stroke:#0000ff;" points="242,159 238,154 233,158 237,163 242,159"/><polygon style="fill:#0000ff;stroke:#0000ff;" points="177,209 181,214 186,210 182,205 177,209"/></g><g id="node6" class="node"><title>PTK2</title><a xlink:href="PTK2.html"><ellipse cx="264" cy="231" rx="41" ry="24" style="fill:turquoise;stroke:turquoise;"/><text text-anchor="middle" x="264" y="238" style="font-family:Times New Roman;"><![CDATA[PTK2]]></text></a></g><g id="edge6" class="edge"><title>DDEF1-&gt;PTK2</title><path style="fill:none;stroke:#0000ff;" d="M264,166C264,177 264,190 264,201"/><polygon style="fill:#0000ff;stroke:#0000ff;" points="268,159 261,159 261,166 268,166 268,159"/><polygon style="fill:#0000ff;stroke:#0000ff;" points="261,207 268,207 268,201 261,201 261,207"/></g><g id="node8" class="node"><title>PXN</title><a xlink:href="PXN.html"><ellipse cx="368" cy="231" rx="38" ry="24" style="fill:turquoise;stroke:turquoise;"/><text text-anchor="middle" x="368" y="238" style="font-family:Times New Roman;"><![CDATA[PXN]]></text></a></g><g id="edge8" class="edge"><title>DDEF1-&gt;PXN</title><path style="fill:none;stroke:#0000ff;" d="M292,161C306,175 326,193 341,207"/><polygon style="fill:#0000ff;stroke:#0000ff;" points="289,154 285,159 290,163 294,158 289,154"/><polygon style="fill:#0000ff;stroke:#0000ff;" points="345,214 349,209 344,205 340,210 345,214"/></g><g id="node10" class="node"><title>PTK2B</title><a xlink:href="PTK2B.html"><ellipse cx="480" cy="231" rx="49" ry="24" style="fill:turquoise;stroke:turquoise;"/><text text-anchor="middle" x="480" y="238" style="font-family:Times New Roman;"><![CDATA[PTK2B]]></text></a></g><g id="edge10" class="edge"><title>DDEF1-&gt;PTK2B</title><path style="fill:none;stroke:#0000ff;" d="M306,154C345,170 401,195 438,213"/><polygon style="fill:#0000ff;stroke:#0000ff;" points="301,149 298,154 305,157 308,151 301,149"/><polygon style="fill:#0000ff;stroke:#0000ff;" points="442,218 445,213 440,210 437,215 442,218"/></g><g id="node12" class="node"><title>SH3KBP1</title><a xlink:href="SH3KBP1.html"><ellipse cx="145" cy="39" rx="58" ry="24" style="fill:turquoise;stroke:turquoise;"/><text text-anchor="middle" x="145" y="46" style="font-family:Times New Roman;"><![CDATA[SH3KBP1]]></text></a></g><g id="edge12" class="edge"><title>SH3KBP1-&gt;DDEF1</title><path style="fill:none;stroke:#0000ff;" d="M175,65C193,79 214,97 233,111"/><polygon style="fill:#0000ff;stroke:#0000ff;" points="174,58 169,63 174,69 179,63 174,58"/><polygon style="fill:#0000ff;stroke:#0000ff;" points="237,118 241,113 235,109 231,114 237,118"/></g><g id="node14" class="node"><title>PIP2</title><a xlink:href="PIP2.html"><ellipse cx="264" cy="39" rx="36" ry="24" style="fill:turquoise;stroke:turquoise;"/><text text-anchor="middle" x="264" y="46" style="font-family:Times New Roman;"><![CDATA[PIP2]]></text></a></g><g id="edge14" class="edge"><title>PIP2-&gt;DDEF1</title><path style="fill:none;stroke:darkgreen;" d="M264,63C264,74 264,86 264,98"/><polygon style="fill:darkgreen;stroke:darkgreen;" points="268,98 264,111 261,98 268,98"/></g><g id="node16" class="node"><title>SRC</title><a xlink:href="SRC.html"><ellipse cx="360" cy="39" rx="36" ry="24" style="fill:turquoise;stroke:turquoise;"/><text text-anchor="middle" x="360" y="46" style="font-family:Times New Roman;"><![CDATA[SRC]]></text></a></g><g id="edge16" class="edge"><title>SRC-&gt;DDEF1</title><path style="fill:none;stroke:darkgreen;" d="M340,59C326,73 309,90 294,105"/><polygon style="fill:darkgreen;stroke:darkgreen;" points="297,107 285,114 292,102 297,107"/></g></g></svg>