<?xml version="1.0" encoding="UTF-8" standalone="no"?><!DOCTYPE svg PUBLIC "-//W3C//DTD SVG 1.0//EN" "http://www.w3.org/TR/2001/REC-SVG-20010904/DTD/svg10.dtd" [ <!ATTLIST svg xmlns:xlink CDATA #FIXED "http://www.w3.org/1999/xlink">]><!-- Generated by WinGraphviz version ver1.02.23, 08/01/2003 (08/04/2003)     For user: Avi Ma'ayan   Title: G    Pages: 1 --><svg width="210px" height="276px" xmlns="http://www.w3.org/2000/svg" xmlns:xlink="http://www.w3.org/1999/xlink"><g id="graph0" class="graph" style="font-family:Times New Roman;font-size:18.67;"><title>G</title><g id="node1" class="node"><title>DDEF2</title><a xlink:href="DDEF2.html"><ellipse cx="110" cy="135" rx="49" ry="24" style="fill:turquoise;stroke:turquoise;"/><text text-anchor="middle" x="110" y="142" style="font-family:Times New Roman;"><![CDATA[DDEF2]]></text></a></g><g id="node2" class="node"><title>ARF1</title><a xlink:href="ARF1.html"><ellipse cx="59" cy="231" rx="40" ry="24" style="fill:turquoise;stroke:turquoise;"/><text text-anchor="middle" x="59" y="238" style="font-family:Times New Roman;"><![CDATA[ARF1]]></text></a></g><g id="edge2" class="edge"><title>DDEF2-&gt;ARF1</title><path style="fill:none;stroke:#ff0000;" d="M98,159C93,169 88,179 81,190"/><polyline style="fill:none;stroke:#ff0000;" points="73,185 90,194 "/></g><g id="node4" class="node"><title>PXN</title><a xlink:href="PXN.html"><ellipse cx="162" cy="231" rx="38" ry="24" style="fill:turquoise;stroke:turquoise;"/><text text-anchor="middle" x="162" y="238" style="font-family:Times New Roman;"><![CDATA[PXN]]></text></a></g><g id="edge4" class="edge"><title>DDEF2-&gt;PXN</title><path style="fill:none;stroke:#0000ff;" d="M125,163C132,177 139,190 147,203"/><polygon style="fill:#0000ff;stroke:#0000ff;" points="125,157 120,159 122,165 128,162 125,157"/><polygon style="fill:#0000ff;stroke:#0000ff;" points="147,210 153,207 150,202 145,205 147,210"/></g><g id="node6" class="node"><title>PTK2B</title><a xlink:href="PTK2B.html"><ellipse cx="55" cy="39" rx="49" ry="24" style="fill:turquoise;stroke:turquoise;"/><text text-anchor="middle" x="55" y="46" style="font-family:Times New Roman;"><![CDATA[PTK2B]]></text></a></g><g id="edge6" class="edge"><title>PTK2B-&gt;DDEF2</title><path style="fill:none;stroke:darkgreen;" d="M69,62C76,74 84,89 90,101"/><polygon style="fill:darkgreen;stroke:darkgreen;" points="93,99 97,113 88,102 93,99"/></g><g id="node8" class="node"><title>SRC</title><a xlink:href="SRC.html"><ellipse cx="165" cy="39" rx="36" ry="24" style="fill:turquoise;stroke:turquoise;"/><text text-anchor="middle" x="165" y="46" style="font-family:Times New Roman;"><![CDATA[SRC]]></text></a></g><g id="edge8" class="edge"><title>SRC-&gt;DDEF2</title><path style="fill:none;stroke:darkgreen;" d="M151,62C145,73 137,87 130,101"/><polygon style="fill:darkgreen;stroke:darkgreen;" points="133,102 124,111 128,98 133,102"/></g></g></svg>