<?xml version="1.0" encoding="UTF-8" standalone="no"?><!DOCTYPE svg PUBLIC "-//W3C//DTD SVG 1.0//EN" "http://www.w3.org/TR/2001/REC-SVG-20010904/DTD/svg10.dtd" [ <!ATTLIST svg xmlns:xlink CDATA #FIXED "http://www.w3.org/1999/xlink">]><!-- Generated by WinGraphviz version ver1.02.23, 08/01/2003 (08/04/2003)     For user: Avi Ma'ayan   Title: G    Pages: 1 --><svg width="188px" height="180px" xmlns="http://www.w3.org/2000/svg" xmlns:xlink="http://www.w3.org/1999/xlink"><g id="graph0" class="graph" style="font-family:Times New Roman;font-size:18.67;"><title>G</title><g id="node1" class="node"><title>DMN</title><a xlink:href="DMN.html"><ellipse cx="93" cy="39" rx="42" ry="24" style="fill:turquoise;stroke:turquoise;"/><text text-anchor="middle" x="93" y="46" style="font-family:Times New Roman;"><![CDATA[DMN]]></text></a></g><g id="node2" class="node"><title>VIM</title><a xlink:href="VIM.html"><ellipse cx="43" cy="135" rx="37" ry="24" style="fill:turquoise;stroke:turquoise;"/><text text-anchor="middle" x="43" y="142" style="font-family:Times New Roman;"><![CDATA[VIM]]></text></a></g><g id="edge2" class="edge"><title>DMN-&gt;VIM</title><path style="fill:none;stroke:#0000ff;" d="M78,67C73,81 65,94 58,107"/><polygon style="fill:#0000ff;stroke:#0000ff;" points="84,63 78,61 76,66 81,69 84,63"/><polygon style="fill:#0000ff;stroke:#0000ff;" points="53,111 58,114 61,109 55,106 53,111"/></g><g id="node4" class="node"><title>VCL</title><a xlink:href="VCL.html"><ellipse cx="142" cy="135" rx="37" ry="24" style="fill:turquoise;stroke:turquoise;"/><text text-anchor="middle" x="142" y="142" style="font-family:Times New Roman;"><![CDATA[VCL]]></text></a></g><g id="edge4" class="edge"><title>DMN-&gt;VCL</title><path style="fill:none;stroke:#0000ff;" d="M108,67C113,81 121,94 128,107"/><polygon style="fill:#0000ff;stroke:#0000ff;" points="108,61 102,63 105,69 110,66 108,61"/><polygon style="fill:#0000ff;stroke:#0000ff;" points="128,114 133,111 130,106 125,109 128,114"/></g></g></svg>