<?xml version="1.0" encoding="UTF-8" standalone="no"?><!DOCTYPE svg PUBLIC "-//W3C//DTD SVG 1.0//EN" "http://www.w3.org/TR/2001/REC-SVG-20010904/DTD/svg10.dtd" [ <!ATTLIST svg xmlns:xlink CDATA #FIXED "http://www.w3.org/1999/xlink">]><!-- Generated by WinGraphviz version ver1.02.23, 08/01/2003 (08/04/2003)     For user: Avi Ma'ayan   Title: G    Pages: 1 --><!--="735px" height="231px" xmlns="http://www.w3.org/2000/svg" --><svg onload="init(evt)" width="735px" height="600px" xmlns="http://www.w3.org/2000/svg" xmlns:xlink="http://www.w3.org/1999/xlink">
<script type="text/ecmascript">
<![CDATA[
var svgDocument;
var zoomAmt;
var xOffset;
var yOffset;
var scale;
var maxScale;
var imageWidth;
var imageHeight;
function init(evt)
{
    svgDocument = evt.getTarget().getOwnerDocument();
    zoomAmt = 0;
    xOffset = 0;
    yOffset = 60;
    scale = 0.8;
    maxScale = 10;
    imageWidth = 742;
    imageHeight = 606;
    panRestore();
    //panUp();
}
function transformMap ()
{
    var obj = svgDocument.getElementById("Pathway");
    var centerX = imageWidth  / 2.0;
    var centerY = imageHeight / 2.0;
    var adjustX = (-centerX * (scale - 0.8)) + xOffset;
    var adjustY = (-centerY * (scale - 0.8)) + yOffset;
    var transParms = 'translate(' + adjustX + ',' + adjustY + ') ';
    transParms += 'scale(' + scale + ')';
    // alert(transParms);
    obj.setAttribute("transform", transParms); 
}
function click_node(id)
{
    var testx = parent.click_node;
    if (typeof(testx) == "function")
    {
		parent.click_node(id);
    }
}
function click_relation(id)
{
    var testx = parent.click_relation;
    if (typeof(testx) == "function")
    {
        parent.click_relation(id);
    }
}
function click_pathway(toId, fromId)
{
    var testx = parent.click_pathway;
    if (typeof(testx) == "function")
    {
	parent.click_pathway(toId, fromId);
    }
}
function check_interpath(evt, pathid)
{
  var obj = evt.getTarget();
  var testx = parent.is_frompath;
  var child = obj.firstChild;
  if (typeof(testx) == "function")
  {
    if (parent.is_frompath(pathid))
    {
      while (child != null)
      {
        if (child.nodeType == 1)
        {
          if ((child.localName == "g") || (child.localName == "polyline"))
          {
            child.setAttribute("style", "fill:none;stroke:red");
          }
          else if (child.localName == "polygon")
          {
            child.setAttribute("style", "fill:red;stroke:red");
          }
        }
        child = child.nextSibling;
      }
    }
  }
}
function set_status (msg)
{
 var obj = svgDocument.getElementById("status_text");
  var child;
 
  child = obj.firstChild;
  if ((child != null) && (child.nodeType == 3))
  {
    if ((msg != null) && (msg.length > 0))
    {
      child.data = msg;
    }
    else
    {
child.data = " ";
    }
  }
}
function zoomIn ()
{
    scale = scale + 0.8;
    if (scale > maxScale)
    {
       scale = maxScale;
    }
    transformMap();
    panUp();
    panUp();
    panUp();
    panUp();
    panUp();
    panUp();
    panUp();
    panUp();
    panUp();
    panUp();
    panUp();
    panUp();
}
function zoomOut ()
{
    scale = scale - 0.8;
    if (scale < 0.8)
    {
       scale = 0.8;
    }
    transformMap();
    panDown();
    panDown();
    panDown();
    panDown();
    panDown();
    panDown();
    panDown();
    panDown();
    panDown();
    panDown();
    panDown();
    panDown();
}
function panUp ()
{
    yOffset = yOffset + 20;
    transformMap();
}
function panDown ()
{
    yOffset = yOffset - 20;
    transformMap();
}
function panLeft ()
{
    xOffset = xOffset + 20;
    transformMap();
}
function panRight ()
{
    xOffset = xOffset - 20;
    transformMap();
}
function panRestore ()
{
    xOffset = 0;
    yOffset = 0;
    scale = 0.5;
    //obj = svgDocument.getElementById("zoom");
    //obj.setAttribute("x1", 0);
    //obj.setAttribute("x2", 0);
    transformMap();    
}
function doHighlight (evt, msg)
{
  var obj = evt.getTarget();
  obj.setAttribute("fill", "rgb(239,24,33)");
  set_status(msg);
}
function resetHighlight (evt)
{
  var obj = evt.getTarget();
  obj.setAttribute("fill", "rgb(99,154,206)");
  set_status(" ");
}
// ]]>
</script>
<defs>
<clipPath id="theClip">
<polygon points="1 61, 741 61, 741 665, 1 665"
style="fill: none;"/>
</clipPath>
</defs>
<!-- viewport outline -->
<rect x="0" y="61" width="742" height="606"
style="stroke: black; stroke-width: 1; fill: none;"/>
<!-- pathway graph style="clip-path: url(#theClip);" -->
<g style="clip-path: url(#theClip);">
<g id="Pathway"  transform="translate(0,60)">
<!-- prefile.include ends, begin pathway graph -->
<g id="stkecm;CMP_10705" class="graph">
</g>
<g id="graph0" class="graph" style="font-family:Times New Roman;font-size:15.46;"><title>G</title><g id="node1" class="node"><title>SORBS2</title><a xlink:href="SORBS2.html"><ellipse cx="181" cy="33" rx="45" ry="19" style="fill:turquoise;stroke:turquoise;"/><text text-anchor="middle" x="181" y="39" style="font-family:Times New Roman;"><![CDATA[SORBS2]]></text></a></g><g id="node2" class="node"><title>DNM2</title><a xlink:href="DNM2.html"><ellipse cx="366" cy="113" rx="39" ry="19" style="fill:turquoise;stroke:turquoise;"/><text text-anchor="middle" x="366" y="118" style="font-family:Times New Roman;"><![CDATA[DNM2]]></text></a></g><g id="edge2" class="edge"><title>SORBS2-&gt;DNM2</title><path style="fill:none;stroke:#0000ff;" d="M218,50C250,63 298,84 331,97"/><polygon style="fill:#0000ff;stroke:#0000ff;" points="215,45 213,50 217,52 219,47 215,45"/><polygon style="fill:#0000ff;stroke:#0000ff;" points="335,102 337,97 332,95 330,99 335,102"/></g><g id="node10" class="node"><title>PTK2</title><a xlink:href="PTK2.html"><ellipse cx="40" cy="192" rx="34" ry="19" style="fill:turquoise;stroke:turquoise;"/><text text-anchor="middle" x="40" y="198" style="font-family:Times New Roman;"><![CDATA[PTK2]]></text></a></g><g id="edge10" class="edge"><title>DNM2-&gt;PTK2</title><path style="fill:none;stroke:#0000ff;" d="M323,120C257,134 130,158 85,172 80,174 76,176 71,178"/><polygon style="fill:#0000ff;stroke:#0000ff;" points="329,121 329,117 323,118 323,123 329,121"/><polygon style="fill:#0000ff;stroke:#0000ff;" points="66,178 68,182 72,180 70,176 66,178"/></g><g id="node12" class="node"><title>GRB2</title><a xlink:href="GRB2.html"><ellipse cx="131" cy="192" rx="36" ry="19" style="fill:turquoise;stroke:turquoise;"/><text text-anchor="middle" x="131" y="198" style="font-family:Times New Roman;"><![CDATA[GRB2]]></text></a></g><g id="edge12" class="edge"><title>DNM2-&gt;GRB2</title><path style="fill:none;stroke:#0000ff;" d="M326,124C288,136 228,155 177,172 173,174 168,177 164,178"/><polygon style="fill:#0000ff;stroke:#0000ff;" points="332,125 332,120 326,121 326,126 332,125"/><polygon style="fill:#0000ff;stroke:#0000ff;" points="159,178 161,182 165,180 163,176 159,178"/></g><g id="node14" class="node"><title>NCK2</title><a xlink:href="NCK2.html"><ellipse cx="225" cy="192" rx="37" ry="19" style="fill:turquoise;stroke:turquoise;"/><text text-anchor="middle" x="225" y="198" style="font-family:Times New Roman;"><![CDATA[NCK2]]></text></a></g><g id="edge14" class="edge"><title>DNM2-&gt;NCK2</title><path style="fill:none;stroke:#0000ff;" d="M334,130C310,144 279,162 256,176"/><polygon style="fill:#0000ff;stroke:#0000ff;" points="341,130 339,126 333,128 335,132 341,130"/><polygon style="fill:#0000ff;stroke:#0000ff;" points="250,176 252,180 257,178 255,173 250,176"/></g><g id="node16" class="node"><title>PLCG1</title><a xlink:href="PLCG1.html"><ellipse cx="321" cy="192" rx="38" ry="19" style="fill:turquoise;stroke:turquoise;"/><text text-anchor="middle" x="321" y="198" style="font-family:Times New Roman;"><![CDATA[PLCG1]]></text></a></g><g id="edge16" class="edge"><title>DNM2-&gt;PLCG1</title><path style="fill:none;stroke:#0000ff;" d="M353,136C347,147 340,158 334,169"/><polygon style="fill:#0000ff;stroke:#0000ff;" points="357,132 353,130 351,135 355,137 357,132"/><polygon style="fill:#0000ff;stroke:#0000ff;" points="330,172 334,174 336,170 332,168 330,172"/></g><g id="node18" class="node"><title>PFN1</title><a xlink:href="PFN1.html"><ellipse cx="411" cy="192" rx="32" ry="19" style="fill:turquoise;stroke:turquoise;"/><text text-anchor="middle" x="411" y="198" style="font-family:Times New Roman;"><![CDATA[PFN1]]></text></a></g><g id="edge18" class="edge"><title>DNM2-&gt;PFN1</title><path style="fill:none;stroke:#0000ff;" d="M379,136C385,147 393,158 398,169"/><polygon style="fill:#0000ff;stroke:#0000ff;" points="379,130 375,132 377,137 382,135 379,130"/><polygon style="fill:#0000ff;stroke:#0000ff;" points="398,174 403,172 400,168 396,170 398,174"/></g><g id="node20" class="node"><title>SDC4</title><a xlink:href="SDC4.html"><ellipse cx="498" cy="192" rx="34" ry="19" style="fill:turquoise;stroke:turquoise;"/><text text-anchor="middle" x="498" y="198" style="font-family:Times New Roman;"><![CDATA[SDC4]]></text></a></g><g id="edge20" class="edge"><title>DNM2-&gt;SDC4</title><path style="fill:none;stroke:#0000ff;" d="M397,131C420,145 448,162 469,176"/><polygon style="fill:#0000ff;stroke:#0000ff;" points="393,126 390,130 395,134 397,129 393,126"/><polygon style="fill:#0000ff;stroke:#0000ff;" points="472,180 474,176 470,173 468,178 472,180"/></g><g id="node22" class="node"><title>TUBA1</title><a xlink:href="TUBA1.html"><ellipse cx="593" cy="192" rx="40" ry="19" style="fill:turquoise;stroke:turquoise;"/><text text-anchor="middle" x="593" y="198" style="font-family:Times New Roman;"><![CDATA[TUBA1]]></text></a></g><g id="edge22" class="edge"><title>DNM2-&gt;TUBA1</title><path style="fill:none;stroke:#0000ff;" d="M405,126C440,138 494,156 542,172 546,174 551,176 556,178"/><polygon style="fill:#0000ff;stroke:#0000ff;" points="400,121 398,126 404,128 406,124 400,121"/><polygon style="fill:#0000ff;stroke:#0000ff;" points="559,182 562,178 557,176 555,180 559,182"/></g><g id="node24" class="node"><title>VAV1</title><a xlink:href="VAV1.html"><ellipse cx="690" cy="192" rx="36" ry="19" style="fill:turquoise;stroke:turquoise;"/><text text-anchor="middle" x="690" y="198" style="font-family:Times New Roman;"><![CDATA[VAV1]]></text></a></g><g id="edge24" class="edge"><title>DNM2-&gt;VAV1</title><path style="fill:none;stroke:#0000ff;" d="M410,119C464,128 562,147 643,172 648,174 652,176 657,178"/><polygon style="fill:#0000ff;stroke:#0000ff;" points="405,116 405,120 410,121 410,117 405,116"/><polygon style="fill:#0000ff;stroke:#0000ff;" points="660,182 662,178 658,176 655,180 660,182"/></g><g id="node4" class="node"><title>CAV1</title><a xlink:href="CAV1.html"><ellipse cx="281" cy="33" rx="35" ry="19" style="fill:turquoise;stroke:turquoise;"/><text text-anchor="middle" x="281" y="39" style="font-family:Times New Roman;"><![CDATA[CAV1]]></text></a></g><g id="edge4" class="edge"><title>CAV1-&gt;DNM2</title><path style="fill:none;stroke:#0000ff;" d="M303,54C315,66 331,79 343,92"/><polygon style="fill:#0000ff;stroke:#0000ff;" points="302,49 298,53 302,57 307,53 302,49"/><polygon style="fill:#0000ff;stroke:#0000ff;" points="346,97 350,93 345,89 342,94 346,97"/></g><g id="node6" class="node"><title>CBL</title><a xlink:href="CBL.html"><ellipse cx="366" cy="33" rx="29" ry="19" style="fill:turquoise;stroke:turquoise;"/><text text-anchor="middle" x="366" y="39" style="font-family:Times New Roman;"><![CDATA[CBL]]></text></a></g><g id="edge6" class="edge"><title>CBL-&gt;DNM2</title><path style="fill:none;stroke:#0000ff;" d="M366,59C366,67 366,78 366,87"/><polygon style="fill:#0000ff;stroke:#0000ff;" points="369,53 364,53 364,59 369,59 369,53"/><polygon style="fill:#0000ff;stroke:#0000ff;" points="364,93 369,93 369,87 364,87 364,93"/></g><g id="node8" class="node"><title>CTTN</title><a xlink:href="CTTN.html"><ellipse cx="452" cy="33" rx="36" ry="19" style="fill:turquoise;stroke:turquoise;"/><text text-anchor="middle" x="452" y="39" style="font-family:Times New Roman;"><![CDATA[CTTN]]></text></a></g><g id="edge8" class="edge"><title>CTTN-&gt;DNM2</title><path style="fill:none;stroke:#0000ff;" d="M430,54C417,66 402,79 389,92"/><polygon style="fill:#0000ff;stroke:#0000ff;" points="436,53 431,49 427,53 431,57 436,53"/><polygon style="fill:#0000ff;stroke:#0000ff;" points="384,93 387,97 392,94 388,89 384,93"/></g><g id="node26" class="node"><title>PLD1</title><a xlink:href="PLD1.html"><ellipse cx="541" cy="33" rx="32" ry="19" style="fill:turquoise;stroke:turquoise;"/><text text-anchor="middle" x="541" y="39" style="font-family:Times New Roman;"><![CDATA[PLD1]]></text></a></g><g id="edge26" class="edge"><title>PLD1-&gt;DNM2</title><path style="fill:none;stroke:#ff0000;" d="M515,45C510,47 504,51 499,53 469,67 435,82 408,94"/><polyline style="fill:none;stroke:#ff0000;" points="408,85 415,100 "/></g></g></g></g>
<!-- navigation controls -->
<g id="navbox">
	<rect x="0" y="0" width="742" height="60"
		 style="fill:rgb(206,207,206);stroke:rgb(0,0,0);stroke-width:1"/>

	<polygon id="pan_right"
        onmouseup="panRight()"
        onmouseover="doHighlight(evt, 'Click to pan to the right')"
        onmouseout="resetHighlight(evt)"
		points="28.0732,13 32,20.5 28.0732,28 28.0732,23.4412 25,23.4412 25,17.4118 28.0732,17.4118"
		 transform="matrix(3.39111 0 0 2.98838 -12.6265 -29.7101)"
         fill="rgb(99,154,206)"
		 style="stroke:rgb(0,0,0);stroke-width:0.5"/>
	<polygon id="pan_left"
        onmouseup="panLeft()"
        onmouseover="doHighlight(evt, 'Click to pan to the left')"
        onmouseout="resetHighlight(evt)"
		points="123.991,25 120.064,32.5 123.991,40 123.991,35.4412 127.064,35.4412 127.064,29.4118
			123.991,29.4118" transform="matrix(3.39111 0 0 2.98838 -404.865 -65.5706)"
         fill="rgb(99,154,206)"
		 style="stroke:rgb(0,0,0);stroke-width:0.5"/>
	<polygon id="pan_down"
        onmouseup="panDown()"
        onmouseover="doHighlight(evt, 'Click to pan down')"
        onmouseout="resetHighlight(evt)"
		points="116.032,32.0408 123.532,35.9678 131.032,32.0408 126.473,32.0408 126.473,28.9678 120.444,28.9678
			120.444,32.0408" transform="matrix(3.39111 0 0 2.98838 -369.822 -50.6287)"
         fill="rgb(99,154,206)"
		 style="stroke:rgb(0,0,0);stroke-width:0.5"/>
	<polygon id="pan_up"
        onmouseup="panUp()"
  onmouseover="doHighlight(evt, 'Click to pan up')"
        onmouseout="resetHighlight(evt)"
		points="116.032,32.0408 123.532,35.9678 131.032,32.0408 126.473,32.0408 126.473,28.9678 120.444,28.9678
			120.444,32.0408" transform="matrix(3.39111 0 0 -2.98838 -369.823 111.74)"
         fill="rgb(99,154,206)"
		 style="stroke:rgb(0,0,0);stroke-width:0.5"/>
	<g id="go_home" 
         onmouseup="panRestore()" 
         onmouseover="doHighlight(evt, 'Click to restore graph to original position')"
         onmouseout="resetHighlight(evt)"
         fill="rgb(99,154,206)"
         transform="matrix(1 0 0 1 0 -0.333333)">
		<rect x="196" y="11" width="26" height="26"
			transform="translate(-19.1111 -2.66667)"
			 style="stroke:rgb(0,0,0);stroke-width:1"/>
		<line x1="182" y1="16" x2="182" y2="28"
			transform="matrix(1 0 0 1 2.22222 0.444444)"
			 style="fill:none;stroke:rgb(0,0,0);stroke-width:2"/>
		<line x1="187" y1="22" x2="187" y2="28"
			transform="matrix(1 0 0 1 2.22222 0.444444)"
			 style="fill:none;stroke:rgb(0,0,0);stroke-width:2"/>
	<line x1="192" y1="13" x2="192" y2="28"
			transform="matrix(1 0 0 1 2.22222 0.444444)"
			 style="fill:none;stroke:rgb(0,0,0);stroke-width:2"/>
		<line x1="182" y1="28" x2="192" y2="28"
			transform="matrix(1 0 0 1 2.22222 0.444444)"
	style="fill:none;stroke:rgb(0,0,0);stroke-width:2"/>
		<line x1="189" y1="12" x2="179" y2="21"
			 style="fill:none;stroke:rgb(0,0,0);stroke-width:2"/>
		<line x1="188" y1="12" x2="199" y2="20"
			 style="fill:none;stroke:rgb(0,0,0);stroke-width:2"/>
	</g>
	<g id="zoom_out" onmouseup="zoomOut()" 
             onmouseover="doHighlight(evt, 'Click to zoom out')"
             onmouseout="resetHighlight(evt)"
             fill="rgb(99,154,206)"
             transform="matrix(1 0 0 1 0 0)">
		<rect x="116" y="8" width="26" height="26"
			 style="stroke:rgb(0,0,0);stroke-width:1"/>
		<ellipse cx="126" cy="18" rx="6" ry="6"
			 style="stroke:rgb(0,0,0);stroke-width:1"/>
		<line x1="130" y1="23" x2="137" y2="29"
			transform="matrix(1 0 0 1 0.888889 -0.888889)"
			 style="fill:none;stroke:rgb(0,0,0);stroke-width:2"/>
		<line x1="123" y1="18" x2="129" y2="18"
			 style="fill:none;stroke:rgb(0,0,0);stroke-width:2"/>
	</g>
	<g id="zoom_in" onmouseup="zoomIn()" 
             onmouseover="doHighlight(evt, 'Click to zoom in')"
             onmouseout="resetHighlight(evt)"
             fill="rgb(99,154,206)"
             transform="matrix(1 0 0 1 0.888889 -0.444444)">
		<rect x="116" y="8" width="26" height="26"
			transform="matrix(1 0 0 1 29.7778 0.444444)"
			 style="stroke:rgb(0,0,0);stroke-width:1"/>
		<ellipse cx="126" cy="18" rx="6" ry="6"
			transform="matrix(1 0 0 1 29.7778 0.444444)"
			 style="stroke:rgb(0,0,0);stroke-width:1"/>
		<line x1="130" y1="23" x2="137" y2="29"
			transform="matrix(1 0 0 1 30.6667 -0.444445)"
		style="fill:none;stroke:rgb(0,0,0);stroke-width:2"/>
		<line x1="123" y1="18" x2="129" y2="18"
			transform="matrix(1 0 0 1 29.7778 0.444444)"
			 style="fill:none;stroke:rgb(0,0,0);stroke-width:2"/>
		<line x1="156" y1="15" x2="156" y2="22"
			 style="fill:none;stroke:rgb(0,0,0);stroke-width:2"/>
	</g>
	<g>
		<rect x="117" y="40" width="452" height="14"
			transform="matrix(1.54201 0 0 1 -64.1436 -0.222222)"
			 style="fill:rgb(192,192,192);stroke:rgb(0,0,0);stroke-width:1"/>
		<text id="status_text" x="183px" y="48px"
			transform="matrix(1 0 0 1 -63.5556 3.00778)"
			 style="fill:rgb(0,0,0);font-size:14;font-family:Arial"> </text>
	</g>
</g>	
</svg>