<?xml version="1.0" encoding="UTF-8" standalone="no"?><!DOCTYPE svg PUBLIC "-//W3C//DTD SVG 1.0//EN" "http://www.w3.org/TR/2001/REC-SVG-20010904/DTD/svg10.dtd" [ <!ATTLIST svg xmlns:xlink CDATA #FIXED "http://www.w3.org/1999/xlink">]><!-- Generated by WinGraphviz version ver1.02.23, 08/01/2003 (08/04/2003)     For user: Avi Ma'ayan   Title: G    Pages: 1 --><svg width="338px" height="276px" xmlns="http://www.w3.org/2000/svg" xmlns:xlink="http://www.w3.org/1999/xlink"><g id="graph0" class="graph" style="font-family:Times New Roman;font-size:18.67;"><title>G</title><g id="node1" class="node"><title>CRK</title><a xlink:href="CRK.html"><ellipse cx="177" cy="39" rx="38" ry="24" style="fill:turquoise;stroke:turquoise;"/><text text-anchor="middle" x="177" y="46" style="font-family:Times New Roman;"><![CDATA[CRK]]></text></a></g><g id="node2" class="node"><title>DOCK1</title><a xlink:href="DOCK1.html"><ellipse cx="177" cy="135" rx="50" ry="24" style="fill:turquoise;stroke:turquoise;"/><text text-anchor="middle" x="177" y="142" style="font-family:Times New Roman;"><![CDATA[DOCK1]]></text></a></g><g id="edge2" class="edge"><title>CRK-&gt;DOCK1</title><path style="fill:none;stroke:#0000ff;" d="M177,70C177,81 177,94 177,105"/><polygon style="fill:#0000ff;stroke:#0000ff;" points="181,63 174,63 174,70 181,70 181,63"/><polygon style="fill:#0000ff;stroke:#0000ff;" points="174,111 181,111 181,105 174,105 174,111"/></g><g id="node4" class="node"><title>ELMO1</title><a xlink:href="ELMO1.html"><ellipse cx="57" cy="231" rx="50" ry="24" style="fill:turquoise;stroke:turquoise;"/><text text-anchor="middle" x="57" y="238" style="font-family:Times New Roman;"><![CDATA[ELMO1]]></text></a></g><g id="edge4" class="edge"><title>DOCK1-&gt;ELMO1</title><path style="fill:none;stroke:#0000ff;" d="M145,161C128,175 105,193 88,207"/><polygon style="fill:#0000ff;stroke:#0000ff;" points="153,159 149,154 143,158 147,163 153,159"/><polygon style="fill:#0000ff;stroke:#0000ff;" points="81,209 85,214 90,210 86,205 81,209"/></g><g id="node6" class="node"><title>NCK2</title><a xlink:href="NCK2.html"><ellipse cx="177" cy="231" rx="45" ry="24" style="fill:turquoise;stroke:turquoise;"/><text text-anchor="middle" x="177" y="238" style="font-family:Times New Roman;"><![CDATA[NCK2]]></text></a></g><g id="edge6" class="edge"><title>DOCK1-&gt;NCK2</title><path style="fill:none;stroke:#0000ff;" d="M177,166C177,177 177,190 177,201"/><polygon style="fill:#0000ff;stroke:#0000ff;" points="181,159 174,159 174,166 181,166 181,159"/><polygon style="fill:#0000ff;stroke:#0000ff;" points="174,207 181,207 181,201 174,201 174,207"/></g><g id="node8" class="node"><title>RAC1</title><a xlink:href="RAC1.html"><ellipse cx="288" cy="231" rx="41" ry="24" style="fill:turquoise;stroke:turquoise;"/><text text-anchor="middle" x="288" y="238" style="font-family:Times New Roman;"><![CDATA[RAC1]]></text></a></g><g id="edge8" class="edge"><title>DOCK1-&gt;RAC1</title><path style="fill:none;stroke:darkgreen;" d="M201,157C217,170 238,189 255,203"/><polygon style="fill:darkgreen;stroke:darkgreen;" points="257,201 265,211 253,205 257,201"/></g></g></svg>