<?xml version="1.0" encoding="UTF-8" standalone="no"?><!DOCTYPE svg PUBLIC "-//W3C//DTD SVG 1.0//EN" "http://www.w3.org/TR/2001/REC-SVG-20010904/DTD/svg10.dtd" [ <!ATTLIST svg xmlns:xlink CDATA #FIXED "http://www.w3.org/1999/xlink">]><!-- Generated by WinGraphviz version ver1.02.23, 08/01/2003 (08/04/2003)     For user: Avi Ma'ayan   Title: G    Pages: 1 --><svg width="218px" height="276px" xmlns="http://www.w3.org/2000/svg" xmlns:xlink="http://www.w3.org/1999/xlink"><g id="graph0" class="graph" style="font-family:Times New Roman;font-size:18.67;"><title>G</title><g id="node1" class="node"><title>CRK</title><a xlink:href="CRK.html"><ellipse cx="45" cy="39" rx="38" ry="24" style="fill:turquoise;stroke:turquoise;"/><text text-anchor="middle" x="45" y="46" style="font-family:Times New Roman;"><![CDATA[CRK]]></text></a></g><g id="node2" class="node"><title>ELMO1</title><a xlink:href="ELMO1.html"><ellipse cx="101" cy="135" rx="50" ry="24" style="fill:turquoise;stroke:turquoise;"/><text text-anchor="middle" x="101" y="142" style="font-family:Times New Roman;"><![CDATA[ELMO1]]></text></a></g><g id="edge2" class="edge"><title>CRK-&gt;ELMO1</title><path style="fill:none;stroke:#0000ff;" d="M61,67C68,79 77,94 85,106"/><polygon style="fill:#0000ff;stroke:#0000ff;" points="61,61 55,63 58,69 63,66 61,61"/><polygon style="fill:#0000ff;stroke:#0000ff;" points="85,113 90,110 88,105 82,107 85,113"/></g><g id="node6" class="node"><title>RAC1</title><a xlink:href="RAC1.html"><ellipse cx="101" cy="231" rx="41" ry="24" style="fill:turquoise;stroke:turquoise;"/><text text-anchor="middle" x="101" y="238" style="font-family:Times New Roman;"><![CDATA[RAC1]]></text></a></g><g id="edge6" class="edge"><title>ELMO1-&gt;RAC1</title><path style="fill:none;stroke:darkgreen;" d="M101,159C101,170 101,182 101,194"/><polygon style="fill:darkgreen;stroke:darkgreen;" points="105,194 101,207 98,194 105,194"/></g><g id="node4" class="node"><title>DOCK1</title><a xlink:href="DOCK1.html"><ellipse cx="158" cy="39" rx="50" ry="24" style="fill:turquoise;stroke:turquoise;"/><text text-anchor="middle" x="158" y="46" style="font-family:Times New Roman;"><![CDATA[DOCK1]]></text></a></g><g id="edge4" class="edge"><title>DOCK1-&gt;ELMO1</title><path style="fill:none;stroke:#0000ff;" d="M142,67C134,81 125,94 118,107"/><polygon style="fill:#0000ff;stroke:#0000ff;" points="147,63 142,61 139,66 145,69 147,63"/><polygon style="fill:#0000ff;stroke:#0000ff;" points="113,111 118,114 121,109 116,106 113,111"/></g></g></svg>