<?xml version="1.0" encoding="UTF-8" standalone="no"?><!DOCTYPE svg PUBLIC "-//W3C//DTD SVG 1.0//EN" "http://www.w3.org/TR/2001/REC-SVG-20010904/DTD/svg10.dtd" [ <!ATTLIST svg xmlns:xlink CDATA #FIXED "http://www.w3.org/1999/xlink">]><!-- Generated by WinGraphviz version ver1.02.23, 08/01/2003 (08/04/2003)     For user: Avi Ma'ayan   Title: G    Pages: 1 --><svg width="194px" height="276px" xmlns="http://www.w3.org/2000/svg" xmlns:xlink="http://www.w3.org/1999/xlink"><g id="graph0" class="graph" style="font-family:Times New Roman;font-size:18.67;"><title>G</title><g id="node1" class="node"><title>ABI1</title><a xlink:href="ABI1.html"><ellipse cx="96" cy="39" rx="37" ry="24" style="fill:turquoise;stroke:turquoise;"/><text text-anchor="middle" x="96" y="46" style="font-family:Times New Roman;"><![CDATA[ABI1]]></text></a></g><g id="node2" class="node"><title>ENAH</title><a xlink:href="ENAH.html"><ellipse cx="96" cy="135" rx="48" ry="24" style="fill:turquoise;stroke:turquoise;"/><text text-anchor="middle" x="96" y="142" style="font-family:Times New Roman;"><![CDATA[ENAH]]></text></a></g><g id="edge2" class="edge"><title>ABI1-&gt;ENAH</title><path style="fill:none;stroke:#0000ff;" d="M96,70C96,81 96,94 96,105"/><polygon style="fill:#0000ff;stroke:#0000ff;" points="100,63 93,63 93,70 100,70 100,63"/><polygon style="fill:#0000ff;stroke:#0000ff;" points="93,111 100,111 100,105 93,105 93,111"/></g><g id="node4" class="node"><title>PFN1</title><a xlink:href="PFN1.html"><ellipse cx="45" cy="231" rx="38" ry="24" style="fill:turquoise;stroke:turquoise;"/><text text-anchor="middle" x="45" y="238" style="font-family:Times New Roman;"><![CDATA[PFN1]]></text></a></g><g id="edge4" class="edge"><title>ENAH-&gt;PFN1</title><path style="fill:none;stroke:#0000ff;" d="M81,163C74,177 66,190 59,203"/><polygon style="fill:#0000ff;stroke:#0000ff;" points="86,159 81,157 78,162 84,165 86,159"/><polygon style="fill:#0000ff;stroke:#0000ff;" points="54,207 59,210 62,205 57,202 54,207"/></g><g id="node6" class="node"><title>ZYX</title><a xlink:href="ZYX.html"><ellipse cx="146" cy="231" rx="38" ry="24" style="fill:turquoise;stroke:turquoise;"/><text text-anchor="middle" x="146" y="238" style="font-family:Times New Roman;"><![CDATA[ZYX]]></text></a></g><g id="edge6" class="edge"><title>ENAH-&gt;ZYX</title><path style="fill:none;stroke:#0000ff;" d="M110,163C117,177 125,190 132,203"/><polygon style="fill:#0000ff;stroke:#0000ff;" points="110,157 105,159 108,165 113,162 110,157"/><polygon style="fill:#0000ff;stroke:#0000ff;" points="132,210 137,207 134,202 129,205 132,210"/></g></g></svg>