<?xml version="1.0" encoding="UTF-8" standalone="no"?><!DOCTYPE svg PUBLIC "-//W3C//DTD SVG 1.0//EN" "http://www.w3.org/TR/2001/REC-SVG-20010904/DTD/svg10.dtd" [ <!ATTLIST svg xmlns:xlink CDATA #FIXED "http://www.w3.org/1999/xlink">]><!-- Generated by WinGraphviz version ver1.02.23, 08/01/2003 (08/04/2003)     For user: Avi Ma'ayan   Title: G    Pages: 1 --><svg width="204px" height="180px" xmlns="http://www.w3.org/2000/svg" xmlns:xlink="http://www.w3.org/1999/xlink"><g id="graph0" class="graph" style="font-family:Times New Roman;font-size:18.67;"><title>G</title><g id="node1" class="node"><title>ENG</title><a xlink:href="ENG.html"><ellipse cx="104" cy="39" rx="38" ry="24" style="fill:turquoise;stroke:turquoise;"/><text text-anchor="middle" x="104" y="46" style="font-family:Times New Roman;"><![CDATA[ENG]]></text></a></g><g id="node2" class="node"><title>TRIP6</title><a xlink:href="TRIP6.html"><ellipse cx="50" cy="135" rx="44" ry="24" style="fill:turquoise;stroke:turquoise;"/><text text-anchor="middle" x="50" y="142" style="font-family:Times New Roman;"><![CDATA[TRIP6]]></text></a></g><g id="edge2" class="edge"><title>ENG-&gt;TRIP6</title><path style="fill:none;stroke:#0000ff;" d="M89,67C82,79 73,94 66,106"/><polygon style="fill:#0000ff;stroke:#0000ff;" points="94,63 89,61 86,66 92,69 94,63"/><polygon style="fill:#0000ff;stroke:#0000ff;" points="61,110 66,113 69,107 63,105 61,110"/></g><g id="node4" class="node"><title>ZYX</title><a xlink:href="ZYX.html"><ellipse cx="157" cy="135" rx="38" ry="24" style="fill:turquoise;stroke:turquoise;"/><text text-anchor="middle" x="157" y="142" style="font-family:Times New Roman;"><![CDATA[ZYX]]></text></a></g><g id="edge4" class="edge"><title>ENG-&gt;ZYX</title><path style="fill:none;stroke:#0000ff;" d="M118,67C125,79 134,94 141,107"/><polygon style="fill:#0000ff;stroke:#0000ff;" points="118,61 113,63 116,69 121,66 118,61"/><polygon style="fill:#0000ff;stroke:#0000ff;" points="141,114 146,111 143,106 138,109 141,114"/></g></g></svg>