<?xml version="1.0" encoding="UTF-8" standalone="no"?><!DOCTYPE svg PUBLIC "-//W3C//DTD SVG 1.0//EN" "http://www.w3.org/TR/2001/REC-SVG-20010904/DTD/svg10.dtd" [ <!ATTLIST svg xmlns:xlink CDATA #FIXED "http://www.w3.org/1999/xlink">]><!-- Generated by WinGraphviz version ver1.02.23, 08/01/2003 (08/04/2003)     For user: Avi Ma'ayan   Title: G    Pages: 1 --><svg width="255px" height="276px" xmlns="http://www.w3.org/2000/svg" xmlns:xlink="http://www.w3.org/1999/xlink"><g id="graph0" class="graph" style="font-family:Times New Roman;font-size:18.67;"><title>G</title><g id="node1" class="node"><title>FLNA</title><a xlink:href="FLNA.html"><ellipse cx="51" cy="39" rx="45" ry="24" style="fill:turquoise;stroke:turquoise;"/><text text-anchor="middle" x="51" y="46" style="font-family:Times New Roman;"><![CDATA[FLNA]]></text></a></g><g id="node2" class="node"><title>FBLIM1</title><a xlink:href="FBLIM1.html"><ellipse cx="117" cy="135" rx="52" ry="24" style="fill:turquoise;stroke:turquoise;"/><text text-anchor="middle" x="117" y="142" style="font-family:Times New Roman;"><![CDATA[FBLIM1]]></text></a></g><g id="edge2" class="edge"><title>FLNA-&gt;FBLIM1</title><path style="fill:none;stroke:#0000ff;" d="M70,67C78,79 89,94 97,106"/><polygon style="fill:#0000ff;stroke:#0000ff;" points="70,61 65,63 68,69 73,66 70,61"/><polygon style="fill:#0000ff;stroke:#0000ff;" points="98,113 104,109 100,103 94,107 98,113"/></g><g id="node6" class="node"><title>VASP</title><a xlink:href="VASP.html"><ellipse cx="117" cy="231" rx="44" ry="24" style="fill:turquoise;stroke:turquoise;"/><text text-anchor="middle" x="117" y="238" style="font-family:Times New Roman;"><![CDATA[VASP]]></text></a></g><g id="edge6" class="edge"><title>FBLIM1-&gt;VASP</title><path style="fill:none;stroke:#0000ff;" d="M117,166C117,177 117,190 117,201"/><polygon style="fill:#0000ff;stroke:#0000ff;" points="121,159 114,159 114,166 121,166 121,159"/><polygon style="fill:#0000ff;stroke:#0000ff;" points="114,207 121,207 121,201 114,201 114,207"/></g><g id="node4" class="node"><title>PLEKHC1</title><a xlink:href="PLEKHC1.html"><ellipse cx="183" cy="39" rx="62" ry="24" style="fill:turquoise;stroke:turquoise;"/><text text-anchor="middle" x="183" y="46" style="font-family:Times New Roman;"><![CDATA[PLEKHC1]]></text></a></g><g id="edge4" class="edge"><title>PLEKHC1-&gt;FBLIM1</title><path style="fill:none;stroke:#0000ff;" d="M163,67C155,81 145,94 137,107"/><polygon style="fill:#0000ff;stroke:#0000ff;" points="170,63 165,59 161,65 166,69 170,63"/><polygon style="fill:#0000ff;stroke:#0000ff;" points="130,110 135,114 139,109 134,105 130,110"/></g></g></svg>