<?xml version="1.0" encoding="UTF-8" standalone="no"?><!DOCTYPE svg PUBLIC "-//W3C//DTD SVG 1.0//EN" "http://www.w3.org/TR/2001/REC-SVG-20010904/DTD/svg10.dtd" [ <!ATTLIST svg xmlns:xlink CDATA #FIXED "http://www.w3.org/1999/xlink">]><!-- Generated by WinGraphviz version ver1.02.23, 08/01/2003 (08/04/2003)     For user: Avi Ma'ayan   Title: G    Pages: 1 --><svg width="220px" height="276px" xmlns="http://www.w3.org/2000/svg" xmlns:xlink="http://www.w3.org/1999/xlink"><g id="graph0" class="graph" style="font-family:Times New Roman;font-size:18.67;"><title>G</title><g id="node1" class="node"><title>PTK2</title><a xlink:href="PTK2.html"><ellipse cx="110" cy="39" rx="41" ry="24" style="fill:turquoise;stroke:turquoise;"/><text text-anchor="middle" x="110" y="46" style="font-family:Times New Roman;"><![CDATA[PTK2]]></text></a></g><g id="node2" class="node"><title>FHL2</title><a xlink:href="FHL2.html"><ellipse cx="110" cy="135" rx="41" ry="24" style="fill:turquoise;stroke:turquoise;"/><text text-anchor="middle" x="110" y="142" style="font-family:Times New Roman;"><![CDATA[FHL2]]></text></a></g><g id="edge2" class="edge"><title>PTK2-&gt;FHL2</title><path style="fill:none;stroke:#0000ff;" d="M110,70C110,81 110,94 110,105"/><polygon style="fill:#0000ff;stroke:#0000ff;" points="114,63 108,63 108,70 114,70 114,63"/><polygon style="fill:#0000ff;stroke:#0000ff;" points="108,111 114,111 114,105 108,105 108,111"/></g><g id="node4" class="node"><title>ITGA5</title><a xlink:href="ITGA5.html"><ellipse cx="53" cy="231" rx="46" ry="24" style="fill:turquoise;stroke:turquoise;"/><text text-anchor="middle" x="53" y="238" style="font-family:Times New Roman;"><![CDATA[ITGA5]]></text></a></g><g id="edge4" class="edge"><title>FHL2-&gt;ITGA5</title><path style="fill:none;stroke:#0000ff;" d="M94,163C86,175 77,190 69,202"/><polygon style="fill:#0000ff;stroke:#0000ff;" points="100,159 94,157 92,162 97,165 100,159"/><polygon style="fill:#0000ff;stroke:#0000ff;" points="63,206 69,209 72,203 66,201 63,206"/></g><g id="node6" class="node"><title>ITGB1</title><a xlink:href="ITGB1.html"><ellipse cx="167" cy="231" rx="44" ry="24" style="fill:turquoise;stroke:turquoise;"/><text text-anchor="middle" x="167" y="238" style="font-family:Times New Roman;"><![CDATA[ITGB1]]></text></a></g><g id="edge6" class="edge"><title>FHL2-&gt;ITGB1</title><path style="fill:none;stroke:#0000ff;" d="M126,163C134,175 143,190 151,202"/><polygon style="fill:#0000ff;stroke:#0000ff;" points="126,157 121,159 124,165 129,162 126,157"/><polygon style="fill:#0000ff;stroke:#0000ff;" points="151,209 157,206 154,201 149,203 151,209"/></g></g></svg>