<?xml version="1.0" encoding="UTF-8" standalone="no"?><!DOCTYPE svg PUBLIC "-//W3C//DTD SVG 1.0//EN" "http://www.w3.org/TR/2001/REC-SVG-20010904/DTD/svg10.dtd" [ <!ATTLIST svg xmlns:xlink CDATA #FIXED "http://www.w3.org/1999/xlink">]><!-- Generated by WinGraphviz version ver1.02.23, 08/01/2003 (08/04/2003)     For user: Avi Ma'ayan   Title: G    Pages: 1 --><!--="735px" height="235px" xmlns="http://www.w3.org/2000/svg" --><svg onload="init(evt)" width="735px" height="600px" xmlns="http://www.w3.org/2000/svg" xmlns:xlink="http://www.w3.org/1999/xlink">
<script type="text/ecmascript">
<![CDATA[
var svgDocument;
var zoomAmt;
var xOffset;
var yOffset;
var scale;
var maxScale;
var imageWidth;
var imageHeight;
function init(evt)
{
    svgDocument = evt.getTarget().getOwnerDocument();
    zoomAmt = 0;
    xOffset = 0;
    yOffset = 60;
    scale = 0.8;
    maxScale = 10;
    imageWidth = 742;
    imageHeight = 606;
    panRestore();
    //panUp();
}
function transformMap ()
{
    var obj = svgDocument.getElementById("Pathway");
    var centerX = imageWidth  / 2.0;
    var centerY = imageHeight / 2.0;
    var adjustX = (-centerX * (scale - 0.8)) + xOffset;
    var adjustY = (-centerY * (scale - 0.8)) + yOffset;
    var transParms = 'translate(' + adjustX + ',' + adjustY + ') ';
    transParms += 'scale(' + scale + ')';
    // alert(transParms);
    obj.setAttribute("transform", transParms); 
}
function click_node(id)
{
    var testx = parent.click_node;
    if (typeof(testx) == "function")
    {
		parent.click_node(id);
    }
}
function click_relation(id)
{
    var testx = parent.click_relation;
    if (typeof(testx) == "function")
    {
        parent.click_relation(id);
    }
}
function click_pathway(toId, fromId)
{
    var testx = parent.click_pathway;
    if (typeof(testx) == "function")
    {
	parent.click_pathway(toId, fromId);
    }
}
function check_interpath(evt, pathid)
{
  var obj = evt.getTarget();
  var testx = parent.is_frompath;
  var child = obj.firstChild;
  if (typeof(testx) == "function")
  {
    if (parent.is_frompath(pathid))
    {
      while (child != null)
      {
        if (child.nodeType == 1)
        {
          if ((child.localName == "g") || (child.localName == "polyline"))
          {
            child.setAttribute("style", "fill:none;stroke:red");
          }
          else if (child.localName == "polygon")
          {
            child.setAttribute("style", "fill:red;stroke:red");
          }
        }
        child = child.nextSibling;
      }
    }
  }
}
function set_status (msg)
{
 var obj = svgDocument.getElementById("status_text");
  var child;
 
  child = obj.firstChild;
  if ((child != null) && (child.nodeType == 3))
  {
    if ((msg != null) && (msg.length > 0))
    {
      child.data = msg;
    }
    else
    {
child.data = " ";
    }
  }
}
function zoomIn ()
{
    scale = scale + 0.8;
    if (scale > maxScale)
    {
       scale = maxScale;
    }
    transformMap();
    panUp();
    panUp();
    panUp();
    panUp();
    panUp();
    panUp();
    panUp();
    panUp();
    panUp();
    panUp();
    panUp();
    panUp();
}
function zoomOut ()
{
    scale = scale - 0.8;
    if (scale < 0.8)
    {
       scale = 0.8;
    }
    transformMap();
    panDown();
    panDown();
    panDown();
    panDown();
    panDown();
    panDown();
    panDown();
    panDown();
    panDown();
    panDown();
    panDown();
    panDown();
}
function panUp ()
{
    yOffset = yOffset + 20;
    transformMap();
}
function panDown ()
{
    yOffset = yOffset - 20;
    transformMap();
}
function panLeft ()
{
    xOffset = xOffset + 20;
    transformMap();
}
function panRight ()
{
    xOffset = xOffset - 20;
    transformMap();
}
function panRestore ()
{
    xOffset = 0;
    yOffset = 0;
    scale = 0.5;
    //obj = svgDocument.getElementById("zoom");
    //obj.setAttribute("x1", 0);
    //obj.setAttribute("x2", 0);
    transformMap();    
}
function doHighlight (evt, msg)
{
  var obj = evt.getTarget();
  obj.setAttribute("fill", "rgb(239,24,33)");
  set_status(msg);
}
function resetHighlight (evt)
{
  var obj = evt.getTarget();
  obj.setAttribute("fill", "rgb(99,154,206)");
  set_status(" ");
}
// ]]>
</script>
<defs>
<clipPath id="theClip">
<polygon points="1 61, 741 61, 741 665, 1 665"
style="fill: none;"/>
</clipPath>
</defs>
<!-- viewport outline -->
<rect x="0" y="61" width="742" height="606"
style="stroke: black; stroke-width: 1; fill: none;"/>
<!-- pathway graph style="clip-path: url(#theClip);" -->
<g style="clip-path: url(#theClip);">
<g id="Pathway"  transform="translate(0,60)">
<!-- prefile.include ends, begin pathway graph -->
<g id="stkecm;CMP_10705" class="graph">
</g>
<g id="graph0" class="graph" style="font-family:Times New Roman;font-size:15.75;"><title>G</title><g id="node1" class="node"><title>ACTB</title><a xlink:href="ACTB.html"><ellipse cx="43" cy="34" rx="37" ry="20" style="fill:turquoise;stroke:turquoise;"/><text text-anchor="middle" x="43" y="39" style="font-family:Times New Roman;"><![CDATA[ACTB]]></text></a></g><g id="node2" class="node"><title>FLNA</title><a xlink:href="FLNA.html"><ellipse cx="353" cy="115" rx="38" ry="20" style="fill:turquoise;stroke:turquoise;"/><text text-anchor="middle" x="353" y="120" style="font-family:Times New Roman;"><![CDATA[FLNA]]></text></a></g><g id="edge2" class="edge"><title>ACTB-&gt;FLNA</title><path style="fill:none;stroke:#0000ff;" d="M76,48C80,50 86,52 91,54 167,80 258,98 310,107"/><polygon style="fill:#0000ff;stroke:#0000ff;" points="73,45 70,49 76,50 78,46 73,45"/><polygon style="fill:#0000ff;stroke:#0000ff;" points="316,110 316,106 310,104 310,109 316,110"/></g><g id="node10" class="node"><title>ITGB1</title><a xlink:href="ITGB1.html"><ellipse cx="62" cy="196" rx="37" ry="20" style="fill:turquoise;stroke:turquoise;"/><text text-anchor="middle" x="62" y="201" style="font-family:Times New Roman;"><![CDATA[ITGB1]]></text></a></g><g id="edge10" class="edge"><title>FLNA-&gt;ITGB1</title><path style="fill:none;stroke:#0000ff;" d="M311,122C264,133 179,153 110,175 105,178 101,179 96,181"/><polygon style="fill:#0000ff;stroke:#0000ff;" points="317,124 317,119 311,120 311,125 317,124"/><polygon style="fill:#0000ff;stroke:#0000ff;" points="91,181 93,185 97,183 95,179 91,181"/></g><g id="node12" class="node"><title>FBLIM1</title><a xlink:href="FBLIM1.html"><ellipse cx="164" cy="196" rx="43" ry="20" style="fill:turquoise;stroke:turquoise;"/><text text-anchor="middle" x="164" y="201" style="font-family:Times New Roman;"><![CDATA[FBLIM1]]></text></a></g><g id="edge12" class="edge"><title>FLNA-&gt;FBLIM1</title><path style="fill:none;stroke:#0000ff;" d="M317,129C284,144 233,165 201,180"/><polygon style="fill:#0000ff;stroke:#0000ff;" points="323,129 321,125 316,127 318,131 323,129"/><polygon style="fill:#0000ff;stroke:#0000ff;" points="195,180 197,184 202,182 200,178 195,180"/></g><g id="node14" class="node"><title>PAK1</title><a xlink:href="PAK1.html"><ellipse cx="263" cy="196" rx="34" ry="20" style="fill:turquoise;stroke:turquoise;"/><text text-anchor="middle" x="263" y="201" style="font-family:Times New Roman;"><![CDATA[PAK1]]></text></a></g><g id="edge14" class="edge"><title>FLNA-&gt;PAK1</title><path style="fill:none;stroke:#0000ff;" d="M329,136C316,148 299,163 286,175"/><polygon style="fill:#0000ff;stroke:#0000ff;" points="336,135 332,130 328,134 331,138 336,135"/><polygon style="fill:#0000ff;stroke:#0000ff;" points="281,176 284,181 289,178 285,173 281,176"/></g><g id="node16" class="node"><title>RAC1</title><a xlink:href="RAC1.html"><ellipse cx="353" cy="196" rx="34" ry="20" style="fill:turquoise;stroke:turquoise;"/><text text-anchor="middle" x="353" y="201" style="font-family:Times New Roman;"><![CDATA[RAC1]]></text></a></g><g id="edge16" class="edge"><title>FLNA-&gt;RAC1</title><path style="fill:none;stroke:#0000ff;" d="M353,140C353,149 353,161 353,170"/><polygon style="fill:#0000ff;stroke:#0000ff;" points="356,135 350,135 350,140 356,140 356,135"/><polygon style="fill:#0000ff;stroke:#0000ff;" points="350,175 356,175 356,170 350,170 350,175"/></g><g id="node18" class="node"><title>RHOA</title><a xlink:href="RHOA.html"><ellipse cx="448" cy="196" rx="40" ry="20" style="fill:turquoise;stroke:turquoise;"/><text text-anchor="middle" x="448" y="201" style="font-family:Times New Roman;"><![CDATA[RHOA]]></text></a></g><g id="edge18" class="edge"><title>FLNA-&gt;RHOA</title><path style="fill:none;stroke:#0000ff;" d="M377,135C392,147 409,162 424,174"/><polygon style="fill:#0000ff;stroke:#0000ff;" points="375,129 372,134 376,137 380,133 375,129"/><polygon style="fill:#0000ff;stroke:#0000ff;" points="427,180 430,175 426,172 422,176 427,180"/></g><g id="node20" class="node"><title>INPPL1</title><a xlink:href="INPPL1.html"><ellipse cx="551" cy="196" rx="41" ry="20" style="fill:turquoise;stroke:turquoise;"/><text text-anchor="middle" x="551" y="201" style="font-family:Times New Roman;"><![CDATA[INPPL1]]></text></a></g><g id="edge20" class="edge"><title>FLNA-&gt;INPPL1</title><path style="fill:none;stroke:#0000ff;" d="M389,129C424,143 479,166 515,181"/><polygon style="fill:#0000ff;stroke:#0000ff;" points="384,125 382,129 388,131 390,127 384,125"/><polygon style="fill:#0000ff;stroke:#0000ff;" points="518,184 520,180 515,179 512,183 518,184"/></g><g id="node22" class="node"><title>TRIO</title><a xlink:href="TRIO.html"><ellipse cx="647" cy="196" rx="34" ry="20" style="fill:turquoise;stroke:turquoise;"/><text text-anchor="middle" x="647" y="201" style="font-family:Times New Roman;"><![CDATA[TRIO]]></text></a></g><g id="edge22" class="edge"><title>FLNA-&gt;TRIO</title><path style="fill:none;stroke:#0000ff;" d="M394,122C445,133 530,152 602,175 607,178 611,179 616,181"/><polygon style="fill:#0000ff;stroke:#0000ff;" points="389,119 389,124 394,125 394,120 389,119"/><polygon style="fill:#0000ff;stroke:#0000ff;" points="619,185 622,181 617,179 615,183 619,185"/></g><g id="node4" class="node"><title>CAPN1</title><a xlink:href="CAPN1.html"><ellipse cx="142" cy="34" rx="41" ry="20" style="fill:turquoise;stroke:turquoise;"/><text text-anchor="middle" x="142" y="39" style="font-family:Times New Roman;"><![CDATA[CAPN1]]></text></a></g><g id="edge4" class="edge"><title>CAPN1-&gt;FLNA</title><path style="fill:none;stroke:#ff0000;" d="M175,47C182,49 188,52 194,54 232,70 277,86 309,99"/><polyline style="fill:none;stroke:#ff0000;" points="302,106 308,90 "/></g><g id="node6" class="node"><title>CAV1</title><a xlink:href="CAV1.html"><ellipse cx="240" cy="34" rx="36" ry="20" style="fill:turquoise;stroke:turquoise;"/><text text-anchor="middle" x="240" y="39" style="font-family:Times New Roman;"><![CDATA[CAV1]]></text></a></g><g id="edge6" class="edge"><title>CAV1-&gt;FLNA</title><path style="fill:none;stroke:#0000ff;" d="M267,53C284,65 307,82 325,94"/><polygon style="fill:#0000ff;stroke:#0000ff;" points="265,47 262,52 266,55 269,50 265,47"/><polygon style="fill:#0000ff;stroke:#0000ff;" points="329,100 331,95 327,92 325,97 329,100"/></g><g id="node8" class="node"><title>CEACAM1</title><a xlink:href="CEACAM1.html"><ellipse cx="353" cy="34" rx="56" ry="20" style="fill:turquoise;stroke:turquoise;"/><text text-anchor="middle" x="353" y="39" style="font-family:Times New Roman;"><![CDATA[CEACAM1]]></text></a></g><g id="edge8" class="edge"><title>CEACAM1-&gt;FLNA</title><path style="fill:none;stroke:#0000ff;" d="M353,59C353,68 353,80 353,89"/><polygon style="fill:#0000ff;stroke:#0000ff;" points="356,54 350,54 350,59 356,59 356,54"/><polygon style="fill:#0000ff;stroke:#0000ff;" points="350,94 356,94 356,89 350,89 350,94"/></g><g id="node24" class="node"><title>PIP2</title><a xlink:href="PIP2.html"><ellipse cx="460" cy="34" rx="30" ry="20" style="fill:turquoise;stroke:turquoise;"/><text text-anchor="middle" x="460" y="39" style="font-family:Times New Roman;"><![CDATA[PIP2]]></text></a></g><g id="edge24" class="edge"><title>PIP2-&gt;FLNA</title><path style="fill:none;stroke:#ff0000;" d="M439,49C425,59 406,75 389,88"/><polyline style="fill:none;stroke:#ff0000;" points="384,81 394,94 "/></g><g id="node26" class="node"><title>PRKACA</title><a xlink:href="PRKACA.html"><ellipse cx="563" cy="34" rx="52" ry="20" style="fill:turquoise;stroke:turquoise;"/><text text-anchor="middle" x="563" y="39" style="font-family:Times New Roman;"><![CDATA[PRKACA]]></text></a></g><g id="edge26" class="edge"><title>PRKACA-&gt;FLNA</title><path style="fill:none;stroke:darkgreen;" d="M526,48C489,63 433,84 394,99"/><polygon style="fill:darkgreen;stroke:darkgreen;" points="395,101 384,102 394,95 395,101"/></g><g id="node28" class="node"><title>PRKCA</title><a xlink:href="PRKCA.html"><ellipse cx="681" cy="34" rx="45" ry="20" style="fill:turquoise;stroke:turquoise;"/><text text-anchor="middle" x="681" y="39" style="font-family:Times New Roman;"><![CDATA[PRKCA]]></text></a></g><g id="edge28" class="edge"><title>PRKCA-&gt;FLNA</title><path style="fill:none;stroke:darkgreen;" d="M647,47C641,49 633,52 626,54 547,77 455,97 400,106"/><polygon style="fill:darkgreen;stroke:darkgreen;" points="400,108 389,108 399,103 400,108"/></g></g></g></g>
<!-- navigation controls -->
<g id="navbox">
	<rect x="0" y="0" width="742" height="60"
		 style="fill:rgb(206,207,206);stroke:rgb(0,0,0);stroke-width:1"/>

	<polygon id="pan_right"
        onmouseup="panRight()"
        onmouseover="doHighlight(evt, 'Click to pan to the right')"
        onmouseout="resetHighlight(evt)"
		points="28.0732,13 32,20.5 28.0732,28 28.0732,23.4412 25,23.4412 25,17.4118 28.0732,17.4118"
		 transform="matrix(3.39111 0 0 2.98838 -12.6265 -29.7101)"
         fill="rgb(99,154,206)"
		 style="stroke:rgb(0,0,0);stroke-width:0.5"/>
	<polygon id="pan_left"
        onmouseup="panLeft()"
        onmouseover="doHighlight(evt, 'Click to pan to the left')"
        onmouseout="resetHighlight(evt)"
		points="123.991,25 120.064,32.5 123.991,40 123.991,35.4412 127.064,35.4412 127.064,29.4118
			123.991,29.4118" transform="matrix(3.39111 0 0 2.98838 -404.865 -65.5706)"
         fill="rgb(99,154,206)"
		 style="stroke:rgb(0,0,0);stroke-width:0.5"/>
	<polygon id="pan_down"
        onmouseup="panDown()"
        onmouseover="doHighlight(evt, 'Click to pan down')"
        onmouseout="resetHighlight(evt)"
		points="116.032,32.0408 123.532,35.9678 131.032,32.0408 126.473,32.0408 126.473,28.9678 120.444,28.9678
			120.444,32.0408" transform="matrix(3.39111 0 0 2.98838 -369.822 -50.6287)"
         fill="rgb(99,154,206)"
		 style="stroke:rgb(0,0,0);stroke-width:0.5"/>
	<polygon id="pan_up"
        onmouseup="panUp()"
  onmouseover="doHighlight(evt, 'Click to pan up')"
        onmouseout="resetHighlight(evt)"
		points="116.032,32.0408 123.532,35.9678 131.032,32.0408 126.473,32.0408 126.473,28.9678 120.444,28.9678
			120.444,32.0408" transform="matrix(3.39111 0 0 -2.98838 -369.823 111.74)"
         fill="rgb(99,154,206)"
		 style="stroke:rgb(0,0,0);stroke-width:0.5"/>
	<g id="go_home" 
         onmouseup="panRestore()" 
         onmouseover="doHighlight(evt, 'Click to restore graph to original position')"
         onmouseout="resetHighlight(evt)"
         fill="rgb(99,154,206)"
         transform="matrix(1 0 0 1 0 -0.333333)">
		<rect x="196" y="11" width="26" height="26"
			transform="translate(-19.1111 -2.66667)"
			 style="stroke:rgb(0,0,0);stroke-width:1"/>
		<line x1="182" y1="16" x2="182" y2="28"
			transform="matrix(1 0 0 1 2.22222 0.444444)"
			 style="fill:none;stroke:rgb(0,0,0);stroke-width:2"/>
		<line x1="187" y1="22" x2="187" y2="28"
			transform="matrix(1 0 0 1 2.22222 0.444444)"
			 style="fill:none;stroke:rgb(0,0,0);stroke-width:2"/>
	<line x1="192" y1="13" x2="192" y2="28"
			transform="matrix(1 0 0 1 2.22222 0.444444)"
			 style="fill:none;stroke:rgb(0,0,0);stroke-width:2"/>
		<line x1="182" y1="28" x2="192" y2="28"
			transform="matrix(1 0 0 1 2.22222 0.444444)"
	style="fill:none;stroke:rgb(0,0,0);stroke-width:2"/>
		<line x1="189" y1="12" x2="179" y2="21"
			 style="fill:none;stroke:rgb(0,0,0);stroke-width:2"/>
		<line x1="188" y1="12" x2="199" y2="20"
			 style="fill:none;stroke:rgb(0,0,0);stroke-width:2"/>
	</g>
	<g id="zoom_out" onmouseup="zoomOut()" 
             onmouseover="doHighlight(evt, 'Click to zoom out')"
             onmouseout="resetHighlight(evt)"
             fill="rgb(99,154,206)"
             transform="matrix(1 0 0 1 0 0)">
		<rect x="116" y="8" width="26" height="26"
			 style="stroke:rgb(0,0,0);stroke-width:1"/>
		<ellipse cx="126" cy="18" rx="6" ry="6"
			 style="stroke:rgb(0,0,0);stroke-width:1"/>
		<line x1="130" y1="23" x2="137" y2="29"
			transform="matrix(1 0 0 1 0.888889 -0.888889)"
			 style="fill:none;stroke:rgb(0,0,0);stroke-width:2"/>
		<line x1="123" y1="18" x2="129" y2="18"
			 style="fill:none;stroke:rgb(0,0,0);stroke-width:2"/>
	</g>
	<g id="zoom_in" onmouseup="zoomIn()" 
             onmouseover="doHighlight(evt, 'Click to zoom in')"
             onmouseout="resetHighlight(evt)"
             fill="rgb(99,154,206)"
             transform="matrix(1 0 0 1 0.888889 -0.444444)">
		<rect x="116" y="8" width="26" height="26"
			transform="matrix(1 0 0 1 29.7778 0.444444)"
			 style="stroke:rgb(0,0,0);stroke-width:1"/>
		<ellipse cx="126" cy="18" rx="6" ry="6"
			transform="matrix(1 0 0 1 29.7778 0.444444)"
			 style="stroke:rgb(0,0,0);stroke-width:1"/>
		<line x1="130" y1="23" x2="137" y2="29"
			transform="matrix(1 0 0 1 30.6667 -0.444445)"
		style="fill:none;stroke:rgb(0,0,0);stroke-width:2"/>
		<line x1="123" y1="18" x2="129" y2="18"
			transform="matrix(1 0 0 1 29.7778 0.444444)"
			 style="fill:none;stroke:rgb(0,0,0);stroke-width:2"/>
		<line x1="156" y1="15" x2="156" y2="22"
			 style="fill:none;stroke:rgb(0,0,0);stroke-width:2"/>
	</g>
	<g>
		<rect x="117" y="40" width="452" height="14"
			transform="matrix(1.54201 0 0 1 -64.1436 -0.222222)"
			 style="fill:rgb(192,192,192);stroke:rgb(0,0,0);stroke-width:1"/>
		<text id="status_text" x="183px" y="48px"
			transform="matrix(1 0 0 1 -63.5556 3.00778)"
			 style="fill:rgb(0,0,0);font-size:14;font-family:Arial"> </text>
	</g>
</g>	
</svg>