<?xml version="1.0" encoding="UTF-8" standalone="no"?><!DOCTYPE svg PUBLIC "-//W3C//DTD SVG 1.0//EN" "http://www.w3.org/TR/2001/REC-SVG-20010904/DTD/svg10.dtd" [ <!ATTLIST svg xmlns:xlink CDATA #FIXED "http://www.w3.org/1999/xlink">]><!-- Generated by WinGraphviz version ver1.02.23, 08/01/2003 (08/04/2003)     For user: Avi Ma'ayan   Title: G    Pages: 1 --><!--="735px" height="96px" xmlns="http://www.w3.org/2000/svg" --><svg onload="init(evt)" width="735px" height="600px" xmlns="http://www.w3.org/2000/svg" xmlns:xlink="http://www.w3.org/1999/xlink">
<script type="text/ecmascript">
<![CDATA[
var svgDocument;
var zoomAmt;
var xOffset;
var yOffset;
var scale;
var maxScale;
var imageWidth;
var imageHeight;
function init(evt)
{
    svgDocument = evt.getTarget().getOwnerDocument();
    zoomAmt = 0;
    xOffset = 0;
    yOffset = 60;
    scale = 0.8;
    maxScale = 10;
    imageWidth = 742;
    imageHeight = 606;
    panRestore();
    //panUp();
}
function transformMap ()
{
    var obj = svgDocument.getElementById("Pathway");
    var centerX = imageWidth  / 2.0;
    var centerY = imageHeight / 2.0;
    var adjustX = (-centerX * (scale - 0.8)) + xOffset;
    var adjustY = (-centerY * (scale - 0.8)) + yOffset;
    var transParms = 'translate(' + adjustX + ',' + adjustY + ') ';
    transParms += 'scale(' + scale + ')';
    // alert(transParms);
    obj.setAttribute("transform", transParms); 
}
function click_node(id)
{
    var testx = parent.click_node;
    if (typeof(testx) == "function")
    {
		parent.click_node(id);
    }
}
function click_relation(id)
{
    var testx = parent.click_relation;
    if (typeof(testx) == "function")
    {
        parent.click_relation(id);
    }
}
function click_pathway(toId, fromId)
{
    var testx = parent.click_pathway;
    if (typeof(testx) == "function")
    {
	parent.click_pathway(toId, fromId);
    }
}
function check_interpath(evt, pathid)
{
  var obj = evt.getTarget();
  var testx = parent.is_frompath;
  var child = obj.firstChild;
  if (typeof(testx) == "function")
  {
    if (parent.is_frompath(pathid))
    {
      while (child != null)
      {
        if (child.nodeType == 1)
        {
          if ((child.localName == "g") || (child.localName == "polyline"))
          {
            child.setAttribute("style", "fill:none;stroke:red");
          }
          else if (child.localName == "polygon")
          {
            child.setAttribute("style", "fill:red;stroke:red");
          }
        }
        child = child.nextSibling;
      }
    }
  }
}
function set_status (msg)
{
 var obj = svgDocument.getElementById("status_text");
  var child;
 
  child = obj.firstChild;
  if ((child != null) && (child.nodeType == 3))
  {
    if ((msg != null) && (msg.length > 0))
    {
      child.data = msg;
    }
    else
    {
child.data = " ";
    }
  }
}
function zoomIn ()
{
    scale = scale + 0.8;
    if (scale > maxScale)
    {
       scale = maxScale;
    }
    transformMap();
    panUp();
    panUp();
    panUp();
    panUp();
    panUp();
    panUp();
    panUp();
    panUp();
    panUp();
    panUp();
    panUp();
    panUp();
}
function zoomOut ()
{
    scale = scale - 0.8;
    if (scale < 0.8)
    {
       scale = 0.8;
    }
    transformMap();
    panDown();
    panDown();
    panDown();
    panDown();
    panDown();
    panDown();
    panDown();
    panDown();
    panDown();
    panDown();
    panDown();
    panDown();
}
function panUp ()
{
    yOffset = yOffset + 20;
    transformMap();
}
function panDown ()
{
    yOffset = yOffset - 20;
    transformMap();
}
function panLeft ()
{
    xOffset = xOffset + 20;
    transformMap();
}
function panRight ()
{
    xOffset = xOffset - 20;
    transformMap();
}
function panRestore ()
{
    xOffset = 0;
    yOffset = 0;
    scale = 0.5;
    //obj = svgDocument.getElementById("zoom");
    //obj.setAttribute("x1", 0);
    //obj.setAttribute("x2", 0);
    transformMap();    
}
function doHighlight (evt, msg)
{
  var obj = evt.getTarget();
  obj.setAttribute("fill", "rgb(239,24,33)");
  set_status(msg);
}
function resetHighlight (evt)
{
  var obj = evt.getTarget();
  obj.setAttribute("fill", "rgb(99,154,206)");
  set_status(" ");
}
// ]]>
</script>
<defs>
<clipPath id="theClip">
<polygon points="1 61, 741 61, 741 665, 1 665"
style="fill: none;"/>
</clipPath>
</defs>
<!-- viewport outline -->
<rect x="0" y="61" width="742" height="606"
style="stroke: black; stroke-width: 1; fill: none;"/>
<!-- pathway graph style="clip-path: url(#theClip);" -->
<g style="clip-path: url(#theClip);">
<g id="Pathway"  transform="translate(0,60)">
<!-- prefile.include ends, begin pathway graph -->
<g id="stkecm;CMP_10705" class="graph">
</g>
<g id="graph0" class="graph" style="font-family:Times New Roman;font-size:5.89;"><title>G</title><g id="node1" class="node"><title>CSK</title><a xlink:href="CSK.html"><ellipse cx="325" cy="14" rx="11" ry="7" style="fill:turquoise;stroke:turquoise;"/><text text-anchor="middle" x="325" y="16" style="font-family:Times New Roman;"><![CDATA[CSK]]></text></a></g><g id="node2" class="node"><title>FYN</title><a xlink:href="FYN.html"><ellipse cx="356" cy="45" rx="12" ry="7" style="fill:turquoise;stroke:turquoise;"/><text text-anchor="middle" x="356" y="47" style="font-family:Times New Roman;"><![CDATA[FYN]]></text></a></g><g id="edge2" class="edge"><title>CSK-&gt;FYN</title><path style="fill:none;stroke:darkgreen;" d="M331,21C336,25 342,31 347,36"/><polygon style="fill:darkgreen;stroke:darkgreen;" points="347,35 350,38 346,36 347,35"/></g><g id="node6" class="node"><title>BCAR1</title><a xlink:href="BCAR1.html"><ellipse cx="22" cy="75" rx="15" ry="7" style="fill:turquoise;stroke:turquoise;"/><text text-anchor="middle" x="22" y="77" style="font-family:Times New Roman;"><![CDATA[BCAR1]]></text></a></g><g id="edge6" class="edge"><title>FYN-&gt;BCAR1</title><path style="fill:none;stroke:darkgreen;" d="M344,45C294,47 100,54 41,67 40,68 38,68 37,69"/><polygon style="fill:darkgreen;stroke:darkgreen;" points="37,69 33,70 37,67 37,69"/></g><g id="node8" class="node"><title>CBL</title><a xlink:href="CBL.html"><ellipse cx="56" cy="75" rx="11" ry="7" style="fill:turquoise;stroke:turquoise;"/><text text-anchor="middle" x="56" y="77" style="font-family:Times New Roman;"><![CDATA[CBL]]></text></a></g><g id="edge8" class="edge"><title>FYN-&gt;CBL</title><path style="fill:none;stroke:darkgreen;" d="M344,45C297,46 124,53 71,67 71,68 69,68 68,69"/><polygon style="fill:darkgreen;stroke:darkgreen;" points="69,69 65,70 68,67 69,69"/></g><g id="node10" class="node"><title>TGFB1I1</title><a xlink:href="TGFB1I1.html"><ellipse cx="92" cy="75" rx="16" ry="7" style="fill:turquoise;stroke:turquoise;"/><text text-anchor="middle" x="92" y="77" style="font-family:Times New Roman;"><![CDATA[TGFB1I1]]></text></a></g><g id="edge10" class="edge"><title>FYN-&gt;TGFB1I1</title><path style="fill:none;stroke:darkgreen;" d="M344,45C301,48 158,57 113,67 111,68 110,68 108,69"/><polygon style="fill:darkgreen;stroke:darkgreen;" points="109,69 105,70 108,67 109,69"/></g><g id="node12" class="node"><title>ITGB1</title><a xlink:href="ITGB1.html"><ellipse cx="130" cy="75" rx="13" ry="7" style="fill:turquoise;stroke:turquoise;"/><text text-anchor="middle" x="130" y="77" style="font-family:Times New Roman;"><![CDATA[ITGB1]]></text></a></g><g id="edge12" class="edge"><title>FYN-&gt;ITGB1</title><path style="fill:none;stroke:darkgreen;" d="M344,45C306,48 186,58 148,67 147,68 146,68 145,69"/><polygon style="fill:darkgreen;stroke:darkgreen;" points="145,69 141,70 145,67 145,69"/></g><g id="node14" class="node"><title>PTPRF</title><a xlink:href="PTPRF.html"><ellipse cx="167" cy="75" rx="15" ry="7" style="fill:turquoise;stroke:turquoise;"/><text text-anchor="middle" x="167" y="77" style="font-family:Times New Roman;"><![CDATA[PTPRF]]></text></a></g><g id="edge14" class="edge"><title>FYN-&gt;PTPRF</title><path style="fill:none;stroke:darkgreen;" d="M344,45C315,47 242,52 182,67 182,67 181,68 180,68"/><polygon style="fill:darkgreen;stroke:darkgreen;" points="181,69 177,69 180,66 181,69"/></g><g id="node16" class="node"><title>RASA1</title><a xlink:href="RASA1.html"><ellipse cx="205" cy="75" rx="15" ry="7" style="fill:turquoise;stroke:turquoise;"/><text text-anchor="middle" x="205" y="77" style="font-family:Times New Roman;"><![CDATA[RASA1]]></text></a></g><g id="edge16" class="edge"><title>FYN-&gt;RASA1</title><path style="fill:none;stroke:#0000ff;" d="M342,46C318,49 266,56 224,67 221,68 220,69 218,69"/><polygon style="fill:#0000ff;stroke:#0000ff;" points="344,47 344,45 342,45 342,47 344,47"/><polygon style="fill:#0000ff;stroke:#0000ff;" points="216,69 217,71 219,70 218,69 216,69"/></g><g id="node18" class="node"><title>PXN</title><a xlink:href="PXN.html"><ellipse cx="240" cy="75" rx="12" ry="7" style="fill:turquoise;stroke:turquoise;"/><text text-anchor="middle" x="240" y="77" style="font-family:Times New Roman;"><![CDATA[PXN]]></text></a></g><g id="edge18" class="edge"><title>FYN-&gt;PXN</title><path style="fill:none;stroke:#0000ff;" d="M343,47C323,50 286,57 256,67 254,68 252,69 251,69"/><polygon style="fill:#0000ff;stroke:#0000ff;" points="345,47 345,45 343,46 343,48 345,47"/><polygon style="fill:#0000ff;stroke:#0000ff;" points="249,69 250,71 251,70 251,69 249,69"/></g><g id="node20" class="node"><title>PIK3CA</title><a xlink:href="PIK3CA.html"><ellipse cx="276" cy="75" rx="16" ry="7" style="fill:turquoise;stroke:turquoise;"/><text text-anchor="middle" x="276" y="77" style="font-family:Times New Roman;"><![CDATA[PIK3CA]]></text></a></g><g id="edge20" class="edge"><title>FYN-&gt;PIK3CA</title><path style="fill:none;stroke:#0000ff;" d="M344,49C330,55 306,64 291,69"/><polygon style="fill:#0000ff;stroke:#0000ff;" points="346,49 346,48 343,48 344,50 346,49"/><polygon style="fill:#0000ff;stroke:#0000ff;" points="289,69 290,71 292,70 291,69 289,69"/></g><g id="node22" class="node"><title>PRKCA</title><a xlink:href="PRKCA.html"><ellipse cx="317" cy="75" rx="16" ry="7" style="fill:turquoise;stroke:turquoise;"/><text text-anchor="middle" x="317" y="77" style="font-family:Times New Roman;"><![CDATA[PRKCA]]></text></a></g><g id="edge22" class="edge"><title>FYN-&gt;PRKCA</title><path style="fill:none;stroke:darkgreen;" d="M349,51C343,55 335,61 329,66"/><polygon style="fill:darkgreen;stroke:darkgreen;" points="330,66 326,68 329,65 330,66"/></g><g id="node24" class="node"><title>PLCG1</title><a xlink:href="PLCG1.html"><ellipse cx="356" cy="75" rx="14" ry="7" style="fill:turquoise;stroke:turquoise;"/><text text-anchor="middle" x="356" y="77" style="font-family:Times New Roman;"><![CDATA[PLCG1]]></text></a></g><g id="edge24" class="edge"><title>FYN-&gt;PLCG1</title><path style="fill:none;stroke:darkgreen;" d="M356,52C356,56 356,59 356,63"/><polygon style="fill:darkgreen;stroke:darkgreen;" points="358,63 356,67 356,63 358,63"/></g><g id="node26" class="node"><title>PTK2B</title><a xlink:href="PTK2B.html"><ellipse cx="394" cy="75" rx="15" ry="7" style="fill:turquoise;stroke:turquoise;"/><text text-anchor="middle" x="394" y="77" style="font-family:Times New Roman;"><![CDATA[PTK2B]]></text></a></g><g id="edge26" class="edge"><title>FYN-&gt;PTK2B</title><path style="fill:none;stroke:#0000ff;" d="M366,52C372,56 379,62 385,67"/><polygon style="fill:#0000ff;stroke:#0000ff;" points="365,50 364,51 365,53 367,51 365,50"/><polygon style="fill:#0000ff;stroke:#0000ff;" points="386,69 387,67 386,66 384,68 386,69"/></g><g id="node28" class="node"><title>GNB2L1</title><a xlink:href="GNB2L1.html"><ellipse cx="435" cy="75" rx="17" ry="7" style="fill:turquoise;stroke:turquoise;"/><text text-anchor="middle" x="435" y="77" style="font-family:Times New Roman;"><![CDATA[GNB2L1]]></text></a></g><g id="edge28" class="edge"><title>FYN-&gt;GNB2L1</title><path style="fill:none;stroke:#0000ff;" d="M369,50C383,55 405,64 420,69"/><polygon style="fill:#0000ff;stroke:#0000ff;" points="367,48 367,50 369,51 370,49 367,48"/><polygon style="fill:#0000ff;stroke:#0000ff;" points="421,71 422,69 420,69 419,70 421,71"/></g><g id="node30" class="node"><title>RICS</title><a xlink:href="RICS.html"><ellipse cx="472" cy="75" rx="12" ry="7" style="fill:turquoise;stroke:turquoise;"/><text text-anchor="middle" x="472" y="77" style="font-family:Times New Roman;"><![CDATA[RICS]]></text></a></g><g id="edge30" class="edge"><title>FYN-&gt;RICS</title><path style="fill:none;stroke:darkgreen;" d="M368,46C387,50 425,57 456,67 457,68 458,68 459,69"/><polygon style="fill:darkgreen;stroke:darkgreen;" points="459,67 462,70 458,69 459,67"/></g><g id="node32" class="node"><title>SHC1</title><a xlink:href="SHC1.html"><ellipse cx="504" cy="75" rx="12" ry="7" style="fill:turquoise;stroke:turquoise;"/><text text-anchor="middle" x="504" y="77" style="font-family:Times New Roman;"><![CDATA[SHC1]]></text></a></g><g id="edge32" class="edge"><title>FYN-&gt;SHC1</title><path style="fill:none;stroke:darkgreen;" d="M369,45C392,48 445,54 488,67 489,68 490,68 491,69"/><polygon style="fill:darkgreen;stroke:darkgreen;" points="491,67 494,70 490,69 491,67"/></g><g id="node34" class="node"><title>PTPN11</title><a xlink:href="PTPN11.html"><ellipse cx="539" cy="75" rx="15" ry="7" style="fill:turquoise;stroke:turquoise;"/><text text-anchor="middle" x="539" y="77" style="font-family:Times New Roman;"><![CDATA[PTPN11]]></text></a></g><g id="edge34" class="edge"><title>FYN-&gt;PTPN11</title><path style="fill:none;stroke:darkgreen;" d="M369,45C396,47 464,53 520,67 521,68 522,68 523,69"/><polygon style="fill:darkgreen;stroke:darkgreen;" points="523,67 527,70 523,69 523,67"/></g><g id="node36" class="node"><title>SOS1</title><a xlink:href="SOS1.html"><ellipse cx="574" cy="75" rx="11" ry="7" style="fill:turquoise;stroke:turquoise;"/><text text-anchor="middle" x="574" y="77" style="font-family:Times New Roman;"><![CDATA[SOS1]]></text></a></g><g id="edge36" class="edge"><title>FYN-&gt;SOS1</title><path style="fill:none;stroke:#0000ff;" d="M371,45C411,48 523,57 558,67 560,68 561,69 563,69"/><polygon style="fill:#0000ff;stroke:#0000ff;" points="369,44 369,46 371,46 371,44 369,44"/><polygon style="fill:#0000ff;stroke:#0000ff;" points="564,71 565,69 563,68 563,70 564,71"/></g><g id="node38" class="node"><title>SDC4</title><a xlink:href="SDC4.html"><ellipse cx="605" cy="75" rx="13" ry="7" style="fill:turquoise;stroke:turquoise;"/><text text-anchor="middle" x="605" y="77" style="font-family:Times New Roman;"><![CDATA[SDC4]]></text></a></g><g id="edge38" class="edge"><title>FYN-&gt;SDC4</title><path style="fill:none;stroke:darkgreen;" d="M369,45C410,48 546,56 589,67 589,68 591,68 592,69"/><polygon style="fill:darkgreen;stroke:darkgreen;" points="592,67 595,70 591,69 592,67"/></g><g id="node40" class="node"><title>THY1</title><a xlink:href="THY1.html"><ellipse cx="639" cy="75" rx="13" ry="7" style="fill:turquoise;stroke:turquoise;"/><text text-anchor="middle" x="639" y="77" style="font-family:Times New Roman;"><![CDATA[THY1]]></text></a></g><g id="edge40" class="edge"><title>FYN-&gt;THY1</title><path style="fill:none;stroke:#0000ff;" d="M371,45C418,47 574,55 622,67 624,68 626,69 627,69"/><polygon style="fill:#0000ff;stroke:#0000ff;" points="369,44 369,46 371,46 371,44 369,44"/><polygon style="fill:#0000ff;stroke:#0000ff;" points="629,71 629,69 628,68 627,70 629,71"/></g><g id="node42" class="node"><title>TUBA1</title><a xlink:href="TUBA1.html"><ellipse cx="675" cy="75" rx="15" ry="7" style="fill:turquoise;stroke:turquoise;"/><text text-anchor="middle" x="675" y="77" style="font-family:Times New Roman;"><![CDATA[TUBA1]]></text></a></g><g id="edge42" class="edge"><title>FYN-&gt;TUBA1</title><path style="fill:none;stroke:#0000ff;" d="M371,45C423,47 600,55 656,67 658,68 660,69 662,69"/><polygon style="fill:#0000ff;stroke:#0000ff;" points="369,44 369,46 371,46 371,44 369,44"/><polygon style="fill:#0000ff;stroke:#0000ff;" points="664,71 664,69 662,69 661,70 664,71"/></g><g id="node44" class="node"><title>VAV1</title><a xlink:href="VAV1.html"><ellipse cx="712" cy="75" rx="13" ry="7" style="fill:turquoise;stroke:turquoise;"/><text text-anchor="middle" x="712" y="77" style="font-family:Times New Roman;"><![CDATA[VAV1]]></text></a></g><g id="edge44" class="edge"><title>FYN-&gt;VAV1</title><path style="fill:none;stroke:darkgreen;" d="M369,45C422,46 631,52 695,67 696,67 697,68 698,68"/><polygon style="fill:darkgreen;stroke:darkgreen;" points="698,67 702,70 698,69 698,67"/></g><g id="node4" class="node"><title>PTK2</title><a xlink:href="PTK2.html"><ellipse cx="356" cy="14" rx="13" ry="7" style="fill:turquoise;stroke:turquoise;"/><text text-anchor="middle" x="356" y="16" style="font-family:Times New Roman;"><![CDATA[PTK2]]></text></a></g><g id="edge4" class="edge"><title>PTK2-&gt;FYN</title><path style="fill:none;stroke:darkgreen;" d="M356,22C356,25 356,29 356,33"/><polygon style="fill:darkgreen;stroke:darkgreen;" points="358,33 356,37 356,33 358,33"/></g><g id="edge46" class="edge"><title>PTPRF-&gt;FYN</title><path style="fill:none;stroke:#ff0000;" d="M338,46C307,48 243,53 190,67 186,68 183,69 179,71"/><polyline style="fill:none;stroke:#ff0000;" points="338,49 338,43 "/></g><g id="node47" class="node"><title>PTPRA</title><a xlink:href="PTPRA.html"><ellipse cx="393" cy="14" rx="15" ry="7" style="fill:turquoise;stroke:turquoise;"/><text text-anchor="middle" x="393" y="16" style="font-family:Times New Roman;"><![CDATA[PTPRA]]></text></a></g><g id="edge48" class="edge"><title>PTPRA-&gt;FYN</title><path style="fill:none;stroke:#ff0000;" d="M385,21C380,25 374,30 369,35"/><polyline style="fill:none;stroke:#ff0000;" points="367,32 371,37 "/></g></g></g></g>
<!-- navigation controls -->
<g id="navbox">
	<rect x="0" y="0" width="742" height="60"
		 style="fill:rgb(206,207,206);stroke:rgb(0,0,0);stroke-width:1"/>

	<polygon id="pan_right"
        onmouseup="panRight()"
        onmouseover="doHighlight(evt, 'Click to pan to the right')"
        onmouseout="resetHighlight(evt)"
		points="28.0732,13 32,20.5 28.0732,28 28.0732,23.4412 25,23.4412 25,17.4118 28.0732,17.4118"
		 transform="matrix(3.39111 0 0 2.98838 -12.6265 -29.7101)"
         fill="rgb(99,154,206)"
		 style="stroke:rgb(0,0,0);stroke-width:0.5"/>
	<polygon id="pan_left"
        onmouseup="panLeft()"
        onmouseover="doHighlight(evt, 'Click to pan to the left')"
        onmouseout="resetHighlight(evt)"
		points="123.991,25 120.064,32.5 123.991,40 123.991,35.4412 127.064,35.4412 127.064,29.4118
			123.991,29.4118" transform="matrix(3.39111 0 0 2.98838 -404.865 -65.5706)"
         fill="rgb(99,154,206)"
		 style="stroke:rgb(0,0,0);stroke-width:0.5"/>
	<polygon id="pan_down"
        onmouseup="panDown()"
        onmouseover="doHighlight(evt, 'Click to pan down')"
        onmouseout="resetHighlight(evt)"
		points="116.032,32.0408 123.532,35.9678 131.032,32.0408 126.473,32.0408 126.473,28.9678 120.444,28.9678
			120.444,32.0408" transform="matrix(3.39111 0 0 2.98838 -369.822 -50.6287)"
         fill="rgb(99,154,206)"
		 style="stroke:rgb(0,0,0);stroke-width:0.5"/>
	<polygon id="pan_up"
        onmouseup="panUp()"
  onmouseover="doHighlight(evt, 'Click to pan up')"
        onmouseout="resetHighlight(evt)"
		points="116.032,32.0408 123.532,35.9678 131.032,32.0408 126.473,32.0408 126.473,28.9678 120.444,28.9678
			120.444,32.0408" transform="matrix(3.39111 0 0 -2.98838 -369.823 111.74)"
         fill="rgb(99,154,206)"
		 style="stroke:rgb(0,0,0);stroke-width:0.5"/>
	<g id="go_home" 
         onmouseup="panRestore()" 
         onmouseover="doHighlight(evt, 'Click to restore graph to original position')"
         onmouseout="resetHighlight(evt)"
         fill="rgb(99,154,206)"
         transform="matrix(1 0 0 1 0 -0.333333)">
		<rect x="196" y="11" width="26" height="26"
			transform="translate(-19.1111 -2.66667)"
			 style="stroke:rgb(0,0,0);stroke-width:1"/>
		<line x1="182" y1="16" x2="182" y2="28"
			transform="matrix(1 0 0 1 2.22222 0.444444)"
			 style="fill:none;stroke:rgb(0,0,0);stroke-width:2"/>
		<line x1="187" y1="22" x2="187" y2="28"
			transform="matrix(1 0 0 1 2.22222 0.444444)"
			 style="fill:none;stroke:rgb(0,0,0);stroke-width:2"/>
	<line x1="192" y1="13" x2="192" y2="28"
			transform="matrix(1 0 0 1 2.22222 0.444444)"
			 style="fill:none;stroke:rgb(0,0,0);stroke-width:2"/>
		<line x1="182" y1="28" x2="192" y2="28"
			transform="matrix(1 0 0 1 2.22222 0.444444)"
	style="fill:none;stroke:rgb(0,0,0);stroke-width:2"/>
		<line x1="189" y1="12" x2="179" y2="21"
			 style="fill:none;stroke:rgb(0,0,0);stroke-width:2"/>
		<line x1="188" y1="12" x2="199" y2="20"
			 style="fill:none;stroke:rgb(0,0,0);stroke-width:2"/>
	</g>
	<g id="zoom_out" onmouseup="zoomOut()" 
             onmouseover="doHighlight(evt, 'Click to zoom out')"
             onmouseout="resetHighlight(evt)"
             fill="rgb(99,154,206)"
             transform="matrix(1 0 0 1 0 0)">
		<rect x="116" y="8" width="26" height="26"
			 style="stroke:rgb(0,0,0);stroke-width:1"/>
		<ellipse cx="126" cy="18" rx="6" ry="6"
			 style="stroke:rgb(0,0,0);stroke-width:1"/>
		<line x1="130" y1="23" x2="137" y2="29"
			transform="matrix(1 0 0 1 0.888889 -0.888889)"
			 style="fill:none;stroke:rgb(0,0,0);stroke-width:2"/>
		<line x1="123" y1="18" x2="129" y2="18"
			 style="fill:none;stroke:rgb(0,0,0);stroke-width:2"/>
	</g>
	<g id="zoom_in" onmouseup="zoomIn()" 
             onmouseover="doHighlight(evt, 'Click to zoom in')"
             onmouseout="resetHighlight(evt)"
             fill="rgb(99,154,206)"
             transform="matrix(1 0 0 1 0.888889 -0.444444)">
		<rect x="116" y="8" width="26" height="26"
			transform="matrix(1 0 0 1 29.7778 0.444444)"
			 style="stroke:rgb(0,0,0);stroke-width:1"/>
		<ellipse cx="126" cy="18" rx="6" ry="6"
			transform="matrix(1 0 0 1 29.7778 0.444444)"
			 style="stroke:rgb(0,0,0);stroke-width:1"/>
		<line x1="130" y1="23" x2="137" y2="29"
			transform="matrix(1 0 0 1 30.6667 -0.444445)"
		style="fill:none;stroke:rgb(0,0,0);stroke-width:2"/>
		<line x1="123" y1="18" x2="129" y2="18"
			transform="matrix(1 0 0 1 29.7778 0.444444)"
			 style="fill:none;stroke:rgb(0,0,0);stroke-width:2"/>
		<line x1="156" y1="15" x2="156" y2="22"
			 style="fill:none;stroke:rgb(0,0,0);stroke-width:2"/>
	</g>
	<g>
		<rect x="117" y="40" width="452" height="14"
			transform="matrix(1.54201 0 0 1 -64.1436 -0.222222)"
			 style="fill:rgb(192,192,192);stroke:rgb(0,0,0);stroke-width:1"/>
		<text id="status_text" x="183px" y="48px"
			transform="matrix(1 0 0 1 -63.5556 3.00778)"
			 style="fill:rgb(0,0,0);font-size:14;font-family:Arial"> </text>
	</g>
</g>	
</svg>