<?xml version="1.0" encoding="UTF-8" standalone="no"?><!DOCTYPE svg PUBLIC "-//W3C//DTD SVG 1.0//EN" "http://www.w3.org/TR/2001/REC-SVG-20010904/DTD/svg10.dtd" [ <!ATTLIST svg xmlns:xlink CDATA #FIXED "http://www.w3.org/1999/xlink">]><!-- Generated by WinGraphviz version ver1.02.23, 08/01/2003 (08/04/2003)     For user: Avi Ma'ayan   Title: G    Pages: 1 --><svg width="652px" height="276px" xmlns="http://www.w3.org/2000/svg" xmlns:xlink="http://www.w3.org/1999/xlink"><g id="graph0" class="graph" style="font-family:Times New Roman;font-size:18.67;"><title>G</title><g id="node1" class="node"><title>GAB1</title><a xlink:href="GAB1.html"><ellipse cx="313" cy="135" rx="42" ry="24" style="fill:turquoise;stroke:turquoise;"/><text text-anchor="middle" x="313" y="142" style="font-family:Times New Roman;"><![CDATA[GAB1]]></text></a></g><g id="node2" class="node"><title>PXN</title><a xlink:href="PXN.html"><ellipse cx="45" cy="231" rx="38" ry="24" style="fill:turquoise;stroke:turquoise;"/><text text-anchor="middle" x="45" y="238" style="font-family:Times New Roman;"><![CDATA[PXN]]></text></a></g><g id="edge2" class="edge"><title>GAB1-&gt;PXN</title><path style="fill:none;stroke:#0000ff;" d="M268,147C225,162 154,185 96,207 90,210 85,211 81,214"/><polygon style="fill:#0000ff;stroke:#0000ff;" points="274,149 274,143 268,145 268,150 274,149"/><polygon style="fill:#0000ff;stroke:#0000ff;" points="74,214 77,219 82,217 80,211 74,214"/></g><g id="node4" class="node"><title>CRK</title><a xlink:href="CRK.html"><ellipse cx="146" cy="231" rx="38" ry="24" style="fill:turquoise;stroke:turquoise;"/><text text-anchor="middle" x="146" y="238" style="font-family:Times New Roman;"><![CDATA[CRK]]></text></a></g><g id="edge4" class="edge"><title>GAB1-&gt;CRK</title><path style="fill:none;stroke:#0000ff;" d="M276,157C246,173 209,197 181,213"/><polygon style="fill:#0000ff;stroke:#0000ff;" points="284,155 281,150 276,154 278,159 284,155"/><polygon style="fill:#0000ff;stroke:#0000ff;" points="174,213 177,218 182,215 179,210 174,213"/></g><g id="node6" class="node"><title>GRB2</title><a xlink:href="GRB2.html"><ellipse cx="253" cy="231" rx="44" ry="24" style="fill:turquoise;stroke:turquoise;"/><text text-anchor="middle" x="253" y="238" style="font-family:Times New Roman;"><![CDATA[GRB2]]></text></a></g><g id="edge6" class="edge"><title>GAB1-&gt;GRB2</title><path style="fill:none;stroke:#0000ff;" d="M296,163C288,175 278,190 270,203"/><polygon style="fill:#0000ff;stroke:#0000ff;" points="301,159 296,157 293,162 298,165 301,159"/><polygon style="fill:#0000ff;stroke:#0000ff;" points="265,207 270,210 273,205 268,202 265,207"/></g><g id="node8" class="node"><title>PIK3CA</title><a xlink:href="PIK3CA.html"><ellipse cx="374" cy="231" rx="53" ry="24" style="fill:turquoise;stroke:turquoise;"/><text text-anchor="middle" x="374" y="238" style="font-family:Times New Roman;"><![CDATA[PIK3CA]]></text></a></g><g id="edge8" class="edge"><title>GAB1-&gt;PIK3CA</title><path style="fill:none;stroke:#0000ff;" d="M330,163C338,175 349,190 357,202"/><polygon style="fill:#0000ff;stroke:#0000ff;" points="330,157 325,159 328,165 333,162 330,157"/><polygon style="fill:#0000ff;stroke:#0000ff;" points="357,209 362,206 360,201 354,203 357,209"/></g><g id="node10" class="node"><title>CRKL</title><a xlink:href="CRKL.html"><ellipse cx="497" cy="231" rx="45" ry="24" style="fill:turquoise;stroke:turquoise;"/><text text-anchor="middle" x="497" y="238" style="font-family:Times New Roman;"><![CDATA[CRKL]]></text></a></g><g id="edge10" class="edge"><title>GAB1-&gt;CRKL</title><path style="fill:none;stroke:#0000ff;" d="M352,154C384,170 428,195 460,211"/><polygon style="fill:#0000ff;stroke:#0000ff;" points="346,149 344,154 350,157 353,151 346,149"/><polygon style="fill:#0000ff;stroke:#0000ff;" points="464,217 466,211 461,209 458,214 464,217"/></g><g id="node12" class="node"><title>RICS</title><a xlink:href="RICS.html"><ellipse cx="605" cy="231" rx="38" ry="24" style="fill:turquoise;stroke:turquoise;"/><text text-anchor="middle" x="605" y="238" style="font-family:Times New Roman;"><![CDATA[RICS]]></text></a></g><g id="edge12" class="edge"><title>GAB1-&gt;RICS</title><path style="fill:none;stroke:#0000ff;" d="M358,146C408,159 486,182 554,207 559,210 565,211 569,214"/><polygon style="fill:#0000ff;stroke:#0000ff;" points="352,142 352,147 358,149 358,143 352,142"/><polygon style="fill:#0000ff;stroke:#0000ff;" points="573,219 575,214 570,211 567,217 573,219"/></g><g id="node14" class="node"><title>INSR</title><a xlink:href="INSR.html"><ellipse cx="257" cy="39" rx="40" ry="24" style="fill:turquoise;stroke:turquoise;"/><text text-anchor="middle" x="257" y="46" style="font-family:Times New Roman;"><![CDATA[INSR]]></text></a></g><g id="edge14" class="edge"><title>INSR-&gt;GAB1</title><path style="fill:none;stroke:darkgreen;" d="M270,62C277,73 285,87 293,101"/><polygon style="fill:darkgreen;stroke:darkgreen;" points="296,98 300,111 290,102 296,98"/></g><g id="node16" class="node"><title>PTPN11</title><a xlink:href="PTPN11.html"><ellipse cx="370" cy="39" rx="49" ry="24" style="fill:turquoise;stroke:turquoise;"/><text text-anchor="middle" x="370" y="46" style="font-family:Times New Roman;"><![CDATA[PTPN11]]></text></a></g><g id="edge16" class="edge"><title>PTPN11-&gt;GAB1</title><path style="fill:none;stroke:#ff0000;" d="M357,62C350,73 344,85 337,95"/><polyline style="fill:none;stroke:#ff0000;" points="328,90 345,101 "/></g></g></svg>