<?xml version="1.0" encoding="UTF-8" standalone="no"?><!DOCTYPE svg PUBLIC "-//W3C//DTD SVG 1.0//EN" "http://www.w3.org/TR/2001/REC-SVG-20010904/DTD/svg10.dtd" [ <!ATTLIST svg xmlns:xlink CDATA #FIXED "http://www.w3.org/1999/xlink">]><!-- Generated by WinGraphviz version ver1.02.23, 08/01/2003 (08/04/2003)     For user: Avi Ma'ayan   Title: G    Pages: 1 --><svg width="735px" height="218px" xmlns="http://www.w3.org/2000/svg" xmlns:xlink="http://www.w3.org/1999/xlink"><g id="graph0" class="graph" style="font-family:Times New Roman;font-size:14.48;"><title>G</title><g id="node1" class="node"><title>PTK2</title><a xlink:href="PTK2.html"><ellipse cx="319" cy="32" rx="32" ry="18" style="fill:turquoise;stroke:turquoise;"/><text text-anchor="middle" x="319" y="37" style="font-family:Times New Roman;"><![CDATA[PTK2]]></text></a></g><g id="node2" class="node"><title>GIT1</title><a xlink:href="GIT1.html"><ellipse cx="358" cy="106" rx="27" ry="18" style="fill:turquoise;stroke:turquoise;"/><text text-anchor="middle" x="358" y="112" style="font-family:Times New Roman;"><![CDATA[GIT1]]></text></a></g><g id="edge2" class="edge"><title>PTK2-&gt;GIT1</title><path style="fill:none;stroke:darkgreen;" d="M328,50C333,59 338,70 344,80"/><polygon style="fill:darkgreen;stroke:darkgreen;" points="347,79 349,89 342,81 347,79"/></g><g id="node4" class="node"><title>ARF1</title><a xlink:href="ARF1.html"><ellipse cx="37" cy="181" rx="31" ry="18" style="fill:turquoise;stroke:turquoise;"/><text text-anchor="middle" x="37" y="186" style="font-family:Times New Roman;"><![CDATA[ARF1]]></text></a></g><g id="edge4" class="edge"><title>GIT1-&gt;ARF1</title><path style="fill:none;stroke:#ff0000;" d="M330,110C279,117 168,133 78,162 77,162 75,163 74,163"/><polyline style="fill:none;stroke:#ff0000;" points="72,156 79,171 "/></g><g id="node6" class="node"><title>TGFB1I1</title><a xlink:href="TGFB1I1.html"><ellipse cx="128" cy="181" rx="41" ry="18" style="fill:turquoise;stroke:turquoise;"/><text text-anchor="middle" x="128" y="186" style="font-family:Times New Roman;"><![CDATA[TGFB1I1]]></text></a></g><g id="edge6" class="edge"><title>GIT1-&gt;TGFB1I1</title><path style="fill:none;stroke:#0000ff;" d="M327,116C292,127 231,146 179,162 174,164 170,165 164,167"/><polygon style="fill:#0000ff;stroke:#0000ff;" points="333,116 331,112 326,114 328,118 333,116"/><polygon style="fill:#0000ff;stroke:#0000ff;" points="159,167 161,172 165,170 163,165 159,167"/></g><g id="node8" class="node"><title>LPXN</title><a xlink:href="LPXN.html"><ellipse cx="223" cy="181" rx="35" ry="18" style="fill:turquoise;stroke:turquoise;"/><text text-anchor="middle" x="223" y="186" style="font-family:Times New Roman;"><![CDATA[LPXN]]></text></a></g><g id="edge8" class="edge"><title>GIT1-&gt;LPXN</title><path style="fill:none;stroke:#0000ff;" d="M331,122C308,134 275,152 252,165"/><polygon style="fill:#0000ff;stroke:#0000ff;" points="337,121 335,117 331,120 333,124 337,121"/><polygon style="fill:#0000ff;stroke:#0000ff;" points="247,165 249,170 253,167 251,163 247,165"/></g><g id="node10" class="node"><title>PPFIA1</title><a xlink:href="PPFIA1.html"><ellipse cx="314" cy="181" rx="37" ry="18" style="fill:turquoise;stroke:turquoise;"/><text text-anchor="middle" x="314" y="186" style="font-family:Times New Roman;"><![CDATA[PPFIA1]]></text></a></g><g id="edge10" class="edge"><title>GIT1-&gt;PPFIA1</title><path style="fill:none;stroke:#0000ff;" d="M345,128C340,137 333,149 327,158"/><polygon style="fill:#0000ff;stroke:#0000ff;" points="350,125 345,123 343,127 348,129 350,125"/><polygon style="fill:#0000ff;stroke:#0000ff;" points="323,161 327,163 329,159 325,157 323,161"/></g><g id="node12" class="node"><title>PAK1</title><a xlink:href="PAK1.html"><ellipse cx="402" cy="181" rx="32" ry="18" style="fill:turquoise;stroke:turquoise;"/><text text-anchor="middle" x="402" y="186" style="font-family:Times New Roman;"><![CDATA[PAK1]]></text></a></g><g id="edge12" class="edge"><title>GIT1-&gt;PAK1</title><path style="fill:none;stroke:#0000ff;" d="M370,128C377,137 384,149 390,159"/><polygon style="fill:#0000ff;stroke:#0000ff;" points="370,123 366,125 368,129 372,127 370,123"/><polygon style="fill:#0000ff;stroke:#0000ff;" points="390,164 394,162 392,158 388,160 390,164"/></g><g id="node14" class="node"><title>PXN</title><a xlink:href="PXN.html"><ellipse cx="483" cy="181" rx="29" ry="18" style="fill:turquoise;stroke:turquoise;"/><text text-anchor="middle" x="483" y="186" style="font-family:Times New Roman;"><![CDATA[PXN]]></text></a></g><g id="edge14" class="edge"><title>GIT1-&gt;PXN</title><path style="fill:none;stroke:#0000ff;" d="M384,122C405,134 435,153 457,166"/><polygon style="fill:#0000ff;stroke:#0000ff;" points="380,117 378,121 382,124 384,120 380,117"/><polygon style="fill:#0000ff;stroke:#0000ff;" points="460,171 462,166 458,164 456,169 460,171"/></g><g id="node16" class="node"><title>ARHGEF6</title><a xlink:href="ARHGEF6.html"><ellipse cx="583" cy="181" rx="51" ry="18" style="fill:turquoise;stroke:turquoise;"/><text text-anchor="middle" x="583" y="186" style="font-family:Times New Roman;"><![CDATA[ARHGEF6]]></text></a></g><g id="edge16" class="edge"><title>GIT1-&gt;ARHGEF6</title><path style="fill:none;stroke:#0000ff;" d="M389,117C428,130 497,153 541,167"/><polygon style="fill:#0000ff;stroke:#0000ff;" points="385,113 383,117 388,119 390,115 385,113"/><polygon style="fill:#0000ff;stroke:#0000ff;" points="544,171 546,166 541,165 539,170 544,171"/></g><g id="node18" class="node"><title>PLCG1</title><a xlink:href="PLCG1.html"><ellipse cx="690" cy="181" rx="36" ry="18" style="fill:turquoise;stroke:turquoise;"/><text text-anchor="middle" x="690" y="186" style="font-family:Times New Roman;"><![CDATA[PLCG1]]></text></a></g><g id="edge18" class="edge"><title>GIT1-&gt;PLCG1</title><path style="fill:none;stroke:#0000ff;" d="M391,112C444,119 553,136 644,162 649,164 654,165 658,167"/><polygon style="fill:#0000ff;stroke:#0000ff;" points="386,109 386,113 391,114 391,110 386,109"/><polygon style="fill:#0000ff;stroke:#0000ff;" points="661,171 663,166 658,165 656,170 661,171"/></g><g id="node20" class="node"><title>SRC</title><a xlink:href="SRC.html"><ellipse cx="397" cy="32" rx="27" ry="18" style="fill:turquoise;stroke:turquoise;"/><text text-anchor="middle" x="397" y="37" style="font-family:Times New Roman;"><![CDATA[SRC]]></text></a></g><g id="edge20" class="edge"><title>SRC-&gt;GIT1</title><path style="fill:none;stroke:darkgreen;" d="M388,50C383,58 378,69 371,80"/><polygon style="fill:darkgreen;stroke:darkgreen;" points="373,81 367,89 369,79 373,81"/></g></g></svg>