<?xml version="1.0" encoding="UTF-8" standalone="no"?><!DOCTYPE svg PUBLIC "-//W3C//DTD SVG 1.0//EN" "http://www.w3.org/TR/2001/REC-SVG-20010904/DTD/svg10.dtd" [ <!ATTLIST svg xmlns:xlink CDATA #FIXED "http://www.w3.org/1999/xlink">]><!-- Generated by WinGraphviz version ver1.02.23, 08/01/2003 (08/04/2003)     For user: Avi Ma'ayan   Title: G    Pages: 1 --><svg width="455px" height="276px" xmlns="http://www.w3.org/2000/svg" xmlns:xlink="http://www.w3.org/1999/xlink"><g id="graph0" class="graph" style="font-family:Times New Roman;font-size:18.67;"><title>G</title><g id="node1" class="node"><title>FYN</title><a xlink:href="FYN.html"><ellipse cx="45" cy="39" rx="38" ry="24" style="fill:turquoise;stroke:turquoise;"/><text text-anchor="middle" x="45" y="46" style="font-family:Times New Roman;"><![CDATA[FYN]]></text></a></g><g id="node2" class="node"><title>GNB2L1</title><a xlink:href="GNB2L1.html"><ellipse cx="209" cy="135" rx="54" ry="24" style="fill:turquoise;stroke:turquoise;"/><text text-anchor="middle" x="209" y="142" style="font-family:Times New Roman;"><![CDATA[GNB2L1]]></text></a></g><g id="edge2" class="edge"><title>FYN-&gt;GNB2L1</title><path style="fill:none;stroke:#0000ff;" d="M78,58C104,74 142,95 169,113"/><polygon style="fill:#0000ff;stroke:#0000ff;" points="74,53 72,58 77,61 80,55 74,53"/><polygon style="fill:#0000ff;stroke:#0000ff;" points="174,119 177,114 171,110 169,115 174,119"/></g><g id="node10" class="node"><title>SRC</title><a xlink:href="SRC.html"><ellipse cx="209" cy="231" rx="36" ry="24" style="fill:turquoise;stroke:turquoise;"/><text text-anchor="middle" x="209" y="238" style="font-family:Times New Roman;"><![CDATA[SRC]]></text></a></g><g id="edge10" class="edge"><title>GNB2L1-&gt;SRC</title><path style="fill:none;stroke:#0000ff;" d="M209,166C209,177 209,190 209,201"/><polygon style="fill:#0000ff;stroke:#0000ff;" points="213,159 206,159 206,166 213,166 213,159"/><polygon style="fill:#0000ff;stroke:#0000ff;" points="206,207 213,207 213,201 206,201 206,207"/></g><g id="node4" class="node"><title>ITGB1</title><a xlink:href="ITGB1.html"><ellipse cx="151" cy="39" rx="44" ry="24" style="fill:turquoise;stroke:turquoise;"/><text text-anchor="middle" x="151" y="46" style="font-family:Times New Roman;"><![CDATA[ITGB1]]></text></a></g><g id="edge4" class="edge"><title>ITGB1-&gt;GNB2L1</title><path style="fill:none;stroke:#0000ff;" d="M167,67C175,81 185,94 191,107"/><polygon style="fill:#0000ff;stroke:#0000ff;" points="167,61 162,63 165,69 170,66 167,61"/><polygon style="fill:#0000ff;stroke:#0000ff;" points="191,114 197,111 194,106 189,109 191,114"/></g><g id="node6" class="node"><title>RASA1</title><a xlink:href="RASA1.html"><ellipse cx="268" cy="39" rx="48" ry="24" style="fill:turquoise;stroke:turquoise;"/><text text-anchor="middle" x="268" y="46" style="font-family:Times New Roman;"><![CDATA[RASA1]]></text></a></g><g id="edge6" class="edge"><title>RASA1-&gt;GNB2L1</title><path style="fill:none;stroke:#0000ff;" d="M250,67C242,81 233,94 226,107"/><polygon style="fill:#0000ff;stroke:#0000ff;" points="255,63 250,61 247,66 253,69 255,63"/><polygon style="fill:#0000ff;stroke:#0000ff;" points="221,111 226,114 229,109 223,106 221,111"/></g><g id="node8" class="node"><title>PRKCA</title><a xlink:href="PRKCA.html"><ellipse cx="393" cy="39" rx="53" ry="24" style="fill:turquoise;stroke:turquoise;"/><text text-anchor="middle" x="393" y="46" style="font-family:Times New Roman;"><![CDATA[PRKCA]]></text></a></g><g id="edge8" class="edge"><title>PRKCA-&gt;GNB2L1</title><path style="fill:none;stroke:#0000ff;" d="M353,61C324,77 281,99 251,114"/><polygon style="fill:#0000ff;stroke:#0000ff;" points="360,61 357,55 352,58 354,63 360,61"/><polygon style="fill:#0000ff;stroke:#0000ff;" points="243,114 246,119 253,117 250,111 243,114"/></g></g></svg>