<?xml version="1.0" encoding="UTF-8" standalone="no"?><!DOCTYPE svg PUBLIC "-//W3C//DTD SVG 1.0//EN" "http://www.w3.org/TR/2001/REC-SVG-20010904/DTD/svg10.dtd" [ <!ATTLIST svg xmlns:xlink CDATA #FIXED "http://www.w3.org/1999/xlink">]><!-- Generated by WinGraphviz version ver1.02.23, 08/01/2003 (08/04/2003)     For user: Avi Ma'ayan   Title: G    Pages: 1 --><!--="735px" height="102px" xmlns="http://www.w3.org/2000/svg" --><svg onload="init(evt)" width="735px" height="600px" xmlns="http://www.w3.org/2000/svg" xmlns:xlink="http://www.w3.org/1999/xlink">
<script type="text/ecmascript">
<![CDATA[
var svgDocument;
var zoomAmt;
var xOffset;
var yOffset;
var scale;
var maxScale;
var imageWidth;
var imageHeight;
function init(evt)
{
    svgDocument = evt.getTarget().getOwnerDocument();
    zoomAmt = 0;
    xOffset = 0;
    yOffset = 60;
    scale = 0.8;
    maxScale = 10;
    imageWidth = 742;
    imageHeight = 606;
    panRestore();
    //panUp();
}
function transformMap ()
{
    var obj = svgDocument.getElementById("Pathway");
    var centerX = imageWidth  / 2.0;
    var centerY = imageHeight / 2.0;
    var adjustX = (-centerX * (scale - 0.8)) + xOffset;
    var adjustY = (-centerY * (scale - 0.8)) + yOffset;
    var transParms = 'translate(' + adjustX + ',' + adjustY + ') ';
    transParms += 'scale(' + scale + ')';
    // alert(transParms);
    obj.setAttribute("transform", transParms); 
}
function click_node(id)
{
    var testx = parent.click_node;
    if (typeof(testx) == "function")
    {
		parent.click_node(id);
    }
}
function click_relation(id)
{
    var testx = parent.click_relation;
    if (typeof(testx) == "function")
    {
        parent.click_relation(id);
    }
}
function click_pathway(toId, fromId)
{
    var testx = parent.click_pathway;
    if (typeof(testx) == "function")
    {
	parent.click_pathway(toId, fromId);
    }
}
function check_interpath(evt, pathid)
{
  var obj = evt.getTarget();
  var testx = parent.is_frompath;
  var child = obj.firstChild;
  if (typeof(testx) == "function")
  {
    if (parent.is_frompath(pathid))
    {
      while (child != null)
      {
        if (child.nodeType == 1)
        {
          if ((child.localName == "g") || (child.localName == "polyline"))
          {
            child.setAttribute("style", "fill:none;stroke:red");
          }
          else if (child.localName == "polygon")
          {
            child.setAttribute("style", "fill:red;stroke:red");
          }
        }
        child = child.nextSibling;
      }
    }
  }
}
function set_status (msg)
{
 var obj = svgDocument.getElementById("status_text");
  var child;
 
  child = obj.firstChild;
  if ((child != null) && (child.nodeType == 3))
  {
    if ((msg != null) && (msg.length > 0))
    {
      child.data = msg;
    }
    else
    {
child.data = " ";
    }
  }
}
function zoomIn ()
{
    scale = scale + 0.8;
    if (scale > maxScale)
    {
       scale = maxScale;
    }
    transformMap();
    panUp();
    panUp();
    panUp();
    panUp();
    panUp();
    panUp();
    panUp();
    panUp();
    panUp();
    panUp();
    panUp();
    panUp();
}
function zoomOut ()
{
    scale = scale - 0.8;
    if (scale < 0.8)
    {
       scale = 0.8;
    }
    transformMap();
    panDown();
    panDown();
    panDown();
    panDown();
    panDown();
    panDown();
    panDown();
    panDown();
    panDown();
    panDown();
    panDown();
    panDown();
}
function panUp ()
{
    yOffset = yOffset + 20;
    transformMap();
}
function panDown ()
{
    yOffset = yOffset - 20;
    transformMap();
}
function panLeft ()
{
    xOffset = xOffset + 20;
    transformMap();
}
function panRight ()
{
    xOffset = xOffset - 20;
    transformMap();
}
function panRestore ()
{
    xOffset = 0;
    yOffset = 0;
    scale = 0.5;
    //obj = svgDocument.getElementById("zoom");
    //obj.setAttribute("x1", 0);
    //obj.setAttribute("x2", 0);
    transformMap();    
}
function doHighlight (evt, msg)
{
  var obj = evt.getTarget();
  obj.setAttribute("fill", "rgb(239,24,33)");
  set_status(msg);
}
function resetHighlight (evt)
{
  var obj = evt.getTarget();
  obj.setAttribute("fill", "rgb(99,154,206)");
  set_status(" ");
}
// ]]>
</script>
<defs>
<clipPath id="theClip">
<polygon points="1 61, 741 61, 741 665, 1 665"
style="fill: none;"/>
</clipPath>
</defs>
<!-- viewport outline -->
<rect x="0" y="61" width="742" height="606"
style="stroke: black; stroke-width: 1; fill: none;"/>
<!-- pathway graph style="clip-path: url(#theClip);" -->
<g style="clip-path: url(#theClip);">
<g id="Pathway"  transform="translate(0,60)">
<!-- prefile.include ends, begin pathway graph -->
<g id="stkecm;CMP_10705" class="graph">
</g>
<g id="graph0" class="graph" style="font-family:Times New Roman;font-size:6.21;"><title>G</title><g id="node1" class="node"><title>ADAM12</title><a xlink:href="ADAM12.html"><ellipse cx="186" cy="16" rx="19" ry="7" style="fill:turquoise;stroke:turquoise;"/><text text-anchor="middle" x="186" y="19" style="font-family:Times New Roman;"><![CDATA[ADAM12]]></text></a></g><g id="node2" class="node"><title>GRB2</title><a xlink:href="GRB2.html"><ellipse cx="367" cy="48" rx="14" ry="7" style="fill:turquoise;stroke:turquoise;"/><text text-anchor="middle" x="367" y="51" style="font-family:Times New Roman;"><![CDATA[GRB2]]></text></a></g><g id="edge2" class="edge"><title>ADAM12-&gt;GRB2</title><path style="fill:none;stroke:#0000ff;" d="M202,23C205,23 207,24 210,24 261,37 321,44 350,47"/><polygon style="fill:#0000ff;stroke:#0000ff;" points="201,21 200,23 202,23 203,22 201,21"/><polygon style="fill:#0000ff;stroke:#0000ff;" points="352,48 352,46 350,46 350,47 352,48"/></g><g id="node20" class="node"><title>TUBA1</title><a xlink:href="TUBA1.html"><ellipse cx="23" cy="80" rx="16" ry="7" style="fill:turquoise;stroke:turquoise;"/><text text-anchor="middle" x="23" y="83" style="font-family:Times New Roman;"><![CDATA[TUBA1]]></text></a></g><g id="edge20" class="edge"><title>GRB2-&gt;TUBA1</title><path style="fill:none;stroke:#0000ff;" d="M350,49C292,51 102,59 43,72 41,73 39,74 36,75"/><polygon style="fill:#0000ff;stroke:#0000ff;" points="352,50 352,47 350,47 350,50 352,50"/><polygon style="fill:#0000ff;stroke:#0000ff;" points="34,74 35,76 37,75 36,74 34,74"/></g><g id="node22" class="node"><title>HRAS</title><a xlink:href="HRAS.html"><ellipse cx="62" cy="80" rx="15" ry="7" style="fill:turquoise;stroke:turquoise;"/><text text-anchor="middle" x="62" y="83" style="font-family:Times New Roman;"><![CDATA[HRAS]]></text></a></g><g id="edge22" class="edge"><title>GRB2-&gt;HRAS</title><path style="fill:none;stroke:#0000ff;" d="M350,49C297,51 133,59 81,72 79,73 77,74 75,74"/><polygon style="fill:#0000ff;stroke:#0000ff;" points="352,50 352,47 350,47 350,50 352,50"/><polygon style="fill:#0000ff;stroke:#0000ff;" points="73,74 74,76 76,75 75,73 73,74"/></g><g id="node24" class="node"><title>ITGA5</title><a xlink:href="ITGA5.html"><ellipse cx="101" cy="80" rx="15" ry="7" style="fill:turquoise;stroke:turquoise;"/><text text-anchor="middle" x="101" y="83" style="font-family:Times New Roman;"><![CDATA[ITGA5]]></text></a></g><g id="edge24" class="edge"><title>GRB2-&gt;ITGA5</title><path style="fill:none;stroke:#0000ff;" d="M350,49C302,52 164,62 120,72 118,73 116,74 114,75"/><polygon style="fill:#0000ff;stroke:#0000ff;" points="352,50 352,48 350,48 350,50 352,50"/><polygon style="fill:#0000ff;stroke:#0000ff;" points="112,74 113,76 115,75 114,74 112,74"/></g><g id="node26" class="node"><title>ITGB1</title><a xlink:href="ITGB1.html"><ellipse cx="139" cy="80" rx="14" ry="7" style="fill:turquoise;stroke:turquoise;"/><text text-anchor="middle" x="139" y="83" style="font-family:Times New Roman;"><![CDATA[ITGB1]]></text></a></g><g id="edge26" class="edge"><title>GRB2-&gt;ITGB1</title><path style="fill:none;stroke:#0000ff;" d="M350,50C308,53 194,63 158,72 156,73 154,74 152,75"/><polygon style="fill:#0000ff;stroke:#0000ff;" points="352,51 352,48 350,48 350,51 352,51"/><polygon style="fill:#0000ff;stroke:#0000ff;" points="150,74 150,76 153,75 152,74 150,74"/></g><g id="node28" class="node"><title>IRS1</title><a xlink:href="IRS1.html"><ellipse cx="174" cy="80" rx="11" ry="7" style="fill:turquoise;stroke:turquoise;"/><text text-anchor="middle" x="174" y="83" style="font-family:Times New Roman;"><![CDATA[IRS1]]></text></a></g><g id="edge28" class="edge"><title>GRB2-&gt;IRS1</title><path style="fill:none;stroke:#0000ff;" d="M350,49C318,50 247,55 189,72 188,73 186,74 185,74"/><polygon style="fill:#0000ff;stroke:#0000ff;" points="352,50 352,47 350,47 350,50 352,50"/><polygon style="fill:#0000ff;stroke:#0000ff;" points="182,74 183,76 185,75 184,73 182,74"/></g><g id="node30" class="node"><title>PAK1</title><a xlink:href="PAK1.html"><ellipse cx="207" cy="80" rx="13" ry="7" style="fill:turquoise;stroke:turquoise;"/><text text-anchor="middle" x="207" y="83" style="font-family:Times New Roman;"><![CDATA[PAK1]]></text></a></g><g id="edge30" class="edge"><title>GRB2-&gt;PAK1</title><path style="fill:none;stroke:#0000ff;" d="M350,50C324,53 269,59 225,72 223,73 221,74 220,75"/><polygon style="fill:#0000ff;stroke:#0000ff;" points="352,51 352,48 350,48 350,51 352,51"/><polygon style="fill:#0000ff;stroke:#0000ff;" points="217,74 218,76 221,75 220,74 217,74"/></g><g id="node32" class="node"><title>PIK3CA</title><a xlink:href="PIK3CA.html"><ellipse cx="247" cy="80" rx="17" ry="7" style="fill:turquoise;stroke:turquoise;"/><text text-anchor="middle" x="247" y="83" style="font-family:Times New Roman;"><![CDATA[PIK3CA]]></text></a></g><g id="edge32" class="edge"><title>GRB2-&gt;PIK3CA</title><path style="fill:none;stroke:#0000ff;" d="M351,52C332,56 298,64 269,72 266,73 264,74 262,75"/><polygon style="fill:#0000ff;stroke:#0000ff;" points="353,52 353,51 351,51 351,53 353,52"/><polygon style="fill:#0000ff;stroke:#0000ff;" points="260,74 261,76 263,75 262,74 260,74"/></g><g id="node34" class="node"><title>PLCG1</title><a xlink:href="PLCG1.html"><ellipse cx="288" cy="80" rx="15" ry="7" style="fill:turquoise;stroke:turquoise;"/><text text-anchor="middle" x="288" y="83" style="font-family:Times New Roman;"><![CDATA[PLCG1]]></text></a></g><g id="edge34" class="edge"><title>GRB2-&gt;PLCG1</title><path style="fill:none;stroke:#0000ff;" d="M353,54C341,59 323,66 308,72 306,73 304,74 302,75"/><polygon style="fill:#0000ff;stroke:#0000ff;" points="356,54 355,52 352,53 353,55 356,54"/><polygon style="fill:#0000ff;stroke:#0000ff;" points="300,75 301,76 303,75 302,74 300,75"/></g><g id="node36" class="node"><title>PTPN1</title><a xlink:href="PTPN1.html"><ellipse cx="327" cy="80" rx="15" ry="7" style="fill:turquoise;stroke:turquoise;"/><text text-anchor="middle" x="327" y="83" style="font-family:Times New Roman;"><![CDATA[PTPN1]]></text></a></g><g id="edge36" class="edge"><title>GRB2-&gt;PTPN1</title><path style="fill:none;stroke:#0000ff;" d="M357,56C350,61 343,67 337,72"/><polygon style="fill:#0000ff;stroke:#0000ff;" points="360,56 358,54 356,55 358,57 360,56"/><polygon style="fill:#0000ff;stroke:#0000ff;" points="335,73 336,75 338,73 336,71 335,73"/></g><g id="node38" class="node"><title>PTPN12</title><a xlink:href="PTPN12.html"><ellipse cx="367" cy="80" rx="17" ry="7" style="fill:turquoise;stroke:turquoise;"/><text text-anchor="middle" x="367" y="83" style="font-family:Times New Roman;"><![CDATA[PTPN12]]></text></a></g><g id="edge38" class="edge"><title>GRB2-&gt;PTPN12</title><path style="fill:none;stroke:#0000ff;" d="M367,59C367,62 367,67 367,70"/><polygon style="fill:#0000ff;stroke:#0000ff;" points="368,56 366,56 366,59 368,59 368,56"/><polygon style="fill:#0000ff;stroke:#0000ff;" points="366,72 368,72 368,70 366,70 366,72"/></g><g id="node40" class="node"><title>PTK2B</title><a xlink:href="PTK2B.html"><ellipse cx="409" cy="80" rx="16" ry="7" style="fill:turquoise;stroke:turquoise;"/><text text-anchor="middle" x="409" y="83" style="font-family:Times New Roman;"><![CDATA[PTK2B]]></text></a></g><g id="edge40" class="edge"><title>GRB2-&gt;PTK2B</title><path style="fill:none;stroke:#0000ff;" d="M377,56C383,61 392,67 398,72"/><polygon style="fill:#0000ff;stroke:#0000ff;" points="376,54 375,56 377,57 378,55 376,54"/><polygon style="fill:#0000ff;stroke:#0000ff;" points="399,75 401,73 399,71 398,73 399,75"/></g><g id="node42" class="node"><title>PTPRA</title><a xlink:href="PTPRA.html"><ellipse cx="450" cy="80" rx="16" ry="7" style="fill:turquoise;stroke:turquoise;"/><text text-anchor="middle" x="450" y="83" style="font-family:Times New Roman;"><![CDATA[PTPRA]]></text></a></g><g id="edge42" class="edge"><title>GRB2-&gt;PTPRA</title><path style="fill:none;stroke:#0000ff;" d="M381,54C396,59 420,69 435,75"/><polygon style="fill:#0000ff;stroke:#0000ff;" points="379,52 379,54 381,55 382,53 379,52"/><polygon style="fill:#0000ff;stroke:#0000ff;" points="437,76 438,75 435,74 435,76 437,76"/></g><g id="node44" class="node"><title>SHC1</title><a xlink:href="SHC1.html"><ellipse cx="488" cy="80" rx="12" ry="7" style="fill:turquoise;stroke:turquoise;"/><text text-anchor="middle" x="488" y="83" style="font-family:Times New Roman;"><![CDATA[SHC1]]></text></a></g><g id="edge44" class="edge"><title>GRB2-&gt;SHC1</title><path style="fill:none;stroke:#0000ff;" d="M383,51C404,55 441,62 471,72 473,73 474,74 476,75"/><polygon style="fill:#0000ff;stroke:#0000ff;" points="381,50 381,51 383,52 383,50 381,50"/><polygon style="fill:#0000ff;stroke:#0000ff;" points="477,76 478,75 476,74 475,75 477,76"/></g><g id="node46" class="node"><title>INPP5D</title><a xlink:href="INPP5D.html"><ellipse cx="526" cy="80" rx="17" ry="7" style="fill:turquoise;stroke:turquoise;"/><text text-anchor="middle" x="526" y="83" style="font-family:Times New Roman;"><![CDATA[INPP5D]]></text></a></g><g id="edge46" class="edge"><title>GRB2-&gt;INPP5D</title><path style="fill:none;stroke:#0000ff;" d="M384,51C410,54 462,61 505,72 507,73 509,74 511,75"/><polygon style="fill:#0000ff;stroke:#0000ff;" points="382,49 382,51 384,51 384,50 382,49"/><polygon style="fill:#0000ff;stroke:#0000ff;" points="512,76 513,74 511,74 510,75 512,76"/></g><g id="node48" class="node"><title>PTPN6</title><a xlink:href="PTPN6.html"><ellipse cx="567" cy="80" rx="15" ry="7" style="fill:turquoise;stroke:turquoise;"/><text text-anchor="middle" x="567" y="83" style="font-family:Times New Roman;"><![CDATA[PTPN6]]></text></a></g><g id="edge48" class="edge"><title>GRB2-&gt;PTPN6</title><path style="fill:none;stroke:#0000ff;" d="M384,49C416,51 488,57 547,72 549,73 551,74 553,75"/><polygon style="fill:#0000ff;stroke:#0000ff;" points="382,48 382,50 384,50 384,48 382,48"/><polygon style="fill:#0000ff;stroke:#0000ff;" points="554,76 555,74 553,74 552,75 554,76"/></g><g id="node50" class="node"><title>PTPN11</title><a xlink:href="PTPN11.html"><ellipse cx="608" cy="80" rx="16" ry="7" style="fill:turquoise;stroke:turquoise;"/><text text-anchor="middle" x="608" y="83" style="font-family:Times New Roman;"><![CDATA[PTPN11]]></text></a></g><g id="edge50" class="edge"><title>GRB2-&gt;PTPN11</title><path style="fill:none;stroke:#0000ff;" d="M384,49C421,50 513,55 587,72 589,73 591,74 593,75"/><polygon style="fill:#0000ff;stroke:#0000ff;" points="382,47 382,50 384,50 384,47 382,47"/><polygon style="fill:#0000ff;stroke:#0000ff;" points="595,76 596,74 593,74 593,75 595,76"/></g><g id="node52" class="node"><title>SOS1</title><a xlink:href="SOS1.html"><ellipse cx="644" cy="80" rx="11" ry="7" style="fill:turquoise;stroke:turquoise;"/><text text-anchor="middle" x="644" y="83" style="font-family:Times New Roman;"><![CDATA[SOS1]]></text></a></g><g id="edge52" class="edge"><title>GRB2-&gt;SOS1</title><path style="fill:none;stroke:#0000ff;" d="M384,49C434,51 581,59 628,72 630,73 632,74 633,75"/><polygon style="fill:#0000ff;stroke:#0000ff;" points="382,47 382,50 384,50 384,47 382,47"/><polygon style="fill:#0000ff;stroke:#0000ff;" points="635,76 636,74 633,74 633,75 635,76"/></g><g id="node54" class="node"><title>SYK</title><a xlink:href="SYK.html"><ellipse cx="676" cy="80" rx="12" ry="7" style="fill:turquoise;stroke:turquoise;"/><text text-anchor="middle" x="676" y="83" style="font-family:Times New Roman;"><![CDATA[SYK]]></text></a></g><g id="edge54" class="edge"><title>GRB2-&gt;SYK</title><path style="fill:none;stroke:#0000ff;" d="M384,49C438,51 608,58 660,72 662,73 664,74 665,75"/><polygon style="fill:#0000ff;stroke:#0000ff;" points="382,47 382,50 384,50 384,47 382,47"/><polygon style="fill:#0000ff;stroke:#0000ff;" points="667,76 668,74 665,74 664,75 667,76"/></g><g id="node56" class="node"><title>VAV1</title><a xlink:href="VAV1.html"><ellipse cx="712" cy="80" rx="14" ry="7" style="fill:turquoise;stroke:turquoise;"/><text text-anchor="middle" x="712" y="83" style="font-family:Times New Roman;"><![CDATA[VAV1]]></text></a></g><g id="edge56" class="edge"><title>GRB2-&gt;VAV1</title><path style="fill:none;stroke:#0000ff;" d="M384,49C442,51 633,58 693,72 695,73 697,74 699,74"/><polygon style="fill:#0000ff;stroke:#0000ff;" points="382,47 382,50 384,50 384,47 382,47"/><polygon style="fill:#0000ff;stroke:#0000ff;" points="700,76 701,74 699,73 698,75 700,76"/></g><g id="node4" class="node"><title>JUB</title><a xlink:href="JUB.html"><ellipse cx="226" cy="16" rx="11" ry="7" style="fill:turquoise;stroke:turquoise;"/><text text-anchor="middle" x="226" y="19" style="font-family:Times New Roman;"><![CDATA[JUB]]></text></a></g><g id="edge4" class="edge"><title>JUB-&gt;GRB2</title><path style="fill:none;stroke:#0000ff;" d="M237,23C239,23 240,24 242,24 279,37 325,44 350,47"/><polygon style="fill:#0000ff;stroke:#0000ff;" points="236,21 235,23 237,23 237,22 236,21"/><polygon style="fill:#0000ff;stroke:#0000ff;" points="352,48 352,46 350,46 350,47 352,48"/></g><g id="node6" class="node"><title>RAPGEF1</title><a xlink:href="RAPGEF1.html"><ellipse cx="267" cy="16" rx="20" ry="7" style="fill:turquoise;stroke:turquoise;"/><text text-anchor="middle" x="267" y="19" style="font-family:Times New Roman;"><![CDATA[RAPGEF1]]></text></a></g><g id="edge6" class="edge"><title>RAPGEF1-&gt;GRB2</title><path style="fill:none;stroke:#0000ff;" d="M284,22C287,23 289,23 292,24 313,31 337,39 352,44"/><polygon style="fill:#0000ff;stroke:#0000ff;" points="283,21 282,23 284,23 285,21 283,21"/><polygon style="fill:#0000ff;stroke:#0000ff;" points="354,45 354,43 352,43 352,45 354,45"/></g><g id="node8" class="node"><title>CBL</title><a xlink:href="CBL.html"><ellipse cx="308" cy="16" rx="11" ry="7" style="fill:turquoise;stroke:turquoise;"/><text text-anchor="middle" x="308" y="19" style="font-family:Times New Roman;"><![CDATA[CBL]]></text></a></g><g id="edge8" class="edge"><title>CBL-&gt;GRB2</title><path style="fill:none;stroke:#0000ff;" d="M319,22C328,27 344,36 354,42"/><polygon style="fill:#0000ff;stroke:#0000ff;" points="317,20 316,22 318,23 319,21 317,20"/><polygon style="fill:#0000ff;stroke:#0000ff;" points="356,43 357,42 355,41 354,43 356,43"/></g><g id="node10" class="node"><title>SH3KBP1</title><a xlink:href="SH3KBP1.html"><ellipse cx="347" cy="16" rx="19" ry="7" style="fill:turquoise;stroke:turquoise;"/><text text-anchor="middle" x="347" y="19" style="font-family:Times New Roman;"><![CDATA[SH3KBP1]]></text></a></g><g id="edge10" class="edge"><title>SH3KBP1-&gt;GRB2</title><path style="fill:none;stroke:#0000ff;" d="M353,26C356,30 359,35 361,39"/><polygon style="fill:#0000ff;stroke:#0000ff;" points="353,24 351,25 352,27 354,26 353,24"/><polygon style="fill:#0000ff;stroke:#0000ff;" points="361,41 363,40 362,39 360,39 361,41"/></g><g id="node12" class="node"><title>CRK</title><a xlink:href="CRK.html"><ellipse cx="387" cy="16" rx="12" ry="7" style="fill:turquoise;stroke:turquoise;"/><text text-anchor="middle" x="387" y="19" style="font-family:Times New Roman;"><![CDATA[CRK]]></text></a></g><g id="edge12" class="edge"><title>CRK-&gt;GRB2</title><path style="fill:none;stroke:#0000ff;" d="M381,26C379,30 375,35 373,39"/><polygon style="fill:#0000ff;stroke:#0000ff;" points="383,24 382,23 380,25 382,26 383,24"/><polygon style="fill:#0000ff;stroke:#0000ff;" points="371,40 373,41 374,39 372,39 371,40"/></g><g id="node14" class="node"><title>DNM2</title><a xlink:href="DNM2.html"><ellipse cx="424" cy="16" rx="15" ry="7" style="fill:turquoise;stroke:turquoise;"/><text text-anchor="middle" x="424" y="19" style="font-family:Times New Roman;"><![CDATA[DNM2]]></text></a></g><g id="edge14" class="edge"><title>DNM2-&gt;GRB2</title><path style="fill:none;stroke:#0000ff;" d="M412,23C402,28 389,36 379,41"/><polygon style="fill:#0000ff;stroke:#0000ff;" points="414,23 413,22 411,23 412,24 414,23"/><polygon style="fill:#0000ff;stroke:#0000ff;" points="377,42 378,43 379,42 379,40 377,42"/></g><g id="node16" class="node"><title>PTK2</title><a xlink:href="PTK2.html"><ellipse cx="462" cy="16" rx="13" ry="7" style="fill:turquoise;stroke:turquoise;"/><text text-anchor="middle" x="462" y="19" style="font-family:Times New Roman;"><![CDATA[PTK2]]></text></a></g><g id="edge16" class="edge"><title>PTK2-&gt;GRB2</title><path style="fill:none;stroke:#0000ff;" d="M450,22C448,23 446,23 444,24 423,32 398,40 383,44"/><polygon style="fill:#0000ff;stroke:#0000ff;" points="452,23 451,21 449,21 450,23 452,23"/><polygon style="fill:#0000ff;stroke:#0000ff;" points="380,44 380,46 383,45 383,43 380,44"/></g><g id="node18" class="node"><title>GAB1</title><a xlink:href="GAB1.html"><ellipse cx="498" cy="16" rx="14" ry="7" style="fill:turquoise;stroke:turquoise;"/><text text-anchor="middle" x="498" y="19" style="font-family:Times New Roman;"><![CDATA[GAB1]]></text></a></g><g id="edge18" class="edge"><title>GAB1-&gt;GRB2</title><path style="fill:none;stroke:#0000ff;" d="M485,22C483,23 482,23 480,24 447,35 406,43 384,46"/><polygon style="fill:#0000ff;stroke:#0000ff;" points="487,23 486,21 484,21 485,23 487,23"/><polygon style="fill:#0000ff;stroke:#0000ff;" points="381,45 381,47 383,47 383,45 381,45"/></g><g id="node58" class="node"><title>SRC</title><a xlink:href="SRC.html"><ellipse cx="532" cy="16" rx="11" ry="7" style="fill:turquoise;stroke:turquoise;"/><text text-anchor="middle" x="532" y="19" style="font-family:Times New Roman;"><![CDATA[SRC]]></text></a></g><g id="edge58" class="edge"><title>SRC-&gt;GRB2</title><path style="fill:none;stroke:darkgreen;" d="M523,22C521,23 518,23 516,24 471,39 415,45 386,47"/><polygon style="fill:darkgreen;stroke:darkgreen;" points="386,48 382,47 386,46 386,48"/></g></g></g></g>
<!-- navigation controls -->
<g id="navbox">
	<rect x="0" y="0" width="742" height="60"
		 style="fill:rgb(206,207,206);stroke:rgb(0,0,0);stroke-width:1"/>

	<polygon id="pan_right"
        onmouseup="panRight()"
        onmouseover="doHighlight(evt, 'Click to pan to the right')"
        onmouseout="resetHighlight(evt)"
		points="28.0732,13 32,20.5 28.0732,28 28.0732,23.4412 25,23.4412 25,17.4118 28.0732,17.4118"
		 transform="matrix(3.39111 0 0 2.98838 -12.6265 -29.7101)"
         fill="rgb(99,154,206)"
		 style="stroke:rgb(0,0,0);stroke-width:0.5"/>
	<polygon id="pan_left"
        onmouseup="panLeft()"
        onmouseover="doHighlight(evt, 'Click to pan to the left')"
        onmouseout="resetHighlight(evt)"
		points="123.991,25 120.064,32.5 123.991,40 123.991,35.4412 127.064,35.4412 127.064,29.4118
			123.991,29.4118" transform="matrix(3.39111 0 0 2.98838 -404.865 -65.5706)"
         fill="rgb(99,154,206)"
		 style="stroke:rgb(0,0,0);stroke-width:0.5"/>
	<polygon id="pan_down"
        onmouseup="panDown()"
        onmouseover="doHighlight(evt, 'Click to pan down')"
        onmouseout="resetHighlight(evt)"
		points="116.032,32.0408 123.532,35.9678 131.032,32.0408 126.473,32.0408 126.473,28.9678 120.444,28.9678
			120.444,32.0408" transform="matrix(3.39111 0 0 2.98838 -369.822 -50.6287)"
         fill="rgb(99,154,206)"
		 style="stroke:rgb(0,0,0);stroke-width:0.5"/>
	<polygon id="pan_up"
        onmouseup="panUp()"
  onmouseover="doHighlight(evt, 'Click to pan up')"
        onmouseout="resetHighlight(evt)"
		points="116.032,32.0408 123.532,35.9678 131.032,32.0408 126.473,32.0408 126.473,28.9678 120.444,28.9678
			120.444,32.0408" transform="matrix(3.39111 0 0 -2.98838 -369.823 111.74)"
         fill="rgb(99,154,206)"
		 style="stroke:rgb(0,0,0);stroke-width:0.5"/>
	<g id="go_home" 
         onmouseup="panRestore()" 
         onmouseover="doHighlight(evt, 'Click to restore graph to original position')"
         onmouseout="resetHighlight(evt)"
         fill="rgb(99,154,206)"
         transform="matrix(1 0 0 1 0 -0.333333)">
		<rect x="196" y="11" width="26" height="26"
			transform="translate(-19.1111 -2.66667)"
			 style="stroke:rgb(0,0,0);stroke-width:1"/>
		<line x1="182" y1="16" x2="182" y2="28"
			transform="matrix(1 0 0 1 2.22222 0.444444)"
			 style="fill:none;stroke:rgb(0,0,0);stroke-width:2"/>
		<line x1="187" y1="22" x2="187" y2="28"
			transform="matrix(1 0 0 1 2.22222 0.444444)"
			 style="fill:none;stroke:rgb(0,0,0);stroke-width:2"/>
	<line x1="192" y1="13" x2="192" y2="28"
			transform="matrix(1 0 0 1 2.22222 0.444444)"
			 style="fill:none;stroke:rgb(0,0,0);stroke-width:2"/>
		<line x1="182" y1="28" x2="192" y2="28"
			transform="matrix(1 0 0 1 2.22222 0.444444)"
	style="fill:none;stroke:rgb(0,0,0);stroke-width:2"/>
		<line x1="189" y1="12" x2="179" y2="21"
			 style="fill:none;stroke:rgb(0,0,0);stroke-width:2"/>
		<line x1="188" y1="12" x2="199" y2="20"
			 style="fill:none;stroke:rgb(0,0,0);stroke-width:2"/>
	</g>
	<g id="zoom_out" onmouseup="zoomOut()" 
             onmouseover="doHighlight(evt, 'Click to zoom out')"
             onmouseout="resetHighlight(evt)"
             fill="rgb(99,154,206)"
             transform="matrix(1 0 0 1 0 0)">
		<rect x="116" y="8" width="26" height="26"
			 style="stroke:rgb(0,0,0);stroke-width:1"/>
		<ellipse cx="126" cy="18" rx="6" ry="6"
			 style="stroke:rgb(0,0,0);stroke-width:1"/>
		<line x1="130" y1="23" x2="137" y2="29"
			transform="matrix(1 0 0 1 0.888889 -0.888889)"
			 style="fill:none;stroke:rgb(0,0,0);stroke-width:2"/>
		<line x1="123" y1="18" x2="129" y2="18"
			 style="fill:none;stroke:rgb(0,0,0);stroke-width:2"/>
	</g>
	<g id="zoom_in" onmouseup="zoomIn()" 
             onmouseover="doHighlight(evt, 'Click to zoom in')"
             onmouseout="resetHighlight(evt)"
             fill="rgb(99,154,206)"
             transform="matrix(1 0 0 1 0.888889 -0.444444)">
		<rect x="116" y="8" width="26" height="26"
			transform="matrix(1 0 0 1 29.7778 0.444444)"
			 style="stroke:rgb(0,0,0);stroke-width:1"/>
		<ellipse cx="126" cy="18" rx="6" ry="6"
			transform="matrix(1 0 0 1 29.7778 0.444444)"
			 style="stroke:rgb(0,0,0);stroke-width:1"/>
		<line x1="130" y1="23" x2="137" y2="29"
			transform="matrix(1 0 0 1 30.6667 -0.444445)"
		style="fill:none;stroke:rgb(0,0,0);stroke-width:2"/>
		<line x1="123" y1="18" x2="129" y2="18"
			transform="matrix(1 0 0 1 29.7778 0.444444)"
			 style="fill:none;stroke:rgb(0,0,0);stroke-width:2"/>
		<line x1="156" y1="15" x2="156" y2="22"
			 style="fill:none;stroke:rgb(0,0,0);stroke-width:2"/>
	</g>
	<g>
		<rect x="117" y="40" width="452" height="14"
			transform="matrix(1.54201 0 0 1 -64.1436 -0.222222)"
			 style="fill:rgb(192,192,192);stroke:rgb(0,0,0);stroke-width:1"/>
		<text id="status_text" x="183px" y="48px"
			transform="matrix(1 0 0 1 -63.5556 3.00778)"
			 style="fill:rgb(0,0,0);font-size:14;font-family:Arial"> </text>
	</g>
</g>	
</svg>