<?xml version="1.0" encoding="UTF-8" standalone="no"?><!DOCTYPE svg PUBLIC "-//W3C//DTD SVG 1.0//EN" "http://www.w3.org/TR/2001/REC-SVG-20010904/DTD/svg10.dtd" [ <!ATTLIST svg xmlns:xlink CDATA #FIXED "http://www.w3.org/1999/xlink">]><!-- Generated by WinGraphviz version ver1.02.23, 08/01/2003 (08/04/2003)     For user: Avi Ma'ayan   Title: G    Pages: 1 --><svg width="546px" height="276px" xmlns="http://www.w3.org/2000/svg" xmlns:xlink="http://www.w3.org/1999/xlink"><g id="graph0" class="graph" style="font-family:Times New Roman;font-size:18.67;"><title>G</title><g id="node1" class="node"><title>ABL1</title><a xlink:href="ABL1.html"><ellipse cx="46" cy="39" rx="40" ry="24" style="fill:turquoise;stroke:turquoise;"/><text text-anchor="middle" x="46" y="46" style="font-family:Times New Roman;"><![CDATA[ABL1]]></text></a></g><g id="node2" class="node"><title>GRLF1</title><a xlink:href="GRLF1.html"><ellipse cx="265" cy="135" rx="46" ry="24" style="fill:turquoise;stroke:turquoise;"/><text text-anchor="middle" x="265" y="142" style="font-family:Times New Roman;"><![CDATA[GRLF1]]></text></a></g><g id="edge2" class="edge"><title>ABL1-&gt;GRLF1</title><path style="fill:none;stroke:darkgreen;" d="M78,54C85,58 92,61 98,63 139,81 185,102 218,115"/><polygon style="fill:darkgreen;stroke:darkgreen;" points="218,111 229,119 215,118 218,111"/></g><g id="node8" class="node"><title>PXN</title><a xlink:href="PXN.html"><ellipse cx="210" cy="231" rx="38" ry="24" style="fill:turquoise;stroke:turquoise;"/><text text-anchor="middle" x="210" y="238" style="font-family:Times New Roman;"><![CDATA[PXN]]></text></a></g><g id="edge8" class="edge"><title>GRLF1-&gt;PXN</title><path style="fill:none;stroke:#0000ff;" d="M249,163C242,177 233,190 226,203"/><polygon style="fill:#0000ff;stroke:#0000ff;" points="254,159 249,157 246,162 251,165 254,159"/><polygon style="fill:#0000ff;stroke:#0000ff;" points="221,207 226,210 229,205 223,202 221,207"/></g><g id="node10" class="node"><title>RHOA</title><a xlink:href="RHOA.html"><ellipse cx="321" cy="231" rx="48" ry="24" style="fill:turquoise;stroke:turquoise;"/><text text-anchor="middle" x="321" y="238" style="font-family:Times New Roman;"><![CDATA[RHOA]]></text></a></g><g id="edge10" class="edge"><title>GRLF1-&gt;RHOA</title><path style="fill:none;stroke:#ff0000;" d="M278,158C285,169 292,181 298,191"/><polyline style="fill:none;stroke:#ff0000;" points="289,195 306,186 "/></g><g id="node4" class="node"><title>PTK2</title><a xlink:href="PTK2.html"><ellipse cx="151" cy="39" rx="41" ry="24" style="fill:turquoise;stroke:turquoise;"/><text text-anchor="middle" x="151" y="46" style="font-family:Times New Roman;"><![CDATA[PTK2]]></text></a></g><g id="edge4" class="edge"><title>PTK2-&gt;GRLF1</title><path style="fill:none;stroke:darkgreen;" d="M175,59C191,73 213,91 231,106"/><polygon style="fill:darkgreen;stroke:darkgreen;" points="233,103 241,114 229,107 233,103"/></g><g id="node6" class="node"><title>RASA1</title><a xlink:href="RASA1.html"><ellipse cx="265" cy="39" rx="48" ry="24" style="fill:turquoise;stroke:turquoise;"/><text text-anchor="middle" x="265" y="46" style="font-family:Times New Roman;"><![CDATA[RASA1]]></text></a></g><g id="edge6" class="edge"><title>RASA1-&gt;GRLF1</title><path style="fill:none;stroke:#0000ff;" d="M265,70C265,81 265,94 265,105"/><polygon style="fill:#0000ff;stroke:#0000ff;" points="269,63 262,63 262,70 269,70 269,63"/><polygon style="fill:#0000ff;stroke:#0000ff;" points="262,111 269,111 269,105 262,105 262,111"/></g><g id="node12" class="node"><title>PTPN12</title><a xlink:href="PTPN12.html"><ellipse cx="389" cy="39" rx="52" ry="24" style="fill:turquoise;stroke:turquoise;"/><text text-anchor="middle" x="389" y="46" style="font-family:Times New Roman;"><![CDATA[PTPN12]]></text></a></g><g id="edge12" class="edge"><title>PTPN12-&gt;GRLF1</title><path style="fill:none;stroke:#ff0000;" d="M362,61C346,73 324,90 305,103"/><polyline style="fill:none;stroke:#ff0000;" points="300,95 312,110 "/></g><g id="node14" class="node"><title>SRC</title><a xlink:href="SRC.html"><ellipse cx="501" cy="39" rx="36" ry="24" style="fill:turquoise;stroke:turquoise;"/><text text-anchor="middle" x="501" y="46" style="font-family:Times New Roman;"><![CDATA[SRC]]></text></a></g><g id="edge14" class="edge"><title>SRC-&gt;GRLF1</title><path style="fill:none;stroke:darkgreen;" d="M473,54C466,57 460,61 453,63 408,83 354,105 316,118"/><polygon style="fill:darkgreen;stroke:darkgreen;" points="317,121 304,122 316,114 317,121"/></g></g></svg>