<?xml version="1.0" encoding="UTF-8" standalone="no"?><!DOCTYPE svg PUBLIC "-//W3C//DTD SVG 1.0//EN" "http://www.w3.org/TR/2001/REC-SVG-20010904/DTD/svg10.dtd" [ <!ATTLIST svg xmlns:xlink CDATA #FIXED "http://www.w3.org/1999/xlink">]><!-- Generated by WinGraphviz version ver1.02.23, 08/01/2003 (08/04/2003)     For user: Avi Ma'ayan   Title: G    Pages: 1 --><svg width="556px" height="276px" xmlns="http://www.w3.org/2000/svg" xmlns:xlink="http://www.w3.org/1999/xlink"><g id="graph0" class="graph" style="font-family:Times New Roman;font-size:18.67;"><title>G</title><g id="node1" class="node"><title>BCAR3</title><a xlink:href="BCAR3.html"><ellipse cx="57" cy="39" rx="50" ry="24" style="fill:turquoise;stroke:turquoise;"/><text text-anchor="middle" x="57" y="46" style="font-family:Times New Roman;"><![CDATA[BCAR3]]></text></a></g><g id="node2" class="node"><title>HRAS</title><a xlink:href="HRAS.html"><ellipse cx="292" cy="135" rx="45" ry="24" style="fill:turquoise;stroke:turquoise;"/><text text-anchor="middle" x="292" y="142" style="font-family:Times New Roman;"><![CDATA[HRAS]]></text></a></g><g id="edge2" class="edge"><title>BCAR3-&gt;HRAS</title><path style="fill:none;stroke:darkgreen;" d="M96,55C135,71 198,98 243,115"/><polygon style="fill:darkgreen;stroke:darkgreen;" points="245,113 255,121 242,118 245,113"/></g><g id="node6" class="node"><title>INSR</title><a xlink:href="INSR.html"><ellipse cx="113" cy="231" rx="40" ry="24" style="fill:turquoise;stroke:turquoise;"/><text text-anchor="middle" x="113" y="238" style="font-family:Times New Roman;"><![CDATA[INSR]]></text></a></g><g id="edge6" class="edge"><title>HRAS-&gt;INSR</title><path style="fill:none;stroke:#0000ff;" d="M253,157C222,174 178,197 149,213"/><polygon style="fill:#0000ff;stroke:#0000ff;" points="261,155 258,150 253,154 255,159 261,155"/><polygon style="fill:#0000ff;stroke:#0000ff;" points="142,213 145,218 150,215 147,210 142,213"/></g><g id="node8" class="node"><title>PIK3CA</title><a xlink:href="PIK3CA.html"><ellipse cx="230" cy="231" rx="53" ry="24" style="fill:turquoise;stroke:turquoise;"/><text text-anchor="middle" x="230" y="238" style="font-family:Times New Roman;"><![CDATA[PIK3CA]]></text></a></g><g id="edge8" class="edge"><title>HRAS-&gt;PIK3CA</title><path style="fill:none;stroke:darkgreen;" d="M277,158C270,170 260,183 251,197"/><polygon style="fill:darkgreen;stroke:darkgreen;" points="254,198 245,207 249,194 254,198"/></g><g id="node10" class="node"><title>PLCG1</title><a xlink:href="PLCG1.html"><ellipse cx="354" cy="231" rx="46" ry="24" style="fill:turquoise;stroke:turquoise;"/><text text-anchor="middle" x="354" y="238" style="font-family:Times New Roman;"><![CDATA[PLCG1]]></text></a></g><g id="edge10" class="edge"><title>HRAS-&gt;PLCG1</title><path style="fill:none;stroke:#0000ff;" d="M309,163C317,175 328,190 336,202"/><polygon style="fill:#0000ff;stroke:#0000ff;" points="309,157 304,159 306,165 312,162 309,157"/><polygon style="fill:#0000ff;stroke:#0000ff;" points="337,209 342,205 338,199 333,203 337,209"/></g><g id="node12" class="node"><title>TIAM1</title><a xlink:href="TIAM1.html"><ellipse cx="472" cy="231" rx="46" ry="24" style="fill:turquoise;stroke:turquoise;"/><text text-anchor="middle" x="472" y="238" style="font-family:Times New Roman;"><![CDATA[TIAM1]]></text></a></g><g id="edge12" class="edge"><title>HRAS-&gt;TIAM1</title><path style="fill:none;stroke:#0000ff;" d="M330,157C361,173 404,195 433,211"/><polygon style="fill:#0000ff;stroke:#0000ff;" points="325,150 322,155 328,159 330,154 325,150"/><polygon style="fill:#0000ff;stroke:#0000ff;" points="437,217 440,211 434,209 432,214 437,217"/></g><g id="node4" class="node"><title>GRB2</title><a xlink:href="GRB2.html"><ellipse cx="175" cy="39" rx="44" ry="24" style="fill:turquoise;stroke:turquoise;"/><text text-anchor="middle" x="175" y="46" style="font-family:Times New Roman;"><![CDATA[GRB2]]></text></a></g><g id="edge4" class="edge"><title>GRB2-&gt;HRAS</title><path style="fill:none;stroke:#0000ff;" d="M203,63C221,77 243,95 262,110"/><polygon style="fill:#0000ff;stroke:#0000ff;" points="202,57 197,62 202,67 207,62 202,57"/><polygon style="fill:#0000ff;stroke:#0000ff;" points="265,118 270,113 265,107 260,113 265,118"/></g><g id="node14" class="node"><title>RASA1</title><a xlink:href="RASA1.html"><ellipse cx="292" cy="39" rx="48" ry="24" style="fill:turquoise;stroke:turquoise;"/><text text-anchor="middle" x="292" y="46" style="font-family:Times New Roman;"><![CDATA[RASA1]]></text></a></g><g id="edge14" class="edge"><title>RASA1-&gt;HRAS</title><path style="fill:none;stroke:#ff0000;" d="M292,63C292,71 292,82 292,91"/><polyline style="fill:none;stroke:#ff0000;" points="282,91 302,91 "/></g><g id="node16" class="node"><title>SOS1</title><a xlink:href="SOS1.html"><ellipse cx="400" cy="39" rx="36" ry="24" style="fill:turquoise;stroke:turquoise;"/><text text-anchor="middle" x="400" y="46" style="font-family:Times New Roman;"><![CDATA[SOS1]]></text></a></g><g id="edge16" class="edge"><title>SOS1-&gt;HRAS</title><path style="fill:none;stroke:darkgreen;" d="M378,59C362,73 342,91 325,106"/><polygon style="fill:darkgreen;stroke:darkgreen;" points="328,107 316,114 324,103 328,107"/></g><g id="node18" class="node"><title>VAV1</title><a xlink:href="VAV1.html"><ellipse cx="504" cy="39" rx="44" ry="24" style="fill:turquoise;stroke:turquoise;"/><text text-anchor="middle" x="504" y="46" style="font-family:Times New Roman;"><![CDATA[VAV1]]></text></a></g><g id="edge18" class="edge"><title>VAV1-&gt;HRAS</title><path style="fill:none;stroke:darkgreen;" d="M469,55C434,71 378,97 340,114"/><polygon style="fill:darkgreen;stroke:darkgreen;" points="340,118 326,119 337,111 340,118"/></g></g></svg>