<?xml version="1.0" encoding="UTF-8" standalone="no"?><!DOCTYPE svg PUBLIC "-//W3C//DTD SVG 1.0//EN" "http://www.w3.org/TR/2001/REC-SVG-20010904/DTD/svg10.dtd" [ <!ATTLIST svg xmlns:xlink CDATA #FIXED "http://www.w3.org/1999/xlink">]><!-- Generated by WinGraphviz version ver1.02.23, 08/01/2003 (08/04/2003)     For user: Avi Ma'ayan   Title: G    Pages: 1 --><svg width="111px" height="276px" xmlns="http://www.w3.org/2000/svg" xmlns:xlink="http://www.w3.org/1999/xlink"><g id="graph0" class="graph" style="font-family:Times New Roman;font-size:18.67;"><title>G</title><g id="node1" class="node"><title>PTK2</title><a xlink:href="PTK2.html"><ellipse cx="54" cy="39" rx="41" ry="24" style="fill:turquoise;stroke:turquoise;"/><text text-anchor="middle" x="54" y="46" style="font-family:Times New Roman;"><![CDATA[PTK2]]></text></a></g><g id="node2" class="node"><title>HSPA2</title><a xlink:href="HSPA2.html"><ellipse cx="54" cy="135" rx="48" ry="24" style="fill:turquoise;stroke:turquoise;"/><text text-anchor="middle" x="54" y="142" style="font-family:Times New Roman;"><![CDATA[HSPA2]]></text></a></g><g id="edge2" class="edge"><title>PTK2-&gt;HSPA2</title><path style="fill:none;stroke:#0000ff;" d="M54,70C54,81 54,94 54,105"/><polygon style="fill:#0000ff;stroke:#0000ff;" points="58,63 51,63 51,70 58,70 58,63"/><polygon style="fill:#0000ff;stroke:#0000ff;" points="51,111 58,111 58,105 51,105 51,111"/></g><g id="node4" class="node"><title>PXN</title><a xlink:href="PXN.html"><ellipse cx="54" cy="231" rx="38" ry="24" style="fill:turquoise;stroke:turquoise;"/><text text-anchor="middle" x="54" y="238" style="font-family:Times New Roman;"><![CDATA[PXN]]></text></a></g><g id="edge4" class="edge"><title>HSPA2-&gt;PXN</title><path style="fill:none;stroke:#0000ff;" d="M54,166C54,177 54,190 54,201"/><polygon style="fill:#0000ff;stroke:#0000ff;" points="58,159 51,159 51,166 58,166 58,159"/><polygon style="fill:#0000ff;stroke:#0000ff;" points="51,207 58,207 58,201 51,201 51,207"/></g></g></svg>