<?xml version="1.0" encoding="UTF-8" standalone="no"?><!DOCTYPE svg PUBLIC "-//W3C//DTD SVG 1.0//EN" "http://www.w3.org/TR/2001/REC-SVG-20010904/DTD/svg10.dtd" [ <!ATTLIST svg xmlns:xlink CDATA #FIXED "http://www.w3.org/1999/xlink">]><!-- Generated by WinGraphviz version ver1.02.23, 08/01/2003 (08/04/2003)     For user: Avi Ma'ayan   Title: G    Pages: 1 --><svg width="234px" height="180px" xmlns="http://www.w3.org/2000/svg" xmlns:xlink="http://www.w3.org/1999/xlink"><g id="graph0" class="graph" style="font-family:Times New Roman;font-size:18.67;"><title>G</title><g id="node1" class="node"><title>ACTB</title><a xlink:href="ACTB.html"><ellipse cx="50" cy="39" rx="44" ry="24" style="fill:turquoise;stroke:turquoise;"/><text text-anchor="middle" x="50" y="46" style="font-family:Times New Roman;"><![CDATA[ACTB]]></text></a></g><g id="node2" class="node"><title>HSPB1</title><a xlink:href="HSPB1.html"><ellipse cx="110" cy="135" rx="45" ry="24" style="fill:turquoise;stroke:turquoise;"/><text text-anchor="middle" x="110" y="142" style="font-family:Times New Roman;"><![CDATA[HSPB1]]></text></a></g><g id="edge2" class="edge"><title>ACTB-&gt;HSPB1</title><path style="fill:none;stroke:#0000ff;" d="M68,67C76,79 85,94 93,106"/><polygon style="fill:#0000ff;stroke:#0000ff;" points="68,61 62,63 65,69 70,66 68,61"/><polygon style="fill:#0000ff;stroke:#0000ff;" points="93,113 98,110 96,105 90,107 93,113"/></g><g id="node4" class="node"><title>TGFB1I1</title><a xlink:href="TGFB1I1.html"><ellipse cx="171" cy="39" rx="53" ry="24" style="fill:turquoise;stroke:turquoise;"/><text text-anchor="middle" x="171" y="46" style="font-family:Times New Roman;"><![CDATA[TGFB1I1]]></text></a></g><g id="edge4" class="edge"><title>TGFB1I1-&gt;HSPB1</title><path style="fill:none;stroke:#0000ff;" d="M154,67C146,81 135,94 128,107"/><polygon style="fill:#0000ff;stroke:#0000ff;" points="159,63 154,61 151,66 157,69 159,63"/><polygon style="fill:#0000ff;stroke:#0000ff;" points="122,111 128,114 130,109 125,106 122,111"/></g></g></svg>