<?xml version="1.0" encoding="UTF-8" standalone="no"?><!DOCTYPE svg PUBLIC "-//W3C//DTD SVG 1.0//EN" "http://www.w3.org/TR/2001/REC-SVG-20010904/DTD/svg10.dtd" [ <!ATTLIST svg xmlns:xlink CDATA #FIXED "http://www.w3.org/1999/xlink">]><!-- Generated by WinGraphviz version ver1.02.23, 08/01/2003 (08/04/2003)     For user: Avi Ma'ayan   Title: G    Pages: 1 --><svg width="706px" height="276px" xmlns="http://www.w3.org/2000/svg" xmlns:xlink="http://www.w3.org/1999/xlink"><g id="graph0" class="graph" style="font-family:Times New Roman;font-size:18.67;"><title>G</title><g id="node1" class="node"><title>CAV1</title><a xlink:href="CAV1.html"><ellipse cx="233" cy="39" rx="42" ry="24" style="fill:turquoise;stroke:turquoise;"/><text text-anchor="middle" x="233" y="46" style="font-family:Times New Roman;"><![CDATA[CAV1]]></text></a></g><g id="node2" class="node"><title>ILK</title><a xlink:href="ILK.html"><ellipse cx="338" cy="135" rx="36" ry="24" style="fill:turquoise;stroke:turquoise;"/><text text-anchor="middle" x="338" y="142" style="font-family:Times New Roman;"><![CDATA[ILK]]></text></a></g><g id="edge2" class="edge"><title>CAV1-&gt;ILK</title><path style="fill:none;stroke:#0000ff;" d="M260,65C276,78 296,97 312,111"/><polygon style="fill:#0000ff;stroke:#0000ff;" points="258,58 253,63 258,69 264,63 258,58"/><polygon style="fill:#0000ff;stroke:#0000ff;" points="316,118 320,113 314,109 310,114 316,118"/></g><g id="node4" class="node"><title>AKT1</title><a xlink:href="AKT1.html"><ellipse cx="47" cy="231" rx="41" ry="24" style="fill:turquoise;stroke:turquoise;"/><text text-anchor="middle" x="47" y="238" style="font-family:Times New Roman;"><![CDATA[AKT1]]></text></a></g><g id="edge4" class="edge"><title>ILK-&gt;AKT1</title><path style="fill:none;stroke:darkgreen;" d="M305,145C258,157 173,181 101,207 98,209 94,210 92,211"/><polygon style="fill:darkgreen;stroke:darkgreen;" points="93,214 80,217 90,209 93,214"/></g><g id="node6" class="node"><title>ILKAP</title><a xlink:href="ILKAP.html"><ellipse cx="161" cy="231" rx="48" ry="24" style="fill:turquoise;stroke:turquoise;"/><text text-anchor="middle" x="161" y="238" style="font-family:Times New Roman;"><![CDATA[ILKAP]]></text></a></g><g id="edge6" class="edge"><title>ILK-&gt;ILKAP</title><path style="fill:none;stroke:#0000ff;" d="M304,154C273,170 229,194 198,211"/><polygon style="fill:#0000ff;stroke:#0000ff;" points="312,153 309,147 304,151 306,157 312,153"/><polygon style="fill:#0000ff;stroke:#0000ff;" points="191,211 194,217 199,214 197,209 191,211"/></g><g id="node8" class="node"><title>ITGB1</title><a xlink:href="ITGB1.html"><ellipse cx="277" cy="231" rx="44" ry="24" style="fill:turquoise;stroke:turquoise;"/><text text-anchor="middle" x="277" y="238" style="font-family:Times New Roman;"><![CDATA[ITGB1]]></text></a></g><g id="edge8" class="edge"><title>ILK-&gt;ITGB1</title><path style="fill:none;stroke:#0000ff;" d="M321,163C313,175 302,190 294,203"/><polygon style="fill:#0000ff;stroke:#0000ff;" points="326,159 321,157 318,162 324,165 326,159"/><polygon style="fill:#0000ff;stroke:#0000ff;" points="289,207 294,210 297,205 292,202 289,207"/></g><g id="node10" class="node"><title>PARVA</title><a xlink:href="PARVA.html"><ellipse cx="400" cy="231" rx="54" ry="24" style="fill:turquoise;stroke:turquoise;"/><text text-anchor="middle" x="400" y="238" style="font-family:Times New Roman;"><![CDATA[PARVA]]></text></a></g><g id="edge10" class="edge"><title>ILK-&gt;PARVA</title><path style="fill:none;stroke:#0000ff;" d="M356,163C364,175 373,190 381,202"/><polygon style="fill:#0000ff;stroke:#0000ff;" points="356,157 350,159 353,165 358,162 356,157"/><polygon style="fill:#0000ff;stroke:#0000ff;" points="382,209 388,205 384,199 378,203 382,209"/></g><g id="node12" class="node"><title>PARVB</title><a xlink:href="PARVB.html"><ellipse cx="531" cy="231" rx="53" ry="24" style="fill:turquoise;stroke:turquoise;"/><text text-anchor="middle" x="531" y="238" style="font-family:Times New Roman;"><![CDATA[PARVB]]></text></a></g><g id="edge12" class="edge"><title>ILK-&gt;PARVB</title><path style="fill:none;stroke:#0000ff;" d="M374,153C406,169 456,194 490,211"/><polygon style="fill:#0000ff;stroke:#0000ff;" points="369,147 366,153 373,155 376,150 369,147"/><polygon style="fill:#0000ff;stroke:#0000ff;" points="494,217 497,211 492,209 489,214 494,217"/></g><g id="node14" class="node"><title>LIMS1</title><a xlink:href="LIMS1.html"><ellipse cx="653" cy="231" rx="44" ry="24" style="fill:turquoise;stroke:turquoise;"/><text text-anchor="middle" x="653" y="238" style="font-family:Times New Roman;"><![CDATA[LIMS1]]></text></a></g><g id="edge14" class="edge"><title>ILK-&gt;LIMS1</title><path style="fill:none;stroke:#0000ff;" d="M380,145C430,158 521,182 597,207 602,210 607,211 613,214"/><polygon style="fill:#0000ff;stroke:#0000ff;" points="373,141 373,146 380,147 380,142 373,141"/><polygon style="fill:#0000ff;stroke:#0000ff;" points="617,219 619,214 614,211 611,217 617,219"/></g><g id="node16" class="node"><title>PXN</title><a xlink:href="PXN.html"><ellipse cx="338" cy="39" rx="38" ry="24" style="fill:turquoise;stroke:turquoise;"/><text text-anchor="middle" x="338" y="46" style="font-family:Times New Roman;"><![CDATA[PXN]]></text></a></g><g id="edge16" class="edge"><title>PXN-&gt;ILK</title><path style="fill:none;stroke:#0000ff;" d="M338,70C338,81 338,94 338,105"/><polygon style="fill:#0000ff;stroke:#0000ff;" points="342,63 336,63 336,70 342,70 342,63"/><polygon style="fill:#0000ff;stroke:#0000ff;" points="336,111 342,111 342,105 336,105 336,111"/></g><g id="node18" class="node"><title>PIP3</title><a xlink:href="PIP3.html"><ellipse cx="437" cy="39" rx="36" ry="24" style="fill:turquoise;stroke:turquoise;"/><text text-anchor="middle" x="437" y="46" style="font-family:Times New Roman;"><![CDATA[PIP3]]></text></a></g><g id="edge18" class="edge"><title>PIP3-&gt;ILK</title><path style="fill:none;stroke:darkgreen;" d="M417,59C402,73 384,91 368,107"/><polygon style="fill:darkgreen;stroke:darkgreen;" points="370,109 358,115 366,105 370,109"/></g></g></svg>