<?xml version="1.0" encoding="UTF-8" standalone="no"?><!DOCTYPE svg PUBLIC "-//W3C//DTD SVG 1.0//EN" "http://www.w3.org/TR/2001/REC-SVG-20010904/DTD/svg10.dtd" [ <!ATTLIST svg xmlns:xlink CDATA #FIXED "http://www.w3.org/1999/xlink">]><!-- Generated by WinGraphviz version ver1.02.23, 08/01/2003 (08/04/2003)     For user: Avi Ma'ayan   Title: G    Pages: 1 --><svg width="447px" height="276px" xmlns="http://www.w3.org/2000/svg" xmlns:xlink="http://www.w3.org/1999/xlink"><g id="graph0" class="graph" style="font-family:Times New Roman;font-size:18.67;"><title>G</title><g id="node1" class="node"><title>SH3KBP1</title><a xlink:href="SH3KBP1.html"><ellipse cx="65" cy="39" rx="58" ry="24" style="fill:turquoise;stroke:turquoise;"/><text text-anchor="middle" x="65" y="46" style="font-family:Times New Roman;"><![CDATA[SH3KBP1]]></text></a></g><g id="node2" class="node"><title>INPP5D</title><a xlink:href="INPP5D.html"><ellipse cx="245" cy="135" rx="52" ry="24" style="fill:turquoise;stroke:turquoise;"/><text text-anchor="middle" x="245" y="142" style="font-family:Times New Roman;"><![CDATA[INPP5D]]></text></a></g><g id="edge2" class="edge"><title>SH3KBP1-&gt;INPP5D</title><path style="fill:none;stroke:#0000ff;" d="M106,61C135,77 174,98 203,113"/><polygon style="fill:#0000ff;stroke:#0000ff;" points="102,55 100,61 105,63 108,58 102,55"/><polygon style="fill:#0000ff;stroke:#0000ff;" points="209,119 211,114 206,110 203,115 209,119"/></g><g id="node10" class="node"><title>PIP3</title><a xlink:href="PIP3.html"><ellipse cx="197" cy="231" rx="36" ry="24" style="fill:turquoise;stroke:turquoise;"/><text text-anchor="middle" x="197" y="238" style="font-family:Times New Roman;"><![CDATA[PIP3]]></text></a></g><g id="edge10" class="edge"><title>INPP5D-&gt;PIP3</title><path style="fill:none;stroke:#ff0000;" d="M233,159C227,169 222,181 217,191"/><polyline style="fill:none;stroke:#ff0000;" points="209,186 226,195 "/></g><g id="node12" class="node"><title>SRC</title><a xlink:href="SRC.html"><ellipse cx="293" cy="231" rx="36" ry="24" style="fill:turquoise;stroke:turquoise;"/><text text-anchor="middle" x="293" y="238" style="font-family:Times New Roman;"><![CDATA[SRC]]></text></a></g><g id="edge12" class="edge"><title>INPP5D-&gt;SRC</title><path style="fill:none;stroke:#0000ff;" d="M260,165C266,177 273,191 280,203"/><polygon style="fill:#0000ff;stroke:#0000ff;" points="260,158 254,161 257,166 262,163 260,158"/><polygon style="fill:#0000ff;stroke:#0000ff;" points="280,210 285,207 282,202 277,205 280,210"/></g><g id="node4" class="node"><title>GRB2</title><a xlink:href="GRB2.html"><ellipse cx="191" cy="39" rx="44" ry="24" style="fill:turquoise;stroke:turquoise;"/><text text-anchor="middle" x="191" y="46" style="font-family:Times New Roman;"><![CDATA[GRB2]]></text></a></g><g id="edge4" class="edge"><title>GRB2-&gt;INPP5D</title><path style="fill:none;stroke:#0000ff;" d="M207,67C214,81 222,94 229,107"/><polygon style="fill:#0000ff;stroke:#0000ff;" points="207,61 202,63 205,69 210,66 207,61"/><polygon style="fill:#0000ff;stroke:#0000ff;" points="229,114 234,111 231,106 226,109 229,114"/></g><g id="node6" class="node"><title>LYN</title><a xlink:href="LYN.html"><ellipse cx="298" cy="39" rx="38" ry="24" style="fill:turquoise;stroke:turquoise;"/><text text-anchor="middle" x="298" y="46" style="font-family:Times New Roman;"><![CDATA[LYN]]></text></a></g><g id="edge6" class="edge"><title>LYN-&gt;INPP5D</title><path style="fill:none;stroke:#0000ff;" d="M284,67C277,79 268,94 261,106"/><polygon style="fill:#0000ff;stroke:#0000ff;" points="289,63 284,61 281,66 286,69 289,63"/><polygon style="fill:#0000ff;stroke:#0000ff;" points="255,110 261,113 264,107 258,105 255,110"/></g><g id="node8" class="node"><title>SHC1</title><a xlink:href="SHC1.html"><ellipse cx="400" cy="39" rx="38" ry="24" style="fill:turquoise;stroke:turquoise;"/><text text-anchor="middle" x="400" y="46" style="font-family:Times New Roman;"><![CDATA[SHC1]]></text></a></g><g id="edge8" class="edge"><title>SHC1-&gt;INPP5D</title><path style="fill:none;stroke:#0000ff;" d="M366,59C342,75 309,95 284,111"/><polygon style="fill:#0000ff;stroke:#0000ff;" points="373,59 370,54 365,57 368,62 373,59"/><polygon style="fill:#0000ff;stroke:#0000ff;" points="276,113 278,118 284,114 281,109 276,113"/></g></g></svg>