<?xml version="1.0" encoding="UTF-8" standalone="no"?><!DOCTYPE svg PUBLIC "-//W3C//DTD SVG 1.0//EN" "http://www.w3.org/TR/2001/REC-SVG-20010904/DTD/svg10.dtd" [ <!ATTLIST svg xmlns:xlink CDATA #FIXED "http://www.w3.org/1999/xlink">]><!-- Generated by WinGraphviz version ver1.02.23, 08/01/2003 (08/04/2003)     For user: Avi Ma'ayan   Title: G    Pages: 1 --><svg width="530px" height="276px" xmlns="http://www.w3.org/2000/svg" xmlns:xlink="http://www.w3.org/1999/xlink"><g id="graph0" class="graph" style="font-family:Times New Roman;font-size:18.67;"><title>G</title><g id="node1" class="node"><title>ABL1</title><a xlink:href="ABL1.html"><ellipse cx="46" cy="39" rx="40" ry="24" style="fill:turquoise;stroke:turquoise;"/><text text-anchor="middle" x="46" y="46" style="font-family:Times New Roman;"><![CDATA[ABL1]]></text></a></g><g id="node2" class="node"><title>INPPL1</title><a xlink:href="INPPL1.html"><ellipse cx="251" cy="135" rx="49" ry="24" style="fill:turquoise;stroke:turquoise;"/><text text-anchor="middle" x="251" y="142" style="font-family:Times New Roman;"><![CDATA[INPPL1]]></text></a></g><g id="edge2" class="edge"><title>ABL1-&gt;INPPL1</title><path style="fill:none;stroke:#0000ff;" d="M84,57C120,73 171,99 209,115"/><polygon style="fill:#0000ff;stroke:#0000ff;" points="80,51 77,57 82,59 85,54 80,51"/><polygon style="fill:#0000ff;stroke:#0000ff;" points="214,121 217,115 210,113 207,118 214,121"/></g><g id="node10" class="node"><title>PIP3</title><a xlink:href="PIP3.html"><ellipse cx="138" cy="231" rx="36" ry="24" style="fill:turquoise;stroke:turquoise;"/><text text-anchor="middle" x="138" y="238" style="font-family:Times New Roman;"><![CDATA[PIP3]]></text></a></g><g id="edge10" class="edge"><title>INPPL1-&gt;PIP3</title><path style="fill:none;stroke:#ff0000;" d="M227,157C211,169 193,186 175,201"/><polyline style="fill:none;stroke:#ff0000;" points="170,193 182,207 "/></g><g id="node12" class="node"><title>SORBS3</title><a xlink:href="SORBS3.html"><ellipse cx="251" cy="231" rx="53" ry="24" style="fill:turquoise;stroke:turquoise;"/><text text-anchor="middle" x="251" y="238" style="font-family:Times New Roman;"><![CDATA[SORBS3]]></text></a></g><g id="edge12" class="edge"><title>INPPL1-&gt;SORBS3</title><path style="fill:none;stroke:#0000ff;" d="M243,166C242,177 242,190 243,201"/><polygon style="fill:#0000ff;stroke:#0000ff;" points="247,159 241,159 241,166 247,166 247,159"/><polygon style="fill:#0000ff;stroke:#0000ff;" points="241,207 247,207 247,201 241,201 241,207"/></g><g id="node4" class="node"><title>CBL</title><a xlink:href="CBL.html"><ellipse cx="146" cy="39" rx="36" ry="24" style="fill:turquoise;stroke:turquoise;"/><text text-anchor="middle" x="146" y="46" style="font-family:Times New Roman;"><![CDATA[CBL]]></text></a></g><g id="edge4" class="edge"><title>CBL-&gt;INPPL1</title><path style="fill:none;stroke:#0000ff;" d="M171,63C187,77 207,95 222,110"/><polygon style="fill:#0000ff;stroke:#0000ff;" points="170,57 165,62 170,67 175,62 170,57"/><polygon style="fill:#0000ff;stroke:#0000ff;" points="226,117 230,111 225,107 221,113 226,117"/></g><g id="node6" class="node"><title>FLNA</title><a xlink:href="FLNA.html"><ellipse cx="251" cy="39" rx="45" ry="24" style="fill:turquoise;stroke:turquoise;"/><text text-anchor="middle" x="251" y="46" style="font-family:Times New Roman;"><![CDATA[FLNA]]></text></a></g><g id="edge6" class="edge"><title>FLNA-&gt;INPPL1</title><path style="fill:none;stroke:#0000ff;" d="M251,70C251,81 251,94 251,105"/><polygon style="fill:#0000ff;stroke:#0000ff;" points="255,63 249,63 249,70 255,70 255,63"/><polygon style="fill:#0000ff;stroke:#0000ff;" points="249,111 255,111 255,105 249,105 249,111"/></g><g id="node8" class="node"><title>SORBS1</title><a xlink:href="SORBS1.html"><ellipse cx="373" cy="39" rx="52" ry="24" style="fill:turquoise;stroke:turquoise;"/><text text-anchor="middle" x="373" y="46" style="font-family:Times New Roman;"><![CDATA[SORBS1]]></text></a></g><g id="edge8" class="edge"><title>SORBS1-&gt;INPPL1</title><path style="fill:none;stroke:#0000ff;" d="M342,65C325,78 302,97 284,111"/><polygon style="fill:#0000ff;stroke:#0000ff;" points="349,63 344,58 338,63 344,69 349,63"/><polygon style="fill:#0000ff;stroke:#0000ff;" points="277,113 281,118 286,114 282,109 277,113"/></g><g id="edge16" class="edge"><title>SORBS3-&gt;INPPL1</title><path style="fill:none;stroke:#0000ff;" d="M260,166C261,177 261,190 260,201"/><polygon style="fill:#0000ff;stroke:#0000ff;" points="264,159 257,159 257,166 264,166 264,159"/><polygon style="fill:#0000ff;stroke:#0000ff;" points="257,207 264,207 264,201 257,201 257,207"/></g><g id="node14" class="node"><title>SRC</title><a xlink:href="SRC.html"><ellipse cx="485" cy="39" rx="36" ry="24" style="fill:turquoise;stroke:turquoise;"/><text text-anchor="middle" x="485" y="46" style="font-family:Times New Roman;"><![CDATA[SRC]]></text></a></g><g id="edge14" class="edge"><title>SRC-&gt;INPPL1</title><path style="fill:none;stroke:darkgreen;" d="M457,54C450,57 444,61 437,63 393,82 341,103 304,117"/><polygon style="fill:darkgreen;stroke:darkgreen;" points="305,119 292,121 304,113 305,119"/></g></g></svg>