<?xml version="1.0" encoding="UTF-8" standalone="no"?><!DOCTYPE svg PUBLIC "-//W3C//DTD SVG 1.0//EN" "http://www.w3.org/TR/2001/REC-SVG-20010904/DTD/svg10.dtd" [ <!ATTLIST svg xmlns:xlink CDATA #FIXED "http://www.w3.org/1999/xlink">]><!-- Generated by WinGraphviz version ver1.02.23, 08/01/2003 (08/04/2003)     For user: Avi Ma'ayan   Title: G    Pages: 1 --><!--="735px" height="155px" xmlns="http://www.w3.org/2000/svg" --><svg onload="init(evt)" width="735px" height="600px" xmlns="http://www.w3.org/2000/svg" xmlns:xlink="http://www.w3.org/1999/xlink">
<script type="text/ecmascript">
<![CDATA[
var svgDocument;
var zoomAmt;
var xOffset;
var yOffset;
var scale;
var maxScale;
var imageWidth;
var imageHeight;
function init(evt)
{
    svgDocument = evt.getTarget().getOwnerDocument();
    zoomAmt = 0;
    xOffset = 0;
    yOffset = 60;
    scale = 0.8;
    maxScale = 10;
    imageWidth = 742;
    imageHeight = 606;
    panRestore();
    //panUp();
}
function transformMap ()
{
    var obj = svgDocument.getElementById("Pathway");
    var centerX = imageWidth  / 2.0;
    var centerY = imageHeight / 2.0;
    var adjustX = (-centerX * (scale - 0.8)) + xOffset;
    var adjustY = (-centerY * (scale - 0.8)) + yOffset;
    var transParms = 'translate(' + adjustX + ',' + adjustY + ') ';
    transParms += 'scale(' + scale + ')';
    // alert(transParms);
    obj.setAttribute("transform", transParms); 
}
function click_node(id)
{
    var testx = parent.click_node;
    if (typeof(testx) == "function")
    {
		parent.click_node(id);
    }
}
function click_relation(id)
{
    var testx = parent.click_relation;
    if (typeof(testx) == "function")
    {
        parent.click_relation(id);
    }
}
function click_pathway(toId, fromId)
{
    var testx = parent.click_pathway;
    if (typeof(testx) == "function")
    {
	parent.click_pathway(toId, fromId);
    }
}
function check_interpath(evt, pathid)
{
  var obj = evt.getTarget();
  var testx = parent.is_frompath;
  var child = obj.firstChild;
  if (typeof(testx) == "function")
  {
    if (parent.is_frompath(pathid))
    {
      while (child != null)
      {
        if (child.nodeType == 1)
        {
          if ((child.localName == "g") || (child.localName == "polyline"))
          {
            child.setAttribute("style", "fill:none;stroke:red");
          }
          else if (child.localName == "polygon")
          {
            child.setAttribute("style", "fill:red;stroke:red");
          }
        }
        child = child.nextSibling;
      }
    }
  }
}
function set_status (msg)
{
 var obj = svgDocument.getElementById("status_text");
  var child;
 
  child = obj.firstChild;
  if ((child != null) && (child.nodeType == 3))
  {
    if ((msg != null) && (msg.length > 0))
    {
      child.data = msg;
    }
    else
    {
child.data = " ";
    }
  }
}
function zoomIn ()
{
    scale = scale + 0.8;
    if (scale > maxScale)
    {
       scale = maxScale;
    }
    transformMap();
    panUp();
    panUp();
    panUp();
    panUp();
    panUp();
    panUp();
    panUp();
    panUp();
    panUp();
    panUp();
    panUp();
    panUp();
}
function zoomOut ()
{
    scale = scale - 0.8;
    if (scale < 0.8)
    {
       scale = 0.8;
    }
    transformMap();
    panDown();
    panDown();
    panDown();
    panDown();
    panDown();
    panDown();
    panDown();
    panDown();
    panDown();
    panDown();
    panDown();
    panDown();
}
function panUp ()
{
    yOffset = yOffset + 20;
    transformMap();
}
function panDown ()
{
    yOffset = yOffset - 20;
    transformMap();
}
function panLeft ()
{
    xOffset = xOffset + 20;
    transformMap();
}
function panRight ()
{
    xOffset = xOffset - 20;
    transformMap();
}
function panRestore ()
{
    xOffset = 0;
    yOffset = 0;
    scale = 0.5;
    //obj = svgDocument.getElementById("zoom");
    //obj.setAttribute("x1", 0);
    //obj.setAttribute("x2", 0);
    transformMap();    
}
function doHighlight (evt, msg)
{
  var obj = evt.getTarget();
  obj.setAttribute("fill", "rgb(239,24,33)");
  set_status(msg);
}
function resetHighlight (evt)
{
  var obj = evt.getTarget();
  obj.setAttribute("fill", "rgb(99,154,206)");
  set_status(" ");
}
// ]]>
</script>
<defs>
<clipPath id="theClip">
<polygon points="1 61, 741 61, 741 665, 1 665"
style="fill: none;"/>
</clipPath>
</defs>
<!-- viewport outline -->
<rect x="0" y="61" width="742" height="606"
style="stroke: black; stroke-width: 1; fill: none;"/>
<!-- pathway graph style="clip-path: url(#theClip);" -->
<g style="clip-path: url(#theClip);">
<g id="Pathway"  transform="translate(0,60)">
<!-- prefile.include ends, begin pathway graph -->
<g id="stkecm;CMP_10705" class="graph">
</g>
<g id="graph0" class="graph" style="font-family:Times New Roman;font-size:10.08;"><title>G</title><g id="node1" class="node"><title>CAV1</title><a xlink:href="CAV1.html"><ellipse cx="221" cy="22" rx="23" ry="12" style="fill:turquoise;stroke:turquoise;"/><text text-anchor="middle" x="221" y="26" style="font-family:Times New Roman;"><![CDATA[CAV1]]></text></a></g><g id="node2" class="node"><title>INSR</title><a xlink:href="INSR.html"><ellipse cx="363" cy="74" rx="21" ry="12" style="fill:turquoise;stroke:turquoise;"/><text text-anchor="middle" x="363" y="78" style="font-family:Times New Roman;"><![CDATA[INSR]]></text></a></g><g id="edge2" class="edge"><title>CAV1-&gt;INSR</title><path style="fill:none;stroke:#0000ff;" d="M242,32C245,33 248,34 251,35 282,48 318,59 340,67"/><polygon style="fill:#0000ff;stroke:#0000ff;" points="240,29 239,32 242,33 243,30 240,29"/><polygon style="fill:#0000ff;stroke:#0000ff;" points="343,70 345,67 341,66 340,69 343,70"/></g><g id="node10" class="node"><title>CBL</title><a xlink:href="CBL.html"><ellipse cx="26" cy="126" rx="19" ry="12" style="fill:turquoise;stroke:turquoise;"/><text text-anchor="middle" x="26" y="130" style="font-family:Times New Roman;"><![CDATA[CBL]]></text></a></g><g id="edge10" class="edge"><title>INSR-&gt;CBL</title><path style="fill:none;stroke:darkgreen;" d="M342,76C280,81 106,97 52,113 50,114 49,115 46,115"/><polygon style="fill:darkgreen;stroke:darkgreen;" points="48,117 41,117 46,113 48,117"/></g><g id="node12" class="node"><title>PTK2</title><a xlink:href="PTK2.html"><ellipse cx="80" cy="126" rx="22" ry="12" style="fill:turquoise;stroke:turquoise;"/><text text-anchor="middle" x="80" y="130" style="font-family:Times New Roman;"><![CDATA[PTK2]]></text></a></g><g id="edge12" class="edge"><title>INSR-&gt;PTK2</title><path style="fill:none;stroke:darkgreen;" d="M342,76C297,79 193,89 109,113 108,114 106,115 103,115"/><polygon style="fill:darkgreen;stroke:darkgreen;" points="105,117 98,117 103,113 105,117"/></g><g id="node14" class="node"><title>IRS1</title><a xlink:href="IRS1.html"><ellipse cx="135" cy="126" rx="19" ry="12" style="fill:turquoise;stroke:turquoise;"/><text text-anchor="middle" x="135" y="130" style="font-family:Times New Roman;"><![CDATA[IRS1]]></text></a></g><g id="edge14" class="edge"><title>INSR-&gt;IRS1</title><path style="fill:none;stroke:darkgreen;" d="M342,76C304,81 225,92 161,113 160,114 158,115 156,115"/><polygon style="fill:darkgreen;stroke:darkgreen;" points="157,117 150,117 156,113 157,117"/></g><g id="node16" class="node"><title>RASA1</title><a xlink:href="RASA1.html"><ellipse cx="193" cy="126" rx="25" ry="12" style="fill:turquoise;stroke:turquoise;"/><text text-anchor="middle" x="193" y="130" style="font-family:Times New Roman;"><![CDATA[RASA1]]></text></a></g><g id="edge16" class="edge"><title>INSR-&gt;RASA1</title><path style="fill:none;stroke:darkgreen;" d="M343,79C316,87 268,99 226,113 224,114 222,115 220,115"/><polygon style="fill:darkgreen;stroke:darkgreen;" points="221,117 214,117 220,113 221,117"/></g><g id="node18" class="node"><title>PIK3CA</title><a xlink:href="PIK3CA.html"><ellipse cx="261" cy="126" rx="28" ry="12" style="fill:turquoise;stroke:turquoise;"/><text text-anchor="middle" x="261" y="130" style="font-family:Times New Roman;"><![CDATA[PIK3CA]]></text></a></g><g id="edge18" class="edge"><title>INSR-&gt;PIK3CA</title><path style="fill:none;stroke:#0000ff;" d="M343,84C326,93 301,106 283,115"/><polygon style="fill:#0000ff;stroke:#0000ff;" points="347,84 346,81 342,83 344,86 347,84"/><polygon style="fill:#0000ff;stroke:#0000ff;" points="280,115 281,118 284,117 283,114 280,115"/></g><g id="node20" class="node"><title>SORBS1</title><a xlink:href="SORBS1.html"><ellipse cx="331" cy="126" rx="28" ry="12" style="fill:turquoise;stroke:turquoise;"/><text text-anchor="middle" x="331" y="130" style="font-family:Times New Roman;"><![CDATA[SORBS1]]></text></a></g><g id="edge20" class="edge"><title>INSR-&gt;SORBS1</title><path style="fill:none;stroke:#0000ff;" d="M354,89C350,96 345,104 340,110"/><polygon style="fill:#0000ff;stroke:#0000ff;" points="357,87 354,86 352,89 355,90 357,87"/><polygon style="fill:#0000ff;stroke:#0000ff;" points="337,112 340,114 342,111 339,110 337,112"/></g><g id="node22" class="node"><title>PTPN1</title><a xlink:href="PTPN1.html"><ellipse cx="396" cy="126" rx="24" ry="12" style="fill:turquoise;stroke:turquoise;"/><text text-anchor="middle" x="396" y="130" style="font-family:Times New Roman;"><![CDATA[PTPN1]]></text></a></g><g id="edge22" class="edge"><title>INSR-&gt;PTPN1</title><path style="fill:none;stroke:darkgreen;" d="M371,87C375,93 381,100 385,107"/><polygon style="fill:darkgreen;stroke:darkgreen;" points="386,106 388,113 383,108 386,106"/></g><g id="node24" class="node"><title>SHC1</title><a xlink:href="SHC1.html"><ellipse cx="455" cy="126" rx="20" ry="12" style="fill:turquoise;stroke:turquoise;"/><text text-anchor="middle" x="455" y="130" style="font-family:Times New Roman;"><![CDATA[SHC1]]></text></a></g><g id="edge24" class="edge"><title>INSR-&gt;SHC1</title><path style="fill:none;stroke:darkgreen;" d="M379,83C394,92 417,105 433,115"/><polygon style="fill:darkgreen;stroke:darkgreen;" points="433,112 439,117 432,116 433,112"/></g><g id="node26" class="node"><title>PTPN6</title><a xlink:href="PTPN6.html"><ellipse cx="514" cy="126" rx="25" ry="12" style="fill:turquoise;stroke:turquoise;"/><text text-anchor="middle" x="514" y="130" style="font-family:Times New Roman;"><![CDATA[PTPN6]]></text></a></g><g id="edge26" class="edge"><title>INSR-&gt;PTPN6</title><path style="fill:none;stroke:darkgreen;" d="M383,80C406,88 448,101 482,113 484,114 486,115 488,115"/><polygon style="fill:darkgreen;stroke:darkgreen;" points="488,113 494,118 486,117 488,113"/></g><g id="node28" class="node"><title>PTPN11</title><a xlink:href="PTPN11.html"><ellipse cx="580" cy="126" rx="26" ry="12" style="fill:turquoise;stroke:turquoise;"/><text text-anchor="middle" x="580" y="130" style="font-family:Times New Roman;"><![CDATA[PTPN11]]></text></a></g><g id="edge28" class="edge"><title>INSR-&gt;PTPN11</title><path style="fill:none;stroke:darkgreen;" d="M384,78C419,83 489,96 547,113 549,114 551,115 553,115"/><polygon style="fill:darkgreen;stroke:darkgreen;" points="553,113 560,117 553,117 553,113"/></g><g id="node30" class="node"><title>VAV1</title><a xlink:href="VAV1.html"><ellipse cx="643" cy="126" rx="23" ry="12" style="fill:turquoise;stroke:turquoise;"/><text text-anchor="middle" x="643" y="130" style="font-family:Times New Roman;"><![CDATA[VAV1]]></text></a></g><g id="edge30" class="edge"><title>INSR-&gt;VAV1</title><path style="fill:none;stroke:darkgreen;" d="M385,76C429,79 530,89 613,113 615,114 617,115 619,115"/><polygon style="fill:darkgreen;stroke:darkgreen;" points="619,113 625,117 618,117 619,113"/></g><g id="node32" class="node"><title>GAB1</title><a xlink:href="GAB1.html"><ellipse cx="703" cy="126" rx="23" ry="12" style="fill:turquoise;stroke:turquoise;"/><text text-anchor="middle" x="703" y="130" style="font-family:Times New Roman;"><![CDATA[GAB1]]></text></a></g><g id="edge32" class="edge"><title>INSR-&gt;GAB1</title><path style="fill:none;stroke:darkgreen;" d="M385,75C436,76 568,84 674,113 676,114 677,115 679,115"/><polygon style="fill:darkgreen;stroke:darkgreen;" points="679,113 686,117 679,117 679,113"/></g><g id="node4" class="node"><title>CSK</title><a xlink:href="CSK.html"><ellipse cx="277" cy="22" rx="19" ry="12" style="fill:turquoise;stroke:turquoise;"/><text text-anchor="middle" x="277" y="26" style="font-family:Times New Roman;"><![CDATA[CSK]]></text></a></g><g id="edge4" class="edge"><title>CSK-&gt;INSR</title><path style="fill:none;stroke:#0000ff;" d="M294,33C309,41 329,54 345,63"/><polygon style="fill:#0000ff;stroke:#0000ff;" points="292,30 291,33 293,34 295,31 292,30"/><polygon style="fill:#0000ff;stroke:#0000ff;" points="347,66 349,63 346,61 345,64 347,66"/></g><g id="node6" class="node"><title>GRB7</title><a xlink:href="GRB7.html"><ellipse cx="333" cy="22" rx="23" ry="12" style="fill:turquoise;stroke:turquoise;"/><text text-anchor="middle" x="333" y="26" style="font-family:Times New Roman;"><![CDATA[GRB7]]></text></a></g><g id="edge6" class="edge"><title>GRB7-&gt;INSR</title><path style="fill:none;stroke:#0000ff;" d="M342,38C346,45 351,52 355,59"/><polygon style="fill:#0000ff;stroke:#0000ff;" points="342,34 339,35 340,38 343,37 342,34"/><polygon style="fill:#0000ff;stroke:#0000ff;" points="355,63 358,61 356,58 353,60 355,63"/></g><g id="node8" class="node"><title>HRAS</title><a xlink:href="HRAS.html"><ellipse cx="394" cy="22" rx="24" ry="12" style="fill:turquoise;stroke:turquoise;"/><text text-anchor="middle" x="394" y="26" style="font-family:Times New Roman;"><![CDATA[HRAS]]></text></a></g><g id="edge8" class="edge"><title>HRAS-&gt;INSR</title><path style="fill:none;stroke:#0000ff;" d="M386,38C381,45 376,52 372,59"/><polygon style="fill:#0000ff;stroke:#0000ff;" points="388,35 386,34 384,37 387,38 388,35"/><polygon style="fill:#0000ff;stroke:#0000ff;" points="369,61 372,63 373,60 370,58 369,61"/></g><g id="node34" class="node"><title>PTPRF</title><a xlink:href="PTPRF.html"><ellipse cx="458" cy="22" rx="25" ry="12" style="fill:turquoise;stroke:turquoise;"/><text text-anchor="middle" x="458" y="26" style="font-family:Times New Roman;"><![CDATA[PTPRF]]></text></a></g><g id="edge34" class="edge"><title>PTPRF-&gt;INSR</title><path style="fill:none;stroke:#ff0000;" d="M440,32C426,40 404,52 388,61"/><polyline style="fill:none;stroke:#ff0000;" points="386,56 392,65 "/></g><g id="node36" class="node"><title>PRKCA</title><a xlink:href="PRKCA.html"><ellipse cx="525" cy="22" rx="28" ry="12" style="fill:turquoise;stroke:turquoise;"/><text text-anchor="middle" x="525" y="26" style="font-family:Times New Roman;"><![CDATA[PRKCA]]></text></a></g><g id="edge36" class="edge"><title>PRKCA-&gt;INSR</title><path style="fill:none;stroke:darkgreen;" d="M503,31C499,33 494,34 490,35 455,48 415,59 389,66"/><polygon style="fill:darkgreen;stroke:darkgreen;" points="390,68 383,69 389,64 390,68"/></g></g></g></g>
<!-- navigation controls -->
<g id="navbox">
	<rect x="0" y="0" width="742" height="60"
		 style="fill:rgb(206,207,206);stroke:rgb(0,0,0);stroke-width:1"/>

	<polygon id="pan_right"
        onmouseup="panRight()"
        onmouseover="doHighlight(evt, 'Click to pan to the right')"
        onmouseout="resetHighlight(evt)"
		points="28.0732,13 32,20.5 28.0732,28 28.0732,23.4412 25,23.4412 25,17.4118 28.0732,17.4118"
		 transform="matrix(3.39111 0 0 2.98838 -12.6265 -29.7101)"
         fill="rgb(99,154,206)"
		 style="stroke:rgb(0,0,0);stroke-width:0.5"/>
	<polygon id="pan_left"
        onmouseup="panLeft()"
        onmouseover="doHighlight(evt, 'Click to pan to the left')"
        onmouseout="resetHighlight(evt)"
		points="123.991,25 120.064,32.5 123.991,40 123.991,35.4412 127.064,35.4412 127.064,29.4118
			123.991,29.4118" transform="matrix(3.39111 0 0 2.98838 -404.865 -65.5706)"
         fill="rgb(99,154,206)"
		 style="stroke:rgb(0,0,0);stroke-width:0.5"/>
	<polygon id="pan_down"
        onmouseup="panDown()"
        onmouseover="doHighlight(evt, 'Click to pan down')"
        onmouseout="resetHighlight(evt)"
		points="116.032,32.0408 123.532,35.9678 131.032,32.0408 126.473,32.0408 126.473,28.9678 120.444,28.9678
			120.444,32.0408" transform="matrix(3.39111 0 0 2.98838 -369.822 -50.6287)"
         fill="rgb(99,154,206)"
		 style="stroke:rgb(0,0,0);stroke-width:0.5"/>
	<polygon id="pan_up"
        onmouseup="panUp()"
  onmouseover="doHighlight(evt, 'Click to pan up')"
        onmouseout="resetHighlight(evt)"
		points="116.032,32.0408 123.532,35.9678 131.032,32.0408 126.473,32.0408 126.473,28.9678 120.444,28.9678
			120.444,32.0408" transform="matrix(3.39111 0 0 -2.98838 -369.823 111.74)"
         fill="rgb(99,154,206)"
		 style="stroke:rgb(0,0,0);stroke-width:0.5"/>
	<g id="go_home" 
         onmouseup="panRestore()" 
         onmouseover="doHighlight(evt, 'Click to restore graph to original position')"
         onmouseout="resetHighlight(evt)"
         fill="rgb(99,154,206)"
         transform="matrix(1 0 0 1 0 -0.333333)">
		<rect x="196" y="11" width="26" height="26"
			transform="translate(-19.1111 -2.66667)"
			 style="stroke:rgb(0,0,0);stroke-width:1"/>
		<line x1="182" y1="16" x2="182" y2="28"
			transform="matrix(1 0 0 1 2.22222 0.444444)"
			 style="fill:none;stroke:rgb(0,0,0);stroke-width:2"/>
		<line x1="187" y1="22" x2="187" y2="28"
			transform="matrix(1 0 0 1 2.22222 0.444444)"
			 style="fill:none;stroke:rgb(0,0,0);stroke-width:2"/>
	<line x1="192" y1="13" x2="192" y2="28"
			transform="matrix(1 0 0 1 2.22222 0.444444)"
			 style="fill:none;stroke:rgb(0,0,0);stroke-width:2"/>
		<line x1="182" y1="28" x2="192" y2="28"
			transform="matrix(1 0 0 1 2.22222 0.444444)"
	style="fill:none;stroke:rgb(0,0,0);stroke-width:2"/>
		<line x1="189" y1="12" x2="179" y2="21"
			 style="fill:none;stroke:rgb(0,0,0);stroke-width:2"/>
		<line x1="188" y1="12" x2="199" y2="20"
			 style="fill:none;stroke:rgb(0,0,0);stroke-width:2"/>
	</g>
	<g id="zoom_out" onmouseup="zoomOut()" 
             onmouseover="doHighlight(evt, 'Click to zoom out')"
             onmouseout="resetHighlight(evt)"
             fill="rgb(99,154,206)"
             transform="matrix(1 0 0 1 0 0)">
		<rect x="116" y="8" width="26" height="26"
			 style="stroke:rgb(0,0,0);stroke-width:1"/>
		<ellipse cx="126" cy="18" rx="6" ry="6"
			 style="stroke:rgb(0,0,0);stroke-width:1"/>
		<line x1="130" y1="23" x2="137" y2="29"
			transform="matrix(1 0 0 1 0.888889 -0.888889)"
			 style="fill:none;stroke:rgb(0,0,0);stroke-width:2"/>
		<line x1="123" y1="18" x2="129" y2="18"
			 style="fill:none;stroke:rgb(0,0,0);stroke-width:2"/>
	</g>
	<g id="zoom_in" onmouseup="zoomIn()" 
             onmouseover="doHighlight(evt, 'Click to zoom in')"
             onmouseout="resetHighlight(evt)"
             fill="rgb(99,154,206)"
             transform="matrix(1 0 0 1 0.888889 -0.444444)">
		<rect x="116" y="8" width="26" height="26"
			transform="matrix(1 0 0 1 29.7778 0.444444)"
			 style="stroke:rgb(0,0,0);stroke-width:1"/>
		<ellipse cx="126" cy="18" rx="6" ry="6"
			transform="matrix(1 0 0 1 29.7778 0.444444)"
			 style="stroke:rgb(0,0,0);stroke-width:1"/>
		<line x1="130" y1="23" x2="137" y2="29"
			transform="matrix(1 0 0 1 30.6667 -0.444445)"
		style="fill:none;stroke:rgb(0,0,0);stroke-width:2"/>
		<line x1="123" y1="18" x2="129" y2="18"
			transform="matrix(1 0 0 1 29.7778 0.444444)"
			 style="fill:none;stroke:rgb(0,0,0);stroke-width:2"/>
		<line x1="156" y1="15" x2="156" y2="22"
			 style="fill:none;stroke:rgb(0,0,0);stroke-width:2"/>
	</g>
	<g>
		<rect x="117" y="40" width="452" height="14"
			transform="matrix(1.54201 0 0 1 -64.1436 -0.222222)"
			 style="fill:rgb(192,192,192);stroke:rgb(0,0,0);stroke-width:1"/>
		<text id="status_text" x="183px" y="48px"
			transform="matrix(1 0 0 1 -63.5556 3.00778)"
			 style="fill:rgb(0,0,0);font-size:14;font-family:Arial"> </text>
	</g>
</g>	
</svg>