<?xml version="1.0" encoding="UTF-8" standalone="no"?><!DOCTYPE svg PUBLIC "-//W3C//DTD SVG 1.0//EN" "http://www.w3.org/TR/2001/REC-SVG-20010904/DTD/svg10.dtd" [ <!ATTLIST svg xmlns:xlink CDATA #FIXED "http://www.w3.org/1999/xlink">]><!-- Generated by WinGraphviz version ver1.02.23, 08/01/2003 (08/04/2003)     For user: Avi Ma'ayan   Title: G    Pages: 1 --><!--="735px" height="188px" xmlns="http://www.w3.org/2000/svg" --><svg onload="init(evt)" width="735px" height="600px" xmlns="http://www.w3.org/2000/svg" xmlns:xlink="http://www.w3.org/1999/xlink">
<script type="text/ecmascript">
<![CDATA[
var svgDocument;
var zoomAmt;
var xOffset;
var yOffset;
var scale;
var maxScale;
var imageWidth;
var imageHeight;
function init(evt)
{
    svgDocument = evt.getTarget().getOwnerDocument();
    zoomAmt = 0;
    xOffset = 0;
    yOffset = 60;
    scale = 0.8;
    maxScale = 10;
    imageWidth = 742;
    imageHeight = 606;
    panRestore();
    //panUp();
}
function transformMap ()
{
    var obj = svgDocument.getElementById("Pathway");
    var centerX = imageWidth  / 2.0;
    var centerY = imageHeight / 2.0;
    var adjustX = (-centerX * (scale - 0.8)) + xOffset;
    var adjustY = (-centerY * (scale - 0.8)) + yOffset;
    var transParms = 'translate(' + adjustX + ',' + adjustY + ') ';
    transParms += 'scale(' + scale + ')';
    // alert(transParms);
    obj.setAttribute("transform", transParms); 
}
function click_node(id)
{
    var testx = parent.click_node;
    if (typeof(testx) == "function")
    {
		parent.click_node(id);
    }
}
function click_relation(id)
{
    var testx = parent.click_relation;
    if (typeof(testx) == "function")
    {
        parent.click_relation(id);
    }
}
function click_pathway(toId, fromId)
{
    var testx = parent.click_pathway;
    if (typeof(testx) == "function")
    {
	parent.click_pathway(toId, fromId);
    }
}
function check_interpath(evt, pathid)
{
  var obj = evt.getTarget();
  var testx = parent.is_frompath;
  var child = obj.firstChild;
  if (typeof(testx) == "function")
  {
    if (parent.is_frompath(pathid))
    {
      while (child != null)
      {
        if (child.nodeType == 1)
        {
          if ((child.localName == "g") || (child.localName == "polyline"))
          {
            child.setAttribute("style", "fill:none;stroke:red");
          }
          else if (child.localName == "polygon")
          {
            child.setAttribute("style", "fill:red;stroke:red");
          }
        }
        child = child.nextSibling;
      }
    }
  }
}
function set_status (msg)
{
 var obj = svgDocument.getElementById("status_text");
  var child;
 
  child = obj.firstChild;
  if ((child != null) && (child.nodeType == 3))
  {
    if ((msg != null) && (msg.length > 0))
    {
      child.data = msg;
    }
    else
    {
child.data = " ";
    }
  }
}
function zoomIn ()
{
    scale = scale + 0.8;
    if (scale > maxScale)
    {
       scale = maxScale;
    }
    transformMap();
    panUp();
    panUp();
    panUp();
    panUp();
    panUp();
    panUp();
    panUp();
    panUp();
    panUp();
    panUp();
    panUp();
    panUp();
}
function zoomOut ()
{
    scale = scale - 0.8;
    if (scale < 0.8)
    {
       scale = 0.8;
    }
    transformMap();
    panDown();
    panDown();
    panDown();
    panDown();
    panDown();
    panDown();
    panDown();
    panDown();
    panDown();
    panDown();
    panDown();
    panDown();
}
function panUp ()
{
    yOffset = yOffset + 20;
    transformMap();
}
function panDown ()
{
    yOffset = yOffset - 20;
    transformMap();
}
function panLeft ()
{
    xOffset = xOffset + 20;
    transformMap();
}
function panRight ()
{
    xOffset = xOffset - 20;
    transformMap();
}
function panRestore ()
{
    xOffset = 0;
    yOffset = 0;
    scale = 0.5;
    //obj = svgDocument.getElementById("zoom");
    //obj.setAttribute("x1", 0);
    //obj.setAttribute("x2", 0);
    transformMap();    
}
function doHighlight (evt, msg)
{
  var obj = evt.getTarget();
  obj.setAttribute("fill", "rgb(239,24,33)");
  set_status(msg);
}
function resetHighlight (evt)
{
  var obj = evt.getTarget();
  obj.setAttribute("fill", "rgb(99,154,206)");
  set_status(" ");
}
// ]]>
</script>
<defs>
<clipPath id="theClip">
<polygon points="1 61, 741 61, 741 665, 1 665"
style="fill: none;"/>
</clipPath>
</defs>
<!-- viewport outline -->
<rect x="0" y="61" width="742" height="606"
style="stroke: black; stroke-width: 1; fill: none;"/>
<!-- pathway graph style="clip-path: url(#theClip);" -->
<g style="clip-path: url(#theClip);">
<g id="Pathway"  transform="translate(0,60)">
<!-- prefile.include ends, begin pathway graph -->
<g id="stkecm;CMP_10705" class="graph">
</g>
<g id="graph0" class="graph" style="font-family:Times New Roman;font-size:12.38;"><title>G</title><g id="node1" class="node"><title>AKT1</title><a xlink:href="AKT1.html"><ellipse cx="34" cy="27" rx="27" ry="15" style="fill:turquoise;stroke:turquoise;"/><text text-anchor="middle" x="34" y="32" style="font-family:Times New Roman;"><![CDATA[AKT1]]></text></a></g><g id="node2" class="node"><title>IRS1</title><a xlink:href="IRS1.html"><ellipse cx="351" cy="91" rx="23" ry="15" style="fill:turquoise;stroke:turquoise;"/><text text-anchor="middle" x="351" y="96" style="font-family:Times New Roman;"><![CDATA[IRS1]]></text></a></g><g id="edge2" class="edge"><title>AKT1-&gt;IRS1</title><path style="fill:none;stroke:darkgreen;" d="M55,38C59,40 65,43 69,43 157,70 265,83 318,88"/><polygon style="fill:darkgreen;stroke:darkgreen;" points="318,87 327,89 318,91 318,87"/></g><g id="node12" class="node"><title>NCK2</title><a xlink:href="NCK2.html"><ellipse cx="183" cy="155" rx="30" ry="15" style="fill:turquoise;stroke:turquoise;"/><text text-anchor="middle" x="183" y="159" style="font-family:Times New Roman;"><![CDATA[NCK2]]></text></a></g><g id="edge12" class="edge"><title>IRS1-&gt;NCK2</title><path style="fill:none;stroke:#0000ff;" d="M325,101C300,110 257,125 221,139 218,141 214,142 210,143"/><polygon style="fill:#0000ff;stroke:#0000ff;" points="331,101 329,97 325,99 326,103 331,101"/><polygon style="fill:#0000ff;stroke:#0000ff;" points="206,143 208,147 211,145 210,142 206,143"/></g><g id="node14" class="node"><title>PIK3CA</title><a xlink:href="PIK3CA.html"><ellipse cx="264" cy="155" rx="35" ry="15" style="fill:turquoise;stroke:turquoise;"/><text text-anchor="middle" x="264" y="159" style="font-family:Times New Roman;"><![CDATA[PIK3CA]]></text></a></g><g id="edge14" class="edge"><title>IRS1-&gt;PIK3CA</title><path style="fill:none;stroke:#0000ff;" d="M332,106C318,116 300,129 287,139"/><polygon style="fill:#0000ff;stroke:#0000ff;" points="337,105 334,102 331,104 333,108 337,105"/><polygon style="fill:#0000ff;stroke:#0000ff;" points="282,139 284,142 287,141 286,137 282,139"/></g><g id="node16" class="node"><title>PRKCA</title><a xlink:href="PRKCA.html"><ellipse cx="351" cy="155" rx="35" ry="15" style="fill:turquoise;stroke:turquoise;"/><text text-anchor="middle" x="351" y="159" style="font-family:Times New Roman;"><![CDATA[PRKCA]]></text></a></g><g id="edge16" class="edge"><title>IRS1-&gt;PRKCA</title><path style="fill:none;stroke:#0000ff;" d="M346,111C345,119 345,127 346,134"/><polygon style="fill:#0000ff;stroke:#0000ff;" points="348,107 344,107 344,111 348,111 348,107"/><polygon style="fill:#0000ff;stroke:#0000ff;" points="344,139 348,139 348,134 344,134 344,139"/></g><g id="node18" class="node"><title>SHC1</title><a xlink:href="SHC1.html"><ellipse cx="428" cy="155" rx="25" ry="15" style="fill:turquoise;stroke:turquoise;"/><text text-anchor="middle" x="428" y="159" style="font-family:Times New Roman;"><![CDATA[SHC1]]></text></a></g><g id="edge18" class="edge"><title>IRS1-&gt;SHC1</title><path style="fill:none;stroke:#0000ff;" d="M370,106C383,117 398,129 410,139"/><polygon style="fill:#0000ff;stroke:#0000ff;" points="368,102 365,105 369,108 371,104 368,102"/><polygon style="fill:#0000ff;stroke:#0000ff;" points="412,143 415,140 411,137 409,141 412,143"/></g><g id="node4" class="node"><title>CSK</title><a xlink:href="CSK.html"><ellipse cx="101" cy="27" rx="23" ry="15" style="fill:turquoise;stroke:turquoise;"/><text text-anchor="middle" x="101" y="32" style="font-family:Times New Roman;"><![CDATA[CSK]]></text></a></g><g id="edge4" class="edge"><title>CSK-&gt;IRS1</title><path style="fill:none;stroke:darkgreen;" d="M119,38C124,40 128,42 133,43 197,66 276,81 318,88"/><polygon style="fill:darkgreen;stroke:darkgreen;" points="318,86 327,88 318,89 318,86"/></g><g id="node6" class="node"><title>PTK2</title><a xlink:href="PTK2.html"><ellipse cx="168" cy="27" rx="27" ry="15" style="fill:turquoise;stroke:turquoise;"/><text text-anchor="middle" x="168" y="32" style="font-family:Times New Roman;"><![CDATA[PTK2]]></text></a></g><g id="edge6" class="edge"><title>PTK2-&gt;IRS1</title><path style="fill:none;stroke:#0000ff;" d="M193,39C196,41 200,42 203,43 246,60 295,75 325,84"/><polygon style="fill:#0000ff;stroke:#0000ff;" points="190,35 188,39 192,41 194,37 190,35"/><polygon style="fill:#0000ff;stroke:#0000ff;" points="329,87 329,83 325,82 325,86 329,87"/></g><g id="node8" class="node"><title>GRB2</title><a xlink:href="GRB2.html"><ellipse cx="241" cy="27" rx="29" ry="15" style="fill:turquoise;stroke:turquoise;"/><text text-anchor="middle" x="241" y="32" style="font-family:Times New Roman;"><![CDATA[GRB2]]></text></a></g><g id="edge8" class="edge"><title>GRB2-&gt;IRS1</title><path style="fill:none;stroke:#0000ff;" d="M264,41C283,52 310,67 328,78"/><polygon style="fill:#0000ff;stroke:#0000ff;" points="262,37 260,41 264,43 265,39 262,37"/><polygon style="fill:#0000ff;stroke:#0000ff;" points="332,82 333,79 330,76 328,80 332,82"/></g><g id="node10" class="node"><title>INSR</title><a xlink:href="INSR.html"><ellipse cx="312" cy="27" rx="26" ry="15" style="fill:turquoise;stroke:turquoise;"/><text text-anchor="middle" x="312" y="32" style="font-family:Times New Roman;"><![CDATA[INSR]]></text></a></g><g id="edge10" class="edge"><title>INSR-&gt;IRS1</title><path style="fill:none;stroke:darkgreen;" d="M321,43C325,50 332,59 337,69"/><polygon style="fill:darkgreen;stroke:darkgreen;" points="339,67 341,76 335,70 339,67"/></g><g id="edge24" class="edge"><title>PRKCA-&gt;IRS1</title><path style="fill:none;stroke:darkgreen;" d="M357,116C357,124 357,132 356,139"/><polygon style="fill:darkgreen;stroke:darkgreen;" points="356,116 356,107 359,116 356,116"/></g><g id="node20" class="node"><title>MAPK8</title><a xlink:href="MAPK8.html"><ellipse cx="390" cy="27" rx="35" ry="15" style="fill:turquoise;stroke:turquoise;"/><text text-anchor="middle" x="390" y="32" style="font-family:Times New Roman;"><![CDATA[MAPK8]]></text></a></g><g id="edge20" class="edge"><title>MAPK8-&gt;IRS1</title><path style="fill:none;stroke:darkgreen;" d="M380,43C376,50 370,60 364,69"/><polygon style="fill:darkgreen;stroke:darkgreen;" points="366,70 360,76 363,67 366,70"/></g><g id="node22" class="node"><title>PTPRF</title><a xlink:href="PTPRF.html"><ellipse cx="473" cy="27" rx="31" ry="15" style="fill:turquoise;stroke:turquoise;"/><text text-anchor="middle" x="473" y="32" style="font-family:Times New Roman;"><![CDATA[PTPRF]]></text></a></g><g id="edge22" class="edge"><title>PTPRF-&gt;IRS1</title><path style="fill:none;stroke:#ff0000;" d="M451,39C432,50 402,65 380,76"/><polyline style="fill:none;stroke:#ff0000;" points="379,69 386,81 "/></g><g id="node25" class="node"><title>PTPN1</title><a xlink:href="PTPN1.html"><ellipse cx="551" cy="27" rx="30" ry="15" style="fill:turquoise;stroke:turquoise;"/><text text-anchor="middle" x="551" y="32" style="font-family:Times New Roman;"><![CDATA[PTPN1]]></text></a></g><g id="edge26" class="edge"><title>PTPN1-&gt;IRS1</title><path style="fill:none;stroke:#ff0000;" d="M528,38C523,40 517,42 513,43 470,59 417,73 384,83"/><polyline style="fill:none;stroke:#ff0000;" points="385,76 387,89 "/></g><g id="node27" class="node"><title>PTPN11</title><a xlink:href="PTPN11.html"><ellipse cx="630" cy="27" rx="32" ry="15" style="fill:turquoise;stroke:turquoise;"/><text text-anchor="middle" x="630" y="32" style="font-family:Times New Roman;"><![CDATA[PTPN11]]></text></a></g><g id="edge28" class="edge"><title>PTPN11-&gt;IRS1</title><path style="fill:none;stroke:#ff0000;" d="M605,38C600,40 594,42 589,43 518,65 434,79 387,86"/><polyline style="fill:none;stroke:#ff0000;" points="387,79 389,92 "/></g><g id="node29" class="node"><title>SRC</title><a xlink:href="SRC.html"><ellipse cx="702" cy="27" rx="23" ry="15" style="fill:turquoise;stroke:turquoise;"/><text text-anchor="middle" x="702" y="32" style="font-family:Times New Roman;"><![CDATA[SRC]]></text></a></g><g id="edge30" class="edge"><title>SRC-&gt;IRS1</title><path style="fill:none;stroke:darkgreen;" d="M685,38C680,40 675,42 670,43 569,75 443,87 384,89"/><polygon style="fill:darkgreen;stroke:darkgreen;" points="384,91 375,90 384,88 384,91"/></g></g></g></g>
<!-- navigation controls -->
<g id="navbox">
	<rect x="0" y="0" width="742" height="60"
		 style="fill:rgb(206,207,206);stroke:rgb(0,0,0);stroke-width:1"/>

	<polygon id="pan_right"
        onmouseup="panRight()"
        onmouseover="doHighlight(evt, 'Click to pan to the right')"
        onmouseout="resetHighlight(evt)"
		points="28.0732,13 32,20.5 28.0732,28 28.0732,23.4412 25,23.4412 25,17.4118 28.0732,17.4118"
		 transform="matrix(3.39111 0 0 2.98838 -12.6265 -29.7101)"
         fill="rgb(99,154,206)"
		 style="stroke:rgb(0,0,0);stroke-width:0.5"/>
	<polygon id="pan_left"
        onmouseup="panLeft()"
        onmouseover="doHighlight(evt, 'Click to pan to the left')"
        onmouseout="resetHighlight(evt)"
		points="123.991,25 120.064,32.5 123.991,40 123.991,35.4412 127.064,35.4412 127.064,29.4118
			123.991,29.4118" transform="matrix(3.39111 0 0 2.98838 -404.865 -65.5706)"
         fill="rgb(99,154,206)"
		 style="stroke:rgb(0,0,0);stroke-width:0.5"/>
	<polygon id="pan_down"
        onmouseup="panDown()"
        onmouseover="doHighlight(evt, 'Click to pan down')"
        onmouseout="resetHighlight(evt)"
		points="116.032,32.0408 123.532,35.9678 131.032,32.0408 126.473,32.0408 126.473,28.9678 120.444,28.9678
			120.444,32.0408" transform="matrix(3.39111 0 0 2.98838 -369.822 -50.6287)"
         fill="rgb(99,154,206)"
		 style="stroke:rgb(0,0,0);stroke-width:0.5"/>
	<polygon id="pan_up"
        onmouseup="panUp()"
  onmouseover="doHighlight(evt, 'Click to pan up')"
        onmouseout="resetHighlight(evt)"
		points="116.032,32.0408 123.532,35.9678 131.032,32.0408 126.473,32.0408 126.473,28.9678 120.444,28.9678
			120.444,32.0408" transform="matrix(3.39111 0 0 -2.98838 -369.823 111.74)"
         fill="rgb(99,154,206)"
		 style="stroke:rgb(0,0,0);stroke-width:0.5"/>
	<g id="go_home" 
         onmouseup="panRestore()" 
         onmouseover="doHighlight(evt, 'Click to restore graph to original position')"
         onmouseout="resetHighlight(evt)"
         fill="rgb(99,154,206)"
         transform="matrix(1 0 0 1 0 -0.333333)">
		<rect x="196" y="11" width="26" height="26"
			transform="translate(-19.1111 -2.66667)"
			 style="stroke:rgb(0,0,0);stroke-width:1"/>
		<line x1="182" y1="16" x2="182" y2="28"
			transform="matrix(1 0 0 1 2.22222 0.444444)"
			 style="fill:none;stroke:rgb(0,0,0);stroke-width:2"/>
		<line x1="187" y1="22" x2="187" y2="28"
			transform="matrix(1 0 0 1 2.22222 0.444444)"
			 style="fill:none;stroke:rgb(0,0,0);stroke-width:2"/>
	<line x1="192" y1="13" x2="192" y2="28"
			transform="matrix(1 0 0 1 2.22222 0.444444)"
			 style="fill:none;stroke:rgb(0,0,0);stroke-width:2"/>
		<line x1="182" y1="28" x2="192" y2="28"
			transform="matrix(1 0 0 1 2.22222 0.444444)"
	style="fill:none;stroke:rgb(0,0,0);stroke-width:2"/>
		<line x1="189" y1="12" x2="179" y2="21"
			 style="fill:none;stroke:rgb(0,0,0);stroke-width:2"/>
		<line x1="188" y1="12" x2="199" y2="20"
			 style="fill:none;stroke:rgb(0,0,0);stroke-width:2"/>
	</g>
	<g id="zoom_out" onmouseup="zoomOut()" 
             onmouseover="doHighlight(evt, 'Click to zoom out')"
             onmouseout="resetHighlight(evt)"
             fill="rgb(99,154,206)"
             transform="matrix(1 0 0 1 0 0)">
		<rect x="116" y="8" width="26" height="26"
			 style="stroke:rgb(0,0,0);stroke-width:1"/>
		<ellipse cx="126" cy="18" rx="6" ry="6"
			 style="stroke:rgb(0,0,0);stroke-width:1"/>
		<line x1="130" y1="23" x2="137" y2="29"
			transform="matrix(1 0 0 1 0.888889 -0.888889)"
			 style="fill:none;stroke:rgb(0,0,0);stroke-width:2"/>
		<line x1="123" y1="18" x2="129" y2="18"
			 style="fill:none;stroke:rgb(0,0,0);stroke-width:2"/>
	</g>
	<g id="zoom_in" onmouseup="zoomIn()" 
             onmouseover="doHighlight(evt, 'Click to zoom in')"
             onmouseout="resetHighlight(evt)"
             fill="rgb(99,154,206)"
             transform="matrix(1 0 0 1 0.888889 -0.444444)">
		<rect x="116" y="8" width="26" height="26"
			transform="matrix(1 0 0 1 29.7778 0.444444)"
			 style="stroke:rgb(0,0,0);stroke-width:1"/>
		<ellipse cx="126" cy="18" rx="6" ry="6"
			transform="matrix(1 0 0 1 29.7778 0.444444)"
			 style="stroke:rgb(0,0,0);stroke-width:1"/>
		<line x1="130" y1="23" x2="137" y2="29"
			transform="matrix(1 0 0 1 30.6667 -0.444445)"
		style="fill:none;stroke:rgb(0,0,0);stroke-width:2"/>
		<line x1="123" y1="18" x2="129" y2="18"
			transform="matrix(1 0 0 1 29.7778 0.444444)"
			 style="fill:none;stroke:rgb(0,0,0);stroke-width:2"/>
		<line x1="156" y1="15" x2="156" y2="22"
			 style="fill:none;stroke:rgb(0,0,0);stroke-width:2"/>
	</g>
	<g>
		<rect x="117" y="40" width="452" height="14"
			transform="matrix(1.54201 0 0 1 -64.1436 -0.222222)"
			 style="fill:rgb(192,192,192);stroke:rgb(0,0,0);stroke-width:1"/>
		<text id="status_text" x="183px" y="48px"
			transform="matrix(1 0 0 1 -63.5556 3.00778)"
			 style="fill:rgb(0,0,0);font-size:14;font-family:Arial"> </text>
	</g>
</g>	
</svg>