<?xml version="1.0" encoding="UTF-8" standalone="no"?><!DOCTYPE svg PUBLIC "-//W3C//DTD SVG 1.0//EN" "http://www.w3.org/TR/2001/REC-SVG-20010904/DTD/svg10.dtd" [ <!ATTLIST svg xmlns:xlink CDATA #FIXED "http://www.w3.org/1999/xlink">]><!-- Generated by WinGraphviz version ver1.02.23, 08/01/2003 (08/04/2003)     For user: Avi Ma'ayan   Title: G    Pages: 1 --><!--="735px" height="175px" xmlns="http://www.w3.org/2000/svg" --><svg onload="init(evt)" width="735px" height="600px" xmlns="http://www.w3.org/2000/svg" xmlns:xlink="http://www.w3.org/1999/xlink">
<script type="text/ecmascript">
<![CDATA[
var svgDocument;
var zoomAmt;
var xOffset;
var yOffset;
var scale;
var maxScale;
var imageWidth;
var imageHeight;
function init(evt)
{
    svgDocument = evt.getTarget().getOwnerDocument();
    zoomAmt = 0;
    xOffset = 0;
    yOffset = 60;
    scale = 0.8;
    maxScale = 10;
    imageWidth = 742;
    imageHeight = 606;
    panRestore();
    //panUp();
}
function transformMap ()
{
    var obj = svgDocument.getElementById("Pathway");
    var centerX = imageWidth  / 2.0;
    var centerY = imageHeight / 2.0;
    var adjustX = (-centerX * (scale - 0.8)) + xOffset;
    var adjustY = (-centerY * (scale - 0.8)) + yOffset;
    var transParms = 'translate(' + adjustX + ',' + adjustY + ') ';
    transParms += 'scale(' + scale + ')';
    // alert(transParms);
    obj.setAttribute("transform", transParms); 
}
function click_node(id)
{
    var testx = parent.click_node;
    if (typeof(testx) == "function")
    {
		parent.click_node(id);
    }
}
function click_relation(id)
{
    var testx = parent.click_relation;
    if (typeof(testx) == "function")
    {
        parent.click_relation(id);
    }
}
function click_pathway(toId, fromId)
{
    var testx = parent.click_pathway;
    if (typeof(testx) == "function")
    {
	parent.click_pathway(toId, fromId);
    }
}
function check_interpath(evt, pathid)
{
  var obj = evt.getTarget();
  var testx = parent.is_frompath;
  var child = obj.firstChild;
  if (typeof(testx) == "function")
  {
    if (parent.is_frompath(pathid))
    {
      while (child != null)
      {
        if (child.nodeType == 1)
        {
          if ((child.localName == "g") || (child.localName == "polyline"))
          {
            child.setAttribute("style", "fill:none;stroke:red");
          }
          else if (child.localName == "polygon")
          {
            child.setAttribute("style", "fill:red;stroke:red");
          }
        }
        child = child.nextSibling;
      }
    }
  }
}
function set_status (msg)
{
 var obj = svgDocument.getElementById("status_text");
  var child;
 
  child = obj.firstChild;
  if ((child != null) && (child.nodeType == 3))
  {
    if ((msg != null) && (msg.length > 0))
    {
      child.data = msg;
    }
    else
    {
child.data = " ";
    }
  }
}
function zoomIn ()
{
    scale = scale + 0.8;
    if (scale > maxScale)
    {
       scale = maxScale;
    }
    transformMap();
    panUp();
    panUp();
    panUp();
    panUp();
    panUp();
    panUp();
    panUp();
    panUp();
    panUp();
    panUp();
    panUp();
    panUp();
}
function zoomOut ()
{
    scale = scale - 0.8;
    if (scale < 0.8)
    {
       scale = 0.8;
    }
    transformMap();
    panDown();
    panDown();
    panDown();
    panDown();
    panDown();
    panDown();
    panDown();
    panDown();
    panDown();
    panDown();
    panDown();
    panDown();
}
function panUp ()
{
    yOffset = yOffset + 20;
    transformMap();
}
function panDown ()
{
    yOffset = yOffset - 20;
    transformMap();
}
function panLeft ()
{
    xOffset = xOffset + 20;
    transformMap();
}
function panRight ()
{
    xOffset = xOffset - 20;
    transformMap();
}
function panRestore ()
{
    xOffset = 0;
    yOffset = 0;
    scale = 0.5;
    //obj = svgDocument.getElementById("zoom");
    //obj.setAttribute("x1", 0);
    //obj.setAttribute("x2", 0);
    transformMap();    
}
function doHighlight (evt, msg)
{
  var obj = evt.getTarget();
  obj.setAttribute("fill", "rgb(239,24,33)");
  set_status(msg);
}
function resetHighlight (evt)
{
  var obj = evt.getTarget();
  obj.setAttribute("fill", "rgb(99,154,206)");
  set_status(" ");
}
// ]]>
</script>
<defs>
<clipPath id="theClip">
<polygon points="1 61, 741 61, 741 665, 1 665"
style="fill: none;"/>
</clipPath>
</defs>
<!-- viewport outline -->
<rect x="0" y="61" width="742" height="606"
style="stroke: black; stroke-width: 1; fill: none;"/>
<!-- pathway graph style="clip-path: url(#theClip);" -->
<g style="clip-path: url(#theClip);">
<g id="Pathway"  transform="translate(0,60)">
<!-- prefile.include ends, begin pathway graph -->
<g id="stkecm;CMP_10705" class="graph">
</g>
<g id="graph0" class="graph" style="font-family:Times New Roman;font-size:11.43;"><title>G</title><g id="node1" class="node"><title>ADAM12</title><a xlink:href="ADAM12.html"><ellipse cx="92" cy="26" rx="35" ry="14" style="fill:turquoise;stroke:turquoise;"/><text text-anchor="middle" x="92" y="30" style="font-family:Times New Roman;"><![CDATA[ADAM12]]></text></a></g><g id="node2" class="node"><title>ITGA5</title><a xlink:href="ITGA5.html"><ellipse cx="362" cy="85" rx="28" ry="14" style="fill:turquoise;stroke:turquoise;"/><text text-anchor="middle" x="362" y="89" style="font-family:Times New Roman;"><![CDATA[ITGA5]]></text></a></g><g id="edge2" class="edge"><title>ADAM12-&gt;ITGA5</title><path style="fill:none;stroke:#0000ff;" d="M122,37C126,38 130,39 135,41 204,60 285,73 329,80"/><polygon style="fill:#0000ff;stroke:#0000ff;" points="120,34 118,37 122,38 124,35 120,34"/><polygon style="fill:#0000ff;stroke:#0000ff;" points="334,82 334,79 330,78 330,82 334,82"/></g><g id="node18" class="node"><title>LPXN</title><a xlink:href="LPXN.html"><ellipse cx="34" cy="144" rx="27" ry="14" style="fill:turquoise;stroke:turquoise;"/><text text-anchor="middle" x="34" y="148" style="font-family:Times New Roman;"><![CDATA[LPXN]]></text></a></g><g id="edge18" class="edge"><title>ITGA5-&gt;LPXN</title><path style="fill:none;stroke:#0000ff;" d="M329,86C276,92 162,104 69,129 66,131 62,131 58,133"/><polygon style="fill:#0000ff;stroke:#0000ff;" points="334,88 334,84 329,84 329,88 334,88"/><polygon style="fill:#0000ff;stroke:#0000ff;" points="54,132 56,135 60,135 58,131 54,132"/></g><g id="node20" class="node"><title>PXN</title><a xlink:href="PXN.html"><ellipse cx="100" cy="144" rx="23" ry="14" style="fill:turquoise;stroke:turquoise;"/><text text-anchor="middle" x="100" y="148" style="font-family:Times New Roman;"><![CDATA[PXN]]></text></a></g><g id="edge20" class="edge"><title>ITGA5-&gt;PXN</title><path style="fill:none;stroke:#0000ff;" d="M329,89C285,95 200,107 131,129 128,131 125,131 121,133"/><polygon style="fill:#0000ff;stroke:#0000ff;" points="334,90 334,86 329,87 329,91 334,90"/><polygon style="fill:#0000ff;stroke:#0000ff;" points="117,132 119,135 123,135 121,131 117,132"/></g><g id="node22" class="node"><title>PKD1</title><a xlink:href="PKD1.html"><ellipse cx="164" cy="144" rx="25" ry="14" style="fill:turquoise;stroke:turquoise;"/><text text-anchor="middle" x="164" y="148" style="font-family:Times New Roman;"><![CDATA[PKD1]]></text></a></g><g id="edge22" class="edge"><title>ITGA5-&gt;PKD1</title><path style="fill:none;stroke:#0000ff;" d="M332,91C298,99 243,113 196,129 193,131 190,131 187,133"/><polygon style="fill:#0000ff;stroke:#0000ff;" points="336,92 336,89 332,90 332,93 336,92"/><polygon style="fill:#0000ff;stroke:#0000ff;" points="182,133 184,136 187,135 186,131 182,133"/></g><g id="node24" class="node"><title>PTPRA</title><a xlink:href="PTPRA.html"><ellipse cx="235" cy="144" rx="31" ry="14" style="fill:turquoise;stroke:turquoise;"/><text text-anchor="middle" x="235" y="148" style="font-family:Times New Roman;"><![CDATA[PTPRA]]></text></a></g><g id="edge24" class="edge"><title>ITGA5-&gt;PTPRA</title><path style="fill:none;stroke:#0000ff;" d="M337,96C314,106 282,122 260,131"/><polygon style="fill:#0000ff;stroke:#0000ff;" points="342,96 340,93 336,95 338,98 342,96"/><polygon style="fill:#0000ff;stroke:#0000ff;" points="256,131 258,135 261,133 259,130 256,131"/></g><g id="node26" class="node"><title>ARHGAP5</title><a xlink:href="ARHGAP5.html"><ellipse cx="322" cy="144" rx="41" ry="14" style="fill:turquoise;stroke:turquoise;"/><text text-anchor="middle" x="322" y="148" style="font-family:Times New Roman;"><![CDATA[ARHGAP5]]></text></a></g><g id="edge26" class="edge"><title>ITGA5-&gt;ARHGAP5</title><path style="fill:none;stroke:#0000ff;" d="M351,102C346,109 339,118 334,126"/><polygon style="fill:#0000ff;stroke:#0000ff;" points="354,100 351,98 349,101 352,103 354,100"/><polygon style="fill:#0000ff;stroke:#0000ff;" points="330,127 334,130 336,126 333,124 330,127"/></g><g id="node28" class="node"><title>TLN1</title><a xlink:href="TLN1.html"><ellipse cx="403" cy="144" rx="24" ry="14" style="fill:turquoise;stroke:turquoise;"/><text text-anchor="middle" x="403" y="148" style="font-family:Times New Roman;"><![CDATA[TLN1]]></text></a></g><g id="edge28" class="edge"><title>ITGA5-&gt;TLN1</title><path style="fill:none;stroke:#0000ff;" d="M374,102C379,109 386,118 391,126"/><polygon style="fill:#0000ff;stroke:#0000ff;" points="374,97 370,100 373,103 376,100 374,97"/><polygon style="fill:#0000ff;stroke:#0000ff;" points="391,131 395,128 392,125 389,127 391,131"/></g><g id="node30" class="node"><title>PTPN2</title><a xlink:href="PTPN2.html"><ellipse cx="471" cy="144" rx="29" ry="14" style="fill:turquoise;stroke:turquoise;"/><text text-anchor="middle" x="471" y="148" style="font-family:Times New Roman;"><![CDATA[PTPN2]]></text></a></g><g id="edge30" class="edge"><title>ITGA5-&gt;PTPN2</title><path style="fill:none;stroke:#0000ff;" d="M386,98C405,108 430,122 448,131"/><polygon style="fill:#0000ff;stroke:#0000ff;" points="382,94 381,97 384,100 386,96 382,94"/><polygon style="fill:#0000ff;stroke:#0000ff;" points="450,135 452,131 449,130 447,133 450,135"/></g><g id="node32" class="node"><title>TSPAN1</title><a xlink:href="TSPAN1.html"><ellipse cx="548" cy="144" rx="32" ry="14" style="fill:turquoise;stroke:turquoise;"/><text text-anchor="middle" x="548" y="148" style="font-family:Times New Roman;"><![CDATA[TSPAN1]]></text></a></g><g id="edge32" class="edge"><title>ITGA5-&gt;TSPAN1</title><path style="fill:none;stroke:#0000ff;" d="M391,93C421,102 467,116 508,129 512,131 516,131 520,133"/><polygon style="fill:#0000ff;stroke:#0000ff;" points="387,91 387,94 391,95 391,91 387,91"/><polygon style="fill:#0000ff;stroke:#0000ff;" points="522,136 524,133 520,131 519,135 522,136"/></g><g id="node34" class="node"><title>THY1</title><a xlink:href="THY1.html"><ellipse cx="621" cy="144" rx="25" ry="14" style="fill:turquoise;stroke:turquoise;"/><text text-anchor="middle" x="621" y="148" style="font-family:Times New Roman;"><![CDATA[THY1]]></text></a></g><g id="edge34" class="edge"><title>ITGA5-&gt;THY1</title><path style="fill:none;stroke:#0000ff;" d="M394,89C438,95 520,109 588,129 591,131 595,131 598,133"/><polygon style="fill:#0000ff;stroke:#0000ff;" points="390,86 390,90 394,91 394,87 390,86"/><polygon style="fill:#0000ff;stroke:#0000ff;" points="600,135 602,132 598,131 596,135 600,135"/></g><g id="node36" class="node"><title>PLAUR</title><a xlink:href="PLAUR.html"><ellipse cx="694" cy="144" rx="32" ry="14" style="fill:limegreen;stroke:limegreen;"/><text text-anchor="middle" x="694" y="148" style="font-family:Times New Roman;"><![CDATA[PLAUR]]></text></a></g><g id="edge36" class="edge"><title>ITGA5-&gt;PLAUR</title><path style="fill:none;stroke:#0000ff;" d="M395,87C448,93 560,106 654,129 658,131 662,131 666,133"/><polygon style="fill:#0000ff;stroke:#0000ff;" points="391,85 391,89 395,89 395,85 391,85"/><polygon style="fill:#0000ff;stroke:#0000ff;" points="668,135 670,132 666,131 664,135 668,135"/></g><g id="node4" class="node"><title>CALR</title><a xlink:href="CALR.html"><ellipse cx="170" cy="26" rx="27" ry="14" style="fill:turquoise;stroke:turquoise;"/><text text-anchor="middle" x="170" y="30" style="font-family:Times New Roman;"><![CDATA[CALR]]></text></a></g><g id="edge4" class="edge"><title>CALR-&gt;ITGA5</title><path style="fill:none;stroke:#0000ff;" d="M195,37C198,38 202,39 205,41 249,56 301,70 332,77"/><polygon style="fill:#0000ff;stroke:#0000ff;" points="192,34 191,37 195,38 196,35 192,34"/><polygon style="fill:#0000ff;stroke:#0000ff;" points="336,80 336,77 332,76 332,79 336,80"/></g><g id="node6" class="node"><title>CBL</title><a xlink:href="CBL.html"><ellipse cx="235" cy="26" rx="22" ry="14" style="fill:turquoise;stroke:turquoise;"/><text text-anchor="middle" x="235" y="30" style="font-family:Times New Roman;"><![CDATA[CBL]]></text></a></g><g id="edge6" class="edge"><title>CBL-&gt;ITGA5</title><path style="fill:none;stroke:#ff0000;" d="M252,35C256,37 260,39 264,41 286,52 311,63 330,71"/><polyline style="fill:none;stroke:#ff0000;" points="326,76 331,64 "/></g><g id="node8" class="node"><title>PTK2</title><a xlink:href="PTK2.html"><ellipse cx="297" cy="26" rx="25" ry="14" style="fill:turquoise;stroke:turquoise;"/><text text-anchor="middle" x="297" y="30" style="font-family:Times New Roman;"><![CDATA[PTK2]]></text></a></g><g id="edge8" class="edge"><title>PTK2-&gt;ITGA5</title><path style="fill:none;stroke:#0000ff;" d="M313,41C323,49 335,60 345,69"/><polygon style="fill:#0000ff;stroke:#0000ff;" points="312,37 309,40 312,43 316,40 312,37"/><polygon style="fill:#0000ff;stroke:#0000ff;" points="347,73 350,70 347,68 344,71 347,73"/></g><g id="node10" class="node"><title>FHL2</title><a xlink:href="FHL2.html"><ellipse cx="362" cy="26" rx="25" ry="14" style="fill:turquoise;stroke:turquoise;"/><text text-anchor="middle" x="362" y="30" style="font-family:Times New Roman;"><![CDATA[FHL2]]></text></a></g><g id="edge10" class="edge"><title>FHL2-&gt;ITGA5</title><path style="fill:none;stroke:#0000ff;" d="M362,45C362,51 362,60 362,66"/><polygon style="fill:#0000ff;stroke:#0000ff;" points="365,41 360,41 360,45 365,45 365,41"/><polygon style="fill:#0000ff;stroke:#0000ff;" points="360,70 365,70 365,66 360,66 360,70"/></g><g id="node12" class="node"><title>GRB2</title><a xlink:href="GRB2.html"><ellipse cx="429" cy="26" rx="26" ry="14" style="fill:turquoise;stroke:turquoise;"/><text text-anchor="middle" x="429" y="30" style="font-family:Times New Roman;"><![CDATA[GRB2]]></text></a></g><g id="edge12" class="edge"><title>GRB2-&gt;ITGA5</title><path style="fill:none;stroke:#0000ff;" d="M412,42C401,51 390,60 380,69"/><polygon style="fill:#0000ff;stroke:#0000ff;" points="416,41 413,37 409,41 413,44 416,41"/><polygon style="fill:#0000ff;stroke:#0000ff;" points="376,70 378,73 382,71 379,68 376,70"/></g><g id="node14" class="node"><title>TGFB1I1</title><a xlink:href="TGFB1I1.html"><ellipse cx="503" cy="26" rx="32" ry="14" style="fill:turquoise;stroke:turquoise;"/><text text-anchor="middle" x="503" y="30" style="font-family:Times New Roman;"><![CDATA[TGFB1I1]]></text></a></g><g id="edge14" class="edge"><title>TGFB1I1-&gt;ITGA5</title><path style="fill:none;stroke:#0000ff;" d="M476,37C451,48 414,64 388,74"/><polygon style="fill:#0000ff;stroke:#0000ff;" points="480,37 478,34 475,36 476,39 480,37"/><polygon style="fill:#0000ff;stroke:#0000ff;" points="383,74 385,77 389,76 387,73 383,74"/></g><g id="node16" class="node"><title>CD47</title><a xlink:href="CD47.html"><ellipse cx="575" cy="26" rx="24" ry="14" style="fill:limegreen;stroke:limegreen;"/><text text-anchor="middle" x="575" y="30" style="font-family:Times New Roman;"><![CDATA[CD47]]></text></a></g><g id="edge16" class="edge"><title>CD47-&gt;ITGA5</title><path style="fill:none;stroke:#0000ff;" d="M553,37C550,38 547,39 543,41 493,59 430,73 393,79"/><polygon style="fill:#0000ff;stroke:#0000ff;" points="557,37 556,34 551,35 553,38 557,37"/><polygon style="fill:#0000ff;stroke:#0000ff;" points="389,78 389,82 393,81 393,77 389,78"/></g><g id="node38" class="node"><title>PRKACA</title><a xlink:href="PRKACA.html"><ellipse cx="653" cy="26" rx="38" ry="14" style="fill:turquoise;stroke:turquoise;"/><text text-anchor="middle" x="653" y="30" style="font-family:Times New Roman;"><![CDATA[PRKACA]]></text></a></g><g id="edge38" class="edge"><title>PRKACA-&gt;ITGA5</title><path style="fill:none;stroke:darkgreen;" d="M624,36C618,37 613,39 607,41 533,60 445,73 397,80"/><polygon style="fill:darkgreen;stroke:darkgreen;" points="398,82 390,81 398,77 398,82"/></g></g></g></g>
<!-- navigation controls -->
<g id="navbox">
	<rect x="0" y="0" width="742" height="60"
		 style="fill:rgb(206,207,206);stroke:rgb(0,0,0);stroke-width:1"/>

	<polygon id="pan_right"
        onmouseup="panRight()"
        onmouseover="doHighlight(evt, 'Click to pan to the right')"
        onmouseout="resetHighlight(evt)"
		points="28.0732,13 32,20.5 28.0732,28 28.0732,23.4412 25,23.4412 25,17.4118 28.0732,17.4118"
		 transform="matrix(3.39111 0 0 2.98838 -12.6265 -29.7101)"
         fill="rgb(99,154,206)"
		 style="stroke:rgb(0,0,0);stroke-width:0.5"/>
	<polygon id="pan_left"
        onmouseup="panLeft()"
        onmouseover="doHighlight(evt, 'Click to pan to the left')"
        onmouseout="resetHighlight(evt)"
		points="123.991,25 120.064,32.5 123.991,40 123.991,35.4412 127.064,35.4412 127.064,29.4118
			123.991,29.4118" transform="matrix(3.39111 0 0 2.98838 -404.865 -65.5706)"
         fill="rgb(99,154,206)"
		 style="stroke:rgb(0,0,0);stroke-width:0.5"/>
	<polygon id="pan_down"
        onmouseup="panDown()"
        onmouseover="doHighlight(evt, 'Click to pan down')"
        onmouseout="resetHighlight(evt)"
		points="116.032,32.0408 123.532,35.9678 131.032,32.0408 126.473,32.0408 126.473,28.9678 120.444,28.9678
			120.444,32.0408" transform="matrix(3.39111 0 0 2.98838 -369.822 -50.6287)"
         fill="rgb(99,154,206)"
		 style="stroke:rgb(0,0,0);stroke-width:0.5"/>
	<polygon id="pan_up"
        onmouseup="panUp()"
  onmouseover="doHighlight(evt, 'Click to pan up')"
        onmouseout="resetHighlight(evt)"
		points="116.032,32.0408 123.532,35.9678 131.032,32.0408 126.473,32.0408 126.473,28.9678 120.444,28.9678
			120.444,32.0408" transform="matrix(3.39111 0 0 -2.98838 -369.823 111.74)"
         fill="rgb(99,154,206)"
		 style="stroke:rgb(0,0,0);stroke-width:0.5"/>
	<g id="go_home" 
         onmouseup="panRestore()" 
         onmouseover="doHighlight(evt, 'Click to restore graph to original position')"
         onmouseout="resetHighlight(evt)"
         fill="rgb(99,154,206)"
         transform="matrix(1 0 0 1 0 -0.333333)">
		<rect x="196" y="11" width="26" height="26"
			transform="translate(-19.1111 -2.66667)"
			 style="stroke:rgb(0,0,0);stroke-width:1"/>
		<line x1="182" y1="16" x2="182" y2="28"
			transform="matrix(1 0 0 1 2.22222 0.444444)"
			 style="fill:none;stroke:rgb(0,0,0);stroke-width:2"/>
		<line x1="187" y1="22" x2="187" y2="28"
			transform="matrix(1 0 0 1 2.22222 0.444444)"
			 style="fill:none;stroke:rgb(0,0,0);stroke-width:2"/>
	<line x1="192" y1="13" x2="192" y2="28"
			transform="matrix(1 0 0 1 2.22222 0.444444)"
			 style="fill:none;stroke:rgb(0,0,0);stroke-width:2"/>
		<line x1="182" y1="28" x2="192" y2="28"
			transform="matrix(1 0 0 1 2.22222 0.444444)"
	style="fill:none;stroke:rgb(0,0,0);stroke-width:2"/>
		<line x1="189" y1="12" x2="179" y2="21"
			 style="fill:none;stroke:rgb(0,0,0);stroke-width:2"/>
		<line x1="188" y1="12" x2="199" y2="20"
			 style="fill:none;stroke:rgb(0,0,0);stroke-width:2"/>
	</g>
	<g id="zoom_out" onmouseup="zoomOut()" 
             onmouseover="doHighlight(evt, 'Click to zoom out')"
             onmouseout="resetHighlight(evt)"
             fill="rgb(99,154,206)"
             transform="matrix(1 0 0 1 0 0)">
		<rect x="116" y="8" width="26" height="26"
			 style="stroke:rgb(0,0,0);stroke-width:1"/>
		<ellipse cx="126" cy="18" rx="6" ry="6"
			 style="stroke:rgb(0,0,0);stroke-width:1"/>
		<line x1="130" y1="23" x2="137" y2="29"
			transform="matrix(1 0 0 1 0.888889 -0.888889)"
			 style="fill:none;stroke:rgb(0,0,0);stroke-width:2"/>
		<line x1="123" y1="18" x2="129" y2="18"
			 style="fill:none;stroke:rgb(0,0,0);stroke-width:2"/>
	</g>
	<g id="zoom_in" onmouseup="zoomIn()" 
             onmouseover="doHighlight(evt, 'Click to zoom in')"
             onmouseout="resetHighlight(evt)"
             fill="rgb(99,154,206)"
             transform="matrix(1 0 0 1 0.888889 -0.444444)">
		<rect x="116" y="8" width="26" height="26"
			transform="matrix(1 0 0 1 29.7778 0.444444)"
			 style="stroke:rgb(0,0,0);stroke-width:1"/>
		<ellipse cx="126" cy="18" rx="6" ry="6"
			transform="matrix(1 0 0 1 29.7778 0.444444)"
			 style="stroke:rgb(0,0,0);stroke-width:1"/>
		<line x1="130" y1="23" x2="137" y2="29"
			transform="matrix(1 0 0 1 30.6667 -0.444445)"
		style="fill:none;stroke:rgb(0,0,0);stroke-width:2"/>
		<line x1="123" y1="18" x2="129" y2="18"
			transform="matrix(1 0 0 1 29.7778 0.444444)"
			 style="fill:none;stroke:rgb(0,0,0);stroke-width:2"/>
		<line x1="156" y1="15" x2="156" y2="22"
			 style="fill:none;stroke:rgb(0,0,0);stroke-width:2"/>
	</g>
	<g>
		<rect x="117" y="40" width="452" height="14"
			transform="matrix(1.54201 0 0 1 -64.1436 -0.222222)"
			 style="fill:rgb(192,192,192);stroke:rgb(0,0,0);stroke-width:1"/>
		<text id="status_text" x="183px" y="48px"
			transform="matrix(1 0 0 1 -63.5556 3.00778)"
			 style="fill:rgb(0,0,0);font-size:14;font-family:Arial"> </text>
	</g>
</g>	
</svg>