<?xml version="1.0" encoding="UTF-8" standalone="no"?><!DOCTYPE svg PUBLIC "-//W3C//DTD SVG 1.0//EN" "http://www.w3.org/TR/2001/REC-SVG-20010904/DTD/svg10.dtd" [ <!ATTLIST svg xmlns:xlink CDATA #FIXED "http://www.w3.org/1999/xlink">]><!-- Generated by WinGraphviz version ver1.02.23, 08/01/2003 (08/04/2003)     For user: Avi Ma'ayan   Title: G    Pages: 1 --><!--="735px" height="111px" xmlns="http://www.w3.org/2000/svg" --><svg onload="init(evt)" width="735px" height="600px" xmlns="http://www.w3.org/2000/svg" xmlns:xlink="http://www.w3.org/1999/xlink">
<script type="text/ecmascript">
<![CDATA[
var svgDocument;
var zoomAmt;
var xOffset;
var yOffset;
var scale;
var maxScale;
var imageWidth;
var imageHeight;
function init(evt)
{
    svgDocument = evt.getTarget().getOwnerDocument();
    zoomAmt = 0;
    xOffset = 0;
    yOffset = 60;
    scale = 0.8;
    maxScale = 10;
    imageWidth = 742;
    imageHeight = 606;
    panRestore();
    //panUp();
}
function transformMap ()
{
    var obj = svgDocument.getElementById("Pathway");
    var centerX = imageWidth  / 2.0;
    var centerY = imageHeight / 2.0;
    var adjustX = (-centerX * (scale - 0.8)) + xOffset;
    var adjustY = (-centerY * (scale - 0.8)) + yOffset;
    var transParms = 'translate(' + adjustX + ',' + adjustY + ') ';
    transParms += 'scale(' + scale + ')';
    // alert(transParms);
    obj.setAttribute("transform", transParms); 
}
function click_node(id)
{
    var testx = parent.click_node;
    if (typeof(testx) == "function")
    {
		parent.click_node(id);
    }
}
function click_relation(id)
{
    var testx = parent.click_relation;
    if (typeof(testx) == "function")
    {
        parent.click_relation(id);
    }
}
function click_pathway(toId, fromId)
{
    var testx = parent.click_pathway;
    if (typeof(testx) == "function")
    {
	parent.click_pathway(toId, fromId);
    }
}
function check_interpath(evt, pathid)
{
  var obj = evt.getTarget();
  var testx = parent.is_frompath;
  var child = obj.firstChild;
  if (typeof(testx) == "function")
  {
    if (parent.is_frompath(pathid))
    {
      while (child != null)
      {
        if (child.nodeType == 1)
        {
          if ((child.localName == "g") || (child.localName == "polyline"))
          {
            child.setAttribute("style", "fill:none;stroke:red");
          }
          else if (child.localName == "polygon")
          {
            child.setAttribute("style", "fill:red;stroke:red");
          }
        }
        child = child.nextSibling;
      }
    }
  }
}
function set_status (msg)
{
 var obj = svgDocument.getElementById("status_text");
  var child;
 
  child = obj.firstChild;
  if ((child != null) && (child.nodeType == 3))
  {
    if ((msg != null) && (msg.length > 0))
    {
      child.data = msg;
    }
    else
    {
child.data = " ";
    }
  }
}
function zoomIn ()
{
    scale = scale + 0.8;
    if (scale > maxScale)
    {
       scale = maxScale;
    }
    transformMap();
    panUp();
    panUp();
    panUp();
    panUp();
    panUp();
    panUp();
    panUp();
    panUp();
    panUp();
    panUp();
    panUp();
    panUp();
}
function zoomOut ()
{
    scale = scale - 0.8;
    if (scale < 0.8)
    {
       scale = 0.8;
    }
    transformMap();
    panDown();
    panDown();
    panDown();
    panDown();
    panDown();
    panDown();
    panDown();
    panDown();
    panDown();
    panDown();
    panDown();
    panDown();
}
function panUp ()
{
    yOffset = yOffset + 20;
    transformMap();
}
function panDown ()
{
    yOffset = yOffset - 20;
    transformMap();
}
function panLeft ()
{
    xOffset = xOffset + 20;
    transformMap();
}
function panRight ()
{
    xOffset = xOffset - 20;
    transformMap();
}
function panRestore ()
{
    xOffset = 0;
    yOffset = 0;
    scale = 0.5;
    //obj = svgDocument.getElementById("zoom");
    //obj.setAttribute("x1", 0);
    //obj.setAttribute("x2", 0);
    transformMap();    
}
function doHighlight (evt, msg)
{
  var obj = evt.getTarget();
  obj.setAttribute("fill", "rgb(239,24,33)");
  set_status(msg);
}
function resetHighlight (evt)
{
  var obj = evt.getTarget();
  obj.setAttribute("fill", "rgb(99,154,206)");
  set_status(" ");
}
// ]]>
</script>
<defs>
<clipPath id="theClip">
<polygon points="1 61, 741 61, 741 665, 1 665"
style="fill: none;"/>
</clipPath>
</defs>
<!-- viewport outline -->
<rect x="0" y="61" width="742" height="606"
style="stroke: black; stroke-width: 1; fill: none;"/>
<!-- pathway graph style="clip-path: url(#theClip);" -->
<g style="clip-path: url(#theClip);">
<g id="Pathway"  transform="translate(0,60)">
<!-- prefile.include ends, begin pathway graph -->
<g id="stkecm;CMP_10705" class="graph">
</g>
<g id="graph0" class="graph" style="font-family:Times New Roman;font-size:6.88;"><title>G</title><g id="node1" class="node"><title>ADAM12</title><a xlink:href="ADAM12.html"><ellipse cx="28" cy="17" rx="21" ry="8" style="fill:turquoise;stroke:turquoise;"/><text text-anchor="middle" x="28" y="20" style="font-family:Times New Roman;"><![CDATA[ADAM12]]></text></a></g><g id="node2" class="node"><title>ITGB1</title><a xlink:href="ITGB1.html"><ellipse cx="382" cy="53" rx="16" ry="8" style="fill:turquoise;stroke:turquoise;"/><text text-anchor="middle" x="382" y="55" style="font-family:Times New Roman;"><![CDATA[ITGB1]]></text></a></g><g id="edge2" class="edge"><title>ADAM12-&gt;ITGB1</title><path style="fill:none;stroke:#0000ff;" d="M45,24C48,25 51,26 54,26 114,39 303,49 364,52"/><polygon style="fill:#0000ff;stroke:#0000ff;" points="44,22 43,24 45,25 46,23 44,22"/><polygon style="fill:#0000ff;stroke:#0000ff;" points="366,53 366,50 364,50 364,53 366,53"/></g><g id="node30" class="node"><title>C20orf42</title><a xlink:href="C20orf42.html"><ellipse cx="50" cy="88" rx="21" ry="8" style="fill:turquoise;stroke:turquoise;"/><text text-anchor="middle" x="50" y="91" style="font-family:Times New Roman;"><![CDATA[C20orf42]]></text></a></g><g id="edge30" class="edge"><title>ITGB1-&gt;C20orf42</title><path style="fill:none;stroke:#0000ff;" d="M364,54C306,57 131,67 75,79 73,80 70,81 68,82"/><polygon style="fill:#0000ff;stroke:#0000ff;" points="366,55 366,52 364,52 364,55 366,55"/><polygon style="fill:#0000ff;stroke:#0000ff;" points="65,81 66,83 69,83 68,81 65,81"/></g><g id="node32" class="node"><title>LPXN</title><a xlink:href="LPXN.html"><ellipse cx="97" cy="88" rx="16" ry="8" style="fill:turquoise;stroke:turquoise;"/><text text-anchor="middle" x="97" y="91" style="font-family:Times New Roman;"><![CDATA[LPXN]]></text></a></g><g id="edge32" class="edge"><title>ITGB1-&gt;LPXN</title><path style="fill:none;stroke:#0000ff;" d="M364,54C312,58 165,67 118,79 115,80 113,81 111,82"/><polygon style="fill:#0000ff;stroke:#0000ff;" points="366,55 366,52 364,52 364,55 366,55"/><polygon style="fill:#0000ff;stroke:#0000ff;" points="109,81 110,83 112,83 111,81 109,81"/></g><g id="node34" class="node"><title>PXN</title><a xlink:href="PXN.html"><ellipse cx="136" cy="88" rx="14" ry="8" style="fill:turquoise;stroke:turquoise;"/><text text-anchor="middle" x="136" y="91" style="font-family:Times New Roman;"><![CDATA[PXN]]></text></a></g><g id="edge34" class="edge"><title>ITGB1-&gt;PXN</title><path style="fill:none;stroke:#0000ff;" d="M364,54C317,58 195,68 155,79 153,80 151,81 149,82"/><polygon style="fill:#0000ff;stroke:#0000ff;" points="366,55 366,52 364,52 364,55 366,55"/><polygon style="fill:#0000ff;stroke:#0000ff;" points="147,81 148,83 150,83 149,81 147,81"/></g><g id="node36" class="node"><title>PKD1</title><a xlink:href="PKD1.html"><ellipse cx="175" cy="88" rx="15" ry="8" style="fill:turquoise;stroke:turquoise;"/><text text-anchor="middle" x="175" y="91" style="font-family:Times New Roman;"><![CDATA[PKD1]]></text></a></g><g id="edge36" class="edge"><title>ITGB1-&gt;PKD1</title><path style="fill:none;stroke:#0000ff;" d="M364,54C330,56 255,62 194,79 192,80 190,81 188,82"/><polygon style="fill:#0000ff;stroke:#0000ff;" points="366,55 366,52 364,52 364,55 366,55"/><polygon style="fill:#0000ff;stroke:#0000ff;" points="186,81 187,83 189,83 188,81 186,81"/></g><g id="node38" class="node"><title>PLEC1</title><a xlink:href="PLEC1.html"><ellipse cx="215" cy="88" rx="16" ry="8" style="fill:turquoise;stroke:turquoise;"/><text text-anchor="middle" x="215" y="91" style="font-family:Times New Roman;"><![CDATA[PLEC1]]></text></a></g><g id="edge38" class="edge"><title>ITGB1-&gt;PLEC1</title><path style="fill:none;stroke:#0000ff;" d="M364,55C336,58 281,66 237,79 235,80 232,81 230,82"/><polygon style="fill:#0000ff;stroke:#0000ff;" points="366,56 366,54 364,54 364,56 366,56"/><polygon style="fill:#0000ff;stroke:#0000ff;" points="228,81 229,83 231,83 230,81 228,81"/></g><g id="node40" class="node"><title>PPP2CA</title><a xlink:href="PPP2CA.html"><ellipse cx="261" cy="88" rx="20" ry="8" style="fill:turquoise;stroke:turquoise;"/><text text-anchor="middle" x="261" y="91" style="font-family:Times New Roman;"><![CDATA[PPP2CA]]></text></a></g><g id="edge40" class="edge"><title>ITGB1-&gt;PPP2CA</title><path style="fill:none;stroke:#0000ff;" d="M365,57C346,62 314,71 286,79 283,80 281,81 279,82"/><polygon style="fill:#0000ff;stroke:#0000ff;" points="368,58 368,56 365,56 365,58 368,58"/><polygon style="fill:#0000ff;stroke:#0000ff;" points="276,82 277,84 279,83 278,81 276,82"/></g><g id="node42" class="node"><title>PTK2B</title><a xlink:href="PTK2B.html"><ellipse cx="308" cy="88" rx="18" ry="8" style="fill:turquoise;stroke:turquoise;"/><text text-anchor="middle" x="308" y="91" style="font-family:Times New Roman;"><![CDATA[PTK2B]]></text></a></g><g id="edge42" class="edge"><title>ITGB1-&gt;PTK2B</title><path style="fill:none;stroke:#0000ff;" d="M368,60C354,65 336,75 323,81"/><polygon style="fill:#0000ff;stroke:#0000ff;" points="371,60 370,58 367,59 368,61 371,60"/><polygon style="fill:#0000ff;stroke:#0000ff;" points="320,81 321,83 323,82 322,80 320,81"/></g><g id="node44" class="node"><title>GNB2L1</title><a xlink:href="GNB2L1.html"><ellipse cx="355" cy="88" rx="20" ry="8" style="fill:turquoise;stroke:turquoise;"/><text text-anchor="middle" x="355" y="91" style="font-family:Times New Roman;"><![CDATA[GNB2L1]]></text></a></g><g id="edge44" class="edge"><title>ITGB1-&gt;GNB2L1</title><path style="fill:none;stroke:#0000ff;" d="M375,63C371,67 367,73 363,78"/><polygon style="fill:#0000ff;stroke:#0000ff;" points="377,62 375,60 374,62 375,64 377,62"/><polygon style="fill:#0000ff;stroke:#0000ff;" points="361,79 363,80 364,78 362,77 361,79"/></g><g id="node46" class="node"><title>ARHGAP5</title><a xlink:href="ARHGAP5.html"><ellipse cx="409" cy="88" rx="25" ry="8" style="fill:turquoise;stroke:turquoise;"/><text text-anchor="middle" x="409" y="91" style="font-family:Times New Roman;"><![CDATA[ARHGAP5]]></text></a></g><g id="edge46" class="edge"><title>ITGB1-&gt;ARHGAP5</title><path style="fill:none;stroke:#0000ff;" d="M390,63C394,67 398,73 402,77"/><polygon style="fill:#0000ff;stroke:#0000ff;" points="390,60 388,62 389,64 391,62 390,60"/><polygon style="fill:#0000ff;stroke:#0000ff;" points="402,80 404,78 403,76 401,78 402,80"/></g><g id="node48" class="node"><title>SHC1</title><a xlink:href="SHC1.html"><ellipse cx="458" cy="88" rx="14" ry="8" style="fill:turquoise;stroke:turquoise;"/><text text-anchor="middle" x="458" y="91" style="font-family:Times New Roman;"><![CDATA[SHC1]]></text></a></g><g id="edge48" class="edge"><title>ITGB1-&gt;SHC1</title><path style="fill:none;stroke:#0000ff;" d="M397,60C408,65 425,73 439,79 441,80 443,81 444,82"/><polygon style="fill:#0000ff;stroke:#0000ff;" points="395,58 394,60 397,61 398,59 395,58"/><polygon style="fill:#0000ff;stroke:#0000ff;" points="446,84 447,82 445,81 444,83 446,84"/></g><g id="node50" class="node"><title>SYK</title><a xlink:href="SYK.html"><ellipse cx="494" cy="88" rx="13" ry="8" style="fill:turquoise;stroke:turquoise;"/><text text-anchor="middle" x="494" y="91" style="font-family:Times New Roman;"><![CDATA[SYK]]></text></a></g><g id="edge50" class="edge"><title>ITGB1-&gt;SYK</title><path style="fill:none;stroke:#0000ff;" d="M400,57C419,61 450,69 476,79 478,80 480,81 482,82"/><polygon style="fill:#0000ff;stroke:#0000ff;" points="398,55 398,57 400,58 400,56 398,55"/><polygon style="fill:#0000ff;stroke:#0000ff;" points="483,84 484,82 482,81 481,83 483,84"/></g><g id="node52" class="node"><title>TLN1</title><a xlink:href="TLN1.html"><ellipse cx="532" cy="88" rx="14" ry="8" style="fill:turquoise;stroke:turquoise;"/><text text-anchor="middle" x="532" y="91" style="font-family:Times New Roman;"><![CDATA[TLN1]]></text></a></g><g id="edge52" class="edge"><title>ITGB1-&gt;TLN1</title><path style="fill:none;stroke:#0000ff;" d="M401,55C426,59 474,67 513,79 514,80 516,81 518,82"/><polygon style="fill:#0000ff;stroke:#0000ff;" points="398,54 398,56 401,56 401,54 398,54"/><polygon style="fill:#0000ff;stroke:#0000ff;" points="520,83 521,81 518,81 517,83 520,83"/></g><g id="node54" class="node"><title>TNS1</title><a xlink:href="TNS1.html"><ellipse cx="569" cy="88" rx="14" ry="8" style="fill:turquoise;stroke:turquoise;"/><text text-anchor="middle" x="569" y="91" style="font-family:Times New Roman;"><![CDATA[TNS1]]></text></a></g><g id="edge54" class="edge"><title>ITGB1-&gt;TNS1</title><path style="fill:none;stroke:#0000ff;" d="M401,54C432,57 498,63 551,79 553,80 555,81 557,82"/><polygon style="fill:#0000ff;stroke:#0000ff;" points="399,52 399,55 401,55 401,52 399,52"/><polygon style="fill:#0000ff;stroke:#0000ff;" points="558,83 559,81 557,81 556,83 558,83"/></g><g id="node56" class="node"><title>TSPAN1</title><a xlink:href="TSPAN1.html"><ellipse cx="612" cy="88" rx="19" ry="8" style="fill:turquoise;stroke:turquoise;"/><text text-anchor="middle" x="612" y="91" style="font-family:Times New Roman;"><![CDATA[TSPAN1]]></text></a></g><g id="edge56" class="edge"><title>ITGB1-&gt;TSPAN1</title><path style="fill:none;stroke:#0000ff;" d="M401,54C437,56 520,63 588,79 591,80 593,81 596,82"/><polygon style="fill:#0000ff;stroke:#0000ff;" points="399,52 399,55 401,55 401,52 399,52"/><polygon style="fill:#0000ff;stroke:#0000ff;" points="597,83 598,81 596,81 595,83 597,83"/></g><g id="node58" class="node"><title>THY1</title><a xlink:href="THY1.html"><ellipse cx="656" cy="88" rx="15" ry="8" style="fill:turquoise;stroke:turquoise;"/><text text-anchor="middle" x="656" y="91" style="font-family:Times New Roman;"><![CDATA[THY1]]></text></a></g><g id="edge58" class="edge"><title>ITGB1-&gt;THY1</title><path style="fill:none;stroke:#0000ff;" d="M401,54C452,58 591,67 636,79 638,80 640,81 642,82"/><polygon style="fill:#0000ff;stroke:#0000ff;" points="399,52 399,55 401,55 401,52 399,52"/><polygon style="fill:#0000ff;stroke:#0000ff;" points="644,83 645,81 642,81 641,83 644,83"/></g><g id="node60" class="node"><title>PLAUR</title><a xlink:href="PLAUR.html"><ellipse cx="700" cy="88" rx="19" ry="8" style="fill:limegreen;stroke:limegreen;"/><text text-anchor="middle" x="700" y="91" style="font-family:Times New Roman;"><![CDATA[PLAUR]]></text></a></g><g id="edge60" class="edge"><title>ITGB1-&gt;PLAUR</title><path style="fill:none;stroke:#0000ff;" d="M401,54C457,57 623,67 676,79 678,80 680,81 683,82"/><polygon style="fill:#0000ff;stroke:#0000ff;" points="399,52 399,55 401,55 401,52 399,52"/><polygon style="fill:#0000ff;stroke:#0000ff;" points="684,83 685,81 683,81 682,83 684,83"/></g><g id="node4" class="node"><title>AKT1</title><a xlink:href="AKT1.html"><ellipse cx="73" cy="17" rx="15" ry="8" style="fill:turquoise;stroke:turquoise;"/><text text-anchor="middle" x="73" y="20" style="font-family:Times New Roman;"><![CDATA[AKT1]]></text></a></g><g id="edge4" class="edge"><title>AKT1-&gt;ITGB1</title><path style="fill:none;stroke:darkgreen;" d="M85,23C88,25 91,26 93,26 144,39 303,49 361,51"/><polygon style="fill:darkgreen;stroke:darkgreen;" points="361,50 366,52 361,53 361,50"/></g><g id="node6" class="node"><title>ACTN1</title><a xlink:href="ACTN1.html"><ellipse cx="116" cy="17" rx="18" ry="8" style="fill:turquoise;stroke:turquoise;"/><text text-anchor="middle" x="116" y="20" style="font-family:Times New Roman;"><![CDATA[ACTN1]]></text></a></g><g id="edge6" class="edge"><title>ACTN1-&gt;ITGB1</title><path style="fill:none;stroke:#0000ff;" d="M131,24C133,25 136,26 138,26 220,46 321,51 363,52"/><polygon style="fill:#0000ff;stroke:#0000ff;" points="129,22 128,24 131,25 132,23 129,22"/><polygon style="fill:#0000ff;stroke:#0000ff;" points="366,53 366,51 364,51 364,53 366,53"/></g><g id="node8" class="node"><title>ITGB3BP</title><a xlink:href="ITGB3BP.html"><ellipse cx="164" cy="17" rx="21" ry="8" style="fill:#eea9b9;stroke:#eea9b9;"/><text text-anchor="middle" x="164" y="20" style="font-family:Times New Roman;"><![CDATA[ITGB3BP]]></text></a></g><g id="edge8" class="edge"><title>ITGB3BP-&gt;ITGB1</title><path style="fill:none;stroke:#0000ff;" d="M182,24C185,25 187,26 190,26 253,41 329,48 363,51"/><polygon style="fill:#0000ff;stroke:#0000ff;" points="181,22 180,24 182,25 182,23 181,22"/><polygon style="fill:#0000ff;stroke:#0000ff;" points="366,53 366,51 364,50 364,52 366,53"/></g><g id="node10" class="node"><title>CAPN1</title><a xlink:href="CAPN1.html"><ellipse cx="213" cy="17" rx="18" ry="8" style="fill:turquoise;stroke:turquoise;"/><text text-anchor="middle" x="213" y="20" style="font-family:Times New Roman;"><![CDATA[CAPN1]]></text></a></g><g id="edge10" class="edge"><title>CAPN1-&gt;ITGB1</title><path style="fill:none;stroke:#ff0000;" d="M226,23C230,24 233,26 236,26 278,38 330,46 359,50"/><polyline style="fill:none;stroke:#ff0000;" points="359,53 360,46 "/></g><g id="node12" class="node"><title>MAPK1</title><a xlink:href="MAPK1.html"><ellipse cx="259" cy="17" rx="19" ry="8" style="fill:turquoise;stroke:turquoise;"/><text text-anchor="middle" x="259" y="20" style="font-family:Times New Roman;"><![CDATA[MAPK1]]></text></a></g><g id="edge12" class="edge"><title>MAPK1-&gt;ITGB1</title><path style="fill:none;stroke:#0000ff;" d="M276,24C278,25 280,25 283,26 311,36 345,44 365,49"/><polygon style="fill:#0000ff;stroke:#0000ff;" points="274,22 273,24 276,25 277,23 274,22"/><polygon style="fill:#0000ff;stroke:#0000ff;" points="367,50 367,48 365,48 365,50 367,50"/></g><g id="node14" class="node"><title>PTK2</title><a xlink:href="PTK2.html"><ellipse cx="302" cy="17" rx="15" ry="8" style="fill:turquoise;stroke:turquoise;"/><text text-anchor="middle" x="302" y="20" style="font-family:Times New Roman;"><![CDATA[PTK2]]></text></a></g><g id="edge14" class="edge"><title>PTK2-&gt;ITGB1</title><path style="fill:none;stroke:#0000ff;" d="M316,24C318,25 320,25 322,26 338,33 355,41 367,46"/><polygon style="fill:#0000ff;stroke:#0000ff;" points="315,22 314,24 316,25 317,23 315,22"/><polygon style="fill:#0000ff;stroke:#0000ff;" points="369,48 370,46 368,45 367,47 369,48"/></g><g id="node16" class="node"><title>FHL2</title><a xlink:href="FHL2.html"><ellipse cx="342" cy="17" rx="15" ry="8" style="fill:turquoise;stroke:turquoise;"/><text text-anchor="middle" x="342" y="20" style="font-family:Times New Roman;"><![CDATA[FHL2]]></text></a></g><g id="edge16" class="edge"><title>FHL2-&gt;ITGB1</title><path style="fill:none;stroke:#0000ff;" d="M352,26C358,31 366,38 372,43"/><polygon style="fill:#0000ff;stroke:#0000ff;" points="351,24 349,26 351,28 353,26 351,24"/><polygon style="fill:#0000ff;stroke:#0000ff;" points="373,46 375,44 373,42 371,44 373,46"/></g><g id="node18" class="node"><title>FLNA</title><a xlink:href="FLNA.html"><ellipse cx="382" cy="17" rx="16" ry="8" style="fill:turquoise;stroke:turquoise;"/><text text-anchor="middle" x="382" y="20" style="font-family:Times New Roman;"><![CDATA[FLNA]]></text></a></g><g id="edge18" class="edge"><title>FLNA-&gt;ITGB1</title><path style="fill:none;stroke:#0000ff;" d="M382,29C382,33 382,37 382,41"/><polygon style="fill:#0000ff;stroke:#0000ff;" points="384,26 381,26 381,29 384,29 384,26"/><polygon style="fill:#0000ff;stroke:#0000ff;" points="381,44 384,44 384,41 381,41 381,44"/></g><g id="node20" class="node"><title>FYN</title><a xlink:href="FYN.html"><ellipse cx="422" cy="17" rx="14" ry="8" style="fill:turquoise;stroke:turquoise;"/><text text-anchor="middle" x="422" y="20" style="font-family:Times New Roman;"><![CDATA[FYN]]></text></a></g><g id="edge20" class="edge"><title>FYN-&gt;ITGB1</title><path style="fill:none;stroke:darkgreen;" d="M414,25C408,30 401,36 394,42"/><polygon style="fill:darkgreen;stroke:darkgreen;" points="395,43 391,45 394,41 395,43"/></g><g id="node22" class="node"><title>GRB2</title><a xlink:href="GRB2.html"><ellipse cx="461" cy="17" rx="16" ry="8" style="fill:turquoise;stroke:turquoise;"/><text text-anchor="middle" x="461" y="20" style="font-family:Times New Roman;"><![CDATA[GRB2]]></text></a></g><g id="edge22" class="edge"><title>GRB2-&gt;ITGB1</title><path style="fill:none;stroke:#0000ff;" d="M447,24C433,30 412,40 398,46"/><polygon style="fill:#0000ff;stroke:#0000ff;" points="449,24 448,22 446,23 447,25 449,24"/><polygon style="fill:#0000ff;stroke:#0000ff;" points="395,46 396,48 398,47 397,45 395,46"/></g><g id="node24" class="node"><title>KCNH2</title><a xlink:href="KCNH2.html"><ellipse cx="506" cy="17" rx="19" ry="8" style="fill:turquoise;stroke:turquoise;"/><text text-anchor="middle" x="506" y="20" style="font-family:Times New Roman;"><![CDATA[KCNH2]]></text></a></g><g id="edge24" class="edge"><title>KCNH2-&gt;ITGB1</title><path style="fill:none;stroke:#0000ff;" d="M489,24C487,25 485,25 482,26 453,36 420,44 400,49"/><polygon style="fill:#0000ff;stroke:#0000ff;" points="492,24 491,22 488,23 489,25 492,24"/><polygon style="fill:#0000ff;stroke:#0000ff;" points="398,48 398,50 400,50 400,48 398,48"/></g><g id="node26" class="node"><title>CD47</title><a xlink:href="CD47.html"><ellipse cx="549" cy="17" rx="14" ry="8" style="fill:limegreen;stroke:limegreen;"/><text text-anchor="middle" x="549" y="20" style="font-family:Times New Roman;"><![CDATA[CD47]]></text></a></g><g id="edge26" class="edge"><title>CD47-&gt;ITGB1</title><path style="fill:none;stroke:#0000ff;" d="M536,24C534,25 532,26 530,26 485,40 430,48 401,51"/><polygon style="fill:#0000ff;stroke:#0000ff;" points="539,24 538,22 536,23 537,25 539,24"/><polygon style="fill:#0000ff;stroke:#0000ff;" points="399,50 399,52 401,52 401,50 399,50"/></g><g id="node28" class="node"><title>ILK</title><a xlink:href="ILK.html"><ellipse cx="586" cy="17" rx="13" ry="8" style="fill:turquoise;stroke:turquoise;"/><text text-anchor="middle" x="586" y="20" style="font-family:Times New Roman;"><![CDATA[ILK]]></text></a></g><g id="edge28" class="edge"><title>ILK-&gt;ITGB1</title><path style="fill:none;stroke:#0000ff;" d="M574,24C572,25 570,25 569,26 510,45 436,50 402,52"/><polygon style="fill:#0000ff;stroke:#0000ff;" points="577,24 576,22 573,23 574,25 577,24"/><polygon style="fill:#0000ff;stroke:#0000ff;" points="399,51 399,53 401,53 401,51 399,51"/></g><g id="node62" class="node"><title>PDPK1</title><a xlink:href="PDPK1.html"><ellipse cx="625" cy="17" rx="17" ry="8" style="fill:turquoise;stroke:turquoise;"/><text text-anchor="middle" x="625" y="20" style="font-family:Times New Roman;"><![CDATA[PDPK1]]></text></a></g><g id="edge62" class="edge"><title>PDPK1-&gt;ITGB1</title><path style="fill:none;stroke:darkgreen;" d="M613,23C610,24 607,26 604,26 532,45 443,50 403,52"/><polygon style="fill:darkgreen;stroke:darkgreen;" points="403,53 399,52 403,51 403,53"/></g><g id="node64" class="node"><title>PRKCA</title><a xlink:href="PRKCA.html"><ellipse cx="671" cy="17" rx="19" ry="8" style="fill:turquoise;stroke:turquoise;"/><text text-anchor="middle" x="671" y="20" style="font-family:Times New Roman;"><![CDATA[PRKCA]]></text></a></g><g id="edge64" class="edge"><title>PRKCA-&gt;ITGB1</title><path style="fill:none;stroke:darkgreen;" d="M656,23C653,24 650,26 647,26 558,46 449,51 404,53"/><polygon style="fill:darkgreen;stroke:darkgreen;" points="403,54 399,53 403,51 403,54"/></g><g id="node66" class="node"><title>SRC</title><a xlink:href="SRC.html"><ellipse cx="713" cy="17" rx="13" ry="8" style="fill:turquoise;stroke:turquoise;"/><text text-anchor="middle" x="713" y="20" style="font-family:Times New Roman;"><![CDATA[SRC]]></text></a></g><g id="edge66" class="edge"><title>SRC-&gt;ITGB1</title><path style="fill:none;stroke:darkgreen;" d="M703,23C701,25 698,26 695,26 640,42 465,50 403,52"/><polygon style="fill:darkgreen;stroke:darkgreen;" points="403,53 399,52 403,51 403,53"/></g></g></g></g>
<!-- navigation controls -->
<g id="navbox">
	<rect x="0" y="0" width="742" height="60"
		 style="fill:rgb(206,207,206);stroke:rgb(0,0,0);stroke-width:1"/>

	<polygon id="pan_right"
        onmouseup="panRight()"
        onmouseover="doHighlight(evt, 'Click to pan to the right')"
        onmouseout="resetHighlight(evt)"
		points="28.0732,13 32,20.5 28.0732,28 28.0732,23.4412 25,23.4412 25,17.4118 28.0732,17.4118"
		 transform="matrix(3.39111 0 0 2.98838 -12.6265 -29.7101)"
         fill="rgb(99,154,206)"
		 style="stroke:rgb(0,0,0);stroke-width:0.5"/>
	<polygon id="pan_left"
        onmouseup="panLeft()"
        onmouseover="doHighlight(evt, 'Click to pan to the left')"
        onmouseout="resetHighlight(evt)"
		points="123.991,25 120.064,32.5 123.991,40 123.991,35.4412 127.064,35.4412 127.064,29.4118
			123.991,29.4118" transform="matrix(3.39111 0 0 2.98838 -404.865 -65.5706)"
         fill="rgb(99,154,206)"
		 style="stroke:rgb(0,0,0);stroke-width:0.5"/>
	<polygon id="pan_down"
        onmouseup="panDown()"
        onmouseover="doHighlight(evt, 'Click to pan down')"
        onmouseout="resetHighlight(evt)"
		points="116.032,32.0408 123.532,35.9678 131.032,32.0408 126.473,32.0408 126.473,28.9678 120.444,28.9678
			120.444,32.0408" transform="matrix(3.39111 0 0 2.98838 -369.822 -50.6287)"
         fill="rgb(99,154,206)"
		 style="stroke:rgb(0,0,0);stroke-width:0.5"/>
	<polygon id="pan_up"
        onmouseup="panUp()"
  onmouseover="doHighlight(evt, 'Click to pan up')"
        onmouseout="resetHighlight(evt)"
		points="116.032,32.0408 123.532,35.9678 131.032,32.0408 126.473,32.0408 126.473,28.9678 120.444,28.9678
			120.444,32.0408" transform="matrix(3.39111 0 0 -2.98838 -369.823 111.74)"
         fill="rgb(99,154,206)"
		 style="stroke:rgb(0,0,0);stroke-width:0.5"/>
	<g id="go_home" 
         onmouseup="panRestore()" 
         onmouseover="doHighlight(evt, 'Click to restore graph to original position')"
         onmouseout="resetHighlight(evt)"
         fill="rgb(99,154,206)"
         transform="matrix(1 0 0 1 0 -0.333333)">
		<rect x="196" y="11" width="26" height="26"
			transform="translate(-19.1111 -2.66667)"
			 style="stroke:rgb(0,0,0);stroke-width:1"/>
		<line x1="182" y1="16" x2="182" y2="28"
			transform="matrix(1 0 0 1 2.22222 0.444444)"
			 style="fill:none;stroke:rgb(0,0,0);stroke-width:2"/>
		<line x1="187" y1="22" x2="187" y2="28"
			transform="matrix(1 0 0 1 2.22222 0.444444)"
			 style="fill:none;stroke:rgb(0,0,0);stroke-width:2"/>
	<line x1="192" y1="13" x2="192" y2="28"
			transform="matrix(1 0 0 1 2.22222 0.444444)"
			 style="fill:none;stroke:rgb(0,0,0);stroke-width:2"/>
		<line x1="182" y1="28" x2="192" y2="28"
			transform="matrix(1 0 0 1 2.22222 0.444444)"
	style="fill:none;stroke:rgb(0,0,0);stroke-width:2"/>
		<line x1="189" y1="12" x2="179" y2="21"
			 style="fill:none;stroke:rgb(0,0,0);stroke-width:2"/>
		<line x1="188" y1="12" x2="199" y2="20"
			 style="fill:none;stroke:rgb(0,0,0);stroke-width:2"/>
	</g>
	<g id="zoom_out" onmouseup="zoomOut()" 
             onmouseover="doHighlight(evt, 'Click to zoom out')"
             onmouseout="resetHighlight(evt)"
             fill="rgb(99,154,206)"
             transform="matrix(1 0 0 1 0 0)">
		<rect x="116" y="8" width="26" height="26"
			 style="stroke:rgb(0,0,0);stroke-width:1"/>
		<ellipse cx="126" cy="18" rx="6" ry="6"
			 style="stroke:rgb(0,0,0);stroke-width:1"/>
		<line x1="130" y1="23" x2="137" y2="29"
			transform="matrix(1 0 0 1 0.888889 -0.888889)"
			 style="fill:none;stroke:rgb(0,0,0);stroke-width:2"/>
		<line x1="123" y1="18" x2="129" y2="18"
			 style="fill:none;stroke:rgb(0,0,0);stroke-width:2"/>
	</g>
	<g id="zoom_in" onmouseup="zoomIn()" 
             onmouseover="doHighlight(evt, 'Click to zoom in')"
             onmouseout="resetHighlight(evt)"
             fill="rgb(99,154,206)"
             transform="matrix(1 0 0 1 0.888889 -0.444444)">
		<rect x="116" y="8" width="26" height="26"
			transform="matrix(1 0 0 1 29.7778 0.444444)"
			 style="stroke:rgb(0,0,0);stroke-width:1"/>
		<ellipse cx="126" cy="18" rx="6" ry="6"
			transform="matrix(1 0 0 1 29.7778 0.444444)"
			 style="stroke:rgb(0,0,0);stroke-width:1"/>
		<line x1="130" y1="23" x2="137" y2="29"
			transform="matrix(1 0 0 1 30.6667 -0.444445)"
		style="fill:none;stroke:rgb(0,0,0);stroke-width:2"/>
		<line x1="123" y1="18" x2="129" y2="18"
			transform="matrix(1 0 0 1 29.7778 0.444444)"
			 style="fill:none;stroke:rgb(0,0,0);stroke-width:2"/>
		<line x1="156" y1="15" x2="156" y2="22"
			 style="fill:none;stroke:rgb(0,0,0);stroke-width:2"/>
	</g>
	<g>
		<rect x="117" y="40" width="452" height="14"
			transform="matrix(1.54201 0 0 1 -64.1436 -0.222222)"
			 style="fill:rgb(192,192,192);stroke:rgb(0,0,0);stroke-width:1"/>
		<text id="status_text" x="183px" y="48px"
			transform="matrix(1 0 0 1 -63.5556 3.00778)"
			 style="fill:rgb(0,0,0);font-size:14;font-family:Arial"> </text>
	</g>
</g>	
</svg>