<?xml version="1.0" encoding="UTF-8" standalone="no"?><!DOCTYPE svg PUBLIC "-//W3C//DTD SVG 1.0//EN" "http://www.w3.org/TR/2001/REC-SVG-20010904/DTD/svg10.dtd" [ <!ATTLIST svg xmlns:xlink CDATA #FIXED "http://www.w3.org/1999/xlink">]><!-- Generated by WinGraphviz version ver1.02.23, 08/01/2003 (08/04/2003)     For user: Avi Ma'ayan   Title: G    Pages: 1 --><svg width="226px" height="180px" xmlns="http://www.w3.org/2000/svg" xmlns:xlink="http://www.w3.org/1999/xlink"><g id="graph0" class="graph" style="font-family:Times New Roman;font-size:18.67;"><title>G</title><g id="node1" class="node"><title>JUB</title><a xlink:href="JUB.html"><ellipse cx="114" cy="39" rx="36" ry="24" style="fill:turquoise;stroke:turquoise;"/><text text-anchor="middle" x="114" y="46" style="font-family:Times New Roman;"><![CDATA[JUB]]></text></a></g><g id="node2" class="node"><title>BCAR1</title><a xlink:href="BCAR1.html"><ellipse cx="55" cy="135" rx="49" ry="24" style="fill:turquoise;stroke:turquoise;"/><text text-anchor="middle" x="55" y="142" style="font-family:Times New Roman;"><![CDATA[BCAR1]]></text></a></g><g id="edge2" class="edge"><title>JUB-&gt;BCAR1</title><path style="fill:none;stroke:#0000ff;" d="M98,67C90,79 81,94 73,106"/><polygon style="fill:#0000ff;stroke:#0000ff;" points="104,63 98,61 96,66 101,69 104,63"/><polygon style="fill:#0000ff;stroke:#0000ff;" points="68,110 73,113 76,107 70,105 68,110"/></g><g id="node4" class="node"><title>GRB2</title><a xlink:href="GRB2.html"><ellipse cx="173" cy="135" rx="44" ry="24" style="fill:turquoise;stroke:turquoise;"/><text text-anchor="middle" x="173" y="142" style="font-family:Times New Roman;"><![CDATA[GRB2]]></text></a></g><g id="edge4" class="edge"><title>JUB-&gt;GRB2</title><path style="fill:none;stroke:#0000ff;" d="M130,67C138,79 147,94 155,107"/><polygon style="fill:#0000ff;stroke:#0000ff;" points="130,61 125,63 128,69 133,66 130,61"/><polygon style="fill:#0000ff;stroke:#0000ff;" points="155,114 161,111 158,106 153,109 155,114"/></g></g></svg>