<?xml version="1.0" encoding="UTF-8" standalone="no"?><!DOCTYPE svg PUBLIC "-//W3C//DTD SVG 1.0//EN" "http://www.w3.org/TR/2001/REC-SVG-20010904/DTD/svg10.dtd" [ <!ATTLIST svg xmlns:xlink CDATA #FIXED "http://www.w3.org/1999/xlink">]><!-- Generated by WinGraphviz version ver1.02.23, 08/01/2003 (08/04/2003)     For user: Avi Ma'ayan   Title: G    Pages: 1 --><svg width="207px" height="276px" xmlns="http://www.w3.org/2000/svg" xmlns:xlink="http://www.w3.org/1999/xlink"><g id="graph0" class="graph" style="font-family:Times New Roman;font-size:18.67;"><title>G</title><g id="node1" class="node"><title>CAV1</title><a xlink:href="CAV1.html"><ellipse cx="49" cy="39" rx="42" ry="24" style="fill:turquoise;stroke:turquoise;"/><text text-anchor="middle" x="49" y="46" style="font-family:Times New Roman;"><![CDATA[CAV1]]></text></a></g><g id="node2" class="node"><title>KCNH2</title><a xlink:href="KCNH2.html"><ellipse cx="102" cy="135" rx="53" ry="24" style="fill:turquoise;stroke:turquoise;"/><text text-anchor="middle" x="102" y="142" style="font-family:Times New Roman;"><![CDATA[KCNH2]]></text></a></g><g id="edge2" class="edge"><title>CAV1-&gt;KCNH2</title><path style="fill:none;stroke:#0000ff;" d="M65,67C72,81 80,94 86,106"/><polygon style="fill:#0000ff;stroke:#0000ff;" points="65,61 59,63 62,69 68,66 65,61"/><polygon style="fill:#0000ff;stroke:#0000ff;" points="86,113 92,110 89,105 84,107 86,113"/></g><g id="node6" class="node"><title>ITGB1</title><a xlink:href="ITGB1.html"><ellipse cx="102" cy="231" rx="44" ry="24" style="fill:turquoise;stroke:turquoise;"/><text text-anchor="middle" x="102" y="238" style="font-family:Times New Roman;"><![CDATA[ITGB1]]></text></a></g><g id="edge6" class="edge"><title>KCNH2-&gt;ITGB1</title><path style="fill:none;stroke:#0000ff;" d="M102,166C102,177 102,190 102,201"/><polygon style="fill:#0000ff;stroke:#0000ff;" points="106,159 100,159 100,166 106,166 106,159"/><polygon style="fill:#0000ff;stroke:#0000ff;" points="100,207 106,207 106,201 100,201 100,207"/></g><g id="node4" class="node"><title>PTK2</title><a xlink:href="PTK2.html"><ellipse cx="157" cy="39" rx="41" ry="24" style="fill:turquoise;stroke:turquoise;"/><text text-anchor="middle" x="157" y="46" style="font-family:Times New Roman;"><![CDATA[PTK2]]></text></a></g><g id="edge4" class="edge"><title>PTK2-&gt;KCNH2</title><path style="fill:none;stroke:#0000ff;" d="M141,67C134,81 125,94 118,107"/><polygon style="fill:#0000ff;stroke:#0000ff;" points="146,63 141,61 138,66 143,69 146,63"/><polygon style="fill:#0000ff;stroke:#0000ff;" points="113,111 118,114 121,109 116,106 113,111"/></g></g></svg>