<?xml version="1.0" encoding="UTF-8" standalone="no"?><!DOCTYPE svg PUBLIC "-//W3C//DTD SVG 1.0//EN" "http://www.w3.org/TR/2001/REC-SVG-20010904/DTD/svg10.dtd" [ <!ATTLIST svg xmlns:xlink CDATA #FIXED "http://www.w3.org/1999/xlink">]><!-- Generated by WinGraphviz version ver1.02.23, 08/01/2003 (08/04/2003)     For user: Avi Ma'ayan   Title: G    Pages: 1 --><svg width="356px" height="276px" xmlns="http://www.w3.org/2000/svg" xmlns:xlink="http://www.w3.org/1999/xlink"><g id="graph0" class="graph" style="font-family:Times New Roman;font-size:18.67;"><title>G</title><g id="node1" class="node"><title>ABL1</title><a xlink:href="ABL1.html"><ellipse cx="46" cy="39" rx="40" ry="24" style="fill:turquoise;stroke:turquoise;"/><text text-anchor="middle" x="46" y="46" style="font-family:Times New Roman;"><![CDATA[ABL1]]></text></a></g><g id="node2" class="node"><title>LASP1</title><a xlink:href="LASP1.html"><ellipse cx="154" cy="135" rx="45" ry="24" style="fill:turquoise;stroke:turquoise;"/><text text-anchor="middle" x="154" y="142" style="font-family:Times New Roman;"><![CDATA[LASP1]]></text></a></g><g id="edge2" class="edge"><title>ABL1-&gt;LASP1</title><path style="fill:none;stroke:darkgreen;" d="M69,59C85,73 105,91 122,106"/><polygon style="fill:darkgreen;stroke:darkgreen;" points="124,103 132,114 120,107 124,103"/></g><g id="node6" class="node"><title>LPP</title><a xlink:href="LPP.html"><ellipse cx="50" cy="231" rx="36" ry="24" style="fill:turquoise;stroke:turquoise;"/><text text-anchor="middle" x="50" y="238" style="font-family:Times New Roman;"><![CDATA[LPP]]></text></a></g><g id="edge6" class="edge"><title>LASP1-&gt;LPP</title><path style="fill:none;stroke:#0000ff;" d="M126,161C112,175 92,193 77,207"/><polygon style="fill:#0000ff;stroke:#0000ff;" points="134,159 130,154 125,158 129,163 134,159"/><polygon style="fill:#0000ff;stroke:#0000ff;" points="70,209 74,214 80,210 76,205 70,209"/></g><g id="node8" class="node"><title>VASP</title><a xlink:href="VASP.html"><ellipse cx="154" cy="231" rx="44" ry="24" style="fill:turquoise;stroke:turquoise;"/><text text-anchor="middle" x="154" y="238" style="font-family:Times New Roman;"><![CDATA[VASP]]></text></a></g><g id="edge8" class="edge"><title>LASP1-&gt;VASP</title><path style="fill:none;stroke:#0000ff;" d="M154,166C154,177 154,190 154,201"/><polygon style="fill:#0000ff;stroke:#0000ff;" points="158,159 151,159 151,166 158,166 158,159"/><polygon style="fill:#0000ff;stroke:#0000ff;" points="151,207 158,207 158,201 151,201 151,207"/></g><g id="node10" class="node"><title>ZYX</title><a xlink:href="ZYX.html"><ellipse cx="261" cy="231" rx="38" ry="24" style="fill:turquoise;stroke:turquoise;"/><text text-anchor="middle" x="261" y="238" style="font-family:Times New Roman;"><![CDATA[ZYX]]></text></a></g><g id="edge10" class="edge"><title>LASP1-&gt;ZYX</title><path style="fill:none;stroke:#0000ff;" d="M182,161C198,175 218,193 233,207"/><polygon style="fill:#0000ff;stroke:#0000ff;" points="179,154 175,159 181,163 185,158 179,154"/><polygon style="fill:#0000ff;stroke:#0000ff;" points="237,214 241,209 235,205 231,210 237,214"/></g><g id="node4" class="node"><title>ACTB</title><a xlink:href="ACTB.html"><ellipse cx="154" cy="39" rx="44" ry="24" style="fill:turquoise;stroke:turquoise;"/><text text-anchor="middle" x="154" y="46" style="font-family:Times New Roman;"><![CDATA[ACTB]]></text></a></g><g id="edge4" class="edge"><title>ACTB-&gt;LASP1</title><path style="fill:none;stroke:#0000ff;" d="M154,70C154,81 154,94 154,105"/><polygon style="fill:#0000ff;stroke:#0000ff;" points="158,63 151,63 151,70 158,70 158,63"/><polygon style="fill:#0000ff;stroke:#0000ff;" points="151,111 158,111 158,105 151,105 151,111"/></g><g id="node12" class="node"><title>PRKACA</title><a xlink:href="PRKACA.html"><ellipse cx="285" cy="39" rx="62" ry="24" style="fill:turquoise;stroke:turquoise;"/><text text-anchor="middle" x="285" y="46" style="font-family:Times New Roman;"><![CDATA[PRKACA]]></text></a></g><g id="edge12" class="edge"><title>PRKACA-&gt;LASP1</title><path style="fill:none;stroke:darkgreen;" d="M255,61C235,74 211,93 190,109"/><polygon style="fill:darkgreen;stroke:darkgreen;" points="194,110 181,115 190,105 194,110"/></g></g></svg>