<?xml version="1.0" encoding="UTF-8" standalone="no"?><!DOCTYPE svg PUBLIC "-//W3C//DTD SVG 1.0//EN" "http://www.w3.org/TR/2001/REC-SVG-20010904/DTD/svg10.dtd" [ <!ATTLIST svg xmlns:xlink CDATA #FIXED "http://www.w3.org/1999/xlink">]><!-- Generated by WinGraphviz version ver1.02.23, 08/01/2003 (08/04/2003)     For user: Avi Ma'ayan   Title: G    Pages: 1 --><svg width="220px" height="276px" xmlns="http://www.w3.org/2000/svg" xmlns:xlink="http://www.w3.org/1999/xlink"><g id="graph0" class="graph" style="font-family:Times New Roman;font-size:18.67;"><title>G</title><g id="node1" class="node"><title>LIMK1</title><a xlink:href="LIMK1.html"><ellipse cx="105" cy="135" rx="48" ry="24" style="fill:turquoise;stroke:turquoise;"/><text text-anchor="middle" x="105" y="142" style="font-family:Times New Roman;"><![CDATA[LIMK1]]></text></a></g><g id="node2" class="node"><title>CFL1</title><a xlink:href="CFL1.html"><ellipse cx="55" cy="231" rx="37" ry="24" style="fill:turquoise;stroke:turquoise;"/><text text-anchor="middle" x="55" y="238" style="font-family:Times New Roman;"><![CDATA[CFL1]]></text></a></g><g id="edge2" class="edge"><title>LIMK1-&gt;CFL1</title><path style="fill:none;stroke:darkgreen;" d="M93,158C86,169 80,183 73,195"/><polygon style="fill:darkgreen;stroke:darkgreen;" points="76,197 68,207 70,194 76,197"/></g><g id="node4" class="node"><title>PXN</title><a xlink:href="PXN.html"><ellipse cx="155" cy="231" rx="38" ry="24" style="fill:turquoise;stroke:turquoise;"/><text text-anchor="middle" x="155" y="238" style="font-family:Times New Roman;"><![CDATA[PXN]]></text></a></g><g id="edge4" class="edge"><title>LIMK1-&gt;PXN</title><path style="fill:none;stroke:#0000ff;" d="M120,163C126,177 134,190 141,203"/><polygon style="fill:#0000ff;stroke:#0000ff;" points="120,157 114,159 117,165 122,162 120,157"/><polygon style="fill:#0000ff;stroke:#0000ff;" points="141,210 146,207 143,202 138,205 141,210"/></g><g id="node6" class="node"><title>PAK1</title><a xlink:href="PAK1.html"><ellipse cx="47" cy="39" rx="41" ry="24" style="fill:turquoise;stroke:turquoise;"/><text text-anchor="middle" x="47" y="46" style="font-family:Times New Roman;"><![CDATA[PAK1]]></text></a></g><g id="edge6" class="edge"><title>PAK1-&gt;LIMK1</title><path style="fill:none;stroke:darkgreen;" d="M61,62C68,73 77,87 85,101"/><polygon style="fill:darkgreen;stroke:darkgreen;" points="88,98 92,111 82,102 88,98"/></g><g id="node8" class="node"><title>ROCK1</title><a xlink:href="ROCK1.html"><ellipse cx="162" cy="39" rx="49" ry="24" style="fill:turquoise;stroke:turquoise;"/><text text-anchor="middle" x="162" y="46" style="font-family:Times New Roman;"><![CDATA[ROCK1]]></text></a></g><g id="edge8" class="edge"><title>ROCK1-&gt;LIMK1</title><path style="fill:none;stroke:darkgreen;" d="M149,62C142,74 133,89 126,102"/><polygon style="fill:darkgreen;stroke:darkgreen;" points="129,103 120,113 124,99 129,103"/></g></g></svg>