<?xml version="1.0" encoding="UTF-8" standalone="no"?><!DOCTYPE svg PUBLIC "-//W3C//DTD SVG 1.0//EN" "http://www.w3.org/TR/2001/REC-SVG-20010904/DTD/svg10.dtd" [ <!ATTLIST svg xmlns:xlink CDATA #FIXED "http://www.w3.org/1999/xlink">]><!-- Generated by WinGraphviz version ver1.02.23, 08/01/2003 (08/04/2003)     For user: Avi Ma'ayan   Title: G    Pages: 1 --><svg width="202px" height="180px" xmlns="http://www.w3.org/2000/svg" xmlns:xlink="http://www.w3.org/1999/xlink"><g id="graph0" class="graph" style="font-family:Times New Roman;font-size:18.67;"><title>G</title><g id="node1" class="node"><title>ILK</title><a xlink:href="ILK.html"><ellipse cx="42" cy="39" rx="36" ry="24" style="fill:turquoise;stroke:turquoise;"/><text text-anchor="middle" x="42" y="46" style="font-family:Times New Roman;"><![CDATA[ILK]]></text></a></g><g id="node2" class="node"><title>LIMS1</title><a xlink:href="LIMS1.html"><ellipse cx="94" cy="135" rx="44" ry="24" style="fill:turquoise;stroke:turquoise;"/><text text-anchor="middle" x="94" y="142" style="font-family:Times New Roman;"><![CDATA[LIMS1]]></text></a></g><g id="edge2" class="edge"><title>ILK-&gt;LIMS1</title><path style="fill:none;stroke:#0000ff;" d="M57,67C63,79 72,94 80,106"/><polygon style="fill:#0000ff;stroke:#0000ff;" points="57,61 51,63 54,69 59,66 57,61"/><polygon style="fill:#0000ff;stroke:#0000ff;" points="80,113 85,110 82,105 77,107 80,113"/></g><g id="node4" class="node"><title>NCK2</title><a xlink:href="NCK2.html"><ellipse cx="147" cy="39" rx="45" ry="24" style="fill:turquoise;stroke:turquoise;"/><text text-anchor="middle" x="147" y="46" style="font-family:Times New Roman;"><![CDATA[NCK2]]></text></a></g><g id="edge4" class="edge"><title>NCK2-&gt;LIMS1</title><path style="fill:none;stroke:#0000ff;" d="M132,67C125,81 117,94 110,107"/><polygon style="fill:#0000ff;stroke:#0000ff;" points="137,63 132,61 129,66 134,69 137,63"/><polygon style="fill:#0000ff;stroke:#0000ff;" points="105,111 110,114 113,109 108,106 105,111"/></g></g></svg>