<?xml version="1.0" encoding="UTF-8" standalone="no"?><!DOCTYPE svg PUBLIC "-//W3C//DTD SVG 1.0//EN" "http://www.w3.org/TR/2001/REC-SVG-20010904/DTD/svg10.dtd" [ <!ATTLIST svg xmlns:xlink CDATA #FIXED "http://www.w3.org/1999/xlink">]><!-- Generated by WinGraphviz version ver1.02.23, 08/01/2003 (08/04/2003)     For user: Avi Ma'ayan   Title: G    Pages: 1 --><svg width="228px" height="276px" xmlns="http://www.w3.org/2000/svg" xmlns:xlink="http://www.w3.org/1999/xlink"><g id="graph0" class="graph" style="font-family:Times New Roman;font-size:18.67;"><title>G</title><g id="node1" class="node"><title>ACTN1</title><a xlink:href="ACTN1.html"><ellipse cx="55" cy="39" rx="49" ry="24" style="fill:turquoise;stroke:turquoise;"/><text text-anchor="middle" x="55" y="46" style="font-family:Times New Roman;"><![CDATA[ACTN1]]></text></a></g><g id="node2" class="node"><title>LPP</title><a xlink:href="LPP.html"><ellipse cx="114" cy="135" rx="36" ry="24" style="fill:turquoise;stroke:turquoise;"/><text text-anchor="middle" x="114" y="142" style="font-family:Times New Roman;"><![CDATA[LPP]]></text></a></g><g id="edge2" class="edge"><title>ACTN1-&gt;LPP</title><path style="fill:none;stroke:#0000ff;" d="M73,67C81,81 90,95 98,107"/><polygon style="fill:#0000ff;stroke:#0000ff;" points="73,61 68,63 70,69 76,66 73,61"/><polygon style="fill:#0000ff;stroke:#0000ff;" points="98,114 104,111 101,106 96,109 98,114"/></g><g id="node6" class="node"><title>VASP</title><a xlink:href="VASP.html"><ellipse cx="114" cy="231" rx="44" ry="24" style="fill:turquoise;stroke:turquoise;"/><text text-anchor="middle" x="114" y="238" style="font-family:Times New Roman;"><![CDATA[VASP]]></text></a></g><g id="edge6" class="edge"><title>LPP-&gt;VASP</title><path style="fill:none;stroke:#0000ff;" d="M114,166C114,177 114,190 114,201"/><polygon style="fill:#0000ff;stroke:#0000ff;" points="118,159 112,159 112,166 118,166 118,159"/><polygon style="fill:#0000ff;stroke:#0000ff;" points="112,207 118,207 118,201 112,201 112,207"/></g><g id="node4" class="node"><title>LASP1</title><a xlink:href="LASP1.html"><ellipse cx="174" cy="39" rx="45" ry="24" style="fill:turquoise;stroke:turquoise;"/><text text-anchor="middle" x="174" y="46" style="font-family:Times New Roman;"><![CDATA[LASP1]]></text></a></g><g id="edge4" class="edge"><title>LASP1-&gt;LPP</title><path style="fill:none;stroke:#0000ff;" d="M157,67C149,81 139,95 132,107"/><polygon style="fill:#0000ff;stroke:#0000ff;" points="162,63 157,61 154,66 159,69 162,63"/><polygon style="fill:#0000ff;stroke:#0000ff;" points="126,111 132,114 134,109 129,106 126,111"/></g></g></svg>