<?xml version="1.0" encoding="UTF-8" standalone="no"?><!DOCTYPE svg PUBLIC "-//W3C//DTD SVG 1.0//EN" "http://www.w3.org/TR/2001/REC-SVG-20010904/DTD/svg10.dtd" [ <!ATTLIST svg xmlns:xlink CDATA #FIXED "http://www.w3.org/1999/xlink">]><!-- Generated by WinGraphviz version ver1.02.23, 08/01/2003 (08/04/2003)     For user: Avi Ma'ayan   Title: G    Pages: 1 --><svg width="316px" height="276px" xmlns="http://www.w3.org/2000/svg" xmlns:xlink="http://www.w3.org/1999/xlink"><g id="graph0" class="graph" style="font-family:Times New Roman;font-size:18.67;"><title>G</title><g id="node1" class="node"><title>GIT1</title><a xlink:href="GIT1.html"><ellipse cx="42" cy="39" rx="36" ry="24" style="fill:turquoise;stroke:turquoise;"/><text text-anchor="middle" x="42" y="46" style="font-family:Times New Roman;"><![CDATA[GIT1]]></text></a></g><g id="node2" class="node"><title>LPXN</title><a xlink:href="LPXN.html"><ellipse cx="149" cy="135" rx="45" ry="24" style="fill:turquoise;stroke:turquoise;"/><text text-anchor="middle" x="149" y="142" style="font-family:Times New Roman;"><![CDATA[LPXN]]></text></a></g><g id="edge2" class="edge"><title>GIT1-&gt;LPXN</title><path style="fill:none;stroke:#0000ff;" d="M68,63C85,77 105,95 121,110"/><polygon style="fill:#0000ff;stroke:#0000ff;" points="66,57 61,62 66,67 72,62 66,57"/><polygon style="fill:#0000ff;stroke:#0000ff;" points="125,117 129,111 124,107 120,113 125,117"/></g><g id="node8" class="node"><title>PTPN12</title><a xlink:href="PTPN12.html"><ellipse cx="86" cy="231" rx="52" ry="24" style="fill:turquoise;stroke:turquoise;"/><text text-anchor="middle" x="86" y="238" style="font-family:Times New Roman;"><![CDATA[PTPN12]]></text></a></g><g id="edge8" class="edge"><title>LPXN-&gt;PTPN12</title><path style="fill:none;stroke:#0000ff;" d="M132,163C124,175 113,190 105,202"/><polygon style="fill:#0000ff;stroke:#0000ff;" points="137,159 132,157 129,162 134,165 137,159"/><polygon style="fill:#0000ff;stroke:#0000ff;" points="98,205 104,209 108,203 102,199 98,205"/></g><g id="node10" class="node"><title>PTK2B</title><a xlink:href="PTK2B.html"><ellipse cx="211" cy="231" rx="49" ry="24" style="fill:turquoise;stroke:turquoise;"/><text text-anchor="middle" x="211" y="238" style="font-family:Times New Roman;"><![CDATA[PTK2B]]></text></a></g><g id="edge10" class="edge"><title>LPXN-&gt;PTK2B</title><path style="fill:none;stroke:#0000ff;" d="M166,163C174,175 185,190 193,202"/><polygon style="fill:#0000ff;stroke:#0000ff;" points="166,157 161,159 163,165 169,162 166,157"/><polygon style="fill:#0000ff;stroke:#0000ff;" points="194,209 199,205 195,199 190,203 194,209"/></g><g id="node4" class="node"><title>ITGA5</title><a xlink:href="ITGA5.html"><ellipse cx="149" cy="39" rx="46" ry="24" style="fill:turquoise;stroke:turquoise;"/><text text-anchor="middle" x="149" y="46" style="font-family:Times New Roman;"><![CDATA[ITGA5]]></text></a></g><g id="edge4" class="edge"><title>ITGA5-&gt;LPXN</title><path style="fill:none;stroke:#0000ff;" d="M149,70C149,81 149,94 149,105"/><polygon style="fill:#0000ff;stroke:#0000ff;" points="153,63 146,63 146,70 153,70 153,63"/><polygon style="fill:#0000ff;stroke:#0000ff;" points="146,111 153,111 153,105 146,105 146,111"/></g><g id="node6" class="node"><title>ITGB1</title><a xlink:href="ITGB1.html"><ellipse cx="264" cy="39" rx="44" ry="24" style="fill:turquoise;stroke:turquoise;"/><text text-anchor="middle" x="264" y="46" style="font-family:Times New Roman;"><![CDATA[ITGB1]]></text></a></g><g id="edge6" class="edge"><title>ITGB1-&gt;LPXN</title><path style="fill:none;stroke:#0000ff;" d="M235,63C218,77 197,95 178,110"/><polygon style="fill:#0000ff;stroke:#0000ff;" points="242,62 237,57 231,62 237,67 242,62"/><polygon style="fill:#0000ff;stroke:#0000ff;" points="170,113 175,118 181,113 175,107 170,113"/></g></g></svg>