<?xml version="1.0" encoding="UTF-8" standalone="no"?><!DOCTYPE svg PUBLIC "-//W3C//DTD SVG 1.0//EN" "http://www.w3.org/TR/2001/REC-SVG-20010904/DTD/svg10.dtd" [ <!ATTLIST svg xmlns:xlink CDATA #FIXED "http://www.w3.org/1999/xlink">]><!-- Generated by WinGraphviz version ver1.02.23, 08/01/2003 (08/04/2003)     For user: Avi Ma'ayan   Title: G    Pages: 1 --><svg width="202px" height="276px" xmlns="http://www.w3.org/2000/svg" xmlns:xlink="http://www.w3.org/1999/xlink"><g id="graph0" class="graph" style="font-family:Times New Roman;font-size:18.67;"><title>G</title><g id="node1" class="node"><title>CALR</title><a xlink:href="CALR.html"><ellipse cx="51" cy="39" rx="45" ry="24" style="fill:turquoise;stroke:turquoise;"/><text text-anchor="middle" x="51" y="46" style="font-family:Times New Roman;"><![CDATA[CALR]]></text></a></g><g id="node2" class="node"><title>LRP1</title><a xlink:href="LRP1.html"><ellipse cx="104" cy="135" rx="38" ry="24" style="fill:limegreen;stroke:limegreen;"/><text text-anchor="middle" x="104" y="142" style="font-family:Times New Roman;"><![CDATA[LRP1]]></text></a></g><g id="edge2" class="edge"><title>CALR-&gt;LRP1</title><path style="fill:none;stroke:#0000ff;" d="M66,67C73,81 81,94 89,107"/><polygon style="fill:#0000ff;stroke:#0000ff;" points="66,61 61,63 63,69 69,66 66,61"/><polygon style="fill:#0000ff;stroke:#0000ff;" points="89,114 94,111 92,106 86,109 89,114"/></g><g id="node4" class="node"><title>SHC1</title><a xlink:href="SHC1.html"><ellipse cx="104" cy="231" rx="38" ry="24" style="fill:turquoise;stroke:turquoise;"/><text text-anchor="middle" x="104" y="238" style="font-family:Times New Roman;"><![CDATA[SHC1]]></text></a></g><g id="edge4" class="edge"><title>LRP1-&gt;SHC1</title><path style="fill:none;stroke:#0000ff;" d="M104,166C104,177 104,190 104,201"/><polygon style="fill:#0000ff;stroke:#0000ff;" points="108,159 101,159 101,166 108,166 108,159"/><polygon style="fill:#0000ff;stroke:#0000ff;" points="101,207 108,207 108,201 101,201 101,207"/></g><g id="node6" class="node"><title>SRC</title><a xlink:href="SRC.html"><ellipse cx="157" cy="39" rx="36" ry="24" style="fill:turquoise;stroke:turquoise;"/><text text-anchor="middle" x="157" y="46" style="font-family:Times New Roman;"><![CDATA[SRC]]></text></a></g><g id="edge6" class="edge"><title>SRC-&gt;LRP1</title><path style="fill:none;stroke:darkgreen;" d="M145,62C138,73 130,87 124,101"/><polygon style="fill:darkgreen;stroke:darkgreen;" points="126,102 117,113 121,99 126,102"/></g></g></svg>