<?xml version="1.0" encoding="UTF-8" standalone="no"?><!DOCTYPE svg PUBLIC "-//W3C//DTD SVG 1.0//EN" "http://www.w3.org/TR/2001/REC-SVG-20010904/DTD/svg10.dtd" [ <!ATTLIST svg xmlns:xlink CDATA #FIXED "http://www.w3.org/1999/xlink">]><!-- Generated by WinGraphviz version ver1.02.23, 08/01/2003 (08/04/2003)     For user: Avi Ma'ayan   Title: G    Pages: 1 --><!--="735px" height="178px" xmlns="http://www.w3.org/2000/svg" --><svg onload="init(evt)" width="735px" height="600px" xmlns="http://www.w3.org/2000/svg" xmlns:xlink="http://www.w3.org/1999/xlink">
<script type="text/ecmascript">
<![CDATA[
var svgDocument;
var zoomAmt;
var xOffset;
var yOffset;
var scale;
var maxScale;
var imageWidth;
var imageHeight;
function init(evt)
{
    svgDocument = evt.getTarget().getOwnerDocument();
    zoomAmt = 0;
    xOffset = 0;
    yOffset = 60;
    scale = 0.8;
    maxScale = 10;
    imageWidth = 742;
    imageHeight = 606;
    panRestore();
    //panUp();
}
function transformMap ()
{
    var obj = svgDocument.getElementById("Pathway");
    var centerX = imageWidth  / 2.0;
    var centerY = imageHeight / 2.0;
    var adjustX = (-centerX * (scale - 0.8)) + xOffset;
    var adjustY = (-centerY * (scale - 0.8)) + yOffset;
    var transParms = 'translate(' + adjustX + ',' + adjustY + ') ';
    transParms += 'scale(' + scale + ')';
    // alert(transParms);
    obj.setAttribute("transform", transParms); 
}
function click_node(id)
{
    var testx = parent.click_node;
    if (typeof(testx) == "function")
    {
		parent.click_node(id);
    }
}
function click_relation(id)
{
    var testx = parent.click_relation;
    if (typeof(testx) == "function")
    {
        parent.click_relation(id);
    }
}
function click_pathway(toId, fromId)
{
    var testx = parent.click_pathway;
    if (typeof(testx) == "function")
    {
	parent.click_pathway(toId, fromId);
    }
}
function check_interpath(evt, pathid)
{
  var obj = evt.getTarget();
  var testx = parent.is_frompath;
  var child = obj.firstChild;
  if (typeof(testx) == "function")
  {
    if (parent.is_frompath(pathid))
    {
      while (child != null)
      {
        if (child.nodeType == 1)
        {
          if ((child.localName == "g") || (child.localName == "polyline"))
          {
            child.setAttribute("style", "fill:none;stroke:red");
          }
          else if (child.localName == "polygon")
          {
            child.setAttribute("style", "fill:red;stroke:red");
          }
        }
        child = child.nextSibling;
      }
    }
  }
}
function set_status (msg)
{
 var obj = svgDocument.getElementById("status_text");
  var child;
 
  child = obj.firstChild;
  if ((child != null) && (child.nodeType == 3))
  {
    if ((msg != null) && (msg.length > 0))
    {
      child.data = msg;
    }
    else
    {
child.data = " ";
    }
  }
}
function zoomIn ()
{
    scale = scale + 0.8;
    if (scale > maxScale)
    {
       scale = maxScale;
    }
    transformMap();
    panUp();
    panUp();
    panUp();
    panUp();
    panUp();
    panUp();
    panUp();
    panUp();
    panUp();
    panUp();
    panUp();
    panUp();
}
function zoomOut ()
{
    scale = scale - 0.8;
    if (scale < 0.8)
    {
       scale = 0.8;
    }
    transformMap();
    panDown();
    panDown();
    panDown();
    panDown();
    panDown();
    panDown();
    panDown();
    panDown();
    panDown();
    panDown();
    panDown();
    panDown();
}
function panUp ()
{
    yOffset = yOffset + 20;
    transformMap();
}
function panDown ()
{
    yOffset = yOffset - 20;
    transformMap();
}
function panLeft ()
{
    xOffset = xOffset + 20;
    transformMap();
}
function panRight ()
{
    xOffset = xOffset - 20;
    transformMap();
}
function panRestore ()
{
    xOffset = 0;
    yOffset = 0;
    scale = 0.5;
    //obj = svgDocument.getElementById("zoom");
    //obj.setAttribute("x1", 0);
    //obj.setAttribute("x2", 0);
    transformMap();    
}
function doHighlight (evt, msg)
{
  var obj = evt.getTarget();
  obj.setAttribute("fill", "rgb(239,24,33)");
  set_status(msg);
}
function resetHighlight (evt)
{
  var obj = evt.getTarget();
  obj.setAttribute("fill", "rgb(99,154,206)");
  set_status(" ");
}
// ]]>
</script>
<defs>
<clipPath id="theClip">
<polygon points="1 61, 741 61, 741 665, 1 665"
style="fill: none;"/>
</clipPath>
</defs>
<!-- viewport outline -->
<rect x="0" y="61" width="742" height="606"
style="stroke: black; stroke-width: 1; fill: none;"/>
<!-- pathway graph style="clip-path: url(#theClip);" -->
<g style="clip-path: url(#theClip);">
<g id="Pathway"  transform="translate(0,60)">
<!-- prefile.include ends, begin pathway graph -->
<g id="stkecm;CMP_10705" class="graph">
</g>
<g id="graph0" class="graph" style="font-family:Times New Roman;font-size:11.69;"><title>G</title><g id="node1" class="node"><title>ACTB</title><a xlink:href="ACTB.html"><ellipse cx="307" cy="26" rx="27" ry="15" style="fill:turquoise;stroke:turquoise;"/><text text-anchor="middle" x="307" y="30" style="font-family:Times New Roman;"><![CDATA[ACTB]]></text></a></g><g id="node2" class="node"><title>LYN</title><a xlink:href="LYN.html"><ellipse cx="415" cy="86" rx="24" ry="15" style="fill:turquoise;stroke:turquoise;"/><text text-anchor="middle" x="415" y="90" style="font-family:Times New Roman;"><![CDATA[LYN]]></text></a></g><g id="edge2" class="edge"><title>ACTB-&gt;LYN</title><path style="fill:none;stroke:#0000ff;" d="M329,38C348,48 374,63 392,73"/><polygon style="fill:#0000ff;stroke:#0000ff;" points="327,35 325,38 329,40 330,37 327,35"/><polygon style="fill:#0000ff;stroke:#0000ff;" points="395,78 397,74 394,72 392,75 395,78"/></g><g id="node10" class="node"><title>CBL</title><a xlink:href="CBL.html"><ellipse cx="29" cy="146" rx="22" ry="15" style="fill:turquoise;stroke:turquoise;"/><text text-anchor="middle" x="29" y="150" style="font-family:Times New Roman;"><![CDATA[CBL]]></text></a></g><g id="edge10" class="edge"><title>LYN-&gt;CBL</title><path style="fill:none;stroke:darkgreen;" d="M390,88C321,94 121,113 59,131 57,132 55,133 53,134"/><polygon style="fill:darkgreen;stroke:darkgreen;" points="55,135 46,136 53,131 55,135"/></g><g id="node12" class="node"><title>NEDD9</title><a xlink:href="NEDD9.html"><ellipse cx="99" cy="146" rx="32" ry="15" style="fill:turquoise;stroke:turquoise;"/><text text-anchor="middle" x="99" y="150" style="font-family:Times New Roman;"><![CDATA[NEDD9]]></text></a></g><g id="edge12" class="edge"><title>LYN-&gt;NEDD9</title><path style="fill:none;stroke:darkgreen;" d="M390,88C342,93 230,107 139,131 136,132 133,133 131,134"/><polygon style="fill:darkgreen;stroke:darkgreen;" points="131,135 123,136 131,131 131,135"/></g><g id="node14" class="node"><title>PIK3CA</title><a xlink:href="PIK3CA.html"><ellipse cx="180" cy="146" rx="33" ry="15" style="fill:turquoise;stroke:turquoise;"/><text text-anchor="middle" x="180" y="150" style="font-family:Times New Roman;"><![CDATA[PIK3CA]]></text></a></g><g id="edge14" class="edge"><title>LYN-&gt;PIK3CA</title><path style="fill:none;stroke:#0000ff;" d="M387,91C350,99 279,114 221,131 217,133 212,134 208,135"/><polygon style="fill:#0000ff;stroke:#0000ff;" points="391,92 391,88 387,89 387,93 391,92"/><polygon style="fill:#0000ff;stroke:#0000ff;" points="204,134 206,138 210,137 208,134 204,134"/></g><g id="node16" class="node"><title>PRKCA</title><a xlink:href="PRKCA.html"><ellipse cx="262" cy="146" rx="33" ry="15" style="fill:turquoise;stroke:turquoise;"/><text text-anchor="middle" x="262" y="150" style="font-family:Times New Roman;"><![CDATA[PRKCA]]></text></a></g><g id="edge16" class="edge"><title>LYN-&gt;PRKCA</title><path style="fill:none;stroke:darkgreen;" d="M394,94C368,104 324,122 293,134"/><polygon style="fill:darkgreen;stroke:darkgreen;" points="295,135 287,136 293,131 295,135"/></g><g id="node18" class="node"><title>PLCG1</title><a xlink:href="PLCG1.html"><ellipse cx="339" cy="146" rx="29" ry="15" style="fill:turquoise;stroke:turquoise;"/><text text-anchor="middle" x="339" y="150" style="font-family:Times New Roman;"><![CDATA[PLCG1]]></text></a></g><g id="edge18" class="edge"><title>LYN-&gt;PLCG1</title><path style="fill:none;stroke:darkgreen;" d="M400,98C389,106 374,119 361,129"/><polygon style="fill:darkgreen;stroke:darkgreen;" points="363,129 355,134 360,127 363,129"/></g><g id="node20" class="node"><title>PTK2B</title><a xlink:href="PTK2B.html"><ellipse cx="415" cy="146" rx="30" ry="15" style="fill:turquoise;stroke:turquoise;"/><text text-anchor="middle" x="415" y="150" style="font-family:Times New Roman;"><![CDATA[PTK2B]]></text></a></g><g id="edge20" class="edge"><title>LYN-&gt;PTK2B</title><path style="fill:none;stroke:#0000ff;" d="M415,105C415,112 415,120 415,127"/><polygon style="fill:#0000ff;stroke:#0000ff;" points="417,101 413,101 413,105 417,105 417,101"/><polygon style="fill:#0000ff;stroke:#0000ff;" points="413,131 417,131 417,127 413,127 413,131"/></g><g id="node22" class="node"><title>SHC1</title><a xlink:href="SHC1.html"><ellipse cx="485" cy="146" rx="24" ry="15" style="fill:turquoise;stroke:turquoise;"/><text text-anchor="middle" x="485" y="150" style="font-family:Times New Roman;"><![CDATA[SHC1]]></text></a></g><g id="edge22" class="edge"><title>LYN-&gt;SHC1</title><path style="fill:none;stroke:#0000ff;" d="M432,101C443,110 456,122 467,131"/><polygon style="fill:#0000ff;stroke:#0000ff;" points="430,97 428,100 431,103 434,99 430,97"/><polygon style="fill:#0000ff;stroke:#0000ff;" points="470,135 472,132 469,129 466,133 470,135"/></g><g id="node24" class="node"><title>INPP5D</title><a xlink:href="INPP5D.html"><ellipse cx="557" cy="146" rx="32" ry="15" style="fill:turquoise;stroke:turquoise;"/><text text-anchor="middle" x="557" y="150" style="font-family:Times New Roman;"><![CDATA[INPP5D]]></text></a></g><g id="edge24" class="edge"><title>LYN-&gt;INPP5D</title><path style="fill:none;stroke:#0000ff;" d="M439,96C464,106 503,124 529,134"/><polygon style="fill:#0000ff;stroke:#0000ff;" points="435,93 434,96 438,98 440,94 435,93"/><polygon style="fill:#0000ff;stroke:#0000ff;" points="532,138 533,134 530,133 528,136 532,138"/></g><g id="node26" class="node"><title>PTPN6</title><a xlink:href="PTPN6.html"><ellipse cx="634" cy="146" rx="30" ry="15" style="fill:turquoise;stroke:turquoise;"/><text text-anchor="middle" x="634" y="150" style="font-family:Times New Roman;"><![CDATA[PTPN6]]></text></a></g><g id="edge26" class="edge"><title>LYN-&gt;PTPN6</title><path style="fill:none;stroke:darkgreen;" d="M437,92C471,99 535,114 589,131 593,133 597,134 601,136"/><polygon style="fill:darkgreen;stroke:darkgreen;" points="601,134 608,139 600,138 601,134"/></g><g id="node28" class="node"><title>SYK</title><a xlink:href="SYK.html"><ellipse cx="703" cy="146" rx="23" ry="15" style="fill:turquoise;stroke:turquoise;"/><text text-anchor="middle" x="703" y="150" style="font-family:Times New Roman;"><![CDATA[SYK]]></text></a></g><g id="edge28" class="edge"><title>LYN-&gt;SYK</title><path style="fill:none;stroke:darkgreen;" d="M439,88C485,93 588,104 672,131 674,132 675,133 678,134"/><polygon style="fill:darkgreen;stroke:darkgreen;" points="678,131 684,136 676,135 678,131"/></g><g id="node4" class="node"><title>BCAR1</title><a xlink:href="BCAR1.html"><ellipse cx="380" cy="26" rx="30" ry="15" style="fill:turquoise;stroke:turquoise;"/><text text-anchor="middle" x="380" y="30" style="font-family:Times New Roman;"><![CDATA[BCAR1]]></text></a></g><g id="edge4" class="edge"><title>BCAR1-&gt;LYN</title><path style="fill:none;stroke:#0000ff;" d="M390,43C395,52 400,60 405,68"/><polygon style="fill:#0000ff;stroke:#0000ff;" points="390,39 387,41 389,44 392,43 390,39"/><polygon style="fill:#0000ff;stroke:#0000ff;" points="405,73 408,71 406,68 403,69 405,73"/></g><g id="node6" class="node"><title>CSK</title><a xlink:href="CSK.html"><ellipse cx="449" cy="26" rx="22" ry="15" style="fill:turquoise;stroke:turquoise;"/><text text-anchor="middle" x="449" y="30" style="font-family:Times New Roman;"><![CDATA[CSK]]></text></a></g><g id="edge6" class="edge"><title>CSK-&gt;LYN</title><path style="fill:none;stroke:darkgreen;" d="M441,40C436,47 431,56 427,64"/><polygon style="fill:darkgreen;stroke:darkgreen;" points="429,65 423,72 425,63 429,65"/></g><g id="node8" class="node"><title>PTK2</title><a xlink:href="PTK2.html"><ellipse cx="512" cy="26" rx="25" ry="15" style="fill:turquoise;stroke:turquoise;"/><text text-anchor="middle" x="512" y="30" style="font-family:Times New Roman;"><![CDATA[PTK2]]></text></a></g><g id="edge8" class="edge"><title>PTK2-&gt;LYN</title><path style="fill:none;stroke:#0000ff;" d="M491,38C476,48 452,63 436,73"/><polygon style="fill:#0000ff;stroke:#0000ff;" points="496,38 494,35 491,37 492,40 496,38"/><polygon style="fill:#0000ff;stroke:#0000ff;" points="431,73 433,77 436,74 435,71 431,73"/></g><g id="edge30" class="edge"><title>PTPN6-&gt;LYN</title><path style="fill:none;stroke:#ff0000;" d="M450,93C489,100 551,114 604,131 608,132 611,134 614,134"/><polyline style="fill:none;stroke:#ff0000;" points="451,87 449,99 "/></g></g></g></g>
<!-- navigation controls -->
<g id="navbox">
	<rect x="0" y="0" width="742" height="60"
		 style="fill:rgb(206,207,206);stroke:rgb(0,0,0);stroke-width:1"/>

	<polygon id="pan_right"
        onmouseup="panRight()"
        onmouseover="doHighlight(evt, 'Click to pan to the right')"
        onmouseout="resetHighlight(evt)"
		points="28.0732,13 32,20.5 28.0732,28 28.0732,23.4412 25,23.4412 25,17.4118 28.0732,17.4118"
		 transform="matrix(3.39111 0 0 2.98838 -12.6265 -29.7101)"
         fill="rgb(99,154,206)"
		 style="stroke:rgb(0,0,0);stroke-width:0.5"/>
	<polygon id="pan_left"
        onmouseup="panLeft()"
        onmouseover="doHighlight(evt, 'Click to pan to the left')"
        onmouseout="resetHighlight(evt)"
		points="123.991,25 120.064,32.5 123.991,40 123.991,35.4412 127.064,35.4412 127.064,29.4118
			123.991,29.4118" transform="matrix(3.39111 0 0 2.98838 -404.865 -65.5706)"
         fill="rgb(99,154,206)"
		 style="stroke:rgb(0,0,0);stroke-width:0.5"/>
	<polygon id="pan_down"
        onmouseup="panDown()"
        onmouseover="doHighlight(evt, 'Click to pan down')"
        onmouseout="resetHighlight(evt)"
		points="116.032,32.0408 123.532,35.9678 131.032,32.0408 126.473,32.0408 126.473,28.9678 120.444,28.9678
			120.444,32.0408" transform="matrix(3.39111 0 0 2.98838 -369.822 -50.6287)"
         fill="rgb(99,154,206)"
		 style="stroke:rgb(0,0,0);stroke-width:0.5"/>
	<polygon id="pan_up"
        onmouseup="panUp()"
  onmouseover="doHighlight(evt, 'Click to pan up')"
        onmouseout="resetHighlight(evt)"
		points="116.032,32.0408 123.532,35.9678 131.032,32.0408 126.473,32.0408 126.473,28.9678 120.444,28.9678
			120.444,32.0408" transform="matrix(3.39111 0 0 -2.98838 -369.823 111.74)"
         fill="rgb(99,154,206)"
		 style="stroke:rgb(0,0,0);stroke-width:0.5"/>
	<g id="go_home" 
         onmouseup="panRestore()" 
         onmouseover="doHighlight(evt, 'Click to restore graph to original position')"
         onmouseout="resetHighlight(evt)"
         fill="rgb(99,154,206)"
         transform="matrix(1 0 0 1 0 -0.333333)">
		<rect x="196" y="11" width="26" height="26"
			transform="translate(-19.1111 -2.66667)"
			 style="stroke:rgb(0,0,0);stroke-width:1"/>
		<line x1="182" y1="16" x2="182" y2="28"
			transform="matrix(1 0 0 1 2.22222 0.444444)"
			 style="fill:none;stroke:rgb(0,0,0);stroke-width:2"/>
		<line x1="187" y1="22" x2="187" y2="28"
			transform="matrix(1 0 0 1 2.22222 0.444444)"
			 style="fill:none;stroke:rgb(0,0,0);stroke-width:2"/>
	<line x1="192" y1="13" x2="192" y2="28"
			transform="matrix(1 0 0 1 2.22222 0.444444)"
			 style="fill:none;stroke:rgb(0,0,0);stroke-width:2"/>
		<line x1="182" y1="28" x2="192" y2="28"
			transform="matrix(1 0 0 1 2.22222 0.444444)"
	style="fill:none;stroke:rgb(0,0,0);stroke-width:2"/>
		<line x1="189" y1="12" x2="179" y2="21"
			 style="fill:none;stroke:rgb(0,0,0);stroke-width:2"/>
		<line x1="188" y1="12" x2="199" y2="20"
			 style="fill:none;stroke:rgb(0,0,0);stroke-width:2"/>
	</g>
	<g id="zoom_out" onmouseup="zoomOut()" 
             onmouseover="doHighlight(evt, 'Click to zoom out')"
             onmouseout="resetHighlight(evt)"
             fill="rgb(99,154,206)"
             transform="matrix(1 0 0 1 0 0)">
		<rect x="116" y="8" width="26" height="26"
			 style="stroke:rgb(0,0,0);stroke-width:1"/>
		<ellipse cx="126" cy="18" rx="6" ry="6"
			 style="stroke:rgb(0,0,0);stroke-width:1"/>
		<line x1="130" y1="23" x2="137" y2="29"
			transform="matrix(1 0 0 1 0.888889 -0.888889)"
			 style="fill:none;stroke:rgb(0,0,0);stroke-width:2"/>
		<line x1="123" y1="18" x2="129" y2="18"
			 style="fill:none;stroke:rgb(0,0,0);stroke-width:2"/>
	</g>
	<g id="zoom_in" onmouseup="zoomIn()" 
             onmouseover="doHighlight(evt, 'Click to zoom in')"
             onmouseout="resetHighlight(evt)"
             fill="rgb(99,154,206)"
             transform="matrix(1 0 0 1 0.888889 -0.444444)">
		<rect x="116" y="8" width="26" height="26"
			transform="matrix(1 0 0 1 29.7778 0.444444)"
			 style="stroke:rgb(0,0,0);stroke-width:1"/>
		<ellipse cx="126" cy="18" rx="6" ry="6"
			transform="matrix(1 0 0 1 29.7778 0.444444)"
			 style="stroke:rgb(0,0,0);stroke-width:1"/>
		<line x1="130" y1="23" x2="137" y2="29"
			transform="matrix(1 0 0 1 30.6667 -0.444445)"
		style="fill:none;stroke:rgb(0,0,0);stroke-width:2"/>
		<line x1="123" y1="18" x2="129" y2="18"
			transform="matrix(1 0 0 1 29.7778 0.444444)"
			 style="fill:none;stroke:rgb(0,0,0);stroke-width:2"/>
		<line x1="156" y1="15" x2="156" y2="22"
			 style="fill:none;stroke:rgb(0,0,0);stroke-width:2"/>
	</g>
	<g>
		<rect x="117" y="40" width="452" height="14"
			transform="matrix(1.54201 0 0 1 -64.1436 -0.222222)"
			 style="fill:rgb(192,192,192);stroke:rgb(0,0,0);stroke-width:1"/>
		<text id="status_text" x="183px" y="48px"
			transform="matrix(1 0 0 1 -63.5556 3.00778)"
			 style="fill:rgb(0,0,0);font-size:14;font-family:Arial"> </text>
	</g>
</g>	
</svg>