<?xml version="1.0" encoding="UTF-8" standalone="no"?><!DOCTYPE svg PUBLIC "-//W3C//DTD SVG 1.0//EN" "http://www.w3.org/TR/2001/REC-SVG-20010904/DTD/svg10.dtd" [ <!ATTLIST svg xmlns:xlink CDATA #FIXED "http://www.w3.org/1999/xlink">]><!-- Generated by WinGraphviz version ver1.02.23, 08/01/2003 (08/04/2003)     For user: Avi Ma'ayan   Title: G    Pages: 1 --><svg width="447px" height="180px" xmlns="http://www.w3.org/2000/svg" xmlns:xlink="http://www.w3.org/1999/xlink"><g id="graph0" class="graph" style="font-family:Times New Roman;font-size:18.67;"><title>G</title><g id="node1" class="node"><title>BCAR1</title><a xlink:href="BCAR1.html"><ellipse cx="55" cy="39" rx="49" ry="24" style="fill:turquoise;stroke:turquoise;"/><text text-anchor="middle" x="55" y="46" style="font-family:Times New Roman;"><![CDATA[BCAR1]]></text></a></g><g id="node2" class="node"><title>MAPK8IP3</title><a xlink:href="MAPK8IP3.html"><ellipse cx="229" cy="135" rx="68" ry="24" style="fill:turquoise;stroke:turquoise;"/><text text-anchor="middle" x="229" y="142" style="font-family:Times New Roman;"><![CDATA[MAPK8IP3]]></text></a></g><g id="edge2" class="edge"><title>BCAR1-&gt;MAPK8IP3</title><path style="fill:none;stroke:#0000ff;" d="M93,61C118,75 157,97 185,111"/><polygon style="fill:#0000ff;stroke:#0000ff;" points="89,55 86,61 92,63 94,58 89,55"/><polygon style="fill:#0000ff;stroke:#0000ff;" points="190,118 193,113 187,109 185,114 190,118"/></g><g id="node4" class="node"><title>PTK2</title><a xlink:href="PTK2.html"><ellipse cx="170" cy="39" rx="41" ry="24" style="fill:turquoise;stroke:turquoise;"/><text text-anchor="middle" x="170" y="46" style="font-family:Times New Roman;"><![CDATA[PTK2]]></text></a></g><g id="edge4" class="edge"><title>PTK2-&gt;MAPK8IP3</title><path style="fill:none;stroke:#0000ff;" d="M186,67C194,79 203,94 211,106"/><polygon style="fill:#0000ff;stroke:#0000ff;" points="186,61 181,63 183,69 189,66 186,61"/><polygon style="fill:#0000ff;stroke:#0000ff;" points="211,113 217,110 214,105 209,107 211,113"/></g><g id="node6" class="node"><title>MAPK8</title><a xlink:href="MAPK8.html"><ellipse cx="289" cy="39" rx="53" ry="24" style="fill:turquoise;stroke:turquoise;"/><text text-anchor="middle" x="289" y="46" style="font-family:Times New Roman;"><![CDATA[MAPK8]]></text></a></g><g id="edge6" class="edge"><title>MAPK8-&gt;MAPK8IP3</title><path style="fill:none;stroke:#0000ff;" d="M272,67C264,81 254,94 246,106"/><polygon style="fill:#0000ff;stroke:#0000ff;" points="277,63 272,61 269,66 274,69 277,63"/><polygon style="fill:#0000ff;stroke:#0000ff;" points="241,110 246,113 249,107 243,105 241,110"/></g><g id="node8" class="node"><title>SRC</title><a xlink:href="SRC.html"><ellipse cx="402" cy="39" rx="36" ry="24" style="fill:turquoise;stroke:turquoise;"/><text text-anchor="middle" x="402" y="46" style="font-family:Times New Roman;"><![CDATA[SRC]]></text></a></g><g id="edge8" class="edge"><title>SRC-&gt;MAPK8IP3</title><path style="fill:none;stroke:darkgreen;" d="M374,55C348,70 308,91 277,109"/><polygon style="fill:darkgreen;stroke:darkgreen;" points="280,111 266,115 276,106 280,111"/></g></g></svg>