<?xml version="1.0" encoding="UTF-8" standalone="no"?><!DOCTYPE svg PUBLIC "-//W3C//DTD SVG 1.0//EN" "http://www.w3.org/TR/2001/REC-SVG-20010904/DTD/svg10.dtd" [ <!ATTLIST svg xmlns:xlink CDATA #FIXED "http://www.w3.org/1999/xlink">]><!-- Generated by WinGraphviz version ver1.02.23, 08/01/2003 (08/04/2003)     For user: Avi Ma'ayan   Title: G    Pages: 1 --><svg width="735px" height="263px" xmlns="http://www.w3.org/2000/svg" xmlns:xlink="http://www.w3.org/1999/xlink"><g id="graph0" class="graph" style="font-family:Times New Roman;font-size:17.75;"><title>G</title><g id="node1" class="node"><title>MAPK1</title><a xlink:href="MAPK1.html"><ellipse cx="378" cy="129" rx="49" ry="22" style="fill:turquoise;stroke:turquoise;"/><text text-anchor="middle" x="378" y="135" style="font-family:Times New Roman;"><![CDATA[MAPK1]]></text></a></g><g id="node2" class="node"><title>CAPN1</title><a xlink:href="CAPN1.html"><ellipse cx="53" cy="220" rx="46" ry="22" style="fill:turquoise;stroke:turquoise;"/><text text-anchor="middle" x="53" y="226" style="font-family:Times New Roman;"><![CDATA[CAPN1]]></text></a></g><g id="edge2" class="edge"><title>MAPK1-&gt;CAPN1</title><path style="fill:none;stroke:darkgreen;" d="M333,139C280,150 189,173 111,197 108,198 105,200 101,201"/><polygon style="fill:darkgreen;stroke:darkgreen;" points="103,203 90,205 101,197 103,203"/></g><g id="node4" class="node"><title>PXN</title><a xlink:href="PXN.html"><ellipse cx="160" cy="220" rx="36" ry="22" style="fill:turquoise;stroke:turquoise;"/><text text-anchor="middle" x="160" y="226" style="font-family:Times New Roman;"><![CDATA[PXN]]></text></a></g><g id="edge4" class="edge"><title>MAPK1-&gt;PXN</title><path style="fill:none;stroke:darkgreen;" d="M340,144C305,156 252,178 208,197 205,198 201,200 199,201"/><polygon style="fill:darkgreen;stroke:darkgreen;" points="201,203 189,206 199,197 201,203"/></g><g id="node6" class="node"><title>SORBS3</title><a xlink:href="SORBS3.html"><ellipse cx="270" cy="220" rx="50" ry="22" style="fill:turquoise;stroke:turquoise;"/><text text-anchor="middle" x="270" y="226" style="font-family:Times New Roman;"><![CDATA[SORBS3]]></text></a></g><g id="edge6" class="edge"><title>MAPK1-&gt;SORBS3</title><path style="fill:none;stroke:darkgreen;" d="M353,149C338,162 319,178 303,192"/><polygon style="fill:darkgreen;stroke:darkgreen;" points="305,193 294,200 302,189 305,193"/></g><g id="node8" class="node"><title>SOS1</title><a xlink:href="SOS1.html"><ellipse cx="378" cy="220" rx="34" ry="22" style="fill:turquoise;stroke:turquoise;"/><text text-anchor="middle" x="378" y="226" style="font-family:Times New Roman;"><![CDATA[SOS1]]></text></a></g><g id="edge8" class="edge"><title>MAPK1-&gt;SOS1</title><path style="fill:none;stroke:darkgreen;" d="M378,151C378,162 378,173 378,184"/><polygon style="fill:darkgreen;stroke:darkgreen;" points="381,184 378,197 375,184 381,184"/></g><g id="node10" class="node"><title>VAV1</title><a xlink:href="VAV1.html"><ellipse cx="476" cy="220" rx="41" ry="22" style="fill:turquoise;stroke:turquoise;"/><text text-anchor="middle" x="476" y="226" style="font-family:Times New Roman;"><![CDATA[VAV1]]></text></a></g><g id="edge10" class="edge"><title>MAPK1-&gt;VAV1</title><path style="fill:none;stroke:darkgreen;" d="M400,149C414,162 431,178 446,192"/><polygon style="fill:darkgreen;stroke:darkgreen;" points="447,189 455,200 443,193 447,189"/></g><g id="node12" class="node"><title>PAK1</title><a xlink:href="PAK1.html"><ellipse cx="580" cy="220" rx="39" ry="22" style="fill:turquoise;stroke:turquoise;"/><text text-anchor="middle" x="580" y="226" style="font-family:Times New Roman;"><![CDATA[PAK1]]></text></a></g><g id="edge12" class="edge"><title>MAPK1-&gt;PAK1</title><path style="fill:none;stroke:darkgreen;" d="M413,145C447,160 502,184 539,201"/><polygon style="fill:darkgreen;stroke:darkgreen;" points="539,197 549,206 536,203 539,197"/></g><g id="node14" class="node"><title>ITGB1</title><a xlink:href="ITGB1.html"><ellipse cx="684" cy="220" rx="41" ry="22" style="fill:turquoise;stroke:turquoise;"/><text text-anchor="middle" x="684" y="226" style="font-family:Times New Roman;"><![CDATA[ITGB1]]></text></a></g><g id="edge14" class="edge"><title>MAPK1-&gt;ITGB1</title><path style="fill:none;stroke:#0000ff;" d="M428,140C479,151 561,173 631,197 636,200 641,201 646,203"/><polygon style="fill:#0000ff;stroke:#0000ff;" points="422,136 422,141 428,143 428,137 422,136"/><polygon style="fill:#0000ff;stroke:#0000ff;" points="650,208 653,203 648,201 645,206 650,208"/></g><g id="node16" class="node"><title>PTPN1</title><a xlink:href="PTPN1.html"><ellipse cx="378" cy="37" rx="43" ry="22" style="fill:turquoise;stroke:turquoise;"/><text text-anchor="middle" x="378" y="44" style="font-family:Times New Roman;"><![CDATA[PTPN1]]></text></a></g><g id="edge16" class="edge"><title>PTPN1-&gt;MAPK1</title><path style="fill:none;stroke:#ff0000;" d="M378,60C378,68 378,78 378,87"/><polyline style="fill:none;stroke:#ff0000;" points="369,87 388,87 "/></g></g></svg>