<?xml version="1.0" encoding="UTF-8" standalone="no"?><!DOCTYPE svg PUBLIC "-//W3C//DTD SVG 1.0//EN" "http://www.w3.org/TR/2001/REC-SVG-20010904/DTD/svg10.dtd" [ <!ATTLIST svg xmlns:xlink CDATA #FIXED "http://www.w3.org/1999/xlink">]><!-- Generated by WinGraphviz version ver1.02.23, 08/01/2003 (08/04/2003)     For user: Avi Ma'ayan   Title: G    Pages: 1 --><svg width="466px" height="276px" xmlns="http://www.w3.org/2000/svg" xmlns:xlink="http://www.w3.org/1999/xlink"><g id="graph0" class="graph" style="font-family:Times New Roman;font-size:18.67;"><title>G</title><g id="node1" class="node"><title>BCAR1</title><a xlink:href="BCAR1.html"><ellipse cx="179" cy="39" rx="49" ry="24" style="fill:turquoise;stroke:turquoise;"/><text text-anchor="middle" x="179" y="46" style="font-family:Times New Roman;"><![CDATA[BCAR1]]></text></a></g><g id="node2" class="node"><title>MAPK8</title><a xlink:href="MAPK8.html"><ellipse cx="235" cy="135" rx="53" ry="24" style="fill:turquoise;stroke:turquoise;"/><text text-anchor="middle" x="235" y="142" style="font-family:Times New Roman;"><![CDATA[MAPK8]]></text></a></g><g id="edge2" class="edge"><title>BCAR1-&gt;MAPK8</title><path style="fill:none;stroke:#0000ff;" d="M195,67C203,81 211,94 219,107"/><polygon style="fill:#0000ff;stroke:#0000ff;" points="195,61 190,63 193,69 198,66 195,61"/><polygon style="fill:#0000ff;stroke:#0000ff;" points="219,114 225,111 222,106 217,109 219,114"/></g><g id="node6" class="node"><title>IRS1</title><a xlink:href="IRS1.html"><ellipse cx="42" cy="231" rx="36" ry="24" style="fill:turquoise;stroke:turquoise;"/><text text-anchor="middle" x="42" y="238" style="font-family:Times New Roman;"><![CDATA[IRS1]]></text></a></g><g id="edge6" class="edge"><title>MAPK8-&gt;IRS1</title><path style="fill:none;stroke:darkgreen;" d="M199,154C170,167 128,189 90,207 88,209 85,210 84,210"/><polygon style="fill:darkgreen;stroke:darkgreen;" points="85,213 72,217 82,207 85,213"/></g><g id="node8" class="node"><title>MAPK8IP3</title><a xlink:href="MAPK8IP3.html"><ellipse cx="170" cy="231" rx="68" ry="24" style="fill:turquoise;stroke:turquoise;"/><text text-anchor="middle" x="170" y="238" style="font-family:Times New Roman;"><![CDATA[MAPK8IP3]]></text></a></g><g id="edge8" class="edge"><title>MAPK8-&gt;MAPK8IP3</title><path style="fill:none;stroke:#0000ff;" d="M217,163C209,177 198,190 190,202"/><polygon style="fill:#0000ff;stroke:#0000ff;" points="222,159 217,157 214,162 219,165 222,159"/><polygon style="fill:#0000ff;stroke:#0000ff;" points="183,205 189,209 193,203 187,199 183,205"/></g><g id="node10" class="node"><title>PXN</title><a xlink:href="PXN.html"><ellipse cx="301" cy="231" rx="38" ry="24" style="fill:turquoise;stroke:turquoise;"/><text text-anchor="middle" x="301" y="238" style="font-family:Times New Roman;"><![CDATA[PXN]]></text></a></g><g id="edge10" class="edge"><title>MAPK8-&gt;PXN</title><path style="fill:none;stroke:darkgreen;" d="M251,158C260,170 270,186 278,198"/><polygon style="fill:darkgreen;stroke:darkgreen;" points="281,195 285,209 276,199 281,195"/></g><g id="node12" class="node"><title>STAT3</title><a xlink:href="STAT3.html"><ellipse cx="410" cy="231" rx="46" ry="24" style="fill:#eea9b9;stroke:#eea9b9;"/><text text-anchor="middle" x="410" y="238" style="font-family:Times New Roman;"><![CDATA[STAT3]]></text></a></g><g id="edge12" class="edge"><title>MAPK8-&gt;STAT3</title><path style="fill:none;stroke:darkgreen;" d="M270,154C298,170 338,191 368,209"/><polygon style="fill:darkgreen;stroke:darkgreen;" points="368,205 378,214 365,211 368,205"/></g><g id="node4" class="node"><title>CRK</title><a xlink:href="CRK.html"><ellipse cx="292" cy="39" rx="38" ry="24" style="fill:turquoise;stroke:turquoise;"/><text text-anchor="middle" x="292" y="46" style="font-family:Times New Roman;"><![CDATA[CRK]]></text></a></g><g id="edge4" class="edge"><title>CRK-&gt;MAPK8</title><path style="fill:none;stroke:#0000ff;" d="M276,67C269,79 260,94 251,106"/><polygon style="fill:#0000ff;stroke:#0000ff;" points="281,63 276,61 273,66 278,69 281,63"/><polygon style="fill:#0000ff;stroke:#0000ff;" points="246,110 251,113 254,107 249,105 246,110"/></g></g></svg>