<?xml version="1.0" encoding="UTF-8" standalone="no"?><!DOCTYPE svg PUBLIC "-//W3C//DTD SVG 1.0//EN" "http://www.w3.org/TR/2001/REC-SVG-20010904/DTD/svg10.dtd" [ <!ATTLIST svg xmlns:xlink CDATA #FIXED "http://www.w3.org/1999/xlink">]><!-- Generated by WinGraphviz version ver1.02.23, 08/01/2003 (08/04/2003)     For user: Avi Ma'ayan   Title: G    Pages: 1 --><svg width="538px" height="276px" xmlns="http://www.w3.org/2000/svg" xmlns:xlink="http://www.w3.org/1999/xlink"><g id="graph0" class="graph" style="font-family:Times New Roman;font-size:18.67;"><title>G</title><g id="node1" class="node"><title>ABI1</title><a xlink:href="ABI1.html"><ellipse cx="43" cy="39" rx="37" ry="24" style="fill:turquoise;stroke:turquoise;"/><text text-anchor="middle" x="43" y="46" style="font-family:Times New Roman;"><![CDATA[ABI1]]></text></a></g><g id="node2" class="node"><title>NCK2</title><a xlink:href="NCK2.html"><ellipse cx="278" cy="135" rx="45" ry="24" style="fill:turquoise;stroke:turquoise;"/><text text-anchor="middle" x="278" y="142" style="font-family:Times New Roman;"><![CDATA[NCK2]]></text></a></g><g id="edge2" class="edge"><title>ABI1-&gt;NCK2</title><path style="fill:none;stroke:#0000ff;" d="M78,57C82,58 88,61 93,63 141,85 195,106 234,119"/><polygon style="fill:#0000ff;stroke:#0000ff;" points="74,51 72,57 77,59 80,54 74,51"/><polygon style="fill:#0000ff;stroke:#0000ff;" points="239,125 242,119 235,117 233,122 239,125"/></g><g id="node12" class="node"><title>LIMS1</title><a xlink:href="LIMS1.html"><ellipse cx="100" cy="231" rx="44" ry="24" style="fill:turquoise;stroke:turquoise;"/><text text-anchor="middle" x="100" y="238" style="font-family:Times New Roman;"><![CDATA[LIMS1]]></text></a></g><g id="edge12" class="edge"><title>NCK2-&gt;LIMS1</title><path style="fill:none;stroke:#0000ff;" d="M239,157C209,173 166,195 137,211"/><polygon style="fill:#0000ff;stroke:#0000ff;" points="247,155 245,150 239,154 242,159 247,155"/><polygon style="fill:#0000ff;stroke:#0000ff;" points="130,211 133,217 138,214 135,209 130,211"/></g><g id="node14" class="node"><title>SORBS1</title><a xlink:href="SORBS1.html"><ellipse cx="219" cy="231" rx="52" ry="24" style="fill:turquoise;stroke:turquoise;"/><text text-anchor="middle" x="219" y="238" style="font-family:Times New Roman;"><![CDATA[SORBS1]]></text></a></g><g id="edge14" class="edge"><title>NCK2-&gt;SORBS1</title><path style="fill:none;stroke:#0000ff;" d="M261,163C253,177 243,190 237,203"/><polygon style="fill:#0000ff;stroke:#0000ff;" points="266,159 261,157 258,162 264,165 266,159"/><polygon style="fill:#0000ff;stroke:#0000ff;" points="231,207 237,210 239,205 234,202 231,207"/></g><g id="node16" class="node"><title>RAC1</title><a xlink:href="RAC1.html"><ellipse cx="337" cy="231" rx="41" ry="24" style="fill:turquoise;stroke:turquoise;"/><text text-anchor="middle" x="337" y="238" style="font-family:Times New Roman;"><![CDATA[RAC1]]></text></a></g><g id="edge16" class="edge"><title>NCK2-&gt;RAC1</title><path style="fill:none;stroke:#0000ff;" d="M296,163C304,177 313,190 321,203"/><polygon style="fill:#0000ff;stroke:#0000ff;" points="296,157 290,159 293,165 298,162 296,157"/><polygon style="fill:#0000ff;stroke:#0000ff;" points="321,210 326,207 324,202 318,205 321,210"/></g><g id="node18" class="node"><title>SOS1</title><a xlink:href="SOS1.html"><ellipse cx="438" cy="231" rx="36" ry="24" style="fill:turquoise;stroke:turquoise;"/><text text-anchor="middle" x="438" y="238" style="font-family:Times New Roman;"><![CDATA[SOS1]]></text></a></g><g id="edge18" class="edge"><title>NCK2-&gt;SOS1</title><path style="fill:none;stroke:#0000ff;" d="M316,158C344,174 380,197 406,213"/><polygon style="fill:#0000ff;stroke:#0000ff;" points="310,151 308,157 313,161 316,155 310,151"/><polygon style="fill:#0000ff;stroke:#0000ff;" points="410,218 413,213 408,210 405,215 410,218"/></g><g id="node4" class="node"><title>DOCK1</title><a xlink:href="DOCK1.html"><ellipse cx="155" cy="39" rx="50" ry="24" style="fill:turquoise;stroke:turquoise;"/><text text-anchor="middle" x="155" y="46" style="font-family:Times New Roman;"><![CDATA[DOCK1]]></text></a></g><g id="edge4" class="edge"><title>DOCK1-&gt;NCK2</title><path style="fill:none;stroke:#0000ff;" d="M187,65C205,78 227,97 246,111"/><polygon style="fill:#0000ff;stroke:#0000ff;" points="185,58 181,63 186,67 190,62 185,58"/><polygon style="fill:#0000ff;stroke:#0000ff;" points="251,118 254,113 249,109 246,114 251,118"/></g><g id="node6" class="node"><title>DNM2</title><a xlink:href="DNM2.html"><ellipse cx="278" cy="39" rx="48" ry="24" style="fill:turquoise;stroke:turquoise;"/><text text-anchor="middle" x="278" y="46" style="font-family:Times New Roman;"><![CDATA[DNM2]]></text></a></g><g id="edge6" class="edge"><title>DNM2-&gt;NCK2</title><path style="fill:none;stroke:#0000ff;" d="M278,70C278,81 278,94 278,105"/><polygon style="fill:#0000ff;stroke:#0000ff;" points="282,63 276,63 276,70 282,70 282,63"/><polygon style="fill:#0000ff;stroke:#0000ff;" points="276,111 282,111 282,105 276,105 276,111"/></g><g id="node8" class="node"><title>PTK2</title><a xlink:href="PTK2.html"><ellipse cx="392" cy="39" rx="41" ry="24" style="fill:turquoise;stroke:turquoise;"/><text text-anchor="middle" x="392" y="46" style="font-family:Times New Roman;"><![CDATA[PTK2]]></text></a></g><g id="edge8" class="edge"><title>PTK2-&gt;NCK2</title><path style="fill:none;stroke:#0000ff;" d="M364,63C346,77 325,95 308,110"/><polygon style="fill:#0000ff;stroke:#0000ff;" points="370,62 365,57 360,62 365,67 370,62"/><polygon style="fill:#0000ff;stroke:#0000ff;" points="300,113 305,118 310,113 305,107 300,113"/></g><g id="node10" class="node"><title>IRS1</title><a xlink:href="IRS1.html"><ellipse cx="493" cy="39" rx="36" ry="24" style="fill:turquoise;stroke:turquoise;"/><text text-anchor="middle" x="493" y="46" style="font-family:Times New Roman;"><![CDATA[IRS1]]></text></a></g><g id="edge10" class="edge"><title>IRS1-&gt;NCK2</title><path style="fill:none;stroke:#0000ff;" d="M460,57C456,58 450,61 445,63 402,83 354,103 321,118"/><polygon style="fill:#0000ff;stroke:#0000ff;" points="466,57 464,51 458,54 461,59 466,57"/><polygon style="fill:#0000ff;stroke:#0000ff;" points="313,118 316,123 322,121 320,115 313,118"/></g></g></svg>