<?xml version="1.0" encoding="UTF-8" standalone="no"?><!DOCTYPE svg PUBLIC "-//W3C//DTD SVG 1.0//EN" "http://www.w3.org/TR/2001/REC-SVG-20010904/DTD/svg10.dtd" [ <!ATTLIST svg xmlns:xlink CDATA #FIXED "http://www.w3.org/1999/xlink">]><!-- Generated by WinGraphviz version ver1.02.23, 08/01/2003 (08/04/2003)     For user: Avi Ma'ayan   Title: G    Pages: 1 --><svg width="735px" height="226px" xmlns="http://www.w3.org/2000/svg" xmlns:xlink="http://www.w3.org/1999/xlink"><g id="graph0" class="graph" style="font-family:Times New Roman;font-size:15.09;"><title>G</title><g id="node1" class="node"><title>ABL1</title><a xlink:href="ABL1.html"><ellipse cx="39" cy="33" rx="32" ry="19" style="fill:turquoise;stroke:turquoise;"/><text text-anchor="middle" x="39" y="38" style="font-family:Times New Roman;"><![CDATA[ABL1]]></text></a></g><g id="node2" class="node"><title>NEDD9</title><a xlink:href="NEDD9.html"><ellipse cx="354" cy="110" rx="42" ry="19" style="fill:turquoise;stroke:turquoise;"/><text text-anchor="middle" x="354" y="116" style="font-family:Times New Roman;"><![CDATA[NEDD9]]></text></a></g><g id="edge2" class="edge"><title>ABL1-&gt;NEDD9</title><path style="fill:none;stroke:darkgreen;" d="M63,46C69,48 75,50 81,52 157,78 248,94 304,103"/><polygon style="fill:darkgreen;stroke:darkgreen;" points="304,99 313,105 303,105 304,99"/></g><g id="node12" class="node"><title>TRIP6</title><a xlink:href="TRIP6.html"><ellipse cx="311" cy="188" rx="35" ry="19" style="fill:turquoise;stroke:turquoise;"/><text text-anchor="middle" x="311" y="193" style="font-family:Times New Roman;"><![CDATA[TRIP6]]></text></a></g><g id="edge12" class="edge"><title>NEDD9-&gt;TRIP6</title><path style="fill:none;stroke:#0000ff;" d="M341,134C336,144 330,154 324,164"/><polygon style="fill:#0000ff;stroke:#0000ff;" points="346,131 341,129 339,133 344,135 346,131"/><polygon style="fill:#0000ff;stroke:#0000ff;" points="320,167 324,169 326,165 322,163 320,167"/></g><g id="node14" class="node"><title>ZYX</title><a xlink:href="ZYX.html"><ellipse cx="397" cy="188" rx="31" ry="19" style="fill:turquoise;stroke:turquoise;"/><text text-anchor="middle" x="397" y="193" style="font-family:Times New Roman;"><![CDATA[ZYX]]></text></a></g><g id="edge14" class="edge"><title>NEDD9-&gt;ZYX</title><path style="fill:none;stroke:#0000ff;" d="M367,134C373,144 379,155 386,165"/><polygon style="fill:#0000ff;stroke:#0000ff;" points="367,129 363,131 365,135 369,133 367,129"/><polygon style="fill:#0000ff;stroke:#0000ff;" points="386,171 390,168 388,164 383,166 386,171"/></g><g id="node4" class="node"><title>BCAR3</title><a xlink:href="BCAR3.html"><ellipse cx="131" cy="33" rx="40" ry="19" style="fill:turquoise;stroke:turquoise;"/><text text-anchor="middle" x="131" y="38" style="font-family:Times New Roman;"><![CDATA[BCAR3]]></text></a></g><g id="edge4" class="edge"><title>BCAR3-&gt;NEDD9</title><path style="fill:none;stroke:#0000ff;" d="M167,47C172,49 176,50 182,52 227,68 279,85 314,97"/><polygon style="fill:#0000ff;stroke:#0000ff;" points="164,43 161,48 167,49 169,44 164,43"/><polygon style="fill:#0000ff;stroke:#0000ff;" points="319,102 321,97 316,95 313,99 319,102"/></g><g id="node6" class="node"><title>CRK</title><a xlink:href="CRK.html"><ellipse cx="223" cy="33" rx="31" ry="19" style="fill:turquoise;stroke:turquoise;"/><text text-anchor="middle" x="223" y="38" style="font-family:Times New Roman;"><![CDATA[CRK]]></text></a></g><g id="edge6" class="edge"><title>CRK-&gt;NEDD9</title><path style="fill:none;stroke:#0000ff;" d="M250,49C270,61 300,78 323,92"/><polygon style="fill:#0000ff;stroke:#0000ff;" points="247,44 244,49 249,51 251,47 247,44"/><polygon style="fill:#0000ff;stroke:#0000ff;" points="327,97 330,93 325,90 323,94 327,97"/></g><g id="node8" class="node"><title>CRKL</title><a xlink:href="CRKL.html"><ellipse cx="310" cy="33" rx="36" ry="19" style="fill:turquoise;stroke:turquoise;"/><text text-anchor="middle" x="310" y="38" style="font-family:Times New Roman;"><![CDATA[CRKL]]></text></a></g><g id="edge8" class="edge"><title>CRKL-&gt;NEDD9</title><path style="fill:none;stroke:#0000ff;" d="M323,55C328,66 336,77 341,88"/><polygon style="fill:#0000ff;stroke:#0000ff;" points="323,50 319,52 321,56 325,54 323,50"/><polygon style="fill:#0000ff;stroke:#0000ff;" points="341,93 346,91 344,86 339,89 341,93"/></g><g id="node10" class="node"><title>PTK2</title><a xlink:href="PTK2.html"><ellipse cx="400" cy="33" rx="33" ry="19" style="fill:turquoise;stroke:turquoise;"/><text text-anchor="middle" x="400" y="38" style="font-family:Times New Roman;"><![CDATA[PTK2]]></text></a></g><g id="edge10" class="edge"><title>PTK2-&gt;NEDD9</title><path style="fill:none;stroke:#0000ff;" d="M387,55C381,65 374,77 367,86"/><polygon style="fill:#0000ff;stroke:#0000ff;" points="391,52 387,50 384,54 389,56 391,52"/><polygon style="fill:#0000ff;stroke:#0000ff;" points="363,90 367,92 369,88 365,85 363,90"/></g><g id="node16" class="node"><title>LYN</title><a xlink:href="LYN.html"><ellipse cx="484" cy="33" rx="31" ry="19" style="fill:turquoise;stroke:turquoise;"/><text text-anchor="middle" x="484" y="38" style="font-family:Times New Roman;"><![CDATA[LYN]]></text></a></g><g id="edge16" class="edge"><title>LYN-&gt;NEDD9</title><path style="fill:none;stroke:darkgreen;" d="M461,47C441,58 411,76 389,90"/><polygon style="fill:darkgreen;stroke:darkgreen;" points="391,92 380,95 388,88 391,92"/></g><g id="node18" class="node"><title>PPP2CA</title><a xlink:href="PPP2CA.html"><ellipse cx="579" cy="33" rx="44" ry="19" style="fill:turquoise;stroke:turquoise;"/><text text-anchor="middle" x="579" y="38" style="font-family:Times New Roman;"><![CDATA[PPP2CA]]></text></a></g><g id="edge18" class="edge"><title>PPP2CA-&gt;NEDD9</title><path style="fill:none;stroke:#ff0000;" d="M545,46C538,48 531,50 525,52 483,67 434,83 401,94"/><polyline style="fill:none;stroke:#ff0000;" points="402,85 407,101 "/></g><g id="node20" class="node"><title>PTPN12</title><a xlink:href="PTPN12.html"><ellipse cx="684" cy="33" rx="42" ry="19" style="fill:turquoise;stroke:turquoise;"/><text text-anchor="middle" x="684" y="38" style="font-family:Times New Roman;"><![CDATA[PTPN12]]></text></a></g><g id="edge20" class="edge"><title>PTPN12-&gt;NEDD9</title><path style="fill:none;stroke:#ff0000;" d="M652,46C645,48 639,50 632,52 556,75 466,92 410,102"/><polyline style="fill:none;stroke:#ff0000;" points="409,94 411,109 "/></g></g></svg>