<?xml version="1.0" encoding="UTF-8" standalone="no"?><!DOCTYPE svg PUBLIC "-//W3C//DTD SVG 1.0//EN" "http://www.w3.org/TR/2001/REC-SVG-20010904/DTD/svg10.dtd" [ <!ATTLIST svg xmlns:xlink CDATA #FIXED "http://www.w3.org/1999/xlink">]><!-- Generated by WinGraphviz version ver1.02.23, 08/01/2003 (08/04/2003)     For user: Avi Ma'ayan   Title: G    Pages: 1 --><svg width="322px" height="276px" xmlns="http://www.w3.org/2000/svg" xmlns:xlink="http://www.w3.org/1999/xlink"><g id="graph0" class="graph" style="font-family:Times New Roman;font-size:18.67;"><title>G</title><g id="node1" class="node"><title>CAV1</title><a xlink:href="CAV1.html"><ellipse cx="100" cy="39" rx="42" ry="24" style="fill:turquoise;stroke:turquoise;"/><text text-anchor="middle" x="100" y="46" style="font-family:Times New Roman;"><![CDATA[CAV1]]></text></a></g><g id="node2" class="node"><title>NF2</title><a xlink:href="NF2.html"><ellipse cx="151" cy="135" rx="36" ry="24" style="fill:turquoise;stroke:turquoise;"/><text text-anchor="middle" x="151" y="142" style="font-family:Times New Roman;"><![CDATA[NF2]]></text></a></g><g id="edge2" class="edge"><title>CAV1-&gt;NF2</title><path style="fill:none;stroke:#0000ff;" d="M114,67C121,81 129,94 137,107"/><polygon style="fill:#0000ff;stroke:#0000ff;" points="114,61 109,63 112,69 117,66 114,61"/><polygon style="fill:#0000ff;stroke:#0000ff;" points="137,114 142,111 139,106 134,109 137,114"/></g><g id="node6" class="node"><title>PAK1</title><a xlink:href="PAK1.html"><ellipse cx="47" cy="231" rx="41" ry="24" style="fill:turquoise;stroke:turquoise;"/><text text-anchor="middle" x="47" y="238" style="font-family:Times New Roman;"><![CDATA[PAK1]]></text></a></g><g id="edge6" class="edge"><title>NF2-&gt;PAK1</title><path style="fill:none;stroke:#ff0000;" d="M130,155C117,167 100,183 84,198"/><polyline style="fill:none;stroke:#ff0000;" points="77,190 92,205 "/></g><g id="node8" class="node"><title>PXN</title><a xlink:href="PXN.html"><ellipse cx="151" cy="231" rx="38" ry="24" style="fill:turquoise;stroke:turquoise;"/><text text-anchor="middle" x="151" y="238" style="font-family:Times New Roman;"><![CDATA[PXN]]></text></a></g><g id="edge8" class="edge"><title>NF2-&gt;PXN</title><path style="fill:none;stroke:#0000ff;" d="M151,166C151,177 151,190 151,201"/><polygon style="fill:#0000ff;stroke:#0000ff;" points="155,159 149,159 149,166 155,166 155,159"/><polygon style="fill:#0000ff;stroke:#0000ff;" points="149,207 155,207 155,201 149,201 149,207"/></g><g id="node10" class="node"><title>SDCBP</title><a xlink:href="SDCBP.html"><ellipse cx="264" cy="231" rx="49" ry="24" style="fill:turquoise;stroke:turquoise;"/><text text-anchor="middle" x="264" y="238" style="font-family:Times New Roman;"><![CDATA[SDCBP]]></text></a></g><g id="edge10" class="edge"><title>NF2-&gt;SDCBP</title><path style="fill:none;stroke:#0000ff;" d="M179,158C197,173 217,191 234,206"/><polygon style="fill:#0000ff;stroke:#0000ff;" points="177,151 173,157 178,161 182,155 177,151"/><polygon style="fill:#0000ff;stroke:#0000ff;" points="238,213 242,207 237,203 233,209 238,213"/></g><g id="node4" class="node"><title>VIL2</title><a xlink:href="VIL2.html"><ellipse cx="205" cy="39" rx="38" ry="24" style="fill:turquoise;stroke:turquoise;"/><text text-anchor="middle" x="205" y="46" style="font-family:Times New Roman;"><![CDATA[VIL2]]></text></a></g><g id="edge4" class="edge"><title>VIL2-&gt;NF2</title><path style="fill:none;stroke:#0000ff;" d="M190,67C183,79 174,94 167,107"/><polygon style="fill:#0000ff;stroke:#0000ff;" points="195,63 190,61 187,66 193,69 195,63"/><polygon style="fill:#0000ff;stroke:#0000ff;" points="162,111 167,114 170,109 165,106 162,111"/></g></g></svg>