<?xml version="1.0" encoding="UTF-8" standalone="no"?><!DOCTYPE svg PUBLIC "-//W3C//DTD SVG 1.0//EN" "http://www.w3.org/TR/2001/REC-SVG-20010904/DTD/svg10.dtd" [ <!ATTLIST svg xmlns:xlink CDATA #FIXED "http://www.w3.org/1999/xlink">]><!-- Generated by WinGraphviz version ver1.02.23, 08/01/2003 (08/04/2003)     For user: Avi Ma'ayan   Title: G    Pages: 1 --><svg width="330px" height="180px" xmlns="http://www.w3.org/2000/svg" xmlns:xlink="http://www.w3.org/1999/xlink"><g id="graph0" class="graph" style="font-family:Times New Roman;font-size:18.67;"><title>G</title><g id="node1" class="node"><title>TGFB1I1</title><a xlink:href="TGFB1I1.html"><ellipse cx="59" cy="39" rx="53" ry="24" style="fill:turquoise;stroke:turquoise;"/><text text-anchor="middle" x="59" y="46" style="font-family:Times New Roman;"><![CDATA[TGFB1I1]]></text></a></g><g id="node2" class="node"><title>NUDT16L1</title><a xlink:href="NUDT16L1.html"><ellipse cx="175" cy="135" rx="65" ry="24" style="fill:turquoise;stroke:turquoise;"/><text text-anchor="middle" x="175" y="142" style="font-family:Times New Roman;"><![CDATA[NUDT16L1]]></text></a></g><g id="edge2" class="edge"><title>TGFB1I1-&gt;NUDT16L1</title><path style="fill:none;stroke:#0000ff;" d="M90,65C106,79 126,95 143,110"/><polygon style="fill:#0000ff;stroke:#0000ff;" points="88,58 84,63 89,67 93,62 88,58"/><polygon style="fill:#0000ff;stroke:#0000ff;" points="147,117 151,111 146,107 142,113 147,117"/></g><g id="node4" class="node"><title>PXN</title><a xlink:href="PXN.html"><ellipse cx="175" cy="39" rx="38" ry="24" style="fill:turquoise;stroke:turquoise;"/><text text-anchor="middle" x="175" y="46" style="font-family:Times New Roman;"><![CDATA[PXN]]></text></a></g><g id="edge4" class="edge"><title>PXN-&gt;NUDT16L1</title><path style="fill:none;stroke:#0000ff;" d="M175,70C175,81 175,94 175,105"/><polygon style="fill:#0000ff;stroke:#0000ff;" points="179,63 173,63 173,70 179,70 179,63"/><polygon style="fill:#0000ff;stroke:#0000ff;" points="173,111 179,111 179,105 173,105 173,111"/></g><g id="node6" class="node"><title>SDC4</title><a xlink:href="SDC4.html"><ellipse cx="280" cy="39" rx="41" ry="24" style="fill:turquoise;stroke:turquoise;"/><text text-anchor="middle" x="280" y="46" style="font-family:Times New Roman;"><![CDATA[SDC4]]></text></a></g><g id="edge6" class="edge"><title>SDC4-&gt;NUDT16L1</title><path style="fill:none;stroke:#0000ff;" d="M253,63C238,78 219,94 205,109"/><polygon style="fill:#0000ff;stroke:#0000ff;" points="260,62 254,57 249,62 254,67 260,62"/><polygon style="fill:#0000ff;stroke:#0000ff;" points="198,110 202,115 207,111 203,106 198,110"/></g></g></svg>