<?xml version="1.0" encoding="UTF-8" standalone="no"?><!DOCTYPE svg PUBLIC "-//W3C//DTD SVG 1.0//EN" "http://www.w3.org/TR/2001/REC-SVG-20010904/DTD/svg10.dtd" [ <!ATTLIST svg xmlns:xlink CDATA #FIXED "http://www.w3.org/1999/xlink">]><!-- Generated by WinGraphviz version ver1.02.23, 08/01/2003 (08/04/2003)     For user: Avi Ma'ayan   Title: G    Pages: 1 --><svg width="183px" height="180px" xmlns="http://www.w3.org/2000/svg" xmlns:xlink="http://www.w3.org/1999/xlink"><g id="graph0" class="graph" style="font-family:Times New Roman;font-size:18.67;"><title>G</title><g id="node1" class="node"><title>CBL</title><a xlink:href="CBL.html"><ellipse cx="42" cy="39" rx="36" ry="24" style="fill:turquoise;stroke:turquoise;"/><text text-anchor="middle" x="42" y="46" style="font-family:Times New Roman;"><![CDATA[CBL]]></text></a></g><g id="node2" class="node"><title>OSTF1</title><a xlink:href="OSTF1.html"><ellipse cx="90" cy="135" rx="44" ry="24" style="fill:turquoise;stroke:turquoise;"/><text text-anchor="middle" x="90" y="142" style="font-family:Times New Roman;"><![CDATA[OSTF1]]></text></a></g><g id="edge2" class="edge"><title>CBL-&gt;OSTF1</title><path style="fill:none;stroke:#0000ff;" d="M57,69C63,81 70,94 76,106"/><polygon style="fill:#0000ff;stroke:#0000ff;" points="57,62 51,65 54,70 59,67 57,62"/><polygon style="fill:#0000ff;stroke:#0000ff;" points="76,113 81,110 78,105 73,107 76,113"/></g><g id="node4" class="node"><title>SRC</title><a xlink:href="SRC.html"><ellipse cx="138" cy="39" rx="36" ry="24" style="fill:turquoise;stroke:turquoise;"/><text text-anchor="middle" x="138" y="46" style="font-family:Times New Roman;"><![CDATA[SRC]]></text></a></g><g id="edge4" class="edge"><title>SRC-&gt;OSTF1</title><path style="fill:none;stroke:darkgreen;" d="M126,62C121,74 114,87 108,101"/><polygon style="fill:darkgreen;stroke:darkgreen;" points="110,102 102,113 105,99 110,102"/></g></g></svg>