<?xml version="1.0" encoding="UTF-8" standalone="no"?><!DOCTYPE svg PUBLIC "-//W3C//DTD SVG 1.0//EN" "http://www.w3.org/TR/2001/REC-SVG-20010904/DTD/svg10.dtd" [ <!ATTLIST svg xmlns:xlink CDATA #FIXED "http://www.w3.org/1999/xlink">]><!-- Generated by WinGraphviz version ver1.02.23, 08/01/2003 (08/04/2003)     For user: Avi Ma'ayan   Title: G    Pages: 1 --><!--="735px" height="159px" xmlns="http://www.w3.org/2000/svg" --><svg onload="init(evt)" width="735px" height="600px" xmlns="http://www.w3.org/2000/svg" xmlns:xlink="http://www.w3.org/1999/xlink">
<script type="text/ecmascript">
<![CDATA[
var svgDocument;
var zoomAmt;
var xOffset;
var yOffset;
var scale;
var maxScale;
var imageWidth;
var imageHeight;
function init(evt)
{
    svgDocument = evt.getTarget().getOwnerDocument();
    zoomAmt = 0;
    xOffset = 0;
    yOffset = 60;
    scale = 0.8;
    maxScale = 10;
    imageWidth = 742;
    imageHeight = 606;
    panRestore();
    //panUp();
}
function transformMap ()
{
    var obj = svgDocument.getElementById("Pathway");
    var centerX = imageWidth  / 2.0;
    var centerY = imageHeight / 2.0;
    var adjustX = (-centerX * (scale - 0.8)) + xOffset;
    var adjustY = (-centerY * (scale - 0.8)) + yOffset;
    var transParms = 'translate(' + adjustX + ',' + adjustY + ') ';
    transParms += 'scale(' + scale + ')';
    // alert(transParms);
    obj.setAttribute("transform", transParms); 
}
function click_node(id)
{
    var testx = parent.click_node;
    if (typeof(testx) == "function")
    {
		parent.click_node(id);
    }
}
function click_relation(id)
{
    var testx = parent.click_relation;
    if (typeof(testx) == "function")
    {
        parent.click_relation(id);
    }
}
function click_pathway(toId, fromId)
{
    var testx = parent.click_pathway;
    if (typeof(testx) == "function")
    {
	parent.click_pathway(toId, fromId);
    }
}
function check_interpath(evt, pathid)
{
  var obj = evt.getTarget();
  var testx = parent.is_frompath;
  var child = obj.firstChild;
  if (typeof(testx) == "function")
  {
    if (parent.is_frompath(pathid))
    {
      while (child != null)
      {
        if (child.nodeType == 1)
        {
          if ((child.localName == "g") || (child.localName == "polyline"))
          {
            child.setAttribute("style", "fill:none;stroke:red");
          }
          else if (child.localName == "polygon")
          {
            child.setAttribute("style", "fill:red;stroke:red");
          }
        }
        child = child.nextSibling;
      }
    }
  }
}
function set_status (msg)
{
 var obj = svgDocument.getElementById("status_text");
  var child;
 
  child = obj.firstChild;
  if ((child != null) && (child.nodeType == 3))
  {
    if ((msg != null) && (msg.length > 0))
    {
      child.data = msg;
    }
    else
    {
child.data = " ";
    }
  }
}
function zoomIn ()
{
    scale = scale + 0.8;
    if (scale > maxScale)
    {
       scale = maxScale;
    }
    transformMap();
    panUp();
    panUp();
    panUp();
    panUp();
    panUp();
    panUp();
    panUp();
    panUp();
    panUp();
    panUp();
    panUp();
    panUp();
}
function zoomOut ()
{
    scale = scale - 0.8;
    if (scale < 0.8)
    {
       scale = 0.8;
    }
    transformMap();
    panDown();
    panDown();
    panDown();
    panDown();
    panDown();
    panDown();
    panDown();
    panDown();
    panDown();
    panDown();
    panDown();
    panDown();
}
function panUp ()
{
    yOffset = yOffset + 20;
    transformMap();
}
function panDown ()
{
    yOffset = yOffset - 20;
    transformMap();
}
function panLeft ()
{
    xOffset = xOffset + 20;
    transformMap();
}
function panRight ()
{
    xOffset = xOffset - 20;
    transformMap();
}
function panRestore ()
{
    xOffset = 0;
    yOffset = 0;
    scale = 0.5;
    //obj = svgDocument.getElementById("zoom");
    //obj.setAttribute("x1", 0);
    //obj.setAttribute("x2", 0);
    transformMap();    
}
function doHighlight (evt, msg)
{
  var obj = evt.getTarget();
  obj.setAttribute("fill", "rgb(239,24,33)");
  set_status(msg);
}
function resetHighlight (evt)
{
  var obj = evt.getTarget();
  obj.setAttribute("fill", "rgb(99,154,206)");
  set_status(" ");
}
// ]]>
</script>
<defs>
<clipPath id="theClip">
<polygon points="1 61, 741 61, 741 665, 1 665"
style="fill: none;"/>
</clipPath>
</defs>
<!-- viewport outline -->
<rect x="0" y="61" width="742" height="606"
style="stroke: black; stroke-width: 1; fill: none;"/>
<!-- pathway graph style="clip-path: url(#theClip);" -->
<g style="clip-path: url(#theClip);">
<g id="Pathway"  transform="translate(0,60)">
<!-- prefile.include ends, begin pathway graph -->
<g id="stkecm;CMP_10705" class="graph">
</g>
<g id="graph0" class="graph" style="font-family:Times New Roman;font-size:10.33;"><title>G</title><g id="node1" class="node"><title>ABI1</title><a xlink:href="ABI1.html"><ellipse cx="27" cy="23" rx="20" ry="13" style="fill:turquoise;stroke:turquoise;"/><text text-anchor="middle" x="27" y="27" style="font-family:Times New Roman;"><![CDATA[ABI1]]></text></a></g><g id="node2" class="node"><title>PAK1</title><a xlink:href="PAK1.html"><ellipse cx="368" cy="77" rx="22" ry="13" style="fill:turquoise;stroke:turquoise;"/><text text-anchor="middle" x="368" y="80" style="font-family:Times New Roman;"><![CDATA[PAK1]]></text></a></g><g id="edge2" class="edge"><title>ABI1-&gt;PAK1</title><path style="fill:none;stroke:#0000ff;" d="M45,33C48,34 51,35 54,37 108,54 275,68 342,74"/><polygon style="fill:#0000ff;stroke:#0000ff;" points="43,31 42,34 45,34 47,32 43,31"/><polygon style="fill:#0000ff;stroke:#0000ff;" points="346,76 346,72 342,72 342,76 346,76"/></g><g id="node4" class="node"><title>ABL1</title><a xlink:href="ABL1.html"><ellipse cx="268" cy="130" rx="22" ry="13" style="fill:turquoise;stroke:turquoise;"/><text text-anchor="middle" x="268" y="133" style="font-family:Times New Roman;"><![CDATA[ABL1]]></text></a></g><g id="edge22" class="edge"><title>PAK1-&gt;ABL1</title><path style="fill:none;stroke:darkgreen;" d="M350,85C332,94 306,107 289,116"/><polygon style="fill:darkgreen;stroke:darkgreen;" points="290,118 283,119 289,114 290,118"/></g><g id="node23" class="node"><title>LIMK1</title><a xlink:href="LIMK1.html"><ellipse cx="330" cy="130" rx="26" ry="13" style="fill:turquoise;stroke:turquoise;"/><text text-anchor="middle" x="330" y="133" style="font-family:Times New Roman;"><![CDATA[LIMK1]]></text></a></g><g id="edge24" class="edge"><title>PAK1-&gt;LIMK1</title><path style="fill:none;stroke:darkgreen;" d="M360,89C355,96 349,104 344,111"/><polygon style="fill:darkgreen;stroke:darkgreen;" points="346,112 340,117 343,110 346,112"/></g><g id="node25" class="node"><title>ARHGEF6</title><a xlink:href="ARHGEF6.html"><ellipse cx="407" cy="130" rx="36" ry="13" style="fill:turquoise;stroke:turquoise;"/><text text-anchor="middle" x="407" y="133" style="font-family:Times New Roman;"><![CDATA[ARHGEF6]]></text></a></g><g id="edge26" class="edge"><title>PAK1-&gt;ARHGEF6</title><path style="fill:none;stroke:#0000ff;" d="M379,92C384,99 391,107 395,113"/><polygon style="fill:#0000ff;stroke:#0000ff;" points="379,88 376,90 378,93 381,91 379,88"/><polygon style="fill:#0000ff;stroke:#0000ff;" points="396,117 399,115 396,112 393,114 396,117"/></g><g id="node27" class="node"><title>PLCG1</title><a xlink:href="PLCG1.html"><ellipse cx="483" cy="130" rx="25" ry="13" style="fill:turquoise;stroke:turquoise;"/><text text-anchor="middle" x="483" y="133" style="font-family:Times New Roman;"><![CDATA[PLCG1]]></text></a></g><g id="edge28" class="edge"><title>PAK1-&gt;PLCG1</title><path style="fill:none;stroke:#0000ff;" d="M390,86C410,95 441,110 461,119"/><polygon style="fill:#0000ff;stroke:#0000ff;" points="387,83 385,86 389,88 391,85 387,83"/><polygon style="fill:#0000ff;stroke:#0000ff;" points="463,122 464,119 461,118 460,121 463,122"/></g><g id="node29" class="node"><title>VIM</title><a xlink:href="VIM.html"><ellipse cx="542" cy="130" rx="20" ry="13" style="fill:turquoise;stroke:turquoise;"/><text text-anchor="middle" x="542" y="133" style="font-family:Times New Roman;"><![CDATA[VIM]]></text></a></g><g id="edge30" class="edge"><title>PAK1-&gt;VIM</title><path style="fill:none;stroke:darkgreen;" d="M390,81C419,88 472,100 515,116 517,117 519,118 520,119"/><polygon style="fill:darkgreen;stroke:darkgreen;" points="520,116 526,122 519,120 520,116"/></g><g id="edge4" class="edge"><title>ABL1-&gt;PAK1</title><path style="fill:none;stroke:darkgreen;" d="M348,90C329,100 303,113 286,122"/><polygon style="fill:darkgreen;stroke:darkgreen;" points="346,88 354,87 348,92 346,88"/></g><g id="node6" class="node"><title>ACTB</title><a xlink:href="ACTB.html"><ellipse cx="85" cy="23" rx="24" ry="13" style="fill:turquoise;stroke:turquoise;"/><text text-anchor="middle" x="85" y="27" style="font-family:Times New Roman;"><![CDATA[ACTB]]></text></a></g><g id="edge6" class="edge"><title>ACTB-&gt;PAK1</title><path style="fill:none;stroke:#0000ff;" d="M106,34C109,34 112,36 116,37 196,60 294,71 341,75"/><polygon style="fill:#0000ff;stroke:#0000ff;" points="104,31 103,34 106,35 107,32 104,31"/><polygon style="fill:#0000ff;stroke:#0000ff;" points="346,77 346,73 342,73 342,77 346,77"/></g><g id="node8" class="node"><title>AKT1</title><a xlink:href="AKT1.html"><ellipse cx="146" cy="23" rx="22" ry="13" style="fill:turquoise;stroke:turquoise;"/><text text-anchor="middle" x="146" y="27" style="font-family:Times New Roman;"><![CDATA[AKT1]]></text></a></g><g id="edge8" class="edge"><title>AKT1-&gt;PAK1</title><path style="fill:none;stroke:darkgreen;" d="M163,32C167,34 171,35 175,37 232,55 301,67 340,73"/><polygon style="fill:darkgreen;stroke:darkgreen;" points="339,71 346,74 339,74 339,71"/></g><g id="node10" class="node"><title>CTTN</title><a xlink:href="CTTN.html"><ellipse cx="206" cy="23" rx="24" ry="13" style="fill:turquoise;stroke:turquoise;"/><text text-anchor="middle" x="206" y="27" style="font-family:Times New Roman;"><![CDATA[CTTN]]></text></a></g><g id="edge10" class="edge"><title>CTTN-&gt;PAK1</title><path style="fill:none;stroke:#0000ff;" d="M227,33C230,34 234,35 237,37 274,50 317,63 344,71"/><polygon style="fill:#0000ff;stroke:#0000ff;" points="225,31 224,34 227,34 229,32 225,31"/><polygon style="fill:#0000ff;stroke:#0000ff;" points="348,73 348,70 344,69 344,72 348,73"/></g><g id="node12" class="node"><title>MAPK1</title><a xlink:href="MAPK1.html"><ellipse cx="272" cy="23" rx="28" ry="13" style="fill:turquoise;stroke:turquoise;"/><text text-anchor="middle" x="272" y="27" style="font-family:Times New Roman;"><![CDATA[MAPK1]]></text></a></g><g id="edge12" class="edge"><title>MAPK1-&gt;PAK1</title><path style="fill:none;stroke:darkgreen;" d="M291,34C306,43 329,55 346,64"/><polygon style="fill:darkgreen;stroke:darkgreen;" points="346,62 351,67 344,65 346,62"/></g><g id="node14" class="node"><title>FLNA</title><a xlink:href="FLNA.html"><ellipse cx="340" cy="23" rx="25" ry="13" style="fill:turquoise;stroke:turquoise;"/><text text-anchor="middle" x="340" y="27" style="font-family:Times New Roman;"><![CDATA[FLNA]]></text></a></g><g id="edge14" class="edge"><title>FLNA-&gt;PAK1</title><path style="fill:none;stroke:#0000ff;" d="M348,39C351,46 356,54 360,61"/><polygon style="fill:#0000ff;stroke:#0000ff;" points="348,35 345,37 346,40 349,38 348,35"/><polygon style="fill:#0000ff;stroke:#0000ff;" points="360,65 363,63 362,60 359,62 360,65"/></g><g id="node16" class="node"><title>GIT1</title><a xlink:href="GIT1.html"><ellipse cx="398" cy="23" rx="19" ry="13" style="fill:turquoise;stroke:turquoise;"/><text text-anchor="middle" x="398" y="27" style="font-family:Times New Roman;"><![CDATA[GIT1]]></text></a></g><g id="edge16" class="edge"><title>GIT1-&gt;PAK1</title><path style="fill:none;stroke:#0000ff;" d="M390,39C386,46 381,54 377,60"/><polygon style="fill:#0000ff;stroke:#0000ff;" points="393,37 390,35 388,38 391,40 393,37"/><polygon style="fill:#0000ff;stroke:#0000ff;" points="374,63 377,64 379,61 376,60 374,63"/></g><g id="node18" class="node"><title>GRB2</title><a xlink:href="GRB2.html"><ellipse cx="455" cy="23" rx="24" ry="13" style="fill:turquoise;stroke:turquoise;"/><text text-anchor="middle" x="455" y="27" style="font-family:Times New Roman;"><![CDATA[GRB2]]></text></a></g><g id="edge18" class="edge"><title>GRB2-&gt;PAK1</title><path style="fill:none;stroke:#0000ff;" d="M436,35C422,43 402,56 388,65"/><polygon style="fill:#0000ff;stroke:#0000ff;" points="440,35 438,32 436,34 437,37 440,35"/><polygon style="fill:#0000ff;stroke:#0000ff;" points="383,65 385,68 388,66 386,63 383,65"/></g><g id="node20" class="node"><title>NF2</title><a xlink:href="NF2.html"><ellipse cx="513" cy="23" rx="19" ry="13" style="fill:turquoise;stroke:turquoise;"/><text text-anchor="middle" x="513" y="27" style="font-family:Times New Roman;"><![CDATA[NF2]]></text></a></g><g id="edge20" class="edge"><title>NF2-&gt;PAK1</title><path style="fill:none;stroke:#ff0000;" d="M497,32C494,34 490,35 486,37 456,49 421,60 397,68"/><polyline style="fill:none;stroke:#ff0000;" points="398,63 401,73 "/></g><g id="node31" class="node"><title>PDPK1</title><a xlink:href="PDPK1.html"><ellipse cx="572" cy="23" rx="25" ry="13" style="fill:turquoise;stroke:turquoise;"/><text text-anchor="middle" x="572" y="27" style="font-family:Times New Roman;"><![CDATA[PDPK1]]></text></a></g><g id="edge32" class="edge"><title>PDPK1-&gt;PAK1</title><path style="fill:none;stroke:darkgreen;" d="M552,32C548,34 544,35 540,37 491,52 432,65 397,71"/><polygon style="fill:darkgreen;stroke:darkgreen;" points="398,73 391,73 397,69 398,73"/></g><g id="node33" class="node"><title>PPM1M</title><a xlink:href="PPM1M.html"><ellipse cx="639" cy="23" rx="28" ry="13" style="fill:turquoise;stroke:turquoise;"/><text text-anchor="middle" x="639" y="27" style="font-family:Times New Roman;"><![CDATA[PPM1M]]></text></a></g><g id="edge34" class="edge"><title>PPM1M-&gt;PAK1</title><path style="fill:none;stroke:#ff0000;" d="M618,32C614,34 609,36 604,37 533,56 447,68 402,74"/><polyline style="fill:none;stroke:#ff0000;" points="402,68 402,79 "/></g><g id="node35" class="node"><title>RAC1</title><a xlink:href="RAC1.html"><ellipse cx="703" cy="23" rx="22" ry="13" style="fill:turquoise;stroke:turquoise;"/><text text-anchor="middle" x="703" y="27" style="font-family:Times New Roman;"><![CDATA[RAC1]]></text></a></g><g id="edge36" class="edge"><title>RAC1-&gt;PAK1</title><path style="fill:none;stroke:darkgreen;" d="M686,32C682,34 677,36 674,37 576,65 455,73 399,76"/><polygon style="fill:darkgreen;stroke:darkgreen;" points="399,77 391,76 399,74 399,77"/></g></g></g></g>
<!-- navigation controls -->
<g id="navbox">
	<rect x="0" y="0" width="742" height="60"
		 style="fill:rgb(206,207,206);stroke:rgb(0,0,0);stroke-width:1"/>

	<polygon id="pan_right"
        onmouseup="panRight()"
        onmouseover="doHighlight(evt, 'Click to pan to the right')"
        onmouseout="resetHighlight(evt)"
		points="28.0732,13 32,20.5 28.0732,28 28.0732,23.4412 25,23.4412 25,17.4118 28.0732,17.4118"
		 transform="matrix(3.39111 0 0 2.98838 -12.6265 -29.7101)"
         fill="rgb(99,154,206)"
		 style="stroke:rgb(0,0,0);stroke-width:0.5"/>
	<polygon id="pan_left"
        onmouseup="panLeft()"
        onmouseover="doHighlight(evt, 'Click to pan to the left')"
        onmouseout="resetHighlight(evt)"
		points="123.991,25 120.064,32.5 123.991,40 123.991,35.4412 127.064,35.4412 127.064,29.4118
			123.991,29.4118" transform="matrix(3.39111 0 0 2.98838 -404.865 -65.5706)"
         fill="rgb(99,154,206)"
		 style="stroke:rgb(0,0,0);stroke-width:0.5"/>
	<polygon id="pan_down"
        onmouseup="panDown()"
        onmouseover="doHighlight(evt, 'Click to pan down')"
        onmouseout="resetHighlight(evt)"
		points="116.032,32.0408 123.532,35.9678 131.032,32.0408 126.473,32.0408 126.473,28.9678 120.444,28.9678
			120.444,32.0408" transform="matrix(3.39111 0 0 2.98838 -369.822 -50.6287)"
         fill="rgb(99,154,206)"
		 style="stroke:rgb(0,0,0);stroke-width:0.5"/>
	<polygon id="pan_up"
        onmouseup="panUp()"
  onmouseover="doHighlight(evt, 'Click to pan up')"
        onmouseout="resetHighlight(evt)"
		points="116.032,32.0408 123.532,35.9678 131.032,32.0408 126.473,32.0408 126.473,28.9678 120.444,28.9678
			120.444,32.0408" transform="matrix(3.39111 0 0 -2.98838 -369.823 111.74)"
         fill="rgb(99,154,206)"
		 style="stroke:rgb(0,0,0);stroke-width:0.5"/>
	<g id="go_home" 
         onmouseup="panRestore()" 
         onmouseover="doHighlight(evt, 'Click to restore graph to original position')"
         onmouseout="resetHighlight(evt)"
         fill="rgb(99,154,206)"
         transform="matrix(1 0 0 1 0 -0.333333)">
		<rect x="196" y="11" width="26" height="26"
			transform="translate(-19.1111 -2.66667)"
			 style="stroke:rgb(0,0,0);stroke-width:1"/>
		<line x1="182" y1="16" x2="182" y2="28"
			transform="matrix(1 0 0 1 2.22222 0.444444)"
			 style="fill:none;stroke:rgb(0,0,0);stroke-width:2"/>
		<line x1="187" y1="22" x2="187" y2="28"
			transform="matrix(1 0 0 1 2.22222 0.444444)"
			 style="fill:none;stroke:rgb(0,0,0);stroke-width:2"/>
	<line x1="192" y1="13" x2="192" y2="28"
			transform="matrix(1 0 0 1 2.22222 0.444444)"
			 style="fill:none;stroke:rgb(0,0,0);stroke-width:2"/>
		<line x1="182" y1="28" x2="192" y2="28"
			transform="matrix(1 0 0 1 2.22222 0.444444)"
	style="fill:none;stroke:rgb(0,0,0);stroke-width:2"/>
		<line x1="189" y1="12" x2="179" y2="21"
			 style="fill:none;stroke:rgb(0,0,0);stroke-width:2"/>
		<line x1="188" y1="12" x2="199" y2="20"
			 style="fill:none;stroke:rgb(0,0,0);stroke-width:2"/>
	</g>
	<g id="zoom_out" onmouseup="zoomOut()" 
             onmouseover="doHighlight(evt, 'Click to zoom out')"
             onmouseout="resetHighlight(evt)"
             fill="rgb(99,154,206)"
             transform="matrix(1 0 0 1 0 0)">
		<rect x="116" y="8" width="26" height="26"
			 style="stroke:rgb(0,0,0);stroke-width:1"/>
		<ellipse cx="126" cy="18" rx="6" ry="6"
			 style="stroke:rgb(0,0,0);stroke-width:1"/>
		<line x1="130" y1="23" x2="137" y2="29"
			transform="matrix(1 0 0 1 0.888889 -0.888889)"
			 style="fill:none;stroke:rgb(0,0,0);stroke-width:2"/>
		<line x1="123" y1="18" x2="129" y2="18"
			 style="fill:none;stroke:rgb(0,0,0);stroke-width:2"/>
	</g>
	<g id="zoom_in" onmouseup="zoomIn()" 
             onmouseover="doHighlight(evt, 'Click to zoom in')"
             onmouseout="resetHighlight(evt)"
             fill="rgb(99,154,206)"
             transform="matrix(1 0 0 1 0.888889 -0.444444)">
		<rect x="116" y="8" width="26" height="26"
			transform="matrix(1 0 0 1 29.7778 0.444444)"
			 style="stroke:rgb(0,0,0);stroke-width:1"/>
		<ellipse cx="126" cy="18" rx="6" ry="6"
			transform="matrix(1 0 0 1 29.7778 0.444444)"
			 style="stroke:rgb(0,0,0);stroke-width:1"/>
		<line x1="130" y1="23" x2="137" y2="29"
			transform="matrix(1 0 0 1 30.6667 -0.444445)"
		style="fill:none;stroke:rgb(0,0,0);stroke-width:2"/>
		<line x1="123" y1="18" x2="129" y2="18"
			transform="matrix(1 0 0 1 29.7778 0.444444)"
			 style="fill:none;stroke:rgb(0,0,0);stroke-width:2"/>
		<line x1="156" y1="15" x2="156" y2="22"
			 style="fill:none;stroke:rgb(0,0,0);stroke-width:2"/>
	</g>
	<g>
		<rect x="117" y="40" width="452" height="14"
			transform="matrix(1.54201 0 0 1 -64.1436 -0.222222)"
			 style="fill:rgb(192,192,192);stroke:rgb(0,0,0);stroke-width:1"/>
		<text id="status_text" x="183px" y="48px"
			transform="matrix(1 0 0 1 -63.5556 3.00778)"
			 style="fill:rgb(0,0,0);font-size:14;font-family:Arial"> </text>
	</g>
</g>	
</svg>