<?xml version="1.0" encoding="UTF-8" standalone="no"?><!DOCTYPE svg PUBLIC "-//W3C//DTD SVG 1.0//EN" "http://www.w3.org/TR/2001/REC-SVG-20010904/DTD/svg10.dtd" [ <!ATTLIST svg xmlns:xlink CDATA #FIXED "http://www.w3.org/1999/xlink">]><!-- Generated by WinGraphviz version ver1.02.23, 08/01/2003 (08/04/2003)     For user: Avi Ma'ayan   Title: G    Pages: 1 --><svg width="218px" height="276px" xmlns="http://www.w3.org/2000/svg" xmlns:xlink="http://www.w3.org/1999/xlink"><g id="graph0" class="graph" style="font-family:Times New Roman;font-size:18.67;"><title>G</title><g id="node1" class="node"><title>ACTN1</title><a xlink:href="ACTN1.html"><ellipse cx="55" cy="39" rx="49" ry="24" style="fill:turquoise;stroke:turquoise;"/><text text-anchor="middle" x="55" y="46" style="font-family:Times New Roman;"><![CDATA[ACTN1]]></text></a></g><g id="node2" class="node"><title>PALLD</title><a xlink:href="PALLD.html"><ellipse cx="112" cy="135" rx="52" ry="24" style="fill:turquoise;stroke:turquoise;"/><text text-anchor="middle" x="112" y="142" style="font-family:Times New Roman;"><![CDATA[PALLD]]></text></a></g><g id="edge2" class="edge"><title>ACTN1-&gt;PALLD</title><path style="fill:none;stroke:#0000ff;" d="M72,67C80,81 88,94 96,107"/><polygon style="fill:#0000ff;stroke:#0000ff;" points="72,61 66,63 69,69 74,66 72,61"/><polygon style="fill:#0000ff;stroke:#0000ff;" points="96,114 101,111 98,106 93,109 96,114"/></g><g id="node6" class="node"><title>PFN1</title><a xlink:href="PFN1.html"><ellipse cx="58" cy="231" rx="38" ry="24" style="fill:turquoise;stroke:turquoise;"/><text text-anchor="middle" x="58" y="238" style="font-family:Times New Roman;"><![CDATA[PFN1]]></text></a></g><g id="edge6" class="edge"><title>PALLD-&gt;PFN1</title><path style="fill:none;stroke:#0000ff;" d="M96,165C89,177 81,191 73,203"/><polygon style="fill:#0000ff;stroke:#0000ff;" points="101,161 96,158 93,163 98,166 101,161"/><polygon style="fill:#0000ff;stroke:#0000ff;" points="68,207 73,210 76,205 70,202 68,207"/></g><g id="node8" class="node"><title>VASP</title><a xlink:href="VASP.html"><ellipse cx="165" cy="231" rx="44" ry="24" style="fill:turquoise;stroke:turquoise;"/><text text-anchor="middle" x="165" y="238" style="font-family:Times New Roman;"><![CDATA[VASP]]></text></a></g><g id="edge8" class="edge"><title>PALLD-&gt;VASP</title><path style="fill:none;stroke:#0000ff;" d="M128,165C134,177 142,190 149,202"/><polygon style="fill:#0000ff;stroke:#0000ff;" points="128,158 122,161 125,166 130,163 128,158"/><polygon style="fill:#0000ff;stroke:#0000ff;" points="149,209 154,206 151,201 146,203 149,209"/></g><g id="node4" class="node"><title>VIL2</title><a xlink:href="VIL2.html"><ellipse cx="167" cy="39" rx="38" ry="24" style="fill:turquoise;stroke:turquoise;"/><text text-anchor="middle" x="167" y="46" style="font-family:Times New Roman;"><![CDATA[VIL2]]></text></a></g><g id="edge4" class="edge"><title>VIL2-&gt;PALLD</title><path style="fill:none;stroke:#0000ff;" d="M151,67C145,79 135,94 128,106"/><polygon style="fill:#0000ff;stroke:#0000ff;" points="157,63 151,61 149,66 154,69 157,63"/><polygon style="fill:#0000ff;stroke:#0000ff;" points="122,110 128,113 130,107 125,105 122,110"/></g></g></svg>