<?xml version="1.0" encoding="UTF-8" standalone="no"?><!DOCTYPE svg PUBLIC "-//W3C//DTD SVG 1.0//EN" "http://www.w3.org/TR/2001/REC-SVG-20010904/DTD/svg10.dtd" [ <!ATTLIST svg xmlns:xlink CDATA #FIXED "http://www.w3.org/1999/xlink">]><!-- Generated by WinGraphviz version ver1.02.23, 08/01/2003 (08/04/2003)     For user: Avi Ma'ayan   Title: G    Pages: 1 --><svg width="210px" height="276px" xmlns="http://www.w3.org/2000/svg" xmlns:xlink="http://www.w3.org/1999/xlink"><g id="graph0" class="graph" style="font-family:Times New Roman;font-size:18.67;"><title>G</title><g id="node1" class="node"><title>ACTN1</title><a xlink:href="ACTN1.html"><ellipse cx="55" cy="39" rx="49" ry="24" style="fill:turquoise;stroke:turquoise;"/><text text-anchor="middle" x="55" y="46" style="font-family:Times New Roman;"><![CDATA[ACTN1]]></text></a></g><g id="node2" class="node"><title>PARVB</title><a xlink:href="PARVB.html"><ellipse cx="110" cy="135" rx="53" ry="24" style="fill:turquoise;stroke:turquoise;"/><text text-anchor="middle" x="110" y="142" style="font-family:Times New Roman;"><![CDATA[PARVB]]></text></a></g><g id="edge2" class="edge"><title>ACTN1-&gt;PARVB</title><path style="fill:none;stroke:#0000ff;" d="M72,67C78,81 88,94 94,107"/><polygon style="fill:#0000ff;stroke:#0000ff;" points="72,61 66,63 69,69 74,66 72,61"/><polygon style="fill:#0000ff;stroke:#0000ff;" points="94,114 100,111 97,106 92,109 94,114"/></g><g id="node6" class="node"><title>ARHGEF6</title><a xlink:href="ARHGEF6.html"><ellipse cx="110" cy="231" rx="66" ry="24" style="fill:turquoise;stroke:turquoise;"/><text text-anchor="middle" x="110" y="238" style="font-family:Times New Roman;"><![CDATA[ARHGEF6]]></text></a></g><g id="edge6" class="edge"><title>PARVB-&gt;ARHGEF6</title><path style="fill:none;stroke:#0000ff;" d="M110,166C110,177 110,190 110,201"/><polygon style="fill:#0000ff;stroke:#0000ff;" points="114,159 108,159 108,166 114,166 114,159"/><polygon style="fill:#0000ff;stroke:#0000ff;" points="108,207 114,207 114,201 108,201 108,207"/></g><g id="node4" class="node"><title>ILK</title><a xlink:href="ILK.html"><ellipse cx="165" cy="39" rx="36" ry="24" style="fill:turquoise;stroke:turquoise;"/><text text-anchor="middle" x="165" y="46" style="font-family:Times New Roman;"><![CDATA[ILK]]></text></a></g><g id="edge4" class="edge"><title>ILK-&gt;PARVB</title><path style="fill:none;stroke:#0000ff;" d="M149,67C142,79 133,94 126,106"/><polygon style="fill:#0000ff;stroke:#0000ff;" points="154,63 149,61 146,66 151,69 154,63"/><polygon style="fill:#0000ff;stroke:#0000ff;" points="121,110 126,113 129,107 124,105 121,110"/></g></g></svg>