<?xml version="1.0" encoding="UTF-8" standalone="no"?><!DOCTYPE svg PUBLIC "-//W3C//DTD SVG 1.0//EN" "http://www.w3.org/TR/2001/REC-SVG-20010904/DTD/svg10.dtd" [ <!ATTLIST svg xmlns:xlink CDATA #FIXED "http://www.w3.org/1999/xlink">]><!-- Generated by WinGraphviz version ver1.02.23, 08/01/2003 (08/04/2003)     For user: Avi Ma'ayan   Title: G    Pages: 1 --><svg width="211px" height="276px" xmlns="http://www.w3.org/2000/svg" xmlns:xlink="http://www.w3.org/1999/xlink"><g id="graph0" class="graph" style="font-family:Times New Roman;font-size:18.67;"><title>G</title><g id="node1" class="node"><title>ACTB</title><a xlink:href="ACTB.html"><ellipse cx="50" cy="39" rx="44" ry="24" style="fill:turquoise;stroke:turquoise;"/><text text-anchor="middle" x="50" y="46" style="font-family:Times New Roman;"><![CDATA[ACTB]]></text></a></g><g id="node2" class="node"><title>PARVA</title><a xlink:href="PARVA.html"><ellipse cx="102" cy="135" rx="54" ry="24" style="fill:turquoise;stroke:turquoise;"/><text text-anchor="middle" x="102" y="142" style="font-family:Times New Roman;"><![CDATA[PARVA]]></text></a></g><g id="edge2" class="edge"><title>ACTB-&gt;PARVA</title><path style="fill:none;stroke:#0000ff;" d="M65,67C72,81 80,94 86,106"/><polygon style="fill:#0000ff;stroke:#0000ff;" points="65,61 59,63 62,69 68,66 65,61"/><polygon style="fill:#0000ff;stroke:#0000ff;" points="86,113 92,110 89,105 84,107 86,113"/></g><g id="node6" class="node"><title>PXN</title><a xlink:href="PXN.html"><ellipse cx="49" cy="231" rx="38" ry="24" style="fill:turquoise;stroke:turquoise;"/><text text-anchor="middle" x="49" y="238" style="font-family:Times New Roman;"><![CDATA[PXN]]></text></a></g><g id="edge6" class="edge"><title>PARVA-&gt;PXN</title><path style="fill:none;stroke:#0000ff;" d="M86,165C80,177 72,191 63,203"/><polygon style="fill:#0000ff;stroke:#0000ff;" points="92,161 86,158 84,163 89,166 92,161"/><polygon style="fill:#0000ff;stroke:#0000ff;" points="58,207 63,210 66,205 61,202 58,207"/></g><g id="node8" class="node"><title>TESK1</title><a xlink:href="TESK1.html"><ellipse cx="157" cy="231" rx="45" ry="24" style="fill:turquoise;stroke:turquoise;"/><text text-anchor="middle" x="157" y="238" style="font-family:Times New Roman;"><![CDATA[TESK1]]></text></a></g><g id="edge8" class="edge"><title>PARVA-&gt;TESK1</title><path style="fill:none;stroke:#ff0000;" d="M116,159C121,169 128,179 133,190"/><polyline style="fill:none;stroke:#ff0000;" points="125,195 142,185 "/></g><g id="node4" class="node"><title>ILK</title><a xlink:href="ILK.html"><ellipse cx="154" cy="39" rx="36" ry="24" style="fill:turquoise;stroke:turquoise;"/><text text-anchor="middle" x="154" y="46" style="font-family:Times New Roman;"><![CDATA[ILK]]></text></a></g><g id="edge4" class="edge"><title>ILK-&gt;PARVA</title><path style="fill:none;stroke:#0000ff;" d="M139,67C133,79 125,94 117,106"/><polygon style="fill:#0000ff;stroke:#0000ff;" points="145,63 139,61 137,66 142,69 145,63"/><polygon style="fill:#0000ff;stroke:#0000ff;" points="112,110 117,113 120,107 114,105 112,110"/></g></g></svg>