<?xml version="1.0" encoding="UTF-8" standalone="no"?><!DOCTYPE svg PUBLIC "-//W3C//DTD SVG 1.0//EN" "http://www.w3.org/TR/2001/REC-SVG-20010904/DTD/svg10.dtd" [ <!ATTLIST svg xmlns:xlink CDATA #FIXED "http://www.w3.org/1999/xlink">]><!-- Generated by WinGraphviz version ver1.02.23, 08/01/2003 (08/04/2003)     For user: Avi Ma'ayan   Title: G    Pages: 1 --><svg width="570px" height="276px" xmlns="http://www.w3.org/2000/svg" xmlns:xlink="http://www.w3.org/1999/xlink"><g id="graph0" class="graph" style="font-family:Times New Roman;font-size:18.67;"><title>G</title><g id="node1" class="node"><title>PDPK1</title><a xlink:href="PDPK1.html"><ellipse cx="266" cy="135" rx="46" ry="24" style="fill:turquoise;stroke:turquoise;"/><text text-anchor="middle" x="266" y="142" style="font-family:Times New Roman;"><![CDATA[PDPK1]]></text></a></g><g id="node2" class="node"><title>AKT1</title><a xlink:href="AKT1.html"><ellipse cx="47" cy="231" rx="41" ry="24" style="fill:turquoise;stroke:turquoise;"/><text text-anchor="middle" x="47" y="238" style="font-family:Times New Roman;"><![CDATA[AKT1]]></text></a></g><g id="edge2" class="edge"><title>PDPK1-&gt;AKT1</title><path style="fill:none;stroke:darkgreen;" d="M230,151C197,166 145,187 101,207 98,209 94,210 92,211"/><polygon style="fill:darkgreen;stroke:darkgreen;" points="94,214 81,217 92,207 94,214"/></g><g id="node4" class="node"><title>ITGB1</title><a xlink:href="ITGB1.html"><ellipse cx="157" cy="231" rx="44" ry="24" style="fill:turquoise;stroke:turquoise;"/><text text-anchor="middle" x="157" y="238" style="font-family:Times New Roman;"><![CDATA[ITGB1]]></text></a></g><g id="edge4" class="edge"><title>PDPK1-&gt;ITGB1</title><path style="fill:none;stroke:darkgreen;" d="M242,157C226,170 206,189 190,203"/><polygon style="fill:darkgreen;stroke:darkgreen;" points="193,205 181,211 189,201 193,205"/></g><g id="node6" class="node"><title>PAK1</title><a xlink:href="PAK1.html"><ellipse cx="266" cy="231" rx="41" ry="24" style="fill:turquoise;stroke:turquoise;"/><text text-anchor="middle" x="266" y="238" style="font-family:Times New Roman;"><![CDATA[PAK1]]></text></a></g><g id="edge6" class="edge"><title>PDPK1-&gt;PAK1</title><path style="fill:none;stroke:darkgreen;" d="M266,159C266,170 266,182 266,194"/><polygon style="fill:darkgreen;stroke:darkgreen;" points="270,194 266,207 264,194 270,194"/></g><g id="node8" class="node"><title>PRKCA</title><a xlink:href="PRKCA.html"><ellipse cx="385" cy="231" rx="53" ry="24" style="fill:turquoise;stroke:turquoise;"/><text text-anchor="middle" x="385" y="238" style="font-family:Times New Roman;"><![CDATA[PRKCA]]></text></a></g><g id="edge8" class="edge"><title>PDPK1-&gt;PRKCA</title><path style="fill:none;stroke:darkgreen;" d="M292,155C309,169 332,187 350,202"/><polygon style="fill:darkgreen;stroke:darkgreen;" points="352,199 360,210 348,203 352,199"/></g><g id="node10" class="node"><title>PTK2B</title><a xlink:href="PTK2B.html"><ellipse cx="512" cy="231" rx="49" ry="24" style="fill:turquoise;stroke:turquoise;"/><text text-anchor="middle" x="512" y="238" style="font-family:Times New Roman;"><![CDATA[PTK2B]]></text></a></g><g id="edge10" class="edge"><title>PDPK1-&gt;PTK2B</title><path style="fill:none;stroke:#0000ff;" d="M310,153C354,169 424,197 468,214"/><polygon style="fill:#0000ff;stroke:#0000ff;" points="305,147 302,153 309,155 312,150 305,147"/><polygon style="fill:#0000ff;stroke:#0000ff;" points="472,219 474,214 469,211 466,217 472,219"/></g><g id="node12" class="node"><title>SRC</title><a xlink:href="SRC.html"><ellipse cx="266" cy="39" rx="36" ry="24" style="fill:turquoise;stroke:turquoise;"/><text text-anchor="middle" x="266" y="46" style="font-family:Times New Roman;"><![CDATA[SRC]]></text></a></g><g id="edge12" class="edge"><title>SRC-&gt;PDPK1</title><path style="fill:none;stroke:darkgreen;" d="M266,63C266,74 266,86 266,98"/><polygon style="fill:darkgreen;stroke:darkgreen;" points="270,98 266,111 264,98 270,98"/></g></g></svg>