<?xml version="1.0" encoding="UTF-8" standalone="no"?><!DOCTYPE svg PUBLIC "-//W3C//DTD SVG 1.0//EN" "http://www.w3.org/TR/2001/REC-SVG-20010904/DTD/svg10.dtd" [ <!ATTLIST svg xmlns:xlink CDATA #FIXED "http://www.w3.org/1999/xlink">]><!-- Generated by WinGraphviz version ver1.02.23, 08/01/2003 (08/04/2003)     For user: Avi Ma'ayan   Title: G    Pages: 1 --><svg width="455px" height="276px" xmlns="http://www.w3.org/2000/svg" xmlns:xlink="http://www.w3.org/1999/xlink"><g id="graph0" class="graph" style="font-family:Times New Roman;font-size:18.67;"><title>G</title><g id="node1" class="node"><title>DNM2</title><a xlink:href="DNM2.html"><ellipse cx="54" cy="39" rx="48" ry="24" style="fill:turquoise;stroke:turquoise;"/><text text-anchor="middle" x="54" y="46" style="font-family:Times New Roman;"><![CDATA[DNM2]]></text></a></g><g id="node2" class="node"><title>PFN1</title><a xlink:href="PFN1.html"><ellipse cx="235" cy="135" rx="38" ry="24" style="fill:turquoise;stroke:turquoise;"/><text text-anchor="middle" x="235" y="142" style="font-family:Times New Roman;"><![CDATA[PFN1]]></text></a></g><g id="edge2" class="edge"><title>DNM2-&gt;PFN1</title><path style="fill:none;stroke:#0000ff;" d="M93,59C124,77 167,101 199,117"/><polygon style="fill:#0000ff;stroke:#0000ff;" points="89,54 86,59 92,62 94,57 89,54"/><polygon style="fill:#0000ff;stroke:#0000ff;" points="205,122 207,117 201,114 198,119 205,122"/></g><g id="node10" class="node"><title>ACTB</title><a xlink:href="ACTB.html"><ellipse cx="179" cy="231" rx="44" ry="24" style="fill:turquoise;stroke:turquoise;"/><text text-anchor="middle" x="179" y="238" style="font-family:Times New Roman;"><![CDATA[ACTB]]></text></a></g><g id="edge10" class="edge"><title>PFN1-&gt;ACTB</title><path style="fill:none;stroke:#0000ff;" d="M219,163C213,175 203,190 195,202"/><polygon style="fill:#0000ff;stroke:#0000ff;" points="225,159 219,157 217,162 222,165 225,159"/><polygon style="fill:#0000ff;stroke:#0000ff;" points="190,206 195,209 198,203 193,201 190,206"/></g><g id="node12" class="node"><title>VASP</title><a xlink:href="VASP.html"><ellipse cx="292" cy="231" rx="44" ry="24" style="fill:turquoise;stroke:turquoise;"/><text text-anchor="middle" x="292" y="238" style="font-family:Times New Roman;"><![CDATA[VASP]]></text></a></g><g id="edge12" class="edge"><title>PFN1-&gt;VASP</title><path style="fill:none;stroke:#0000ff;" d="M251,163C258,175 268,190 276,202"/><polygon style="fill:#0000ff;stroke:#0000ff;" points="251,157 246,159 249,165 254,162 251,157"/><polygon style="fill:#0000ff;stroke:#0000ff;" points="276,209 281,206 278,201 273,203 276,209"/></g><g id="node4" class="node"><title>ENAH</title><a xlink:href="ENAH.html"><ellipse cx="174" cy="39" rx="48" ry="24" style="fill:turquoise;stroke:turquoise;"/><text text-anchor="middle" x="174" y="46" style="font-family:Times New Roman;"><![CDATA[ENAH]]></text></a></g><g id="edge4" class="edge"><title>ENAH-&gt;PFN1</title><path style="fill:none;stroke:#0000ff;" d="M191,67C199,81 210,94 218,107"/><polygon style="fill:#0000ff;stroke:#0000ff;" points="191,61 186,63 189,69 194,66 191,61"/><polygon style="fill:#0000ff;stroke:#0000ff;" points="218,114 223,111 221,106 215,109 218,114"/></g><g id="node6" class="node"><title>PALLD</title><a xlink:href="PALLD.html"><ellipse cx="298" cy="39" rx="52" ry="24" style="fill:turquoise;stroke:turquoise;"/><text text-anchor="middle" x="298" y="46" style="font-family:Times New Roman;"><![CDATA[PALLD]]></text></a></g><g id="edge6" class="edge"><title>PALLD-&gt;PFN1</title><path style="fill:none;stroke:#0000ff;" d="M281,67C272,81 262,95 254,107"/><polygon style="fill:#0000ff;stroke:#0000ff;" points="286,63 281,61 278,66 284,69 286,63"/><polygon style="fill:#0000ff;stroke:#0000ff;" points="247,110 253,114 257,109 251,105 247,110"/></g><g id="node8" class="node"><title>PIP2</title><a xlink:href="PIP2.html"><ellipse cx="410" cy="39" rx="36" ry="24" style="fill:turquoise;stroke:turquoise;"/><text text-anchor="middle" x="410" y="46" style="font-family:Times New Roman;"><![CDATA[PIP2]]></text></a></g><g id="edge8" class="edge"><title>PIP2-&gt;PFN1</title><path style="fill:none;stroke:#ff0000;" d="M382,55C356,70 313,94 281,111"/><polyline style="fill:none;stroke:#ff0000;" points="278,102 288,119 "/></g></g></svg>