<?xml version="1.0" encoding="UTF-8" standalone="no"?><!DOCTYPE svg PUBLIC "-//W3C//DTD SVG 1.0//EN" "http://www.w3.org/TR/2001/REC-SVG-20010904/DTD/svg10.dtd" [ <!ATTLIST svg xmlns:xlink CDATA #FIXED "http://www.w3.org/1999/xlink">]><!-- Generated by WinGraphviz version ver1.02.23, 08/01/2003 (08/04/2003)     For user: Avi Ma'ayan   Title: G    Pages: 1 --><!--="735px" height="115px" xmlns="http://www.w3.org/2000/svg" --><svg onload="init(evt)" width="735px" height="600px" xmlns="http://www.w3.org/2000/svg" xmlns:xlink="http://www.w3.org/1999/xlink">
<script type="text/ecmascript">
<![CDATA[
var svgDocument;
var zoomAmt;
var xOffset;
var yOffset;
var scale;
var maxScale;
var imageWidth;
var imageHeight;
function init(evt)
{
    svgDocument = evt.getTarget().getOwnerDocument();
    zoomAmt = 0;
    xOffset = 0;
    yOffset = 60;
    scale = 0.8;
    maxScale = 10;
    imageWidth = 742;
    imageHeight = 606;
    panRestore();
    //panUp();
}
function transformMap ()
{
    var obj = svgDocument.getElementById("Pathway");
    var centerX = imageWidth  / 2.0;
    var centerY = imageHeight / 2.0;
    var adjustX = (-centerX * (scale - 0.8)) + xOffset;
    var adjustY = (-centerY * (scale - 0.8)) + yOffset;
    var transParms = 'translate(' + adjustX + ',' + adjustY + ') ';
    transParms += 'scale(' + scale + ')';
    // alert(transParms);
    obj.setAttribute("transform", transParms); 
}
function click_node(id)
{
    var testx = parent.click_node;
    if (typeof(testx) == "function")
    {
		parent.click_node(id);
    }
}
function click_relation(id)
{
    var testx = parent.click_relation;
    if (typeof(testx) == "function")
    {
        parent.click_relation(id);
    }
}
function click_pathway(toId, fromId)
{
    var testx = parent.click_pathway;
    if (typeof(testx) == "function")
    {
	parent.click_pathway(toId, fromId);
    }
}
function check_interpath(evt, pathid)
{
  var obj = evt.getTarget();
  var testx = parent.is_frompath;
  var child = obj.firstChild;
  if (typeof(testx) == "function")
  {
    if (parent.is_frompath(pathid))
    {
      while (child != null)
      {
        if (child.nodeType == 1)
        {
          if ((child.localName == "g") || (child.localName == "polyline"))
          {
            child.setAttribute("style", "fill:none;stroke:red");
          }
          else if (child.localName == "polygon")
          {
            child.setAttribute("style", "fill:red;stroke:red");
          }
        }
        child = child.nextSibling;
      }
    }
  }
}
function set_status (msg)
{
 var obj = svgDocument.getElementById("status_text");
  var child;
 
  child = obj.firstChild;
  if ((child != null) && (child.nodeType == 3))
  {
    if ((msg != null) && (msg.length > 0))
    {
      child.data = msg;
    }
    else
    {
child.data = " ";
    }
  }
}
function zoomIn ()
{
    scale = scale + 0.8;
    if (scale > maxScale)
    {
       scale = maxScale;
    }
    transformMap();
    panUp();
    panUp();
    panUp();
    panUp();
    panUp();
    panUp();
    panUp();
    panUp();
    panUp();
    panUp();
    panUp();
    panUp();
}
function zoomOut ()
{
    scale = scale - 0.8;
    if (scale < 0.8)
    {
       scale = 0.8;
    }
    transformMap();
    panDown();
    panDown();
    panDown();
    panDown();
    panDown();
    panDown();
    panDown();
    panDown();
    panDown();
    panDown();
    panDown();
    panDown();
}
function panUp ()
{
    yOffset = yOffset + 20;
    transformMap();
}
function panDown ()
{
    yOffset = yOffset - 20;
    transformMap();
}
function panLeft ()
{
    xOffset = xOffset + 20;
    transformMap();
}
function panRight ()
{
    xOffset = xOffset - 20;
    transformMap();
}
function panRestore ()
{
    xOffset = 0;
    yOffset = 0;
    scale = 0.5;
    //obj = svgDocument.getElementById("zoom");
    //obj.setAttribute("x1", 0);
    //obj.setAttribute("x2", 0);
    transformMap();    
}
function doHighlight (evt, msg)
{
  var obj = evt.getTarget();
  obj.setAttribute("fill", "rgb(239,24,33)");
  set_status(msg);
}
function resetHighlight (evt)
{
  var obj = evt.getTarget();
  obj.setAttribute("fill", "rgb(99,154,206)");
  set_status(" ");
}
// ]]>
</script>
<defs>
<clipPath id="theClip">
<polygon points="1 61, 741 61, 741 665, 1 665"
style="fill: none;"/>
</clipPath>
</defs>
<!-- viewport outline -->
<rect x="0" y="61" width="742" height="606"
style="stroke: black; stroke-width: 1; fill: none;"/>
<!-- pathway graph style="clip-path: url(#theClip);" -->
<g style="clip-path: url(#theClip);">
<g id="Pathway"  transform="translate(0,60)">
<!-- prefile.include ends, begin pathway graph -->
<g id="stkecm;CMP_10705" class="graph">
</g>
<g id="graph0" class="graph" style="font-family:Times New Roman;font-size:7.23;"><title>G</title><g id="node1" class="node"><title>ADAM12</title><a xlink:href="ADAM12.html"><ellipse cx="29" cy="17" rx="22" ry="9" style="fill:turquoise;stroke:turquoise;"/><text text-anchor="middle" x="29" y="20" style="font-family:Times New Roman;"><![CDATA[ADAM12]]></text></a></g><g id="node2" class="node"><title>PIK3CA</title><a xlink:href="PIK3CA.html"><ellipse cx="382" cy="54" rx="20" ry="9" style="fill:turquoise;stroke:turquoise;"/><text text-anchor="middle" x="382" y="57" style="font-family:Times New Roman;"><![CDATA[PIK3CA]]></text></a></g><g id="edge2" class="edge"><title>ADAM12-&gt;PIK3CA</title><path style="fill:none;stroke:darkgreen;" d="M45,23C49,25 53,26 56,26 114,38 289,49 356,53"/><polygon style="fill:darkgreen;stroke:darkgreen;" points="356,52 362,53 356,54 356,52"/></g><g id="node34" class="node"><title>SHC1</title><a xlink:href="SHC1.html"><ellipse cx="216" cy="91" rx="14" ry="9" style="fill:turquoise;stroke:turquoise;"/><text text-anchor="middle" x="216" y="94" style="font-family:Times New Roman;"><![CDATA[SHC1]]></text></a></g><g id="edge34" class="edge"><title>PIK3CA-&gt;SHC1</title><path style="fill:none;stroke:#0000ff;" d="M359,57C331,60 279,69 236,82 234,83 232,84 230,85"/><polygon style="fill:#0000ff;stroke:#0000ff;" points="362,57 362,55 359,56 359,58 362,57"/><polygon style="fill:#0000ff;stroke:#0000ff;" points="227,84 228,86 231,86 230,84 227,84"/></g><g id="node36" class="node"><title>PIP2</title><a xlink:href="PIP2.html"><ellipse cx="255" cy="91" rx="13" ry="9" style="fill:turquoise;stroke:turquoise;"/><text text-anchor="middle" x="255" y="94" style="font-family:Times New Roman;"><![CDATA[PIP2]]></text></a></g><g id="edge36" class="edge"><title>PIK3CA-&gt;PIP2</title><path style="fill:none;stroke:darkgreen;" d="M363,58C341,62 304,71 273,82 272,83 271,83 270,84"/><polygon style="fill:darkgreen;stroke:darkgreen;" points="271,85 265,86 270,82 271,85"/></g><g id="node38" class="node"><title>PIP3</title><a xlink:href="PIP3.html"><ellipse cx="292" cy="91" rx="13" ry="9" style="fill:turquoise;stroke:turquoise;"/><text text-anchor="middle" x="292" y="94" style="font-family:Times New Roman;"><![CDATA[PIP3]]></text></a></g><g id="edge38" class="edge"><title>PIK3CA-&gt;PIP3</title><path style="fill:none;stroke:darkgreen;" d="M366,60C352,66 329,74 310,82 309,83 308,83 308,83"/><polygon style="fill:darkgreen;stroke:darkgreen;" points="308,84 303,86 307,82 308,84"/></g><g id="node40" class="node"><title>PTK2B</title><a xlink:href="PTK2B.html"><ellipse cx="334" cy="91" rx="19" ry="9" style="fill:turquoise;stroke:turquoise;"/><text text-anchor="middle" x="334" y="94" style="font-family:Times New Roman;"><![CDATA[PTK2B]]></text></a></g><g id="edge40" class="edge"><title>PIK3CA-&gt;PTK2B</title><path style="fill:none;stroke:darkgreen;" d="M372,62C365,68 355,75 348,81"/><polygon style="fill:darkgreen;stroke:darkgreen;" points="349,81 344,84 348,80 349,81"/></g><g id="node42" class="node"><title>PTPRA</title><a xlink:href="PTPRA.html"><ellipse cx="382" cy="91" rx="19" ry="9" style="fill:turquoise;stroke:turquoise;"/><text text-anchor="middle" x="382" y="94" style="font-family:Times New Roman;"><![CDATA[PTPRA]]></text></a></g><g id="edge42" class="edge"><title>PIK3CA-&gt;PTPRA</title><path style="fill:none;stroke:#0000ff;" d="M382,66C382,70 382,75 382,80"/><polygon style="fill:#0000ff;stroke:#0000ff;" points="384,64 381,64 381,66 384,66 384,64"/><polygon style="fill:#0000ff;stroke:#0000ff;" points="381,82 384,82 384,80 381,80 381,82"/></g><g id="node44" class="node"><title>SYK</title><a xlink:href="SYK.html"><ellipse cx="426" cy="91" rx="14" ry="9" style="fill:turquoise;stroke:turquoise;"/><text text-anchor="middle" x="426" y="94" style="font-family:Times New Roman;"><![CDATA[SYK]]></text></a></g><g id="edge44" class="edge"><title>PIK3CA-&gt;SYK</title><path style="fill:none;stroke:#0000ff;" d="M394,64C401,70 409,76 415,82"/><polygon style="fill:#0000ff;stroke:#0000ff;" points="393,61 391,64 394,65 395,63 393,61"/><polygon style="fill:#0000ff;stroke:#0000ff;" points="416,85 418,83 416,81 414,83 416,85"/></g><g id="node46" class="node"><title>TNS1</title><a xlink:href="TNS1.html"><ellipse cx="464" cy="91" rx="14" ry="9" style="fill:turquoise;stroke:turquoise;"/><text text-anchor="middle" x="464" y="94" style="font-family:Times New Roman;"><![CDATA[TNS1]]></text></a></g><g id="edge46" class="edge"><title>PIK3CA-&gt;TNS1</title><path style="fill:none;stroke:#0000ff;" d="M400,62C412,68 429,75 445,82 447,83 449,84 450,85"/><polygon style="fill:#0000ff;stroke:#0000ff;" points="398,60 397,62 399,63 400,61 398,60"/><polygon style="fill:#0000ff;stroke:#0000ff;" points="452,87 453,85 451,84 450,86 452,87"/></g><g id="node48" class="node"><title>TUBA1</title><a xlink:href="TUBA1.html"><ellipse cx="508" cy="91" rx="19" ry="9" style="fill:turquoise;stroke:turquoise;"/><text text-anchor="middle" x="508" y="94" style="font-family:Times New Roman;"><![CDATA[TUBA1]]></text></a></g><g id="edge48" class="edge"><title>PIK3CA-&gt;TUBA1</title><path style="fill:none;stroke:#0000ff;" d="M403,59C423,65 456,73 484,82 486,83 489,84 491,85"/><polygon style="fill:#0000ff;stroke:#0000ff;" points="400,58 400,60 403,60 403,58 400,58"/><polygon style="fill:#0000ff;stroke:#0000ff;" points="492,86 493,84 491,84 490,86 492,86"/></g><g id="node50" class="node"><title>VAV1</title><a xlink:href="VAV1.html"><ellipse cx="553" cy="91" rx="17" ry="9" style="fill:turquoise;stroke:turquoise;"/><text text-anchor="middle" x="553" y="94" style="font-family:Times New Roman;"><![CDATA[VAV1]]></text></a></g><g id="edge50" class="edge"><title>PIK3CA-&gt;VAV1</title><path style="fill:none;stroke:darkgreen;" d="M402,57C431,60 486,69 531,82 533,83 534,83 536,84"/><polygon style="fill:darkgreen;stroke:darkgreen;" points="536,82 540,85 535,85 536,82"/></g><g id="node4" class="node"><title>BCAR3</title><a xlink:href="BCAR3.html"><ellipse cx="81" cy="17" rx="19" ry="9" style="fill:turquoise;stroke:turquoise;"/><text text-anchor="middle" x="81" y="20" style="font-family:Times New Roman;"><![CDATA[BCAR3]]></text></a></g><g id="edge4" class="edge"><title>BCAR3-&gt;PIK3CA</title><path style="fill:none;stroke:darkgreen;" d="M95,23C98,24 102,26 105,26 152,38 296,49 356,52"/><polygon style="fill:darkgreen;stroke:darkgreen;" points="356,51 362,53 356,54 356,51"/></g><g id="node6" class="node"><title>CBL</title><a xlink:href="CBL.html"><ellipse cx="123" cy="17" rx="13" ry="9" style="fill:turquoise;stroke:turquoise;"/><text text-anchor="middle" x="123" y="20" style="font-family:Times New Roman;"><![CDATA[CBL]]></text></a></g><g id="edge6" class="edge"><title>CBL-&gt;PIK3CA</title><path style="fill:none;stroke:#ff0000;" d="M134,23C136,24 139,25 142,26 181,38 300,48 354,52"/><polyline style="fill:none;stroke:#ff0000;" points="354,56 354,49 "/></g><g id="node8" class="node"><title>SH3KBP1</title><a xlink:href="SH3KBP1.html"><ellipse cx="169" cy="17" rx="22" ry="9" style="fill:turquoise;stroke:turquoise;"/><text text-anchor="middle" x="169" y="20" style="font-family:Times New Roman;"><![CDATA[SH3KBP1]]></text></a></g><g id="edge8" class="edge"><title>SH3KBP1-&gt;PIK3CA</title><path style="fill:none;stroke:#0000ff;" d="M188,24C191,25 194,26 197,26 255,40 323,49 359,52"/><polygon style="fill:#0000ff;stroke:#0000ff;" points="186,22 185,24 187,25 188,23 186,22"/><polygon style="fill:#0000ff;stroke:#0000ff;" points="362,54 362,52 359,51 359,53 362,54"/></g><g id="node10" class="node"><title>CRKL</title><a xlink:href="CRKL.html"><ellipse cx="219" cy="17" rx="17" ry="9" style="fill:turquoise;stroke:turquoise;"/><text text-anchor="middle" x="219" y="20" style="font-family:Times New Roman;"><![CDATA[CRKL]]></text></a></g><g id="edge10" class="edge"><title>CRKL-&gt;PIK3CA</title><path style="fill:none;stroke:#0000ff;" d="M234,24C237,25 239,25 241,26 282,39 331,48 359,51"/><polygon style="fill:#0000ff;stroke:#0000ff;" points="233,22 232,24 234,25 235,23 233,22"/><polygon style="fill:#0000ff;stroke:#0000ff;" points="362,53 362,51 359,50 359,52 362,53"/></g><g id="node12" class="node"><title>VIL2</title><a xlink:href="VIL2.html"><ellipse cx="261" cy="17" rx="14" ry="9" style="fill:turquoise;stroke:turquoise;"/><text text-anchor="middle" x="261" y="20" style="font-family:Times New Roman;"><![CDATA[VIL2]]></text></a></g><g id="edge12" class="edge"><title>VIL2-&gt;PIK3CA</title><path style="fill:none;stroke:#0000ff;" d="M274,24C276,25 278,25 280,26 308,37 340,45 361,50"/><polygon style="fill:#0000ff;stroke:#0000ff;" points="273,22 272,24 274,25 275,23 273,22"/><polygon style="fill:#0000ff;stroke:#0000ff;" points="364,51 364,49 361,49 361,51 364,51"/></g><g id="node14" class="node"><title>PTK2</title><a xlink:href="PTK2.html"><ellipse cx="301" cy="17" rx="16" ry="9" style="fill:turquoise;stroke:turquoise;"/><text text-anchor="middle" x="301" y="20" style="font-family:Times New Roman;"><![CDATA[PTK2]]></text></a></g><g id="edge14" class="edge"><title>PTK2-&gt;PIK3CA</title><path style="fill:none;stroke:#0000ff;" d="M316,24C330,30 350,40 365,46"/><polygon style="fill:#0000ff;stroke:#0000ff;" points="315,22 313,24 316,25 317,23 315,22"/><polygon style="fill:#0000ff;stroke:#0000ff;" points="367,49 368,46 366,45 365,48 367,49"/></g><g id="node16" class="node"><title>FYN</title><a xlink:href="FYN.html"><ellipse cx="341" cy="17" rx="14" ry="9" style="fill:turquoise;stroke:turquoise;"/><text text-anchor="middle" x="341" y="20" style="font-family:Times New Roman;"><![CDATA[FYN]]></text></a></g><g id="edge16" class="edge"><title>FYN-&gt;PIK3CA</title><path style="fill:none;stroke:#0000ff;" d="M351,26C357,32 365,38 371,44"/><polygon style="fill:#0000ff;stroke:#0000ff;" points="351,24 349,26 351,28 353,26 351,24"/><polygon style="fill:#0000ff;stroke:#0000ff;" points="372,47 374,45 372,43 370,45 372,47"/></g><g id="node18" class="node"><title>GAB1</title><a xlink:href="GAB1.html"><ellipse cx="382" cy="17" rx="16" ry="9" style="fill:turquoise;stroke:turquoise;"/><text text-anchor="middle" x="382" y="20" style="font-family:Times New Roman;"><![CDATA[GAB1]]></text></a></g><g id="edge18" class="edge"><title>GAB1-&gt;PIK3CA</title><path style="fill:none;stroke:#0000ff;" d="M382,29C382,33 382,38 382,42"/><polygon style="fill:#0000ff;stroke:#0000ff;" points="384,26 381,26 381,29 384,29 384,26"/><polygon style="fill:#0000ff;stroke:#0000ff;" points="381,45 384,45 384,42 381,42 381,45"/></g><g id="node20" class="node"><title>GRB2</title><a xlink:href="GRB2.html"><ellipse cx="425" cy="17" rx="17" ry="9" style="fill:turquoise;stroke:turquoise;"/><text text-anchor="middle" x="425" y="20" style="font-family:Times New Roman;"><![CDATA[GRB2]]></text></a></g><g id="edge20" class="edge"><title>GRB2-&gt;PIK3CA</title><path style="fill:none;stroke:#0000ff;" d="M414,26C407,31 400,39 394,44"/><polygon style="fill:#0000ff;stroke:#0000ff;" points="417,26 415,24 413,26 415,28 417,26"/><polygon style="fill:#0000ff;stroke:#0000ff;" points="391,45 393,47 395,45 393,43 391,45"/></g><g id="node22" class="node"><title>HRAS</title><a xlink:href="HRAS.html"><ellipse cx="469" cy="17" rx="17" ry="9" style="fill:turquoise;stroke:turquoise;"/><text text-anchor="middle" x="469" y="20" style="font-family:Times New Roman;"><![CDATA[HRAS]]></text></a></g><g id="edge22" class="edge"><title>HRAS-&gt;PIK3CA</title><path style="fill:none;stroke:darkgreen;" d="M455,23C441,29 418,39 402,45"/><polygon style="fill:darkgreen;stroke:darkgreen;" points="402,46 397,48 401,44 402,46"/></g><g id="node24" class="node"><title>INSR</title><a xlink:href="INSR.html"><ellipse cx="511" cy="17" rx="15" ry="9" style="fill:turquoise;stroke:turquoise;"/><text text-anchor="middle" x="511" y="20" style="font-family:Times New Roman;"><![CDATA[INSR]]></text></a></g><g id="edge24" class="edge"><title>INSR-&gt;PIK3CA</title><path style="fill:none;stroke:#0000ff;" d="M497,24C495,25 493,25 491,26 461,37 426,45 404,50"/><polygon style="fill:#0000ff;stroke:#0000ff;" points="500,24 499,22 496,23 497,25 500,24"/><polygon style="fill:#0000ff;stroke:#0000ff;" points="401,50 401,52 404,51 404,49 401,50"/></g><g id="node26" class="node"><title>IRS1</title><a xlink:href="IRS1.html"><ellipse cx="550" cy="17" rx="13" ry="9" style="fill:turquoise;stroke:turquoise;"/><text text-anchor="middle" x="550" y="20" style="font-family:Times New Roman;"><![CDATA[IRS1]]></text></a></g><g id="edge26" class="edge"><title>IRS1-&gt;PIK3CA</title><path style="fill:none;stroke:#0000ff;" d="M537,24C535,25 534,26 531,26 488,41 435,49 405,52"/><polygon style="fill:#0000ff;stroke:#0000ff;" points="540,24 539,22 537,23 538,25 540,24"/><polygon style="fill:#0000ff;stroke:#0000ff;" points="402,51 402,53 405,53 405,51 402,51"/></g><g id="node28" class="node"><title>LYN</title><a xlink:href="LYN.html"><ellipse cx="588" cy="17" rx="14" ry="9" style="fill:turquoise;stroke:turquoise;"/><text text-anchor="middle" x="588" y="20" style="font-family:Times New Roman;"><![CDATA[LYN]]></text></a></g><g id="edge28" class="edge"><title>LYN-&gt;PIK3CA</title><path style="fill:none;stroke:#0000ff;" d="M575,24C573,25 571,25 569,26 511,44 442,51 406,53"/><polygon style="fill:#0000ff;stroke:#0000ff;" points="577,24 576,22 574,23 575,25 577,24"/><polygon style="fill:#0000ff;stroke:#0000ff;" points="403,52 403,54 405,54 405,52 403,52"/></g><g id="node30" class="node"><title>RASA1</title><a xlink:href="RASA1.html"><ellipse cx="631" cy="17" rx="18" ry="9" style="fill:turquoise;stroke:turquoise;"/><text text-anchor="middle" x="631" y="20" style="font-family:Times New Roman;"><![CDATA[RASA1]]></text></a></g><g id="edge30" class="edge"><title>RASA1-&gt;PIK3CA</title><path style="fill:none;stroke:#0000ff;" d="M615,24C613,25 610,26 608,26 536,45 447,51 406,54"/><polygon style="fill:#0000ff;stroke:#0000ff;" points="618,24 617,22 614,23 615,25 618,24"/><polygon style="fill:#0000ff;stroke:#0000ff;" points="403,52 403,55 405,55 405,52 403,52"/></g><g id="node32" class="node"><title>PXN</title><a xlink:href="PXN.html"><ellipse cx="674" cy="17" rx="14" ry="9" style="fill:turquoise;stroke:turquoise;"/><text text-anchor="middle" x="674" y="20" style="font-family:Times New Roman;"><![CDATA[PXN]]></text></a></g><g id="edge32" class="edge"><title>PXN-&gt;PIK3CA</title><path style="fill:none;stroke:#0000ff;" d="M661,24C659,25 656,25 654,26 608,40 463,49 405,53"/><polygon style="fill:#0000ff;stroke:#0000ff;" points="663,24 662,22 660,23 661,25 663,24"/><polygon style="fill:#0000ff;stroke:#0000ff;" points="403,52 403,54 405,54 405,52 403,52"/></g><g id="node52" class="node"><title>SRC</title><a xlink:href="SRC.html"><ellipse cx="712" cy="17" rx="13" ry="9" style="fill:turquoise;stroke:turquoise;"/><text text-anchor="middle" x="712" y="20" style="font-family:Times New Roman;"><![CDATA[SRC]]></text></a></g><g id="edge52" class="edge"><title>SRC-&gt;PIK3CA</title><path style="fill:none;stroke:darkgreen;" d="M702,23C699,25 696,26 694,26 640,41 473,50 408,53"/><polygon style="fill:darkgreen;stroke:darkgreen;" points="408,54 403,53 408,52 408,54"/></g></g></g></g>
<!-- navigation controls -->
<g id="navbox">
	<rect x="0" y="0" width="742" height="60"
		 style="fill:rgb(206,207,206);stroke:rgb(0,0,0);stroke-width:1"/>

	<polygon id="pan_right"
        onmouseup="panRight()"
        onmouseover="doHighlight(evt, 'Click to pan to the right')"
        onmouseout="resetHighlight(evt)"
		points="28.0732,13 32,20.5 28.0732,28 28.0732,23.4412 25,23.4412 25,17.4118 28.0732,17.4118"
		 transform="matrix(3.39111 0 0 2.98838 -12.6265 -29.7101)"
         fill="rgb(99,154,206)"
		 style="stroke:rgb(0,0,0);stroke-width:0.5"/>
	<polygon id="pan_left"
        onmouseup="panLeft()"
        onmouseover="doHighlight(evt, 'Click to pan to the left')"
        onmouseout="resetHighlight(evt)"
		points="123.991,25 120.064,32.5 123.991,40 123.991,35.4412 127.064,35.4412 127.064,29.4118
			123.991,29.4118" transform="matrix(3.39111 0 0 2.98838 -404.865 -65.5706)"
         fill="rgb(99,154,206)"
		 style="stroke:rgb(0,0,0);stroke-width:0.5"/>
	<polygon id="pan_down"
        onmouseup="panDown()"
        onmouseover="doHighlight(evt, 'Click to pan down')"
        onmouseout="resetHighlight(evt)"
		points="116.032,32.0408 123.532,35.9678 131.032,32.0408 126.473,32.0408 126.473,28.9678 120.444,28.9678
			120.444,32.0408" transform="matrix(3.39111 0 0 2.98838 -369.822 -50.6287)"
         fill="rgb(99,154,206)"
		 style="stroke:rgb(0,0,0);stroke-width:0.5"/>
	<polygon id="pan_up"
        onmouseup="panUp()"
  onmouseover="doHighlight(evt, 'Click to pan up')"
        onmouseout="resetHighlight(evt)"
		points="116.032,32.0408 123.532,35.9678 131.032,32.0408 126.473,32.0408 126.473,28.9678 120.444,28.9678
			120.444,32.0408" transform="matrix(3.39111 0 0 -2.98838 -369.823 111.74)"
         fill="rgb(99,154,206)"
		 style="stroke:rgb(0,0,0);stroke-width:0.5"/>
	<g id="go_home" 
         onmouseup="panRestore()" 
         onmouseover="doHighlight(evt, 'Click to restore graph to original position')"
         onmouseout="resetHighlight(evt)"
         fill="rgb(99,154,206)"
         transform="matrix(1 0 0 1 0 -0.333333)">
		<rect x="196" y="11" width="26" height="26"
			transform="translate(-19.1111 -2.66667)"
			 style="stroke:rgb(0,0,0);stroke-width:1"/>
		<line x1="182" y1="16" x2="182" y2="28"
			transform="matrix(1 0 0 1 2.22222 0.444444)"
			 style="fill:none;stroke:rgb(0,0,0);stroke-width:2"/>
		<line x1="187" y1="22" x2="187" y2="28"
			transform="matrix(1 0 0 1 2.22222 0.444444)"
			 style="fill:none;stroke:rgb(0,0,0);stroke-width:2"/>
	<line x1="192" y1="13" x2="192" y2="28"
			transform="matrix(1 0 0 1 2.22222 0.444444)"
			 style="fill:none;stroke:rgb(0,0,0);stroke-width:2"/>
		<line x1="182" y1="28" x2="192" y2="28"
			transform="matrix(1 0 0 1 2.22222 0.444444)"
	style="fill:none;stroke:rgb(0,0,0);stroke-width:2"/>
		<line x1="189" y1="12" x2="179" y2="21"
			 style="fill:none;stroke:rgb(0,0,0);stroke-width:2"/>
		<line x1="188" y1="12" x2="199" y2="20"
			 style="fill:none;stroke:rgb(0,0,0);stroke-width:2"/>
	</g>
	<g id="zoom_out" onmouseup="zoomOut()" 
             onmouseover="doHighlight(evt, 'Click to zoom out')"
             onmouseout="resetHighlight(evt)"
             fill="rgb(99,154,206)"
             transform="matrix(1 0 0 1 0 0)">
		<rect x="116" y="8" width="26" height="26"
			 style="stroke:rgb(0,0,0);stroke-width:1"/>
		<ellipse cx="126" cy="18" rx="6" ry="6"
			 style="stroke:rgb(0,0,0);stroke-width:1"/>
		<line x1="130" y1="23" x2="137" y2="29"
			transform="matrix(1 0 0 1 0.888889 -0.888889)"
			 style="fill:none;stroke:rgb(0,0,0);stroke-width:2"/>
		<line x1="123" y1="18" x2="129" y2="18"
			 style="fill:none;stroke:rgb(0,0,0);stroke-width:2"/>
	</g>
	<g id="zoom_in" onmouseup="zoomIn()" 
             onmouseover="doHighlight(evt, 'Click to zoom in')"
             onmouseout="resetHighlight(evt)"
             fill="rgb(99,154,206)"
             transform="matrix(1 0 0 1 0.888889 -0.444444)">
		<rect x="116" y="8" width="26" height="26"
			transform="matrix(1 0 0 1 29.7778 0.444444)"
			 style="stroke:rgb(0,0,0);stroke-width:1"/>
		<ellipse cx="126" cy="18" rx="6" ry="6"
			transform="matrix(1 0 0 1 29.7778 0.444444)"
			 style="stroke:rgb(0,0,0);stroke-width:1"/>
		<line x1="130" y1="23" x2="137" y2="29"
			transform="matrix(1 0 0 1 30.6667 -0.444445)"
		style="fill:none;stroke:rgb(0,0,0);stroke-width:2"/>
		<line x1="123" y1="18" x2="129" y2="18"
			transform="matrix(1 0 0 1 29.7778 0.444444)"
			 style="fill:none;stroke:rgb(0,0,0);stroke-width:2"/>
		<line x1="156" y1="15" x2="156" y2="22"
			 style="fill:none;stroke:rgb(0,0,0);stroke-width:2"/>
	</g>
	<g>
		<rect x="117" y="40" width="452" height="14"
			transform="matrix(1.54201 0 0 1 -64.1436 -0.222222)"
			 style="fill:rgb(192,192,192);stroke:rgb(0,0,0);stroke-width:1"/>
		<text id="status_text" x="183px" y="48px"
			transform="matrix(1 0 0 1 -63.5556 3.00778)"
			 style="fill:rgb(0,0,0);font-size:14;font-family:Arial"> </text>
	</g>
</g>	
</svg>