<?xml version="1.0" encoding="UTF-8" standalone="no"?><!DOCTYPE svg PUBLIC "-//W3C//DTD SVG 1.0//EN" "http://www.w3.org/TR/2001/REC-SVG-20010904/DTD/svg10.dtd" [ <!ATTLIST svg xmlns:xlink CDATA #FIXED "http://www.w3.org/1999/xlink">]><!-- Generated by WinGraphviz version ver1.02.23, 08/01/2003 (08/04/2003)     For user: Avi Ma'ayan   Title: G    Pages: 1 --><!--="735px" height="175px" xmlns="http://www.w3.org/2000/svg" --><svg onload="init(evt)" width="735px" height="600px" xmlns="http://www.w3.org/2000/svg" xmlns:xlink="http://www.w3.org/1999/xlink">
<script type="text/ecmascript">
<![CDATA[
var svgDocument;
var zoomAmt;
var xOffset;
var yOffset;
var scale;
var maxScale;
var imageWidth;
var imageHeight;
function init(evt)
{
    svgDocument = evt.getTarget().getOwnerDocument();
    zoomAmt = 0;
    xOffset = 0;
    yOffset = 60;
    scale = 0.8;
    maxScale = 10;
    imageWidth = 742;
    imageHeight = 606;
    panRestore();
    //panUp();
}
function transformMap ()
{
    var obj = svgDocument.getElementById("Pathway");
    var centerX = imageWidth  / 2.0;
    var centerY = imageHeight / 2.0;
    var adjustX = (-centerX * (scale - 0.8)) + xOffset;
    var adjustY = (-centerY * (scale - 0.8)) + yOffset;
    var transParms = 'translate(' + adjustX + ',' + adjustY + ') ';
    transParms += 'scale(' + scale + ')';
    // alert(transParms);
    obj.setAttribute("transform", transParms); 
}
function click_node(id)
{
    var testx = parent.click_node;
    if (typeof(testx) == "function")
    {
		parent.click_node(id);
    }
}
function click_relation(id)
{
    var testx = parent.click_relation;
    if (typeof(testx) == "function")
    {
        parent.click_relation(id);
    }
}
function click_pathway(toId, fromId)
{
    var testx = parent.click_pathway;
    if (typeof(testx) == "function")
    {
	parent.click_pathway(toId, fromId);
    }
}
function check_interpath(evt, pathid)
{
  var obj = evt.getTarget();
  var testx = parent.is_frompath;
  var child = obj.firstChild;
  if (typeof(testx) == "function")
  {
    if (parent.is_frompath(pathid))
    {
      while (child != null)
      {
        if (child.nodeType == 1)
        {
          if ((child.localName == "g") || (child.localName == "polyline"))
          {
            child.setAttribute("style", "fill:none;stroke:red");
          }
          else if (child.localName == "polygon")
          {
            child.setAttribute("style", "fill:red;stroke:red");
          }
        }
        child = child.nextSibling;
      }
    }
  }
}
function set_status (msg)
{
 var obj = svgDocument.getElementById("status_text");
  var child;
 
  child = obj.firstChild;
  if ((child != null) && (child.nodeType == 3))
  {
    if ((msg != null) && (msg.length > 0))
    {
      child.data = msg;
    }
    else
    {
child.data = " ";
    }
  }
}
function zoomIn ()
{
    scale = scale + 0.8;
    if (scale > maxScale)
    {
       scale = maxScale;
    }
    transformMap();
    panUp();
    panUp();
    panUp();
    panUp();
    panUp();
    panUp();
    panUp();
    panUp();
    panUp();
    panUp();
    panUp();
    panUp();
}
function zoomOut ()
{
    scale = scale - 0.8;
    if (scale < 0.8)
    {
       scale = 0.8;
    }
    transformMap();
    panDown();
    panDown();
    panDown();
    panDown();
    panDown();
    panDown();
    panDown();
    panDown();
    panDown();
    panDown();
    panDown();
    panDown();
}
function panUp ()
{
    yOffset = yOffset + 20;
    transformMap();
}
function panDown ()
{
    yOffset = yOffset - 20;
    transformMap();
}
function panLeft ()
{
    xOffset = xOffset + 20;
    transformMap();
}
function panRight ()
{
    xOffset = xOffset - 20;
    transformMap();
}
function panRestore ()
{
    xOffset = 0;
    yOffset = 0;
    scale = 0.5;
    //obj = svgDocument.getElementById("zoom");
    //obj.setAttribute("x1", 0);
    //obj.setAttribute("x2", 0);
    transformMap();    
}
function doHighlight (evt, msg)
{
  var obj = evt.getTarget();
  obj.setAttribute("fill", "rgb(239,24,33)");
  set_status(msg);
}
function resetHighlight (evt)
{
  var obj = evt.getTarget();
  obj.setAttribute("fill", "rgb(99,154,206)");
  set_status(" ");
}
// ]]>
</script>
<defs>
<clipPath id="theClip">
<polygon points="1 61, 741 61, 741 665, 1 665"
style="fill: none;"/>
</clipPath>
</defs>
<!-- viewport outline -->
<rect x="0" y="61" width="742" height="606"
style="stroke: black; stroke-width: 1; fill: none;"/>
<!-- pathway graph style="clip-path: url(#theClip);" -->
<g style="clip-path: url(#theClip);">
<g id="Pathway"  transform="translate(0,60)">
<!-- prefile.include ends, begin pathway graph -->
<g id="stkecm;CMP_10705" class="graph">
</g>
<g id="graph0" class="graph" style="font-family:Times New Roman;font-size:11.51;"><title>G</title><g id="node1" class="node"><title>PIK3CA</title><a xlink:href="PIK3CA.html"><ellipse cx="323" cy="25" rx="32" ry="14" style="fill:turquoise;stroke:turquoise;"/><text text-anchor="middle" x="323" y="29" style="font-family:Times New Roman;"><![CDATA[PIK3CA]]></text></a></g><g id="node2" class="node"><title>PIP2</title><a xlink:href="PIP2.html"><ellipse cx="364" cy="84" rx="22" ry="14" style="fill:turquoise;stroke:turquoise;"/><text text-anchor="middle" x="364" y="88" style="font-family:Times New Roman;"><![CDATA[PIP2]]></text></a></g><g id="edge2" class="edge"><title>PIK3CA-&gt;PIP2</title><path style="fill:none;stroke:darkgreen;" d="M333,39C338,46 345,56 350,64"/><polygon style="fill:darkgreen;stroke:darkgreen;" points="351,62 354,70 348,65 351,62"/></g><g id="node4" class="node"><title>VIL2</title><a xlink:href="VIL2.html"><ellipse cx="30" cy="143" rx="23" ry="14" style="fill:turquoise;stroke:turquoise;"/><text text-anchor="middle" x="30" y="148" style="font-family:Times New Roman;"><![CDATA[VIL2]]></text></a></g><g id="edge4" class="edge"><title>PIP2-&gt;VIL2</title><path style="fill:none;stroke:darkgreen;" d="M342,85C291,88 163,98 61,129 60,129 57,130 55,131"/><polygon style="fill:darkgreen;stroke:darkgreen;" points="56,133 48,134 55,129 56,133"/></g><g id="node6" class="node"><title>FLNA</title><a xlink:href="FLNA.html"><ellipse cx="97" cy="143" rx="27" ry="14" style="fill:turquoise;stroke:turquoise;"/><text text-anchor="middle" x="97" y="148" style="font-family:Times New Roman;"><![CDATA[FLNA]]></text></a></g><g id="edge6" class="edge"><title>PIP2-&gt;FLNA</title><path style="fill:none;stroke:#ff0000;" d="M342,87C300,93 208,106 132,129 131,129 129,129 129,130"/><polyline style="fill:none;stroke:#ff0000;" points="128,124 132,136 "/></g><g id="node8" class="node"><title>AKT1</title><a xlink:href="AKT1.html"><ellipse cx="165" cy="143" rx="25" ry="14" style="fill:turquoise;stroke:turquoise;"/><text text-anchor="middle" x="165" y="148" style="font-family:Times New Roman;"><![CDATA[AKT1]]></text></a></g><g id="edge8" class="edge"><title>PIP2-&gt;AKT1</title><path style="fill:none;stroke:darkgreen;" d="M342,89C310,96 249,111 198,129 196,129 194,130 192,131"/><polygon style="fill:darkgreen;stroke:darkgreen;" points="193,133 185,134 191,129 193,133"/></g><g id="node10" class="node"><title>PFN1</title><a xlink:href="PFN1.html"><ellipse cx="229" cy="143" rx="23" ry="14" style="fill:turquoise;stroke:turquoise;"/><text text-anchor="middle" x="229" y="148" style="font-family:Times New Roman;"><![CDATA[PFN1]]></text></a></g><g id="edge10" class="edge"><title>PIP2-&gt;PFN1</title><path style="fill:none;stroke:#ff0000;" d="M345,93C323,101 290,116 260,129 259,129 258,129 258,129"/><polyline style="fill:none;stroke:#ff0000;" points="256,124 262,134 "/></g><g id="node12" class="node"><title>SDC4</title><a xlink:href="SDC4.html"><ellipse cx="293" cy="143" rx="25" ry="14" style="fill:turquoise;stroke:turquoise;"/><text text-anchor="middle" x="293" y="148" style="font-family:Times New Roman;"><![CDATA[SDC4]]></text></a></g><g id="edge12" class="edge"><title>PIP2-&gt;SDC4</title><path style="fill:none;stroke:darkgreen;" d="M350,96C339,104 325,116 314,126"/><polygon style="fill:darkgreen;stroke:darkgreen;" points="315,127 308,131 313,125 315,127"/></g><g id="node14" class="node"><title>SDCBP</title><a xlink:href="SDCBP.html"><ellipse cx="364" cy="143" rx="30" ry="14" style="fill:turquoise;stroke:turquoise;"/><text text-anchor="middle" x="364" y="148" style="font-family:Times New Roman;"><![CDATA[SDCBP]]></text></a></g><g id="edge14" class="edge"><title>PIP2-&gt;SDCBP</title><path style="fill:none;stroke:darkgreen;" d="M364,99C364,106 364,113 364,120"/><polygon style="fill:darkgreen;stroke:darkgreen;" points="366,120 364,129 362,120 366,120"/></g><g id="node16" class="node"><title>TLN1</title><a xlink:href="TLN1.html"><ellipse cx="434" cy="143" rx="24" ry="14" style="fill:turquoise;stroke:turquoise;"/><text text-anchor="middle" x="434" y="148" style="font-family:Times New Roman;"><![CDATA[TLN1]]></text></a></g><g id="edge16" class="edge"><title>PIP2-&gt;TLN1</title><path style="fill:none;stroke:darkgreen;" d="M378,96C388,104 402,116 414,126"/><polygon style="fill:darkgreen;stroke:darkgreen;" points="415,125 420,131 412,127 415,125"/></g><g id="node18" class="node"><title>TIAM1</title><a xlink:href="TIAM1.html"><ellipse cx="502" cy="143" rx="28" ry="14" style="fill:turquoise;stroke:turquoise;"/><text text-anchor="middle" x="502" y="148" style="font-family:Times New Roman;"><![CDATA[TIAM1]]></text></a></g><g id="edge18" class="edge"><title>PIP2-&gt;TIAM1</title><path style="fill:none;stroke:darkgreen;" d="M383,93C406,102 445,120 473,131"/><polygon style="fill:darkgreen;stroke:darkgreen;" points="473,129 480,134 471,133 473,129"/></g><g id="node20" class="node"><title>VCL</title><a xlink:href="VCL.html"><ellipse cx="568" cy="143" rx="23" ry="14" style="fill:turquoise;stroke:turquoise;"/><text text-anchor="middle" x="568" y="148" style="font-family:Times New Roman;"><![CDATA[VCL]]></text></a></g><g id="edge20" class="edge"><title>PIP2-&gt;VCL</title><path style="fill:none;stroke:#ff0000;" d="M385,88C419,95 484,109 538,129 539,129 540,129 540,129"/><polyline style="fill:none;stroke:#ff0000;" points="536,134 542,124 "/></g><g id="node22" class="node"><title>DDEF1</title><a xlink:href="DDEF1.html"><ellipse cx="635" cy="143" rx="28" ry="14" style="fill:turquoise;stroke:turquoise;"/><text text-anchor="middle" x="635" y="148" style="font-family:Times New Roman;"><![CDATA[DDEF1]]></text></a></g><g id="edge22" class="edge"><title>PIP2-&gt;DDEF1</title><path style="fill:none;stroke:darkgreen;" d="M386,87C428,93 522,106 599,129 601,129 604,130 606,131"/><polygon style="fill:darkgreen;stroke:darkgreen;" points="606,129 613,134 605,133 606,129"/></g><g id="node24" class="node"><title>PLD1</title><a xlink:href="PLD1.html"><ellipse cx="702" cy="143" rx="23" ry="14" style="fill:turquoise;stroke:turquoise;"/><text text-anchor="middle" x="702" y="148" style="font-family:Times New Roman;"><![CDATA[PLD1]]></text></a></g><g id="edge24" class="edge"><title>PIP2-&gt;PLD1</title><path style="fill:none;stroke:darkgreen;" d="M386,85C438,88 568,97 671,129 673,129 675,130 677,131"/><polygon style="fill:darkgreen;stroke:darkgreen;" points="677,129 684,134 676,133 677,129"/></g><g id="node26" class="node"><title>PIP5K1C</title><a xlink:href="PIP5K1C.html"><ellipse cx="405" cy="25" rx="33" ry="14" style="fill:turquoise;stroke:turquoise;"/><text text-anchor="middle" x="405" y="29" style="font-family:Times New Roman;"><![CDATA[PIP5K1C]]></text></a></g><g id="edge26" class="edge"><title>PIP5K1C-&gt;PIP2</title><path style="fill:none;stroke:darkgreen;" d="M395,39C390,46 383,56 378,64"/><polygon style="fill:darkgreen;stroke:darkgreen;" points="379,65 374,70 376,62 379,65"/></g></g></g></g>
<!-- navigation controls -->
<g id="navbox">
	<rect x="0" y="0" width="742" height="60"
		 style="fill:rgb(206,207,206);stroke:rgb(0,0,0);stroke-width:1"/>

	<polygon id="pan_right"
        onmouseup="panRight()"
        onmouseover="doHighlight(evt, 'Click to pan to the right')"
        onmouseout="resetHighlight(evt)"
		points="28.0732,13 32,20.5 28.0732,28 28.0732,23.4412 25,23.4412 25,17.4118 28.0732,17.4118"
		 transform="matrix(3.39111 0 0 2.98838 -12.6265 -29.7101)"
         fill="rgb(99,154,206)"
		 style="stroke:rgb(0,0,0);stroke-width:0.5"/>
	<polygon id="pan_left"
        onmouseup="panLeft()"
        onmouseover="doHighlight(evt, 'Click to pan to the left')"
        onmouseout="resetHighlight(evt)"
		points="123.991,25 120.064,32.5 123.991,40 123.991,35.4412 127.064,35.4412 127.064,29.4118
			123.991,29.4118" transform="matrix(3.39111 0 0 2.98838 -404.865 -65.5706)"
         fill="rgb(99,154,206)"
		 style="stroke:rgb(0,0,0);stroke-width:0.5"/>
	<polygon id="pan_down"
        onmouseup="panDown()"
        onmouseover="doHighlight(evt, 'Click to pan down')"
        onmouseout="resetHighlight(evt)"
		points="116.032,32.0408 123.532,35.9678 131.032,32.0408 126.473,32.0408 126.473,28.9678 120.444,28.9678
			120.444,32.0408" transform="matrix(3.39111 0 0 2.98838 -369.822 -50.6287)"
         fill="rgb(99,154,206)"
		 style="stroke:rgb(0,0,0);stroke-width:0.5"/>
	<polygon id="pan_up"
        onmouseup="panUp()"
  onmouseover="doHighlight(evt, 'Click to pan up')"
        onmouseout="resetHighlight(evt)"
		points="116.032,32.0408 123.532,35.9678 131.032,32.0408 126.473,32.0408 126.473,28.9678 120.444,28.9678
			120.444,32.0408" transform="matrix(3.39111 0 0 -2.98838 -369.823 111.74)"
         fill="rgb(99,154,206)"
		 style="stroke:rgb(0,0,0);stroke-width:0.5"/>
	<g id="go_home" 
         onmouseup="panRestore()" 
         onmouseover="doHighlight(evt, 'Click to restore graph to original position')"
         onmouseout="resetHighlight(evt)"
         fill="rgb(99,154,206)"
         transform="matrix(1 0 0 1 0 -0.333333)">
		<rect x="196" y="11" width="26" height="26"
			transform="translate(-19.1111 -2.66667)"
			 style="stroke:rgb(0,0,0);stroke-width:1"/>
		<line x1="182" y1="16" x2="182" y2="28"
			transform="matrix(1 0 0 1 2.22222 0.444444)"
			 style="fill:none;stroke:rgb(0,0,0);stroke-width:2"/>
		<line x1="187" y1="22" x2="187" y2="28"
			transform="matrix(1 0 0 1 2.22222 0.444444)"
			 style="fill:none;stroke:rgb(0,0,0);stroke-width:2"/>
	<line x1="192" y1="13" x2="192" y2="28"
			transform="matrix(1 0 0 1 2.22222 0.444444)"
			 style="fill:none;stroke:rgb(0,0,0);stroke-width:2"/>
		<line x1="182" y1="28" x2="192" y2="28"
			transform="matrix(1 0 0 1 2.22222 0.444444)"
	style="fill:none;stroke:rgb(0,0,0);stroke-width:2"/>
		<line x1="189" y1="12" x2="179" y2="21"
			 style="fill:none;stroke:rgb(0,0,0);stroke-width:2"/>
		<line x1="188" y1="12" x2="199" y2="20"
			 style="fill:none;stroke:rgb(0,0,0);stroke-width:2"/>
	</g>
	<g id="zoom_out" onmouseup="zoomOut()" 
             onmouseover="doHighlight(evt, 'Click to zoom out')"
             onmouseout="resetHighlight(evt)"
             fill="rgb(99,154,206)"
             transform="matrix(1 0 0 1 0 0)">
		<rect x="116" y="8" width="26" height="26"
			 style="stroke:rgb(0,0,0);stroke-width:1"/>
		<ellipse cx="126" cy="18" rx="6" ry="6"
			 style="stroke:rgb(0,0,0);stroke-width:1"/>
		<line x1="130" y1="23" x2="137" y2="29"
			transform="matrix(1 0 0 1 0.888889 -0.888889)"
			 style="fill:none;stroke:rgb(0,0,0);stroke-width:2"/>
		<line x1="123" y1="18" x2="129" y2="18"
			 style="fill:none;stroke:rgb(0,0,0);stroke-width:2"/>
	</g>
	<g id="zoom_in" onmouseup="zoomIn()" 
             onmouseover="doHighlight(evt, 'Click to zoom in')"
             onmouseout="resetHighlight(evt)"
             fill="rgb(99,154,206)"
             transform="matrix(1 0 0 1 0.888889 -0.444444)">
		<rect x="116" y="8" width="26" height="26"
			transform="matrix(1 0 0 1 29.7778 0.444444)"
			 style="stroke:rgb(0,0,0);stroke-width:1"/>
		<ellipse cx="126" cy="18" rx="6" ry="6"
			transform="matrix(1 0 0 1 29.7778 0.444444)"
			 style="stroke:rgb(0,0,0);stroke-width:1"/>
		<line x1="130" y1="23" x2="137" y2="29"
			transform="matrix(1 0 0 1 30.6667 -0.444445)"
		style="fill:none;stroke:rgb(0,0,0);stroke-width:2"/>
		<line x1="123" y1="18" x2="129" y2="18"
			transform="matrix(1 0 0 1 29.7778 0.444444)"
			 style="fill:none;stroke:rgb(0,0,0);stroke-width:2"/>
		<line x1="156" y1="15" x2="156" y2="22"
			 style="fill:none;stroke:rgb(0,0,0);stroke-width:2"/>
	</g>
	<g>
		<rect x="117" y="40" width="452" height="14"
			transform="matrix(1.54201 0 0 1 -64.1436 -0.222222)"
			 style="fill:rgb(192,192,192);stroke:rgb(0,0,0);stroke-width:1"/>
		<text id="status_text" x="183px" y="48px"
			transform="matrix(1 0 0 1 -63.5556 3.00778)"
			 style="fill:rgb(0,0,0);font-size:14;font-family:Arial"> </text>
	</g>
</g>	
</svg>