<?xml version="1.0" encoding="UTF-8" standalone="no"?><!DOCTYPE svg PUBLIC "-//W3C//DTD SVG 1.0//EN" "http://www.w3.org/TR/2001/REC-SVG-20010904/DTD/svg10.dtd" [ <!ATTLIST svg xmlns:xlink CDATA #FIXED "http://www.w3.org/1999/xlink">]><!-- Generated by WinGraphviz version ver1.02.23, 08/01/2003 (08/04/2003)     For user: Avi Ma'ayan   Title: G    Pages: 1 --><svg width="602px" height="276px" xmlns="http://www.w3.org/2000/svg" xmlns:xlink="http://www.w3.org/1999/xlink"><g id="graph0" class="graph" style="font-family:Times New Roman;font-size:18.67;"><title>G</title><g id="node1" class="node"><title>PIK3CA</title><a xlink:href="PIK3CA.html"><ellipse cx="59" cy="39" rx="53" ry="24" style="fill:turquoise;stroke:turquoise;"/><text text-anchor="middle" x="59" y="46" style="font-family:Times New Roman;"><![CDATA[PIK3CA]]></text></a></g><g id="node2" class="node"><title>PIP3</title><a xlink:href="PIP3.html"><ellipse cx="298" cy="135" rx="36" ry="24" style="fill:turquoise;stroke:turquoise;"/><text text-anchor="middle" x="298" y="142" style="font-family:Times New Roman;"><![CDATA[PIP3]]></text></a></g><g id="edge2" class="edge"><title>PIK3CA-&gt;PIP3</title><path style="fill:none;stroke:darkgreen;" d="M100,55C142,74 211,101 255,118"/><polygon style="fill:darkgreen;stroke:darkgreen;" points="257,115 268,123 254,121 257,115"/></g><g id="node4" class="node"><title>AKT1</title><a xlink:href="AKT1.html"><ellipse cx="57" cy="231" rx="41" ry="24" style="fill:turquoise;stroke:turquoise;"/><text text-anchor="middle" x="57" y="238" style="font-family:Times New Roman;"><![CDATA[AKT1]]></text></a></g><g id="edge4" class="edge"><title>PIP3-&gt;AKT1</title><path style="fill:none;stroke:darkgreen;" d="M266,147C229,161 165,185 110,207 108,209 104,210 101,211"/><polygon style="fill:darkgreen;stroke:darkgreen;" points="104,214 90,217 101,207 104,214"/></g><g id="node6" class="node"><title>ACTN1</title><a xlink:href="ACTN1.html"><ellipse cx="171" cy="231" rx="49" ry="24" style="fill:turquoise;stroke:turquoise;"/><text text-anchor="middle" x="171" y="238" style="font-family:Times New Roman;"><![CDATA[ACTN1]]></text></a></g><g id="edge6" class="edge"><title>PIP3-&gt;ACTN1</title><path style="fill:none;stroke:darkgreen;" d="M274,154C255,167 230,187 209,203"/><polygon style="fill:darkgreen;stroke:darkgreen;" points="211,206 198,211 207,201 211,206"/></g><g id="node8" class="node"><title>PRKCA</title><a xlink:href="PRKCA.html"><ellipse cx="298" cy="231" rx="53" ry="24" style="fill:turquoise;stroke:turquoise;"/><text text-anchor="middle" x="298" y="238" style="font-family:Times New Roman;"><![CDATA[PRKCA]]></text></a></g><g id="edge8" class="edge"><title>PIP3-&gt;PRKCA</title><path style="fill:none;stroke:darkgreen;" d="M298,159C298,170 298,182 298,194"/><polygon style="fill:darkgreen;stroke:darkgreen;" points="302,194 298,207 296,194 302,194"/></g><g id="node10" class="node"><title>PTPN6</title><a xlink:href="PTPN6.html"><ellipse cx="424" cy="231" rx="48" ry="24" style="fill:turquoise;stroke:turquoise;"/><text text-anchor="middle" x="424" y="238" style="font-family:Times New Roman;"><![CDATA[PTPN6]]></text></a></g><g id="edge10" class="edge"><title>PIP3-&gt;PTPN6</title><path style="fill:none;stroke:darkgreen;" d="M322,154C341,167 366,187 386,203"/><polygon style="fill:darkgreen;stroke:darkgreen;" points="389,201 397,211 385,206 389,201"/></g><g id="node12" class="node"><title>ILK</title><a xlink:href="ILK.html"><ellipse cx="531" cy="231" rx="36" ry="24" style="fill:turquoise;stroke:turquoise;"/><text text-anchor="middle" x="531" y="238" style="font-family:Times New Roman;"><![CDATA[ILK]]></text></a></g><g id="edge12" class="edge"><title>PIP3-&gt;ILK</title><path style="fill:none;stroke:darkgreen;" d="M330,147C368,161 430,185 484,207 486,209 489,210 490,210"/><polygon style="fill:darkgreen;stroke:darkgreen;" points="492,207 502,217 489,213 492,207"/></g><g id="node14" class="node"><title>PLCG1</title><a xlink:href="PLCG1.html"><ellipse cx="183" cy="39" rx="46" ry="24" style="fill:turquoise;stroke:turquoise;"/><text text-anchor="middle" x="183" y="46" style="font-family:Times New Roman;"><![CDATA[PLCG1]]></text></a></g><g id="edge14" class="edge"><title>PLCG1-&gt;PIP3</title><path style="fill:none;stroke:darkgreen;" d="M209,61C226,74 247,94 266,109"/><polygon style="fill:darkgreen;stroke:darkgreen;" points="268,106 276,117 264,110 268,106"/></g><g id="node16" class="node"><title>PTEN</title><a xlink:href="PTEN.html"><ellipse cx="298" cy="39" rx="44" ry="24" style="fill:turquoise;stroke:turquoise;"/><text text-anchor="middle" x="298" y="46" style="font-family:Times New Roman;"><![CDATA[PTEN]]></text></a></g><g id="edge16" class="edge"><title>PTEN-&gt;PIP3</title><path style="fill:none;stroke:#ff0000;" d="M298,63C298,71 298,82 298,91"/><polyline style="fill:none;stroke:#ff0000;" points="289,91 309,91 "/></g><g id="node18" class="node"><title>INPP5D</title><a xlink:href="INPP5D.html"><ellipse cx="418" cy="39" rx="52" ry="24" style="fill:turquoise;stroke:turquoise;"/><text text-anchor="middle" x="418" y="46" style="font-family:Times New Roman;"><![CDATA[INPP5D]]></text></a></g><g id="edge18" class="edge"><title>INPP5D-&gt;PIP3</title><path style="fill:none;stroke:#ff0000;" d="M392,61C376,74 353,91 336,105"/><polyline style="fill:none;stroke:#ff0000;" points="330,97 342,111 "/></g><g id="node20" class="node"><title>INPPL1</title><a xlink:href="INPPL1.html"><ellipse cx="543" cy="39" rx="49" ry="24" style="fill:turquoise;stroke:turquoise;"/><text text-anchor="middle" x="543" y="46" style="font-family:Times New Roman;"><![CDATA[INPPL1]]></text></a></g><g id="edge20" class="edge"><title>INPPL1-&gt;PIP3</title><path style="fill:none;stroke:#ff0000;" d="M505,54C462,71 392,99 345,118"/><polyline style="fill:none;stroke:#ff0000;" points="345,107 352,126 "/></g></g></svg>