<?xml version="1.0" encoding="UTF-8" standalone="no"?><!DOCTYPE svg PUBLIC "-//W3C//DTD SVG 1.0//EN" "http://www.w3.org/TR/2001/REC-SVG-20010904/DTD/svg10.dtd" [ <!ATTLIST svg xmlns:xlink CDATA #FIXED "http://www.w3.org/1999/xlink">]><!-- Generated by WinGraphviz version ver1.02.23, 08/01/2003 (08/04/2003)     For user: Avi Ma'ayan   Title: G    Pages: 1 --><svg width="415px" height="276px" xmlns="http://www.w3.org/2000/svg" xmlns:xlink="http://www.w3.org/1999/xlink"><g id="graph0" class="graph" style="font-family:Times New Roman;font-size:18.67;"><title>G</title><g id="node1" class="node"><title>PIP5K1C</title><a xlink:href="PIP5K1C.html"><ellipse cx="205" cy="135" rx="54" ry="24" style="fill:turquoise;stroke:turquoise;"/><text text-anchor="middle" x="205" y="142" style="font-family:Times New Roman;"><![CDATA[PIP5K1C]]></text></a></g><g id="node2" class="node"><title>PIP2</title><a xlink:href="PIP2.html"><ellipse cx="97" cy="231" rx="36" ry="24" style="fill:turquoise;stroke:turquoise;"/><text text-anchor="middle" x="97" y="238" style="font-family:Times New Roman;"><![CDATA[PIP2]]></text></a></g><g id="edge2" class="edge"><title>PIP5K1C-&gt;PIP2</title><path style="fill:none;stroke:darkgreen;" d="M181,157C165,171 145,190 128,205"/><polygon style="fill:darkgreen;stroke:darkgreen;" points="130,206 118,213 126,202 130,206"/></g><g id="node4" class="node"><title>PTPN6</title><a xlink:href="PTPN6.html"><ellipse cx="205" cy="231" rx="48" ry="24" style="fill:turquoise;stroke:turquoise;"/><text text-anchor="middle" x="205" y="238" style="font-family:Times New Roman;"><![CDATA[PTPN6]]></text></a></g><g id="edge4" class="edge"><title>PIP5K1C-&gt;PTPN6</title><path style="fill:none;stroke:#0000ff;" d="M205,166C205,177 205,190 205,201"/><polygon style="fill:#0000ff;stroke:#0000ff;" points="209,159 202,159 202,166 209,166 209,159"/><polygon style="fill:#0000ff;stroke:#0000ff;" points="202,207 209,207 209,201 202,201 202,207"/></g><g id="node6" class="node"><title>TLN1</title><a xlink:href="TLN1.html"><ellipse cx="317" cy="231" rx="40" ry="24" style="fill:turquoise;stroke:turquoise;"/><text text-anchor="middle" x="317" y="238" style="font-family:Times New Roman;"><![CDATA[TLN1]]></text></a></g><g id="edge6" class="edge"><title>PIP5K1C-&gt;TLN1</title><path style="fill:none;stroke:#0000ff;" d="M235,162C253,177 273,193 288,207"/><polygon style="fill:#0000ff;stroke:#0000ff;" points="233,154 227,159 233,165 238,159 233,154"/><polygon style="fill:#0000ff;stroke:#0000ff;" points="292,214 296,209 290,205 286,210 292,214"/></g><g id="node8" class="node"><title>PLD1</title><a xlink:href="PLD1.html"><ellipse cx="45" cy="39" rx="38" ry="24" style="fill:turquoise;stroke:turquoise;"/><text text-anchor="middle" x="45" y="46" style="font-family:Times New Roman;"><![CDATA[PLD1]]></text></a></g><g id="edge8" class="edge"><title>PLD1-&gt;PIP5K1C</title><path style="fill:none;stroke:#0000ff;" d="M78,59C104,74 139,95 166,111"/><polygon style="fill:#0000ff;stroke:#0000ff;" points="74,54 72,59 77,62 80,57 74,54"/><polygon style="fill:#0000ff;stroke:#0000ff;" points="171,118 174,113 169,109 166,114 171,118"/></g><g id="node10" class="node"><title>RAC1</title><a xlink:href="RAC1.html"><ellipse cx="149" cy="39" rx="41" ry="24" style="fill:turquoise;stroke:turquoise;"/><text text-anchor="middle" x="149" y="46" style="font-family:Times New Roman;"><![CDATA[RAC1]]></text></a></g><g id="edge10" class="edge"><title>RAC1-&gt;PIP5K1C</title><path style="fill:none;stroke:darkgreen;" d="M162,62C169,73 177,87 185,101"/><polygon style="fill:darkgreen;stroke:darkgreen;" points="187,98 191,111 182,102 187,98"/></g><g id="node12" class="node"><title>RHOA</title><a xlink:href="RHOA.html"><ellipse cx="262" cy="39" rx="48" ry="24" style="fill:turquoise;stroke:turquoise;"/><text text-anchor="middle" x="262" y="46" style="font-family:Times New Roman;"><![CDATA[RHOA]]></text></a></g><g id="edge12" class="edge"><title>RHOA-&gt;PIP5K1C</title><path style="fill:none;stroke:darkgreen;" d="M249,62C242,74 233,89 226,102"/><polygon style="fill:darkgreen;stroke:darkgreen;" points="229,103 219,113 223,99 229,103"/></g><g id="node14" class="node"><title>SRC</title><a xlink:href="SRC.html"><ellipse cx="370" cy="39" rx="36" ry="24" style="fill:turquoise;stroke:turquoise;"/><text text-anchor="middle" x="370" y="46" style="font-family:Times New Roman;"><![CDATA[SRC]]></text></a></g><g id="edge14" class="edge"><title>SRC-&gt;PIP5K1C</title><path style="fill:none;stroke:darkgreen;" d="M344,55C317,70 278,93 249,110"/><polygon style="fill:darkgreen;stroke:darkgreen;" points="251,113 238,117 247,107 251,113"/></g></g></svg>