<?xml version="1.0" encoding="UTF-8" standalone="no"?><!DOCTYPE svg PUBLIC "-//W3C//DTD SVG 1.0//EN" "http://www.w3.org/TR/2001/REC-SVG-20010904/DTD/svg10.dtd" [ <!ATTLIST svg xmlns:xlink CDATA #FIXED "http://www.w3.org/1999/xlink">]><!-- Generated by WinGraphviz version ver1.02.23, 08/01/2003 (08/04/2003)     For user: Avi Ma'ayan   Title: G    Pages: 1 --><svg width="316px" height="276px" xmlns="http://www.w3.org/2000/svg" xmlns:xlink="http://www.w3.org/1999/xlink"><g id="graph0" class="graph" style="font-family:Times New Roman;font-size:18.67;"><title>G</title><g id="node1" class="node"><title>ITGA5</title><a xlink:href="ITGA5.html"><ellipse cx="53" cy="39" rx="46" ry="24" style="fill:turquoise;stroke:turquoise;"/><text text-anchor="middle" x="53" y="46" style="font-family:Times New Roman;"><![CDATA[ITGA5]]></text></a></g><g id="node2" class="node"><title>PKD1</title><a xlink:href="PKD1.html"><ellipse cx="167" cy="135" rx="41" ry="24" style="fill:turquoise;stroke:turquoise;"/><text text-anchor="middle" x="167" y="142" style="font-family:Times New Roman;"><![CDATA[PKD1]]></text></a></g><g id="edge2" class="edge"><title>ITGA5-&gt;PKD1</title><path style="fill:none;stroke:#0000ff;" d="M82,65C100,78 121,97 138,111"/><polygon style="fill:#0000ff;stroke:#0000ff;" points="81,58 76,63 81,69 86,63 81,58"/><polygon style="fill:#0000ff;stroke:#0000ff;" points="142,118 146,113 141,109 137,114 142,118"/></g><g id="node6" class="node"><title>TLN1</title><a xlink:href="TLN1.html"><ellipse cx="117" cy="231" rx="40" ry="24" style="fill:turquoise;stroke:turquoise;"/><text text-anchor="middle" x="117" y="238" style="font-family:Times New Roman;"><![CDATA[TLN1]]></text></a></g><g id="edge6" class="edge"><title>PKD1-&gt;TLN1</title><path style="fill:none;stroke:#0000ff;" d="M153,163C146,177 138,190 132,203"/><polygon style="fill:#0000ff;stroke:#0000ff;" points="158,159 153,157 150,162 155,165 158,159"/><polygon style="fill:#0000ff;stroke:#0000ff;" points="126,207 132,210 134,205 129,202 126,207"/></g><g id="node8" class="node"><title>VCL</title><a xlink:href="VCL.html"><ellipse cx="218" cy="231" rx="37" ry="24" style="fill:turquoise;stroke:turquoise;"/><text text-anchor="middle" x="218" y="238" style="font-family:Times New Roman;"><![CDATA[VCL]]></text></a></g><g id="edge8" class="edge"><title>PKD1-&gt;VCL</title><path style="fill:none;stroke:#0000ff;" d="M182,163C189,177 197,190 203,203"/><polygon style="fill:#0000ff;stroke:#0000ff;" points="182,157 177,159 179,165 185,162 182,157"/><polygon style="fill:#0000ff;stroke:#0000ff;" points="203,210 209,207 206,202 201,205 203,210"/></g><g id="node4" class="node"><title>ITGB1</title><a xlink:href="ITGB1.html"><ellipse cx="167" cy="39" rx="44" ry="24" style="fill:turquoise;stroke:turquoise;"/><text text-anchor="middle" x="167" y="46" style="font-family:Times New Roman;"><![CDATA[ITGB1]]></text></a></g><g id="edge4" class="edge"><title>ITGB1-&gt;PKD1</title><path style="fill:none;stroke:#0000ff;" d="M167,70C167,81 167,94 167,105"/><polygon style="fill:#0000ff;stroke:#0000ff;" points="171,63 165,63 165,70 171,70 171,63"/><polygon style="fill:#0000ff;stroke:#0000ff;" points="165,111 171,111 171,105 165,105 165,111"/></g><g id="node10" class="node"><title>SRC</title><a xlink:href="SRC.html"><ellipse cx="272" cy="39" rx="36" ry="24" style="fill:turquoise;stroke:turquoise;"/><text text-anchor="middle" x="272" y="46" style="font-family:Times New Roman;"><![CDATA[SRC]]></text></a></g><g id="edge10" class="edge"><title>SRC-&gt;PKD1</title><path style="fill:none;stroke:darkgreen;" d="M250,59C235,73 215,91 199,106"/><polygon style="fill:darkgreen;stroke:darkgreen;" points="202,109 190,115 197,103 202,109"/></g></g></svg>