<?xml version="1.0" encoding="UTF-8" standalone="no"?><!DOCTYPE svg PUBLIC "-//W3C//DTD SVG 1.0//EN" "http://www.w3.org/TR/2001/REC-SVG-20010904/DTD/svg10.dtd" [ <!ATTLIST svg xmlns:xlink CDATA #FIXED "http://www.w3.org/1999/xlink">]><!-- Generated by WinGraphviz version ver1.02.23, 08/01/2003 (08/04/2003)     For user: Avi Ma'ayan   Title: G    Pages: 1 --><svg width="330px" height="180px" xmlns="http://www.w3.org/2000/svg" xmlns:xlink="http://www.w3.org/1999/xlink"><g id="graph0" class="graph" style="font-family:Times New Roman;font-size:18.67;"><title>G</title><g id="node1" class="node"><title>CAV1</title><a xlink:href="CAV1.html"><ellipse cx="49" cy="39" rx="42" ry="24" style="fill:turquoise;stroke:turquoise;"/><text text-anchor="middle" x="49" y="46" style="font-family:Times New Roman;"><![CDATA[CAV1]]></text></a></g><g id="node2" class="node"><title>PLAUR</title><a xlink:href="PLAUR.html"><ellipse cx="162" cy="135" rx="53" ry="24" style="fill:limegreen;stroke:limegreen;"/><text text-anchor="middle" x="162" y="142" style="font-family:Times New Roman;"><![CDATA[PLAUR]]></text></a></g><g id="edge2" class="edge"><title>CAV1-&gt;PLAUR</title><path style="fill:none;stroke:#0000ff;" d="M77,63C94,77 114,95 132,110"/><polygon style="fill:#0000ff;stroke:#0000ff;" points="76,57 70,62 76,67 81,62 76,57"/><polygon style="fill:#0000ff;stroke:#0000ff;" points="135,117 139,111 134,107 130,113 135,117"/></g><g id="node4" class="node"><title>ITGA5</title><a xlink:href="ITGA5.html"><ellipse cx="162" cy="39" rx="46" ry="24" style="fill:turquoise;stroke:turquoise;"/><text text-anchor="middle" x="162" y="46" style="font-family:Times New Roman;"><![CDATA[ITGA5]]></text></a></g><g id="edge4" class="edge"><title>ITGA5-&gt;PLAUR</title><path style="fill:none;stroke:#0000ff;" d="M162,70C162,81 162,94 162,105"/><polygon style="fill:#0000ff;stroke:#0000ff;" points="166,63 159,63 159,70 166,70 166,63"/><polygon style="fill:#0000ff;stroke:#0000ff;" points="159,111 166,111 166,105 159,105 159,111"/></g><g id="node6" class="node"><title>ITGB1</title><a xlink:href="ITGB1.html"><ellipse cx="277" cy="39" rx="44" ry="24" style="fill:turquoise;stroke:turquoise;"/><text text-anchor="middle" x="277" y="46" style="font-family:Times New Roman;"><![CDATA[ITGB1]]></text></a></g><g id="edge6" class="edge"><title>ITGB1-&gt;PLAUR</title><path style="fill:none;stroke:#0000ff;" d="M249,63C231,77 211,95 193,110"/><polygon style="fill:#0000ff;stroke:#0000ff;" points="255,62 250,57 245,62 250,67 255,62"/><polygon style="fill:#0000ff;stroke:#0000ff;" points="186,111 190,117 195,113 191,107 186,111"/></g></g></svg>