<?xml version="1.0" encoding="UTF-8" standalone="no"?><!DOCTYPE svg PUBLIC "-//W3C//DTD SVG 1.0//EN" "http://www.w3.org/TR/2001/REC-SVG-20010904/DTD/svg10.dtd" [ <!ATTLIST svg xmlns:xlink CDATA #FIXED "http://www.w3.org/1999/xlink">]><!-- Generated by WinGraphviz version ver1.02.23, 08/01/2003 (08/04/2003)     For user: Avi Ma'ayan   Title: G    Pages: 1 --><!--="735px" height="166px" xmlns="http://www.w3.org/2000/svg" --><svg onload="init(evt)" width="735px" height="600px" xmlns="http://www.w3.org/2000/svg" xmlns:xlink="http://www.w3.org/1999/xlink">
<script type="text/ecmascript">
<![CDATA[
var svgDocument;
var zoomAmt;
var xOffset;
var yOffset;
var scale;
var maxScale;
var imageWidth;
var imageHeight;
function init(evt)
{
    svgDocument = evt.getTarget().getOwnerDocument();
    zoomAmt = 0;
    xOffset = 0;
    yOffset = 60;
    scale = 0.8;
    maxScale = 10;
    imageWidth = 742;
    imageHeight = 606;
    panRestore();
    //panUp();
}
function transformMap ()
{
    var obj = svgDocument.getElementById("Pathway");
    var centerX = imageWidth  / 2.0;
    var centerY = imageHeight / 2.0;
    var adjustX = (-centerX * (scale - 0.8)) + xOffset;
    var adjustY = (-centerY * (scale - 0.8)) + yOffset;
    var transParms = 'translate(' + adjustX + ',' + adjustY + ') ';
    transParms += 'scale(' + scale + ')';
    // alert(transParms);
    obj.setAttribute("transform", transParms); 
}
function click_node(id)
{
    var testx = parent.click_node;
    if (typeof(testx) == "function")
    {
		parent.click_node(id);
    }
}
function click_relation(id)
{
    var testx = parent.click_relation;
    if (typeof(testx) == "function")
    {
        parent.click_relation(id);
    }
}
function click_pathway(toId, fromId)
{
    var testx = parent.click_pathway;
    if (typeof(testx) == "function")
    {
	parent.click_pathway(toId, fromId);
    }
}
function check_interpath(evt, pathid)
{
  var obj = evt.getTarget();
  var testx = parent.is_frompath;
  var child = obj.firstChild;
  if (typeof(testx) == "function")
  {
    if (parent.is_frompath(pathid))
    {
      while (child != null)
      {
        if (child.nodeType == 1)
        {
          if ((child.localName == "g") || (child.localName == "polyline"))
          {
            child.setAttribute("style", "fill:none;stroke:red");
          }
          else if (child.localName == "polygon")
          {
            child.setAttribute("style", "fill:red;stroke:red");
          }
        }
        child = child.nextSibling;
      }
    }
  }
}
function set_status (msg)
{
 var obj = svgDocument.getElementById("status_text");
  var child;
 
  child = obj.firstChild;
  if ((child != null) && (child.nodeType == 3))
  {
    if ((msg != null) && (msg.length > 0))
    {
      child.data = msg;
    }
    else
    {
child.data = " ";
    }
  }
}
function zoomIn ()
{
    scale = scale + 0.8;
    if (scale > maxScale)
    {
       scale = maxScale;
    }
    transformMap();
    panUp();
    panUp();
    panUp();
    panUp();
    panUp();
    panUp();
    panUp();
    panUp();
    panUp();
    panUp();
    panUp();
    panUp();
}
function zoomOut ()
{
    scale = scale - 0.8;
    if (scale < 0.8)
    {
       scale = 0.8;
    }
    transformMap();
    panDown();
    panDown();
    panDown();
    panDown();
    panDown();
    panDown();
    panDown();
    panDown();
    panDown();
    panDown();
    panDown();
    panDown();
}
function panUp ()
{
    yOffset = yOffset + 20;
    transformMap();
}
function panDown ()
{
    yOffset = yOffset - 20;
    transformMap();
}
function panLeft ()
{
    xOffset = xOffset + 20;
    transformMap();
}
function panRight ()
{
    xOffset = xOffset - 20;
    transformMap();
}
function panRestore ()
{
    xOffset = 0;
    yOffset = 0;
    scale = 0.5;
    //obj = svgDocument.getElementById("zoom");
    //obj.setAttribute("x1", 0);
    //obj.setAttribute("x2", 0);
    transformMap();    
}
function doHighlight (evt, msg)
{
  var obj = evt.getTarget();
  obj.setAttribute("fill", "rgb(239,24,33)");
  set_status(msg);
}
function resetHighlight (evt)
{
  var obj = evt.getTarget();
  obj.setAttribute("fill", "rgb(99,154,206)");
  set_status(" ");
}
// ]]>
</script>
<defs>
<clipPath id="theClip">
<polygon points="1 61, 741 61, 741 665, 1 665"
style="fill: none;"/>
</clipPath>
</defs>
<!-- viewport outline -->
<rect x="0" y="61" width="742" height="606"
style="stroke: black; stroke-width: 1; fill: none;"/>
<!-- pathway graph style="clip-path: url(#theClip);" -->
<g style="clip-path: url(#theClip);">
<g id="Pathway"  transform="translate(0,60)">
<!-- prefile.include ends, begin pathway graph -->
<g id="stkecm;CMP_10705" class="graph">
</g>
<g id="graph0" class="graph" style="font-family:Times New Roman;font-size:10.79;"><title>G</title><g id="node1" class="node"><title>CBL</title><a xlink:href="CBL.html"><ellipse cx="27" cy="25" rx="20" ry="13" style="fill:turquoise;stroke:turquoise;"/><text text-anchor="middle" x="27" y="29" style="font-family:Times New Roman;"><![CDATA[CBL]]></text></a></g><g id="node2" class="node"><title>PLCG1</title><a xlink:href="PLCG1.html"><ellipse cx="365" cy="80" rx="26" ry="13" style="fill:turquoise;stroke:turquoise;"/><text text-anchor="middle" x="365" y="84" style="font-family:Times New Roman;"><![CDATA[PLCG1]]></text></a></g><g id="edge2" class="edge"><title>CBL-&gt;PLCG1</title><path style="fill:none;stroke:#0000ff;" d="M45,35C49,36 52,37 55,39 154,69 277,77 333,80"/><polygon style="fill:#0000ff;stroke:#0000ff;" points="43,32 42,36 45,36 47,33 43,32"/><polygon style="fill:#0000ff;stroke:#0000ff;" points="338,81 338,77 334,77 334,81 338,81"/></g><g id="node20" class="node"><title>PRKCA</title><a xlink:href="PRKCA.html"><ellipse cx="271" cy="136" rx="30" ry="13" style="fill:turquoise;stroke:turquoise;"/><text text-anchor="middle" x="271" y="140" style="font-family:Times New Roman;"><![CDATA[PRKCA]]></text></a></g><g id="edge24" class="edge"><title>PLCG1-&gt;PRKCA</title><path style="fill:none;stroke:darkgreen;" d="M345,90C329,98 308,110 292,120"/><polygon style="fill:darkgreen;stroke:darkgreen;" points="294,122 286,124 291,119 294,122"/></g><g id="node22" class="node"><title>PIP3</title><a xlink:href="PIP3.html"><ellipse cx="336" cy="136" rx="20" ry="13" style="fill:turquoise;stroke:turquoise;"/><text text-anchor="middle" x="336" y="140" style="font-family:Times New Roman;"><![CDATA[PIP3]]></text></a></g><g id="edge22" class="edge"><title>PLCG1-&gt;PIP3</title><path style="fill:none;stroke:darkgreen;" d="M358,93C354,100 350,109 346,116"/><polygon style="fill:darkgreen;stroke:darkgreen;" points="348,117 343,123 345,115 348,117"/></g><g id="node25" class="node"><title>RICS</title><a xlink:href="RICS.html"><ellipse cx="393" cy="136" rx="22" ry="13" style="fill:turquoise;stroke:turquoise;"/><text text-anchor="middle" x="393" y="140" style="font-family:Times New Roman;"><![CDATA[RICS]]></text></a></g><g id="edge26" class="edge"><title>PLCG1-&gt;RICS</title><path style="fill:none;stroke:#0000ff;" d="M373,96C376,104 381,112 385,120"/><polygon style="fill:#0000ff;stroke:#0000ff;" points="373,93 370,94 372,97 375,96 373,93"/><polygon style="fill:#0000ff;stroke:#0000ff;" points="385,123 388,122 386,119 383,120 385,123"/></g><g id="node27" class="node"><title>SHC1</title><a xlink:href="SHC1.html"><ellipse cx="452" cy="136" rx="22" ry="13" style="fill:turquoise;stroke:turquoise;"/><text text-anchor="middle" x="452" y="140" style="font-family:Times New Roman;"><![CDATA[SHC1]]></text></a></g><g id="edge28" class="edge"><title>PLCG1-&gt;SHC1</title><path style="fill:none;stroke:#0000ff;" d="M385,93C399,103 419,115 433,124"/><polygon style="fill:#0000ff;stroke:#0000ff;" points="382,90 381,93 384,95 385,92 382,90"/><polygon style="fill:#0000ff;stroke:#0000ff;" points="436,127 437,124 434,123 432,126 436,127"/></g><g id="node29" class="node"><title>VAV1</title><a xlink:href="VAV1.html"><ellipse cx="513" cy="136" rx="25" ry="13" style="fill:turquoise;stroke:turquoise;"/><text text-anchor="middle" x="513" y="140" style="font-family:Times New Roman;"><![CDATA[VAV1]]></text></a></g><g id="edge30" class="edge"><title>PLCG1-&gt;VAV1</title><path style="fill:none;stroke:#0000ff;" d="M391,89C415,97 450,110 481,122 484,123 487,125 490,126"/><polygon style="fill:#0000ff;stroke:#0000ff;" points="387,86 387,90 391,90 391,87 387,86"/><polygon style="fill:#0000ff;stroke:#0000ff;" points="492,129 493,126 490,124 489,127 492,129"/></g><g id="node4" class="node"><title>DNM2</title><a xlink:href="DNM2.html"><ellipse cx="89" cy="25" rx="27" ry="13" style="fill:turquoise;stroke:turquoise;"/><text text-anchor="middle" x="89" y="29" style="font-family:Times New Roman;"><![CDATA[DNM2]]></text></a></g><g id="edge4" class="edge"><title>DNM2-&gt;PLCG1</title><path style="fill:none;stroke:#0000ff;" d="M113,35C117,36 120,38 124,39 198,59 287,72 333,77"/><polygon style="fill:#0000ff;stroke:#0000ff;" points="111,32 109,36 113,36 115,33 111,32"/><polygon style="fill:#0000ff;stroke:#0000ff;" points="338,80 338,76 334,76 334,79 338,80"/></g><g id="node6" class="node"><title>PTK2</title><a xlink:href="PTK2.html"><ellipse cx="155" cy="25" rx="23" ry="13" style="fill:turquoise;stroke:turquoise;"/><text text-anchor="middle" x="155" y="29" style="font-family:Times New Roman;"><![CDATA[PTK2]]></text></a></g><g id="edge6" class="edge"><title>PTK2-&gt;PLCG1</title><path style="fill:none;stroke:#0000ff;" d="M177,35C180,36 183,37 186,39 237,56 299,69 335,75"/><polygon style="fill:#0000ff;stroke:#0000ff;" points="174,32 173,36 177,36 178,33 174,32"/><polygon style="fill:#0000ff;stroke:#0000ff;" points="339,77 339,74 335,73 335,76 339,77"/></g><g id="node8" class="node"><title>FYN</title><a xlink:href="FYN.html"><ellipse cx="215" cy="25" rx="22" ry="13" style="fill:turquoise;stroke:turquoise;"/><text text-anchor="middle" x="215" y="29" style="font-family:Times New Roman;"><![CDATA[FYN]]></text></a></g><g id="edge8" class="edge"><title>FYN-&gt;PLCG1</title><path style="fill:none;stroke:darkgreen;" d="M233,33C237,36 241,37 244,39 274,51 310,63 335,71"/><polygon style="fill:darkgreen;stroke:darkgreen;" points="335,69 341,73 334,73 335,69"/></g><g id="node10" class="node"><title>GIT1</title><a xlink:href="GIT1.html"><ellipse cx="272" cy="25" rx="20" ry="13" style="fill:turquoise;stroke:turquoise;"/><text text-anchor="middle" x="272" y="29" style="font-family:Times New Roman;"><![CDATA[GIT1]]></text></a></g><g id="edge10" class="edge"><title>GIT1-&gt;PLCG1</title><path style="fill:none;stroke:#0000ff;" d="M291,36C305,45 328,58 343,67"/><polygon style="fill:#0000ff;stroke:#0000ff;" points="288,32 287,36 290,37 291,34 288,32"/><polygon style="fill:#0000ff;stroke:#0000ff;" points="346,71 348,68 345,66 343,69 346,71"/></g><g id="node12" class="node"><title>GRB2</title><a xlink:href="GRB2.html"><ellipse cx="332" cy="25" rx="25" ry="13" style="fill:turquoise;stroke:turquoise;"/><text text-anchor="middle" x="332" y="29" style="font-family:Times New Roman;"><![CDATA[GRB2]]></text></a></g><g id="edge12" class="edge"><title>GRB2-&gt;PLCG1</title><path style="fill:none;stroke:#0000ff;" d="M341,41C346,49 351,56 355,64"/><polygon style="fill:#0000ff;stroke:#0000ff;" points="341,37 338,39 340,42 343,40 341,37"/><polygon style="fill:#0000ff;stroke:#0000ff;" points="355,68 358,66 357,63 354,65 355,68"/></g><g id="node14" class="node"><title>HRAS</title><a xlink:href="HRAS.html"><ellipse cx="398" cy="25" rx="26" ry="13" style="fill:turquoise;stroke:turquoise;"/><text text-anchor="middle" x="398" y="29" style="font-family:Times New Roman;"><![CDATA[HRAS]]></text></a></g><g id="edge14" class="edge"><title>HRAS-&gt;PLCG1</title><path style="fill:none;stroke:#0000ff;" d="M389,41C384,49 379,56 374,64"/><polygon style="fill:#0000ff;stroke:#0000ff;" points="392,39 389,37 387,40 390,42 392,39"/><polygon style="fill:#0000ff;stroke:#0000ff;" points="371,66 374,68 375,65 372,63 371,66"/></g><g id="node16" class="node"><title>LYN</title><a xlink:href="LYN.html"><ellipse cx="460" cy="25" rx="22" ry="13" style="fill:turquoise;stroke:turquoise;"/><text text-anchor="middle" x="460" y="29" style="font-family:Times New Roman;"><![CDATA[LYN]]></text></a></g><g id="edge16" class="edge"><title>LYN-&gt;PLCG1</title><path style="fill:none;stroke:darkgreen;" d="M444,34C429,43 406,56 389,66"/><polygon style="fill:darkgreen;stroke:darkgreen;" points="391,68 383,69 389,64 391,68"/></g><g id="node18" class="node"><title>PAK1</title><a xlink:href="PAK1.html"><ellipse cx="520" cy="25" rx="23" ry="13" style="fill:turquoise;stroke:turquoise;"/><text text-anchor="middle" x="520" y="29" style="font-family:Times New Roman;"><![CDATA[PAK1]]></text></a></g><g id="edge18" class="edge"><title>PAK1-&gt;PLCG1</title><path style="fill:none;stroke:#0000ff;" d="M499,35C496,36 493,37 490,39 456,52 417,64 392,73"/><polygon style="fill:#0000ff;stroke:#0000ff;" points="503,35 501,32 498,33 500,36 503,35"/><polygon style="fill:#0000ff;stroke:#0000ff;" points="388,72 388,75 392,74 392,71 388,72"/></g><g id="edge20" class="edge"><title>PRKCA-&gt;PLCG1</title><path style="fill:none;stroke:darkgreen;" d="M344,96C328,105 307,117 292,126"/><polygon style="fill:darkgreen;stroke:darkgreen;" points="341,95 349,92 344,98 341,95"/></g><g id="node31" class="node"><title>RHOA</title><a xlink:href="RHOA.html"><ellipse cx="586" cy="25" rx="27" ry="13" style="fill:turquoise;stroke:turquoise;"/><text text-anchor="middle" x="586" y="29" style="font-family:Times New Roman;"><![CDATA[RHOA]]></text></a></g><g id="edge32" class="edge"><title>RHOA-&gt;PLCG1</title><path style="fill:none;stroke:darkgreen;" d="M564,34C560,36 556,37 551,39 499,55 436,68 399,74"/><polygon style="fill:darkgreen;stroke:darkgreen;" points="399,76 391,76 398,73 399,76"/></g><g id="node33" class="node"><title>SRC</title><a xlink:href="SRC.html"><ellipse cx="648" cy="25" rx="20" ry="13" style="fill:turquoise;stroke:turquoise;"/><text text-anchor="middle" x="648" y="29" style="font-family:Times New Roman;"><![CDATA[SRC]]></text></a></g><g id="edge34" class="edge"><title>SRC-&gt;PLCG1</title><path style="fill:none;stroke:darkgreen;" d="M633,34C629,36 624,37 621,39 544,63 449,74 399,78"/><polygon style="fill:darkgreen;stroke:darkgreen;" points="399,80 392,79 399,76 399,80"/></g><g id="node35" class="node"><title>SYK</title><a xlink:href="SYK.html"><ellipse cx="705" cy="25" rx="21" ry="13" style="fill:turquoise;stroke:turquoise;"/><text text-anchor="middle" x="705" y="29" style="font-family:Times New Roman;"><![CDATA[SYK]]></text></a></g><g id="edge36" class="edge"><title>SYK-&gt;PLCG1</title><path style="fill:none;stroke:darkgreen;" d="M688,34C685,36 680,37 676,39 578,68 459,77 400,80"/><polygon style="fill:darkgreen;stroke:darkgreen;" points="399,81 392,80 399,77 399,81"/></g></g></g></g>
<!-- navigation controls -->
<g id="navbox">
	<rect x="0" y="0" width="742" height="60"
		 style="fill:rgb(206,207,206);stroke:rgb(0,0,0);stroke-width:1"/>

	<polygon id="pan_right"
        onmouseup="panRight()"
        onmouseover="doHighlight(evt, 'Click to pan to the right')"
        onmouseout="resetHighlight(evt)"
		points="28.0732,13 32,20.5 28.0732,28 28.0732,23.4412 25,23.4412 25,17.4118 28.0732,17.4118"
		 transform="matrix(3.39111 0 0 2.98838 -12.6265 -29.7101)"
         fill="rgb(99,154,206)"
		 style="stroke:rgb(0,0,0);stroke-width:0.5"/>
	<polygon id="pan_left"
        onmouseup="panLeft()"
        onmouseover="doHighlight(evt, 'Click to pan to the left')"
        onmouseout="resetHighlight(evt)"
		points="123.991,25 120.064,32.5 123.991,40 123.991,35.4412 127.064,35.4412 127.064,29.4118
			123.991,29.4118" transform="matrix(3.39111 0 0 2.98838 -404.865 -65.5706)"
         fill="rgb(99,154,206)"
		 style="stroke:rgb(0,0,0);stroke-width:0.5"/>
	<polygon id="pan_down"
        onmouseup="panDown()"
        onmouseover="doHighlight(evt, 'Click to pan down')"
        onmouseout="resetHighlight(evt)"
		points="116.032,32.0408 123.532,35.9678 131.032,32.0408 126.473,32.0408 126.473,28.9678 120.444,28.9678
			120.444,32.0408" transform="matrix(3.39111 0 0 2.98838 -369.822 -50.6287)"
         fill="rgb(99,154,206)"
		 style="stroke:rgb(0,0,0);stroke-width:0.5"/>
	<polygon id="pan_up"
        onmouseup="panUp()"
  onmouseover="doHighlight(evt, 'Click to pan up')"
        onmouseout="resetHighlight(evt)"
		points="116.032,32.0408 123.532,35.9678 131.032,32.0408 126.473,32.0408 126.473,28.9678 120.444,28.9678
			120.444,32.0408" transform="matrix(3.39111 0 0 -2.98838 -369.823 111.74)"
         fill="rgb(99,154,206)"
		 style="stroke:rgb(0,0,0);stroke-width:0.5"/>
	<g id="go_home" 
         onmouseup="panRestore()" 
         onmouseover="doHighlight(evt, 'Click to restore graph to original position')"
         onmouseout="resetHighlight(evt)"
         fill="rgb(99,154,206)"
         transform="matrix(1 0 0 1 0 -0.333333)">
		<rect x="196" y="11" width="26" height="26"
			transform="translate(-19.1111 -2.66667)"
			 style="stroke:rgb(0,0,0);stroke-width:1"/>
		<line x1="182" y1="16" x2="182" y2="28"
			transform="matrix(1 0 0 1 2.22222 0.444444)"
			 style="fill:none;stroke:rgb(0,0,0);stroke-width:2"/>
		<line x1="187" y1="22" x2="187" y2="28"
			transform="matrix(1 0 0 1 2.22222 0.444444)"
			 style="fill:none;stroke:rgb(0,0,0);stroke-width:2"/>
	<line x1="192" y1="13" x2="192" y2="28"
			transform="matrix(1 0 0 1 2.22222 0.444444)"
			 style="fill:none;stroke:rgb(0,0,0);stroke-width:2"/>
		<line x1="182" y1="28" x2="192" y2="28"
			transform="matrix(1 0 0 1 2.22222 0.444444)"
	style="fill:none;stroke:rgb(0,0,0);stroke-width:2"/>
		<line x1="189" y1="12" x2="179" y2="21"
			 style="fill:none;stroke:rgb(0,0,0);stroke-width:2"/>
		<line x1="188" y1="12" x2="199" y2="20"
			 style="fill:none;stroke:rgb(0,0,0);stroke-width:2"/>
	</g>
	<g id="zoom_out" onmouseup="zoomOut()" 
             onmouseover="doHighlight(evt, 'Click to zoom out')"
             onmouseout="resetHighlight(evt)"
             fill="rgb(99,154,206)"
             transform="matrix(1 0 0 1 0 0)">
		<rect x="116" y="8" width="26" height="26"
			 style="stroke:rgb(0,0,0);stroke-width:1"/>
		<ellipse cx="126" cy="18" rx="6" ry="6"
			 style="stroke:rgb(0,0,0);stroke-width:1"/>
		<line x1="130" y1="23" x2="137" y2="29"
			transform="matrix(1 0 0 1 0.888889 -0.888889)"
			 style="fill:none;stroke:rgb(0,0,0);stroke-width:2"/>
		<line x1="123" y1="18" x2="129" y2="18"
			 style="fill:none;stroke:rgb(0,0,0);stroke-width:2"/>
	</g>
	<g id="zoom_in" onmouseup="zoomIn()" 
             onmouseover="doHighlight(evt, 'Click to zoom in')"
             onmouseout="resetHighlight(evt)"
             fill="rgb(99,154,206)"
             transform="matrix(1 0 0 1 0.888889 -0.444444)">
		<rect x="116" y="8" width="26" height="26"
			transform="matrix(1 0 0 1 29.7778 0.444444)"
			 style="stroke:rgb(0,0,0);stroke-width:1"/>
		<ellipse cx="126" cy="18" rx="6" ry="6"
			transform="matrix(1 0 0 1 29.7778 0.444444)"
			 style="stroke:rgb(0,0,0);stroke-width:1"/>
		<line x1="130" y1="23" x2="137" y2="29"
			transform="matrix(1 0 0 1 30.6667 -0.444445)"
		style="fill:none;stroke:rgb(0,0,0);stroke-width:2"/>
		<line x1="123" y1="18" x2="129" y2="18"
			transform="matrix(1 0 0 1 29.7778 0.444444)"
			 style="fill:none;stroke:rgb(0,0,0);stroke-width:2"/>
		<line x1="156" y1="15" x2="156" y2="22"
			 style="fill:none;stroke:rgb(0,0,0);stroke-width:2"/>
	</g>
	<g>
		<rect x="117" y="40" width="452" height="14"
			transform="matrix(1.54201 0 0 1 -64.1436 -0.222222)"
			 style="fill:rgb(192,192,192);stroke:rgb(0,0,0);stroke-width:1"/>
		<text id="status_text" x="183px" y="48px"
			transform="matrix(1 0 0 1 -63.5556 3.00778)"
			 style="fill:rgb(0,0,0);font-size:14;font-family:Arial"> </text>
	</g>
</g>	
</svg>