<?xml version="1.0" encoding="UTF-8" standalone="no"?><!DOCTYPE svg PUBLIC "-//W3C//DTD SVG 1.0//EN" "http://www.w3.org/TR/2001/REC-SVG-20010904/DTD/svg10.dtd" [ <!ATTLIST svg xmlns:xlink CDATA #FIXED "http://www.w3.org/1999/xlink">]><!-- Generated by WinGraphviz version ver1.02.23, 08/01/2003 (08/04/2003)     For user: Avi Ma'ayan   Title: G    Pages: 1 --><svg width="652px" height="276px" xmlns="http://www.w3.org/2000/svg" xmlns:xlink="http://www.w3.org/1999/xlink"><g id="graph0" class="graph" style="font-family:Times New Roman;font-size:18.67;"><title>G</title><g id="node1" class="node"><title>ACTB</title><a xlink:href="ACTB.html"><ellipse cx="50" cy="39" rx="44" ry="24" style="fill:turquoise;stroke:turquoise;"/><text text-anchor="middle" x="50" y="46" style="font-family:Times New Roman;"><![CDATA[ACTB]]></text></a></g><g id="node2" class="node"><title>PLD1</title><a xlink:href="PLD1.html"><ellipse cx="330" cy="135" rx="38" ry="24" style="fill:turquoise;stroke:turquoise;"/><text text-anchor="middle" x="330" y="142" style="font-family:Times New Roman;"><![CDATA[PLD1]]></text></a></g><g id="edge2" class="edge"><title>ACTB-&gt;PLD1</title><path style="fill:none;stroke:#ff0000;" d="M85,54C92,58 100,61 106,63 166,86 234,107 281,121"/><polyline style="fill:none;stroke:#ff0000;" points="274,129 280,110 "/></g><g id="node10" class="node"><title>PIP5K1C</title><a xlink:href="PIP5K1C.html"><ellipse cx="198" cy="231" rx="54" ry="24" style="fill:turquoise;stroke:turquoise;"/><text text-anchor="middle" x="198" y="238" style="font-family:Times New Roman;"><![CDATA[PIP5K1C]]></text></a></g><g id="edge10" class="edge"><title>PLD1-&gt;PIP5K1C</title><path style="fill:none;stroke:#0000ff;" d="M300,158C280,173 253,193 231,207"/><polygon style="fill:#0000ff;stroke:#0000ff;" points="308,157 304,151 298,155 302,161 308,157"/><polygon style="fill:#0000ff;stroke:#0000ff;" points="225,207 227,213 233,210 230,205 225,207"/></g><g id="node12" class="node"><title>PRKCA</title><a xlink:href="PRKCA.html"><ellipse cx="330" cy="231" rx="53" ry="24" style="fill:turquoise;stroke:turquoise;"/><text text-anchor="middle" x="330" y="238" style="font-family:Times New Roman;"><![CDATA[PRKCA]]></text></a></g><g id="edge12" class="edge"><title>PLD1-&gt;PRKCA</title><path style="fill:none;stroke:#0000ff;" d="M330,166C330,177 330,190 330,201"/><polygon style="fill:#0000ff;stroke:#0000ff;" points="334,159 328,159 328,166 334,166 334,159"/><polygon style="fill:#0000ff;stroke:#0000ff;" points="328,207 334,207 334,201 328,201 328,207"/></g><g id="node14" class="node"><title>DNM2</title><a xlink:href="DNM2.html"><ellipse cx="456" cy="231" rx="48" ry="24" style="fill:turquoise;stroke:turquoise;"/><text text-anchor="middle" x="456" y="238" style="font-family:Times New Roman;"><![CDATA[DNM2]]></text></a></g><g id="edge14" class="edge"><title>PLD1-&gt;DNM2</title><path style="fill:none;stroke:#ff0000;" d="M356,154C373,166 394,185 414,199"/><polyline style="fill:none;stroke:#ff0000;" points="408,206 420,191 "/></g><g id="node4" class="node"><title>ACTN1</title><a xlink:href="ACTN1.html"><ellipse cx="167" cy="39" rx="49" ry="24" style="fill:turquoise;stroke:turquoise;"/><text text-anchor="middle" x="167" y="46" style="font-family:Times New Roman;"><![CDATA[ACTN1]]></text></a></g><g id="edge4" class="edge"><title>ACTN1-&gt;PLD1</title><path style="fill:none;stroke:#ff0000;" d="M199,58C223,73 258,93 286,109"/><polyline style="fill:none;stroke:#ff0000;" points="280,117 290,99 "/></g><g id="node6" class="node"><title>ARF1</title><a xlink:href="ARF1.html"><ellipse cx="281" cy="39" rx="40" ry="24" style="fill:turquoise;stroke:turquoise;"/><text text-anchor="middle" x="281" y="46" style="font-family:Times New Roman;"><![CDATA[ARF1]]></text></a></g><g id="edge6" class="edge"><title>ARF1-&gt;PLD1</title><path style="fill:none;stroke:darkgreen;" d="M293,62C300,74 306,89 313,101"/><polygon style="fill:darkgreen;stroke:darkgreen;" points="316,99 318,113 310,102 316,99"/></g><g id="node8" class="node"><title>PIP2</title><a xlink:href="PIP2.html"><ellipse cx="381" cy="39" rx="36" ry="24" style="fill:turquoise;stroke:turquoise;"/><text text-anchor="middle" x="381" y="46" style="font-family:Times New Roman;"><![CDATA[PIP2]]></text></a></g><g id="edge8" class="edge"><title>PIP2-&gt;PLD1</title><path style="fill:none;stroke:darkgreen;" d="M369,62C362,73 356,87 349,101"/><polygon style="fill:darkgreen;stroke:darkgreen;" points="352,102 342,111 346,98 352,102"/></g><g id="node16" class="node"><title>RAC1</title><a xlink:href="RAC1.html"><ellipse cx="482" cy="39" rx="41" ry="24" style="fill:turquoise;stroke:turquoise;"/><text text-anchor="middle" x="482" y="46" style="font-family:Times New Roman;"><![CDATA[RAC1]]></text></a></g><g id="edge16" class="edge"><title>RAC1-&gt;PLD1</title><path style="fill:none;stroke:darkgreen;" d="M454,57C429,71 394,94 368,111"/><polygon style="fill:darkgreen;stroke:darkgreen;" points="370,114 357,118 366,109 370,114"/></g><g id="node18" class="node"><title>RHOA</title><a xlink:href="RHOA.html"><ellipse cx="595" cy="39" rx="48" ry="24" style="fill:turquoise;stroke:turquoise;"/><text text-anchor="middle" x="595" y="46" style="font-family:Times New Roman;"><![CDATA[RHOA]]></text></a></g><g id="edge18" class="edge"><title>RHOA-&gt;PLD1</title><path style="fill:none;stroke:darkgreen;" d="M558,55C550,58 542,61 535,63 482,83 420,105 378,119"/><polygon style="fill:darkgreen;stroke:darkgreen;" points="378,123 365,123 377,117 378,123"/></g></g></svg>