<?xml version="1.0" encoding="UTF-8" standalone="no"?><!DOCTYPE svg PUBLIC "-//W3C//DTD SVG 1.0//EN" "http://www.w3.org/TR/2001/REC-SVG-20010904/DTD/svg10.dtd" [ <!ATTLIST svg xmlns:xlink CDATA #FIXED "http://www.w3.org/1999/xlink">]><!-- Generated by WinGraphviz version ver1.02.23, 08/01/2003 (08/04/2003)     For user: Avi Ma'ayan   Title: G    Pages: 1 --><svg width="316px" height="276px" xmlns="http://www.w3.org/2000/svg" xmlns:xlink="http://www.w3.org/1999/xlink"><g id="graph0" class="graph" style="font-family:Times New Roman;font-size:18.67;"><title>G</title><g id="node1" class="node"><title>ACTB</title><a xlink:href="ACTB.html"><ellipse cx="50" cy="39" rx="44" ry="24" style="fill:turquoise;stroke:turquoise;"/><text text-anchor="middle" x="50" y="46" style="font-family:Times New Roman;"><![CDATA[ACTB]]></text></a></g><g id="node2" class="node"><title>PLEC1</title><a xlink:href="PLEC1.html"><ellipse cx="157" cy="135" rx="45" ry="24" style="fill:turquoise;stroke:turquoise;"/><text text-anchor="middle" x="157" y="142" style="font-family:Times New Roman;"><![CDATA[PLEC1]]></text></a></g><g id="edge2" class="edge"><title>ACTB-&gt;PLEC1</title><path style="fill:none;stroke:#0000ff;" d="M77,65C94,78 113,97 129,111"/><polygon style="fill:#0000ff;stroke:#0000ff;" points="76,58 70,63 76,69 81,63 76,58"/><polygon style="fill:#0000ff;stroke:#0000ff;" points="133,118 137,113 132,109 128,114 133,118"/></g><g id="node8" class="node"><title>VIM</title><a xlink:href="VIM.html"><ellipse cx="157" cy="231" rx="37" ry="24" style="fill:turquoise;stroke:turquoise;"/><text text-anchor="middle" x="157" y="238" style="font-family:Times New Roman;"><![CDATA[VIM]]></text></a></g><g id="edge8" class="edge"><title>PLEC1-&gt;VIM</title><path style="fill:none;stroke:#0000ff;" d="M157,166C157,177 157,190 157,201"/><polygon style="fill:#0000ff;stroke:#0000ff;" points="161,159 154,159 154,166 161,166 161,159"/><polygon style="fill:#0000ff;stroke:#0000ff;" points="154,207 161,207 161,201 154,201 154,207"/></g><g id="node4" class="node"><title>VIL2</title><a xlink:href="VIL2.html"><ellipse cx="157" cy="39" rx="38" ry="24" style="fill:turquoise;stroke:turquoise;"/><text text-anchor="middle" x="157" y="46" style="font-family:Times New Roman;"><![CDATA[VIL2]]></text></a></g><g id="edge4" class="edge"><title>VIL2-&gt;PLEC1</title><path style="fill:none;stroke:#0000ff;" d="M157,70C157,81 157,94 157,105"/><polygon style="fill:#0000ff;stroke:#0000ff;" points="161,63 154,63 154,70 161,70 161,63"/><polygon style="fill:#0000ff;stroke:#0000ff;" points="154,111 161,111 161,105 154,105 154,111"/></g><g id="node6" class="node"><title>ITGB1</title><a xlink:href="ITGB1.html"><ellipse cx="264" cy="39" rx="44" ry="24" style="fill:turquoise;stroke:turquoise;"/><text text-anchor="middle" x="264" y="46" style="font-family:Times New Roman;"><![CDATA[ITGB1]]></text></a></g><g id="edge6" class="edge"><title>ITGB1-&gt;PLEC1</title><path style="fill:none;stroke:#0000ff;" d="M237,65C219,78 201,97 185,111"/><polygon style="fill:#0000ff;stroke:#0000ff;" points="243,63 238,58 233,63 238,69 243,63"/><polygon style="fill:#0000ff;stroke:#0000ff;" points="178,113 182,118 187,114 183,109 178,113"/></g></g></svg>