<?xml version="1.0" encoding="UTF-8" standalone="no"?><!DOCTYPE svg PUBLIC "-//W3C//DTD SVG 1.0//EN" "http://www.w3.org/TR/2001/REC-SVG-20010904/DTD/svg10.dtd" [ <!ATTLIST svg xmlns:xlink CDATA #FIXED "http://www.w3.org/1999/xlink">]><!-- Generated by WinGraphviz version ver1.02.23, 08/01/2003 (08/04/2003)     For user: Avi Ma'ayan   Title: G    Pages: 1 --><svg width="207px" height="180px" xmlns="http://www.w3.org/2000/svg" xmlns:xlink="http://www.w3.org/1999/xlink"><g id="graph0" class="graph" style="font-family:Times New Roman;font-size:18.67;"><title>G</title><g id="node1" class="node"><title>GIT1</title><a xlink:href="GIT1.html"><ellipse cx="42" cy="39" rx="36" ry="24" style="fill:turquoise;stroke:turquoise;"/><text text-anchor="middle" x="42" y="46" style="font-family:Times New Roman;"><![CDATA[GIT1]]></text></a></g><g id="node2" class="node"><title>PPFIA1</title><a xlink:href="PPFIA1.html"><ellipse cx="96" cy="135" rx="48" ry="24" style="fill:turquoise;stroke:turquoise;"/><text text-anchor="middle" x="96" y="142" style="font-family:Times New Roman;"><![CDATA[PPFIA1]]></text></a></g><g id="edge2" class="edge"><title>GIT1-&gt;PPFIA1</title><path style="fill:none;stroke:#0000ff;" d="M57,67C63,79 73,94 80,106"/><polygon style="fill:#0000ff;stroke:#0000ff;" points="57,61 51,63 54,69 59,66 57,61"/><polygon style="fill:#0000ff;stroke:#0000ff;" points="80,113 85,110 82,105 77,107 80,113"/></g><g id="node4" class="node"><title>PTPRF</title><a xlink:href="PTPRF.html"><ellipse cx="150" cy="39" rx="48" ry="24" style="fill:turquoise;stroke:turquoise;"/><text text-anchor="middle" x="150" y="46" style="font-family:Times New Roman;"><![CDATA[PTPRF]]></text></a></g><g id="edge4" class="edge"><title>PTPRF-&gt;PPFIA1</title><path style="fill:none;stroke:#0000ff;" d="M134,67C128,81 118,94 112,107"/><polygon style="fill:#0000ff;stroke:#0000ff;" points="139,63 134,61 132,66 137,69 139,63"/><polygon style="fill:#0000ff;stroke:#0000ff;" points="106,111 112,114 114,109 109,106 106,111"/></g></g></svg>