<?xml version="1.0" encoding="UTF-8" standalone="no"?><!DOCTYPE svg PUBLIC "-//W3C//DTD SVG 1.0//EN" "http://www.w3.org/TR/2001/REC-SVG-20010904/DTD/svg10.dtd" [ <!ATTLIST svg xmlns:xlink CDATA #FIXED "http://www.w3.org/1999/xlink">]><!-- Generated by WinGraphviz version ver1.02.23, 08/01/2003 (08/04/2003)     For user: Avi Ma'ayan   Title: G    Pages: 1 --><svg width="148px" height="276px" xmlns="http://www.w3.org/2000/svg" xmlns:xlink="http://www.w3.org/1999/xlink"><g id="graph0" class="graph" style="font-family:Times New Roman;font-size:18.67;"><title>G</title><g id="node1" class="node"><title>ARHGEF6</title><a xlink:href="ARHGEF6.html"><ellipse cx="73" cy="39" rx="66" ry="24" style="fill:turquoise;stroke:turquoise;"/><text text-anchor="middle" x="73" y="46" style="font-family:Times New Roman;"><![CDATA[ARHGEF6]]></text></a></g><g id="node2" class="node"><title>PPM1M</title><a xlink:href="PPM1M.html"><ellipse cx="73" cy="135" rx="50" ry="24" style="fill:turquoise;stroke:turquoise;"/><text text-anchor="middle" x="73" y="142" style="font-family:Times New Roman;"><![CDATA[PPM1M]]></text></a></g><g id="edge2" class="edge"><title>ARHGEF6-&gt;PPM1M</title><path style="fill:none;stroke:#0000ff;" d="M73,70C73,81 73,94 73,105"/><polygon style="fill:#0000ff;stroke:#0000ff;" points="77,63 70,63 70,70 77,70 77,63"/><polygon style="fill:#0000ff;stroke:#0000ff;" points="70,111 77,111 77,105 70,105 70,111"/></g><g id="node4" class="node"><title>PAK1</title><a xlink:href="PAK1.html"><ellipse cx="73" cy="231" rx="41" ry="24" style="fill:turquoise;stroke:turquoise;"/><text text-anchor="middle" x="73" y="238" style="font-family:Times New Roman;"><![CDATA[PAK1]]></text></a></g><g id="edge4" class="edge"><title>PPM1M-&gt;PAK1</title><path style="fill:none;stroke:#ff0000;" d="M73,159C73,167 73,178 73,187"/><polyline style="fill:none;stroke:#ff0000;" points="63,187 84,187 "/></g></g></svg>