<?xml version="1.0" encoding="UTF-8" standalone="no"?><!DOCTYPE svg PUBLIC "-//W3C//DTD SVG 1.0//EN" "http://www.w3.org/TR/2001/REC-SVG-20010904/DTD/svg10.dtd" [ <!ATTLIST svg xmlns:xlink CDATA #FIXED "http://www.w3.org/1999/xlink">]><!-- Generated by WinGraphviz version ver1.02.23, 08/01/2003 (08/04/2003)     For user: Avi Ma'ayan   Title: G    Pages: 1 --><svg width="735px" height="256px" xmlns="http://www.w3.org/2000/svg" xmlns:xlink="http://www.w3.org/1999/xlink"><g id="graph0" class="graph" style="font-family:Times New Roman;font-size:17.32;"><title>G</title><g id="node1" class="node"><title>CAV1</title><a xlink:href="CAV1.html"><ellipse cx="301" cy="36" rx="39" ry="22" style="fill:turquoise;stroke:turquoise;"/><text text-anchor="middle" x="301" y="42" style="font-family:Times New Roman;"><![CDATA[CAV1]]></text></a></g><g id="node2" class="node"><title>PPP2CA</title><a xlink:href="PPP2CA.html"><ellipse cx="351" cy="125" rx="50" ry="22" style="fill:turquoise;stroke:turquoise;"/><text text-anchor="middle" x="351" y="131" style="font-family:Times New Roman;"><![CDATA[PPP2CA]]></text></a></g><g id="edge2" class="edge"><title>CAV1-&gt;PPP2CA</title><path style="fill:none;stroke:#ff0000;" d="M313,57C318,66 324,78 330,87"/><polyline style="fill:none;stroke:#ff0000;" points="322,91 338,83 "/></g><g id="node6" class="node"><title>AKT1</title><a xlink:href="AKT1.html"><ellipse cx="45" cy="214" rx="38" ry="22" style="fill:turquoise;stroke:turquoise;"/><text text-anchor="middle" x="45" y="220" style="font-family:Times New Roman;"><![CDATA[AKT1]]></text></a></g><g id="edge6" class="edge"><title>PPP2CA-&gt;AKT1</title><path style="fill:none;stroke:#ff0000;" d="M306,134C254,146 167,167 94,191 93,191 92,193 90,193"/><polyline style="fill:none;stroke:#ff0000;" points="87,184 95,201 "/></g><g id="node8" class="node"><title>CFL1</title><a xlink:href="CFL1.html"><ellipse cx="140" cy="214" rx="34" ry="22" style="fill:turquoise;stroke:turquoise;"/><text text-anchor="middle" x="140" y="220" style="font-family:Times New Roman;"><![CDATA[CFL1]]></text></a></g><g id="edge8" class="edge"><title>PPP2CA-&gt;CFL1</title><path style="fill:none;stroke:#ff0000;" d="M313,139C280,152 229,173 186,191 184,191 183,193 182,193"/><polyline style="fill:none;stroke:#ff0000;" points="179,184 188,200 "/></g><g id="node10" class="node"><title>NEDD9</title><a xlink:href="NEDD9.html"><ellipse cx="245" cy="214" rx="48" ry="22" style="fill:turquoise;stroke:turquoise;"/><text text-anchor="middle" x="245" y="220" style="font-family:Times New Roman;"><![CDATA[NEDD9]]></text></a></g><g id="edge10" class="edge"><title>PPP2CA-&gt;NEDD9</title><path style="fill:none;stroke:#ff0000;" d="M328,144C314,156 297,170 282,183"/><polyline style="fill:none;stroke:#ff0000;" points="277,175 288,189 "/></g><g id="node12" class="node"><title>PXN</title><a xlink:href="PXN.html"><ellipse cx="351" cy="214" rx="35" ry="22" style="fill:turquoise;stroke:turquoise;"/><text text-anchor="middle" x="351" y="220" style="font-family:Times New Roman;"><![CDATA[PXN]]></text></a></g><g id="edge12" class="edge"><title>PPP2CA-&gt;PXN</title><path style="fill:none;stroke:#ff0000;" d="M351,147C351,154 351,164 351,173"/><polyline style="fill:none;stroke:#ff0000;" points="343,173 361,173 "/></g><g id="node14" class="node"><title>PRKCA</title><a xlink:href="PRKCA.html"><ellipse cx="459" cy="214" rx="49" ry="22" style="fill:turquoise;stroke:turquoise;"/><text text-anchor="middle" x="459" y="220" style="font-family:Times New Roman;"><![CDATA[PRKCA]]></text></a></g><g id="edge14" class="edge"><title>PPP2CA-&gt;PRKCA</title><path style="fill:none;stroke:#ff0000;" d="M375,144C388,156 406,170 422,183"/><polyline style="fill:none;stroke:#ff0000;" points="416,189 427,175 "/></g><g id="node16" class="node"><title>VASP</title><a xlink:href="VASP.html"><ellipse cx="572" cy="214" rx="40" ry="22" style="fill:turquoise;stroke:turquoise;"/><text text-anchor="middle" x="572" y="220" style="font-family:Times New Roman;"><![CDATA[VASP]]></text></a></g><g id="edge16" class="edge"><title>PPP2CA-&gt;VASP</title><path style="fill:none;stroke:#ff0000;" d="M388,139C423,153 474,174 520,191 521,191 522,193 523,193"/><polyline style="fill:none;stroke:#ff0000;" points="517,200 526,184 "/></g><g id="node18" class="node"><title>BCAR1</title><a xlink:href="BCAR1.html"><ellipse cx="680" cy="214" rx="45" ry="22" style="fill:turquoise;stroke:turquoise;"/><text text-anchor="middle" x="680" y="220" style="font-family:Times New Roman;"><![CDATA[BCAR1]]></text></a></g><g id="edge18" class="edge"><title>PPP2CA-&gt;BCAR1</title><path style="fill:none;stroke:#ff0000;" d="M397,134C452,146 546,167 623,191 625,193 627,193 628,194"/><polyline style="fill:none;stroke:#ff0000;" points="623,203 630,184 "/></g><g id="node4" class="node"><title>ITGB1</title><a xlink:href="ITGB1.html"><ellipse cx="403" cy="36" rx="40" ry="22" style="fill:turquoise;stroke:turquoise;"/><text text-anchor="middle" x="403" y="42" style="font-family:Times New Roman;"><![CDATA[ITGB1]]></text></a></g><g id="edge4" class="edge"><title>ITGB1-&gt;PPP2CA</title><path style="fill:none;stroke:#0000ff;" d="M388,62C381,74 374,86 366,99"/><polygon style="fill:#0000ff;stroke:#0000ff;" points="393,58 388,55 386,60 391,63 393,58"/><polygon style="fill:#0000ff;stroke:#0000ff;" points="361,102 366,105 369,100 364,97 361,102"/></g></g></svg>