<?xml version="1.0" encoding="UTF-8" standalone="no"?><!DOCTYPE svg PUBLIC "-//W3C//DTD SVG 1.0//EN" "http://www.w3.org/TR/2001/REC-SVG-20010904/DTD/svg10.dtd" [ <!ATTLIST svg xmlns:xlink CDATA #FIXED "http://www.w3.org/1999/xlink">]><!-- Generated by WinGraphviz version ver1.02.23, 08/01/2003 (08/04/2003)     For user: Avi Ma'ayan   Title: G    Pages: 1 --><svg width="735px" height="134px" xmlns="http://www.w3.org/2000/svg" xmlns:xlink="http://www.w3.org/1999/xlink"><g id="graph0" class="graph" style="font-family:Times New Roman;font-size:13.48;"><title>G</title><g id="node1" class="node"><title>PRKACA</title><a xlink:href="PRKACA.html"><ellipse cx="369" cy="30" rx="45" ry="17" style="fill:turquoise;stroke:turquoise;"/><text text-anchor="middle" x="369" y="34" style="font-family:Times New Roman;"><![CDATA[PRKACA]]></text></a></g><g id="node2" class="node"><title>CAPN1</title><a xlink:href="CAPN1.html"><ellipse cx="42" cy="99" rx="35" ry="17" style="fill:turquoise;stroke:turquoise;"/><text text-anchor="middle" x="42" y="104" style="font-family:Times New Roman;"><![CDATA[CAPN1]]></text></a></g><g id="edge2" class="edge"><title>PRKACA-&gt;CAPN1</title><path style="fill:none;stroke:darkgreen;" d="M326,35C270,42 170,58 86,81 83,82 80,83 77,84"/><polygon style="fill:darkgreen;stroke:darkgreen;" points="78,86 69,87 77,81 78,86"/></g><g id="node4" class="node"><title>CSK</title><a xlink:href="CSK.html"><ellipse cx="121" cy="99" rx="25" ry="17" style="fill:turquoise;stroke:turquoise;"/><text text-anchor="middle" x="121" y="104" style="font-family:Times New Roman;"><![CDATA[CSK]]></text></a></g><g id="edge4" class="edge"><title>PRKACA-&gt;CSK</title><path style="fill:none;stroke:darkgreen;" d="M328,37C284,45 214,60 155,81 153,82 151,83 149,84"/><polygon style="fill:darkgreen;stroke:darkgreen;" points="151,86 141,88 149,81 151,86"/></g><g id="node6" class="node"><title>ITGA5</title><a xlink:href="ITGA5.html"><ellipse cx="198" cy="99" rx="33" ry="17" style="fill:turquoise;stroke:turquoise;"/><text text-anchor="middle" x="198" y="104" style="font-family:Times New Roman;"><![CDATA[ITGA5]]></text></a></g><g id="edge6" class="edge"><title>PRKACA-&gt;ITGA5</title><path style="fill:none;stroke:darkgreen;" d="M338,42C312,53 274,68 240,81 238,82 235,83 232,84"/><polygon style="fill:darkgreen;stroke:darkgreen;" points="234,86 225,88 232,81 234,86"/></g><g id="node8" class="node"><title>LASP1</title><a xlink:href="LASP1.html"><ellipse cx="281" cy="99" rx="32" ry="17" style="fill:turquoise;stroke:turquoise;"/><text text-anchor="middle" x="281" y="104" style="font-family:Times New Roman;"><![CDATA[LASP1]]></text></a></g><g id="edge8" class="edge"><title>PRKACA-&gt;LASP1</title><path style="fill:none;stroke:darkgreen;" d="M349,45C336,55 320,68 306,79"/><polygon style="fill:darkgreen;stroke:darkgreen;" points="308,80 300,84 306,77 308,80"/></g><g id="node10" class="node"><title>PTPN12</title><a xlink:href="PTPN12.html"><ellipse cx="369" cy="99" rx="37" ry="17" style="fill:turquoise;stroke:turquoise;"/><text text-anchor="middle" x="369" y="104" style="font-family:Times New Roman;"><![CDATA[PTPN12]]></text></a></g><g id="edge10" class="edge"><title>PRKACA-&gt;PTPN12</title><path style="fill:none;stroke:darkgreen;" d="M369,47C369,55 369,63 369,72"/><polygon style="fill:darkgreen;stroke:darkgreen;" points="372,72 369,81 367,72 372,72"/></g><g id="node12" class="node"><title>RHOA</title><a xlink:href="RHOA.html"><ellipse cx="459" cy="99" rx="34" ry="17" style="fill:turquoise;stroke:turquoise;"/><text text-anchor="middle" x="459" y="104" style="font-family:Times New Roman;"><![CDATA[RHOA]]></text></a></g><g id="edge12" class="edge"><title>PRKACA-&gt;RHOA</title><path style="fill:none;stroke:darkgreen;" d="M389,45C403,55 419,68 433,79"/><polygon style="fill:darkgreen;stroke:darkgreen;" points="434,77 439,84 431,80 434,77"/></g><g id="node14" class="node"><title>SRC</title><a xlink:href="SRC.html"><ellipse cx="537" cy="99" rx="25" ry="17" style="fill:turquoise;stroke:turquoise;"/><text text-anchor="middle" x="537" y="104" style="font-family:Times New Roman;"><![CDATA[SRC]]></text></a></g><g id="edge14" class="edge"><title>PRKACA-&gt;SRC</title><path style="fill:none;stroke:darkgreen;" d="M402,42C429,52 468,67 502,81 504,82 506,83 507,83"/><polygon style="fill:darkgreen;stroke:darkgreen;" points="508,81 515,88 506,85 508,81"/></g><g id="node16" class="node"><title>VASP</title><a xlink:href="VASP.html"><ellipse cx="612" cy="99" rx="31" ry="17" style="fill:turquoise;stroke:turquoise;"/><text text-anchor="middle" x="612" y="104" style="font-family:Times New Roman;"><![CDATA[VASP]]></text></a></g><g id="edge16" class="edge"><title>PRKACA-&gt;VASP</title><path style="fill:none;stroke:darkgreen;" d="M409,38C450,47 515,63 571,81 573,82 576,83 579,84"/><polygon style="fill:darkgreen;stroke:darkgreen;" points="579,81 587,88 577,86 579,81"/></g><g id="node18" class="node"><title>FLNA</title><a xlink:href="FLNA.html"><ellipse cx="693" cy="99" rx="32" ry="17" style="fill:turquoise;stroke:turquoise;"/><text text-anchor="middle" x="693" y="104" style="font-family:Times New Roman;"><![CDATA[FLNA]]></text></a></g><g id="edge18" class="edge"><title>PRKACA-&gt;FLNA</title><path style="fill:none;stroke:darkgreen;" d="M412,34C468,42 568,57 652,81 655,82 657,83 660,84"/><polygon style="fill:darkgreen;stroke:darkgreen;" points="660,81 668,87 659,86 660,81"/></g></g></svg>