<?xml version="1.0" encoding="UTF-8" standalone="no"?><!DOCTYPE svg PUBLIC "-//W3C//DTD SVG 1.0//EN" "http://www.w3.org/TR/2001/REC-SVG-20010904/DTD/svg10.dtd" [ <!ATTLIST svg xmlns:xlink CDATA #FIXED "http://www.w3.org/1999/xlink">]><!-- Generated by WinGraphviz version ver1.02.23, 08/01/2003 (08/04/2003)     For user: Avi Ma'ayan   Title: G    Pages: 1 --><!--="735px" height="87px" xmlns="http://www.w3.org/2000/svg" --><svg onload="init(evt)" width="735px" height="600px" xmlns="http://www.w3.org/2000/svg" xmlns:xlink="http://www.w3.org/1999/xlink">
<script type="text/ecmascript">
<![CDATA[
var svgDocument;
var zoomAmt;
var xOffset;
var yOffset;
var scale;
var maxScale;
var imageWidth;
var imageHeight;
function init(evt)
{
    svgDocument = evt.getTarget().getOwnerDocument();
    zoomAmt = 0;
    xOffset = 0;
    yOffset = 60;
    scale = 0.8;
    maxScale = 10;
    imageWidth = 742;
    imageHeight = 606;
    panRestore();
    //panUp();
}
function transformMap ()
{
    var obj = svgDocument.getElementById("Pathway");
    var centerX = imageWidth  / 2.0;
    var centerY = imageHeight / 2.0;
    var adjustX = (-centerX * (scale - 0.8)) + xOffset;
    var adjustY = (-centerY * (scale - 0.8)) + yOffset;
    var transParms = 'translate(' + adjustX + ',' + adjustY + ') ';
    transParms += 'scale(' + scale + ')';
    // alert(transParms);
    obj.setAttribute("transform", transParms); 
}
function click_node(id)
{
    var testx = parent.click_node;
    if (typeof(testx) == "function")
    {
		parent.click_node(id);
    }
}
function click_relation(id)
{
    var testx = parent.click_relation;
    if (typeof(testx) == "function")
    {
        parent.click_relation(id);
    }
}
function click_pathway(toId, fromId)
{
    var testx = parent.click_pathway;
    if (typeof(testx) == "function")
    {
	parent.click_pathway(toId, fromId);
    }
}
function check_interpath(evt, pathid)
{
  var obj = evt.getTarget();
  var testx = parent.is_frompath;
  var child = obj.firstChild;
  if (typeof(testx) == "function")
  {
    if (parent.is_frompath(pathid))
    {
      while (child != null)
      {
        if (child.nodeType == 1)
        {
          if ((child.localName == "g") || (child.localName == "polyline"))
          {
            child.setAttribute("style", "fill:none;stroke:red");
          }
          else if (child.localName == "polygon")
          {
            child.setAttribute("style", "fill:red;stroke:red");
          }
        }
        child = child.nextSibling;
      }
    }
  }
}
function set_status (msg)
{
 var obj = svgDocument.getElementById("status_text");
  var child;
 
  child = obj.firstChild;
  if ((child != null) && (child.nodeType == 3))
  {
    if ((msg != null) && (msg.length > 0))
    {
      child.data = msg;
    }
    else
    {
child.data = " ";
    }
  }
}
function zoomIn ()
{
    scale = scale + 0.8;
    if (scale > maxScale)
    {
       scale = maxScale;
    }
    transformMap();
    panUp();
    panUp();
    panUp();
    panUp();
    panUp();
    panUp();
    panUp();
    panUp();
    panUp();
    panUp();
    panUp();
    panUp();
}
function zoomOut ()
{
    scale = scale - 0.8;
    if (scale < 0.8)
    {
       scale = 0.8;
    }
    transformMap();
    panDown();
    panDown();
    panDown();
    panDown();
    panDown();
    panDown();
    panDown();
    panDown();
    panDown();
    panDown();
    panDown();
    panDown();
}
function panUp ()
{
    yOffset = yOffset + 20;
    transformMap();
}
function panDown ()
{
    yOffset = yOffset - 20;
    transformMap();
}
function panLeft ()
{
    xOffset = xOffset + 20;
    transformMap();
}
function panRight ()
{
    xOffset = xOffset - 20;
    transformMap();
}
function panRestore ()
{
    xOffset = 0;
    yOffset = 0;
    scale = 0.5;
    //obj = svgDocument.getElementById("zoom");
    //obj.setAttribute("x1", 0);
    //obj.setAttribute("x2", 0);
    transformMap();    
}
function doHighlight (evt, msg)
{
  var obj = evt.getTarget();
  obj.setAttribute("fill", "rgb(239,24,33)");
  set_status(msg);
}
function resetHighlight (evt)
{
  var obj = evt.getTarget();
  obj.setAttribute("fill", "rgb(99,154,206)");
  set_status(" ");
}
// ]]>
</script>
<defs>
<clipPath id="theClip">
<polygon points="1 61, 741 61, 741 665, 1 665"
style="fill: none;"/>
</clipPath>
</defs>
<!-- viewport outline -->
<rect x="0" y="61" width="742" height="606"
style="stroke: black; stroke-width: 1; fill: none;"/>
<!-- pathway graph style="clip-path: url(#theClip);" -->
<g style="clip-path: url(#theClip);">
<g id="Pathway"  transform="translate(0,60)">
<!-- prefile.include ends, begin pathway graph -->
<g id="stkecm;CMP_10705" class="graph">
</g>
<g id="graph0" class="graph" style="font-family:Times New Roman;font-size:5.16;"><title>G</title><g id="node1" class="node"><title>ACTB</title><a xlink:href="ACTB.html"><ellipse cx="220" cy="14" rx="12" ry="6" style="fill:turquoise;stroke:turquoise;"/><text text-anchor="middle" x="220" y="16" style="font-family:Times New Roman;"><![CDATA[ACTB]]></text></a></g><g id="node2" class="node"><title>PRKCA</title><a xlink:href="PRKCA.html"><ellipse cx="365" cy="41" rx="14" ry="6" style="fill:turquoise;stroke:turquoise;"/><text text-anchor="middle" x="365" y="43" style="font-family:Times New Roman;"><![CDATA[PRKCA]]></text></a></g><g id="edge2" class="edge"><title>ACTB-&gt;PRKCA</title><path style="fill:none;stroke:#0000ff;" d="M231,19C232,20 234,20 235,21 275,32 323,37 348,40"/><polygon style="fill:#0000ff;stroke:#0000ff;" points="229,18 229,19 230,20 231,19 229,18"/><polygon style="fill:#0000ff;stroke:#0000ff;" points="350,40 350,39 348,39 348,40 350,40"/></g><g id="node6" class="node"><title>CAPN1</title><a xlink:href="CAPN1.html"><ellipse cx="20" cy="67" rx="13" ry="6" style="fill:turquoise;stroke:turquoise;"/><text text-anchor="middle" x="20" y="69" style="font-family:Times New Roman;"><![CDATA[CAPN1]]></text></a></g><g id="edge20" class="edge"><title>PRKCA-&gt;CAPN1</title><path style="fill:none;stroke:darkgreen;" d="M350,41C294,42 95,47 33,61 33,61 32,61 32,61"/><polygon style="fill:darkgreen;stroke:darkgreen;" points="32,62 29,62 32,60 32,62"/></g><g id="node12" class="node"><title>IRS1</title><a xlink:href="IRS1.html"><ellipse cx="50" cy="67" rx="9" ry="6" style="fill:turquoise;stroke:turquoise;"/><text text-anchor="middle" x="50" y="69" style="font-family:Times New Roman;"><![CDATA[IRS1]]></text></a></g><g id="edge64" class="edge"><title>PRKCA-&gt;IRS1</title><path style="fill:none;stroke:darkgreen;" d="M350,41C297,42 116,46 60,61 60,61 60,61 59,61"/><polygon style="fill:darkgreen;stroke:darkgreen;" points="60,62 56,62 59,60 60,62"/></g><g id="node21" class="node"><title>FLNA</title><a xlink:href="FLNA.html"><ellipse cx="79" cy="67" rx="12" ry="6" style="fill:turquoise;stroke:turquoise;"/><text text-anchor="middle" x="79" y="69" style="font-family:Times New Roman;"><![CDATA[FLNA]]></text></a></g><g id="edge22" class="edge"><title>PRKCA-&gt;FLNA</title><path style="fill:none;stroke:darkgreen;" d="M350,41C301,43 144,49 95,61 94,61 93,61 92,61"/><polygon style="fill:darkgreen;stroke:darkgreen;" points="92,62 89,63 92,61 92,62"/></g><g id="node23" class="node"><title>ITGB1</title><a xlink:href="ITGB1.html"><ellipse cx="110" cy="67" rx="12" ry="6" style="fill:turquoise;stroke:turquoise;"/><text text-anchor="middle" x="110" y="69" style="font-family:Times New Roman;"><![CDATA[ITGB1]]></text></a></g><g id="edge24" class="edge"><title>PRKCA-&gt;ITGB1</title><path style="fill:none;stroke:darkgreen;" d="M350,41C305,43 169,50 126,61 125,61 124,61 123,61"/><polygon style="fill:darkgreen;stroke:darkgreen;" points="123,62 120,63 123,61 123,62"/></g><g id="node25" class="node"><title>INSR</title><a xlink:href="INSR.html"><ellipse cx="140" cy="67" rx="11" ry="6" style="fill:turquoise;stroke:turquoise;"/><text text-anchor="middle" x="140" y="69" style="font-family:Times New Roman;"><![CDATA[INSR]]></text></a></g><g id="edge26" class="edge"><title>PRKCA-&gt;INSR</title><path style="fill:none;stroke:darkgreen;" d="M350,41C309,44 192,51 155,61 154,61 153,61 152,61"/><polygon style="fill:darkgreen;stroke:darkgreen;" points="152,62 149,63 152,60 152,62"/></g><g id="node27" class="node"><title>MARCKS</title><a xlink:href="MARCKS.html"><ellipse cx="176" cy="67" rx="17" ry="6" style="fill:turquoise;stroke:turquoise;"/><text text-anchor="middle" x="176" y="69" style="font-family:Times New Roman;"><![CDATA[MARCKS]]></text></a></g><g id="edge28" class="edge"><title>PRKCA-&gt;MARCKS</title><path style="fill:none;stroke:darkgreen;" d="M350,41C321,43 253,49 197,61 195,61 194,61 192,62"/><polygon style="fill:darkgreen;stroke:darkgreen;" points="193,63 189,63 192,61 193,63"/></g><g id="node29" class="node"><title>PLCG1</title><a xlink:href="PLCG1.html"><ellipse cx="213" cy="67" rx="12" ry="6" style="fill:turquoise;stroke:turquoise;"/><text text-anchor="middle" x="213" y="69" style="font-family:Times New Roman;"><![CDATA[PLCG1]]></text></a></g><g id="edge30" class="edge"><title>PRKCA-&gt;PLCG1</title><path style="fill:none;stroke:darkgreen;" d="M350,41C325,43 270,49 226,61 225,61 225,61 224,61"/><polygon style="fill:darkgreen;stroke:darkgreen;" points="225,62 221,62 224,60 225,62"/></g><g id="node31" class="node"><title>PTPN12</title><a xlink:href="PTPN12.html"><ellipse cx="247" cy="67" rx="14" ry="6" style="fill:turquoise;stroke:turquoise;"/><text text-anchor="middle" x="247" y="69" style="font-family:Times New Roman;"><![CDATA[PTPN12]]></text></a></g><g id="edge32" class="edge"><title>PRKCA-&gt;PTPN12</title><path style="fill:none;stroke:darkgreen;" d="M351,43C332,46 295,52 264,61 263,61 262,61 261,62"/><polygon style="fill:darkgreen;stroke:darkgreen;" points="262,62 258,63 261,61 262,62"/></g><g id="node33" class="node"><title>PTPRA</title><a xlink:href="PTPRA.html"><ellipse cx="282" cy="67" rx="14" ry="6" style="fill:turquoise;stroke:turquoise;"/><text text-anchor="middle" x="282" y="69" style="font-family:Times New Roman;"><![CDATA[PTPRA]]></text></a></g><g id="edge34" class="edge"><title>PRKCA-&gt;PTPRA</title><path style="fill:none;stroke:darkgreen;" d="M353,44C339,48 318,54 299,61 298,61 297,61 296,62"/><polygon style="fill:darkgreen;stroke:darkgreen;" points="297,62 293,63 296,61 297,62"/></g><g id="node35" class="node"><title>GNB2L1</title><a xlink:href="GNB2L1.html"><ellipse cx="318" cy="67" rx="15" ry="6" style="fill:turquoise;stroke:turquoise;"/><text text-anchor="middle" x="318" y="69" style="font-family:Times New Roman;"><![CDATA[GNB2L1]]></text></a></g><g id="edge36" class="edge"><title>PRKCA-&gt;GNB2L1</title><path style="fill:none;stroke:#0000ff;" d="M354,47C346,51 336,57 328,61"/><polygon style="fill:#0000ff;stroke:#0000ff;" points="356,47 355,45 354,46 355,48 356,47"/><polygon style="fill:#0000ff;stroke:#0000ff;" points="326,61 327,63 329,62 328,61 326,61"/></g><g id="node37" class="node"><title>SHC1</title><a xlink:href="SHC1.html"><ellipse cx="350" cy="67" rx="10" ry="6" style="fill:turquoise;stroke:turquoise;"/><text text-anchor="middle" x="350" y="69" style="font-family:Times New Roman;"><![CDATA[SHC1]]></text></a></g><g id="edge38" class="edge"><title>PRKCA-&gt;SHC1</title><path style="fill:none;stroke:#0000ff;" d="M361,49C359,52 356,56 354,60"/><polygon style="fill:#0000ff;stroke:#0000ff;" points="362,48 361,47 360,48 361,49 362,48"/><polygon style="fill:#0000ff;stroke:#0000ff;" points="353,61 354,61 355,60 354,59 353,61"/></g><g id="node39" class="node"><title>PTPN6</title><a xlink:href="PTPN6.html"><ellipse cx="381" cy="67" rx="13" ry="6" style="fill:turquoise;stroke:turquoise;"/><text text-anchor="middle" x="381" y="69" style="font-family:Times New Roman;"><![CDATA[PTPN6]]></text></a></g><g id="edge40" class="edge"><title>PRKCA-&gt;PTPN6</title><path style="fill:none;stroke:darkgreen;" d="M369,47C371,50 373,54 375,58"/><polygon style="fill:darkgreen;stroke:darkgreen;" points="376,57 377,61 374,58 376,57"/></g><g id="node41" class="node"><title>PTPN11</title><a xlink:href="PTPN11.html"><ellipse cx="414" cy="67" rx="13" ry="6" style="fill:turquoise;stroke:turquoise;"/><text text-anchor="middle" x="414" y="69" style="font-family:Times New Roman;"><![CDATA[PTPN11]]></text></a></g><g id="edge42" class="edge"><title>PRKCA-&gt;PTPN11</title><path style="fill:none;stroke:darkgreen;" d="M375,46C382,50 393,56 402,61"/><polygon style="fill:darkgreen;stroke:darkgreen;" points="402,60 405,62 401,61 402,60"/></g><g id="node43" class="node"><title>SRC</title><a xlink:href="SRC.html"><ellipse cx="444" cy="67" rx="9" ry="6" style="fill:turquoise;stroke:turquoise;"/><text text-anchor="middle" x="444" y="69" style="font-family:Times New Roman;"><![CDATA[SRC]]></text></a></g><g id="edge44" class="edge"><title>PRKCA-&gt;SRC</title><path style="fill:none;stroke:darkgreen;" d="M377,44C390,48 410,54 428,61 429,61 431,62 432,63"/><polygon style="fill:darkgreen;stroke:darkgreen;" points="432,62 435,64 432,64 432,62"/></g><g id="node45" class="node"><title>STAT3</title><a xlink:href="STAT3.html"><ellipse cx="474" cy="67" rx="12" ry="6" style="fill:#eea9b9;stroke:#eea9b9;"/><text text-anchor="middle" x="474" y="69" style="font-family:Times New Roman;"><![CDATA[STAT3]]></text></a></g><g id="edge46" class="edge"><title>PRKCA-&gt;STAT3</title><path style="fill:none;stroke:darkgreen;" d="M379,43C397,46 430,53 458,61 459,61 459,61 460,62"/><polygon style="fill:darkgreen;stroke:darkgreen;" points="460,61 464,63 460,62 460,61"/></g><g id="node47" class="node"><title>SYK</title><a xlink:href="SYK.html"><ellipse cx="504" cy="67" rx="10" ry="6" style="fill:turquoise;stroke:turquoise;"/><text text-anchor="middle" x="504" y="69" style="font-family:Times New Roman;"><![CDATA[SYK]]></text></a></g><g id="edge48" class="edge"><title>PRKCA-&gt;SYK</title><path style="fill:none;stroke:darkgreen;" d="M379,42C403,44 449,49 487,61 488,61 490,62 491,62"/><polygon style="fill:darkgreen;stroke:darkgreen;" points="491,61 494,64 491,63 491,61"/></g><g id="node49" class="node"><title>SDC4</title><a xlink:href="SDC4.html"><ellipse cx="532" cy="67" rx="11" ry="6" style="fill:turquoise;stroke:turquoise;"/><text text-anchor="middle" x="532" y="69" style="font-family:Times New Roman;"><![CDATA[SDC4]]></text></a></g><g id="edge50" class="edge"><title>PRKCA-&gt;SDC4</title><path style="fill:none;stroke:darkgreen;" d="M380,41C407,43 468,47 517,61 518,61 519,61 520,62"/><polygon style="fill:darkgreen;stroke:darkgreen;" points="520,61 523,63 519,62 520,61"/></g><g id="node51" class="node"><title>TSPAN1</title><a xlink:href="TSPAN1.html"><ellipse cx="565" cy="67" rx="14" ry="6" style="fill:turquoise;stroke:turquoise;"/><text text-anchor="middle" x="565" y="69" style="font-family:Times New Roman;"><![CDATA[TSPAN1]]></text></a></g><g id="edge52" class="edge"><title>PRKCA-&gt;TSPAN1</title><path style="fill:none;stroke:#0000ff;" d="M382,41C414,42 487,47 547,61 549,61 550,62 552,62"/><polygon style="fill:#0000ff;stroke:#0000ff;" points="380,40 380,42 382,42 382,40 380,40"/><polygon style="fill:#0000ff;stroke:#0000ff;" points="553,64 554,62 552,62 552,63 553,64"/></g><g id="node53" class="node"><title>TIAM1</title><a xlink:href="TIAM1.html"><ellipse cx="599" cy="67" rx="12" ry="6" style="fill:turquoise;stroke:turquoise;"/><text text-anchor="middle" x="599" y="69" style="font-family:Times New Roman;"><![CDATA[TIAM1]]></text></a></g><g id="edge54" class="edge"><title>PRKCA-&gt;TIAM1</title><path style="fill:none;stroke:darkgreen;" d="M380,41C422,44 544,51 583,61 584,61 585,61 586,62"/><polygon style="fill:darkgreen;stroke:darkgreen;" points="586,61 589,63 585,62 586,61"/></g><g id="node55" class="node"><title>VASP</title><a xlink:href="VASP.html"><ellipse cx="631" cy="67" rx="12" ry="6" style="fill:turquoise;stroke:turquoise;"/><text text-anchor="middle" x="631" y="69" style="font-family:Times New Roman;"><![CDATA[VASP]]></text></a></g><g id="edge56" class="edge"><title>PRKCA-&gt;VASP</title><path style="fill:none;stroke:darkgreen;" d="M380,41C427,43 570,50 615,61 616,61 617,61 618,61"/><polygon style="fill:darkgreen;stroke:darkgreen;" points="619,61 622,63 618,62 619,61"/></g><g id="node57" class="node"><title>VIM</title><a xlink:href="VIM.html"><ellipse cx="660" cy="67" rx="10" ry="6" style="fill:turquoise;stroke:turquoise;"/><text text-anchor="middle" x="660" y="69" style="font-family:Times New Roman;"><![CDATA[VIM]]></text></a></g><g id="edge58" class="edge"><title>PRKCA-&gt;VIM</title><path style="fill:none;stroke:darkgreen;" d="M380,41C430,42 595,47 646,61 647,61 648,61 649,62"/><polygon style="fill:darkgreen;stroke:darkgreen;" points="649,61 652,63 648,62 649,61"/></g><g id="node59" class="node"><title>VCL</title><a xlink:href="VCL.html"><ellipse cx="687" cy="67" rx="10" ry="6" style="fill:turquoise;stroke:turquoise;"/><text text-anchor="middle" x="687" y="69" style="font-family:Times New Roman;"><![CDATA[VCL]]></text></a></g><g id="edge60" class="edge"><title>PRKCA-&gt;VCL</title><path style="fill:none;stroke:darkgreen;" d="M380,41C433,42 617,46 673,61 674,61 675,61 676,62"/><polygon style="fill:darkgreen;stroke:darkgreen;" points="676,61 679,63 676,62 676,61"/></g><g id="node61" class="node"><title>TLN1</title><a xlink:href="TLN1.html"><ellipse cx="715" cy="67" rx="11" ry="6" style="fill:turquoise;stroke:turquoise;"/><text text-anchor="middle" x="715" y="69" style="font-family:Times New Roman;"><![CDATA[TLN1]]></text></a></g><g id="edge62" class="edge"><title>PRKCA-&gt;TLN1</title><path style="fill:none;stroke:#0000ff;" d="M382,41C441,41 639,45 701,61 702,61 704,62 705,62"/><polygon style="fill:#0000ff;stroke:#0000ff;" points="380,40 380,41 382,41 382,40 380,40"/><polygon style="fill:#0000ff;stroke:#0000ff;" points="706,64 707,62 706,61 705,63 706,64"/></g><g id="node4" class="node"><title>AKT1</title><a xlink:href="AKT1.html"><ellipse cx="250" cy="14" rx="11" ry="6" style="fill:turquoise;stroke:turquoise;"/><text text-anchor="middle" x="250" y="16" style="font-family:Times New Roman;"><![CDATA[AKT1]]></text></a></g><g id="edge4" class="edge"><title>AKT1-&gt;PRKCA</title><path style="fill:none;stroke:#0000ff;" d="M260,19C262,20 263,20 265,21 294,30 329,36 348,39"/><polygon style="fill:#0000ff;stroke:#0000ff;" points="259,18 259,19 260,20 261,19 259,18"/><polygon style="fill:#0000ff;stroke:#0000ff;" points="351,40 351,38 349,38 349,39 351,40"/></g><g id="edge6" class="edge"><title>CAPN1-&gt;PRKCA</title><path style="fill:none;stroke:#ff0000;" d="M345,41C284,43 99,48 40,61 37,61 34,62 31,64"/><polyline style="fill:none;stroke:#ff0000;" points="345,44 345,38 "/></g><g id="node8" class="node"><title>VIL2</title><a xlink:href="VIL2.html"><ellipse cx="279" cy="14" rx="10" ry="6" style="fill:turquoise;stroke:turquoise;"/><text text-anchor="middle" x="279" y="16" style="font-family:Times New Roman;"><![CDATA[VIL2]]></text></a></g><g id="edge8" class="edge"><title>VIL2-&gt;PRKCA</title><path style="fill:none;stroke:#0000ff;" d="M288,19C290,20 291,20 293,21 312,28 335,34 350,37"/><polygon style="fill:#0000ff;stroke:#0000ff;" points="287,18 287,19 288,20 289,18 287,18"/><polygon style="fill:#0000ff;stroke:#0000ff;" points="352,39 352,37 350,37 350,38 352,39"/></g><g id="node10" class="node"><title>FYN</title><a xlink:href="FYN.html"><ellipse cx="307" cy="14" rx="10" ry="6" style="fill:turquoise;stroke:turquoise;"/><text text-anchor="middle" x="307" y="16" style="font-family:Times New Roman;"><![CDATA[FYN]]></text></a></g><g id="edge10" class="edge"><title>FYN-&gt;PRKCA</title><path style="fill:none;stroke:darkgreen;" d="M315,18C317,19 319,20 321,21 331,26 343,31 351,35"/><polygon style="fill:darkgreen;stroke:darkgreen;" points="351,34 354,36 351,36 351,34"/></g><g id="edge12" class="edge"><title>IRS1-&gt;PRKCA</title><path style="fill:none;stroke:#0000ff;" d="M348,41C294,42 121,46 67,61 64,61 62,62 60,63"/><polygon style="fill:#0000ff;stroke:#0000ff;" points="350,42 350,40 348,40 348,42 350,42"/><polygon style="fill:#0000ff;stroke:#0000ff;" points="58,63 59,65 61,64 60,62 58,63"/></g><g id="node14" class="node"><title>LYN</title><a xlink:href="LYN.html"><ellipse cx="335" cy="14" rx="10" ry="6" style="fill:turquoise;stroke:turquoise;"/><text text-anchor="middle" x="335" y="16" style="font-family:Times New Roman;"><![CDATA[LYN]]></text></a></g><g id="edge14" class="edge"><title>LYN-&gt;PRKCA</title><path style="fill:none;stroke:darkgreen;" d="M341,20C346,23 351,29 356,33"/><polygon style="fill:darkgreen;stroke:darkgreen;" points="356,32 358,35 355,33 356,32"/></g><g id="node16" class="node"><title>PDPK1</title><a xlink:href="PDPK1.html"><ellipse cx="365" cy="14" rx="12" ry="6" style="fill:turquoise;stroke:turquoise;"/><text text-anchor="middle" x="365" y="16" style="font-family:Times New Roman;"><![CDATA[PDPK1]]></text></a></g><g id="edge16" class="edge"><title>PDPK1-&gt;PRKCA</title><path style="fill:none;stroke:darkgreen;" d="M365,21C365,24 365,27 365,30"/><polygon style="fill:darkgreen;stroke:darkgreen;" points="366,30 365,34 364,30 366,30"/></g><g id="node18" class="node"><title>PIP3</title><a xlink:href="PIP3.html"><ellipse cx="395" cy="14" rx="9" ry="6" style="fill:turquoise;stroke:turquoise;"/><text text-anchor="middle" x="395" y="16" style="font-family:Times New Roman;"><![CDATA[PIP3]]></text></a></g><g id="edge18" class="edge"><title>PIP3-&gt;PRKCA</title><path style="fill:none;stroke:darkgreen;" d="M389,20C384,23 379,29 374,33"/><polygon style="fill:darkgreen;stroke:darkgreen;" points="375,33 372,35 374,32 375,33"/></g><g id="edge66" class="edge"><title>PLCG1-&gt;PRKCA</title><path style="fill:none;stroke:darkgreen;" d="M347,42C321,44 273,50 232,61 229,61 227,62 224,64"/><polygon style="fill:darkgreen;stroke:darkgreen;" points="347,41 350,42 347,43 347,41"/></g><g id="edge76" class="edge"><title>SRC-&gt;PRKCA</title><path style="fill:none;stroke:darkgreen;" d="M382,44C396,48 417,54 434,61 435,61 437,62 438,62"/><polygon style="fill:darkgreen;stroke:darkgreen;" points="382,45 379,44 382,44 382,45"/></g><g id="edge78" class="edge"><title>SYK-&gt;PRKCA</title><path style="fill:none;stroke:darkgreen;" d="M383,42C409,44 455,49 493,61 494,61 496,62 497,62"/><polygon style="fill:darkgreen;stroke:darkgreen;" points="383,43 380,41 383,41 383,43"/></g><g id="node65" class="node"><title>PLD1</title><a xlink:href="PLD1.html"><ellipse cx="422" cy="14" rx="10" ry="6" style="fill:turquoise;stroke:turquoise;"/><text text-anchor="middle" x="422" y="16" style="font-family:Times New Roman;"><![CDATA[PLD1]]></text></a></g><g id="edge68" class="edge"><title>PLD1-&gt;PRKCA</title><path style="fill:none;stroke:#0000ff;" d="M412,19C411,19 409,20 408,21 397,26 386,31 377,35"/><polygon style="fill:#0000ff;stroke:#0000ff;" points="414,19 413,18 411,18 412,20 414,19"/><polygon style="fill:#0000ff;stroke:#0000ff;" points="375,35 376,37 378,36 377,34 375,35"/></g><g id="node67" class="node"><title>PPP2CA</title><a xlink:href="PPP2CA.html"><ellipse cx="454" cy="14" rx="15" ry="6" style="fill:turquoise;stroke:turquoise;"/><text text-anchor="middle" x="454" y="16" style="font-family:Times New Roman;"><![CDATA[PPP2CA]]></text></a></g><g id="edge70" class="edge"><title>PPP2CA-&gt;PRKCA</title><path style="fill:none;stroke:#ff0000;" d="M443,19C440,19 438,20 436,21 418,27 397,33 382,36"/><polyline style="fill:none;stroke:#ff0000;" points="383,33 384,39 "/></g><g id="node69" class="node"><title>RAC1</title><a xlink:href="RAC1.html"><ellipse cx="487" cy="14" rx="11" ry="6" style="fill:turquoise;stroke:turquoise;"/><text text-anchor="middle" x="487" y="16" style="font-family:Times New Roman;"><![CDATA[RAC1]]></text></a></g><g id="edge72" class="edge"><title>RAC1-&gt;PRKCA</title><path style="fill:none;stroke:darkgreen;" d="M479,19C477,19 474,20 473,21 442,31 404,36 383,39"/><polygon style="fill:darkgreen;stroke:darkgreen;" points="383,40 379,39 383,38 383,40"/></g><g id="node71" class="node"><title>RHOA</title><a xlink:href="RHOA.html"><ellipse cx="519" cy="14" rx="13" ry="6" style="fill:turquoise;stroke:turquoise;"/><text text-anchor="middle" x="519" y="16" style="font-family:Times New Roman;"><![CDATA[RHOA]]></text></a></g><g id="edge74" class="edge"><title>RHOA-&gt;PRKCA</title><path style="fill:none;stroke:darkgreen;" d="M509,19C507,19 504,20 502,21 460,32 410,37 383,39"/><polygon style="fill:darkgreen;stroke:darkgreen;" points="383,40 380,40 383,39 383,40"/></g></g></g></g>
<!-- navigation controls -->
<g id="navbox">
	<rect x="0" y="0" width="742" height="60"
		 style="fill:rgb(206,207,206);stroke:rgb(0,0,0);stroke-width:1"/>

	<polygon id="pan_right"
        onmouseup="panRight()"
        onmouseover="doHighlight(evt, 'Click to pan to the right')"
        onmouseout="resetHighlight(evt)"
		points="28.0732,13 32,20.5 28.0732,28 28.0732,23.4412 25,23.4412 25,17.4118 28.0732,17.4118"
		 transform="matrix(3.39111 0 0 2.98838 -12.6265 -29.7101)"
         fill="rgb(99,154,206)"
		 style="stroke:rgb(0,0,0);stroke-width:0.5"/>
	<polygon id="pan_left"
        onmouseup="panLeft()"
        onmouseover="doHighlight(evt, 'Click to pan to the left')"
        onmouseout="resetHighlight(evt)"
		points="123.991,25 120.064,32.5 123.991,40 123.991,35.4412 127.064,35.4412 127.064,29.4118
			123.991,29.4118" transform="matrix(3.39111 0 0 2.98838 -404.865 -65.5706)"
         fill="rgb(99,154,206)"
		 style="stroke:rgb(0,0,0);stroke-width:0.5"/>
	<polygon id="pan_down"
        onmouseup="panDown()"
        onmouseover="doHighlight(evt, 'Click to pan down')"
        onmouseout="resetHighlight(evt)"
		points="116.032,32.0408 123.532,35.9678 131.032,32.0408 126.473,32.0408 126.473,28.9678 120.444,28.9678
			120.444,32.0408" transform="matrix(3.39111 0 0 2.98838 -369.822 -50.6287)"
         fill="rgb(99,154,206)"
		 style="stroke:rgb(0,0,0);stroke-width:0.5"/>
	<polygon id="pan_up"
        onmouseup="panUp()"
  onmouseover="doHighlight(evt, 'Click to pan up')"
        onmouseout="resetHighlight(evt)"
		points="116.032,32.0408 123.532,35.9678 131.032,32.0408 126.473,32.0408 126.473,28.9678 120.444,28.9678
			120.444,32.0408" transform="matrix(3.39111 0 0 -2.98838 -369.823 111.74)"
         fill="rgb(99,154,206)"
		 style="stroke:rgb(0,0,0);stroke-width:0.5"/>
	<g id="go_home" 
         onmouseup="panRestore()" 
         onmouseover="doHighlight(evt, 'Click to restore graph to original position')"
         onmouseout="resetHighlight(evt)"
         fill="rgb(99,154,206)"
         transform="matrix(1 0 0 1 0 -0.333333)">
		<rect x="196" y="11" width="26" height="26"
			transform="translate(-19.1111 -2.66667)"
			 style="stroke:rgb(0,0,0);stroke-width:1"/>
		<line x1="182" y1="16" x2="182" y2="28"
			transform="matrix(1 0 0 1 2.22222 0.444444)"
			 style="fill:none;stroke:rgb(0,0,0);stroke-width:2"/>
		<line x1="187" y1="22" x2="187" y2="28"
			transform="matrix(1 0 0 1 2.22222 0.444444)"
			 style="fill:none;stroke:rgb(0,0,0);stroke-width:2"/>
	<line x1="192" y1="13" x2="192" y2="28"
			transform="matrix(1 0 0 1 2.22222 0.444444)"
			 style="fill:none;stroke:rgb(0,0,0);stroke-width:2"/>
		<line x1="182" y1="28" x2="192" y2="28"
			transform="matrix(1 0 0 1 2.22222 0.444444)"
	style="fill:none;stroke:rgb(0,0,0);stroke-width:2"/>
		<line x1="189" y1="12" x2="179" y2="21"
			 style="fill:none;stroke:rgb(0,0,0);stroke-width:2"/>
		<line x1="188" y1="12" x2="199" y2="20"
			 style="fill:none;stroke:rgb(0,0,0);stroke-width:2"/>
	</g>
	<g id="zoom_out" onmouseup="zoomOut()" 
             onmouseover="doHighlight(evt, 'Click to zoom out')"
             onmouseout="resetHighlight(evt)"
             fill="rgb(99,154,206)"
             transform="matrix(1 0 0 1 0 0)">
		<rect x="116" y="8" width="26" height="26"
			 style="stroke:rgb(0,0,0);stroke-width:1"/>
		<ellipse cx="126" cy="18" rx="6" ry="6"
			 style="stroke:rgb(0,0,0);stroke-width:1"/>
		<line x1="130" y1="23" x2="137" y2="29"
			transform="matrix(1 0 0 1 0.888889 -0.888889)"
			 style="fill:none;stroke:rgb(0,0,0);stroke-width:2"/>
		<line x1="123" y1="18" x2="129" y2="18"
			 style="fill:none;stroke:rgb(0,0,0);stroke-width:2"/>
	</g>
	<g id="zoom_in" onmouseup="zoomIn()" 
             onmouseover="doHighlight(evt, 'Click to zoom in')"
             onmouseout="resetHighlight(evt)"
             fill="rgb(99,154,206)"
             transform="matrix(1 0 0 1 0.888889 -0.444444)">
		<rect x="116" y="8" width="26" height="26"
			transform="matrix(1 0 0 1 29.7778 0.444444)"
			 style="stroke:rgb(0,0,0);stroke-width:1"/>
		<ellipse cx="126" cy="18" rx="6" ry="6"
			transform="matrix(1 0 0 1 29.7778 0.444444)"
			 style="stroke:rgb(0,0,0);stroke-width:1"/>
		<line x1="130" y1="23" x2="137" y2="29"
			transform="matrix(1 0 0 1 30.6667 -0.444445)"
		style="fill:none;stroke:rgb(0,0,0);stroke-width:2"/>
		<line x1="123" y1="18" x2="129" y2="18"
			transform="matrix(1 0 0 1 29.7778 0.444444)"
			 style="fill:none;stroke:rgb(0,0,0);stroke-width:2"/>
		<line x1="156" y1="15" x2="156" y2="22"
			 style="fill:none;stroke:rgb(0,0,0);stroke-width:2"/>
	</g>
	<g>
		<rect x="117" y="40" width="452" height="14"
			transform="matrix(1.54201 0 0 1 -64.1436 -0.222222)"
			 style="fill:rgb(192,192,192);stroke:rgb(0,0,0);stroke-width:1"/>
		<text id="status_text" x="183px" y="48px"
			transform="matrix(1 0 0 1 -63.5556 3.00778)"
			 style="fill:rgb(0,0,0);font-size:14;font-family:Arial"> </text>
	</g>
</g>	
</svg>