<?xml version="1.0" encoding="UTF-8" standalone="no"?><!DOCTYPE svg PUBLIC "-//W3C//DTD SVG 1.0//EN" "http://www.w3.org/TR/2001/REC-SVG-20010904/DTD/svg10.dtd" [ <!ATTLIST svg xmlns:xlink CDATA #FIXED "http://www.w3.org/1999/xlink">]><!-- Generated by WinGraphviz version ver1.02.23, 08/01/2003 (08/04/2003)     For user: Avi Ma'ayan   Title: G    Pages: 1 --><svg width="330px" height="276px" xmlns="http://www.w3.org/2000/svg" xmlns:xlink="http://www.w3.org/1999/xlink"><g id="graph0" class="graph" style="font-family:Times New Roman;font-size:18.67;"><title>G</title><g id="node1" class="node"><title>AKT1</title><a xlink:href="AKT1.html"><ellipse cx="47" cy="39" rx="41" ry="24" style="fill:turquoise;stroke:turquoise;"/><text text-anchor="middle" x="47" y="46" style="font-family:Times New Roman;"><![CDATA[AKT1]]></text></a></g><g id="node2" class="node"><title>PTEN</title><a xlink:href="PTEN.html"><ellipse cx="155" cy="135" rx="44" ry="24" style="fill:turquoise;stroke:turquoise;"/><text text-anchor="middle" x="155" y="142" style="font-family:Times New Roman;"><![CDATA[PTEN]]></text></a></g><g id="edge2" class="edge"><title>AKT1-&gt;PTEN</title><path style="fill:none;stroke:darkgreen;" d="M70,59C86,73 106,91 124,107"/><polygon style="fill:darkgreen;stroke:darkgreen;" points="125,105 133,115 121,109 125,105"/></g><g id="node6" class="node"><title>PTK2</title><a xlink:href="PTK2.html"><ellipse cx="54" cy="231" rx="41" ry="24" style="fill:turquoise;stroke:turquoise;"/><text text-anchor="middle" x="54" y="238" style="font-family:Times New Roman;"><![CDATA[PTK2]]></text></a></g><g id="edge6" class="edge"><title>PTEN-&gt;PTK2</title><path style="fill:none;stroke:#ff0000;" d="M134,157C121,169 105,185 90,198"/><polyline style="fill:none;stroke:#ff0000;" points="84,190 97,205 "/></g><g id="node8" class="node"><title>PIP3</title><a xlink:href="PIP3.html"><ellipse cx="155" cy="231" rx="36" ry="24" style="fill:turquoise;stroke:turquoise;"/><text text-anchor="middle" x="155" y="238" style="font-family:Times New Roman;"><![CDATA[PIP3]]></text></a></g><g id="edge8" class="edge"><title>PTEN-&gt;PIP3</title><path style="fill:none;stroke:#ff0000;" d="M155,159C155,167 155,178 155,187"/><polyline style="fill:none;stroke:#ff0000;" points="146,187 166,187 "/></g><g id="node10" class="node"><title>SHC1</title><a xlink:href="SHC1.html"><ellipse cx="254" cy="231" rx="38" ry="24" style="fill:turquoise;stroke:turquoise;"/><text text-anchor="middle" x="254" y="238" style="font-family:Times New Roman;"><![CDATA[SHC1]]></text></a></g><g id="edge10" class="edge"><title>PTEN-&gt;SHC1</title><path style="fill:none;stroke:#ff0000;" d="M177,157C190,169 206,185 219,198"/><polyline style="fill:none;stroke:#ff0000;" points="211,205 226,190 "/></g><g id="node4" class="node"><title>CAV1</title><a xlink:href="CAV1.html"><ellipse cx="155" cy="39" rx="42" ry="24" style="fill:turquoise;stroke:turquoise;"/><text text-anchor="middle" x="155" y="46" style="font-family:Times New Roman;"><![CDATA[CAV1]]></text></a></g><g id="edge4" class="edge"><title>CAV1-&gt;PTEN</title><path style="fill:none;stroke:#0000ff;" d="M155,70C155,81 155,94 155,105"/><polygon style="fill:#0000ff;stroke:#0000ff;" points="159,63 153,63 153,70 159,70 159,63"/><polygon style="fill:#0000ff;stroke:#0000ff;" points="153,111 159,111 159,105 153,105 153,111"/></g><g id="node12" class="node"><title>ROCK1</title><a xlink:href="ROCK1.html"><ellipse cx="272" cy="39" rx="49" ry="24" style="fill:turquoise;stroke:turquoise;"/><text text-anchor="middle" x="272" y="46" style="font-family:Times New Roman;"><![CDATA[ROCK1]]></text></a></g><g id="edge12" class="edge"><title>ROCK1-&gt;PTEN</title><path style="fill:none;stroke:darkgreen;" d="M246,61C230,74 207,93 189,107"/><polygon style="fill:darkgreen;stroke:darkgreen;" points="191,109 179,115 187,105 191,109"/></g></g></svg>