<?xml version="1.0" encoding="UTF-8" standalone="no"?><!DOCTYPE svg PUBLIC "-//W3C//DTD SVG 1.0//EN" "http://www.w3.org/TR/2001/REC-SVG-20010904/DTD/svg10.dtd" [ <!ATTLIST svg xmlns:xlink CDATA #FIXED "http://www.w3.org/1999/xlink">]><!-- Generated by WinGraphviz version ver1.02.23, 08/01/2003 (08/04/2003)     For user: Avi Ma'ayan   Title: G    Pages: 1 --><!--="735px" height="72px" xmlns="http://www.w3.org/2000/svg" --><svg onload="init(evt)" width="735px" height="600px" xmlns="http://www.w3.org/2000/svg" xmlns:xlink="http://www.w3.org/1999/xlink">
<script type="text/ecmascript">
<![CDATA[
var svgDocument;
var zoomAmt;
var xOffset;
var yOffset;
var scale;
var maxScale;
var imageWidth;
var imageHeight;
function init(evt)
{
    svgDocument = evt.getTarget().getOwnerDocument();
    zoomAmt = 0;
    xOffset = 0;
    yOffset = 60;
    scale = 0.8;
    maxScale = 10;
    imageWidth = 742;
    imageHeight = 606;
    panRestore();
    //panUp();
}
function transformMap ()
{
    var obj = svgDocument.getElementById("Pathway");
    var centerX = imageWidth  / 2.0;
    var centerY = imageHeight / 2.0;
    var adjustX = (-centerX * (scale - 0.8)) + xOffset;
    var adjustY = (-centerY * (scale - 0.8)) + yOffset;
    var transParms = 'translate(' + adjustX + ',' + adjustY + ') ';
    transParms += 'scale(' + scale + ')';
    // alert(transParms);
    obj.setAttribute("transform", transParms); 
}
function click_node(id)
{
    var testx = parent.click_node;
    if (typeof(testx) == "function")
    {
		parent.click_node(id);
    }
}
function click_relation(id)
{
    var testx = parent.click_relation;
    if (typeof(testx) == "function")
    {
        parent.click_relation(id);
    }
}
function click_pathway(toId, fromId)
{
    var testx = parent.click_pathway;
    if (typeof(testx) == "function")
    {
	parent.click_pathway(toId, fromId);
    }
}
function check_interpath(evt, pathid)
{
  var obj = evt.getTarget();
  var testx = parent.is_frompath;
  var child = obj.firstChild;
  if (typeof(testx) == "function")
  {
    if (parent.is_frompath(pathid))
    {
      while (child != null)
      {
        if (child.nodeType == 1)
        {
          if ((child.localName == "g") || (child.localName == "polyline"))
          {
            child.setAttribute("style", "fill:none;stroke:red");
          }
          else if (child.localName == "polygon")
          {
            child.setAttribute("style", "fill:red;stroke:red");
          }
        }
        child = child.nextSibling;
      }
    }
  }
}
function set_status (msg)
{
 var obj = svgDocument.getElementById("status_text");
  var child;
 
  child = obj.firstChild;
  if ((child != null) && (child.nodeType == 3))
  {
    if ((msg != null) && (msg.length > 0))
    {
      child.data = msg;
    }
    else
    {
child.data = " ";
    }
  }
}
function zoomIn ()
{
    scale = scale + 0.8;
    if (scale > maxScale)
    {
       scale = maxScale;
    }
    transformMap();
    panUp();
    panUp();
    panUp();
    panUp();
    panUp();
    panUp();
    panUp();
    panUp();
    panUp();
    panUp();
    panUp();
    panUp();
}
function zoomOut ()
{
    scale = scale - 0.8;
    if (scale < 0.8)
    {
       scale = 0.8;
    }
    transformMap();
    panDown();
    panDown();
    panDown();
    panDown();
    panDown();
    panDown();
    panDown();
    panDown();
    panDown();
    panDown();
    panDown();
    panDown();
}
function panUp ()
{
    yOffset = yOffset + 20;
    transformMap();
}
function panDown ()
{
    yOffset = yOffset - 20;
    transformMap();
}
function panLeft ()
{
    xOffset = xOffset + 20;
    transformMap();
}
function panRight ()
{
    xOffset = xOffset - 20;
    transformMap();
}
function panRestore ()
{
    xOffset = 0;
    yOffset = 0;
    scale = 0.5;
    //obj = svgDocument.getElementById("zoom");
    //obj.setAttribute("x1", 0);
    //obj.setAttribute("x2", 0);
    transformMap();    
}
function doHighlight (evt, msg)
{
  var obj = evt.getTarget();
  obj.setAttribute("fill", "rgb(239,24,33)");
  set_status(msg);
}
function resetHighlight (evt)
{
  var obj = evt.getTarget();
  obj.setAttribute("fill", "rgb(99,154,206)");
  set_status(" ");
}
// ]]>
</script>
<defs>
<clipPath id="theClip">
<polygon points="1 61, 741 61, 741 665, 1 665"
style="fill: none;"/>
</clipPath>
</defs>
<!-- viewport outline -->
<rect x="0" y="61" width="742" height="606"
style="stroke: black; stroke-width: 1; fill: none;"/>
<!-- pathway graph style="clip-path: url(#theClip);" -->
<g style="clip-path: url(#theClip);">
<g id="Pathway"  transform="translate(0,60)">
<!-- prefile.include ends, begin pathway graph -->
<g id="stkecm;CMP_10705" class="graph">
</g>
<g id="graph0" class="graph" style="font-family:Times New Roman;font-size:4.12;"><title>G</title><g id="node1" class="node"><title>DDEF1</title><a xlink:href="DDEF1.html"><ellipse cx="251" cy="12" rx="10" ry="5" style="fill:turquoise;stroke:turquoise;"/><text text-anchor="middle" x="251" y="13" style="font-family:Times New Roman;"><![CDATA[DDEF1]]></text></a></g><g id="node2" class="node"><title>PTK2</title><a xlink:href="PTK2.html"><ellipse cx="377" cy="33" rx="9" ry="5" style="fill:turquoise;stroke:turquoise;"/><text text-anchor="middle" x="377" y="34" style="font-family:Times New Roman;"><![CDATA[PTK2]]></text></a></g><g id="edge2" class="edge"><title>DDEF1-&gt;PTK2</title><path style="fill:none;stroke:#0000ff;" d="M260,16C262,16 263,17 264,17 301,27 346,31 366,32"/><polygon style="fill:#0000ff;stroke:#0000ff;" points="259,15 259,16 260,16 261,15 259,15"/><polygon style="fill:#0000ff;stroke:#0000ff;" points="368,33 368,31 367,31 367,33 368,33"/></g><g id="node14" class="node"><title>ACTN1</title><a xlink:href="ACTN1.html"><ellipse cx="17" cy="54" rx="10" ry="5" style="fill:turquoise;stroke:turquoise;"/><text text-anchor="middle" x="17" y="56" style="font-family:Times New Roman;"><![CDATA[ACTN1]]></text></a></g><g id="edge14" class="edge"><title>PTK2-&gt;ACTN1</title><path style="fill:none;stroke:darkgreen;" d="M368,33C317,35 65,42 31,49 30,49 29,49 28,50"/><polygon style="fill:darkgreen;stroke:darkgreen;" points="28,50 25,51 28,49 28,50"/></g><g id="node16" class="node"><title>SH3KBP1</title><a xlink:href="SH3KBP1.html"><ellipse cx="46" cy="54" rx="12" ry="5" style="fill:turquoise;stroke:turquoise;"/><text text-anchor="middle" x="46" y="56" style="font-family:Times New Roman;"><![CDATA[SH3KBP1]]></text></a></g><g id="edge16" class="edge"><title>PTK2-&gt;SH3KBP1</title><path style="fill:none;stroke:darkgreen;" d="M368,33C323,34 123,37 62,49 61,49 59,49 58,50"/><polygon style="fill:darkgreen;stroke:darkgreen;" points="59,50 56,51 58,49 59,50"/></g><g id="node18" class="node"><title>FHL2</title><a xlink:href="FHL2.html"><ellipse cx="74" cy="54" rx="9" ry="5" style="fill:turquoise;stroke:turquoise;"/><text text-anchor="middle" x="74" y="56" style="font-family:Times New Roman;"><![CDATA[FHL2]]></text></a></g><g id="edge18" class="edge"><title>PTK2-&gt;FHL2</title><path style="fill:none;stroke:#0000ff;" d="M367,33C321,33 141,36 85,49 84,49 83,50 82,50"/><polygon style="fill:#0000ff;stroke:#0000ff;" points="368,34 368,32 367,32 367,34 368,34"/><polygon style="fill:#0000ff;stroke:#0000ff;" points="80,50 81,51 82,51 82,49 80,50"/></g><g id="node20" class="node"><title>FYN</title><a xlink:href="FYN.html"><ellipse cx="97" cy="54" rx="8" ry="5" style="fill:turquoise;stroke:turquoise;"/><text text-anchor="middle" x="97" y="56" style="font-family:Times New Roman;"><![CDATA[FYN]]></text></a></g><g id="edge20" class="edge"><title>PTK2-&gt;FYN</title><path style="fill:none;stroke:darkgreen;" d="M368,33C327,34 159,36 108,49 107,49 106,49 105,49"/><polygon style="fill:darkgreen;stroke:darkgreen;" points="106,50 103,51 105,49 106,50"/></g><g id="node22" class="node"><title>GIT1</title><a xlink:href="GIT1.html"><ellipse cx="118" cy="54" rx="7" ry="5" style="fill:turquoise;stroke:turquoise;"/><text text-anchor="middle" x="118" y="56" style="font-family:Times New Roman;"><![CDATA[GIT1]]></text></a></g><g id="edge22" class="edge"><title>PTK2-&gt;GIT1</title><path style="fill:none;stroke:darkgreen;" d="M368,33C329,34 176,36 129,49 128,49 128,49 127,50"/><polygon style="fill:darkgreen;stroke:darkgreen;" points="127,50 124,51 127,49 127,50"/></g><g id="node24" class="node"><title>ARHGAP26</title><a xlink:href="ARHGAP26.html"><ellipse cx="148" cy="54" rx="16" ry="5" style="fill:turquoise;stroke:turquoise;"/><text text-anchor="middle" x="148" y="56" style="font-family:Times New Roman;"><![CDATA[ARHGAP26]]></text></a></g><g id="edge24" class="edge"><title>PTK2-&gt;ARHGAP26</title><path style="fill:none;stroke:#0000ff;" d="M367,34C330,36 206,42 167,49 165,49 163,50 161,50"/><polygon style="fill:#0000ff;stroke:#0000ff;" points="368,34 368,33 367,33 367,34 368,34"/><polygon style="fill:#0000ff;stroke:#0000ff;" points="159,50 160,51 161,51 161,50 159,50"/></g><g id="node26" class="node"><title>GRB2</title><a xlink:href="GRB2.html"><ellipse cx="179" cy="54" rx="9" ry="5" style="fill:turquoise;stroke:turquoise;"/><text text-anchor="middle" x="179" y="56" style="font-family:Times New Roman;"><![CDATA[GRB2]]></text></a></g><g id="edge26" class="edge"><title>PTK2-&gt;GRB2</title><path style="fill:none;stroke:#0000ff;" d="M367,33C333,35 225,40 191,49 190,49 189,50 188,50"/><polygon style="fill:#0000ff;stroke:#0000ff;" points="368,34 368,32 367,32 367,34 368,34"/><polygon style="fill:#0000ff;stroke:#0000ff;" points="186,50 187,51 188,51 187,49 186,50"/></g><g id="node28" class="node"><title>GRB7</title><a xlink:href="GRB7.html"><ellipse cx="204" cy="54" rx="9" ry="5" style="fill:turquoise;stroke:turquoise;"/><text text-anchor="middle" x="204" y="56" style="font-family:Times New Roman;"><![CDATA[GRB7]]></text></a></g><g id="edge28" class="edge"><title>PTK2-&gt;GRB7</title><path style="fill:none;stroke:darkgreen;" d="M368,34C339,35 246,42 216,49 215,49 215,49 214,50"/><polygon style="fill:darkgreen;stroke:darkgreen;" points="214,50 211,51 214,49 214,50"/></g><g id="node30" class="node"><title>NEDD9</title><a xlink:href="NEDD9.html"><ellipse cx="230" cy="54" rx="11" ry="5" style="fill:turquoise;stroke:turquoise;"/><text text-anchor="middle" x="230" y="56" style="font-family:Times New Roman;"><![CDATA[NEDD9]]></text></a></g><g id="edge30" class="edge"><title>PTK2-&gt;NEDD9</title><path style="fill:none;stroke:#0000ff;" d="M367,33C344,35 289,38 244,49 243,49 242,50 240,50"/><polygon style="fill:#0000ff;stroke:#0000ff;" points="368,34 368,32 367,32 367,34 368,34"/><polygon style="fill:#0000ff;stroke:#0000ff;" points="239,50 239,51 241,51 240,50 239,50"/></g><g id="node32" class="node"><title>KCNH2</title><a xlink:href="KCNH2.html"><ellipse cx="259" cy="54" rx="11" ry="5" style="fill:turquoise;stroke:turquoise;"/><text text-anchor="middle" x="259" y="56" style="font-family:Times New Roman;"><![CDATA[KCNH2]]></text></a></g><g id="edge32" class="edge"><title>PTK2-&gt;KCNH2</title><path style="fill:none;stroke:#0000ff;" d="M367,34C348,36 307,40 273,49 272,49 270,50 269,50"/><polygon style="fill:#0000ff;stroke:#0000ff;" points="368,34 368,33 367,33 367,34 368,34"/><polygon style="fill:#0000ff;stroke:#0000ff;" points="267,50 268,51 270,51 269,50 267,50"/></g><g id="node34" class="node"><title>TGFB1I1</title><a xlink:href="TGFB1I1.html"><ellipse cx="288" cy="54" rx="11" ry="5" style="fill:turquoise;stroke:turquoise;"/><text text-anchor="middle" x="288" y="56" style="font-family:Times New Roman;"><![CDATA[TGFB1I1]]></text></a></g><g id="edge34" class="edge"><title>PTK2-&gt;TGFB1I1</title><path style="fill:none;stroke:#0000ff;" d="M367,35C353,37 325,42 302,49 301,49 299,50 298,50"/><polygon style="fill:#0000ff;stroke:#0000ff;" points="369,35 369,34 367,34 367,35 369,35"/><polygon style="fill:#0000ff;stroke:#0000ff;" points="296,50 297,51 298,51 298,50 296,50"/></g><g id="node36" class="node"><title>HSPA2</title><a xlink:href="HSPA2.html"><ellipse cx="315" cy="54" rx="10" ry="5" style="fill:turquoise;stroke:turquoise;"/><text text-anchor="middle" x="315" y="56" style="font-family:Times New Roman;"><![CDATA[HSPA2]]></text></a></g><g id="edge36" class="edge"><title>PTK2-&gt;HSPA2</title><path style="fill:none;stroke:#0000ff;" d="M368,36C358,39 342,44 329,49 328,49 326,50 325,50"/><polygon style="fill:#0000ff;stroke:#0000ff;" points="369,36 369,35 368,35 368,36 369,36"/><polygon style="fill:#0000ff;stroke:#0000ff;" points="324,50 324,52 326,51 325,50 324,50"/></g><g id="node38" class="node"><title>CD47</title><a xlink:href="CD47.html"><ellipse cx="340" cy="54" rx="8" ry="5" style="fill:limegreen;stroke:limegreen;"/><text text-anchor="middle" x="340" y="56" style="font-family:Times New Roman;"><![CDATA[CD47]]></text></a></g><g id="edge38" class="edge"><title>PTK2-&gt;CD47</title><path style="fill:none;stroke:#0000ff;" d="M369,38C363,41 354,46 348,50"/><polygon style="fill:#0000ff;stroke:#0000ff;" points="371,37 371,36 369,37 370,38 371,37"/><polygon style="fill:#0000ff;stroke:#0000ff;" points="346,50 347,51 348,50 348,49 346,50"/></g><g id="node40" class="node"><title>ITGA5</title><a xlink:href="ITGA5.html"><ellipse cx="365" cy="54" rx="10" ry="5" style="fill:turquoise;stroke:turquoise;"/><text text-anchor="middle" x="365" y="56" style="font-family:Times New Roman;"><![CDATA[ITGA5]]></text></a></g><g id="edge40" class="edge"><title>PTK2-&gt;ITGA5</title><path style="fill:none;stroke:#0000ff;" d="M374,39C372,42 370,45 368,48"/><polygon style="fill:#0000ff;stroke:#0000ff;" points="375,38 374,38 373,39 374,39 375,38"/><polygon style="fill:#0000ff;stroke:#0000ff;" points="367,49 368,49 369,48 368,47 367,49"/></g><g id="node42" class="node"><title>ITGB1</title><a xlink:href="ITGB1.html"><ellipse cx="390" cy="54" rx="9" ry="5" style="fill:turquoise;stroke:turquoise;"/><text text-anchor="middle" x="390" y="56" style="font-family:Times New Roman;"><![CDATA[ITGB1]]></text></a></g><g id="edge42" class="edge"><title>PTK2-&gt;ITGB1</title><path style="fill:none;stroke:#0000ff;" d="M381,39C383,42 385,45 386,48"/><polygon style="fill:#0000ff;stroke:#0000ff;" points="381,38 380,38 380,39 381,39 381,38"/><polygon style="fill:#0000ff;stroke:#0000ff;" points="386,49 388,49 387,47 386,48 386,49"/></g><g id="node44" class="node"><title>IRS1</title><a xlink:href="IRS1.html"><ellipse cx="413" cy="54" rx="7" ry="5" style="fill:turquoise;stroke:turquoise;"/><text text-anchor="middle" x="413" y="56" style="font-family:Times New Roman;"><![CDATA[IRS1]]></text></a></g><g id="edge44" class="edge"><title>PTK2-&gt;IRS1</title><path style="fill:none;stroke:#0000ff;" d="M385,38C392,41 400,47 406,50"/><polygon style="fill:#0000ff;stroke:#0000ff;" points="384,36 384,37 385,38 386,37 384,36"/><polygon style="fill:#0000ff;stroke:#0000ff;" points="407,51 407,50 406,49 406,51 407,51"/></g><g id="node46" class="node"><title>MAPK8IP3</title><a xlink:href="MAPK8IP3.html"><ellipse cx="441" cy="54" rx="15" ry="5" style="fill:turquoise;stroke:turquoise;"/><text text-anchor="middle" x="441" y="56" style="font-family:Times New Roman;"><![CDATA[MAPK8IP3]]></text></a></g><g id="edge46" class="edge"><title>PTK2-&gt;MAPK8IP3</title><path style="fill:none;stroke:#0000ff;" d="M387,36C398,40 417,46 429,50"/><polygon style="fill:#0000ff;stroke:#0000ff;" points="386,35 385,36 386,37 387,36 386,35"/><polygon style="fill:#0000ff;stroke:#0000ff;" points="430,51 431,50 429,50 429,51 430,51"/></g><g id="node48" class="node"><title>LYN</title><a xlink:href="LYN.html"><ellipse cx="470" cy="54" rx="8" ry="5" style="fill:turquoise;stroke:turquoise;"/><text text-anchor="middle" x="470" y="56" style="font-family:Times New Roman;"><![CDATA[LYN]]></text></a></g><g id="edge48" class="edge"><title>PTK2-&gt;LYN</title><path style="fill:none;stroke:#0000ff;" d="M388,34C404,36 434,41 459,49 460,49 461,50 463,50"/><polygon style="fill:#0000ff;stroke:#0000ff;" points="386,33 386,34 388,35 388,34 386,33"/><polygon style="fill:#0000ff;stroke:#0000ff;" points="463,51 464,50 463,50 462,51 463,51"/></g><g id="node50" class="node"><title>NCK2</title><a xlink:href="NCK2.html"><ellipse cx="494" cy="54" rx="10" ry="5" style="fill:turquoise;stroke:turquoise;"/><text text-anchor="middle" x="494" y="56" style="font-family:Times New Roman;"><![CDATA[NCK2]]></text></a></g><g id="edge50" class="edge"><title>PTK2-&gt;NCK2</title><path style="fill:none;stroke:#0000ff;" d="M388,34C407,35 448,40 481,49 483,49 484,50 485,50"/><polygon style="fill:#0000ff;stroke:#0000ff;" points="386,33 386,34 388,34 388,33 386,33"/><polygon style="fill:#0000ff;stroke:#0000ff;" points="486,51 487,50 485,50 485,51 486,51"/></g><g id="node52" class="node"><title>GRLF1</title><a xlink:href="GRLF1.html"><ellipse cx="520" cy="54" rx="10" ry="5" style="fill:turquoise;stroke:turquoise;"/><text text-anchor="middle" x="520" y="56" style="font-family:Times New Roman;"><![CDATA[GRLF1]]></text></a></g><g id="edge52" class="edge"><title>PTK2-&gt;GRLF1</title><path style="fill:none;stroke:darkgreen;" d="M386,33C408,34 463,37 507,49 508,49 508,49 509,50"/><polygon style="fill:darkgreen;stroke:darkgreen;" points="509,49 512,51 509,50 509,49"/></g><g id="node54" class="node"><title>PXN</title><a xlink:href="PXN.html"><ellipse cx="544" cy="54" rx="8" ry="5" style="fill:turquoise;stroke:turquoise;"/><text text-anchor="middle" x="544" y="56" style="font-family:Times New Roman;"><![CDATA[PXN]]></text></a></g><g id="edge54" class="edge"><title>PTK2-&gt;PXN</title><path style="fill:none;stroke:darkgreen;" d="M386,34C415,35 505,41 533,49 533,49 534,49 535,50"/><polygon style="fill:darkgreen;stroke:darkgreen;" points="535,49 537,51 534,50 535,49"/></g><g id="node56" class="node"><title>PIK3CA</title><a xlink:href="PIK3CA.html"><ellipse cx="569" cy="54" rx="11" ry="5" style="fill:turquoise;stroke:turquoise;"/><text text-anchor="middle" x="569" y="56" style="font-family:Times New Roman;"><![CDATA[PIK3CA]]></text></a></g><g id="edge56" class="edge"><title>PTK2-&gt;PIK3CA</title><path style="fill:none;stroke:#0000ff;" d="M388,34C421,36 523,42 555,49 556,49 558,50 559,50"/><polygon style="fill:#0000ff;stroke:#0000ff;" points="386,33 386,34 388,34 388,33 386,33"/><polygon style="fill:#0000ff;stroke:#0000ff;" points="560,51 561,50 559,50 559,51 560,51"/></g><g id="node58" class="node"><title>PLCG1</title><a xlink:href="PLCG1.html"><ellipse cx="597" cy="54" rx="10" ry="5" style="fill:turquoise;stroke:turquoise;"/><text text-anchor="middle" x="597" y="56" style="font-family:Times New Roman;"><![CDATA[PLCG1]]></text></a></g><g id="edge58" class="edge"><title>PTK2-&gt;PLCG1</title><path style="fill:none;stroke:#0000ff;" d="M388,33C424,35 546,40 584,49 585,49 587,50 588,50"/><polygon style="fill:#0000ff;stroke:#0000ff;" points="386,32 386,34 388,34 388,32 386,32"/><polygon style="fill:#0000ff;stroke:#0000ff;" points="589,51 589,50 588,50 587,51 589,51"/></g><g id="node60" class="node"><title>SORBS1</title><a xlink:href="SORBS1.html"><ellipse cx="624" cy="54" rx="11" ry="5" style="fill:turquoise;stroke:turquoise;"/><text text-anchor="middle" x="624" y="56" style="font-family:Times New Roman;"><![CDATA[SORBS1]]></text></a></g><g id="edge60" class="edge"><title>PTK2-&gt;SORBS1</title><path style="fill:none;stroke:#0000ff;" d="M388,33C427,34 566,39 610,49 611,49 613,50 614,50"/><polygon style="fill:#0000ff;stroke:#0000ff;" points="386,32 386,34 388,34 388,32 386,32"/><polygon style="fill:#0000ff;stroke:#0000ff;" points="615,51 616,50 614,50 614,51 615,51"/></g><g id="node62" class="node"><title>SHC1</title><a xlink:href="SHC1.html"><ellipse cx="649" cy="54" rx="8" ry="5" style="fill:turquoise;stroke:turquoise;"/><text text-anchor="middle" x="649" y="56" style="font-family:Times New Roman;"><![CDATA[SHC1]]></text></a></g><g id="edge62" class="edge"><title>PTK2-&gt;SHC1</title><path style="fill:none;stroke:darkgreen;" d="M386,33C427,34 589,36 638,49 639,49 640,49 640,49"/><polygon style="fill:darkgreen;stroke:darkgreen;" points="640,49 643,51 640,50 640,49"/></g><g id="node64" class="node"><title>SYK</title><a xlink:href="SYK.html"><ellipse cx="671" cy="54" rx="8" ry="5" style="fill:turquoise;stroke:turquoise;"/><text text-anchor="middle" x="671" y="56" style="font-family:Times New Roman;"><![CDATA[SYK]]></text></a></g><g id="edge64" class="edge"><title>PTK2-&gt;SYK</title><path style="fill:none;stroke:#0000ff;" d="M388,33C433,33 607,35 660,49 662,49 663,50 664,50"/><polygon style="fill:#0000ff;stroke:#0000ff;" points="386,32 386,34 388,34 388,32 386,32"/><polygon style="fill:#0000ff;stroke:#0000ff;" points="665,51 665,50 664,50 663,51 665,51"/></g><g id="node66" class="node"><title>TLN1</title><a xlink:href="TLN1.html"><ellipse cx="694" cy="54" rx="8" ry="5" style="fill:turquoise;stroke:turquoise;"/><text text-anchor="middle" x="694" y="56" style="font-family:Times New Roman;"><![CDATA[TLN1]]></text></a></g><g id="edge66" class="edge"><title>PTK2-&gt;TLN1</title><path style="fill:none;stroke:#0000ff;" d="M388,33C439,35 653,42 682,49 683,49 685,50 686,50"/><polygon style="fill:#0000ff;stroke:#0000ff;" points="386,32 386,34 388,34 388,32 386,32"/><polygon style="fill:#0000ff;stroke:#0000ff;" points="687,51 687,50 686,49 686,51 687,51"/></g><g id="node68" class="node"><title>TRIO</title><a xlink:href="TRIO.html"><ellipse cx="717" cy="54" rx="9" ry="5" style="fill:turquoise;stroke:turquoise;"/><text text-anchor="middle" x="717" y="56" style="font-family:Times New Roman;"><![CDATA[TRIO]]></text></a></g><g id="edge68" class="edge"><title>PTK2-&gt;TRIO</title><path style="fill:none;stroke:#0000ff;" d="M388,33C440,35 674,42 705,49 706,49 708,50 709,50"/><polygon style="fill:#0000ff;stroke:#0000ff;" points="386,32 386,34 388,34 388,32 386,32"/><polygon style="fill:#0000ff;stroke:#0000ff;" points="710,51 710,50 709,49 708,51 710,51"/></g><g id="node4" class="node"><title>CAPN1</title><a xlink:href="CAPN1.html"><ellipse cx="278" cy="12" rx="10" ry="5" style="fill:turquoise;stroke:turquoise;"/><text text-anchor="middle" x="278" y="13" style="font-family:Times New Roman;"><![CDATA[CAPN1]]></text></a></g><g id="edge4" class="edge"><title>CAPN1-&gt;PTK2</title><path style="fill:none;stroke:#ff0000;" d="M286,15C288,16 290,16 291,17 317,24 347,29 364,31"/><polyline style="fill:none;stroke:#ff0000;" points="364,33 364,29 "/></g><g id="node6" class="node"><title>BCAR1</title><a xlink:href="BCAR1.html"><ellipse cx="305" cy="12" rx="10" ry="5" style="fill:turquoise;stroke:turquoise;"/><text text-anchor="middle" x="305" y="13" style="font-family:Times New Roman;"><![CDATA[BCAR1]]></text></a></g><g id="edge6" class="edge"><title>BCAR1-&gt;PTK2</title><path style="fill:none;stroke:#0000ff;" d="M314,16C316,16 317,16 318,17 336,23 356,28 367,31"/><polygon style="fill:#0000ff;stroke:#0000ff;" points="313,15 313,16 314,16 315,15 313,15"/><polygon style="fill:#0000ff;stroke:#0000ff;" points="369,31 369,30 367,30 367,31 369,31"/></g><g id="node8" class="node"><title>CSK</title><a xlink:href="CSK.html"><ellipse cx="329" cy="12" rx="7" ry="5" style="fill:turquoise;stroke:turquoise;"/><text text-anchor="middle" x="329" y="13" style="font-family:Times New Roman;"><![CDATA[CSK]]></text></a></g><g id="edge8" class="edge"><title>CSK-&gt;PTK2</title><path style="fill:none;stroke:#0000ff;" d="M336,16C337,16 338,16 340,17 349,21 361,26 368,29"/><polygon style="fill:#0000ff;stroke:#0000ff;" points="336,14 335,16 336,16 337,15 336,14"/><polygon style="fill:#0000ff;stroke:#0000ff;" points="369,31 370,29 369,29 368,30 369,31"/></g><g id="node10" class="node"><title>DNM2</title><a xlink:href="DNM2.html"><ellipse cx="353" cy="12" rx="10" ry="5" style="fill:turquoise;stroke:turquoise;"/><text text-anchor="middle" x="353" y="13" style="font-family:Times New Roman;"><![CDATA[DNM2]]></text></a></g><g id="edge10" class="edge"><title>DNM2-&gt;PTK2</title><path style="fill:none;stroke:#0000ff;" d="M359,17C363,20 367,24 371,28"/><polygon style="fill:#0000ff;stroke:#0000ff;" points="359,16 358,17 359,18 360,17 359,16"/><polygon style="fill:#0000ff;stroke:#0000ff;" points="372,29 373,28 371,27 371,28 372,29"/></g><g id="node12" class="node"><title>VIL2</title><a xlink:href="VIL2.html"><ellipse cx="377" cy="12" rx="8" ry="5" style="fill:turquoise;stroke:turquoise;"/><text text-anchor="middle" x="377" y="13" style="font-family:Times New Roman;"><![CDATA[VIL2]]></text></a></g><g id="edge12" class="edge"><title>VIL2-&gt;PTK2</title><path style="fill:none;stroke:#0000ff;" d="M377,19C377,21 377,24 377,26"/><polygon style="fill:#0000ff;stroke:#0000ff;" points="378,17 377,17 377,19 378,19 378,17"/><polygon style="fill:#0000ff;stroke:#0000ff;" points="377,28 378,28 378,26 377,26 377,28"/></g><g id="node70" class="node"><title>INSR</title><a xlink:href="INSR.html"><ellipse cx="400" cy="12" rx="8" ry="5" style="fill:turquoise;stroke:turquoise;"/><text text-anchor="middle" x="400" y="13" style="font-family:Times New Roman;"><![CDATA[INSR]]></text></a></g><g id="edge70" class="edge"><title>INSR-&gt;PTK2</title><path style="fill:none;stroke:darkgreen;" d="M395,16C392,19 388,23 384,26"/><polygon style="fill:darkgreen;stroke:darkgreen;" points="385,27 382,29 384,26 385,27"/></g><g id="node72" class="node"><title>PTEN</title><a xlink:href="PTEN.html"><ellipse cx="424" cy="12" rx="9" ry="5" style="fill:turquoise;stroke:turquoise;"/><text text-anchor="middle" x="424" y="13" style="font-family:Times New Roman;"><![CDATA[PTEN]]></text></a></g><g id="edge72" class="edge"><title>PTEN-&gt;PTK2</title><path style="fill:none;stroke:#ff0000;" d="M417,15C409,19 397,24 388,28"/><polyline style="fill:none;stroke:#ff0000;" points="388,26 390,30 "/></g><g id="node74" class="node"><title>PTPRH</title><a xlink:href="PTPRH.html"><ellipse cx="450" cy="12" rx="11" ry="5" style="fill:turquoise;stroke:turquoise;"/><text text-anchor="middle" x="450" y="13" style="font-family:Times New Roman;"><![CDATA[PTPRH]]></text></a></g><g id="edge74" class="edge"><title>PTPRH-&gt;PTK2</title><path style="fill:none;stroke:#ff0000;" d="M442,15C440,16 438,16 436,17 420,22 402,27 390,30"/><polyline style="fill:none;stroke:#ff0000;" points="390,28 391,32 "/></g><g id="node76" class="node"><title>PTPN11</title><a xlink:href="PTPN11.html"><ellipse cx="478" cy="12" rx="10" ry="5" style="fill:turquoise;stroke:turquoise;"/><text text-anchor="middle" x="478" y="13" style="font-family:Times New Roman;"><![CDATA[PTPN11]]></text></a></g><g id="edge76" class="edge"><title>PTPN11-&gt;PTK2</title><path style="fill:none;stroke:#ff0000;" d="M469,15C468,16 466,16 464,17 439,24 408,29 390,31"/><polyline style="fill:none;stroke:#ff0000;" points="390,29 391,33 "/></g><g id="node78" class="node"><title>SRC</title><a xlink:href="SRC.html"><ellipse cx="502" cy="12" rx="7" ry="5" style="fill:turquoise;stroke:turquoise;"/><text text-anchor="middle" x="502" y="13" style="font-family:Times New Roman;"><![CDATA[SRC]]></text></a></g><g id="edge78" class="edge"><title>SRC-&gt;PTK2</title><path style="fill:none;stroke:darkgreen;" d="M496,15C494,16 493,16 491,17 455,28 411,31 389,33"/><polygon style="fill:darkgreen;stroke:darkgreen;" points="389,33 386,33 389,32 389,33"/></g></g></g></g>
<!-- navigation controls -->
<g id="navbox">
	<rect x="0" y="0" width="742" height="60"
		 style="fill:rgb(206,207,206);stroke:rgb(0,0,0);stroke-width:1"/>

	<polygon id="pan_right"
        onmouseup="panRight()"
        onmouseover="doHighlight(evt, 'Click to pan to the right')"
        onmouseout="resetHighlight(evt)"
		points="28.0732,13 32,20.5 28.0732,28 28.0732,23.4412 25,23.4412 25,17.4118 28.0732,17.4118"
		 transform="matrix(3.39111 0 0 2.98838 -12.6265 -29.7101)"
         fill="rgb(99,154,206)"
		 style="stroke:rgb(0,0,0);stroke-width:0.5"/>
	<polygon id="pan_left"
        onmouseup="panLeft()"
        onmouseover="doHighlight(evt, 'Click to pan to the left')"
        onmouseout="resetHighlight(evt)"
		points="123.991,25 120.064,32.5 123.991,40 123.991,35.4412 127.064,35.4412 127.064,29.4118
			123.991,29.4118" transform="matrix(3.39111 0 0 2.98838 -404.865 -65.5706)"
         fill="rgb(99,154,206)"
		 style="stroke:rgb(0,0,0);stroke-width:0.5"/>
	<polygon id="pan_down"
        onmouseup="panDown()"
        onmouseover="doHighlight(evt, 'Click to pan down')"
        onmouseout="resetHighlight(evt)"
		points="116.032,32.0408 123.532,35.9678 131.032,32.0408 126.473,32.0408 126.473,28.9678 120.444,28.9678
			120.444,32.0408" transform="matrix(3.39111 0 0 2.98838 -369.822 -50.6287)"
         fill="rgb(99,154,206)"
		 style="stroke:rgb(0,0,0);stroke-width:0.5"/>
	<polygon id="pan_up"
        onmouseup="panUp()"
  onmouseover="doHighlight(evt, 'Click to pan up')"
        onmouseout="resetHighlight(evt)"
		points="116.032,32.0408 123.532,35.9678 131.032,32.0408 126.473,32.0408 126.473,28.9678 120.444,28.9678
			120.444,32.0408" transform="matrix(3.39111 0 0 -2.98838 -369.823 111.74)"
         fill="rgb(99,154,206)"
		 style="stroke:rgb(0,0,0);stroke-width:0.5"/>
	<g id="go_home" 
         onmouseup="panRestore()" 
         onmouseover="doHighlight(evt, 'Click to restore graph to original position')"
         onmouseout="resetHighlight(evt)"
         fill="rgb(99,154,206)"
         transform="matrix(1 0 0 1 0 -0.333333)">
		<rect x="196" y="11" width="26" height="26"
			transform="translate(-19.1111 -2.66667)"
			 style="stroke:rgb(0,0,0);stroke-width:1"/>
		<line x1="182" y1="16" x2="182" y2="28"
			transform="matrix(1 0 0 1 2.22222 0.444444)"
			 style="fill:none;stroke:rgb(0,0,0);stroke-width:2"/>
		<line x1="187" y1="22" x2="187" y2="28"
			transform="matrix(1 0 0 1 2.22222 0.444444)"
			 style="fill:none;stroke:rgb(0,0,0);stroke-width:2"/>
	<line x1="192" y1="13" x2="192" y2="28"
			transform="matrix(1 0 0 1 2.22222 0.444444)"
			 style="fill:none;stroke:rgb(0,0,0);stroke-width:2"/>
		<line x1="182" y1="28" x2="192" y2="28"
			transform="matrix(1 0 0 1 2.22222 0.444444)"
	style="fill:none;stroke:rgb(0,0,0);stroke-width:2"/>
		<line x1="189" y1="12" x2="179" y2="21"
			 style="fill:none;stroke:rgb(0,0,0);stroke-width:2"/>
		<line x1="188" y1="12" x2="199" y2="20"
			 style="fill:none;stroke:rgb(0,0,0);stroke-width:2"/>
	</g>
	<g id="zoom_out" onmouseup="zoomOut()" 
             onmouseover="doHighlight(evt, 'Click to zoom out')"
             onmouseout="resetHighlight(evt)"
             fill="rgb(99,154,206)"
             transform="matrix(1 0 0 1 0 0)">
		<rect x="116" y="8" width="26" height="26"
			 style="stroke:rgb(0,0,0);stroke-width:1"/>
		<ellipse cx="126" cy="18" rx="6" ry="6"
			 style="stroke:rgb(0,0,0);stroke-width:1"/>
		<line x1="130" y1="23" x2="137" y2="29"
			transform="matrix(1 0 0 1 0.888889 -0.888889)"
			 style="fill:none;stroke:rgb(0,0,0);stroke-width:2"/>
		<line x1="123" y1="18" x2="129" y2="18"
			 style="fill:none;stroke:rgb(0,0,0);stroke-width:2"/>
	</g>
	<g id="zoom_in" onmouseup="zoomIn()" 
             onmouseover="doHighlight(evt, 'Click to zoom in')"
             onmouseout="resetHighlight(evt)"
             fill="rgb(99,154,206)"
             transform="matrix(1 0 0 1 0.888889 -0.444444)">
		<rect x="116" y="8" width="26" height="26"
			transform="matrix(1 0 0 1 29.7778 0.444444)"
			 style="stroke:rgb(0,0,0);stroke-width:1"/>
		<ellipse cx="126" cy="18" rx="6" ry="6"
			transform="matrix(1 0 0 1 29.7778 0.444444)"
			 style="stroke:rgb(0,0,0);stroke-width:1"/>
		<line x1="130" y1="23" x2="137" y2="29"
			transform="matrix(1 0 0 1 30.6667 -0.444445)"
		style="fill:none;stroke:rgb(0,0,0);stroke-width:2"/>
		<line x1="123" y1="18" x2="129" y2="18"
			transform="matrix(1 0 0 1 29.7778 0.444444)"
			 style="fill:none;stroke:rgb(0,0,0);stroke-width:2"/>
		<line x1="156" y1="15" x2="156" y2="22"
			 style="fill:none;stroke:rgb(0,0,0);stroke-width:2"/>
	</g>
	<g>
		<rect x="117" y="40" width="452" height="14"
			transform="matrix(1.54201 0 0 1 -64.1436 -0.222222)"
			 style="fill:rgb(192,192,192);stroke:rgb(0,0,0);stroke-width:1"/>
		<text id="status_text" x="183px" y="48px"
			transform="matrix(1 0 0 1 -63.5556 3.00778)"
			 style="fill:rgb(0,0,0);font-size:14;font-family:Arial"> </text>
	</g>
</g>	
</svg>