<?xml version="1.0" encoding="UTF-8" standalone="no"?><!DOCTYPE svg PUBLIC "-//W3C//DTD SVG 1.0//EN" "http://www.w3.org/TR/2001/REC-SVG-20010904/DTD/svg10.dtd" [ <!ATTLIST svg xmlns:xlink CDATA #FIXED "http://www.w3.org/1999/xlink">]><!-- Generated by WinGraphviz version ver1.02.23, 08/01/2003 (08/04/2003)     For user: Avi Ma'ayan   Title: G    Pages: 1 --><!--="735px" height="122px" xmlns="http://www.w3.org/2000/svg" --><svg onload="init(evt)" width="735px" height="600px" xmlns="http://www.w3.org/2000/svg" xmlns:xlink="http://www.w3.org/1999/xlink">
<script type="text/ecmascript">
<![CDATA[
var svgDocument;
var zoomAmt;
var xOffset;
var yOffset;
var scale;
var maxScale;
var imageWidth;
var imageHeight;
function init(evt)
{
    svgDocument = evt.getTarget().getOwnerDocument();
    zoomAmt = 0;
    xOffset = 0;
    yOffset = 60;
    scale = 0.8;
    maxScale = 10;
    imageWidth = 742;
    imageHeight = 606;
    panRestore();
    //panUp();
}
function transformMap ()
{
    var obj = svgDocument.getElementById("Pathway");
    var centerX = imageWidth  / 2.0;
    var centerY = imageHeight / 2.0;
    var adjustX = (-centerX * (scale - 0.8)) + xOffset;
    var adjustY = (-centerY * (scale - 0.8)) + yOffset;
    var transParms = 'translate(' + adjustX + ',' + adjustY + ') ';
    transParms += 'scale(' + scale + ')';
    // alert(transParms);
    obj.setAttribute("transform", transParms); 
}
function click_node(id)
{
    var testx = parent.click_node;
    if (typeof(testx) == "function")
    {
		parent.click_node(id);
    }
}
function click_relation(id)
{
    var testx = parent.click_relation;
    if (typeof(testx) == "function")
    {
        parent.click_relation(id);
    }
}
function click_pathway(toId, fromId)
{
    var testx = parent.click_pathway;
    if (typeof(testx) == "function")
    {
	parent.click_pathway(toId, fromId);
    }
}
function check_interpath(evt, pathid)
{
  var obj = evt.getTarget();
  var testx = parent.is_frompath;
  var child = obj.firstChild;
  if (typeof(testx) == "function")
  {
    if (parent.is_frompath(pathid))
    {
      while (child != null)
      {
        if (child.nodeType == 1)
        {
          if ((child.localName == "g") || (child.localName == "polyline"))
          {
            child.setAttribute("style", "fill:none;stroke:red");
          }
          else if (child.localName == "polygon")
          {
            child.setAttribute("style", "fill:red;stroke:red");
          }
        }
        child = child.nextSibling;
      }
    }
  }
}
function set_status (msg)
{
 var obj = svgDocument.getElementById("status_text");
  var child;
 
  child = obj.firstChild;
  if ((child != null) && (child.nodeType == 3))
  {
    if ((msg != null) && (msg.length > 0))
    {
      child.data = msg;
    }
    else
    {
child.data = " ";
    }
  }
}
function zoomIn ()
{
    scale = scale + 0.8;
    if (scale > maxScale)
    {
       scale = maxScale;
    }
    transformMap();
    panUp();
    panUp();
    panUp();
    panUp();
    panUp();
    panUp();
    panUp();
    panUp();
    panUp();
    panUp();
    panUp();
    panUp();
}
function zoomOut ()
{
    scale = scale - 0.8;
    if (scale < 0.8)
    {
       scale = 0.8;
    }
    transformMap();
    panDown();
    panDown();
    panDown();
    panDown();
    panDown();
    panDown();
    panDown();
    panDown();
    panDown();
    panDown();
    panDown();
    panDown();
}
function panUp ()
{
    yOffset = yOffset + 20;
    transformMap();
}
function panDown ()
{
    yOffset = yOffset - 20;
    transformMap();
}
function panLeft ()
{
    xOffset = xOffset + 20;
    transformMap();
}
function panRight ()
{
    xOffset = xOffset - 20;
    transformMap();
}
function panRestore ()
{
    xOffset = 0;
    yOffset = 0;
    scale = 0.5;
    //obj = svgDocument.getElementById("zoom");
    //obj.setAttribute("x1", 0);
    //obj.setAttribute("x2", 0);
    transformMap();    
}
function doHighlight (evt, msg)
{
  var obj = evt.getTarget();
  obj.setAttribute("fill", "rgb(239,24,33)");
  set_status(msg);
}
function resetHighlight (evt)
{
  var obj = evt.getTarget();
  obj.setAttribute("fill", "rgb(99,154,206)");
  set_status(" ");
}
// ]]>
</script>
<defs>
<clipPath id="theClip">
<polygon points="1 61, 741 61, 741 665, 1 665"
style="fill: none;"/>
</clipPath>
</defs>
<!-- viewport outline -->
<rect x="0" y="61" width="742" height="606"
style="stroke: black; stroke-width: 1; fill: none;"/>
<!-- pathway graph style="clip-path: url(#theClip);" -->
<g style="clip-path: url(#theClip);">
<g id="Pathway"  transform="translate(0,60)">
<!-- prefile.include ends, begin pathway graph -->
<g id="stkecm;CMP_10705" class="graph">
</g>
<g id="graph0" class="graph" style="font-family:Times New Roman;font-size:7.64;"><title>G</title><g id="node1" class="node"><title>ABL1</title><a xlink:href="ABL1.html"><ellipse cx="23" cy="19" rx="16" ry="9" style="fill:turquoise;stroke:turquoise;"/><text text-anchor="middle" x="23" y="22" style="font-family:Times New Roman;"><![CDATA[ABL1]]></text></a></g><g id="node2" class="node"><title>PTK2B</title><a xlink:href="PTK2B.html"><ellipse cx="370" cy="58" rx="20" ry="9" style="fill:turquoise;stroke:turquoise;"/><text text-anchor="middle" x="370" y="61" style="font-family:Times New Roman;"><![CDATA[PTK2B]]></text></a></g><g id="edge2" class="edge"><title>ABL1-&gt;PTK2B</title><path style="fill:none;stroke:#0000ff;" d="M37,27C39,28 42,28 44,29 101,45 282,54 347,57"/><polygon style="fill:#0000ff;stroke:#0000ff;" points="35,25 34,27 36,28 37,26 35,25"/><polygon style="fill:#0000ff;stroke:#0000ff;" points="350,58 350,56 347,56 347,58 350,58"/></g><g id="node30" class="node"><title>SH3KBP1</title><a xlink:href="SH3KBP1.html"><ellipse cx="217" cy="98" rx="24" ry="9" style="fill:turquoise;stroke:turquoise;"/><text text-anchor="middle" x="217" y="100" style="font-family:Times New Roman;"><![CDATA[SH3KBP1]]></text></a></g><g id="edge30" class="edge"><title>PTK2B-&gt;SH3KBP1</title><path style="fill:none;stroke:darkgreen;" d="M351,62C327,68 283,77 246,88 244,88 242,89 240,89"/><polygon style="fill:darkgreen;stroke:darkgreen;" points="241,91 235,91 240,88 241,91"/></g><g id="node32" class="node"><title>TGFB1I1</title><a xlink:href="TGFB1I1.html"><ellipse cx="272" cy="98" rx="21" ry="9" style="fill:turquoise;stroke:turquoise;"/><text text-anchor="middle" x="272" y="100" style="font-family:Times New Roman;"><![CDATA[TGFB1I1]]></text></a></g><g id="edge32" class="edge"><title>PTK2B-&gt;TGFB1I1</title><path style="fill:none;stroke:darkgreen;" d="M354,65C338,71 312,82 293,89"/><polygon style="fill:darkgreen;stroke:darkgreen;" points="294,91 289,91 293,88 294,91"/></g><g id="node34" class="node"><title>DDEF2</title><a xlink:href="DDEF2.html"><ellipse cx="324" cy="98" rx="20" ry="9" style="fill:turquoise;stroke:turquoise;"/><text text-anchor="middle" x="324" y="100" style="font-family:Times New Roman;"><![CDATA[DDEF2]]></text></a></g><g id="edge34" class="edge"><title>PTK2B-&gt;DDEF2</title><path style="fill:none;stroke:darkgreen;" d="M360,67C353,73 345,80 338,86"/><polygon style="fill:darkgreen;stroke:darkgreen;" points="339,86 334,89 337,85 339,86"/></g><g id="node36" class="node"><title>PXN</title><a xlink:href="PXN.html"><ellipse cx="370" cy="98" rx="15" ry="9" style="fill:turquoise;stroke:turquoise;"/><text text-anchor="middle" x="370" y="100" style="font-family:Times New Roman;"><![CDATA[PXN]]></text></a></g><g id="edge36" class="edge"><title>PTK2B-&gt;PXN</title><path style="fill:none;stroke:darkgreen;" d="M370,68C370,73 370,77 370,82"/><polygon style="fill:darkgreen;stroke:darkgreen;" points="372,82 370,88 369,82 372,82"/></g><g id="node38" class="node"><title>SRC</title><a xlink:href="SRC.html"><ellipse cx="410" cy="98" rx="14" ry="9" style="fill:turquoise;stroke:turquoise;"/><text text-anchor="middle" x="410" y="100" style="font-family:Times New Roman;"><![CDATA[SRC]]></text></a></g><g id="edge38" class="edge"><title>PTK2B-&gt;SRC</title><path style="fill:none;stroke:#0000ff;" d="M381,69C387,75 394,82 400,88"/><polygon style="fill:#0000ff;stroke:#0000ff;" points="380,66 378,68 380,70 383,68 380,66"/><polygon style="fill:#0000ff;stroke:#0000ff;" points="401,91 403,88 401,86 398,88 401,91"/></g><g id="node40" class="node"><title>SYK</title><a xlink:href="SYK.html"><ellipse cx="450" cy="98" rx="15" ry="9" style="fill:turquoise;stroke:turquoise;"/><text text-anchor="middle" x="450" y="100" style="font-family:Times New Roman;"><![CDATA[SYK]]></text></a></g><g id="edge40" class="edge"><title>PTK2B-&gt;SYK</title><path style="fill:none;stroke:darkgreen;" d="M384,65C398,73 419,82 433,89"/><polygon style="fill:darkgreen;stroke:darkgreen;" points="433,88 438,92 432,91 433,88"/></g><g id="node42" class="node"><title>VAV1</title><a xlink:href="VAV1.html"><ellipse cx="493" cy="98" rx="18" ry="9" style="fill:turquoise;stroke:turquoise;"/><text text-anchor="middle" x="493" y="100" style="font-family:Times New Roman;"><![CDATA[VAV1]]></text></a></g><g id="edge42" class="edge"><title>PTK2B-&gt;VAV1</title><path style="fill:none;stroke:#0000ff;" d="M391,64C411,69 443,79 470,88 473,89 475,89 477,91"/><polygon style="fill:#0000ff;stroke:#0000ff;" points="388,62 388,64 391,65 391,63 388,62"/><polygon style="fill:#0000ff;stroke:#0000ff;" points="479,93 480,91 477,89 476,92 479,93"/></g><g id="node4" class="node"><title>SORBS2</title><a xlink:href="SORBS2.html"><ellipse cx="71" cy="19" rx="22" ry="9" style="fill:turquoise;stroke:turquoise;"/><text text-anchor="middle" x="71" y="22" style="font-family:Times New Roman;"><![CDATA[SORBS2]]></text></a></g><g id="edge4" class="edge"><title>SORBS2-&gt;PTK2B</title><path style="fill:none;stroke:#0000ff;" d="M90,26C92,27 95,28 98,29 188,50 299,56 347,58"/><polygon style="fill:#0000ff;stroke:#0000ff;" points="88,25 87,27 90,27 91,25 88,25"/><polygon style="fill:#0000ff;stroke:#0000ff;" points="350,59 350,56 347,56 347,59 350,59"/></g><g id="node6" class="node"><title>DDEF1</title><a xlink:href="DDEF1.html"><ellipse cx="122" cy="19" rx="19" ry="9" style="fill:turquoise;stroke:turquoise;"/><text text-anchor="middle" x="122" y="22" style="font-family:Times New Roman;"><![CDATA[DDEF1]]></text></a></g><g id="edge6" class="edge"><title>DDEF1-&gt;PTK2B</title><path style="fill:none;stroke:#0000ff;" d="M139,26C141,27 144,28 146,29 218,48 306,55 347,57"/><polygon style="fill:#0000ff;stroke:#0000ff;" points="137,25 136,27 139,27 140,25 137,25"/><polygon style="fill:#0000ff;stroke:#0000ff;" points="350,58 350,56 347,56 347,58 350,58"/></g><g id="node8" class="node"><title>BCAR1</title><a xlink:href="BCAR1.html"><ellipse cx="171" cy="19" rx="20" ry="9" style="fill:turquoise;stroke:turquoise;"/><text text-anchor="middle" x="171" y="22" style="font-family:Times New Roman;"><![CDATA[BCAR1]]></text></a></g><g id="edge8" class="edge"><title>BCAR1-&gt;PTK2B</title><path style="fill:none;stroke:#0000ff;" d="M188,26C191,27 194,28 197,29 249,44 313,52 347,56"/><polygon style="fill:#0000ff;stroke:#0000ff;" points="187,25 186,27 188,27 189,25 187,25"/><polygon style="fill:#0000ff;stroke:#0000ff;" points="350,57 350,55 347,55 347,57 350,57"/></g><g id="node10" class="node"><title>CBL</title><a xlink:href="CBL.html"><ellipse cx="216" cy="19" rx="14" ry="9" style="fill:turquoise;stroke:turquoise;"/><text text-anchor="middle" x="216" y="22" style="font-family:Times New Roman;"><![CDATA[CBL]]></text></a></g><g id="edge10" class="edge"><title>CBL-&gt;PTK2B</title><path style="fill:none;stroke:#0000ff;" d="M230,27C232,27 234,28 236,29 274,43 320,51 347,55"/><polygon style="fill:#0000ff;stroke:#0000ff;" points="228,25 227,27 229,28 230,26 228,25"/><polygon style="fill:#0000ff;stroke:#0000ff;" points="350,57 350,55 348,54 348,56 350,57"/></g><g id="node12" class="node"><title>FYN</title><a xlink:href="FYN.html"><ellipse cx="257" cy="19" rx="15" ry="9" style="fill:turquoise;stroke:turquoise;"/><text text-anchor="middle" x="257" y="22" style="font-family:Times New Roman;"><![CDATA[FYN]]></text></a></g><g id="edge12" class="edge"><title>FYN-&gt;PTK2B</title><path style="fill:none;stroke:#0000ff;" d="M271,26C273,27 275,28 277,29 302,39 331,48 349,53"/><polygon style="fill:#0000ff;stroke:#0000ff;" points="269,25 268,27 271,27 272,25 269,25"/><polygon style="fill:#0000ff;stroke:#0000ff;" points="352,55 352,52 349,52 349,54 352,55"/></g><g id="node14" class="node"><title>ARHGAP26</title><a xlink:href="ARHGAP26.html"><ellipse cx="312" cy="19" rx="29" ry="9" style="fill:turquoise;stroke:turquoise;"/><text text-anchor="middle" x="312" y="22" style="font-family:Times New Roman;"><![CDATA[ARHGAP26]]></text></a></g><g id="edge14" class="edge"><title>ARHGAP26-&gt;PTK2B</title><path style="fill:none;stroke:#0000ff;" d="M327,29C336,35 347,43 355,49"/><polygon style="fill:#0000ff;stroke:#0000ff;" points="326,27 325,29 327,31 329,28 326,27"/><polygon style="fill:#0000ff;stroke:#0000ff;" points="357,51 359,49 356,47 355,50 357,51"/></g><g id="node16" class="node"><title>GRB2</title><a xlink:href="GRB2.html"><ellipse cx="370" cy="19" rx="18" ry="9" style="fill:turquoise;stroke:turquoise;"/><text text-anchor="middle" x="370" y="22" style="font-family:Times New Roman;"><![CDATA[GRB2]]></text></a></g><g id="edge16" class="edge"><title>GRB2-&gt;PTK2B</title><path style="fill:none;stroke:#0000ff;" d="M370,32C370,36 370,41 370,46"/><polygon style="fill:#0000ff;stroke:#0000ff;" points="372,29 369,29 369,32 372,32 372,29"/><polygon style="fill:#0000ff;stroke:#0000ff;" points="369,49 372,49 372,46 369,46 369,49"/></g><g id="node18" class="node"><title>ITGB1</title><a xlink:href="ITGB1.html"><ellipse cx="416" cy="19" rx="18" ry="9" style="fill:turquoise;stroke:turquoise;"/><text text-anchor="middle" x="416" y="22" style="font-family:Times New Roman;"><![CDATA[ITGB1]]></text></a></g><g id="edge18" class="edge"><title>ITGB1-&gt;PTK2B</title><path style="fill:none;stroke:#0000ff;" d="M404,29C397,34 389,42 383,48"/><polygon style="fill:#0000ff;stroke:#0000ff;" points="407,28 405,26 403,28 405,31 407,28"/><polygon style="fill:#0000ff;stroke:#0000ff;" points="380,49 381,51 384,49 382,47 380,49"/></g><g id="node20" class="node"><title>LPXN</title><a xlink:href="LPXN.html"><ellipse cx="462" cy="19" rx="18" ry="9" style="fill:turquoise;stroke:turquoise;"/><text text-anchor="middle" x="462" y="22" style="font-family:Times New Roman;"><![CDATA[LPXN]]></text></a></g><g id="edge20" class="edge"><title>LPXN-&gt;PTK2B</title><path style="fill:none;stroke:#0000ff;" d="M445,26C429,33 405,44 388,51"/><polygon style="fill:#0000ff;stroke:#0000ff;" points="448,26 447,24 445,25 446,27 448,26"/><polygon style="fill:#0000ff;stroke:#0000ff;" points="385,51 386,53 389,52 387,50 385,51"/></g><g id="node22" class="node"><title>LYN</title><a xlink:href="LYN.html"><ellipse cx="506" cy="19" rx="15" ry="9" style="fill:turquoise;stroke:turquoise;"/><text text-anchor="middle" x="506" y="22" style="font-family:Times New Roman;"><![CDATA[LYN]]></text></a></g><g id="edge22" class="edge"><title>LYN-&gt;PTK2B</title><path style="fill:none;stroke:#0000ff;" d="M492,26C490,27 488,28 486,29 453,40 415,50 392,54"/><polygon style="fill:#0000ff;stroke:#0000ff;" points="495,27 494,25 491,25 492,27 495,27"/><polygon style="fill:#0000ff;stroke:#0000ff;" points="389,53 389,56 392,55 392,53 389,53"/></g><g id="node24" class="node"><title>PDPK1</title><a xlink:href="PDPK1.html"><ellipse cx="551" cy="19" rx="19" ry="9" style="fill:turquoise;stroke:turquoise;"/><text text-anchor="middle" x="551" y="22" style="font-family:Times New Roman;"><![CDATA[PDPK1]]></text></a></g><g id="edge24" class="edge"><title>PDPK1-&gt;PTK2B</title><path style="fill:none;stroke:#0000ff;" d="M535,26C532,27 530,28 527,29 480,43 424,52 393,56"/><polygon style="fill:#0000ff;stroke:#0000ff;" points="537,27 536,25 534,25 535,27 537,27"/><polygon style="fill:#0000ff;stroke:#0000ff;" points="390,55 390,57 392,57 392,55 390,55"/></g><g id="node26" class="node"><title>PIK3CA</title><a xlink:href="PIK3CA.html"><ellipse cx="602" cy="19" rx="21" ry="9" style="fill:turquoise;stroke:turquoise;"/><text text-anchor="middle" x="602" y="22" style="font-family:Times New Roman;"><![CDATA[PIK3CA]]></text></a></g><g id="edge26" class="edge"><title>PIK3CA-&gt;PTK2B</title><path style="fill:none;stroke:darkgreen;" d="M585,26C582,27 578,28 575,29 512,45 435,53 396,56"/><polygon style="fill:darkgreen;stroke:darkgreen;" points="396,57 390,57 396,55 396,57"/></g><g id="node28" class="node"><title>PTPN12</title><a xlink:href="PTPN12.html"><ellipse cx="655" cy="19" rx="21" ry="9" style="fill:turquoise;stroke:turquoise;"/><text text-anchor="middle" x="655" y="22" style="font-family:Times New Roman;"><![CDATA[PTPN12]]></text></a></g><g id="edge28" class="edge"><title>PTPN12-&gt;PTK2B</title><path style="fill:none;stroke:#ff0000;" d="M639,26C636,27 632,28 629,29 546,49 446,56 398,57"/><polyline style="fill:none;stroke:#ff0000;" points="398,53 398,61 "/></g><g id="node44" class="node"><title>PTPN11</title><a xlink:href="PTPN11.html"><ellipse cx="706" cy="19" rx="20" ry="9" style="fill:turquoise;stroke:turquoise;"/><text text-anchor="middle" x="706" y="22" style="font-family:Times New Roman;"><![CDATA[PTPN11]]></text></a></g><g id="edge44" class="edge"><title>PTPN11-&gt;PTK2B</title><path style="fill:none;stroke:#ff0000;" d="M691,26C687,27 684,28 681,29 627,42 464,52 398,57"/><polyline style="fill:none;stroke:#ff0000;" points="398,53 398,61 "/></g></g></g></g>
<!-- navigation controls -->
<g id="navbox">
	<rect x="0" y="0" width="742" height="60"
		 style="fill:rgb(206,207,206);stroke:rgb(0,0,0);stroke-width:1"/>

	<polygon id="pan_right"
        onmouseup="panRight()"
        onmouseover="doHighlight(evt, 'Click to pan to the right')"
        onmouseout="resetHighlight(evt)"
		points="28.0732,13 32,20.5 28.0732,28 28.0732,23.4412 25,23.4412 25,17.4118 28.0732,17.4118"
		 transform="matrix(3.39111 0 0 2.98838 -12.6265 -29.7101)"
         fill="rgb(99,154,206)"
		 style="stroke:rgb(0,0,0);stroke-width:0.5"/>
	<polygon id="pan_left"
        onmouseup="panLeft()"
        onmouseover="doHighlight(evt, 'Click to pan to the left')"
        onmouseout="resetHighlight(evt)"
		points="123.991,25 120.064,32.5 123.991,40 123.991,35.4412 127.064,35.4412 127.064,29.4118
			123.991,29.4118" transform="matrix(3.39111 0 0 2.98838 -404.865 -65.5706)"
         fill="rgb(99,154,206)"
		 style="stroke:rgb(0,0,0);stroke-width:0.5"/>
	<polygon id="pan_down"
        onmouseup="panDown()"
        onmouseover="doHighlight(evt, 'Click to pan down')"
        onmouseout="resetHighlight(evt)"
		points="116.032,32.0408 123.532,35.9678 131.032,32.0408 126.473,32.0408 126.473,28.9678 120.444,28.9678
			120.444,32.0408" transform="matrix(3.39111 0 0 2.98838 -369.822 -50.6287)"
         fill="rgb(99,154,206)"
		 style="stroke:rgb(0,0,0);stroke-width:0.5"/>
	<polygon id="pan_up"
        onmouseup="panUp()"
  onmouseover="doHighlight(evt, 'Click to pan up')"
        onmouseout="resetHighlight(evt)"
		points="116.032,32.0408 123.532,35.9678 131.032,32.0408 126.473,32.0408 126.473,28.9678 120.444,28.9678
			120.444,32.0408" transform="matrix(3.39111 0 0 -2.98838 -369.823 111.74)"
         fill="rgb(99,154,206)"
		 style="stroke:rgb(0,0,0);stroke-width:0.5"/>
	<g id="go_home" 
         onmouseup="panRestore()" 
         onmouseover="doHighlight(evt, 'Click to restore graph to original position')"
         onmouseout="resetHighlight(evt)"
         fill="rgb(99,154,206)"
         transform="matrix(1 0 0 1 0 -0.333333)">
		<rect x="196" y="11" width="26" height="26"
			transform="translate(-19.1111 -2.66667)"
			 style="stroke:rgb(0,0,0);stroke-width:1"/>
		<line x1="182" y1="16" x2="182" y2="28"
			transform="matrix(1 0 0 1 2.22222 0.444444)"
			 style="fill:none;stroke:rgb(0,0,0);stroke-width:2"/>
		<line x1="187" y1="22" x2="187" y2="28"
			transform="matrix(1 0 0 1 2.22222 0.444444)"
			 style="fill:none;stroke:rgb(0,0,0);stroke-width:2"/>
	<line x1="192" y1="13" x2="192" y2="28"
			transform="matrix(1 0 0 1 2.22222 0.444444)"
			 style="fill:none;stroke:rgb(0,0,0);stroke-width:2"/>
		<line x1="182" y1="28" x2="192" y2="28"
			transform="matrix(1 0 0 1 2.22222 0.444444)"
	style="fill:none;stroke:rgb(0,0,0);stroke-width:2"/>
		<line x1="189" y1="12" x2="179" y2="21"
			 style="fill:none;stroke:rgb(0,0,0);stroke-width:2"/>
		<line x1="188" y1="12" x2="199" y2="20"
			 style="fill:none;stroke:rgb(0,0,0);stroke-width:2"/>
	</g>
	<g id="zoom_out" onmouseup="zoomOut()" 
             onmouseover="doHighlight(evt, 'Click to zoom out')"
             onmouseout="resetHighlight(evt)"
             fill="rgb(99,154,206)"
             transform="matrix(1 0 0 1 0 0)">
		<rect x="116" y="8" width="26" height="26"
			 style="stroke:rgb(0,0,0);stroke-width:1"/>
		<ellipse cx="126" cy="18" rx="6" ry="6"
			 style="stroke:rgb(0,0,0);stroke-width:1"/>
		<line x1="130" y1="23" x2="137" y2="29"
			transform="matrix(1 0 0 1 0.888889 -0.888889)"
			 style="fill:none;stroke:rgb(0,0,0);stroke-width:2"/>
		<line x1="123" y1="18" x2="129" y2="18"
			 style="fill:none;stroke:rgb(0,0,0);stroke-width:2"/>
	</g>
	<g id="zoom_in" onmouseup="zoomIn()" 
             onmouseover="doHighlight(evt, 'Click to zoom in')"
             onmouseout="resetHighlight(evt)"
             fill="rgb(99,154,206)"
             transform="matrix(1 0 0 1 0.888889 -0.444444)">
		<rect x="116" y="8" width="26" height="26"
			transform="matrix(1 0 0 1 29.7778 0.444444)"
			 style="stroke:rgb(0,0,0);stroke-width:1"/>
		<ellipse cx="126" cy="18" rx="6" ry="6"
			transform="matrix(1 0 0 1 29.7778 0.444444)"
			 style="stroke:rgb(0,0,0);stroke-width:1"/>
		<line x1="130" y1="23" x2="137" y2="29"
			transform="matrix(1 0 0 1 30.6667 -0.444445)"
		style="fill:none;stroke:rgb(0,0,0);stroke-width:2"/>
		<line x1="123" y1="18" x2="129" y2="18"
			transform="matrix(1 0 0 1 29.7778 0.444444)"
			 style="fill:none;stroke:rgb(0,0,0);stroke-width:2"/>
		<line x1="156" y1="15" x2="156" y2="22"
			 style="fill:none;stroke:rgb(0,0,0);stroke-width:2"/>
	</g>
	<g>
		<rect x="117" y="40" width="452" height="14"
			transform="matrix(1.54201 0 0 1 -64.1436 -0.222222)"
			 style="fill:rgb(192,192,192);stroke:rgb(0,0,0);stroke-width:1"/>
		<text id="status_text" x="183px" y="48px"
			transform="matrix(1 0 0 1 -63.5556 3.00778)"
			 style="fill:rgb(0,0,0);font-size:14;font-family:Arial"> </text>
	</g>
</g>	
</svg>