<?xml version="1.0" encoding="UTF-8" standalone="no"?><!DOCTYPE svg PUBLIC "-//W3C//DTD SVG 1.0//EN" "http://www.w3.org/TR/2001/REC-SVG-20010904/DTD/svg10.dtd" [ <!ATTLIST svg xmlns:xlink CDATA #FIXED "http://www.w3.org/1999/xlink">]><!-- Generated by WinGraphviz version ver1.02.23, 08/01/2003 (08/04/2003)     For user: Avi Ma'ayan   Title: G    Pages: 1 --><svg width="684px" height="276px" xmlns="http://www.w3.org/2000/svg" xmlns:xlink="http://www.w3.org/1999/xlink"><g id="graph0" class="graph" style="font-family:Times New Roman;font-size:18.67;"><title>G</title><g id="node1" class="node"><title>AKT1</title><a xlink:href="AKT1.html"><ellipse cx="66" cy="39" rx="41" ry="24" style="fill:turquoise;stroke:turquoise;"/><text text-anchor="middle" x="66" y="46" style="font-family:Times New Roman;"><![CDATA[AKT1]]></text></a></g><g id="node2" class="node"><title>PTPN1</title><a xlink:href="PTPN1.html"><ellipse cx="352" cy="135" rx="45" ry="24" style="fill:turquoise;stroke:turquoise;"/><text text-anchor="middle" x="352" y="142" style="font-family:Times New Roman;"><![CDATA[PTPN1]]></text></a></g><g id="edge2" class="edge"><title>AKT1-&gt;PTPN1</title><path style="fill:none;stroke:#ff0000;" d="M98,55C105,58 113,61 120,63 179,86 249,107 297,121"/><polyline style="fill:none;stroke:#ff0000;" points="290,129 296,110 "/></g><g id="node12" class="node"><title>MAPK1</title><a xlink:href="MAPK1.html"><ellipse cx="58" cy="231" rx="52" ry="24" style="fill:turquoise;stroke:turquoise;"/><text text-anchor="middle" x="58" y="238" style="font-family:Times New Roman;"><![CDATA[MAPK1]]></text></a></g><g id="edge12" class="edge"><title>PTPN1-&gt;MAPK1</title><path style="fill:none;stroke:#ff0000;" d="M312,147C266,161 189,185 122,207 121,207 118,209 117,209"/><polyline style="fill:none;stroke:#ff0000;" points="113,199 121,218 "/></g><g id="node14" class="node"><title>ACTN1</title><a xlink:href="ACTN1.html"><ellipse cx="183" cy="231" rx="49" ry="24" style="fill:turquoise;stroke:turquoise;"/><text text-anchor="middle" x="183" y="238" style="font-family:Times New Roman;"><![CDATA[ACTN1]]></text></a></g><g id="edge14" class="edge"><title>PTPN1-&gt;ACTN1</title><path style="fill:none;stroke:#ff0000;" d="M321,153C297,167 261,187 231,203"/><polyline style="fill:none;stroke:#ff0000;" points="227,194 238,211 "/></g><g id="node16" class="node"><title>CRK</title><a xlink:href="CRK.html"><ellipse cx="296" cy="231" rx="38" ry="24" style="fill:turquoise;stroke:turquoise;"/><text text-anchor="middle" x="296" y="238" style="font-family:Times New Roman;"><![CDATA[CRK]]></text></a></g><g id="edge16" class="edge"><title>PTPN1-&gt;CRK</title><path style="fill:none;stroke:#ff0000;" d="M338,158C332,169 325,181 318,191"/><polyline style="fill:none;stroke:#ff0000;" points="310,186 328,195 "/></g><g id="node18" class="node"><title>BCAR1</title><a xlink:href="BCAR1.html"><ellipse cx="408" cy="231" rx="49" ry="24" style="fill:turquoise;stroke:turquoise;"/><text text-anchor="middle" x="408" y="238" style="font-family:Times New Roman;"><![CDATA[BCAR1]]></text></a></g><g id="edge18" class="edge"><title>PTPN1-&gt;BCAR1</title><path style="fill:none;stroke:#ff0000;" d="M365,158C372,169 378,181 385,191"/><polyline style="fill:none;stroke:#ff0000;" points="376,195 393,186 "/></g><g id="node20" class="node"><title>IRS1</title><a xlink:href="IRS1.html"><ellipse cx="517" cy="231" rx="36" ry="24" style="fill:turquoise;stroke:turquoise;"/><text text-anchor="middle" x="517" y="238" style="font-family:Times New Roman;"><![CDATA[IRS1]]></text></a></g><g id="edge20" class="edge"><title>PTPN1-&gt;IRS1</title><path style="fill:none;stroke:#ff0000;" d="M382,153C408,169 445,190 474,206"/><polyline style="fill:none;stroke:#ff0000;" points="468,214 478,197 "/></g><g id="node22" class="node"><title>SRC</title><a xlink:href="SRC.html"><ellipse cx="613" cy="231" rx="36" ry="24" style="fill:turquoise;stroke:turquoise;"/><text text-anchor="middle" x="613" y="238" style="font-family:Times New Roman;"><![CDATA[SRC]]></text></a></g><g id="edge22" class="edge"><title>PTPN1-&gt;SRC</title><path style="fill:none;stroke:#ff0000;" d="M392,147C434,161 505,183 565,207 566,207 567,209 569,209"/><polyline style="fill:none;stroke:#ff0000;" points="562,217 571,199 "/></g><g id="node4" class="node"><title>CAPN1</title><a xlink:href="CAPN1.html"><ellipse cx="181" cy="39" rx="49" ry="24" style="fill:turquoise;stroke:turquoise;"/><text text-anchor="middle" x="181" y="46" style="font-family:Times New Roman;"><![CDATA[CAPN1]]></text></a></g><g id="edge4" class="edge"><title>CAPN1-&gt;PTPN1</title><path style="fill:none;stroke:#ff0000;" d="M213,58C238,73 276,93 304,109"/><polyline style="fill:none;stroke:#ff0000;" points="297,117 308,99 "/></g><g id="node6" class="node"><title>CAV1</title><a xlink:href="CAV1.html"><ellipse cx="297" cy="39" rx="42" ry="24" style="fill:turquoise;stroke:turquoise;"/><text text-anchor="middle" x="297" y="46" style="font-family:Times New Roman;"><![CDATA[CAV1]]></text></a></g><g id="edge6" class="edge"><title>CAV1-&gt;PTPN1</title><path style="fill:none;stroke:#0000ff;" d="M313,67C320,81 329,94 336,107"/><polygon style="fill:#0000ff;stroke:#0000ff;" points="313,61 308,63 310,69 316,66 313,61"/><polygon style="fill:#0000ff;stroke:#0000ff;" points="336,114 341,111 338,106 333,109 336,114"/></g><g id="node8" class="node"><title>GRB2</title><a xlink:href="GRB2.html"><ellipse cx="408" cy="39" rx="44" ry="24" style="fill:turquoise;stroke:turquoise;"/><text text-anchor="middle" x="408" y="46" style="font-family:Times New Roman;"><![CDATA[GRB2]]></text></a></g><g id="edge8" class="edge"><title>GRB2-&gt;PTPN1</title><path style="fill:none;stroke:#0000ff;" d="M392,67C384,81 374,94 368,107"/><polygon style="fill:#0000ff;stroke:#0000ff;" points="397,63 392,61 389,66 394,69 397,63"/><polygon style="fill:#0000ff;stroke:#0000ff;" points="362,111 368,114 370,109 365,106 362,111"/></g><g id="node10" class="node"><title>INSR</title><a xlink:href="INSR.html"><ellipse cx="516" cy="39" rx="40" ry="24" style="fill:turquoise;stroke:turquoise;"/><text text-anchor="middle" x="516" y="46" style="font-family:Times New Roman;"><![CDATA[INSR]]></text></a></g><g id="edge10" class="edge"><title>INSR-&gt;PTPN1</title><path style="fill:none;stroke:darkgreen;" d="M486,57C460,71 421,94 393,111"/><polygon style="fill:darkgreen;stroke:darkgreen;" points="396,114 382,118 392,109 396,114"/></g><g id="node24" class="node"><title>RHOA</title><a xlink:href="RHOA.html"><ellipse cx="627" cy="39" rx="48" ry="24" style="fill:turquoise;stroke:turquoise;"/><text text-anchor="middle" x="627" y="46" style="font-family:Times New Roman;"><![CDATA[RHOA]]></text></a></g><g id="edge24" class="edge"><title>RHOA-&gt;PTPN1</title><path style="fill:none;stroke:#ff0000;" d="M590,55C582,58 574,61 567,63 513,83 450,105 406,119"/><polyline style="fill:none;stroke:#ff0000;" points="408,109 413,127 "/></g></g></svg>