<?xml version="1.0" encoding="UTF-8" standalone="no"?><!DOCTYPE svg PUBLIC "-//W3C//DTD SVG 1.0//EN" "http://www.w3.org/TR/2001/REC-SVG-20010904/DTD/svg10.dtd" [ <!ATTLIST svg xmlns:xlink CDATA #FIXED "http://www.w3.org/1999/xlink">]><!-- Generated by WinGraphviz version ver1.02.23, 08/01/2003 (08/04/2003)     For user: Avi Ma'ayan   Title: G    Pages: 1 --><!--="735px" height="266px" xmlns="http://www.w3.org/2000/svg" --><svg onload="init(evt)" width="735px" height="600px" xmlns="http://www.w3.org/2000/svg" xmlns:xlink="http://www.w3.org/1999/xlink">
<script type="text/ecmascript">
<![CDATA[
var svgDocument;
var zoomAmt;
var xOffset;
var yOffset;
var scale;
var maxScale;
var imageWidth;
var imageHeight;
function init(evt)
{
    svgDocument = evt.getTarget().getOwnerDocument();
    zoomAmt = 0;
    xOffset = 0;
    yOffset = 60;
    scale = 0.8;
    maxScale = 10;
    imageWidth = 742;
    imageHeight = 606;
    panRestore();
    //panUp();
}
function transformMap ()
{
    var obj = svgDocument.getElementById("Pathway");
    var centerX = imageWidth  / 2.0;
    var centerY = imageHeight / 2.0;
    var adjustX = (-centerX * (scale - 0.8)) + xOffset;
    var adjustY = (-centerY * (scale - 0.8)) + yOffset;
    var transParms = 'translate(' + adjustX + ',' + adjustY + ') ';
    transParms += 'scale(' + scale + ')';
    // alert(transParms);
    obj.setAttribute("transform", transParms); 
}
function click_node(id)
{
    var testx = parent.click_node;
    if (typeof(testx) == "function")
    {
		parent.click_node(id);
    }
}
function click_relation(id)
{
    var testx = parent.click_relation;
    if (typeof(testx) == "function")
    {
        parent.click_relation(id);
    }
}
function click_pathway(toId, fromId)
{
    var testx = parent.click_pathway;
    if (typeof(testx) == "function")
    {
	parent.click_pathway(toId, fromId);
    }
}
function check_interpath(evt, pathid)
{
  var obj = evt.getTarget();
  var testx = parent.is_frompath;
  var child = obj.firstChild;
  if (typeof(testx) == "function")
  {
    if (parent.is_frompath(pathid))
    {
      while (child != null)
      {
        if (child.nodeType == 1)
        {
          if ((child.localName == "g") || (child.localName == "polyline"))
          {
            child.setAttribute("style", "fill:none;stroke:red");
          }
          else if (child.localName == "polygon")
          {
            child.setAttribute("style", "fill:red;stroke:red");
          }
        }
        child = child.nextSibling;
      }
    }
  }
}
function set_status (msg)
{
 var obj = svgDocument.getElementById("status_text");
  var child;
 
  child = obj.firstChild;
  if ((child != null) && (child.nodeType == 3))
  {
    if ((msg != null) && (msg.length > 0))
    {
      child.data = msg;
    }
    else
    {
child.data = " ";
    }
  }
}
function zoomIn ()
{
    scale = scale + 0.8;
    if (scale > maxScale)
    {
       scale = maxScale;
    }
    transformMap();
    panUp();
    panUp();
    panUp();
    panUp();
    panUp();
    panUp();
    panUp();
    panUp();
    panUp();
    panUp();
    panUp();
    panUp();
}
function zoomOut ()
{
    scale = scale - 0.8;
    if (scale < 0.8)
    {
       scale = 0.8;
    }
    transformMap();
    panDown();
    panDown();
    panDown();
    panDown();
    panDown();
    panDown();
    panDown();
    panDown();
    panDown();
    panDown();
    panDown();
    panDown();
}
function panUp ()
{
    yOffset = yOffset + 20;
    transformMap();
}
function panDown ()
{
    yOffset = yOffset - 20;
    transformMap();
}
function panLeft ()
{
    xOffset = xOffset + 20;
    transformMap();
}
function panRight ()
{
    xOffset = xOffset - 20;
    transformMap();
}
function panRestore ()
{
    xOffset = 0;
    yOffset = 0;
    scale = 0.5;
    //obj = svgDocument.getElementById("zoom");
    //obj.setAttribute("x1", 0);
    //obj.setAttribute("x2", 0);
    transformMap();    
}
function doHighlight (evt, msg)
{
  var obj = evt.getTarget();
  obj.setAttribute("fill", "rgb(239,24,33)");
  set_status(msg);
}
function resetHighlight (evt)
{
  var obj = evt.getTarget();
  obj.setAttribute("fill", "rgb(99,154,206)");
  set_status(" ");
}
// ]]>
</script>
<defs>
<clipPath id="theClip">
<polygon points="1 61, 741 61, 741 665, 1 665"
style="fill: none;"/>
</clipPath>
</defs>
<!-- viewport outline -->
<rect x="0" y="61" width="742" height="606"
style="stroke: black; stroke-width: 1; fill: none;"/>
<!-- pathway graph style="clip-path: url(#theClip);" -->
<g style="clip-path: url(#theClip);">
<g id="Pathway"  transform="translate(0,60)">
<!-- prefile.include ends, begin pathway graph -->
<g id="stkecm;CMP_10705" class="graph">
</g>
<g id="graph0" class="graph" style="font-family:Times New Roman;font-size:17.94;"><title>G</title><g id="node1" class="node"><title>CEACAM1</title><a xlink:href="CEACAM1.html"><ellipse cx="70" cy="38" rx="64" ry="23" style="fill:turquoise;stroke:turquoise;"/><text text-anchor="middle" x="70" y="44" style="font-family:Times New Roman;"><![CDATA[CEACAM1]]></text></a></g><g id="node2" class="node"><title>PTPN11</title><a xlink:href="PTPN11.html"><ellipse cx="348" cy="130" rx="47" ry="23" style="fill:turquoise;stroke:turquoise;"/><text text-anchor="middle" x="348" y="137" style="font-family:Times New Roman;"><![CDATA[PTPN11]]></text></a></g><g id="edge2" class="edge"><title>CEACAM1-&gt;PTPN11</title><path style="fill:none;stroke:#0000ff;" d="M123,55C174,71 253,98 302,115"/><polygon style="fill:#0000ff;stroke:#0000ff;" points="119,51 116,56 123,57 125,52 119,51"/><polygon style="fill:#0000ff;stroke:#0000ff;" points="307,120 310,115 303,112 301,117 307,120"/></g><g id="node14" class="node"><title>PTK2</title><a xlink:href="PTK2.html"><ellipse cx="48" cy="223" rx="39" ry="23" style="fill:turquoise;stroke:turquoise;"/><text text-anchor="middle" x="48" y="229" style="font-family:Times New Roman;"><![CDATA[PTK2]]></text></a></g><g id="edge14" class="edge"><title>PTPN11-&gt;PTK2</title><path style="fill:none;stroke:#ff0000;" d="M305,141C256,152 171,174 100,199 98,199 97,201 96,201"/><polyline style="fill:none;stroke:#ff0000;" points="92,192 101,210 "/></g><g id="node16" class="node"><title>IRS1</title><a xlink:href="IRS1.html"><ellipse cx="146" cy="223" rx="34" ry="23" style="fill:turquoise;stroke:turquoise;"/><text text-anchor="middle" x="146" y="229" style="font-family:Times New Roman;"><![CDATA[IRS1]]></text></a></g><g id="edge16" class="edge"><title>PTPN11-&gt;IRS1</title><path style="fill:none;stroke:#ff0000;" d="M312,146C280,160 233,180 192,199 191,199 191,201 189,201"/><polyline style="fill:none;stroke:#ff0000;" points="187,192 196,208 "/></g><g id="node18" class="node"><title>PXN</title><a xlink:href="PXN.html"><ellipse cx="241" cy="223" rx="37" ry="23" style="fill:turquoise;stroke:turquoise;"/><text text-anchor="middle" x="241" y="229" style="font-family:Times New Roman;"><![CDATA[PXN]]></text></a></g><g id="edge18" class="edge"><title>PTPN11-&gt;PXN</title><path style="fill:none;stroke:#ff0000;" d="M324,151C310,162 292,178 276,192"/><polyline style="fill:none;stroke:#ff0000;" points="271,184 283,198 "/></g><g id="node20" class="node"><title>PTK2B</title><a xlink:href="PTK2B.html"><ellipse cx="348" cy="223" rx="47" ry="23" style="fill:turquoise;stroke:turquoise;"/><text text-anchor="middle" x="348" y="229" style="font-family:Times New Roman;"><![CDATA[PTK2B]]></text></a></g><g id="edge20" class="edge"><title>PTPN11-&gt;PTK2B</title><path style="fill:none;stroke:#ff0000;" d="M348,153C348,161 348,171 348,180"/><polyline style="fill:none;stroke:#ff0000;" points="339,180 358,180 "/></g><g id="node22" class="node"><title>SIRPA</title><a xlink:href="SIRPA.html"><ellipse cx="464" cy="223" rx="44" ry="23" style="fill:limegreen;stroke:limegreen;"/><text text-anchor="middle" x="464" y="229" style="font-family:Times New Roman;"><![CDATA[SIRPA]]></text></a></g><g id="edge22" class="edge"><title>PTPN11-&gt;SIRPA</title><path style="fill:none;stroke:#ff0000;" d="M374,151C389,162 408,178 425,192"/><polyline style="fill:none;stroke:#ff0000;" points="419,198 430,184 "/></g><g id="node24" class="node"><title>STAT3</title><a xlink:href="STAT3.html"><ellipse cx="576" cy="223" rx="44" ry="23" style="fill:#eea9b9;stroke:#eea9b9;"/><text text-anchor="middle" x="576" y="229" style="font-family:Times New Roman;"><![CDATA[STAT3]]></text></a></g><g id="edge24" class="edge"><title>PTPN11-&gt;STAT3</title><path style="fill:none;stroke:#ff0000;" d="M385,146C420,160 473,180 520,199 521,199 522,201 525,201"/><polyline style="fill:none;stroke:#ff0000;" points="519,208 528,192 "/></g><g id="node26" class="node"><title>GAB1</title><a xlink:href="GAB1.html"><ellipse cx="685" cy="223" rx="40" ry="23" style="fill:turquoise;stroke:turquoise;"/><text text-anchor="middle" x="685" y="229" style="font-family:Times New Roman;"><![CDATA[GAB1]]></text></a></g><g id="edge26" class="edge"><title>PTPN11-&gt;GAB1</title><path style="fill:none;stroke:#ff0000;" d="M393,139C449,149 549,171 633,199 634,199 635,201 638,201"/><polyline style="fill:none;stroke:#ff0000;" points="631,208 640,192 "/></g><g id="node4" class="node"><title>FYN</title><a xlink:href="FYN.html"><ellipse cx="194" cy="38" rx="37" ry="23" style="fill:turquoise;stroke:turquoise;"/><text text-anchor="middle" x="194" y="44" style="font-family:Times New Roman;"><![CDATA[FYN]]></text></a></g><g id="edge4" class="edge"><title>FYN-&gt;PTPN11</title><path style="fill:none;stroke:darkgreen;" d="M221,55C246,69 280,91 307,106"/><polygon style="fill:darkgreen;stroke:darkgreen;" points="309,103 317,112 305,109 309,103"/></g><g id="node6" class="node"><title>GRB2</title><a xlink:href="GRB2.html"><ellipse cx="297" cy="38" rx="42" ry="23" style="fill:turquoise;stroke:turquoise;"/><text text-anchor="middle" x="297" y="44" style="font-family:Times New Roman;"><![CDATA[GRB2]]></text></a></g><g id="edge6" class="edge"><title>GRB2-&gt;PTPN11</title><path style="fill:none;stroke:#0000ff;" d="M312,65C319,78 326,91 333,103"/><polygon style="fill:#0000ff;stroke:#0000ff;" points="312,59 307,61 310,66 315,64 312,59"/><polygon style="fill:#0000ff;stroke:#0000ff;" points="333,110 338,107 335,102 330,105 333,110"/></g><g id="node8" class="node"><title>INSR</title><a xlink:href="INSR.html"><ellipse cx="401" cy="38" rx="38" ry="23" style="fill:turquoise;stroke:turquoise;"/><text text-anchor="middle" x="401" y="44" style="font-family:Times New Roman;"><![CDATA[INSR]]></text></a></g><g id="edge8" class="edge"><title>INSR-&gt;PTPN11</title><path style="fill:none;stroke:darkgreen;" d="M388,60C382,70 374,84 367,97"/><polygon style="fill:darkgreen;stroke:darkgreen;" points="370,98 361,107 365,94 370,98"/></g><g id="node10" class="node"><title>PRKCA</title><a xlink:href="PRKCA.html"><ellipse cx="513" cy="38" rx="51" ry="23" style="fill:turquoise;stroke:turquoise;"/><text text-anchor="middle" x="513" y="44" style="font-family:Times New Roman;"><![CDATA[PRKCA]]></text></a></g><g id="edge10" class="edge"><title>PRKCA-&gt;PTPN11</title><path style="fill:none;stroke:darkgreen;" d="M481,56C456,71 417,92 391,107"/><polygon style="fill:darkgreen;stroke:darkgreen;" points="393,110 380,112 391,103 393,110"/></g><g id="node12" class="node"><title>SHC1</title><a xlink:href="SHC1.html"><ellipse cx="625" cy="38" rx="37" ry="23" style="fill:turquoise;stroke:turquoise;"/><text text-anchor="middle" x="625" y="44" style="font-family:Times New Roman;"><![CDATA[SHC1]]></text></a></g><g id="edge12" class="edge"><title>SHC1-&gt;PTPN11</title><path style="fill:none;stroke:#0000ff;" d="M592,55C587,57 581,59 576,61 515,84 443,106 397,119"/><polygon style="fill:#0000ff;stroke:#0000ff;" points="598,56 595,51 589,52 592,57 598,56"/><polygon style="fill:#0000ff;stroke:#0000ff;" points="391,117 391,123 397,121 397,116 391,117"/></g></g></g></g>
<!-- navigation controls -->
<g id="navbox">
	<rect x="0" y="0" width="742" height="60"
		 style="fill:rgb(206,207,206);stroke:rgb(0,0,0);stroke-width:1"/>

	<polygon id="pan_right"
        onmouseup="panRight()"
        onmouseover="doHighlight(evt, 'Click to pan to the right')"
        onmouseout="resetHighlight(evt)"
		points="28.0732,13 32,20.5 28.0732,28 28.0732,23.4412 25,23.4412 25,17.4118 28.0732,17.4118"
		 transform="matrix(3.39111 0 0 2.98838 -12.6265 -29.7101)"
         fill="rgb(99,154,206)"
		 style="stroke:rgb(0,0,0);stroke-width:0.5"/>
	<polygon id="pan_left"
        onmouseup="panLeft()"
        onmouseover="doHighlight(evt, 'Click to pan to the left')"
        onmouseout="resetHighlight(evt)"
		points="123.991,25 120.064,32.5 123.991,40 123.991,35.4412 127.064,35.4412 127.064,29.4118
			123.991,29.4118" transform="matrix(3.39111 0 0 2.98838 -404.865 -65.5706)"
         fill="rgb(99,154,206)"
		 style="stroke:rgb(0,0,0);stroke-width:0.5"/>
	<polygon id="pan_down"
        onmouseup="panDown()"
        onmouseover="doHighlight(evt, 'Click to pan down')"
        onmouseout="resetHighlight(evt)"
		points="116.032,32.0408 123.532,35.9678 131.032,32.0408 126.473,32.0408 126.473,28.9678 120.444,28.9678
			120.444,32.0408" transform="matrix(3.39111 0 0 2.98838 -369.822 -50.6287)"
         fill="rgb(99,154,206)"
		 style="stroke:rgb(0,0,0);stroke-width:0.5"/>
	<polygon id="pan_up"
        onmouseup="panUp()"
  onmouseover="doHighlight(evt, 'Click to pan up')"
        onmouseout="resetHighlight(evt)"
		points="116.032,32.0408 123.532,35.9678 131.032,32.0408 126.473,32.0408 126.473,28.9678 120.444,28.9678
			120.444,32.0408" transform="matrix(3.39111 0 0 -2.98838 -369.823 111.74)"
         fill="rgb(99,154,206)"
		 style="stroke:rgb(0,0,0);stroke-width:0.5"/>
	<g id="go_home" 
         onmouseup="panRestore()" 
         onmouseover="doHighlight(evt, 'Click to restore graph to original position')"
         onmouseout="resetHighlight(evt)"
         fill="rgb(99,154,206)"
         transform="matrix(1 0 0 1 0 -0.333333)">
		<rect x="196" y="11" width="26" height="26"
			transform="translate(-19.1111 -2.66667)"
			 style="stroke:rgb(0,0,0);stroke-width:1"/>
		<line x1="182" y1="16" x2="182" y2="28"
			transform="matrix(1 0 0 1 2.22222 0.444444)"
			 style="fill:none;stroke:rgb(0,0,0);stroke-width:2"/>
		<line x1="187" y1="22" x2="187" y2="28"
			transform="matrix(1 0 0 1 2.22222 0.444444)"
			 style="fill:none;stroke:rgb(0,0,0);stroke-width:2"/>
	<line x1="192" y1="13" x2="192" y2="28"
			transform="matrix(1 0 0 1 2.22222 0.444444)"
			 style="fill:none;stroke:rgb(0,0,0);stroke-width:2"/>
		<line x1="182" y1="28" x2="192" y2="28"
			transform="matrix(1 0 0 1 2.22222 0.444444)"
	style="fill:none;stroke:rgb(0,0,0);stroke-width:2"/>
		<line x1="189" y1="12" x2="179" y2="21"
			 style="fill:none;stroke:rgb(0,0,0);stroke-width:2"/>
		<line x1="188" y1="12" x2="199" y2="20"
			 style="fill:none;stroke:rgb(0,0,0);stroke-width:2"/>
	</g>
	<g id="zoom_out" onmouseup="zoomOut()" 
             onmouseover="doHighlight(evt, 'Click to zoom out')"
             onmouseout="resetHighlight(evt)"
             fill="rgb(99,154,206)"
             transform="matrix(1 0 0 1 0 0)">
		<rect x="116" y="8" width="26" height="26"
			 style="stroke:rgb(0,0,0);stroke-width:1"/>
		<ellipse cx="126" cy="18" rx="6" ry="6"
			 style="stroke:rgb(0,0,0);stroke-width:1"/>
		<line x1="130" y1="23" x2="137" y2="29"
			transform="matrix(1 0 0 1 0.888889 -0.888889)"
			 style="fill:none;stroke:rgb(0,0,0);stroke-width:2"/>
		<line x1="123" y1="18" x2="129" y2="18"
			 style="fill:none;stroke:rgb(0,0,0);stroke-width:2"/>
	</g>
	<g id="zoom_in" onmouseup="zoomIn()" 
             onmouseover="doHighlight(evt, 'Click to zoom in')"
             onmouseout="resetHighlight(evt)"
             fill="rgb(99,154,206)"
             transform="matrix(1 0 0 1 0.888889 -0.444444)">
		<rect x="116" y="8" width="26" height="26"
			transform="matrix(1 0 0 1 29.7778 0.444444)"
			 style="stroke:rgb(0,0,0);stroke-width:1"/>
		<ellipse cx="126" cy="18" rx="6" ry="6"
			transform="matrix(1 0 0 1 29.7778 0.444444)"
			 style="stroke:rgb(0,0,0);stroke-width:1"/>
		<line x1="130" y1="23" x2="137" y2="29"
			transform="matrix(1 0 0 1 30.6667 -0.444445)"
		style="fill:none;stroke:rgb(0,0,0);stroke-width:2"/>
		<line x1="123" y1="18" x2="129" y2="18"
			transform="matrix(1 0 0 1 29.7778 0.444444)"
			 style="fill:none;stroke:rgb(0,0,0);stroke-width:2"/>
		<line x1="156" y1="15" x2="156" y2="22"
			 style="fill:none;stroke:rgb(0,0,0);stroke-width:2"/>
	</g>
	<g>
		<rect x="117" y="40" width="452" height="14"
			transform="matrix(1.54201 0 0 1 -64.1436 -0.222222)"
			 style="fill:rgb(192,192,192);stroke:rgb(0,0,0);stroke-width:1"/>
		<text id="status_text" x="183px" y="48px"
			transform="matrix(1 0 0 1 -63.5556 3.00778)"
			 style="fill:rgb(0,0,0);font-size:14;font-family:Arial"> </text>
	</g>
</g>	
</svg>