<?xml version="1.0" encoding="UTF-8" standalone="no"?><!DOCTYPE svg PUBLIC "-//W3C//DTD SVG 1.0//EN" "http://www.w3.org/TR/2001/REC-SVG-20010904/DTD/svg10.dtd" [ <!ATTLIST svg xmlns:xlink CDATA #FIXED "http://www.w3.org/1999/xlink">]><!-- Generated by WinGraphviz version ver1.02.23, 08/01/2003 (08/04/2003)     For user: Avi Ma'ayan   Title: G    Pages: 1 --><!--="735px" height="215px" xmlns="http://www.w3.org/2000/svg" --><svg onload="init(evt)" width="735px" height="600px" xmlns="http://www.w3.org/2000/svg" xmlns:xlink="http://www.w3.org/1999/xlink">
<script type="text/ecmascript">
<![CDATA[
var svgDocument;
var zoomAmt;
var xOffset;
var yOffset;
var scale;
var maxScale;
var imageWidth;
var imageHeight;
function init(evt)
{
    svgDocument = evt.getTarget().getOwnerDocument();
    zoomAmt = 0;
    xOffset = 0;
    yOffset = 60;
    scale = 0.8;
    maxScale = 10;
    imageWidth = 742;
    imageHeight = 606;
    panRestore();
    //panUp();
}
function transformMap ()
{
    var obj = svgDocument.getElementById("Pathway");
    var centerX = imageWidth  / 2.0;
    var centerY = imageHeight / 2.0;
    var adjustX = (-centerX * (scale - 0.8)) + xOffset;
    var adjustY = (-centerY * (scale - 0.8)) + yOffset;
    var transParms = 'translate(' + adjustX + ',' + adjustY + ') ';
    transParms += 'scale(' + scale + ')';
    // alert(transParms);
    obj.setAttribute("transform", transParms); 
}
function click_node(id)
{
    var testx = parent.click_node;
    if (typeof(testx) == "function")
    {
		parent.click_node(id);
    }
}
function click_relation(id)
{
    var testx = parent.click_relation;
    if (typeof(testx) == "function")
    {
        parent.click_relation(id);
    }
}
function click_pathway(toId, fromId)
{
    var testx = parent.click_pathway;
    if (typeof(testx) == "function")
    {
	parent.click_pathway(toId, fromId);
    }
}
function check_interpath(evt, pathid)
{
  var obj = evt.getTarget();
  var testx = parent.is_frompath;
  var child = obj.firstChild;
  if (typeof(testx) == "function")
  {
    if (parent.is_frompath(pathid))
    {
      while (child != null)
      {
        if (child.nodeType == 1)
        {
          if ((child.localName == "g") || (child.localName == "polyline"))
          {
            child.setAttribute("style", "fill:none;stroke:red");
          }
          else if (child.localName == "polygon")
          {
            child.setAttribute("style", "fill:red;stroke:red");
          }
        }
        child = child.nextSibling;
      }
    }
  }
}
function set_status (msg)
{
 var obj = svgDocument.getElementById("status_text");
  var child;
 
  child = obj.firstChild;
  if ((child != null) && (child.nodeType == 3))
  {
    if ((msg != null) && (msg.length > 0))
    {
      child.data = msg;
    }
    else
    {
child.data = " ";
    }
  }
}
function zoomIn ()
{
    scale = scale + 0.8;
    if (scale > maxScale)
    {
       scale = maxScale;
    }
    transformMap();
    panUp();
    panUp();
    panUp();
    panUp();
    panUp();
    panUp();
    panUp();
    panUp();
    panUp();
    panUp();
    panUp();
    panUp();
}
function zoomOut ()
{
    scale = scale - 0.8;
    if (scale < 0.8)
    {
       scale = 0.8;
    }
    transformMap();
    panDown();
    panDown();
    panDown();
    panDown();
    panDown();
    panDown();
    panDown();
    panDown();
    panDown();
    panDown();
    panDown();
    panDown();
}
function panUp ()
{
    yOffset = yOffset + 20;
    transformMap();
}
function panDown ()
{
    yOffset = yOffset - 20;
    transformMap();
}
function panLeft ()
{
    xOffset = xOffset + 20;
    transformMap();
}
function panRight ()
{
    xOffset = xOffset - 20;
    transformMap();
}
function panRestore ()
{
    xOffset = 0;
    yOffset = 0;
    scale = 0.5;
    //obj = svgDocument.getElementById("zoom");
    //obj.setAttribute("x1", 0);
    //obj.setAttribute("x2", 0);
    transformMap();    
}
function doHighlight (evt, msg)
{
  var obj = evt.getTarget();
  obj.setAttribute("fill", "rgb(239,24,33)");
  set_status(msg);
}
function resetHighlight (evt)
{
  var obj = evt.getTarget();
  obj.setAttribute("fill", "rgb(99,154,206)");
  set_status(" ");
}
// ]]>
</script>
<defs>
<clipPath id="theClip">
<polygon points="1 61, 741 61, 741 665, 1 665"
style="fill: none;"/>
</clipPath>
</defs>
<!-- viewport outline -->
<rect x="0" y="61" width="742" height="606"
style="stroke: black; stroke-width: 1; fill: none;"/>
<!-- pathway graph style="clip-path: url(#theClip);" -->
<g style="clip-path: url(#theClip);">
<g id="Pathway"  transform="translate(0,60)">
<!-- prefile.include ends, begin pathway graph -->
<g id="stkecm;CMP_10705" class="graph">
</g>
<g id="graph0" class="graph" style="font-family:Times New Roman;font-size:14.36;"><title>G</title><g id="node1" class="node"><title>ABL1</title><a xlink:href="ABL1.html"><ellipse cx="37" cy="30" rx="30" ry="18" style="fill:turquoise;stroke:turquoise;"/><text text-anchor="middle" x="37" y="36" style="font-family:Times New Roman;"><![CDATA[ABL1]]></text></a></g><g id="node2" class="node"><title>PTPN6</title><a xlink:href="PTPN6.html"><ellipse cx="376" cy="104" rx="36" ry="18" style="fill:turquoise;stroke:turquoise;"/><text text-anchor="middle" x="376" y="109" style="font-family:Times New Roman;"><![CDATA[PTPN6]]></text></a></g><g id="edge2" class="edge"><title>ABL1-&gt;PTPN6</title><path style="fill:none;stroke:darkgreen;" d="M61,43C66,45 72,48 77,49 164,77 271,92 331,99"/><polygon style="fill:darkgreen;stroke:darkgreen;" points="330,96 341,100 330,101 330,96"/></g><g id="node12" class="node"><title>LYN</title><a xlink:href="LYN.html"><ellipse cx="165" cy="178" rx="29" ry="18" style="fill:turquoise;stroke:turquoise;"/><text text-anchor="middle" x="165" y="183" style="font-family:Times New Roman;"><![CDATA[LYN]]></text></a></g><g id="edge24" class="edge"><title>PTPN6-&gt;LYN</title><path style="fill:none;stroke:#ff0000;" d="M343,113C307,122 248,139 199,159"/><polyline style="fill:none;stroke:#ff0000;" points="197,152 202,166 "/></g><g id="node20" class="node"><title>ACTN1</title><a xlink:href="ACTN1.html"><ellipse cx="251" cy="178" rx="37" ry="18" style="fill:turquoise;stroke:turquoise;"/><text text-anchor="middle" x="251" y="183" style="font-family:Times New Roman;"><![CDATA[ACTN1]]></text></a></g><g id="edge20" class="edge"><title>PTPN6-&gt;ACTN1</title><path style="fill:none;stroke:#ff0000;" d="M352,119C334,130 309,144 288,157"/><polyline style="fill:none;stroke:#ff0000;" points="285,149 293,163 "/></g><g id="node22" class="node"><title>CBL</title><a xlink:href="CBL.html"><ellipse cx="335" cy="178" rx="27" ry="18" style="fill:turquoise;stroke:turquoise;"/><text text-anchor="middle" x="335" y="183" style="font-family:Times New Roman;"><![CDATA[CBL]]></text></a></g><g id="edge22" class="edge"><title>PTPN6-&gt;CBL</title><path style="fill:none;stroke:#ff0000;" d="M366,122C362,130 357,139 352,147"/><polyline style="fill:none;stroke:#ff0000;" points="346,143 359,150 "/></g><g id="node25" class="node"><title>SIRPA</title><a xlink:href="SIRPA.html"><ellipse cx="417" cy="178" rx="35" ry="18" style="fill:limegreen;stroke:limegreen;"/><text text-anchor="middle" x="417" y="183" style="font-family:Times New Roman;"><![CDATA[SIRPA]]></text></a></g><g id="edge26" class="edge"><title>PTPN6-&gt;SIRPA</title><path style="fill:none;stroke:#ff0000;" d="M387,122C391,130 396,138 400,147"/><polyline style="fill:none;stroke:#ff0000;" points="393,150 406,143 "/></g><g id="node27" class="node"><title>SRC</title><a xlink:href="SRC.html"><ellipse cx="500" cy="178" rx="27" ry="18" style="fill:turquoise;stroke:turquoise;"/><text text-anchor="middle" x="500" y="183" style="font-family:Times New Roman;"><![CDATA[SRC]]></text></a></g><g id="edge28" class="edge"><title>PTPN6-&gt;SRC</title><path style="fill:none;stroke:#ff0000;" d="M400,119C418,130 446,146 467,159"/><polyline style="fill:none;stroke:#ff0000;" points="462,165 470,152 "/></g><g id="node29" class="node"><title>SYK</title><a xlink:href="SYK.html"><ellipse cx="574" cy="178" rx="28" ry="18" style="fill:turquoise;stroke:turquoise;"/><text text-anchor="middle" x="574" y="183" style="font-family:Times New Roman;"><![CDATA[SYK]]></text></a></g><g id="edge30" class="edge"><title>PTPN6-&gt;SYK</title><path style="fill:none;stroke:#ff0000;" d="M408,115C441,125 492,141 536,160 537,160 538,161 539,161"/><polyline style="fill:none;stroke:#ff0000;" points="534,167 542,154 "/></g><g id="node31" class="node"><title>VAV1</title><a xlink:href="VAV1.html"><ellipse cx="655" cy="178" rx="33" ry="18" style="fill:turquoise;stroke:turquoise;"/><text text-anchor="middle" x="655" y="183" style="font-family:Times New Roman;"><![CDATA[VAV1]]></text></a></g><g id="edge32" class="edge"><title>PTPN6-&gt;VAV1</title><path style="fill:none;stroke:#0000ff;" d="M416,112C464,121 545,138 612,160 616,162 621,163 625,165"/><polygon style="fill:#0000ff;stroke:#0000ff;" points="411,108 411,113 416,114 416,109 411,108"/><polygon style="fill:#0000ff;stroke:#0000ff;" points="628,169 630,165 626,163 624,167 628,169"/></g><g id="node4" class="node"><title>CAPN1</title><a xlink:href="CAPN1.html"><ellipse cx="124" cy="30" rx="37" ry="18" style="fill:turquoise;stroke:turquoise;"/><text text-anchor="middle" x="124" y="36" style="font-family:Times New Roman;"><![CDATA[CAPN1]]></text></a></g><g id="edge4" class="edge"><title>CAPN1-&gt;PTPN6</title><path style="fill:none;stroke:#ff0000;" d="M153,43C159,45 165,47 171,49 225,66 287,83 329,93"/><polyline style="fill:none;stroke:#ff0000;" points="326,100 329,85 "/></g><g id="node6" class="node"><title>CEACAM1</title><a xlink:href="CEACAM1.html"><ellipse cx="232" cy="30" rx="51" ry="18" style="fill:turquoise;stroke:turquoise;"/><text text-anchor="middle" x="232" y="36" style="font-family:Times New Roman;"><![CDATA[CEACAM1]]></text></a></g><g id="edge6" class="edge"><title>CEACAM1-&gt;PTPN6</title><path style="fill:none;stroke:#0000ff;" d="M266,48C289,60 322,78 345,89"/><polygon style="fill:#0000ff;stroke:#0000ff;" points="263,44 261,48 265,50 267,46 263,44"/><polygon style="fill:#0000ff;stroke:#0000ff;" points="349,93 351,89 346,87 344,91 349,93"/></g><g id="node8" class="node"><title>GRB2</title><a xlink:href="GRB2.html"><ellipse cx="335" cy="30" rx="33" ry="18" style="fill:turquoise;stroke:turquoise;"/><text text-anchor="middle" x="335" y="36" style="font-family:Times New Roman;"><![CDATA[GRB2]]></text></a></g><g id="edge8" class="edge"><title>GRB2-&gt;PTPN6</title><path style="fill:none;stroke:#0000ff;" d="M348,52C353,62 359,73 364,83"/><polygon style="fill:#0000ff;stroke:#0000ff;" points="348,47 344,49 346,53 350,51 348,47"/><polygon style="fill:#0000ff;stroke:#0000ff;" points="364,88 368,86 366,82 362,84 364,88"/></g><g id="node10" class="node"><title>INSR</title><a xlink:href="INSR.html"><ellipse cx="418" cy="30" rx="30" ry="18" style="fill:turquoise;stroke:turquoise;"/><text text-anchor="middle" x="418" y="36" style="font-family:Times New Roman;"><![CDATA[INSR]]></text></a></g><g id="edge10" class="edge"><title>INSR-&gt;PTPN6</title><path style="fill:none;stroke:darkgreen;" d="M408,48C403,56 397,67 392,78"/><polygon style="fill:darkgreen;stroke:darkgreen;" points="394,79 387,86 390,76 394,79"/></g><g id="edge12" class="edge"><title>LYN-&gt;PTPN6</title><path style="fill:none;stroke:darkgreen;" d="M336,118C304,129 254,144 213,160 206,163 199,166 192,169"/><polygon style="fill:darkgreen;stroke:darkgreen;" points="335,116 346,115 336,121 335,116"/></g><g id="node14" class="node"><title>PIP3</title><a xlink:href="PIP3.html"><ellipse cx="495" cy="30" rx="27" ry="18" style="fill:turquoise;stroke:turquoise;"/><text text-anchor="middle" x="495" y="36" style="font-family:Times New Roman;"><![CDATA[PIP3]]></text></a></g><g id="edge14" class="edge"><title>PIP3-&gt;PTPN6</title><path style="fill:none;stroke:darkgreen;" d="M475,43C456,54 429,72 408,85"/><polygon style="fill:darkgreen;stroke:darkgreen;" points="410,87 400,90 407,83 410,87"/></g><g id="node16" class="node"><title>PIP5K1C</title><a xlink:href="PIP5K1C.html"><ellipse cx="584" cy="30" rx="42" ry="18" style="fill:turquoise;stroke:turquoise;"/><text text-anchor="middle" x="584" y="36" style="font-family:Times New Roman;"><![CDATA[PIP5K1C]]></text></a></g><g id="edge16" class="edge"><title>PIP5K1C-&gt;PTPN6</title><path style="fill:none;stroke:#0000ff;" d="M548,44C543,46 537,47 532,49 490,64 443,81 412,92"/><polygon style="fill:#0000ff;stroke:#0000ff;" points="553,45 551,41 546,42 548,46 553,45"/><polygon style="fill:#0000ff;stroke:#0000ff;" points="406,92 408,96 413,94 411,90 406,92"/></g><g id="node18" class="node"><title>PRKCA</title><a xlink:href="PRKCA.html"><ellipse cx="685" cy="30" rx="41" ry="18" style="fill:turquoise;stroke:turquoise;"/><text text-anchor="middle" x="685" y="36" style="font-family:Times New Roman;"><![CDATA[PRKCA]]></text></a></g><g id="edge18" class="edge"><title>PRKCA-&gt;PTPN6</title><path style="fill:none;stroke:darkgreen;" d="M654,43C648,45 641,47 635,49 561,70 473,88 421,96"/><polygon style="fill:darkgreen;stroke:darkgreen;" points="422,98 411,98 421,93 422,98"/></g></g></g></g>
<!-- navigation controls -->
<g id="navbox">
	<rect x="0" y="0" width="742" height="60"
		 style="fill:rgb(206,207,206);stroke:rgb(0,0,0);stroke-width:1"/>

	<polygon id="pan_right"
        onmouseup="panRight()"
        onmouseover="doHighlight(evt, 'Click to pan to the right')"
        onmouseout="resetHighlight(evt)"
		points="28.0732,13 32,20.5 28.0732,28 28.0732,23.4412 25,23.4412 25,17.4118 28.0732,17.4118"
		 transform="matrix(3.39111 0 0 2.98838 -12.6265 -29.7101)"
         fill="rgb(99,154,206)"
		 style="stroke:rgb(0,0,0);stroke-width:0.5"/>
	<polygon id="pan_left"
        onmouseup="panLeft()"
        onmouseover="doHighlight(evt, 'Click to pan to the left')"
        onmouseout="resetHighlight(evt)"
		points="123.991,25 120.064,32.5 123.991,40 123.991,35.4412 127.064,35.4412 127.064,29.4118
			123.991,29.4118" transform="matrix(3.39111 0 0 2.98838 -404.865 -65.5706)"
         fill="rgb(99,154,206)"
		 style="stroke:rgb(0,0,0);stroke-width:0.5"/>
	<polygon id="pan_down"
        onmouseup="panDown()"
        onmouseover="doHighlight(evt, 'Click to pan down')"
        onmouseout="resetHighlight(evt)"
		points="116.032,32.0408 123.532,35.9678 131.032,32.0408 126.473,32.0408 126.473,28.9678 120.444,28.9678
			120.444,32.0408" transform="matrix(3.39111 0 0 2.98838 -369.822 -50.6287)"
         fill="rgb(99,154,206)"
		 style="stroke:rgb(0,0,0);stroke-width:0.5"/>
	<polygon id="pan_up"
        onmouseup="panUp()"
  onmouseover="doHighlight(evt, 'Click to pan up')"
        onmouseout="resetHighlight(evt)"
		points="116.032,32.0408 123.532,35.9678 131.032,32.0408 126.473,32.0408 126.473,28.9678 120.444,28.9678
			120.444,32.0408" transform="matrix(3.39111 0 0 -2.98838 -369.823 111.74)"
         fill="rgb(99,154,206)"
		 style="stroke:rgb(0,0,0);stroke-width:0.5"/>
	<g id="go_home" 
         onmouseup="panRestore()" 
         onmouseover="doHighlight(evt, 'Click to restore graph to original position')"
         onmouseout="resetHighlight(evt)"
         fill="rgb(99,154,206)"
         transform="matrix(1 0 0 1 0 -0.333333)">
		<rect x="196" y="11" width="26" height="26"
			transform="translate(-19.1111 -2.66667)"
			 style="stroke:rgb(0,0,0);stroke-width:1"/>
		<line x1="182" y1="16" x2="182" y2="28"
			transform="matrix(1 0 0 1 2.22222 0.444444)"
			 style="fill:none;stroke:rgb(0,0,0);stroke-width:2"/>
		<line x1="187" y1="22" x2="187" y2="28"
			transform="matrix(1 0 0 1 2.22222 0.444444)"
			 style="fill:none;stroke:rgb(0,0,0);stroke-width:2"/>
	<line x1="192" y1="13" x2="192" y2="28"
			transform="matrix(1 0 0 1 2.22222 0.444444)"
			 style="fill:none;stroke:rgb(0,0,0);stroke-width:2"/>
		<line x1="182" y1="28" x2="192" y2="28"
			transform="matrix(1 0 0 1 2.22222 0.444444)"
	style="fill:none;stroke:rgb(0,0,0);stroke-width:2"/>
		<line x1="189" y1="12" x2="179" y2="21"
			 style="fill:none;stroke:rgb(0,0,0);stroke-width:2"/>
		<line x1="188" y1="12" x2="199" y2="20"
			 style="fill:none;stroke:rgb(0,0,0);stroke-width:2"/>
	</g>
	<g id="zoom_out" onmouseup="zoomOut()" 
             onmouseover="doHighlight(evt, 'Click to zoom out')"
             onmouseout="resetHighlight(evt)"
             fill="rgb(99,154,206)"
             transform="matrix(1 0 0 1 0 0)">
		<rect x="116" y="8" width="26" height="26"
			 style="stroke:rgb(0,0,0);stroke-width:1"/>
		<ellipse cx="126" cy="18" rx="6" ry="6"
			 style="stroke:rgb(0,0,0);stroke-width:1"/>
		<line x1="130" y1="23" x2="137" y2="29"
			transform="matrix(1 0 0 1 0.888889 -0.888889)"
			 style="fill:none;stroke:rgb(0,0,0);stroke-width:2"/>
		<line x1="123" y1="18" x2="129" y2="18"
			 style="fill:none;stroke:rgb(0,0,0);stroke-width:2"/>
	</g>
	<g id="zoom_in" onmouseup="zoomIn()" 
             onmouseover="doHighlight(evt, 'Click to zoom in')"
             onmouseout="resetHighlight(evt)"
             fill="rgb(99,154,206)"
             transform="matrix(1 0 0 1 0.888889 -0.444444)">
		<rect x="116" y="8" width="26" height="26"
			transform="matrix(1 0 0 1 29.7778 0.444444)"
			 style="stroke:rgb(0,0,0);stroke-width:1"/>
		<ellipse cx="126" cy="18" rx="6" ry="6"
			transform="matrix(1 0 0 1 29.7778 0.444444)"
			 style="stroke:rgb(0,0,0);stroke-width:1"/>
		<line x1="130" y1="23" x2="137" y2="29"
			transform="matrix(1 0 0 1 30.6667 -0.444445)"
		style="fill:none;stroke:rgb(0,0,0);stroke-width:2"/>
		<line x1="123" y1="18" x2="129" y2="18"
			transform="matrix(1 0 0 1 29.7778 0.444444)"
			 style="fill:none;stroke:rgb(0,0,0);stroke-width:2"/>
		<line x1="156" y1="15" x2="156" y2="22"
			 style="fill:none;stroke:rgb(0,0,0);stroke-width:2"/>
	</g>
	<g>
		<rect x="117" y="40" width="452" height="14"
			transform="matrix(1.54201 0 0 1 -64.1436 -0.222222)"
			 style="fill:rgb(192,192,192);stroke:rgb(0,0,0);stroke-width:1"/>
		<text id="status_text" x="183px" y="48px"
			transform="matrix(1 0 0 1 -63.5556 3.00778)"
			 style="fill:rgb(0,0,0);font-size:14;font-family:Arial"> </text>
	</g>
</g>	
</svg>