<?xml version="1.0" encoding="UTF-8" standalone="no"?><!DOCTYPE svg PUBLIC "-//W3C//DTD SVG 1.0//EN" "http://www.w3.org/TR/2001/REC-SVG-20010904/DTD/svg10.dtd" [ <!ATTLIST svg xmlns:xlink CDATA #FIXED "http://www.w3.org/1999/xlink">]><!-- Generated by WinGraphviz version ver1.02.23, 08/01/2003 (08/04/2003)     For user: Avi Ma'ayan   Title: G    Pages: 1 --><!--="735px" height="227px" xmlns="http://www.w3.org/2000/svg" --><svg onload="init(evt)" width="735px" height="600px" xmlns="http://www.w3.org/2000/svg" xmlns:xlink="http://www.w3.org/1999/xlink">
<script type="text/ecmascript">
<![CDATA[
var svgDocument;
var zoomAmt;
var xOffset;
var yOffset;
var scale;
var maxScale;
var imageWidth;
var imageHeight;
function init(evt)
{
    svgDocument = evt.getTarget().getOwnerDocument();
    zoomAmt = 0;
    xOffset = 0;
    yOffset = 60;
    scale = 0.8;
    maxScale = 10;
    imageWidth = 742;
    imageHeight = 606;
    panRestore();
    //panUp();
}
function transformMap ()
{
    var obj = svgDocument.getElementById("Pathway");
    var centerX = imageWidth  / 2.0;
    var centerY = imageHeight / 2.0;
    var adjustX = (-centerX * (scale - 0.8)) + xOffset;
    var adjustY = (-centerY * (scale - 0.8)) + yOffset;
    var transParms = 'translate(' + adjustX + ',' + adjustY + ') ';
    transParms += 'scale(' + scale + ')';
    // alert(transParms);
    obj.setAttribute("transform", transParms); 
}
function click_node(id)
{
    var testx = parent.click_node;
    if (typeof(testx) == "function")
    {
		parent.click_node(id);
    }
}
function click_relation(id)
{
    var testx = parent.click_relation;
    if (typeof(testx) == "function")
    {
        parent.click_relation(id);
    }
}
function click_pathway(toId, fromId)
{
    var testx = parent.click_pathway;
    if (typeof(testx) == "function")
    {
	parent.click_pathway(toId, fromId);
    }
}
function check_interpath(evt, pathid)
{
  var obj = evt.getTarget();
  var testx = parent.is_frompath;
  var child = obj.firstChild;
  if (typeof(testx) == "function")
  {
    if (parent.is_frompath(pathid))
    {
      while (child != null)
      {
        if (child.nodeType == 1)
        {
          if ((child.localName == "g") || (child.localName == "polyline"))
          {
            child.setAttribute("style", "fill:none;stroke:red");
          }
          else if (child.localName == "polygon")
          {
            child.setAttribute("style", "fill:red;stroke:red");
          }
        }
        child = child.nextSibling;
      }
    }
  }
}
function set_status (msg)
{
 var obj = svgDocument.getElementById("status_text");
  var child;
 
  child = obj.firstChild;
  if ((child != null) && (child.nodeType == 3))
  {
    if ((msg != null) && (msg.length > 0))
    {
      child.data = msg;
    }
    else
    {
child.data = " ";
    }
  }
}
function zoomIn ()
{
    scale = scale + 0.8;
    if (scale > maxScale)
    {
       scale = maxScale;
    }
    transformMap();
    panUp();
    panUp();
    panUp();
    panUp();
    panUp();
    panUp();
    panUp();
    panUp();
    panUp();
    panUp();
    panUp();
    panUp();
}
function zoomOut ()
{
    scale = scale - 0.8;
    if (scale < 0.8)
    {
       scale = 0.8;
    }
    transformMap();
    panDown();
    panDown();
    panDown();
    panDown();
    panDown();
    panDown();
    panDown();
    panDown();
    panDown();
    panDown();
    panDown();
    panDown();
}
function panUp ()
{
    yOffset = yOffset + 20;
    transformMap();
}
function panDown ()
{
    yOffset = yOffset - 20;
    transformMap();
}
function panLeft ()
{
    xOffset = xOffset + 20;
    transformMap();
}
function panRight ()
{
    xOffset = xOffset - 20;
    transformMap();
}
function panRestore ()
{
    xOffset = 0;
    yOffset = 0;
    scale = 0.5;
    //obj = svgDocument.getElementById("zoom");
    //obj.setAttribute("x1", 0);
    //obj.setAttribute("x2", 0);
    transformMap();    
}
function doHighlight (evt, msg)
{
  var obj = evt.getTarget();
  obj.setAttribute("fill", "rgb(239,24,33)");
  set_status(msg);
}
function resetHighlight (evt)
{
  var obj = evt.getTarget();
  obj.setAttribute("fill", "rgb(99,154,206)");
  set_status(" ");
}
// ]]>
</script>
<defs>
<clipPath id="theClip">
<polygon points="1 61, 741 61, 741 665, 1 665"
style="fill: none;"/>
</clipPath>
</defs>
<!-- viewport outline -->
<rect x="0" y="61" width="742" height="606"
style="stroke: black; stroke-width: 1; fill: none;"/>
<!-- pathway graph style="clip-path: url(#theClip);" -->
<g style="clip-path: url(#theClip);">
<g id="Pathway"  transform="translate(0,60)">
<!-- prefile.include ends, begin pathway graph -->
<g id="stkecm;CMP_10705" class="graph">
</g>
<g id="graph0" class="graph" style="font-family:Times New Roman;font-size:15.18;"><title>G</title><g id="node1" class="node"><title>CSK</title><a xlink:href="CSK.html"><ellipse cx="144" cy="32" rx="29" ry="19" style="fill:turquoise;stroke:turquoise;"/><text text-anchor="middle" x="144" y="38" style="font-family:Times New Roman;"><![CDATA[CSK]]></text></a></g><g id="node2" class="node"><title>PTPN12</title><a xlink:href="PTPN12.html"><ellipse cx="377" cy="111" rx="42" ry="19" style="fill:turquoise;stroke:turquoise;"/><text text-anchor="middle" x="377" y="116" style="font-family:Times New Roman;"><![CDATA[PTPN12]]></text></a></g><g id="edge2" class="edge"><title>CSK-&gt;PTPN12</title><path style="fill:none;stroke:#0000ff;" d="M171,48C175,49 179,51 183,52 234,73 295,90 334,100"/><polygon style="fill:#0000ff;stroke:#0000ff;" points="168,43 166,48 170,50 172,46 168,43"/><polygon style="fill:#0000ff;stroke:#0000ff;" points="339,103 339,99 334,98 334,102 339,103"/></g><g id="node14" class="node"><title>ABL1</title><a xlink:href="ABL1.html"><ellipse cx="39" cy="189" rx="32" ry="19" style="fill:turquoise;stroke:turquoise;"/><text text-anchor="middle" x="39" y="194" style="font-family:Times New Roman;"><![CDATA[ABL1]]></text></a></g><g id="edge14" class="edge"><title>PTPN12-&gt;ABL1</title><path style="fill:none;stroke:#ff0000;" d="M336,116C278,124 170,141 81,169 80,169 79,170 78,170"/><polyline style="fill:none;stroke:#ff0000;" points="76,163 82,178 "/></g><g id="node16" class="node"><title>BCAR1</title><a xlink:href="BCAR1.html"><ellipse cx="131" cy="189" rx="40" ry="19" style="fill:turquoise;stroke:turquoise;"/><text text-anchor="middle" x="131" y="194" style="font-family:Times New Roman;"><![CDATA[BCAR1]]></text></a></g><g id="edge16" class="edge"><title>PTPN12-&gt;BCAR1</title><path style="fill:none;stroke:#ff0000;" d="M340,120C301,132 236,151 181,169 180,170 177,170 176,171"/><polyline style="fill:none;stroke:#ff0000;" points="174,164 181,179 "/></g><g id="node18" class="node"><title>NEDD9</title><a xlink:href="NEDD9.html"><ellipse cx="233" cy="189" rx="42" ry="19" style="fill:turquoise;stroke:turquoise;"/><text text-anchor="middle" x="233" y="194" style="font-family:Times New Roman;"><![CDATA[NEDD9]]></text></a></g><g id="edge18" class="edge"><title>PTPN12-&gt;NEDD9</title><path style="fill:none;stroke:#ff0000;" d="M350,126C328,138 298,154 274,167"/><polyline style="fill:none;stroke:#ff0000;" points="272,159 279,173 "/></g><g id="node20" class="node"><title>GRLF1</title><a xlink:href="GRLF1.html"><ellipse cx="333" cy="189" rx="37" ry="19" style="fill:turquoise;stroke:turquoise;"/><text text-anchor="middle" x="333" y="194" style="font-family:Times New Roman;"><![CDATA[GRLF1]]></text></a></g><g id="edge20" class="edge"><title>PTPN12-&gt;GRLF1</title><path style="fill:none;stroke:#ff0000;" d="M366,129C362,138 356,147 351,156"/><polyline style="fill:none;stroke:#ff0000;" points="344,152 359,159 "/></g><g id="node22" class="node"><title>PXN</title><a xlink:href="PXN.html"><ellipse cx="421" cy="189" rx="31" ry="19" style="fill:turquoise;stroke:turquoise;"/><text text-anchor="middle" x="421" y="194" style="font-family:Times New Roman;"><![CDATA[PXN]]></text></a></g><g id="edge22" class="edge"><title>PTPN12-&gt;PXN</title><path style="fill:none;stroke:#ff0000;" d="M388,129C392,138 398,147 403,156"/><polyline style="fill:none;stroke:#ff0000;" points="395,159 410,152 "/></g><g id="node24" class="node"><title>PTK2B</title><a xlink:href="PTK2B.html"><ellipse cx="513" cy="189" rx="40" ry="19" style="fill:turquoise;stroke:turquoise;"/><text text-anchor="middle" x="513" y="194" style="font-family:Times New Roman;"><![CDATA[PTK2B]]></text></a></g><g id="edge24" class="edge"><title>PTPN12-&gt;PTK2B</title><path style="fill:none;stroke:#ff0000;" d="M403,126C424,138 451,154 474,166"/><polyline style="fill:none;stroke:#ff0000;" points="468,172 477,158 "/></g><g id="node26" class="node"><title>SHC1</title><a xlink:href="SHC1.html"><ellipse cx="604" cy="189" rx="31" ry="19" style="fill:turquoise;stroke:turquoise;"/><text text-anchor="middle" x="604" y="194" style="font-family:Times New Roman;"><![CDATA[SHC1]]></text></a></g><g id="edge26" class="edge"><title>PTPN12-&gt;SHC1</title><path style="fill:none;stroke:#0000ff;" d="M419,121C456,132 514,151 562,169 567,171 571,172 574,175"/><polygon style="fill:#0000ff;stroke:#0000ff;" points="414,118 414,122 419,124 419,119 414,118"/><polygon style="fill:#0000ff;stroke:#0000ff;" points="578,179 580,175 575,172 573,177 578,179"/></g><g id="node28" class="node"><title>VAV1</title><a xlink:href="VAV1.html"><ellipse cx="690" cy="189" rx="35" ry="19" style="fill:turquoise;stroke:turquoise;"/><text text-anchor="middle" x="690" y="194" style="font-family:Times New Roman;"><![CDATA[VAV1]]></text></a></g><g id="edge28" class="edge"><title>PTPN12-&gt;VAV1</title><path style="fill:none;stroke:#ff0000;" d="M417,117C470,126 566,144 645,169 646,169 647,170 649,170"/><polyline style="fill:none;stroke:#ff0000;" points="644,177 651,163 "/></g><g id="node4" class="node"><title>GRB2</title><a xlink:href="GRB2.html"><ellipse cx="228" cy="32" rx="35" ry="19" style="fill:turquoise;stroke:turquoise;"/><text text-anchor="middle" x="228" y="38" style="font-family:Times New Roman;"><![CDATA[GRB2]]></text></a></g><g id="edge4" class="edge"><title>GRB2-&gt;PTPN12</title><path style="fill:none;stroke:#0000ff;" d="M259,49C283,61 317,80 343,93"/><polygon style="fill:#0000ff;stroke:#0000ff;" points="256,44 253,49 258,51 260,47 256,44"/><polygon style="fill:#0000ff;stroke:#0000ff;" points="348,98 350,93 344,91 342,95 348,98"/></g><g id="node6" class="node"><title>TGFB1I1</title><a xlink:href="TGFB1I1.html"><ellipse cx="327" cy="32" rx="43" ry="19" style="fill:turquoise;stroke:turquoise;"/><text text-anchor="middle" x="327" y="38" style="font-family:Times New Roman;"><![CDATA[TGFB1I1]]></text></a></g><g id="edge6" class="edge"><title>TGFB1I1-&gt;PTPN12</title><path style="fill:none;stroke:#0000ff;" d="M341,55C348,66 356,77 363,88"/><polygon style="fill:#0000ff;stroke:#0000ff;" points="341,50 337,52 339,56 343,54 341,50"/><polygon style="fill:#0000ff;stroke:#0000ff;" points="363,93 367,91 365,87 361,89 363,93"/></g><g id="node8" class="node"><title>LPXN</title><a xlink:href="LPXN.html"><ellipse cx="427" cy="32" rx="36" ry="19" style="fill:turquoise;stroke:turquoise;"/><text text-anchor="middle" x="427" y="38" style="font-family:Times New Roman;"><![CDATA[LPXN]]></text></a></g><g id="edge8" class="edge"><title>LPXN-&gt;PTPN12</title><path style="fill:none;stroke:#0000ff;" d="M413,55C406,65 398,77 391,87"/><polygon style="fill:#0000ff;stroke:#0000ff;" points="417,52 413,50 411,54 415,56 417,52"/><polygon style="fill:#0000ff;stroke:#0000ff;" points="387,90 391,92 393,88 389,86 387,90"/></g><g id="node10" class="node"><title>PRKACA</title><a xlink:href="PRKACA.html"><ellipse cx="534" cy="32" rx="50" ry="19" style="fill:turquoise;stroke:turquoise;"/><text text-anchor="middle" x="534" y="38" style="font-family:Times New Roman;"><![CDATA[PRKACA]]></text></a></g><g id="edge10" class="edge"><title>PRKACA-&gt;PTPN12</title><path style="fill:none;stroke:darkgreen;" d="M503,48C478,61 441,78 415,92"/><polygon style="fill:darkgreen;stroke:darkgreen;" points="417,94 406,96 415,89 417,94"/></g><g id="node12" class="node"><title>PRKCA</title><a xlink:href="PRKCA.html"><ellipse cx="648" cy="32" rx="43" ry="19" style="fill:turquoise;stroke:turquoise;"/><text text-anchor="middle" x="648" y="38" style="font-family:Times New Roman;"><![CDATA[PRKCA]]></text></a></g><g id="edge12" class="edge"><title>PRKCA-&gt;PTPN12</title><path style="fill:none;stroke:darkgreen;" d="M616,46C608,48 601,50 595,52 536,70 469,88 425,100"/><polygon style="fill:darkgreen;stroke:darkgreen;" points="426,102 415,102 425,96 426,102"/></g></g></g></g>
<!-- navigation controls -->
<g id="navbox">
	<rect x="0" y="0" width="742" height="60"
		 style="fill:rgb(206,207,206);stroke:rgb(0,0,0);stroke-width:1"/>

	<polygon id="pan_right"
        onmouseup="panRight()"
        onmouseover="doHighlight(evt, 'Click to pan to the right')"
        onmouseout="resetHighlight(evt)"
		points="28.0732,13 32,20.5 28.0732,28 28.0732,23.4412 25,23.4412 25,17.4118 28.0732,17.4118"
		 transform="matrix(3.39111 0 0 2.98838 -12.6265 -29.7101)"
         fill="rgb(99,154,206)"
		 style="stroke:rgb(0,0,0);stroke-width:0.5"/>
	<polygon id="pan_left"
        onmouseup="panLeft()"
        onmouseover="doHighlight(evt, 'Click to pan to the left')"
        onmouseout="resetHighlight(evt)"
		points="123.991,25 120.064,32.5 123.991,40 123.991,35.4412 127.064,35.4412 127.064,29.4118
			123.991,29.4118" transform="matrix(3.39111 0 0 2.98838 -404.865 -65.5706)"
         fill="rgb(99,154,206)"
		 style="stroke:rgb(0,0,0);stroke-width:0.5"/>
	<polygon id="pan_down"
        onmouseup="panDown()"
        onmouseover="doHighlight(evt, 'Click to pan down')"
        onmouseout="resetHighlight(evt)"
		points="116.032,32.0408 123.532,35.9678 131.032,32.0408 126.473,32.0408 126.473,28.9678 120.444,28.9678
			120.444,32.0408" transform="matrix(3.39111 0 0 2.98838 -369.822 -50.6287)"
         fill="rgb(99,154,206)"
		 style="stroke:rgb(0,0,0);stroke-width:0.5"/>
	<polygon id="pan_up"
        onmouseup="panUp()"
  onmouseover="doHighlight(evt, 'Click to pan up')"
        onmouseout="resetHighlight(evt)"
		points="116.032,32.0408 123.532,35.9678 131.032,32.0408 126.473,32.0408 126.473,28.9678 120.444,28.9678
			120.444,32.0408" transform="matrix(3.39111 0 0 -2.98838 -369.823 111.74)"
         fill="rgb(99,154,206)"
		 style="stroke:rgb(0,0,0);stroke-width:0.5"/>
	<g id="go_home" 
         onmouseup="panRestore()" 
         onmouseover="doHighlight(evt, 'Click to restore graph to original position')"
         onmouseout="resetHighlight(evt)"
         fill="rgb(99,154,206)"
         transform="matrix(1 0 0 1 0 -0.333333)">
		<rect x="196" y="11" width="26" height="26"
			transform="translate(-19.1111 -2.66667)"
			 style="stroke:rgb(0,0,0);stroke-width:1"/>
		<line x1="182" y1="16" x2="182" y2="28"
			transform="matrix(1 0 0 1 2.22222 0.444444)"
			 style="fill:none;stroke:rgb(0,0,0);stroke-width:2"/>
		<line x1="187" y1="22" x2="187" y2="28"
			transform="matrix(1 0 0 1 2.22222 0.444444)"
			 style="fill:none;stroke:rgb(0,0,0);stroke-width:2"/>
	<line x1="192" y1="13" x2="192" y2="28"
			transform="matrix(1 0 0 1 2.22222 0.444444)"
			 style="fill:none;stroke:rgb(0,0,0);stroke-width:2"/>
		<line x1="182" y1="28" x2="192" y2="28"
			transform="matrix(1 0 0 1 2.22222 0.444444)"
	style="fill:none;stroke:rgb(0,0,0);stroke-width:2"/>
		<line x1="189" y1="12" x2="179" y2="21"
			 style="fill:none;stroke:rgb(0,0,0);stroke-width:2"/>
		<line x1="188" y1="12" x2="199" y2="20"
			 style="fill:none;stroke:rgb(0,0,0);stroke-width:2"/>
	</g>
	<g id="zoom_out" onmouseup="zoomOut()" 
             onmouseover="doHighlight(evt, 'Click to zoom out')"
             onmouseout="resetHighlight(evt)"
             fill="rgb(99,154,206)"
             transform="matrix(1 0 0 1 0 0)">
		<rect x="116" y="8" width="26" height="26"
			 style="stroke:rgb(0,0,0);stroke-width:1"/>
		<ellipse cx="126" cy="18" rx="6" ry="6"
			 style="stroke:rgb(0,0,0);stroke-width:1"/>
		<line x1="130" y1="23" x2="137" y2="29"
			transform="matrix(1 0 0 1 0.888889 -0.888889)"
			 style="fill:none;stroke:rgb(0,0,0);stroke-width:2"/>
		<line x1="123" y1="18" x2="129" y2="18"
			 style="fill:none;stroke:rgb(0,0,0);stroke-width:2"/>
	</g>
	<g id="zoom_in" onmouseup="zoomIn()" 
             onmouseover="doHighlight(evt, 'Click to zoom in')"
             onmouseout="resetHighlight(evt)"
             fill="rgb(99,154,206)"
             transform="matrix(1 0 0 1 0.888889 -0.444444)">
		<rect x="116" y="8" width="26" height="26"
			transform="matrix(1 0 0 1 29.7778 0.444444)"
			 style="stroke:rgb(0,0,0);stroke-width:1"/>
		<ellipse cx="126" cy="18" rx="6" ry="6"
			transform="matrix(1 0 0 1 29.7778 0.444444)"
			 style="stroke:rgb(0,0,0);stroke-width:1"/>
		<line x1="130" y1="23" x2="137" y2="29"
			transform="matrix(1 0 0 1 30.6667 -0.444445)"
		style="fill:none;stroke:rgb(0,0,0);stroke-width:2"/>
		<line x1="123" y1="18" x2="129" y2="18"
			transform="matrix(1 0 0 1 29.7778 0.444444)"
			 style="fill:none;stroke:rgb(0,0,0);stroke-width:2"/>
		<line x1="156" y1="15" x2="156" y2="22"
			 style="fill:none;stroke:rgb(0,0,0);stroke-width:2"/>
	</g>
	<g>
		<rect x="117" y="40" width="452" height="14"
			transform="matrix(1.54201 0 0 1 -64.1436 -0.222222)"
			 style="fill:rgb(192,192,192);stroke:rgb(0,0,0);stroke-width:1"/>
		<text id="status_text" x="183px" y="48px"
			transform="matrix(1 0 0 1 -63.5556 3.00778)"
			 style="fill:rgb(0,0,0);font-size:14;font-family:Arial"> </text>
	</g>
</g>	
</svg>