<?xml version="1.0" encoding="UTF-8" standalone="no"?><!DOCTYPE svg PUBLIC "-//W3C//DTD SVG 1.0//EN" "http://www.w3.org/TR/2001/REC-SVG-20010904/DTD/svg10.dtd" [ <!ATTLIST svg xmlns:xlink CDATA #FIXED "http://www.w3.org/1999/xlink">]><!-- Generated by WinGraphviz version ver1.02.23, 08/01/2003 (08/04/2003)     For user: Avi Ma'ayan   Title: G    Pages: 1 --><svg width="204px" height="276px" xmlns="http://www.w3.org/2000/svg" xmlns:xlink="http://www.w3.org/1999/xlink"><g id="graph0" class="graph" style="font-family:Times New Roman;font-size:18.67;"><title>G</title><g id="node1" class="node"><title>ITGA5</title><a xlink:href="ITGA5.html"><ellipse cx="96" cy="39" rx="46" ry="24" style="fill:turquoise;stroke:turquoise;"/><text text-anchor="middle" x="96" y="46" style="font-family:Times New Roman;"><![CDATA[ITGA5]]></text></a></g><g id="node2" class="node"><title>PTPN2</title><a xlink:href="PTPN2.html"><ellipse cx="96" cy="135" rx="48" ry="24" style="fill:turquoise;stroke:turquoise;"/><text text-anchor="middle" x="96" y="142" style="font-family:Times New Roman;"><![CDATA[PTPN2]]></text></a></g><g id="edge2" class="edge"><title>ITGA5-&gt;PTPN2</title><path style="fill:none;stroke:#0000ff;" d="M96,70C96,81 96,94 96,105"/><polygon style="fill:#0000ff;stroke:#0000ff;" points="100,63 93,63 93,70 100,70 100,63"/><polygon style="fill:#0000ff;stroke:#0000ff;" points="93,111 100,111 100,105 93,105 93,111"/></g><g id="node4" class="node"><title>SRC</title><a xlink:href="SRC.html"><ellipse cx="42" cy="231" rx="36" ry="24" style="fill:turquoise;stroke:turquoise;"/><text text-anchor="middle" x="42" y="238" style="font-family:Times New Roman;"><![CDATA[SRC]]></text></a></g><g id="edge4" class="edge"><title>PTPN2-&gt;SRC</title><path style="fill:none;stroke:#ff0000;" d="M82,158C77,169 70,181 63,191"/><polyline style="fill:none;stroke:#ff0000;" points="55,186 73,195 "/></g><g id="node6" class="node"><title>STAT3</title><a xlink:href="STAT3.html"><ellipse cx="149" cy="231" rx="46" ry="24" style="fill:#eea9b9;stroke:#eea9b9;"/><text text-anchor="middle" x="149" y="238" style="font-family:Times New Roman;"><![CDATA[STAT3]]></text></a></g><g id="edge6" class="edge"><title>PTPN2-&gt;STAT3</title><path style="fill:none;stroke:#ff0000;" d="M109,158C114,169 121,179 126,191"/><polyline style="fill:none;stroke:#ff0000;" points="117,195 134,186 "/></g></g></svg>