<?xml version="1.0" encoding="UTF-8" standalone="no"?><!DOCTYPE svg PUBLIC "-//W3C//DTD SVG 1.0//EN" "http://www.w3.org/TR/2001/REC-SVG-20010904/DTD/svg10.dtd" [ <!ATTLIST svg xmlns:xlink CDATA #FIXED "http://www.w3.org/1999/xlink">]><!-- Generated by WinGraphviz version ver1.02.23, 08/01/2003 (08/04/2003)     For user: Avi Ma'ayan   Title: G    Pages: 1 --><svg width="540px" height="276px" xmlns="http://www.w3.org/2000/svg" xmlns:xlink="http://www.w3.org/1999/xlink"><g id="graph0" class="graph" style="font-family:Times New Roman;font-size:18.67;"><title>G</title><g id="node1" class="node"><title>FYN</title><a xlink:href="FYN.html"><ellipse cx="269" cy="39" rx="38" ry="24" style="fill:turquoise;stroke:turquoise;"/><text text-anchor="middle" x="269" y="46" style="font-family:Times New Roman;"><![CDATA[FYN]]></text></a></g><g id="node2" class="node"><title>PTPRF</title><a xlink:href="PTPRF.html"><ellipse cx="269" cy="135" rx="48" ry="24" style="fill:turquoise;stroke:turquoise;"/><text text-anchor="middle" x="269" y="142" style="font-family:Times New Roman;"><![CDATA[PTPRF]]></text></a></g><g id="edge2" class="edge"><title>FYN-&gt;PTPRF</title><path style="fill:none;stroke:darkgreen;" d="M261,63C260,74 260,86 260,98"/><polygon style="fill:darkgreen;stroke:darkgreen;" points="262,98 261,111 257,98 262,98"/></g><g id="edge6" class="edge"><title>PTPRF-&gt;FYN</title><path style="fill:none;stroke:#ff0000;" d="M278,83C278,93 278,103 277,111"/><polyline style="fill:none;stroke:#ff0000;" points="288,82 269,83 "/></g><g id="node4" class="node"><title>BCAR1</title><a xlink:href="BCAR1.html"><ellipse cx="55" cy="231" rx="49" ry="24" style="fill:turquoise;stroke:turquoise;"/><text text-anchor="middle" x="55" y="238" style="font-family:Times New Roman;"><![CDATA[BCAR1]]></text></a></g><g id="edge4" class="edge"><title>PTPRF-&gt;BCAR1</title><path style="fill:none;stroke:#ff0000;" d="M233,151C199,167 147,191 108,209"/><polyline style="fill:none;stroke:#ff0000;" points="106,198 114,217 "/></g><g id="node7" class="node"><title>INSR</title><a xlink:href="INSR.html"><ellipse cx="169" cy="231" rx="40" ry="24" style="fill:turquoise;stroke:turquoise;"/><text text-anchor="middle" x="169" y="238" style="font-family:Times New Roman;"><![CDATA[INSR]]></text></a></g><g id="edge8" class="edge"><title>PTPRF-&gt;INSR</title><path style="fill:none;stroke:#ff0000;" d="M246,157C233,169 217,185 203,198"/><polyline style="fill:none;stroke:#ff0000;" points="197,190 211,205 "/></g><g id="node9" class="node"><title>IRS1</title><a xlink:href="IRS1.html"><ellipse cx="269" cy="231" rx="36" ry="24" style="fill:turquoise;stroke:turquoise;"/><text text-anchor="middle" x="269" y="238" style="font-family:Times New Roman;"><![CDATA[IRS1]]></text></a></g><g id="edge10" class="edge"><title>PTPRF-&gt;IRS1</title><path style="fill:none;stroke:#ff0000;" d="M269,159C269,167 269,178 269,187"/><polyline style="fill:none;stroke:#ff0000;" points="260,187 280,187 "/></g><g id="node11" class="node"><title>PPFIA1</title><a xlink:href="PPFIA1.html"><ellipse cx="377" cy="231" rx="48" ry="24" style="fill:turquoise;stroke:turquoise;"/><text text-anchor="middle" x="377" y="238" style="font-family:Times New Roman;"><![CDATA[PPFIA1]]></text></a></g><g id="edge12" class="edge"><title>PTPRF-&gt;PPFIA1</title><path style="fill:none;stroke:#0000ff;" d="M298,161C314,175 333,191 348,206"/><polygon style="fill:#0000ff;stroke:#0000ff;" points="296,154 292,159 297,163 301,158 296,154"/><polygon style="fill:#0000ff;stroke:#0000ff;" points="352,213 356,207 350,203 346,209 352,213"/></g><g id="node13" class="node"><title>TRIO</title><a xlink:href="TRIO.html"><ellipse cx="490" cy="231" rx="41" ry="24" style="fill:turquoise;stroke:turquoise;"/><text text-anchor="middle" x="490" y="238" style="font-family:Times New Roman;"><![CDATA[TRIO]]></text></a></g><g id="edge14" class="edge"><title>PTPRF-&gt;TRIO</title><path style="fill:none;stroke:#0000ff;" d="M313,154C346,169 394,189 437,207 442,210 448,213 452,214"/><polygon style="fill:#0000ff;stroke:#0000ff;" points="308,149 305,154 312,157 314,151 308,149"/><polygon style="fill:#0000ff;stroke:#0000ff;" points="456,219 458,214 453,211 450,217 456,219"/></g></g></svg>