<?xml version="1.0" encoding="UTF-8" standalone="no"?><!DOCTYPE svg PUBLIC "-//W3C//DTD SVG 1.0//EN" "http://www.w3.org/TR/2001/REC-SVG-20010904/DTD/svg10.dtd" [ <!ATTLIST svg xmlns:xlink CDATA #FIXED "http://www.w3.org/1999/xlink">]><!-- Generated by WinGraphviz version ver1.02.23, 08/01/2003 (08/04/2003)     For user: Avi Ma'ayan   Title: G    Pages: 1 --><svg width="482px" height="276px" xmlns="http://www.w3.org/2000/svg" xmlns:xlink="http://www.w3.org/1999/xlink"><g id="graph0" class="graph" style="font-family:Times New Roman;font-size:18.67;"><title>G</title><g id="node1" class="node"><title>GRB2</title><a xlink:href="GRB2.html"><ellipse cx="50" cy="39" rx="44" ry="24" style="fill:turquoise;stroke:turquoise;"/><text text-anchor="middle" x="50" y="46" style="font-family:Times New Roman;"><![CDATA[GRB2]]></text></a></g><g id="node2" class="node"><title>PTPRA</title><a xlink:href="PTPRA.html"><ellipse cx="226" cy="135" rx="50" ry="24" style="fill:turquoise;stroke:turquoise;"/><text text-anchor="middle" x="226" y="142" style="font-family:Times New Roman;"><![CDATA[PTPRA]]></text></a></g><g id="edge2" class="edge"><title>GRB2-&gt;PTPRA</title><path style="fill:none;stroke:#0000ff;" d="M88,59C116,75 157,98 186,114"/><polygon style="fill:#0000ff;stroke:#0000ff;" points="84,54 81,59 86,62 89,57 84,54"/><polygon style="fill:#0000ff;stroke:#0000ff;" points="191,119 194,114 187,111 185,117 191,119"/></g><g id="node10" class="node"><title>BCAR1</title><a xlink:href="BCAR1.html"><ellipse cx="65" cy="231" rx="49" ry="24" style="fill:turquoise;stroke:turquoise;"/><text text-anchor="middle" x="65" y="238" style="font-family:Times New Roman;"><![CDATA[BCAR1]]></text></a></g><g id="edge10" class="edge"><title>PTPRA-&gt;BCAR1</title><path style="fill:none;stroke:#ff0000;" d="M194,154C171,169 138,187 112,203"/><polyline style="fill:none;stroke:#ff0000;" points="108,194 118,211 "/></g><g id="node12" class="node"><title>FYN</title><a xlink:href="FYN.html"><ellipse cx="177" cy="231" rx="38" ry="24" style="fill:turquoise;stroke:turquoise;"/><text text-anchor="middle" x="177" y="238" style="font-family:Times New Roman;"><![CDATA[FYN]]></text></a></g><g id="edge12" class="edge"><title>PTPRA-&gt;FYN</title><path style="fill:none;stroke:#ff0000;" d="M214,159C209,169 203,179 198,190"/><polyline style="fill:none;stroke:#ff0000;" points="190,185 207,194 "/></g><g id="node14" class="node"><title>SRC</title><a xlink:href="SRC.html"><ellipse cx="276" cy="231" rx="36" ry="24" style="fill:turquoise;stroke:turquoise;"/><text text-anchor="middle" x="276" y="238" style="font-family:Times New Roman;"><![CDATA[SRC]]></text></a></g><g id="edge14" class="edge"><title>PTPRA-&gt;SRC</title><path style="fill:none;stroke:#ff0000;" d="M230,159C234,170 241,182 246,193"/><polyline style="fill:none;stroke:#ff0000;" points="238,198 255,187 "/></g><g id="node4" class="node"><title>ITGA5</title><a xlink:href="ITGA5.html"><ellipse cx="165" cy="39" rx="46" ry="24" style="fill:turquoise;stroke:turquoise;"/><text text-anchor="middle" x="165" y="46" style="font-family:Times New Roman;"><![CDATA[ITGA5]]></text></a></g><g id="edge4" class="edge"><title>ITGA5-&gt;PTPRA</title><path style="fill:none;stroke:#0000ff;" d="M182,67C190,81 201,94 209,107"/><polygon style="fill:#0000ff;stroke:#0000ff;" points="182,61 177,63 179,69 185,66 182,61"/><polygon style="fill:#0000ff;stroke:#0000ff;" points="209,114 214,111 211,106 206,109 209,114"/></g><g id="node6" class="node"><title>PIK3CA</title><a xlink:href="PIK3CA.html"><ellipse cx="289" cy="39" rx="53" ry="24" style="fill:turquoise;stroke:turquoise;"/><text text-anchor="middle" x="289" y="46" style="font-family:Times New Roman;"><![CDATA[PIK3CA]]></text></a></g><g id="edge6" class="edge"><title>PIK3CA-&gt;PTPRA</title><path style="fill:none;stroke:#0000ff;" d="M272,67C264,81 253,94 245,107"/><polygon style="fill:#0000ff;stroke:#0000ff;" points="277,63 272,61 269,66 274,69 277,63"/><polygon style="fill:#0000ff;stroke:#0000ff;" points="238,110 243,114 247,109 242,105 238,110"/></g><g id="node8" class="node"><title>PRKCA</title><a xlink:href="PRKCA.html"><ellipse cx="420" cy="39" rx="53" ry="24" style="fill:turquoise;stroke:turquoise;"/><text text-anchor="middle" x="420" y="46" style="font-family:Times New Roman;"><![CDATA[PRKCA]]></text></a></g><g id="edge8" class="edge"><title>PRKCA-&gt;PTPRA</title><path style="fill:none;stroke:darkgreen;" d="M384,57C353,73 306,95 272,113"/><polygon style="fill:darkgreen;stroke:darkgreen;" points="274,115 261,118 272,109 274,115"/></g><g id="edge16" class="edge"><title>SRC-&gt;PTPRA</title><path style="fill:none;stroke:darkgreen;" d="M251,169C258,181 266,195 272,207"/><polygon style="fill:darkgreen;stroke:darkgreen;" points="249,171 245,158 254,167 249,171"/></g></g></svg>