<?xml version="1.0" encoding="UTF-8" standalone="no"?><!DOCTYPE svg PUBLIC "-//W3C//DTD SVG 1.0//EN" "http://www.w3.org/TR/2001/REC-SVG-20010904/DTD/svg10.dtd" [ <!ATTLIST svg xmlns:xlink CDATA #FIXED "http://www.w3.org/1999/xlink">]><!-- Generated by WinGraphviz version ver1.02.23, 08/01/2003 (08/04/2003)     For user: Avi Ma'ayan   Title: G    Pages: 1 --><svg width="316px" height="180px" xmlns="http://www.w3.org/2000/svg" xmlns:xlink="http://www.w3.org/1999/xlink"><g id="graph0" class="graph" style="font-family:Times New Roman;font-size:18.67;"><title>G</title><g id="node1" class="node"><title>PTPRH</title><a xlink:href="PTPRH.html"><ellipse cx="170" cy="39" rx="50" ry="24" style="fill:turquoise;stroke:turquoise;"/><text text-anchor="middle" x="170" y="46" style="font-family:Times New Roman;"><![CDATA[PTPRH]]></text></a></g><g id="node2" class="node"><title>BCAR1</title><a xlink:href="BCAR1.html"><ellipse cx="55" cy="135" rx="49" ry="24" style="fill:turquoise;stroke:turquoise;"/><text text-anchor="middle" x="55" y="142" style="font-family:Times New Roman;"><![CDATA[BCAR1]]></text></a></g><g id="edge2" class="edge"><title>PTPRH-&gt;BCAR1</title><path style="fill:none;stroke:#ff0000;" d="M145,61C130,73 112,89 96,102"/><polyline style="fill:none;stroke:#ff0000;" points="90,94 102,109 "/></g><g id="node4" class="node"><title>PTK2</title><a xlink:href="PTK2.html"><ellipse cx="170" cy="135" rx="41" ry="24" style="fill:turquoise;stroke:turquoise;"/><text text-anchor="middle" x="170" y="142" style="font-family:Times New Roman;"><![CDATA[PTK2]]></text></a></g><g id="edge4" class="edge"><title>PTPRH-&gt;PTK2</title><path style="fill:none;stroke:#ff0000;" d="M170,63C170,71 170,82 170,91"/><polyline style="fill:none;stroke:#ff0000;" points="161,91 181,91 "/></g><g id="node6" class="node"><title>SRC</title><a xlink:href="SRC.html"><ellipse cx="272" cy="135" rx="36" ry="24" style="fill:turquoise;stroke:turquoise;"/><text text-anchor="middle" x="272" y="142" style="font-family:Times New Roman;"><![CDATA[SRC]]></text></a></g><g id="edge6" class="edge"><title>PTPRH-&gt;SRC</title><path style="fill:none;stroke:#ff0000;" d="M193,61C206,74 222,89 237,102"/><polyline style="fill:none;stroke:#ff0000;" points="229,109 243,94 "/></g></g></svg>