<?xml version="1.0" encoding="UTF-8" standalone="no"?><!DOCTYPE svg PUBLIC "-//W3C//DTD SVG 1.0//EN" "http://www.w3.org/TR/2001/REC-SVG-20010904/DTD/svg10.dtd" [ <!ATTLIST svg xmlns:xlink CDATA #FIXED "http://www.w3.org/1999/xlink">]><!-- Generated by WinGraphviz version ver1.02.23, 08/01/2003 (08/04/2003)     For user: Avi Ma'ayan   Title: G    Pages: 1 --><!--="735px" height="67px" xmlns="http://www.w3.org/2000/svg" --><svg onload="init(evt)" width="735px" height="600px" xmlns="http://www.w3.org/2000/svg" xmlns:xlink="http://www.w3.org/1999/xlink">
<script type="text/ecmascript">
<![CDATA[
var svgDocument;
var zoomAmt;
var xOffset;
var yOffset;
var scale;
var maxScale;
var imageWidth;
var imageHeight;
function init(evt)
{
    svgDocument = evt.getTarget().getOwnerDocument();
    zoomAmt = 0;
    xOffset = 0;
    yOffset = 60;
    scale = 0.8;
    maxScale = 10;
    imageWidth = 742;
    imageHeight = 606;
    panRestore();
    //panUp();
}
function transformMap ()
{
    var obj = svgDocument.getElementById("Pathway");
    var centerX = imageWidth  / 2.0;
    var centerY = imageHeight / 2.0;
    var adjustX = (-centerX * (scale - 0.8)) + xOffset;
    var adjustY = (-centerY * (scale - 0.8)) + yOffset;
    var transParms = 'translate(' + adjustX + ',' + adjustY + ') ';
    transParms += 'scale(' + scale + ')';
    // alert(transParms);
    obj.setAttribute("transform", transParms); 
}
function click_node(id)
{
    var testx = parent.click_node;
    if (typeof(testx) == "function")
    {
		parent.click_node(id);
    }
}
function click_relation(id)
{
    var testx = parent.click_relation;
    if (typeof(testx) == "function")
    {
        parent.click_relation(id);
    }
}
function click_pathway(toId, fromId)
{
    var testx = parent.click_pathway;
    if (typeof(testx) == "function")
    {
	parent.click_pathway(toId, fromId);
    }
}
function check_interpath(evt, pathid)
{
  var obj = evt.getTarget();
  var testx = parent.is_frompath;
  var child = obj.firstChild;
  if (typeof(testx) == "function")
  {
    if (parent.is_frompath(pathid))
    {
      while (child != null)
      {
        if (child.nodeType == 1)
        {
          if ((child.localName == "g") || (child.localName == "polyline"))
          {
            child.setAttribute("style", "fill:none;stroke:red");
          }
          else if (child.localName == "polygon")
          {
            child.setAttribute("style", "fill:red;stroke:red");
          }
        }
        child = child.nextSibling;
      }
    }
  }
}
function set_status (msg)
{
 var obj = svgDocument.getElementById("status_text");
  var child;
 
  child = obj.firstChild;
  if ((child != null) && (child.nodeType == 3))
  {
    if ((msg != null) && (msg.length > 0))
    {
      child.data = msg;
    }
    else
    {
child.data = " ";
    }
  }
}
function zoomIn ()
{
    scale = scale + 0.8;
    if (scale > maxScale)
    {
       scale = maxScale;
    }
    transformMap();
    panUp();
    panUp();
    panUp();
    panUp();
    panUp();
    panUp();
    panUp();
    panUp();
    panUp();
    panUp();
    panUp();
    panUp();
}
function zoomOut ()
{
    scale = scale - 0.8;
    if (scale < 0.8)
    {
       scale = 0.8;
    }
    transformMap();
    panDown();
    panDown();
    panDown();
    panDown();
    panDown();
    panDown();
    panDown();
    panDown();
    panDown();
    panDown();
    panDown();
    panDown();
}
function panUp ()
{
    yOffset = yOffset + 20;
    transformMap();
}
function panDown ()
{
    yOffset = yOffset - 20;
    transformMap();
}
function panLeft ()
{
    xOffset = xOffset + 20;
    transformMap();
}
function panRight ()
{
    xOffset = xOffset - 20;
    transformMap();
}
function panRestore ()
{
    xOffset = 0;
    yOffset = 0;
    scale = 0.5;
    //obj = svgDocument.getElementById("zoom");
    //obj.setAttribute("x1", 0);
    //obj.setAttribute("x2", 0);
    transformMap();    
}
function doHighlight (evt, msg)
{
  var obj = evt.getTarget();
  obj.setAttribute("fill", "rgb(239,24,33)");
  set_status(msg);
}
function resetHighlight (evt)
{
  var obj = evt.getTarget();
  obj.setAttribute("fill", "rgb(99,154,206)");
  set_status(" ");
}
// ]]>
</script>
<defs>
<clipPath id="theClip">
<polygon points="1 61, 741 61, 741 665, 1 665"
style="fill: none;"/>
</clipPath>
</defs>
<!-- viewport outline -->
<rect x="0" y="61" width="742" height="606"
style="stroke: black; stroke-width: 1; fill: none;"/>
<!-- pathway graph style="clip-path: url(#theClip);" -->
<g style="clip-path: url(#theClip);">
<g id="Pathway"  transform="translate(0,60)">
<!-- prefile.include ends, begin pathway graph -->
<g id="stkecm;CMP_10705" class="graph">
</g>
<g id="graph0" class="graph" style="font-family:Times New Roman;font-size:3.76;"><title>G</title><g id="node1" class="node"><title>ABL1</title><a xlink:href="ABL1.html"><ellipse cx="14" cy="11" rx="8" ry="4" style="fill:turquoise;stroke:turquoise;"/><text text-anchor="middle" x="14" y="13" style="font-family:Times New Roman;"><![CDATA[ABL1]]></text></a></g><g id="node2" class="node"><title>PXN</title><a xlink:href="PXN.html"><ellipse cx="356" cy="31" rx="7" ry="4" style="fill:turquoise;stroke:turquoise;"/><text text-anchor="middle" x="356" y="32" style="font-family:Times New Roman;"><![CDATA[PXN]]></text></a></g><g id="edge2" class="edge"><title>ABL1-&gt;PXN</title><path style="fill:none;stroke:darkgreen;" d="M20,14C22,15 23,16 25,16 57,24 293,29 346,30"/><polygon style="fill:darkgreen;stroke:darkgreen;" points="346,29 348,30 346,31 346,29"/></g><g id="node50" class="node"><title>PIK3CA</title><a xlink:href="PIK3CA.html"><ellipse cx="291" cy="50" rx="10" ry="4" style="fill:turquoise;stroke:turquoise;"/><text text-anchor="middle" x="291" y="51" style="font-family:Times New Roman;"><![CDATA[PIK3CA]]></text></a></g><g id="edge50" class="edge"><title>PXN-&gt;PIK3CA</title><path style="fill:none;stroke:#0000ff;" d="M348,33C337,36 319,40 304,45 303,46 302,46 301,46"/><polygon style="fill:#0000ff;stroke:#0000ff;" points="349,33 349,32 348,32 348,33 349,33"/><polygon style="fill:#0000ff;stroke:#0000ff;" points="299,46 300,47 301,47 300,46 299,46"/></g><g id="node52" class="node"><title>NUDT16L1</title><a xlink:href="NUDT16L1.html"><ellipse cx="320" cy="50" rx="13" ry="4" style="fill:turquoise;stroke:turquoise;"/><text text-anchor="middle" x="320" y="51" style="font-family:Times New Roman;"><![CDATA[NUDT16L1]]></text></a></g><g id="edge52" class="edge"><title>PXN-&gt;NUDT16L1</title><path style="fill:none;stroke:#0000ff;" d="M349,34C343,38 335,42 329,45"/><polygon style="fill:#0000ff;stroke:#0000ff;" points="351,34 350,33 349,34 349,35 351,34"/><polygon style="fill:#0000ff;stroke:#0000ff;" points="327,45 328,46 329,46 328,45 327,45"/></g><g id="node54" class="node"><title>TES</title><a xlink:href="TES.html"><ellipse cx="345" cy="50" rx="7" ry="4" style="fill:turquoise;stroke:turquoise;"/><text text-anchor="middle" x="345" y="51" style="font-family:Times New Roman;"><![CDATA[TES]]></text></a></g><g id="edge54" class="edge"><title>PXN-&gt;TES</title><path style="fill:none;stroke:#0000ff;" d="M353,36C352,39 350,42 348,44"/><polygon style="fill:#0000ff;stroke:#0000ff;" points="354,35 353,35 352,36 354,36 354,35"/><polygon style="fill:#0000ff;stroke:#0000ff;" points="347,45 348,46 349,44 348,44 347,45"/></g><g id="node56" class="node"><title>TUBA1</title><a xlink:href="TUBA1.html"><ellipse cx="367" cy="50" rx="9" ry="4" style="fill:turquoise;stroke:turquoise;"/><text text-anchor="middle" x="367" y="51" style="font-family:Times New Roman;"><![CDATA[TUBA1]]></text></a></g><g id="edge56" class="edge"><title>PXN-&gt;TUBA1</title><path style="fill:none;stroke:#0000ff;" d="M359,36C361,39 363,42 364,44"/><polygon style="fill:#0000ff;stroke:#0000ff;" points="359,35 358,35 359,36 360,36 359,35"/><polygon style="fill:#0000ff;stroke:#0000ff;" points="364,45 365,45 365,44 363,44 364,45"/></g><g id="node58" class="node"><title>ILK</title><a xlink:href="ILK.html"><ellipse cx="389" cy="50" rx="7" ry="4" style="fill:turquoise;stroke:turquoise;"/><text text-anchor="middle" x="389" y="51" style="font-family:Times New Roman;"><![CDATA[ILK]]></text></a></g><g id="edge58" class="edge"><title>PXN-&gt;ILK</title><path style="fill:none;stroke:#0000ff;" d="M363,35C369,38 377,43 383,46"/><polygon style="fill:#0000ff;stroke:#0000ff;" points="362,33 362,34 363,35 363,34 362,33"/><polygon style="fill:#0000ff;stroke:#0000ff;" points="383,47 384,46 383,46 382,47 383,47"/></g><g id="node60" class="node"><title>VCL</title><a xlink:href="VCL.html"><ellipse cx="409" cy="50" rx="7" ry="4" style="fill:turquoise;stroke:turquoise;"/><text text-anchor="middle" x="409" y="51" style="font-family:Times New Roman;"><![CDATA[VCL]]></text></a></g><g id="edge60" class="edge"><title>PXN-&gt;VCL</title><path style="fill:none;stroke:#0000ff;" d="M365,33C373,36 387,40 399,45 400,46 401,46 402,46"/><polygon style="fill:#0000ff;stroke:#0000ff;" points="363,32 363,33 365,33 365,32 363,32"/><polygon style="fill:#0000ff;stroke:#0000ff;" points="403,47 403,46 402,46 402,47 403,47"/></g><g id="node4" class="node"><title>ARF1</title><a xlink:href="ARF1.html"><ellipse cx="35" cy="11" rx="8" ry="4" style="fill:turquoise;stroke:turquoise;"/><text text-anchor="middle" x="35" y="13" style="font-family:Times New Roman;"><![CDATA[ARF1]]></text></a></g><g id="edge4" class="edge"><title>ARF1-&gt;PXN</title><path style="fill:none;stroke:#0000ff;" d="M42,15C43,16 45,16 46,16 76,24 298,29 347,30"/><polygon style="fill:#0000ff;stroke:#0000ff;" points="41,14 41,15 42,16 42,14 41,14"/><polygon style="fill:#0000ff;stroke:#0000ff;" points="348,31 348,29 347,29 347,31 348,31"/></g><g id="node6" class="node"><title>DDEF1</title><a xlink:href="DDEF1.html"><ellipse cx="57" cy="11" rx="9" ry="4" style="fill:turquoise;stroke:turquoise;"/><text text-anchor="middle" x="57" y="13" style="font-family:Times New Roman;"><![CDATA[DDEF1]]></text></a></g><g id="edge6" class="edge"><title>DDEF1-&gt;PXN</title><path style="fill:none;stroke:#0000ff;" d="M65,15C67,16 68,16 69,16 124,28 304,30 347,31"/><polygon style="fill:#0000ff;stroke:#0000ff;" points="65,14 64,15 65,16 66,14 65,14"/><polygon style="fill:#0000ff;stroke:#0000ff;" points="348,31 348,30 347,30 347,31 348,31"/></g><g id="node8" class="node"><title>CAPN1</title><a xlink:href="CAPN1.html"><ellipse cx="82" cy="11" rx="9" ry="4" style="fill:turquoise;stroke:turquoise;"/><text text-anchor="middle" x="82" y="13" style="font-family:Times New Roman;"><![CDATA[CAPN1]]></text></a></g><g id="edge8" class="edge"><title>CAPN1-&gt;PXN</title><path style="fill:none;stroke:#ff0000;" d="M89,14C90,15 92,16 94,16 143,27 300,30 344,31"/><polyline style="fill:none;stroke:#ff0000;" points="344,32 344,28 "/></g><g id="node10" class="node"><title>CEACAM1</title><a xlink:href="CEACAM1.html"><ellipse cx="110" cy="11" rx="13" ry="4" style="fill:turquoise;stroke:turquoise;"/><text text-anchor="middle" x="110" y="13" style="font-family:Times New Roman;"><![CDATA[CEACAM1]]></text></a></g><g id="edge10" class="edge"><title>CEACAM1-&gt;PXN</title><path style="fill:none;stroke:#0000ff;" d="M120,15C122,16 124,16 126,16 169,24 310,29 347,30"/><polygon style="fill:#0000ff;stroke:#0000ff;" points="120,14 119,15 120,16 121,14 120,14"/><polygon style="fill:#0000ff;stroke:#0000ff;" points="348,31 348,29 347,29 347,31 348,31"/></g><g id="node12" class="node"><title>CRK</title><a xlink:href="CRK.html"><ellipse cx="136" cy="11" rx="7" ry="4" style="fill:turquoise;stroke:turquoise;"/><text text-anchor="middle" x="136" y="13" style="font-family:Times New Roman;"><![CDATA[CRK]]></text></a></g><g id="edge12" class="edge"><title>CRK-&gt;PXN</title><path style="fill:none;stroke:#0000ff;" d="M143,15C144,16 145,16 146,16 185,26 311,30 347,30"/><polygon style="fill:#0000ff;stroke:#0000ff;" points="142,14 141,15 142,16 143,14 142,14"/><polygon style="fill:#0000ff;stroke:#0000ff;" points="348,31 348,29 347,29 347,31 348,31"/></g><g id="node14" class="node"><title>CRKL</title><a xlink:href="CRKL.html"><ellipse cx="157" cy="11" rx="9" ry="4" style="fill:turquoise;stroke:turquoise;"/><text text-anchor="middle" x="157" y="13" style="font-family:Times New Roman;"><![CDATA[CRKL]]></text></a></g><g id="edge14" class="edge"><title>CRKL-&gt;PXN</title><path style="fill:none;stroke:#0000ff;" d="M165,15C167,16 168,16 169,16 204,25 314,29 347,30"/><polygon style="fill:#0000ff;stroke:#0000ff;" points="164,14 164,15 165,16 166,14 164,14"/><polygon style="fill:#0000ff;stroke:#0000ff;" points="348,31 348,29 347,29 347,31 348,31"/></g><g id="node16" class="node"><title>CSK</title><a xlink:href="CSK.html"><ellipse cx="179" cy="11" rx="7" ry="4" style="fill:turquoise;stroke:turquoise;"/><text text-anchor="middle" x="179" y="13" style="font-family:Times New Roman;"><![CDATA[CSK]]></text></a></g><g id="edge16" class="edge"><title>CSK-&gt;PXN</title><path style="fill:none;stroke:#0000ff;" d="M185,15C186,16 187,16 188,16 219,24 316,29 347,30"/><polygon style="fill:#0000ff;stroke:#0000ff;" points="184,14 184,15 185,16 185,14 184,14"/><polygon style="fill:#0000ff;stroke:#0000ff;" points="348,31 348,29 347,29 347,31 348,31"/></g><g id="node18" class="node"><title>MAPK1</title><a xlink:href="MAPK1.html"><ellipse cx="201" cy="11" rx="10" ry="4" style="fill:turquoise;stroke:turquoise;"/><text text-anchor="middle" x="201" y="13" style="font-family:Times New Roman;"><![CDATA[MAPK1]]></text></a></g><g id="edge18" class="edge"><title>MAPK1-&gt;PXN</title><path style="fill:none;stroke:darkgreen;" d="M209,14C211,15 212,16 214,16 239,22 317,28 346,30"/><polygon style="fill:darkgreen;stroke:darkgreen;" points="346,29 348,30 346,31 346,29"/></g><g id="node20" class="node"><title>PTK2</title><a xlink:href="PTK2.html"><ellipse cx="225" cy="11" rx="8" ry="4" style="fill:turquoise;stroke:turquoise;"/><text text-anchor="middle" x="225" y="13" style="font-family:Times New Roman;"><![CDATA[PTK2]]></text></a></g><g id="edge20" class="edge"><title>PTK2-&gt;PXN</title><path style="fill:none;stroke:darkgreen;" d="M231,14C233,15 234,16 236,16 275,27 324,30 346,31"/><polygon style="fill:darkgreen;stroke:darkgreen;" points="346,30 348,31 346,31 346,30"/></g><g id="node22" class="node"><title>FYN</title><a xlink:href="FYN.html"><ellipse cx="246" cy="11" rx="7" ry="4" style="fill:turquoise;stroke:turquoise;"/><text text-anchor="middle" x="246" y="13" style="font-family:Times New Roman;"><![CDATA[FYN]]></text></a></g><g id="edge22" class="edge"><title>FYN-&gt;PXN</title><path style="fill:none;stroke:#0000ff;" d="M253,15C254,15 255,16 256,16 288,26 329,29 347,30"/><polygon style="fill:#0000ff;stroke:#0000ff;" points="252,14 251,15 253,15 253,14 252,14"/><polygon style="fill:#0000ff;stroke:#0000ff;" points="348,31 348,29 347,29 347,31 348,31"/></g><g id="node24" class="node"><title>GAB1</title><a xlink:href="GAB1.html"><ellipse cx="267" cy="11" rx="8" ry="4" style="fill:turquoise;stroke:turquoise;"/><text text-anchor="middle" x="267" y="13" style="font-family:Times New Roman;"><![CDATA[GAB1]]></text></a></g><g id="edge24" class="edge"><title>GAB1-&gt;PXN</title><path style="fill:none;stroke:#0000ff;" d="M274,15C275,15 277,16 278,16 303,24 332,28 347,29"/><polygon style="fill:#0000ff;stroke:#0000ff;" points="274,14 273,15 274,16 275,14 274,14"/><polygon style="fill:#0000ff;stroke:#0000ff;" points="348,30 348,29 347,29 347,30 348,30"/></g><g id="node26" class="node"><title>GIT1</title><a xlink:href="GIT1.html"><ellipse cx="288" cy="11" rx="7" ry="4" style="fill:turquoise;stroke:turquoise;"/><text text-anchor="middle" x="288" y="13" style="font-family:Times New Roman;"><![CDATA[GIT1]]></text></a></g><g id="edge26" class="edge"><title>GIT1-&gt;PXN</title><path style="fill:none;stroke:#0000ff;" d="M294,15C295,15 296,16 297,16 314,22 336,27 347,29"/><polygon style="fill:#0000ff;stroke:#0000ff;" points="293,14 293,15 294,16 295,14 293,14"/><polygon style="fill:#0000ff;stroke:#0000ff;" points="349,30 349,29 347,28 347,29 349,30"/></g><g id="node28" class="node"><title>HSPA2</title><a xlink:href="HSPA2.html"><ellipse cx="309" cy="11" rx="9" ry="4" style="fill:turquoise;stroke:turquoise;"/><text text-anchor="middle" x="309" y="13" style="font-family:Times New Roman;"><![CDATA[HSPA2]]></text></a></g><g id="edge28" class="edge"><title>HSPA2-&gt;PXN</title><path style="fill:none;stroke:#0000ff;" d="M318,15C326,18 340,24 348,27"/><polygon style="fill:#0000ff;stroke:#0000ff;" points="317,14 317,15 318,15 318,14 317,14"/><polygon style="fill:#0000ff;stroke:#0000ff;" points="350,28 350,27 349,27 348,28 350,28"/></g><g id="node30" class="node"><title>ITGA5</title><a xlink:href="ITGA5.html"><ellipse cx="333" cy="11" rx="9" ry="4" style="fill:turquoise;stroke:turquoise;"/><text text-anchor="middle" x="333" y="13" style="font-family:Times New Roman;"><![CDATA[ITGA5]]></text></a></g><g id="edge30" class="edge"><title>ITGA5-&gt;PXN</title><path style="fill:none;stroke:#0000ff;" d="M339,16C343,19 347,23 351,26"/><polygon style="fill:#0000ff;stroke:#0000ff;" points="339,15 338,16 339,17 340,16 339,15"/><polygon style="fill:#0000ff;stroke:#0000ff;" points="351,27 352,26 351,25 350,26 351,27"/></g><g id="node32" class="node"><title>ITGB1</title><a xlink:href="ITGB1.html"><ellipse cx="356" cy="11" rx="8" ry="4" style="fill:turquoise;stroke:turquoise;"/><text text-anchor="middle" x="356" y="13" style="font-family:Times New Roman;"><![CDATA[ITGB1]]></text></a></g><g id="edge32" class="edge"><title>ITGB1-&gt;PXN</title><path style="fill:none;stroke:#0000ff;" d="M356,17C356,20 356,22 356,24"/><polygon style="fill:#0000ff;stroke:#0000ff;" points="357,16 356,16 356,17 357,17 357,16"/><polygon style="fill:#0000ff;stroke:#0000ff;" points="356,26 357,26 357,24 356,24 356,26"/></g><g id="node34" class="node"><title>MAPK8</title><a xlink:href="MAPK8.html"><ellipse cx="381" cy="11" rx="10" ry="4" style="fill:turquoise;stroke:turquoise;"/><text text-anchor="middle" x="381" y="13" style="font-family:Times New Roman;"><![CDATA[MAPK8]]></text></a></g><g id="edge34" class="edge"><title>MAPK8-&gt;PXN</title><path style="fill:none;stroke:darkgreen;" d="M375,16C372,18 367,22 363,25"/><polygon style="fill:darkgreen;stroke:darkgreen;" points="363,25 361,27 363,25 363,25"/></g><g id="node36" class="node"><title>LIMK1</title><a xlink:href="LIMK1.html"><ellipse cx="406" cy="11" rx="9" ry="4" style="fill:turquoise;stroke:turquoise;"/><text text-anchor="middle" x="406" y="13" style="font-family:Times New Roman;"><![CDATA[LIMK1]]></text></a></g><g id="edge36" class="edge"><title>LIMK1-&gt;PXN</title><path style="fill:none;stroke:#0000ff;" d="M397,15C396,15 395,16 394,16 383,20 372,25 364,28"/><polygon style="fill:#0000ff;stroke:#0000ff;" points="399,15 398,14 397,14 397,15 399,15"/><polygon style="fill:#0000ff;stroke:#0000ff;" points="363,28 363,29 365,28 364,27 363,28"/></g><g id="node38" class="node"><title>NF2</title><a xlink:href="NF2.html"><ellipse cx="428" cy="11" rx="7" ry="4" style="fill:turquoise;stroke:turquoise;"/><text text-anchor="middle" x="428" y="13" style="font-family:Times New Roman;"><![CDATA[NF2]]></text></a></g><g id="edge38" class="edge"><title>NF2-&gt;PXN</title><path style="fill:none;stroke:#0000ff;" d="M421,15C420,15 419,16 418,16 400,23 377,27 365,29"/><polygon style="fill:#0000ff;stroke:#0000ff;" points="422,15 422,14 421,14 421,16 422,15"/><polygon style="fill:#0000ff;stroke:#0000ff;" points="364,29 364,30 365,30 365,29 364,29"/></g><g id="node40" class="node"><title>RASA1</title><a xlink:href="RASA1.html"><ellipse cx="449" cy="11" rx="9" ry="4" style="fill:turquoise;stroke:turquoise;"/><text text-anchor="middle" x="449" y="13" style="font-family:Times New Roman;"><![CDATA[RASA1]]></text></a></g><g id="edge40" class="edge"><title>RASA1-&gt;PXN</title><path style="fill:none;stroke:#0000ff;" d="M441,15C440,15 439,16 437,16 412,23 381,28 366,29"/><polygon style="fill:#0000ff;stroke:#0000ff;" points="442,15 442,14 440,14 441,15 442,15"/><polygon style="fill:#0000ff;stroke:#0000ff;" points="364,29 364,30 365,30 365,29 364,29"/></g><g id="node42" class="node"><title>GRLF1</title><a xlink:href="GRLF1.html"><ellipse cx="473" cy="11" rx="9" ry="4" style="fill:turquoise;stroke:turquoise;"/><text text-anchor="middle" x="473" y="13" style="font-family:Times New Roman;"><![CDATA[GRLF1]]></text></a></g><g id="edge42" class="edge"><title>GRLF1-&gt;PXN</title><path style="fill:none;stroke:#0000ff;" d="M465,15C464,15 463,16 461,16 427,25 384,29 366,30"/><polygon style="fill:#0000ff;stroke:#0000ff;" points="466,15 466,14 465,14 465,15 466,15"/><polygon style="fill:#0000ff;stroke:#0000ff;" points="364,29 364,31 365,31 365,29 364,29"/></g><g id="node44" class="node"><title>PABPC1</title><a xlink:href="PABPC1.html"><ellipse cx="498" cy="11" rx="10" ry="4" style="fill:turquoise;stroke:turquoise;"/><text text-anchor="middle" x="498" y="13" style="font-family:Times New Roman;"><![CDATA[PABPC1]]></text></a></g><g id="edge44" class="edge"><title>PABPC1-&gt;PXN</title><path style="fill:none;stroke:#0000ff;" d="M489,15C488,15 486,16 485,16 441,27 387,29 365,30"/><polygon style="fill:#0000ff;stroke:#0000ff;" points="490,15 490,14 488,14 489,15 490,15"/><polygon style="fill:#0000ff;stroke:#0000ff;" points="364,29 364,31 365,31 365,29 364,29"/></g><g id="node46" class="node"><title>DDEF2</title><a xlink:href="DDEF2.html"><ellipse cx="524" cy="11" rx="9" ry="4" style="fill:turquoise;stroke:turquoise;"/><text text-anchor="middle" x="524" y="13" style="font-family:Times New Roman;"><![CDATA[DDEF2]]></text></a></g><g id="edge46" class="edge"><title>DDEF2-&gt;PXN</title><path style="fill:none;stroke:#0000ff;" d="M515,15C514,15 513,16 511,16 483,23 395,28 366,30"/><polygon style="fill:#0000ff;stroke:#0000ff;" points="517,15 516,14 515,14 515,15 517,15"/><polygon style="fill:#0000ff;stroke:#0000ff;" points="364,29 364,31 365,31 365,29 364,29"/></g><g id="node48" class="node"><title>PARVA</title><a xlink:href="PARVA.html"><ellipse cx="549" cy="11" rx="10" ry="4" style="fill:turquoise;stroke:turquoise;"/><text text-anchor="middle" x="549" y="13" style="font-family:Times New Roman;"><![CDATA[PARVA]]></text></a></g><g id="edge48" class="edge"><title>PARVA-&gt;PXN</title><path style="fill:none;stroke:#0000ff;" d="M540,15C539,16 538,16 536,16 503,23 398,29 366,30"/><polygon style="fill:#0000ff;stroke:#0000ff;" points="542,15 541,14 540,14 540,16 542,15"/><polygon style="fill:#0000ff;stroke:#0000ff;" points="364,29 364,31 365,31 365,29 364,29"/></g><g id="node62" class="node"><title>PPP2CA</title><a xlink:href="PPP2CA.html"><ellipse cx="576" cy="11" rx="10" ry="4" style="fill:turquoise;stroke:turquoise;"/><text text-anchor="middle" x="576" y="13" style="font-family:Times New Roman;"><![CDATA[PPP2CA]]></text></a></g><g id="edge62" class="edge"><title>PPP2CA-&gt;PXN</title><path style="fill:none;stroke:#ff0000;" d="M568,15C567,15 565,16 563,16 525,24 406,29 368,30"/><polyline style="fill:none;stroke:#ff0000;" points="368,28 368,32 "/></g><g id="node64" class="node"><title>PTPN12</title><a xlink:href="PTPN12.html"><ellipse cx="603" cy="11" rx="10" ry="4" style="fill:turquoise;stroke:turquoise;"/><text text-anchor="middle" x="603" y="13" style="font-family:Times New Roman;"><![CDATA[PTPN12]]></text></a></g><g id="edge64" class="edge"><title>PTPN12-&gt;PXN</title><path style="fill:none;stroke:#ff0000;" d="M595,15C593,15 591,16 590,16 547,25 409,29 368,30"/><polyline style="fill:none;stroke:#ff0000;" points="368,28 368,32 "/></g><g id="node66" class="node"><title>PTPRO</title><a xlink:href="PTPRO.html"><ellipse cx="628" cy="11" rx="9" ry="4" style="fill:turquoise;stroke:turquoise;"/><text text-anchor="middle" x="628" y="13" style="font-family:Times New Roman;"><![CDATA[PTPRO]]></text></a></g><g id="edge66" class="edge"><title>PTPRO-&gt;PXN</title><path style="fill:none;stroke:#ff0000;" d="M620,14C619,15 617,16 615,16 567,27 412,30 368,31"/><polyline style="fill:none;stroke:#ff0000;" points="368,28 368,32 "/></g><g id="node68" class="node"><title>PTK2B</title><a xlink:href="PTK2B.html"><ellipse cx="652" cy="11" rx="9" ry="4" style="fill:turquoise;stroke:turquoise;"/><text text-anchor="middle" x="652" y="13" style="font-family:Times New Roman;"><![CDATA[PTK2B]]></text></a></g><g id="edge68" class="edge"><title>PTK2B-&gt;PXN</title><path style="fill:none;stroke:darkgreen;" d="M645,14C644,15 642,16 640,16 586,28 412,30 367,31"/><polygon style="fill:darkgreen;stroke:darkgreen;" points="367,31 364,31 367,30 367,31"/></g><g id="node70" class="node"><title>PTPN11</title><a xlink:href="PTPN11.html"><ellipse cx="677" cy="11" rx="9" ry="4" style="fill:turquoise;stroke:turquoise;"/><text text-anchor="middle" x="677" y="13" style="font-family:Times New Roman;"><![CDATA[PTPN11]]></text></a></g><g id="edge70" class="edge"><title>PTPN11-&gt;PXN</title><path style="fill:none;stroke:#ff0000;" d="M670,14C668,15 666,16 665,16 606,29 417,30 368,31"/><polyline style="fill:none;stroke:#ff0000;" points="368,28 368,32 "/></g><g id="node72" class="node"><title>SRC</title><a xlink:href="SRC.html"><ellipse cx="699" cy="11" rx="7" ry="4" style="fill:turquoise;stroke:turquoise;"/><text text-anchor="middle" x="699" y="13" style="font-family:Times New Roman;"><![CDATA[SRC]]></text></a></g><g id="edge72" class="edge"><title>SRC-&gt;PXN</title><path style="fill:none;stroke:darkgreen;" d="M694,14C692,15 691,16 689,16 657,24 420,29 367,30"/><polygon style="fill:darkgreen;stroke:darkgreen;" points="367,31 364,30 367,29 367,31"/></g><g id="node74" class="node"><title>SYK</title><a xlink:href="SYK.html"><ellipse cx="719" cy="11" rx="7" ry="4" style="fill:turquoise;stroke:turquoise;"/><text text-anchor="middle" x="719" y="13" style="font-family:Times New Roman;"><![CDATA[SYK]]></text></a></g><g id="edge74" class="edge"><title>SYK-&gt;PXN</title><path style="fill:none;stroke:darkgreen;" d="M713,14C712,15 710,16 709,16 675,25 423,29 367,31"/><polygon style="fill:darkgreen;stroke:darkgreen;" points="367,31 364,31 367,30 367,31"/></g></g></g></g>
<!-- navigation controls -->
<g id="navbox">
	<rect x="0" y="0" width="742" height="60"
		 style="fill:rgb(206,207,206);stroke:rgb(0,0,0);stroke-width:1"/>

	<polygon id="pan_right"
        onmouseup="panRight()"
        onmouseover="doHighlight(evt, 'Click to pan to the right')"
        onmouseout="resetHighlight(evt)"
		points="28.0732,13 32,20.5 28.0732,28 28.0732,23.4412 25,23.4412 25,17.4118 28.0732,17.4118"
		 transform="matrix(3.39111 0 0 2.98838 -12.6265 -29.7101)"
         fill="rgb(99,154,206)"
		 style="stroke:rgb(0,0,0);stroke-width:0.5"/>
	<polygon id="pan_left"
        onmouseup="panLeft()"
        onmouseover="doHighlight(evt, 'Click to pan to the left')"
        onmouseout="resetHighlight(evt)"
		points="123.991,25 120.064,32.5 123.991,40 123.991,35.4412 127.064,35.4412 127.064,29.4118
			123.991,29.4118" transform="matrix(3.39111 0 0 2.98838 -404.865 -65.5706)"
         fill="rgb(99,154,206)"
		 style="stroke:rgb(0,0,0);stroke-width:0.5"/>
	<polygon id="pan_down"
        onmouseup="panDown()"
        onmouseover="doHighlight(evt, 'Click to pan down')"
        onmouseout="resetHighlight(evt)"
		points="116.032,32.0408 123.532,35.9678 131.032,32.0408 126.473,32.0408 126.473,28.9678 120.444,28.9678
			120.444,32.0408" transform="matrix(3.39111 0 0 2.98838 -369.822 -50.6287)"
         fill="rgb(99,154,206)"
		 style="stroke:rgb(0,0,0);stroke-width:0.5"/>
	<polygon id="pan_up"
        onmouseup="panUp()"
  onmouseover="doHighlight(evt, 'Click to pan up')"
        onmouseout="resetHighlight(evt)"
		points="116.032,32.0408 123.532,35.9678 131.032,32.0408 126.473,32.0408 126.473,28.9678 120.444,28.9678
			120.444,32.0408" transform="matrix(3.39111 0 0 -2.98838 -369.823 111.74)"
         fill="rgb(99,154,206)"
		 style="stroke:rgb(0,0,0);stroke-width:0.5"/>
	<g id="go_home" 
         onmouseup="panRestore()" 
         onmouseover="doHighlight(evt, 'Click to restore graph to original position')"
         onmouseout="resetHighlight(evt)"
         fill="rgb(99,154,206)"
         transform="matrix(1 0 0 1 0 -0.333333)">
		<rect x="196" y="11" width="26" height="26"
			transform="translate(-19.1111 -2.66667)"
			 style="stroke:rgb(0,0,0);stroke-width:1"/>
		<line x1="182" y1="16" x2="182" y2="28"
			transform="matrix(1 0 0 1 2.22222 0.444444)"
			 style="fill:none;stroke:rgb(0,0,0);stroke-width:2"/>
		<line x1="187" y1="22" x2="187" y2="28"
			transform="matrix(1 0 0 1 2.22222 0.444444)"
			 style="fill:none;stroke:rgb(0,0,0);stroke-width:2"/>
	<line x1="192" y1="13" x2="192" y2="28"
			transform="matrix(1 0 0 1 2.22222 0.444444)"
			 style="fill:none;stroke:rgb(0,0,0);stroke-width:2"/>
		<line x1="182" y1="28" x2="192" y2="28"
			transform="matrix(1 0 0 1 2.22222 0.444444)"
	style="fill:none;stroke:rgb(0,0,0);stroke-width:2"/>
		<line x1="189" y1="12" x2="179" y2="21"
			 style="fill:none;stroke:rgb(0,0,0);stroke-width:2"/>
		<line x1="188" y1="12" x2="199" y2="20"
			 style="fill:none;stroke:rgb(0,0,0);stroke-width:2"/>
	</g>
	<g id="zoom_out" onmouseup="zoomOut()" 
             onmouseover="doHighlight(evt, 'Click to zoom out')"
             onmouseout="resetHighlight(evt)"
             fill="rgb(99,154,206)"
             transform="matrix(1 0 0 1 0 0)">
		<rect x="116" y="8" width="26" height="26"
			 style="stroke:rgb(0,0,0);stroke-width:1"/>
		<ellipse cx="126" cy="18" rx="6" ry="6"
			 style="stroke:rgb(0,0,0);stroke-width:1"/>
		<line x1="130" y1="23" x2="137" y2="29"
			transform="matrix(1 0 0 1 0.888889 -0.888889)"
			 style="fill:none;stroke:rgb(0,0,0);stroke-width:2"/>
		<line x1="123" y1="18" x2="129" y2="18"
			 style="fill:none;stroke:rgb(0,0,0);stroke-width:2"/>
	</g>
	<g id="zoom_in" onmouseup="zoomIn()" 
             onmouseover="doHighlight(evt, 'Click to zoom in')"
             onmouseout="resetHighlight(evt)"
             fill="rgb(99,154,206)"
             transform="matrix(1 0 0 1 0.888889 -0.444444)">
		<rect x="116" y="8" width="26" height="26"
			transform="matrix(1 0 0 1 29.7778 0.444444)"
			 style="stroke:rgb(0,0,0);stroke-width:1"/>
		<ellipse cx="126" cy="18" rx="6" ry="6"
			transform="matrix(1 0 0 1 29.7778 0.444444)"
			 style="stroke:rgb(0,0,0);stroke-width:1"/>
		<line x1="130" y1="23" x2="137" y2="29"
			transform="matrix(1 0 0 1 30.6667 -0.444445)"
		style="fill:none;stroke:rgb(0,0,0);stroke-width:2"/>
		<line x1="123" y1="18" x2="129" y2="18"
			transform="matrix(1 0 0 1 29.7778 0.444444)"
			 style="fill:none;stroke:rgb(0,0,0);stroke-width:2"/>
		<line x1="156" y1="15" x2="156" y2="22"
			 style="fill:none;stroke:rgb(0,0,0);stroke-width:2"/>
	</g>
	<g>
		<rect x="117" y="40" width="452" height="14"
			transform="matrix(1.54201 0 0 1 -64.1436 -0.222222)"
			 style="fill:rgb(192,192,192);stroke:rgb(0,0,0);stroke-width:1"/>
		<text id="status_text" x="183px" y="48px"
			transform="matrix(1 0 0 1 -63.5556 3.00778)"
			 style="fill:rgb(0,0,0);font-size:14;font-family:Arial"> </text>
	</g>
</g>	
</svg>