<?xml version="1.0" encoding="UTF-8" standalone="no"?><!DOCTYPE svg PUBLIC "-//W3C//DTD SVG 1.0//EN" "http://www.w3.org/TR/2001/REC-SVG-20010904/DTD/svg10.dtd" [ <!ATTLIST svg xmlns:xlink CDATA #FIXED "http://www.w3.org/1999/xlink">]><!-- Generated by WinGraphviz version ver1.02.23, 08/01/2003 (08/04/2003)     For user: Avi Ma'ayan   Title: G    Pages: 1 --><!--="735px" height="135px" xmlns="http://www.w3.org/2000/svg" --><svg onload="init(evt)" width="735px" height="600px" xmlns="http://www.w3.org/2000/svg" xmlns:xlink="http://www.w3.org/1999/xlink">
<script type="text/ecmascript">
<![CDATA[
var svgDocument;
var zoomAmt;
var xOffset;
var yOffset;
var scale;
var maxScale;
var imageWidth;
var imageHeight;
function init(evt)
{
    svgDocument = evt.getTarget().getOwnerDocument();
    zoomAmt = 0;
    xOffset = 0;
    yOffset = 60;
    scale = 0.8;
    maxScale = 10;
    imageWidth = 742;
    imageHeight = 606;
    panRestore();
    //panUp();
}
function transformMap ()
{
    var obj = svgDocument.getElementById("Pathway");
    var centerX = imageWidth  / 2.0;
    var centerY = imageHeight / 2.0;
    var adjustX = (-centerX * (scale - 0.8)) + xOffset;
    var adjustY = (-centerY * (scale - 0.8)) + yOffset;
    var transParms = 'translate(' + adjustX + ',' + adjustY + ') ';
    transParms += 'scale(' + scale + ')';
    // alert(transParms);
    obj.setAttribute("transform", transParms); 
}
function click_node(id)
{
    var testx = parent.click_node;
    if (typeof(testx) == "function")
    {
		parent.click_node(id);
    }
}
function click_relation(id)
{
    var testx = parent.click_relation;
    if (typeof(testx) == "function")
    {
        parent.click_relation(id);
    }
}
function click_pathway(toId, fromId)
{
    var testx = parent.click_pathway;
    if (typeof(testx) == "function")
    {
	parent.click_pathway(toId, fromId);
    }
}
function check_interpath(evt, pathid)
{
  var obj = evt.getTarget();
  var testx = parent.is_frompath;
  var child = obj.firstChild;
  if (typeof(testx) == "function")
  {
    if (parent.is_frompath(pathid))
    {
      while (child != null)
      {
        if (child.nodeType == 1)
        {
          if ((child.localName == "g") || (child.localName == "polyline"))
          {
            child.setAttribute("style", "fill:none;stroke:red");
          }
          else if (child.localName == "polygon")
          {
            child.setAttribute("style", "fill:red;stroke:red");
          }
        }
        child = child.nextSibling;
      }
    }
  }
}
function set_status (msg)
{
 var obj = svgDocument.getElementById("status_text");
  var child;
 
  child = obj.firstChild;
  if ((child != null) && (child.nodeType == 3))
  {
    if ((msg != null) && (msg.length > 0))
    {
      child.data = msg;
    }
    else
    {
child.data = " ";
    }
  }
}
function zoomIn ()
{
    scale = scale + 0.8;
    if (scale > maxScale)
    {
       scale = maxScale;
    }
    transformMap();
    panUp();
    panUp();
    panUp();
    panUp();
    panUp();
    panUp();
    panUp();
    panUp();
    panUp();
    panUp();
    panUp();
    panUp();
}
function zoomOut ()
{
    scale = scale - 0.8;
    if (scale < 0.8)
    {
       scale = 0.8;
    }
    transformMap();
    panDown();
    panDown();
    panDown();
    panDown();
    panDown();
    panDown();
    panDown();
    panDown();
    panDown();
    panDown();
    panDown();
    panDown();
}
function panUp ()
{
    yOffset = yOffset + 20;
    transformMap();
}
function panDown ()
{
    yOffset = yOffset - 20;
    transformMap();
}
function panLeft ()
{
    xOffset = xOffset + 20;
    transformMap();
}
function panRight ()
{
    xOffset = xOffset - 20;
    transformMap();
}
function panRestore ()
{
    xOffset = 0;
    yOffset = 0;
    scale = 0.5;
    //obj = svgDocument.getElementById("zoom");
    //obj.setAttribute("x1", 0);
    //obj.setAttribute("x2", 0);
    transformMap();    
}
function doHighlight (evt, msg)
{
  var obj = evt.getTarget();
  obj.setAttribute("fill", "rgb(239,24,33)");
  set_status(msg);
}
function resetHighlight (evt)
{
  var obj = evt.getTarget();
  obj.setAttribute("fill", "rgb(99,154,206)");
  set_status(" ");
}
// ]]>
</script>
<defs>
<clipPath id="theClip">
<polygon points="1 61, 741 61, 741 665, 1 665"
style="fill: none;"/>
</clipPath>
</defs>
<!-- viewport outline -->
<rect x="0" y="61" width="742" height="606"
style="stroke: black; stroke-width: 1; fill: none;"/>
<!-- pathway graph style="clip-path: url(#theClip);" -->
<g style="clip-path: url(#theClip);">
<g id="Pathway"  transform="translate(0,60)">
<!-- prefile.include ends, begin pathway graph -->
<g id="stkecm;CMP_10705" class="graph">
</g>
<g id="graph0" class="graph" style="font-family:Times New Roman;font-size:8.66;"><title>G</title><g id="node1" class="node"><title>AKT1</title><a xlink:href="AKT1.html"><ellipse cx="25" cy="20" rx="19" ry="11" style="fill:turquoise;stroke:turquoise;"/><text text-anchor="middle" x="25" y="23" style="font-family:Times New Roman;"><![CDATA[AKT1]]></text></a></g><g id="node2" class="node"><title>RAC1</title><a xlink:href="RAC1.html"><ellipse cx="367" cy="64" rx="19" ry="11" style="fill:turquoise;stroke:turquoise;"/><text text-anchor="middle" x="367" y="67" style="font-family:Times New Roman;"><![CDATA[RAC1]]></text></a></g><g id="edge2" class="edge"><title>AKT1-&gt;RAC1</title><path style="fill:none;stroke:darkgreen;" d="M40,27C43,28 47,30 50,31 105,46 276,59 341,62"/><polygon style="fill:darkgreen;stroke:darkgreen;" points="342,61 348,63 342,64 342,61"/></g><g id="node16" class="node"><title>KTN1</title><a xlink:href="KTN1.html"><ellipse cx="200" cy="109" rx="19" ry="11" style="fill:limegreen;stroke:limegreen;"/><text text-anchor="middle" x="200" y="112" style="font-family:Times New Roman;"><![CDATA[KTN1]]></text></a></g><g id="edge16" class="edge"><title>RAC1-&gt;KTN1</title><path style="fill:none;stroke:darkgreen;" d="M349,67C322,73 269,83 226,98 225,98 223,99 221,99"/><polygon style="fill:darkgreen;stroke:darkgreen;" points="222,101 216,102 221,98 222,101"/></g><g id="node18" class="node"><title>PAK1</title><a xlink:href="PAK1.html"><ellipse cx="250" cy="109" rx="19" ry="11" style="fill:turquoise;stroke:turquoise;"/><text text-anchor="middle" x="250" y="112" style="font-family:Times New Roman;"><![CDATA[PAK1]]></text></a></g><g id="edge18" class="edge"><title>RAC1-&gt;PAK1</title><path style="fill:none;stroke:darkgreen;" d="M351,70C332,77 302,87 275,98 274,98 272,99 271,99"/><polygon style="fill:darkgreen;stroke:darkgreen;" points="272,101 266,102 271,98 272,101"/></g><g id="node20" class="node"><title>PIP5K1C</title><a xlink:href="PIP5K1C.html"><ellipse cx="306" cy="109" rx="25" ry="11" style="fill:turquoise;stroke:turquoise;"/><text text-anchor="middle" x="306" y="112" style="font-family:Times New Roman;"><![CDATA[PIP5K1C]]></text></a></g><g id="edge20" class="edge"><title>RAC1-&gt;PIP5K1C</title><path style="fill:none;stroke:darkgreen;" d="M355,73C346,79 335,88 324,96"/><polygon style="fill:darkgreen;stroke:darkgreen;" points="325,97 319,99 323,95 325,97"/></g><g id="node22" class="node"><title>PRKCA</title><a xlink:href="PRKCA.html"><ellipse cx="367" cy="109" rx="24" ry="11" style="fill:turquoise;stroke:turquoise;"/><text text-anchor="middle" x="367" y="112" style="font-family:Times New Roman;"><![CDATA[PRKCA]]></text></a></g><g id="edge22" class="edge"><title>RAC1-&gt;PRKCA</title><path style="fill:none;stroke:darkgreen;" d="M367,75C367,80 367,86 367,91"/><polygon style="fill:darkgreen;stroke:darkgreen;" points="369,91 367,98 366,91 369,91"/></g><g id="node24" class="node"><title>STAT3</title><a xlink:href="STAT3.html"><ellipse cx="425" cy="109" rx="21" ry="11" style="fill:#eea9b9;stroke:#eea9b9;"/><text text-anchor="middle" x="425" y="112" style="font-family:Times New Roman;"><![CDATA[STAT3]]></text></a></g><g id="edge24" class="edge"><title>RAC1-&gt;STAT3</title><path style="fill:none;stroke:#0000ff;" d="M382,75C391,82 401,91 410,98"/><polygon style="fill:#0000ff;stroke:#0000ff;" points="380,72 379,75 381,77 383,74 380,72"/><polygon style="fill:#0000ff;stroke:#0000ff;" points="412,101 414,98 411,96 409,99 412,101"/></g><g id="node26" class="node"><title>TESK1</title><a xlink:href="TESK1.html"><ellipse cx="479" cy="109" rx="21" ry="11" style="fill:turquoise;stroke:turquoise;"/><text text-anchor="middle" x="479" y="112" style="font-family:Times New Roman;"><![CDATA[TESK1]]></text></a></g><g id="edge26" class="edge"><title>RAC1-&gt;TESK1</title><path style="fill:none;stroke:darkgreen;" d="M383,70C400,77 428,88 452,98 453,98 455,99 457,99"/><polygon style="fill:darkgreen;stroke:darkgreen;" points="457,98 462,102 456,101 457,98"/></g><g id="node28" class="node"><title>PLD1</title><a xlink:href="PLD1.html"><ellipse cx="529" cy="109" rx="17" ry="11" style="fill:turquoise;stroke:turquoise;"/><text text-anchor="middle" x="529" y="112" style="font-family:Times New Roman;"><![CDATA[PLD1]]></text></a></g><g id="edge28" class="edge"><title>RAC1-&gt;PLD1</title><path style="fill:none;stroke:darkgreen;" d="M386,67C413,72 463,83 505,98 507,98 508,99 510,99"/><polygon style="fill:darkgreen;stroke:darkgreen;" points="510,98 515,102 508,101 510,98"/></g><g id="node4" class="node"><title>BCAR3</title><a xlink:href="BCAR3.html"><ellipse cx="79" cy="20" rx="23" ry="11" style="fill:turquoise;stroke:turquoise;"/><text text-anchor="middle" x="79" y="23" style="font-family:Times New Roman;"><![CDATA[BCAR3]]></text></a></g><g id="edge4" class="edge"><title>BCAR3-&gt;RAC1</title><path style="fill:none;stroke:darkgreen;" d="M96,27C100,28 105,30 108,31 192,52 294,61 341,63"/><polygon style="fill:darkgreen;stroke:darkgreen;" points="342,62 348,64 342,65 342,62"/></g><g id="node6" class="node"><title>DOCK1</title><a xlink:href="DOCK1.html"><ellipse cx="137" cy="20" rx="23" ry="11" style="fill:turquoise;stroke:turquoise;"/><text text-anchor="middle" x="137" y="23" style="font-family:Times New Roman;"><![CDATA[DOCK1]]></text></a></g><g id="edge6" class="edge"><title>DOCK1-&gt;RAC1</title><path style="fill:none;stroke:darkgreen;" d="M155,27C158,28 163,30 166,31 228,48 304,57 342,62"/><polygon style="fill:darkgreen;stroke:darkgreen;" points="342,61 348,62 342,63 342,61"/></g><g id="node8" class="node"><title>ELMO1</title><a xlink:href="ELMO1.html"><ellipse cx="195" cy="20" rx="23" ry="11" style="fill:turquoise;stroke:turquoise;"/><text text-anchor="middle" x="195" y="23" style="font-family:Times New Roman;"><![CDATA[ELMO1]]></text></a></g><g id="edge8" class="edge"><title>ELMO1-&gt;RAC1</title><path style="fill:none;stroke:darkgreen;" d="M213,27C217,28 221,30 225,31 265,44 315,54 343,59"/><polygon style="fill:darkgreen;stroke:darkgreen;" points="343,57 349,61 343,61 343,57"/></g><g id="node10" class="node"><title>FLNA</title><a xlink:href="FLNA.html"><ellipse cx="251" cy="20" rx="21" ry="11" style="fill:turquoise;stroke:turquoise;"/><text text-anchor="middle" x="251" y="23" style="font-family:Times New Roman;"><![CDATA[FLNA]]></text></a></g><g id="edge10" class="edge"><title>FLNA-&gt;RAC1</title><path style="fill:none;stroke:#0000ff;" d="M270,28C273,29 275,30 278,31 302,41 330,51 348,57"/><polygon style="fill:#0000ff;stroke:#0000ff;" points="268,25 267,28 269,29 270,26 268,25"/><polygon style="fill:#0000ff;stroke:#0000ff;" points="350,60 351,57 348,56 347,59 350,60"/></g><g id="node12" class="node"><title>NCK2</title><a xlink:href="NCK2.html"><ellipse cx="304" cy="20" rx="21" ry="11" style="fill:turquoise;stroke:turquoise;"/><text text-anchor="middle" x="304" y="23" style="font-family:Times New Roman;"><![CDATA[NCK2]]></text></a></g><g id="edge12" class="edge"><title>NCK2-&gt;RAC1</title><path style="fill:none;stroke:#0000ff;" d="M320,31C329,38 342,47 352,54"/><polygon style="fill:#0000ff;stroke:#0000ff;" points="319,28 317,30 319,32 321,30 319,28"/><polygon style="fill:#0000ff;stroke:#0000ff;" points="354,57 356,54 353,52 352,55 354,57"/></g><g id="node14" class="node"><title>ARHGEF6</title><a xlink:href="ARHGEF6.html"><ellipse cx="367" cy="20" rx="30" ry="11" style="fill:turquoise;stroke:turquoise;"/><text text-anchor="middle" x="367" y="23" style="font-family:Times New Roman;"><![CDATA[ARHGEF6]]></text></a></g><g id="edge14" class="edge"><title>ARHGEF6-&gt;RAC1</title><path style="fill:none;stroke:darkgreen;" d="M367,31C367,36 367,41 367,47"/><polygon style="fill:darkgreen;stroke:darkgreen;" points="369,47 367,53 366,47 369,47"/></g><g id="node30" class="node"><title>ARHGAP24</title><a xlink:href="ARHGAP24.html"><ellipse cx="444" cy="20" rx="34" ry="11" style="fill:turquoise;stroke:turquoise;"/><text text-anchor="middle" x="444" y="23" style="font-family:Times New Roman;"><![CDATA[ARHGAP24]]></text></a></g><g id="edge30" class="edge"><title>ARHGAP24-&gt;RAC1</title><path style="fill:none;stroke:#ff0000;" d="M427,30C416,36 401,45 388,52"/><polyline style="fill:none;stroke:#ff0000;" points="387,48 392,56 "/></g><g id="node32" class="node"><title>RICS</title><a xlink:href="RICS.html"><ellipse cx="508" cy="20" rx="17" ry="11" style="fill:turquoise;stroke:turquoise;"/><text text-anchor="middle" x="508" y="23" style="font-family:Times New Roman;"><![CDATA[RICS]]></text></a></g><g id="edge32" class="edge"><title>RICS-&gt;RAC1</title><path style="fill:none;stroke:#ff0000;" d="M494,27C490,28 487,30 484,31 453,43 416,52 393,58"/><polyline style="fill:none;stroke:#ff0000;" points="393,53 395,62 "/></g><g id="node34" class="node"><title>SOS1</title><a xlink:href="SOS1.html"><ellipse cx="554" cy="20" rx="16" ry="11" style="fill:turquoise;stroke:turquoise;"/><text text-anchor="middle" x="554" y="23" style="font-family:Times New Roman;"><![CDATA[SOS1]]></text></a></g><g id="edge34" class="edge"><title>SOS1-&gt;RAC1</title><path style="fill:none;stroke:darkgreen;" d="M541,27C538,28 534,30 531,31 484,48 425,57 392,62"/><polygon style="fill:darkgreen;stroke:darkgreen;" points="393,63 387,62 393,60 393,63"/></g><g id="node36" class="node"><title>TIAM1</title><a xlink:href="TIAM1.html"><ellipse cx="603" cy="20" rx="21" ry="11" style="fill:turquoise;stroke:turquoise;"/><text text-anchor="middle" x="603" y="23" style="font-family:Times New Roman;"><![CDATA[TIAM1]]></text></a></g><g id="edge36" class="edge"><title>TIAM1-&gt;RAC1</title><path style="fill:none;stroke:darkgreen;" d="M587,27C583,28 580,30 576,31 511,49 432,58 393,62"/><polygon style="fill:darkgreen;stroke:darkgreen;" points="393,63 387,62 393,61 393,63"/></g><g id="node38" class="node"><title>TRIO</title><a xlink:href="TRIO.html"><ellipse cx="655" cy="20" rx="19" ry="11" style="fill:turquoise;stroke:turquoise;"/><text text-anchor="middle" x="655" y="23" style="font-family:Times New Roman;"><![CDATA[TRIO]]></text></a></g><g id="edge38" class="edge"><title>TRIO-&gt;RAC1</title><path style="fill:none;stroke:darkgreen;" d="M640,27C637,28 633,30 630,31 546,55 441,62 393,64"/><polygon style="fill:darkgreen;stroke:darkgreen;" points="393,65 387,64 393,62 393,65"/></g><g id="node40" class="node"><title>VAV1</title><a xlink:href="VAV1.html"><ellipse cx="706" cy="20" rx="20" ry="11" style="fill:turquoise;stroke:turquoise;"/><text text-anchor="middle" x="706" y="23" style="font-family:Times New Roman;"><![CDATA[VAV1]]></text></a></g><g id="edge40" class="edge"><title>VAV1-&gt;RAC1</title><path style="fill:none;stroke:darkgreen;" d="M690,27C687,28 683,30 680,31 625,45 458,58 393,62"/><polygon style="fill:darkgreen;stroke:darkgreen;" points="393,64 387,63 393,61 393,64"/></g></g></g></g>
<!-- navigation controls -->
<g id="navbox">
	<rect x="0" y="0" width="742" height="60"
		 style="fill:rgb(206,207,206);stroke:rgb(0,0,0);stroke-width:1"/>

	<polygon id="pan_right"
        onmouseup="panRight()"
        onmouseover="doHighlight(evt, 'Click to pan to the right')"
        onmouseout="resetHighlight(evt)"
		points="28.0732,13 32,20.5 28.0732,28 28.0732,23.4412 25,23.4412 25,17.4118 28.0732,17.4118"
		 transform="matrix(3.39111 0 0 2.98838 -12.6265 -29.7101)"
         fill="rgb(99,154,206)"
		 style="stroke:rgb(0,0,0);stroke-width:0.5"/>
	<polygon id="pan_left"
        onmouseup="panLeft()"
        onmouseover="doHighlight(evt, 'Click to pan to the left')"
        onmouseout="resetHighlight(evt)"
		points="123.991,25 120.064,32.5 123.991,40 123.991,35.4412 127.064,35.4412 127.064,29.4118
			123.991,29.4118" transform="matrix(3.39111 0 0 2.98838 -404.865 -65.5706)"
         fill="rgb(99,154,206)"
		 style="stroke:rgb(0,0,0);stroke-width:0.5"/>
	<polygon id="pan_down"
        onmouseup="panDown()"
        onmouseover="doHighlight(evt, 'Click to pan down')"
        onmouseout="resetHighlight(evt)"
		points="116.032,32.0408 123.532,35.9678 131.032,32.0408 126.473,32.0408 126.473,28.9678 120.444,28.9678
			120.444,32.0408" transform="matrix(3.39111 0 0 2.98838 -369.822 -50.6287)"
         fill="rgb(99,154,206)"
		 style="stroke:rgb(0,0,0);stroke-width:0.5"/>
	<polygon id="pan_up"
        onmouseup="panUp()"
  onmouseover="doHighlight(evt, 'Click to pan up')"
        onmouseout="resetHighlight(evt)"
		points="116.032,32.0408 123.532,35.9678 131.032,32.0408 126.473,32.0408 126.473,28.9678 120.444,28.9678
			120.444,32.0408" transform="matrix(3.39111 0 0 -2.98838 -369.823 111.74)"
         fill="rgb(99,154,206)"
		 style="stroke:rgb(0,0,0);stroke-width:0.5"/>
	<g id="go_home" 
         onmouseup="panRestore()" 
         onmouseover="doHighlight(evt, 'Click to restore graph to original position')"
         onmouseout="resetHighlight(evt)"
         fill="rgb(99,154,206)"
         transform="matrix(1 0 0 1 0 -0.333333)">
		<rect x="196" y="11" width="26" height="26"
			transform="translate(-19.1111 -2.66667)"
			 style="stroke:rgb(0,0,0);stroke-width:1"/>
		<line x1="182" y1="16" x2="182" y2="28"
			transform="matrix(1 0 0 1 2.22222 0.444444)"
			 style="fill:none;stroke:rgb(0,0,0);stroke-width:2"/>
		<line x1="187" y1="22" x2="187" y2="28"
			transform="matrix(1 0 0 1 2.22222 0.444444)"
			 style="fill:none;stroke:rgb(0,0,0);stroke-width:2"/>
	<line x1="192" y1="13" x2="192" y2="28"
			transform="matrix(1 0 0 1 2.22222 0.444444)"
			 style="fill:none;stroke:rgb(0,0,0);stroke-width:2"/>
		<line x1="182" y1="28" x2="192" y2="28"
			transform="matrix(1 0 0 1 2.22222 0.444444)"
	style="fill:none;stroke:rgb(0,0,0);stroke-width:2"/>
		<line x1="189" y1="12" x2="179" y2="21"
			 style="fill:none;stroke:rgb(0,0,0);stroke-width:2"/>
		<line x1="188" y1="12" x2="199" y2="20"
			 style="fill:none;stroke:rgb(0,0,0);stroke-width:2"/>
	</g>
	<g id="zoom_out" onmouseup="zoomOut()" 
             onmouseover="doHighlight(evt, 'Click to zoom out')"
             onmouseout="resetHighlight(evt)"
             fill="rgb(99,154,206)"
             transform="matrix(1 0 0 1 0 0)">
		<rect x="116" y="8" width="26" height="26"
			 style="stroke:rgb(0,0,0);stroke-width:1"/>
		<ellipse cx="126" cy="18" rx="6" ry="6"
			 style="stroke:rgb(0,0,0);stroke-width:1"/>
		<line x1="130" y1="23" x2="137" y2="29"
			transform="matrix(1 0 0 1 0.888889 -0.888889)"
			 style="fill:none;stroke:rgb(0,0,0);stroke-width:2"/>
		<line x1="123" y1="18" x2="129" y2="18"
			 style="fill:none;stroke:rgb(0,0,0);stroke-width:2"/>
	</g>
	<g id="zoom_in" onmouseup="zoomIn()" 
             onmouseover="doHighlight(evt, 'Click to zoom in')"
             onmouseout="resetHighlight(evt)"
             fill="rgb(99,154,206)"
             transform="matrix(1 0 0 1 0.888889 -0.444444)">
		<rect x="116" y="8" width="26" height="26"
			transform="matrix(1 0 0 1 29.7778 0.444444)"
			 style="stroke:rgb(0,0,0);stroke-width:1"/>
		<ellipse cx="126" cy="18" rx="6" ry="6"
			transform="matrix(1 0 0 1 29.7778 0.444444)"
			 style="stroke:rgb(0,0,0);stroke-width:1"/>
		<line x1="130" y1="23" x2="137" y2="29"
			transform="matrix(1 0 0 1 30.6667 -0.444445)"
		style="fill:none;stroke:rgb(0,0,0);stroke-width:2"/>
		<line x1="123" y1="18" x2="129" y2="18"
			transform="matrix(1 0 0 1 29.7778 0.444444)"
			 style="fill:none;stroke:rgb(0,0,0);stroke-width:2"/>
		<line x1="156" y1="15" x2="156" y2="22"
			 style="fill:none;stroke:rgb(0,0,0);stroke-width:2"/>
	</g>
	<g>
		<rect x="117" y="40" width="452" height="14"
			transform="matrix(1.54201 0 0 1 -64.1436 -0.222222)"
			 style="fill:rgb(192,192,192);stroke:rgb(0,0,0);stroke-width:1"/>
		<text id="status_text" x="183px" y="48px"
			transform="matrix(1 0 0 1 -63.5556 3.00778)"
			 style="fill:rgb(0,0,0);font-size:14;font-family:Arial"> </text>
	</g>
</g>	
</svg>