<?xml version="1.0" encoding="UTF-8" standalone="no"?><!DOCTYPE svg PUBLIC "-//W3C//DTD SVG 1.0//EN" "http://www.w3.org/TR/2001/REC-SVG-20010904/DTD/svg10.dtd" [ <!ATTLIST svg xmlns:xlink CDATA #FIXED "http://www.w3.org/1999/xlink">]><!-- Generated by WinGraphviz version ver1.02.23, 08/01/2003 (08/04/2003)     For user: Avi Ma'ayan   Title: G    Pages: 1 --><svg width="543px" height="276px" xmlns="http://www.w3.org/2000/svg" xmlns:xlink="http://www.w3.org/1999/xlink"><g id="graph0" class="graph" style="font-family:Times New Roman;font-size:18.67;"><title>G</title><g id="node1" class="node"><title>RAPGEF1</title><a xlink:href="RAPGEF1.html"><ellipse cx="276" cy="135" rx="62" ry="24" style="fill:turquoise;stroke:turquoise;"/><text text-anchor="middle" x="276" y="142" style="font-family:Times New Roman;"><![CDATA[RAPGEF1]]></text></a></g><g id="node2" class="node"><title>BCAR1</title><a xlink:href="BCAR1.html"><ellipse cx="55" cy="231" rx="49" ry="24" style="fill:turquoise;stroke:turquoise;"/><text text-anchor="middle" x="55" y="238" style="font-family:Times New Roman;"><![CDATA[BCAR1]]></text></a></g><g id="edge2" class="edge"><title>RAPGEF1-&gt;BCAR1</title><path style="fill:none;stroke:#0000ff;" d="M227,157C189,173 135,197 98,213"/><polygon style="fill:#0000ff;stroke:#0000ff;" points="235,157 233,151 226,154 229,159 235,157"/><polygon style="fill:#0000ff;stroke:#0000ff;" points="92,213 94,218 100,215 97,210 92,213"/></g><g id="node4" class="node"><title>CRK</title><a xlink:href="CRK.html"><ellipse cx="167" cy="231" rx="38" ry="24" style="fill:turquoise;stroke:turquoise;"/><text text-anchor="middle" x="167" y="238" style="font-family:Times New Roman;"><![CDATA[CRK]]></text></a></g><g id="edge4" class="edge"><title>RAPGEF1-&gt;CRK</title><path style="fill:none;stroke:#0000ff;" d="M245,162C229,177 210,193 195,207"/><polygon style="fill:#0000ff;stroke:#0000ff;" points="253,161 249,155 243,159 247,165 253,161"/><polygon style="fill:#0000ff;stroke:#0000ff;" points="189,209 193,214 198,210 194,205 189,209"/></g><g id="node6" class="node"><title>CRKL</title><a xlink:href="CRKL.html"><ellipse cx="276" cy="231" rx="45" ry="24" style="fill:turquoise;stroke:turquoise;"/><text text-anchor="middle" x="276" y="238" style="font-family:Times New Roman;"><![CDATA[CRKL]]></text></a></g><g id="edge6" class="edge"><title>RAPGEF1-&gt;CRKL</title><path style="fill:none;stroke:#0000ff;" d="M276,166C276,177 276,190 276,201"/><polygon style="fill:#0000ff;stroke:#0000ff;" points="280,159 273,159 273,166 280,166 280,159"/><polygon style="fill:#0000ff;stroke:#0000ff;" points="273,207 280,207 280,201 273,201 273,207"/></g><g id="node8" class="node"><title>GRB2</title><a xlink:href="GRB2.html"><ellipse cx="389" cy="231" rx="44" ry="24" style="fill:turquoise;stroke:turquoise;"/><text text-anchor="middle" x="389" y="238" style="font-family:Times New Roman;"><![CDATA[GRB2]]></text></a></g><g id="edge8" class="edge"><title>RAPGEF1-&gt;GRB2</title><path style="fill:none;stroke:#0000ff;" d="M308,162C324,177 344,193 360,207"/><polygon style="fill:#0000ff;stroke:#0000ff;" points="305,155 301,161 306,165 310,159 305,155"/><polygon style="fill:#0000ff;stroke:#0000ff;" points="364,214 368,209 362,205 358,210 364,214"/></g><g id="node10" class="node"><title>SHC1</title><a xlink:href="SHC1.html"><ellipse cx="496" cy="231" rx="38" ry="24" style="fill:turquoise;stroke:turquoise;"/><text text-anchor="middle" x="496" y="238" style="font-family:Times New Roman;"><![CDATA[SHC1]]></text></a></g><g id="edge10" class="edge"><title>RAPGEF1-&gt;SHC1</title><path style="fill:none;stroke:#0000ff;" d="M325,155C358,170 405,190 445,207 450,210 456,213 460,214"/><polygon style="fill:#0000ff;stroke:#0000ff;" points="320,150 317,155 324,158 326,153 320,150"/><polygon style="fill:#0000ff;stroke:#0000ff;" points="464,219 466,214 461,211 458,217 464,219"/></g><g id="node12" class="node"><title>SRC</title><a xlink:href="SRC.html"><ellipse cx="276" cy="39" rx="36" ry="24" style="fill:turquoise;stroke:turquoise;"/><text text-anchor="middle" x="276" y="46" style="font-family:Times New Roman;"><![CDATA[SRC]]></text></a></g><g id="edge12" class="edge"><title>SRC-&gt;RAPGEF1</title><path style="fill:none;stroke:darkgreen;" d="M276,63C276,74 276,86 276,98"/><polygon style="fill:darkgreen;stroke:darkgreen;" points="280,98 276,111 273,98 280,98"/></g></g></svg>