<?xml version="1.0" encoding="UTF-8" standalone="no"?><!DOCTYPE svg PUBLIC "-//W3C//DTD SVG 1.0//EN" "http://www.w3.org/TR/2001/REC-SVG-20010904/DTD/svg10.dtd" [ <!ATTLIST svg xmlns:xlink CDATA #FIXED "http://www.w3.org/1999/xlink">]><!-- Generated by WinGraphviz version ver1.02.23, 08/01/2003 (08/04/2003)     For user: Avi Ma'ayan   Title: G    Pages: 1 --><svg width="735px" height="271px" xmlns="http://www.w3.org/2000/svg" xmlns:xlink="http://www.w3.org/1999/xlink"><g id="graph0" class="graph" style="font-family:Times New Roman;font-size:18.33;"><title>G</title><g id="node1" class="node"><title>ABL1</title><a xlink:href="ABL1.html"><ellipse cx="178" cy="38" rx="39" ry="23" style="fill:turquoise;stroke:turquoise;"/><text text-anchor="middle" x="178" y="45" style="font-family:Times New Roman;"><![CDATA[ABL1]]></text></a></g><g id="node2" class="node"><title>RASA1</title><a xlink:href="RASA1.html"><ellipse cx="328" cy="133" rx="47" ry="23" style="fill:turquoise;stroke:turquoise;"/><text text-anchor="middle" x="328" y="139" style="font-family:Times New Roman;"><![CDATA[RASA1]]></text></a></g><g id="edge2" class="edge"><title>ABL1-&gt;RASA1</title><path style="fill:none;stroke:#0000ff;" d="M210,58C234,74 268,95 292,110"/><polygon style="fill:#0000ff;stroke:#0000ff;" points="206,53 204,58 209,61 212,55 206,53"/><polygon style="fill:#0000ff;stroke:#0000ff;" points="297,117 299,112 294,108 292,113 297,117"/></g><g id="node8" class="node"><title>HRAS</title><a xlink:href="HRAS.html"><ellipse cx="51" cy="227" rx="44" ry="23" style="fill:turquoise;stroke:turquoise;"/><text text-anchor="middle" x="51" y="233" style="font-family:Times New Roman;"><![CDATA[HRAS]]></text></a></g><g id="edge8" class="edge"><title>RASA1-&gt;HRAS</title><path style="fill:none;stroke:#ff0000;" d="M288,144C243,157 170,181 107,203 106,203 104,205 102,205"/><polyline style="fill:none;stroke:#ff0000;" points="99,195 108,212 "/></g><g id="node10" class="node"><title>GRLF1</title><a xlink:href="GRLF1.html"><ellipse cx="165" cy="227" rx="45" ry="23" style="fill:turquoise;stroke:turquoise;"/><text text-anchor="middle" x="165" y="233" style="font-family:Times New Roman;"><![CDATA[GRLF1]]></text></a></g><g id="edge10" class="edge"><title>RASA1-&gt;GRLF1</title><path style="fill:none;stroke:#0000ff;" d="M290,155C263,171 227,191 201,206"/><polygon style="fill:#0000ff;stroke:#0000ff;" points="298,153 295,148 290,152 293,157 298,153"/><polygon style="fill:#0000ff;stroke:#0000ff;" points="195,206 197,211 203,208 200,203 195,206"/></g><g id="node12" class="node"><title>PXN</title><a xlink:href="PXN.html"><ellipse cx="272" cy="227" rx="37" ry="23" style="fill:turquoise;stroke:turquoise;"/><text text-anchor="middle" x="272" y="233" style="font-family:Times New Roman;"><![CDATA[PXN]]></text></a></g><g id="edge12" class="edge"><title>RASA1-&gt;PXN</title><path style="fill:none;stroke:#0000ff;" d="M312,160C305,173 295,186 288,199"/><polygon style="fill:#0000ff;stroke:#0000ff;" points="318,156 312,153 310,159 315,161 318,156"/><polygon style="fill:#0000ff;stroke:#0000ff;" points="282,203 288,206 290,201 285,198 282,203"/></g><g id="node14" class="node"><title>PIK3CA</title><a xlink:href="PIK3CA.html"><ellipse cx="386" cy="227" rx="52" ry="23" style="fill:turquoise;stroke:turquoise;"/><text text-anchor="middle" x="386" y="233" style="font-family:Times New Roman;"><![CDATA[PIK3CA]]></text></a></g><g id="edge14" class="edge"><title>RASA1-&gt;PIK3CA</title><path style="fill:none;stroke:#0000ff;" d="M345,160C353,173 362,186 369,199"/><polygon style="fill:#0000ff;stroke:#0000ff;" points="345,153 340,156 343,161 348,159 345,153"/><polygon style="fill:#0000ff;stroke:#0000ff;" points="369,206 374,203 371,198 366,201 369,206"/></g><g id="node16" class="node"><title>GNB2L1</title><a xlink:href="GNB2L1.html"><ellipse cx="515" cy="227" rx="53" ry="23" style="fill:turquoise;stroke:turquoise;"/><text text-anchor="middle" x="515" y="233" style="font-family:Times New Roman;"><![CDATA[GNB2L1]]></text></a></g><g id="edge16" class="edge"><title>RASA1-&gt;GNB2L1</title><path style="fill:none;stroke:#0000ff;" d="M369,152C400,168 443,190 475,206"/><polygon style="fill:#0000ff;stroke:#0000ff;" points="364,147 361,152 367,155 370,150 364,147"/><polygon style="fill:#0000ff;stroke:#0000ff;" points="479,211 481,206 476,203 474,208 479,211"/></g><g id="node18" class="node"><title>ARHGAP5</title><a xlink:href="ARHGAP5.html"><ellipse cx="659" cy="227" rx="66" ry="23" style="fill:turquoise;stroke:turquoise;"/><text text-anchor="middle" x="659" y="233" style="font-family:Times New Roman;"><![CDATA[ARHGAP5]]></text></a></g><g id="edge18" class="edge"><title>RASA1-&gt;ARHGAP5</title><path style="fill:none;stroke:#0000ff;" d="M377,146C426,160 509,184 581,203 589,206 595,207 603,210"/><polygon style="fill:#0000ff;stroke:#0000ff;" points="370,142 370,147 377,148 377,143 370,142"/><polygon style="fill:#0000ff;stroke:#0000ff;" points="607,214 610,208 603,207 600,212 607,214"/></g><g id="node4" class="node"><title>FYN</title><a xlink:href="FYN.html"><ellipse cx="278" cy="38" rx="37" ry="23" style="fill:turquoise;stroke:turquoise;"/><text text-anchor="middle" x="278" y="45" style="font-family:Times New Roman;"><![CDATA[FYN]]></text></a></g><g id="edge4" class="edge"><title>FYN-&gt;RASA1</title><path style="fill:none;stroke:#0000ff;" d="M293,66C299,79 307,92 314,105"/><polygon style="fill:#0000ff;stroke:#0000ff;" points="293,59 288,62 290,67 295,64 293,59"/><polygon style="fill:#0000ff;stroke:#0000ff;" points="314,112 319,109 316,104 311,106 314,112"/></g><g id="node6" class="node"><title>INSR</title><a xlink:href="INSR.html"><ellipse cx="379" cy="38" rx="39" ry="23" style="fill:turquoise;stroke:turquoise;"/><text text-anchor="middle" x="379" y="45" style="font-family:Times New Roman;"><![CDATA[INSR]]></text></a></g><g id="edge6" class="edge"><title>INSR-&gt;RASA1</title><path style="fill:none;stroke:darkgreen;" d="M367,61C361,72 354,87 347,99"/><polygon style="fill:darkgreen;stroke:darkgreen;" points="349,100 341,110 344,97 349,100"/></g><g id="node20" class="node"><title>SRC</title><a xlink:href="SRC.html"><ellipse cx="477" cy="38" rx="35" ry="23" style="fill:turquoise;stroke:turquoise;"/><text text-anchor="middle" x="477" y="45" style="font-family:Times New Roman;"><![CDATA[SRC]]></text></a></g><g id="edge20" class="edge"><title>SRC-&gt;RASA1</title><path style="fill:none;stroke:darkgreen;" d="M451,55C428,70 394,91 369,108"/><polygon style="fill:darkgreen;stroke:darkgreen;" points="371,110 358,114 367,105 371,110"/></g></g></svg>