<?xml version="1.0" encoding="UTF-8" standalone="no"?><!DOCTYPE svg PUBLIC "-//W3C//DTD SVG 1.0//EN" "http://www.w3.org/TR/2001/REC-SVG-20010904/DTD/svg10.dtd" [ <!ATTLIST svg xmlns:xlink CDATA #FIXED "http://www.w3.org/1999/xlink">]><!-- Generated by WinGraphviz version ver1.02.23, 08/01/2003 (08/04/2003)     For user: Avi Ma'ayan   Title: G    Pages: 1 --><!--="735px" height="198px" xmlns="http://www.w3.org/2000/svg" --><svg onload="init(evt)" width="735px" height="600px" xmlns="http://www.w3.org/2000/svg" xmlns:xlink="http://www.w3.org/1999/xlink">
<script type="text/ecmascript">
<![CDATA[
var svgDocument;
var zoomAmt;
var xOffset;
var yOffset;
var scale;
var maxScale;
var imageWidth;
var imageHeight;
function init(evt)
{
    svgDocument = evt.getTarget().getOwnerDocument();
    zoomAmt = 0;
    xOffset = 0;
    yOffset = 60;
    scale = 0.8;
    maxScale = 10;
    imageWidth = 742;
    imageHeight = 606;
    panRestore();
    //panUp();
}
function transformMap ()
{
    var obj = svgDocument.getElementById("Pathway");
    var centerX = imageWidth  / 2.0;
    var centerY = imageHeight / 2.0;
    var adjustX = (-centerX * (scale - 0.8)) + xOffset;
    var adjustY = (-centerY * (scale - 0.8)) + yOffset;
    var transParms = 'translate(' + adjustX + ',' + adjustY + ') ';
    transParms += 'scale(' + scale + ')';
    // alert(transParms);
    obj.setAttribute("transform", transParms); 
}
function click_node(id)
{
    var testx = parent.click_node;
    if (typeof(testx) == "function")
    {
		parent.click_node(id);
    }
}
function click_relation(id)
{
    var testx = parent.click_relation;
    if (typeof(testx) == "function")
    {
        parent.click_relation(id);
    }
}
function click_pathway(toId, fromId)
{
    var testx = parent.click_pathway;
    if (typeof(testx) == "function")
    {
	parent.click_pathway(toId, fromId);
    }
}
function check_interpath(evt, pathid)
{
  var obj = evt.getTarget();
  var testx = parent.is_frompath;
  var child = obj.firstChild;
  if (typeof(testx) == "function")
  {
    if (parent.is_frompath(pathid))
    {
      while (child != null)
      {
        if (child.nodeType == 1)
        {
          if ((child.localName == "g") || (child.localName == "polyline"))
          {
            child.setAttribute("style", "fill:none;stroke:red");
          }
          else if (child.localName == "polygon")
          {
            child.setAttribute("style", "fill:red;stroke:red");
          }
        }
        child = child.nextSibling;
      }
    }
  }
}
function set_status (msg)
{
 var obj = svgDocument.getElementById("status_text");
  var child;
 
  child = obj.firstChild;
  if ((child != null) && (child.nodeType == 3))
  {
    if ((msg != null) && (msg.length > 0))
    {
      child.data = msg;
    }
    else
    {
child.data = " ";
    }
  }
}
function zoomIn ()
{
    scale = scale + 0.8;
    if (scale > maxScale)
    {
       scale = maxScale;
    }
    transformMap();
    panUp();
    panUp();
    panUp();
    panUp();
    panUp();
    panUp();
    panUp();
    panUp();
    panUp();
    panUp();
    panUp();
    panUp();
}
function zoomOut ()
{
    scale = scale - 0.8;
    if (scale < 0.8)
    {
       scale = 0.8;
    }
    transformMap();
    panDown();
    panDown();
    panDown();
    panDown();
    panDown();
    panDown();
    panDown();
    panDown();
    panDown();
    panDown();
    panDown();
    panDown();
}
function panUp ()
{
    yOffset = yOffset + 20;
    transformMap();
}
function panDown ()
{
    yOffset = yOffset - 20;
    transformMap();
}
function panLeft ()
{
    xOffset = xOffset + 20;
    transformMap();
}
function panRight ()
{
    xOffset = xOffset - 20;
    transformMap();
}
function panRestore ()
{
    xOffset = 0;
    yOffset = 0;
    scale = 0.5;
    //obj = svgDocument.getElementById("zoom");
    //obj.setAttribute("x1", 0);
    //obj.setAttribute("x2", 0);
    transformMap();    
}
function doHighlight (evt, msg)
{
  var obj = evt.getTarget();
  obj.setAttribute("fill", "rgb(239,24,33)");
  set_status(msg);
}
function resetHighlight (evt)
{
  var obj = evt.getTarget();
  obj.setAttribute("fill", "rgb(99,154,206)");
  set_status(" ");
}
// ]]>
</script>
<defs>
<clipPath id="theClip">
<polygon points="1 61, 741 61, 741 665, 1 665"
style="fill: none;"/>
</clipPath>
</defs>
<!-- viewport outline -->
<rect x="0" y="61" width="742" height="606"
style="stroke: black; stroke-width: 1; fill: none;"/>
<!-- pathway graph style="clip-path: url(#theClip);" -->
<g style="clip-path: url(#theClip);">
<g id="Pathway"  transform="translate(0,60)">
<!-- prefile.include ends, begin pathway graph -->
<g id="stkecm;CMP_10705" class="graph">
</g>
<g id="graph0" class="graph" style="font-family:Times New Roman;font-size:13.06;"><title>G</title><g id="node1" class="node"><title>CAPN1</title><a xlink:href="CAPN1.html"><ellipse cx="41" cy="29" rx="34" ry="16" style="fill:turquoise;stroke:turquoise;"/><text text-anchor="middle" x="41" y="34" style="font-family:Times New Roman;"><![CDATA[CAPN1]]></text></a></g><g id="node2" class="node"><title>RHOA</title><a xlink:href="RHOA.html"><ellipse cx="371" cy="96" rx="33" ry="16" style="fill:turquoise;stroke:turquoise;"/><text text-anchor="middle" x="371" y="101" style="font-family:Times New Roman;"><![CDATA[RHOA]]></text></a></g><g id="edge2" class="edge"><title>CAPN1-&gt;RHOA</title><path style="fill:none;stroke:#ff0000;" d="M66,40C72,42 78,45 84,46 168,69 268,84 325,91"/><polyline style="fill:none;stroke:#ff0000;" points="322,97 324,83 "/></g><g id="node12" class="node"><title>KTN1</title><a xlink:href="KTN1.html"><ellipse cx="107" cy="164" rx="29" ry="16" style="fill:limegreen;stroke:limegreen;"/><text text-anchor="middle" x="107" y="168" style="font-family:Times New Roman;"><![CDATA[KTN1]]></text></a></g><g id="edge12" class="edge"><title>RHOA-&gt;KTN1</title><path style="fill:none;stroke:darkgreen;" d="M338,102C294,109 212,125 145,147 143,148 140,149 138,150"/><polygon style="fill:darkgreen;stroke:darkgreen;" points="140,151 130,153 138,147 140,151"/></g><g id="node14" class="node"><title>PIP5K1C</title><a xlink:href="PIP5K1C.html"><ellipse cx="192" cy="164" rx="38" ry="16" style="fill:turquoise;stroke:turquoise;"/><text text-anchor="middle" x="192" y="168" style="font-family:Times New Roman;"><![CDATA[PIP5K1C]]></text></a></g><g id="edge14" class="edge"><title>RHOA-&gt;PIP5K1C</title><path style="fill:none;stroke:darkgreen;" d="M344,107C313,118 263,137 228,150"/><polygon style="fill:darkgreen;stroke:darkgreen;" points="230,151 221,152 228,147 230,151"/></g><g id="node16" class="node"><title>PRKCA</title><a xlink:href="PRKCA.html"><ellipse cx="284" cy="164" rx="37" ry="16" style="fill:turquoise;stroke:turquoise;"/><text text-anchor="middle" x="284" y="168" style="font-family:Times New Roman;"><![CDATA[PRKCA]]></text></a></g><g id="edge16" class="edge"><title>RHOA-&gt;PRKCA</title><path style="fill:none;stroke:darkgreen;" d="M352,110C339,120 323,133 309,143"/><polygon style="fill:darkgreen;stroke:darkgreen;" points="311,144 303,149 308,141 311,144"/></g><g id="node18" class="node"><title>PLCG1</title><a xlink:href="PLCG1.html"><ellipse cx="371" cy="164" rx="32" ry="16" style="fill:turquoise;stroke:turquoise;"/><text text-anchor="middle" x="371" y="168" style="font-family:Times New Roman;"><![CDATA[PLCG1]]></text></a></g><g id="edge18" class="edge"><title>RHOA-&gt;PLCG1</title><path style="fill:none;stroke:darkgreen;" d="M371,113C371,121 371,129 371,137"/><polygon style="fill:darkgreen;stroke:darkgreen;" points="374,137 371,147 369,137 374,137"/></g><g id="node20" class="node"><title>PTPN1</title><a xlink:href="PTPN1.html"><ellipse cx="452" cy="164" rx="31" ry="16" style="fill:turquoise;stroke:turquoise;"/><text text-anchor="middle" x="452" y="168" style="font-family:Times New Roman;"><![CDATA[PTPN1]]></text></a></g><g id="edge20" class="edge"><title>RHOA-&gt;PTPN1</title><path style="fill:none;stroke:#ff0000;" d="M389,111C399,120 413,131 424,141"/><polyline style="fill:none;stroke:#ff0000;" points="419,146 428,136 "/></g><g id="node22" class="node"><title>ROCK1</title><a xlink:href="ROCK1.html"><ellipse cx="535" cy="164" rx="34" ry="16" style="fill:turquoise;stroke:turquoise;"/><text text-anchor="middle" x="535" y="168" style="font-family:Times New Roman;"><![CDATA[ROCK1]]></text></a></g><g id="edge22" class="edge"><title>RHOA-&gt;ROCK1</title><path style="fill:none;stroke:darkgreen;" d="M397,107C425,119 470,137 500,150"/><polygon style="fill:darkgreen;stroke:darkgreen;" points="500,147 508,152 499,151 500,147"/></g><g id="node24" class="node"><title>PLD1</title><a xlink:href="PLD1.html"><ellipse cx="613" cy="164" rx="27" ry="16" style="fill:turquoise;stroke:turquoise;"/><text text-anchor="middle" x="613" y="168" style="font-family:Times New Roman;"><![CDATA[PLD1]]></text></a></g><g id="edge24" class="edge"><title>RHOA-&gt;PLD1</title><path style="fill:none;stroke:darkgreen;" d="M403,102C444,110 517,126 578,147 580,148 583,149 584,150"/><polygon style="fill:darkgreen;stroke:darkgreen;" points="584,147 592,153 583,151 584,147"/></g><g id="node4" class="node"><title>FLNA</title><a xlink:href="FLNA.html"><ellipse cx="124" cy="29" rx="31" ry="16" style="fill:turquoise;stroke:turquoise;"/><text text-anchor="middle" x="124" y="34" style="font-family:Times New Roman;"><![CDATA[FLNA]]></text></a></g><g id="edge4" class="edge"><title>FLNA-&gt;RHOA</title><path style="fill:none;stroke:#0000ff;" d="M152,41C155,43 160,44 164,46 223,66 293,82 334,90"/><polygon style="fill:#0000ff;stroke:#0000ff;" points="149,39 147,42 152,43 154,40 149,39"/><polygon style="fill:#0000ff;stroke:#0000ff;" points="339,93 339,89 334,88 334,92 339,93"/></g><g id="node6" class="node"><title>ARHGAP26</title><a xlink:href="ARHGAP26.html"><ellipse cx="223" cy="29" rx="51" ry="16" style="fill:turquoise;stroke:turquoise;"/><text text-anchor="middle" x="223" y="34" style="font-family:Times New Roman;"><![CDATA[ARHGAP26]]></text></a></g><g id="edge6" class="edge"><title>ARHGAP26-&gt;RHOA</title><path style="fill:none;stroke:#ff0000;" d="M253,43C278,54 310,68 334,80"/><polyline style="fill:none;stroke:#ff0000;" points="330,85 336,73 "/></g><g id="node8" class="node"><title>GRLF1</title><a xlink:href="GRLF1.html"><ellipse cx="324" cy="29" rx="32" ry="16" style="fill:turquoise;stroke:turquoise;"/><text text-anchor="middle" x="324" y="34" style="font-family:Times New Roman;"><![CDATA[GRLF1]]></text></a></g><g id="edge8" class="edge"><title>GRLF1-&gt;RHOA</title><path style="fill:none;stroke:#ff0000;" d="M335,45C340,52 347,61 352,69"/><polyline style="fill:none;stroke:#ff0000;" points="346,73 358,65 "/></g><g id="node10" class="node"><title>PRKACA</title><a xlink:href="PRKACA.html"><ellipse cx="417" cy="29" rx="43" ry="16" style="fill:turquoise;stroke:turquoise;"/><text text-anchor="middle" x="417" y="34" style="font-family:Times New Roman;"><![CDATA[PRKACA]]></text></a></g><g id="edge10" class="edge"><title>PRKACA-&gt;RHOA</title><path style="fill:none;stroke:darkgreen;" d="M406,45C401,54 393,64 387,73"/><polygon style="fill:darkgreen;stroke:darkgreen;" points="389,74 382,81 385,71 389,74"/></g><g id="node26" class="node"><title>ARHGAP5</title><a xlink:href="ARHGAP5.html"><ellipse cx="526" cy="29" rx="47" ry="16" style="fill:turquoise;stroke:turquoise;"/><text text-anchor="middle" x="526" y="34" style="font-family:Times New Roman;"><![CDATA[ARHGAP5]]></text></a></g><g id="edge26" class="edge"><title>ARHGAP5-&gt;RHOA</title><path style="fill:none;stroke:#ff0000;" d="M496,42C471,53 434,68 407,81"/><polyline style="fill:none;stroke:#ff0000;" points="406,73 412,86 "/></g><g id="node28" class="node"><title>TRIO</title><a xlink:href="TRIO.html"><ellipse cx="619" cy="29" rx="28" ry="16" style="fill:turquoise;stroke:turquoise;"/><text text-anchor="middle" x="619" y="34" style="font-family:Times New Roman;"><![CDATA[TRIO]]></text></a></g><g id="edge28" class="edge"><title>TRIO-&gt;RHOA</title><path style="fill:none;stroke:darkgreen;" d="M597,40C592,42 586,44 582,46 523,66 454,82 411,89"/><polygon style="fill:darkgreen;stroke:darkgreen;" points="412,91 403,91 411,86 412,91"/></g><g id="node30" class="node"><title>VAV1</title><a xlink:href="VAV1.html"><ellipse cx="695" cy="29" rx="30" ry="16" style="fill:turquoise;stroke:turquoise;"/><text text-anchor="middle" x="695" y="34" style="font-family:Times New Roman;"><![CDATA[VAV1]]></text></a></g><g id="edge30" class="edge"><title>VAV1-&gt;RHOA</title><path style="fill:none;stroke:darkgreen;" d="M672,40C667,42 662,45 656,46 571,71 469,85 413,93"/><polygon style="fill:darkgreen;stroke:darkgreen;" points="413,95 403,94 413,91 413,95"/></g></g></g></g>
<!-- navigation controls -->
<g id="navbox">
	<rect x="0" y="0" width="742" height="60"
		 style="fill:rgb(206,207,206);stroke:rgb(0,0,0);stroke-width:1"/>

	<polygon id="pan_right"
        onmouseup="panRight()"
        onmouseover="doHighlight(evt, 'Click to pan to the right')"
        onmouseout="resetHighlight(evt)"
		points="28.0732,13 32,20.5 28.0732,28 28.0732,23.4412 25,23.4412 25,17.4118 28.0732,17.4118"
		 transform="matrix(3.39111 0 0 2.98838 -12.6265 -29.7101)"
         fill="rgb(99,154,206)"
		 style="stroke:rgb(0,0,0);stroke-width:0.5"/>
	<polygon id="pan_left"
        onmouseup="panLeft()"
        onmouseover="doHighlight(evt, 'Click to pan to the left')"
        onmouseout="resetHighlight(evt)"
		points="123.991,25 120.064,32.5 123.991,40 123.991,35.4412 127.064,35.4412 127.064,29.4118
			123.991,29.4118" transform="matrix(3.39111 0 0 2.98838 -404.865 -65.5706)"
         fill="rgb(99,154,206)"
		 style="stroke:rgb(0,0,0);stroke-width:0.5"/>
	<polygon id="pan_down"
        onmouseup="panDown()"
        onmouseover="doHighlight(evt, 'Click to pan down')"
        onmouseout="resetHighlight(evt)"
		points="116.032,32.0408 123.532,35.9678 131.032,32.0408 126.473,32.0408 126.473,28.9678 120.444,28.9678
			120.444,32.0408" transform="matrix(3.39111 0 0 2.98838 -369.822 -50.6287)"
         fill="rgb(99,154,206)"
		 style="stroke:rgb(0,0,0);stroke-width:0.5"/>
	<polygon id="pan_up"
        onmouseup="panUp()"
  onmouseover="doHighlight(evt, 'Click to pan up')"
        onmouseout="resetHighlight(evt)"
		points="116.032,32.0408 123.532,35.9678 131.032,32.0408 126.473,32.0408 126.473,28.9678 120.444,28.9678
			120.444,32.0408" transform="matrix(3.39111 0 0 -2.98838 -369.823 111.74)"
         fill="rgb(99,154,206)"
		 style="stroke:rgb(0,0,0);stroke-width:0.5"/>
	<g id="go_home" 
         onmouseup="panRestore()" 
         onmouseover="doHighlight(evt, 'Click to restore graph to original position')"
         onmouseout="resetHighlight(evt)"
         fill="rgb(99,154,206)"
         transform="matrix(1 0 0 1 0 -0.333333)">
		<rect x="196" y="11" width="26" height="26"
			transform="translate(-19.1111 -2.66667)"
			 style="stroke:rgb(0,0,0);stroke-width:1"/>
		<line x1="182" y1="16" x2="182" y2="28"
			transform="matrix(1 0 0 1 2.22222 0.444444)"
			 style="fill:none;stroke:rgb(0,0,0);stroke-width:2"/>
		<line x1="187" y1="22" x2="187" y2="28"
			transform="matrix(1 0 0 1 2.22222 0.444444)"
			 style="fill:none;stroke:rgb(0,0,0);stroke-width:2"/>
	<line x1="192" y1="13" x2="192" y2="28"
			transform="matrix(1 0 0 1 2.22222 0.444444)"
			 style="fill:none;stroke:rgb(0,0,0);stroke-width:2"/>
		<line x1="182" y1="28" x2="192" y2="28"
			transform="matrix(1 0 0 1 2.22222 0.444444)"
	style="fill:none;stroke:rgb(0,0,0);stroke-width:2"/>
		<line x1="189" y1="12" x2="179" y2="21"
			 style="fill:none;stroke:rgb(0,0,0);stroke-width:2"/>
		<line x1="188" y1="12" x2="199" y2="20"
			 style="fill:none;stroke:rgb(0,0,0);stroke-width:2"/>
	</g>
	<g id="zoom_out" onmouseup="zoomOut()" 
             onmouseover="doHighlight(evt, 'Click to zoom out')"
             onmouseout="resetHighlight(evt)"
             fill="rgb(99,154,206)"
             transform="matrix(1 0 0 1 0 0)">
		<rect x="116" y="8" width="26" height="26"
			 style="stroke:rgb(0,0,0);stroke-width:1"/>
		<ellipse cx="126" cy="18" rx="6" ry="6"
			 style="stroke:rgb(0,0,0);stroke-width:1"/>
		<line x1="130" y1="23" x2="137" y2="29"
			transform="matrix(1 0 0 1 0.888889 -0.888889)"
			 style="fill:none;stroke:rgb(0,0,0);stroke-width:2"/>
		<line x1="123" y1="18" x2="129" y2="18"
			 style="fill:none;stroke:rgb(0,0,0);stroke-width:2"/>
	</g>
	<g id="zoom_in" onmouseup="zoomIn()" 
             onmouseover="doHighlight(evt, 'Click to zoom in')"
             onmouseout="resetHighlight(evt)"
             fill="rgb(99,154,206)"
             transform="matrix(1 0 0 1 0.888889 -0.444444)">
		<rect x="116" y="8" width="26" height="26"
			transform="matrix(1 0 0 1 29.7778 0.444444)"
			 style="stroke:rgb(0,0,0);stroke-width:1"/>
		<ellipse cx="126" cy="18" rx="6" ry="6"
			transform="matrix(1 0 0 1 29.7778 0.444444)"
			 style="stroke:rgb(0,0,0);stroke-width:1"/>
		<line x1="130" y1="23" x2="137" y2="29"
			transform="matrix(1 0 0 1 30.6667 -0.444445)"
		style="fill:none;stroke:rgb(0,0,0);stroke-width:2"/>
		<line x1="123" y1="18" x2="129" y2="18"
			transform="matrix(1 0 0 1 29.7778 0.444444)"
			 style="fill:none;stroke:rgb(0,0,0);stroke-width:2"/>
		<line x1="156" y1="15" x2="156" y2="22"
			 style="fill:none;stroke:rgb(0,0,0);stroke-width:2"/>
	</g>
	<g>
		<rect x="117" y="40" width="452" height="14"
			transform="matrix(1.54201 0 0 1 -64.1436 -0.222222)"
			 style="fill:rgb(192,192,192);stroke:rgb(0,0,0);stroke-width:1"/>
		<text id="status_text" x="183px" y="48px"
			transform="matrix(1 0 0 1 -63.5556 3.00778)"
			 style="fill:rgb(0,0,0);font-size:14;font-family:Arial"> </text>
	</g>
</g>	
</svg>