<?xml version="1.0" encoding="UTF-8" standalone="no"?><!DOCTYPE svg PUBLIC "-//W3C//DTD SVG 1.0//EN" "http://www.w3.org/TR/2001/REC-SVG-20010904/DTD/svg10.dtd" [ <!ATTLIST svg xmlns:xlink CDATA #FIXED "http://www.w3.org/1999/xlink">]><!-- Generated by WinGraphviz version ver1.02.23, 08/01/2003 (08/04/2003)     For user: Avi Ma'ayan   Title: G    Pages: 1 --><svg width="631px" height="276px" xmlns="http://www.w3.org/2000/svg" xmlns:xlink="http://www.w3.org/1999/xlink"><g id="graph0" class="graph" style="font-family:Times New Roman;font-size:18.67;"><title>G</title><g id="node1" class="node"><title>CRK</title><a xlink:href="CRK.html"><ellipse cx="45" cy="39" rx="38" ry="24" style="fill:turquoise;stroke:turquoise;"/><text text-anchor="middle" x="45" y="46" style="font-family:Times New Roman;"><![CDATA[CRK]]></text></a></g><g id="node2" class="node"><title>RICS</title><a xlink:href="RICS.html"><ellipse cx="313" cy="135" rx="38" ry="24" style="fill:turquoise;stroke:turquoise;"/><text text-anchor="middle" x="313" y="142" style="font-family:Times New Roman;"><![CDATA[RICS]]></text></a></g><g id="edge2" class="edge"><title>CRK-&gt;RICS</title><path style="fill:none;stroke:#0000ff;" d="M80,57C85,59 90,61 96,63 155,87 227,110 270,123"/><polygon style="fill:#0000ff;stroke:#0000ff;" points="76,53 73,58 80,59 82,54 76,53"/><polygon style="fill:#0000ff;stroke:#0000ff;" points="277,127 277,122 270,121 270,126 277,127"/></g><g id="node12" class="node"><title>RAC1</title><a xlink:href="RAC1.html"><ellipse cx="313" cy="231" rx="41" ry="24" style="fill:turquoise;stroke:turquoise;"/><text text-anchor="middle" x="313" y="238" style="font-family:Times New Roman;"><![CDATA[RAC1]]></text></a></g><g id="edge12" class="edge"><title>RICS-&gt;RAC1</title><path style="fill:none;stroke:#ff0000;" d="M313,159C313,167 313,178 313,187"/><polyline style="fill:none;stroke:#ff0000;" points="304,187 324,187 "/></g><g id="node4" class="node"><title>CRKL</title><a xlink:href="CRKL.html"><ellipse cx="153" cy="39" rx="45" ry="24" style="fill:turquoise;stroke:turquoise;"/><text text-anchor="middle" x="153" y="46" style="font-family:Times New Roman;"><![CDATA[CRKL]]></text></a></g><g id="edge4" class="edge"><title>CRKL-&gt;RICS</title><path style="fill:none;stroke:#0000ff;" d="M189,61C214,77 253,99 278,114"/><polygon style="fill:#0000ff;stroke:#0000ff;" points="185,55 182,61 187,63 190,58 185,55"/><polygon style="fill:#0000ff;stroke:#0000ff;" points="284,121 286,115 281,111 278,117 284,121"/></g><g id="node6" class="node"><title>FYN</title><a xlink:href="FYN.html"><ellipse cx="261" cy="39" rx="38" ry="24" style="fill:turquoise;stroke:turquoise;"/><text text-anchor="middle" x="261" y="46" style="font-family:Times New Roman;"><![CDATA[FYN]]></text></a></g><g id="edge6" class="edge"><title>FYN-&gt;RICS</title><path style="fill:none;stroke:darkgreen;" d="M273,62C280,73 286,87 294,101"/><polygon style="fill:darkgreen;stroke:darkgreen;" points="297,98 301,111 292,102 297,98"/></g><g id="node8" class="node"><title>GAB1</title><a xlink:href="GAB1.html"><ellipse cx="366" cy="39" rx="42" ry="24" style="fill:turquoise;stroke:turquoise;"/><text text-anchor="middle" x="366" y="46" style="font-family:Times New Roman;"><![CDATA[GAB1]]></text></a></g><g id="edge8" class="edge"><title>GAB1-&gt;RICS</title><path style="fill:none;stroke:#0000ff;" d="M350,67C344,81 336,94 328,107"/><polygon style="fill:#0000ff;stroke:#0000ff;" points="356,63 350,61 348,66 353,69 356,63"/><polygon style="fill:#0000ff;stroke:#0000ff;" points="322,111 328,114 330,109 325,106 322,111"/></g><g id="node10" class="node"><title>PLCG1</title><a xlink:href="PLCG1.html"><ellipse cx="480" cy="39" rx="46" ry="24" style="fill:turquoise;stroke:turquoise;"/><text text-anchor="middle" x="480" y="46" style="font-family:Times New Roman;"><![CDATA[PLCG1]]></text></a></g><g id="edge10" class="edge"><title>PLCG1-&gt;RICS</title><path style="fill:none;stroke:#0000ff;" d="M442,61C414,77 376,99 348,115"/><polygon style="fill:#0000ff;stroke:#0000ff;" points="449,61 446,55 441,58 444,63 449,61"/><polygon style="fill:#0000ff;stroke:#0000ff;" points="340,117 342,122 348,118 345,113 340,117"/></g><g id="node14" class="node"><title>SRC</title><a xlink:href="SRC.html"><ellipse cx="586" cy="39" rx="36" ry="24" style="fill:turquoise;stroke:turquoise;"/><text text-anchor="middle" x="586" y="46" style="font-family:Times New Roman;"><![CDATA[SRC]]></text></a></g><g id="edge14" class="edge"><title>SRC-&gt;RICS</title><path style="fill:none;stroke:darkgreen;" d="M558,55C551,58 545,61 538,63 478,87 408,110 362,122"/><polygon style="fill:darkgreen;stroke:darkgreen;" points="362,126 349,126 361,119 362,126"/></g></g></svg>