<?xml version="1.0" encoding="UTF-8" standalone="no"?><!DOCTYPE svg PUBLIC "-//W3C//DTD SVG 1.0//EN" "http://www.w3.org/TR/2001/REC-SVG-20010904/DTD/svg10.dtd" [ <!ATTLIST svg xmlns:xlink CDATA #FIXED "http://www.w3.org/1999/xlink">]><!-- Generated by WinGraphviz version ver1.02.23, 08/01/2003 (08/04/2003)     For user: Avi Ma'ayan   Title: G    Pages: 1 --><svg width="423px" height="276px" xmlns="http://www.w3.org/2000/svg" xmlns:xlink="http://www.w3.org/1999/xlink"><g id="graph0" class="graph" style="font-family:Times New Roman;font-size:18.67;"><title>G</title><g id="node1" class="node"><title>RHOA</title><a xlink:href="RHOA.html"><ellipse cx="213" cy="39" rx="48" ry="24" style="fill:turquoise;stroke:turquoise;"/><text text-anchor="middle" x="213" y="46" style="font-family:Times New Roman;"><![CDATA[RHOA]]></text></a></g><g id="node2" class="node"><title>ROCK1</title><a xlink:href="ROCK1.html"><ellipse cx="213" cy="135" rx="49" ry="24" style="fill:turquoise;stroke:turquoise;"/><text text-anchor="middle" x="213" y="142" style="font-family:Times New Roman;"><![CDATA[ROCK1]]></text></a></g><g id="edge2" class="edge"><title>RHOA-&gt;ROCK1</title><path style="fill:none;stroke:darkgreen;" d="M213,63C213,74 213,86 213,98"/><polygon style="fill:darkgreen;stroke:darkgreen;" points="217,98 213,111 210,98 217,98"/></g><g id="node4" class="node"><title>VIL2</title><a xlink:href="VIL2.html"><ellipse cx="45" cy="231" rx="38" ry="24" style="fill:turquoise;stroke:turquoise;"/><text text-anchor="middle" x="45" y="238" style="font-family:Times New Roman;"><![CDATA[VIL2]]></text></a></g><g id="edge4" class="edge"><title>ROCK1-&gt;VIL2</title><path style="fill:none;stroke:darkgreen;" d="M181,154C153,170 113,193 85,210"/><polygon style="fill:darkgreen;stroke:darkgreen;" points="88,213 74,215 85,206 88,213"/></g><g id="node6" class="node"><title>LIMK1</title><a xlink:href="LIMK1.html"><ellipse cx="155" cy="231" rx="48" ry="24" style="fill:turquoise;stroke:turquoise;"/><text text-anchor="middle" x="155" y="238" style="font-family:Times New Roman;"><![CDATA[LIMK1]]></text></a></g><g id="edge6" class="edge"><title>ROCK1-&gt;LIMK1</title><path style="fill:none;stroke:darkgreen;" d="M199,158C193,170 183,185 177,198"/><polygon style="fill:darkgreen;stroke:darkgreen;" points="179,199 170,209 174,195 179,199"/></g><g id="node8" class="node"><title>PTEN</title><a xlink:href="PTEN.html"><ellipse cx="272" cy="231" rx="44" ry="24" style="fill:turquoise;stroke:turquoise;"/><text text-anchor="middle" x="272" y="238" style="font-family:Times New Roman;"><![CDATA[PTEN]]></text></a></g><g id="edge8" class="edge"><title>ROCK1-&gt;PTEN</title><path style="fill:none;stroke:darkgreen;" d="M227,158C234,170 243,185 251,198"/><polygon style="fill:darkgreen;stroke:darkgreen;" points="254,195 258,209 249,199 254,195"/></g><g id="node10" class="node"><title>VIM</title><a xlink:href="VIM.html"><ellipse cx="377" cy="231" rx="37" ry="24" style="fill:turquoise;stroke:turquoise;"/><text text-anchor="middle" x="377" y="238" style="font-family:Times New Roman;"><![CDATA[VIM]]></text></a></g><g id="edge10" class="edge"><title>ROCK1-&gt;VIM</title><path style="fill:none;stroke:darkgreen;" d="M245,154C272,170 310,193 338,209"/><polygon style="fill:darkgreen;stroke:darkgreen;" points="340,206 349,215 336,211 340,206"/></g></g></svg>