<?xml version="1.0" encoding="UTF-8" standalone="no"?><!DOCTYPE svg PUBLIC "-//W3C//DTD SVG 1.0//EN" "http://www.w3.org/TR/2001/REC-SVG-20010904/DTD/svg10.dtd" [ <!ATTLIST svg xmlns:xlink CDATA #FIXED "http://www.w3.org/1999/xlink">]><!-- Generated by WinGraphviz version ver1.02.23, 08/01/2003 (08/04/2003)     For user: Avi Ma'ayan   Title: G    Pages: 1 --><svg width="735px" height="252px" xmlns="http://www.w3.org/2000/svg" xmlns:xlink="http://www.w3.org/1999/xlink"><g id="graph0" class="graph" style="font-family:Times New Roman;font-size:17.03;"><title>G</title><g id="node1" class="node"><title>ADAM12</title><a xlink:href="ADAM12.html"><ellipse cx="60" cy="35" rx="53" ry="21" style="fill:turquoise;stroke:turquoise;"/><text text-anchor="middle" x="60" y="41" style="font-family:Times New Roman;"><![CDATA[ADAM12]]></text></a></g><g id="node2" class="node"><title>SDC4</title><a xlink:href="SDC4.html"><ellipse cx="392" cy="123" rx="37" ry="21" style="fill:turquoise;stroke:turquoise;"/><text text-anchor="middle" x="392" y="129" style="font-family:Times New Roman;"><![CDATA[SDC4]]></text></a></g><g id="edge2" class="edge"><title>ADAM12-&gt;SDC4</title><path style="fill:none;stroke:#0000ff;" d="M105,51C111,53 118,55 124,57 204,80 297,103 350,114"/><polygon style="fill:#0000ff;stroke:#0000ff;" points="101,47 99,52 105,53 107,48 101,47"/><polygon style="fill:#0000ff;stroke:#0000ff;" points="356,118 356,113 350,112 350,117 356,118"/></g><g id="node16" class="node"><title>NUDT16L1</title><a xlink:href="NUDT16L1.html"><ellipse cx="328" cy="210" rx="59" ry="21" style="fill:turquoise;stroke:turquoise;"/><text text-anchor="middle" x="328" y="216" style="font-family:Times New Roman;"><![CDATA[NUDT16L1]]></text></a></g><g id="edge16" class="edge"><title>SDC4-&gt;NUDT16L1</title><path style="fill:none;stroke:#0000ff;" d="M373,148C366,159 355,173 348,183"/><polygon style="fill:#0000ff;stroke:#0000ff;" points="380,145 375,141 371,146 376,149 380,145"/><polygon style="fill:#0000ff;stroke:#0000ff;" points="342,186 347,190 350,185 345,181 342,186"/></g><g id="node18" class="node"><title>SDCBP</title><a xlink:href="SDCBP.html"><ellipse cx="455" cy="210" rx="45" ry="21" style="fill:turquoise;stroke:turquoise;"/><text text-anchor="middle" x="455" y="216" style="font-family:Times New Roman;"><![CDATA[SDCBP]]></text></a></g><g id="edge18" class="edge"><title>SDC4-&gt;SDCBP</title><path style="fill:none;stroke:#0000ff;" d="M410,148C417,159 428,173 435,185"/><polygon style="fill:#0000ff;stroke:#0000ff;" points="409,141 404,145 408,149 412,146 409,141"/><polygon style="fill:#0000ff;stroke:#0000ff;" points="437,191 442,187 438,182 433,186 437,191"/></g><g id="node4" class="node"><title>ACTN1</title><a xlink:href="ACTN1.html"><ellipse cx="180" cy="35" rx="45" ry="21" style="fill:turquoise;stroke:turquoise;"/><text text-anchor="middle" x="180" y="41" style="font-family:Times New Roman;"><![CDATA[ACTN1]]></text></a></g><g id="edge4" class="edge"><title>ACTN1-&gt;SDC4</title><path style="fill:none;stroke:#0000ff;" d="M219,51C258,68 318,91 355,107"/><polygon style="fill:#0000ff;stroke:#0000ff;" points="215,47 213,52 219,53 221,48 215,47"/><polygon style="fill:#0000ff;stroke:#0000ff;" points="360,112 363,107 356,104 354,109 360,112"/></g><g id="node6" class="node"><title>DNM2</title><a xlink:href="DNM2.html"><ellipse cx="291" cy="35" rx="43" ry="21" style="fill:turquoise;stroke:turquoise;"/><text text-anchor="middle" x="291" y="41" style="font-family:Times New Roman;"><![CDATA[DNM2]]></text></a></g><g id="edge6" class="edge"><title>DNM2-&gt;SDC4</title><path style="fill:none;stroke:#0000ff;" d="M316,58C332,70 350,87 365,101"/><polygon style="fill:#0000ff;stroke:#0000ff;" points="315,52 310,57 315,62 320,57 315,52"/><polygon style="fill:#0000ff;stroke:#0000ff;" points="369,107 372,102 367,98 364,103 369,107"/></g><g id="node8" class="node"><title>VIL2</title><a xlink:href="VIL2.html"><ellipse cx="392" cy="35" rx="35" ry="21" style="fill:turquoise;stroke:turquoise;"/><text text-anchor="middle" x="392" y="41" style="font-family:Times New Roman;"><![CDATA[VIL2]]></text></a></g><g id="edge8" class="edge"><title>VIL2-&gt;SDC4</title><path style="fill:none;stroke:#0000ff;" d="M392,63C392,73 392,85 392,95"/><polygon style="fill:#0000ff;stroke:#0000ff;" points="395,57 389,57 389,63 395,63 395,57"/><polygon style="fill:#0000ff;stroke:#0000ff;" points="389,101 395,101 395,95 389,95 389,101"/></g><g id="node10" class="node"><title>FYN</title><a xlink:href="FYN.html"><ellipse cx="484" cy="35" rx="35" ry="21" style="fill:turquoise;stroke:turquoise;"/><text text-anchor="middle" x="484" y="41" style="font-family:Times New Roman;"><![CDATA[FYN]]></text></a></g><g id="edge10" class="edge"><title>FYN-&gt;SDC4</title><path style="fill:none;stroke:darkgreen;" d="M465,53C451,65 434,83 420,96"/><polygon style="fill:darkgreen;stroke:darkgreen;" points="422,98 411,104 417,93 422,98"/></g><g id="node12" class="node"><title>PIP2</title><a xlink:href="PIP2.html"><ellipse cx="574" cy="35" rx="32" ry="21" style="fill:turquoise;stroke:turquoise;"/><text text-anchor="middle" x="574" y="41" style="font-family:Times New Roman;"><![CDATA[PIP2]]></text></a></g><g id="edge12" class="edge"><title>PIP2-&gt;SDC4</title><path style="fill:none;stroke:darkgreen;" d="M549,48C543,51 536,55 530,57 496,73 457,92 429,106"/><polygon style="fill:darkgreen;stroke:darkgreen;" points="433,107 421,109 431,102 433,107"/></g><g id="node14" class="node"><title>PRKCA</title><a xlink:href="PRKCA.html"><ellipse cx="678" cy="35" rx="48" ry="21" style="fill:turquoise;stroke:turquoise;"/><text text-anchor="middle" x="678" y="41" style="font-family:Times New Roman;"><![CDATA[PRKCA]]></text></a></g><g id="edge14" class="edge"><title>PRKCA-&gt;SDC4</title><path style="fill:none;stroke:darkgreen;" d="M641,50C633,52 625,55 618,57 556,78 483,98 438,110"/><polygon style="fill:darkgreen;stroke:darkgreen;" points="438,113 426,113 437,108 438,113"/></g></g></svg>