<?xml version="1.0" encoding="UTF-8" standalone="no"?><!DOCTYPE svg PUBLIC "-//W3C//DTD SVG 1.0//EN" "http://www.w3.org/TR/2001/REC-SVG-20010904/DTD/svg10.dtd" [ <!ATTLIST svg xmlns:xlink CDATA #FIXED "http://www.w3.org/1999/xlink">]><!-- Generated by WinGraphviz version ver1.02.23, 08/01/2003 (08/04/2003)     For user: Avi Ma'ayan   Title: G    Pages: 1 --><svg width="290px" height="180px" xmlns="http://www.w3.org/2000/svg" xmlns:xlink="http://www.w3.org/1999/xlink"><g id="graph0" class="graph" style="font-family:Times New Roman;font-size:18.67;"><title>G</title><g id="node1" class="node"><title>NF2</title><a xlink:href="NF2.html"><ellipse cx="42" cy="39" rx="36" ry="24" style="fill:turquoise;stroke:turquoise;"/><text text-anchor="middle" x="42" y="46" style="font-family:Times New Roman;"><![CDATA[NF2]]></text></a></g><g id="node2" class="node"><title>SDCBP</title><a xlink:href="SDCBP.html"><ellipse cx="138" cy="135" rx="49" ry="24" style="fill:turquoise;stroke:turquoise;"/><text text-anchor="middle" x="138" y="142" style="font-family:Times New Roman;"><![CDATA[SDCBP]]></text></a></g><g id="edge2" class="edge"><title>NF2-&gt;SDCBP</title><path style="fill:none;stroke:#0000ff;" d="M66,63C81,78 97,94 112,109"/><polygon style="fill:#0000ff;stroke:#0000ff;" points="65,57 59,62 65,67 70,62 65,57"/><polygon style="fill:#0000ff;stroke:#0000ff;" points="114,117 120,111 114,106 109,111 114,117"/></g><g id="node4" class="node"><title>PIP2</title><a xlink:href="PIP2.html"><ellipse cx="138" cy="39" rx="36" ry="24" style="fill:turquoise;stroke:turquoise;"/><text text-anchor="middle" x="138" y="46" style="font-family:Times New Roman;"><![CDATA[PIP2]]></text></a></g><g id="edge4" class="edge"><title>PIP2-&gt;SDCBP</title><path style="fill:none;stroke:darkgreen;" d="M138,63C138,74 138,86 138,98"/><polygon style="fill:darkgreen;stroke:darkgreen;" points="142,98 138,111 135,98 142,98"/></g><g id="node6" class="node"><title>SDC4</title><a xlink:href="SDC4.html"><ellipse cx="239" cy="39" rx="41" ry="24" style="fill:turquoise;stroke:turquoise;"/><text text-anchor="middle" x="239" y="46" style="font-family:Times New Roman;"><![CDATA[SDC4]]></text></a></g><g id="edge6" class="edge"><title>SDC4-&gt;SDCBP</title><path style="fill:none;stroke:#0000ff;" d="M214,65C198,79 181,95 166,110"/><polygon style="fill:#0000ff;stroke:#0000ff;" points="221,63 215,58 210,63 215,69 221,63"/><polygon style="fill:#0000ff;stroke:#0000ff;" points="159,111 163,117 169,113 165,107 159,111"/></g></g></svg>