<?xml version="1.0" encoding="UTF-8" standalone="no"?><!DOCTYPE svg PUBLIC "-//W3C//DTD SVG 1.0//EN" "http://www.w3.org/TR/2001/REC-SVG-20010904/DTD/svg10.dtd" [ <!ATTLIST svg xmlns:xlink CDATA #FIXED "http://www.w3.org/1999/xlink">]><!-- Generated by WinGraphviz version ver1.02.23, 08/01/2003 (08/04/2003)     For user: Avi Ma'ayan   Title: G    Pages: 1 --><svg width="575px" height="276px" xmlns="http://www.w3.org/2000/svg" xmlns:xlink="http://www.w3.org/1999/xlink"><g id="graph0" class="graph" style="font-family:Times New Roman;font-size:18.67;"><title>G</title><g id="node1" class="node"><title>ABI1</title><a xlink:href="ABI1.html"><ellipse cx="147" cy="39" rx="37" ry="24" style="fill:turquoise;stroke:turquoise;"/><text text-anchor="middle" x="147" y="46" style="font-family:Times New Roman;"><![CDATA[ABI1]]></text></a></g><g id="node2" class="node"><title>SH3KBP1</title><a xlink:href="SH3KBP1.html"><ellipse cx="296" cy="135" rx="58" ry="24" style="fill:turquoise;stroke:turquoise;"/><text text-anchor="middle" x="296" y="142" style="font-family:Times New Roman;"><![CDATA[SH3KBP1]]></text></a></g><g id="edge2" class="edge"><title>ABI1-&gt;SH3KBP1</title><path style="fill:none;stroke:#0000ff;" d="M179,59C202,74 233,95 257,111"/><polygon style="fill:#0000ff;stroke:#0000ff;" points="175,54 173,59 178,62 181,57 175,54"/><polygon style="fill:#0000ff;stroke:#0000ff;" points="262,118 265,113 260,109 257,114 262,118"/></g><g id="node6" class="node"><title>INPP5D</title><a xlink:href="INPP5D.html"><ellipse cx="58" cy="231" rx="52" ry="24" style="fill:turquoise;stroke:turquoise;"/><text text-anchor="middle" x="58" y="238" style="font-family:Times New Roman;"><![CDATA[INPP5D]]></text></a></g><g id="edge6" class="edge"><title>SH3KBP1-&gt;INPP5D</title><path style="fill:none;stroke:#0000ff;" d="M247,155C203,171 142,197 102,213"/><polygon style="fill:#0000ff;stroke:#0000ff;" points="255,155 253,150 246,153 249,158 255,155"/><polygon style="fill:#0000ff;stroke:#0000ff;" points="96,213 98,218 104,215 101,210 96,213"/></g><g id="node8" class="node"><title>DDEF1</title><a xlink:href="DDEF1.html"><ellipse cx="181" cy="231" rx="46" ry="24" style="fill:turquoise;stroke:turquoise;"/><text text-anchor="middle" x="181" y="238" style="font-family:Times New Roman;"><![CDATA[DDEF1]]></text></a></g><g id="edge8" class="edge"><title>SH3KBP1-&gt;DDEF1</title><path style="fill:none;stroke:#0000ff;" d="M264,161C247,175 227,193 210,207"/><polygon style="fill:#0000ff;stroke:#0000ff;" points="272,159 268,154 262,158 266,163 272,159"/><polygon style="fill:#0000ff;stroke:#0000ff;" points="203,209 207,214 213,210 209,205 203,209"/></g><g id="node10" class="node"><title>GRB2</title><a xlink:href="GRB2.html"><ellipse cx="296" cy="231" rx="44" ry="24" style="fill:turquoise;stroke:turquoise;"/><text text-anchor="middle" x="296" y="238" style="font-family:Times New Roman;"><![CDATA[GRB2]]></text></a></g><g id="edge10" class="edge"><title>SH3KBP1-&gt;GRB2</title><path style="fill:none;stroke:#0000ff;" d="M296,166C296,177 296,190 296,201"/><polygon style="fill:#0000ff;stroke:#0000ff;" points="300,159 293,159 293,166 300,166 300,159"/><polygon style="fill:#0000ff;stroke:#0000ff;" points="293,207 300,207 300,201 293,201 293,207"/></g><g id="node12" class="node"><title>PIK3CA</title><a xlink:href="PIK3CA.html"><ellipse cx="417" cy="231" rx="53" ry="24" style="fill:turquoise;stroke:turquoise;"/><text text-anchor="middle" x="417" y="238" style="font-family:Times New Roman;"><![CDATA[PIK3CA]]></text></a></g><g id="edge12" class="edge"><title>SH3KBP1-&gt;PIK3CA</title><path style="fill:none;stroke:#0000ff;" d="M329,161C346,175 368,193 385,206"/><polygon style="fill:#0000ff;stroke:#0000ff;" points="326,154 322,159 328,163 332,158 326,154"/><polygon style="fill:#0000ff;stroke:#0000ff;" points="389,213 393,207 388,203 384,209 389,213"/></g><g id="node14" class="node"><title>SOS1</title><a xlink:href="SOS1.html"><ellipse cx="530" cy="231" rx="36" ry="24" style="fill:turquoise;stroke:turquoise;"/><text text-anchor="middle" x="530" y="238" style="font-family:Times New Roman;"><![CDATA[SOS1]]></text></a></g><g id="edge14" class="edge"><title>SH3KBP1-&gt;SOS1</title><path style="fill:none;stroke:#0000ff;" d="M346,154C382,169 436,189 482,207 488,209 492,211 496,214"/><polygon style="fill:#0000ff;stroke:#0000ff;" points="341,149 338,154 345,157 348,151 341,149"/><polygon style="fill:#0000ff;stroke:#0000ff;" points="500,219 502,214 497,211 494,217 500,219"/></g><g id="node4" class="node"><title>CBL</title><a xlink:href="CBL.html"><ellipse cx="245" cy="39" rx="36" ry="24" style="fill:turquoise;stroke:turquoise;"/><text text-anchor="middle" x="245" y="46" style="font-family:Times New Roman;"><![CDATA[CBL]]></text></a></g><g id="edge4" class="edge"><title>CBL-&gt;SH3KBP1</title><path style="fill:none;stroke:#0000ff;" d="M260,67C266,79 274,94 281,106"/><polygon style="fill:#0000ff;stroke:#0000ff;" points="260,61 254,63 257,69 262,66 260,61"/><polygon style="fill:#0000ff;stroke:#0000ff;" points="281,113 286,110 284,105 278,107 281,113"/></g><g id="node16" class="node"><title>PTK2</title><a xlink:href="PTK2.html"><ellipse cx="346" cy="39" rx="41" ry="24" style="fill:turquoise;stroke:turquoise;"/><text text-anchor="middle" x="346" y="46" style="font-family:Times New Roman;"><![CDATA[PTK2]]></text></a></g><g id="edge16" class="edge"><title>PTK2-&gt;SH3KBP1</title><path style="fill:none;stroke:darkgreen;" d="M334,62C328,74 321,87 314,101"/><polygon style="fill:darkgreen;stroke:darkgreen;" points="318,101 309,111 312,98 318,101"/></g><g id="node18" class="node"><title>PTK2B</title><a xlink:href="PTK2B.html"><ellipse cx="461" cy="39" rx="49" ry="24" style="fill:turquoise;stroke:turquoise;"/><text text-anchor="middle" x="461" y="46" style="font-family:Times New Roman;"><![CDATA[PTK2B]]></text></a></g><g id="edge18" class="edge"><title>PTK2B-&gt;SH3KBP1</title><path style="fill:none;stroke:darkgreen;" d="M429,58C404,73 368,94 341,110"/><polygon style="fill:darkgreen;stroke:darkgreen;" points="344,113 330,115 341,106 344,113"/></g></g></svg>