<?xml version="1.0" encoding="UTF-8" standalone="no"?><!DOCTYPE svg PUBLIC "-//W3C//DTD SVG 1.0//EN" "http://www.w3.org/TR/2001/REC-SVG-20010904/DTD/svg10.dtd" [ <!ATTLIST svg xmlns:xlink CDATA #FIXED "http://www.w3.org/1999/xlink">]><!-- Generated by WinGraphviz version ver1.02.23, 08/01/2003 (08/04/2003)     For user: Avi Ma'ayan   Title: G    Pages: 1 --><!--="735px" height="95px" xmlns="http://www.w3.org/2000/svg" --><svg onload="init(evt)" width="735px" height="600px" xmlns="http://www.w3.org/2000/svg" xmlns:xlink="http://www.w3.org/1999/xlink">
<script type="text/ecmascript">
<![CDATA[
var svgDocument;
var zoomAmt;
var xOffset;
var yOffset;
var scale;
var maxScale;
var imageWidth;
var imageHeight;
function init(evt)
{
    svgDocument = evt.getTarget().getOwnerDocument();
    zoomAmt = 0;
    xOffset = 0;
    yOffset = 60;
    scale = 0.8;
    maxScale = 10;
    imageWidth = 742;
    imageHeight = 606;
    panRestore();
    //panUp();
}
function transformMap ()
{
    var obj = svgDocument.getElementById("Pathway");
    var centerX = imageWidth  / 2.0;
    var centerY = imageHeight / 2.0;
    var adjustX = (-centerX * (scale - 0.8)) + xOffset;
    var adjustY = (-centerY * (scale - 0.8)) + yOffset;
    var transParms = 'translate(' + adjustX + ',' + adjustY + ') ';
    transParms += 'scale(' + scale + ')';
    // alert(transParms);
    obj.setAttribute("transform", transParms); 
}
function click_node(id)
{
    var testx = parent.click_node;
    if (typeof(testx) == "function")
    {
		parent.click_node(id);
    }
}
function click_relation(id)
{
    var testx = parent.click_relation;
    if (typeof(testx) == "function")
    {
        parent.click_relation(id);
    }
}
function click_pathway(toId, fromId)
{
    var testx = parent.click_pathway;
    if (typeof(testx) == "function")
    {
	parent.click_pathway(toId, fromId);
    }
}
function check_interpath(evt, pathid)
{
  var obj = evt.getTarget();
  var testx = parent.is_frompath;
  var child = obj.firstChild;
  if (typeof(testx) == "function")
  {
    if (parent.is_frompath(pathid))
    {
      while (child != null)
      {
        if (child.nodeType == 1)
        {
          if ((child.localName == "g") || (child.localName == "polyline"))
          {
            child.setAttribute("style", "fill:none;stroke:red");
          }
          else if (child.localName == "polygon")
          {
            child.setAttribute("style", "fill:red;stroke:red");
          }
        }
        child = child.nextSibling;
      }
    }
  }
}
function set_status (msg)
{
 var obj = svgDocument.getElementById("status_text");
  var child;
 
  child = obj.firstChild;
  if ((child != null) && (child.nodeType == 3))
  {
    if ((msg != null) && (msg.length > 0))
    {
      child.data = msg;
    }
    else
    {
child.data = " ";
    }
  }
}
function zoomIn ()
{
    scale = scale + 0.8;
    if (scale > maxScale)
    {
       scale = maxScale;
    }
    transformMap();
    panUp();
    panUp();
    panUp();
    panUp();
    panUp();
    panUp();
    panUp();
    panUp();
    panUp();
    panUp();
    panUp();
    panUp();
}
function zoomOut ()
{
    scale = scale - 0.8;
    if (scale < 0.8)
    {
       scale = 0.8;
    }
    transformMap();
    panDown();
    panDown();
    panDown();
    panDown();
    panDown();
    panDown();
    panDown();
    panDown();
    panDown();
    panDown();
    panDown();
    panDown();
}
function panUp ()
{
    yOffset = yOffset + 20;
    transformMap();
}
function panDown ()
{
    yOffset = yOffset - 20;
    transformMap();
}
function panLeft ()
{
    xOffset = xOffset + 20;
    transformMap();
}
function panRight ()
{
    xOffset = xOffset - 20;
    transformMap();
}
function panRestore ()
{
    xOffset = 0;
    yOffset = 0;
    scale = 0.5;
    //obj = svgDocument.getElementById("zoom");
    //obj.setAttribute("x1", 0);
    //obj.setAttribute("x2", 0);
    transformMap();    
}
function doHighlight (evt, msg)
{
  var obj = evt.getTarget();
  obj.setAttribute("fill", "rgb(239,24,33)");
  set_status(msg);
}
function resetHighlight (evt)
{
  var obj = evt.getTarget();
  obj.setAttribute("fill", "rgb(99,154,206)");
  set_status(" ");
}
// ]]>
</script>
<defs>
<clipPath id="theClip">
<polygon points="1 61, 741 61, 741 665, 1 665"
style="fill: none;"/>
</clipPath>
</defs>
<!-- viewport outline -->
<rect x="0" y="61" width="742" height="606"
style="stroke: black; stroke-width: 1; fill: none;"/>
<!-- pathway graph style="clip-path: url(#theClip);" -->
<g style="clip-path: url(#theClip);">
<g id="Pathway"  transform="translate(0,60)">
<!-- prefile.include ends, begin pathway graph -->
<g id="stkecm;CMP_10705" class="graph">
</g>
<g id="graph0" class="graph" style="font-family:Times New Roman;font-size:5.75;"><title>G</title><g id="node1" class="node"><title>RAPGEF1</title><a xlink:href="RAPGEF1.html"><ellipse cx="25" cy="15" rx="19" ry="7" style="fill:turquoise;stroke:turquoise;"/><text text-anchor="middle" x="25" y="17" style="font-family:Times New Roman;"><![CDATA[RAPGEF1]]></text></a></g><g id="node2" class="node"><title>SHC1</title><a xlink:href="SHC1.html"><ellipse cx="372" cy="45" rx="11" ry="7" style="fill:turquoise;stroke:turquoise;"/><text text-anchor="middle" x="372" y="47" style="font-family:Times New Roman;"><![CDATA[SHC1]]></text></a></g><g id="edge2" class="edge"><title>RAPGEF1-&gt;SHC1</title><path style="fill:none;stroke:#0000ff;" d="M41,21C44,22 46,22 48,22 109,35 303,42 357,44"/><polygon style="fill:#0000ff;stroke:#0000ff;" points="40,20 39,21 41,22 42,20 40,20"/><polygon style="fill:#0000ff;stroke:#0000ff;" points="360,45 360,43 358,43 358,45 360,45"/></g><g id="node40" class="node"><title>INPP5D</title><a xlink:href="INPP5D.html"><ellipse cx="314" cy="74" rx="16" ry="7" style="fill:turquoise;stroke:turquoise;"/><text text-anchor="middle" x="314" y="76" style="font-family:Times New Roman;"><![CDATA[INPP5D]]></text></a></g><g id="edge40" class="edge"><title>SHC1-&gt;INPP5D</title><path style="fill:none;stroke:#0000ff;" d="M360,50C351,55 337,63 327,68"/><polygon style="fill:#0000ff;stroke:#0000ff;" points="363,50 362,49 360,50 361,51 363,50"/><polygon style="fill:#0000ff;stroke:#0000ff;" points="325,68 326,70 327,69 326,67 325,68"/></g><g id="node42" class="node"><title>PTPN11</title><a xlink:href="PTPN11.html"><ellipse cx="353" cy="74" rx="15" ry="7" style="fill:turquoise;stroke:turquoise;"/><text text-anchor="middle" x="353" y="76" style="font-family:Times New Roman;"><![CDATA[PTPN11]]></text></a></g><g id="edge42" class="edge"><title>SHC1-&gt;PTPN11</title><path style="fill:none;stroke:#0000ff;" d="M366,53C364,57 361,61 358,65"/><polygon style="fill:#0000ff;stroke:#0000ff;" points="368,52 366,51 365,53 367,54 368,52"/><polygon style="fill:#0000ff;stroke:#0000ff;" points="357,66 358,67 359,66 358,65 357,66"/></g><g id="node44" class="node"><title>SIRPA</title><a xlink:href="SIRPA.html"><ellipse cx="390" cy="74" rx="14" ry="7" style="fill:limegreen;stroke:limegreen;"/><text text-anchor="middle" x="390" y="76" style="font-family:Times New Roman;"><![CDATA[SIRPA]]></text></a></g><g id="edge44" class="edge"><title>SHC1-&gt;SIRPA</title><path style="fill:none;stroke:#0000ff;" d="M377,53C379,57 382,61 385,65"/><polygon style="fill:#0000ff;stroke:#0000ff;" points="377,51 375,52 376,54 378,53 377,51"/><polygon style="fill:#0000ff;stroke:#0000ff;" points="385,67 386,66 385,65 384,66 385,67"/></g><g id="node46" class="node"><title>VAV1</title><a xlink:href="VAV1.html"><ellipse cx="425" cy="74" rx="13" ry="7" style="fill:turquoise;stroke:turquoise;"/><text text-anchor="middle" x="425" y="76" style="font-family:Times New Roman;"><![CDATA[VAV1]]></text></a></g><g id="edge46" class="edge"><title>SHC1-&gt;VAV1</title><path style="fill:none;stroke:#0000ff;" d="M383,51C392,56 405,63 414,68"/><polygon style="fill:#0000ff;stroke:#0000ff;" points="381,49 380,50 382,52 383,50 381,49"/><polygon style="fill:#0000ff;stroke:#0000ff;" points="415,70 416,68 415,67 414,69 415,70"/></g><g id="node4" class="node"><title>CBL</title><a xlink:href="CBL.html"><ellipse cx="63" cy="15" rx="11" ry="7" style="fill:turquoise;stroke:turquoise;"/><text text-anchor="middle" x="63" y="17" style="font-family:Times New Roman;"><![CDATA[CBL]]></text></a></g><g id="edge4" class="edge"><title>CBL-&gt;SHC1</title><path style="fill:none;stroke:#0000ff;" d="M73,21C75,22 76,22 78,22 132,37 306,43 358,44"/><polygon style="fill:#0000ff;stroke:#0000ff;" points="72,19 71,21 73,22 73,20 72,19"/><polygon style="fill:#0000ff;stroke:#0000ff;" points="360,45 360,43 358,43 358,45 360,45"/></g><g id="node6" class="node"><title>CEACAM1</title><a xlink:href="CEACAM1.html"><ellipse cx="102" cy="15" rx="20" ry="7" style="fill:turquoise;stroke:turquoise;"/><text text-anchor="middle" x="102" y="17" style="font-family:Times New Roman;"><![CDATA[CEACAM1]]></text></a></g><g id="edge6" class="edge"><title>CEACAM1-&gt;SHC1</title><path style="fill:none;stroke:#0000ff;" d="M119,20C122,22 124,22 126,22 213,40 319,44 357,45"/><polygon style="fill:#0000ff;stroke:#0000ff;" points="118,19 117,21 119,21 120,20 118,19"/><polygon style="fill:#0000ff;stroke:#0000ff;" points="360,45 360,43 358,43 358,45 360,45"/></g><g id="node8" class="node"><title>CRK</title><a xlink:href="CRK.html"><ellipse cx="142" cy="15" rx="11" ry="7" style="fill:turquoise;stroke:turquoise;"/><text text-anchor="middle" x="142" y="17" style="font-family:Times New Roman;"><![CDATA[CRK]]></text></a></g><g id="edge8" class="edge"><title>CRK-&gt;SHC1</title><path style="fill:none;stroke:#0000ff;" d="M153,20C154,21 156,22 158,22 196,33 316,41 357,44"/><polygon style="fill:#0000ff;stroke:#0000ff;" points="151,19 151,21 153,21 154,20 151,19"/><polygon style="fill:#0000ff;stroke:#0000ff;" points="360,45 360,43 358,43 358,45 360,45"/></g><g id="node10" class="node"><title>CRKL</title><a xlink:href="CRKL.html"><ellipse cx="175" cy="15" rx="13" ry="7" style="fill:turquoise;stroke:turquoise;"/><text text-anchor="middle" x="175" y="17" style="font-family:Times New Roman;"><![CDATA[CRKL]]></text></a></g><g id="edge10" class="edge"><title>CRKL-&gt;SHC1</title><path style="fill:none;stroke:#0000ff;" d="M188,21C189,21 191,22 193,22 253,38 327,43 357,44"/><polygon style="fill:#0000ff;stroke:#0000ff;" points="186,19 186,21 187,22 188,20 186,19"/><polygon style="fill:#0000ff;stroke:#0000ff;" points="360,45 360,43 358,43 358,45 360,45"/></g><g id="node12" class="node"><title>CSK</title><a xlink:href="CSK.html"><ellipse cx="208" cy="15" rx="11" ry="7" style="fill:turquoise;stroke:turquoise;"/><text text-anchor="middle" x="208" y="17" style="font-family:Times New Roman;"><![CDATA[CSK]]></text></a></g><g id="edge12" class="edge"><title>CSK-&gt;SHC1</title><path style="fill:none;stroke:#0000ff;" d="M218,20C219,21 221,22 222,22 271,38 330,43 357,44"/><polygon style="fill:#0000ff;stroke:#0000ff;" points="216,19 216,21 218,21 218,20 216,19"/><polygon style="fill:#0000ff;stroke:#0000ff;" points="360,45 360,43 358,43 358,45 360,45"/></g><g id="node14" class="node"><title>PTK2</title><a xlink:href="PTK2.html"><ellipse cx="239" cy="15" rx="12" ry="7" style="fill:turquoise;stroke:turquoise;"/><text text-anchor="middle" x="239" y="17" style="font-family:Times New Roman;"><![CDATA[PTK2]]></text></a></g><g id="edge14" class="edge"><title>PTK2-&gt;SHC1</title><path style="fill:none;stroke:darkgreen;" d="M249,20C251,21 253,22 255,22 291,34 333,40 355,43"/><polygon style="fill:darkgreen;stroke:darkgreen;" points="355,42 360,43 355,44 355,42"/></g><g id="node16" class="node"><title>FYN</title><a xlink:href="FYN.html"><ellipse cx="271" cy="15" rx="11" ry="7" style="fill:turquoise;stroke:turquoise;"/><text text-anchor="middle" x="271" y="17" style="font-family:Times New Roman;"><![CDATA[FYN]]></text></a></g><g id="edge16" class="edge"><title>FYN-&gt;SHC1</title><path style="fill:none;stroke:darkgreen;" d="M280,20C282,21 284,22 287,22 310,31 339,38 356,42"/><polygon style="fill:darkgreen;stroke:darkgreen;" points="356,41 360,43 356,43 356,41"/></g><g id="node18" class="node"><title>GRB2</title><a xlink:href="GRB2.html"><ellipse cx="304" cy="15" rx="13" ry="7" style="fill:turquoise;stroke:turquoise;"/><text text-anchor="middle" x="304" y="17" style="font-family:Times New Roman;"><![CDATA[GRB2]]></text></a></g><g id="edge18" class="edge"><title>GRB2-&gt;SHC1</title><path style="fill:none;stroke:#0000ff;" d="M316,20C328,26 348,34 360,40"/><polygon style="fill:#0000ff;stroke:#0000ff;" points="315,19 314,20 316,21 316,20 315,19"/><polygon style="fill:#0000ff;stroke:#0000ff;" points="361,41 362,40 360,39 359,41 361,41"/></g><g id="node20" class="node"><title>ITGB1</title><a xlink:href="ITGB1.html"><ellipse cx="338" cy="15" rx="13" ry="7" style="fill:turquoise;stroke:turquoise;"/><text text-anchor="middle" x="338" y="17" style="font-family:Times New Roman;"><![CDATA[ITGB1]]></text></a></g><g id="edge20" class="edge"><title>ITGB1-&gt;SHC1</title><path style="fill:none;stroke:#0000ff;" d="M347,23C352,27 358,33 363,37"/><polygon style="fill:#0000ff;stroke:#0000ff;" points="346,21 345,22 346,24 348,22 346,21"/><polygon style="fill:#0000ff;stroke:#0000ff;" points="364,39 365,38 364,36 362,38 364,39"/></g><g id="node22" class="node"><title>INSR</title><a xlink:href="INSR.html"><ellipse cx="372" cy="15" rx="12" ry="7" style="fill:turquoise;stroke:turquoise;"/><text text-anchor="middle" x="372" y="17" style="font-family:Times New Roman;"><![CDATA[INSR]]></text></a></g><g id="edge22" class="edge"><title>INSR-&gt;SHC1</title><path style="fill:none;stroke:darkgreen;" d="M372,22C372,26 372,29 372,33"/><polygon style="fill:darkgreen;stroke:darkgreen;" points="373,33 372,37 371,33 373,33"/></g><g id="node24" class="node"><title>IRS1</title><a xlink:href="IRS1.html"><ellipse cx="402" cy="15" rx="11" ry="7" style="fill:turquoise;stroke:turquoise;"/><text text-anchor="middle" x="402" y="17" style="font-family:Times New Roman;"><![CDATA[IRS1]]></text></a></g><g id="edge24" class="edge"><title>IRS1-&gt;SHC1</title><path style="fill:none;stroke:#0000ff;" d="M394,22C390,27 384,32 380,37"/><polygon style="fill:#0000ff;stroke:#0000ff;" points="397,22 395,20 393,22 395,24 397,22"/><polygon style="fill:#0000ff;stroke:#0000ff;" points="377,38 379,39 381,38 379,36 377,38"/></g><g id="node26" class="node"><title>LRP1</title><a xlink:href="LRP1.html"><ellipse cx="433" cy="15" rx="11" ry="7" style="fill:limegreen;stroke:limegreen;"/><text text-anchor="middle" x="433" y="17" style="font-family:Times New Roman;"><![CDATA[LRP1]]></text></a></g><g id="edge26" class="edge"><title>LRP1-&gt;SHC1</title><path style="fill:none;stroke:#0000ff;" d="M422,20C411,25 394,34 383,39"/><polygon style="fill:#0000ff;stroke:#0000ff;" points="424,20 423,19 421,20 422,21 424,20"/><polygon style="fill:#0000ff;stroke:#0000ff;" points="381,39 381,41 383,40 383,38 381,39"/></g><g id="node28" class="node"><title>LYN</title><a xlink:href="LYN.html"><ellipse cx="464" cy="15" rx="11" ry="7" style="fill:turquoise;stroke:turquoise;"/><text text-anchor="middle" x="464" y="17" style="font-family:Times New Roman;"><![CDATA[LYN]]></text></a></g><g id="edge28" class="edge"><title>LYN-&gt;SHC1</title><path style="fill:none;stroke:#0000ff;" d="M453,20C452,21 450,22 448,22 426,31 400,38 385,42"/><polygon style="fill:#0000ff;stroke:#0000ff;" points="455,21 454,19 452,20 453,21 455,21"/><polygon style="fill:#0000ff;stroke:#0000ff;" points="383,41 383,43 385,43 385,41 383,41"/></g><g id="node30" class="node"><title>PIK3CA</title><a xlink:href="PIK3CA.html"><ellipse cx="500" cy="15" rx="16" ry="7" style="fill:turquoise;stroke:turquoise;"/><text text-anchor="middle" x="500" y="17" style="font-family:Times New Roman;"><![CDATA[PIK3CA]]></text></a></g><g id="edge30" class="edge"><title>PIK3CA-&gt;SHC1</title><path style="fill:none;stroke:#0000ff;" d="M486,20C484,21 482,22 479,22 446,32 406,39 385,43"/><polygon style="fill:#0000ff;stroke:#0000ff;" points="488,21 487,19 485,20 486,21 488,21"/><polygon style="fill:#0000ff;stroke:#0000ff;" points="383,42 383,44 385,43 385,42 383,42"/></g><g id="node32" class="node"><title>PRKCA</title><a xlink:href="PRKCA.html"><ellipse cx="540" cy="15" rx="16" ry="7" style="fill:turquoise;stroke:turquoise;"/><text text-anchor="middle" x="540" y="17" style="font-family:Times New Roman;"><![CDATA[PRKCA]]></text></a></g><g id="edge32" class="edge"><title>PRKCA-&gt;SHC1</title><path style="fill:none;stroke:#0000ff;" d="M526,20C524,21 522,22 520,22 471,35 412,41 386,43"/><polygon style="fill:#0000ff;stroke:#0000ff;" points="528,21 527,19 525,20 526,21 528,21"/><polygon style="fill:#0000ff;stroke:#0000ff;" points="383,43 383,45 385,44 385,43 383,43"/></g><g id="node34" class="node"><title>PLCG1</title><a xlink:href="PLCG1.html"><ellipse cx="578" cy="15" rx="14" ry="7" style="fill:turquoise;stroke:turquoise;"/><text text-anchor="middle" x="578" y="17" style="font-family:Times New Roman;"><![CDATA[PLCG1]]></text></a></g><g id="edge34" class="edge"><title>PLCG1-&gt;SHC1</title><path style="fill:none;stroke:#0000ff;" d="M566,20C564,21 562,22 560,22 496,39 418,43 386,44"/><polygon style="fill:#0000ff;stroke:#0000ff;" points="568,21 567,19 565,20 566,21 568,21"/><polygon style="fill:#0000ff;stroke:#0000ff;" points="383,43 383,45 385,45 385,43 383,43"/></g><g id="node36" class="node"><title>PTEN</title><a xlink:href="PTEN.html"><ellipse cx="613" cy="15" rx="13" ry="7" style="fill:turquoise;stroke:turquoise;"/><text text-anchor="middle" x="613" y="17" style="font-family:Times New Roman;"><![CDATA[PTEN]]></text></a></g><g id="edge36" class="edge"><title>PTEN-&gt;SHC1</title><path style="fill:none;stroke:#ff0000;" d="M603,20C601,21 599,22 596,22 557,33 436,41 390,43"/><polyline style="fill:none;stroke:#ff0000;" points="390,41 390,47 "/></g><g id="node38" class="node"><title>PTPN12</title><a xlink:href="PTPN12.html"><ellipse cx="650" cy="15" rx="16" ry="7" style="fill:turquoise;stroke:turquoise;"/><text text-anchor="middle" x="650" y="17" style="font-family:Times New Roman;"><![CDATA[PTPN12]]></text></a></g><g id="edge38" class="edge"><title>PTPN12-&gt;SHC1</title><path style="fill:none;stroke:#0000ff;" d="M637,20C635,21 633,22 631,22 583,33 433,41 386,44"/><polygon style="fill:#0000ff;stroke:#0000ff;" points="639,21 638,19 636,20 637,21 639,21"/><polygon style="fill:#0000ff;stroke:#0000ff;" points="383,43 383,45 385,45 385,43 383,43"/></g><g id="node48" class="node"><title>SRC</title><a xlink:href="SRC.html"><ellipse cx="685" cy="15" rx="11" ry="7" style="fill:turquoise;stroke:turquoise;"/><text text-anchor="middle" x="685" y="17" style="font-family:Times New Roman;"><![CDATA[SRC]]></text></a></g><g id="edge48" class="edge"><title>SRC-&gt;SHC1</title><path style="fill:none;stroke:darkgreen;" d="M676,20C674,21 672,22 670,22 616,38 442,43 388,44"/><polygon style="fill:darkgreen;stroke:darkgreen;" points="388,45 383,44 388,43 388,45"/></g><g id="node50" class="node"><title>SYK</title><a xlink:href="SYK.html"><ellipse cx="715" cy="15" rx="11" ry="7" style="fill:turquoise;stroke:turquoise;"/><text text-anchor="middle" x="715" y="17" style="font-family:Times New Roman;"><![CDATA[SYK]]></text></a></g><g id="edge50" class="edge"><title>SYK-&gt;SHC1</title><path style="fill:none;stroke:darkgreen;" d="M706,20C704,21 702,22 699,22 640,38 445,43 388,45"/><polygon style="fill:darkgreen;stroke:darkgreen;" points="388,45 383,45 388,43 388,45"/></g></g></g></g>
<!-- navigation controls -->
<g id="navbox">
	<rect x="0" y="0" width="742" height="60"
		 style="fill:rgb(206,207,206);stroke:rgb(0,0,0);stroke-width:1"/>

	<polygon id="pan_right"
        onmouseup="panRight()"
        onmouseover="doHighlight(evt, 'Click to pan to the right')"
        onmouseout="resetHighlight(evt)"
		points="28.0732,13 32,20.5 28.0732,28 28.0732,23.4412 25,23.4412 25,17.4118 28.0732,17.4118"
		 transform="matrix(3.39111 0 0 2.98838 -12.6265 -29.7101)"
         fill="rgb(99,154,206)"
		 style="stroke:rgb(0,0,0);stroke-width:0.5"/>
	<polygon id="pan_left"
        onmouseup="panLeft()"
        onmouseover="doHighlight(evt, 'Click to pan to the left')"
        onmouseout="resetHighlight(evt)"
		points="123.991,25 120.064,32.5 123.991,40 123.991,35.4412 127.064,35.4412 127.064,29.4118
			123.991,29.4118" transform="matrix(3.39111 0 0 2.98838 -404.865 -65.5706)"
         fill="rgb(99,154,206)"
		 style="stroke:rgb(0,0,0);stroke-width:0.5"/>
	<polygon id="pan_down"
        onmouseup="panDown()"
        onmouseover="doHighlight(evt, 'Click to pan down')"
        onmouseout="resetHighlight(evt)"
		points="116.032,32.0408 123.532,35.9678 131.032,32.0408 126.473,32.0408 126.473,28.9678 120.444,28.9678
			120.444,32.0408" transform="matrix(3.39111 0 0 2.98838 -369.822 -50.6287)"
         fill="rgb(99,154,206)"
		 style="stroke:rgb(0,0,0);stroke-width:0.5"/>
	<polygon id="pan_up"
        onmouseup="panUp()"
  onmouseover="doHighlight(evt, 'Click to pan up')"
        onmouseout="resetHighlight(evt)"
		points="116.032,32.0408 123.532,35.9678 131.032,32.0408 126.473,32.0408 126.473,28.9678 120.444,28.9678
			120.444,32.0408" transform="matrix(3.39111 0 0 -2.98838 -369.823 111.74)"
         fill="rgb(99,154,206)"
		 style="stroke:rgb(0,0,0);stroke-width:0.5"/>
	<g id="go_home" 
         onmouseup="panRestore()" 
         onmouseover="doHighlight(evt, 'Click to restore graph to original position')"
         onmouseout="resetHighlight(evt)"
         fill="rgb(99,154,206)"
         transform="matrix(1 0 0 1 0 -0.333333)">
		<rect x="196" y="11" width="26" height="26"
			transform="translate(-19.1111 -2.66667)"
			 style="stroke:rgb(0,0,0);stroke-width:1"/>
		<line x1="182" y1="16" x2="182" y2="28"
			transform="matrix(1 0 0 1 2.22222 0.444444)"
			 style="fill:none;stroke:rgb(0,0,0);stroke-width:2"/>
		<line x1="187" y1="22" x2="187" y2="28"
			transform="matrix(1 0 0 1 2.22222 0.444444)"
			 style="fill:none;stroke:rgb(0,0,0);stroke-width:2"/>
	<line x1="192" y1="13" x2="192" y2="28"
			transform="matrix(1 0 0 1 2.22222 0.444444)"
			 style="fill:none;stroke:rgb(0,0,0);stroke-width:2"/>
		<line x1="182" y1="28" x2="192" y2="28"
			transform="matrix(1 0 0 1 2.22222 0.444444)"
	style="fill:none;stroke:rgb(0,0,0);stroke-width:2"/>
		<line x1="189" y1="12" x2="179" y2="21"
			 style="fill:none;stroke:rgb(0,0,0);stroke-width:2"/>
		<line x1="188" y1="12" x2="199" y2="20"
			 style="fill:none;stroke:rgb(0,0,0);stroke-width:2"/>
	</g>
	<g id="zoom_out" onmouseup="zoomOut()" 
             onmouseover="doHighlight(evt, 'Click to zoom out')"
             onmouseout="resetHighlight(evt)"
             fill="rgb(99,154,206)"
             transform="matrix(1 0 0 1 0 0)">
		<rect x="116" y="8" width="26" height="26"
			 style="stroke:rgb(0,0,0);stroke-width:1"/>
		<ellipse cx="126" cy="18" rx="6" ry="6"
			 style="stroke:rgb(0,0,0);stroke-width:1"/>
		<line x1="130" y1="23" x2="137" y2="29"
			transform="matrix(1 0 0 1 0.888889 -0.888889)"
			 style="fill:none;stroke:rgb(0,0,0);stroke-width:2"/>
		<line x1="123" y1="18" x2="129" y2="18"
			 style="fill:none;stroke:rgb(0,0,0);stroke-width:2"/>
	</g>
	<g id="zoom_in" onmouseup="zoomIn()" 
             onmouseover="doHighlight(evt, 'Click to zoom in')"
             onmouseout="resetHighlight(evt)"
             fill="rgb(99,154,206)"
             transform="matrix(1 0 0 1 0.888889 -0.444444)">
		<rect x="116" y="8" width="26" height="26"
			transform="matrix(1 0 0 1 29.7778 0.444444)"
			 style="stroke:rgb(0,0,0);stroke-width:1"/>
		<ellipse cx="126" cy="18" rx="6" ry="6"
			transform="matrix(1 0 0 1 29.7778 0.444444)"
			 style="stroke:rgb(0,0,0);stroke-width:1"/>
		<line x1="130" y1="23" x2="137" y2="29"
			transform="matrix(1 0 0 1 30.6667 -0.444445)"
		style="fill:none;stroke:rgb(0,0,0);stroke-width:2"/>
		<line x1="123" y1="18" x2="129" y2="18"
			transform="matrix(1 0 0 1 29.7778 0.444444)"
			 style="fill:none;stroke:rgb(0,0,0);stroke-width:2"/>
		<line x1="156" y1="15" x2="156" y2="22"
			 style="fill:none;stroke:rgb(0,0,0);stroke-width:2"/>
	</g>
	<g>
		<rect x="117" y="40" width="452" height="14"
			transform="matrix(1.54201 0 0 1 -64.1436 -0.222222)"
			 style="fill:rgb(192,192,192);stroke:rgb(0,0,0);stroke-width:1"/>
		<text id="status_text" x="183px" y="48px"
			transform="matrix(1 0 0 1 -63.5556 3.00778)"
			 style="fill:rgb(0,0,0);font-size:14;font-family:Arial"> </text>
	</g>
</g>	
</svg>