<?xml version="1.0" encoding="UTF-8" standalone="no"?><!DOCTYPE svg PUBLIC "-//W3C//DTD SVG 1.0//EN" "http://www.w3.org/TR/2001/REC-SVG-20010904/DTD/svg10.dtd" [ <!ATTLIST svg xmlns:xlink CDATA #FIXED "http://www.w3.org/1999/xlink">]><!-- Generated by WinGraphviz version ver1.02.23, 08/01/2003 (08/04/2003)     For user: Avi Ma'ayan   Title: G    Pages: 1 --><svg width="439px" height="180px" xmlns="http://www.w3.org/2000/svg" xmlns:xlink="http://www.w3.org/1999/xlink"><g id="graph0" class="graph" style="font-family:Times New Roman;font-size:18.67;"><title>G</title><g id="node1" class="node"><title>CD47</title><a xlink:href="CD47.html"><ellipse cx="46" cy="39" rx="40" ry="24" style="fill:limegreen;stroke:limegreen;"/><text text-anchor="middle" x="46" y="46" style="font-family:Times New Roman;"><![CDATA[CD47]]></text></a></g><g id="node2" class="node"><title>SIRPA</title><a xlink:href="SIRPA.html"><ellipse cx="203" cy="135" rx="46" ry="24" style="fill:limegreen;stroke:limegreen;"/><text text-anchor="middle" x="203" y="142" style="font-family:Times New Roman;"><![CDATA[SIRPA]]></text></a></g><g id="edge2" class="edge"><title>CD47-&gt;SIRPA</title><path style="fill:none;stroke:#0000ff;" d="M80,59C105,75 141,97 166,113"/><polygon style="fill:#0000ff;stroke:#0000ff;" points="76,54 73,59 78,62 81,57 76,54"/><polygon style="fill:#0000ff;stroke:#0000ff;" points="171,119 174,114 169,110 166,115 171,119"/></g><g id="node4" class="node"><title>SHC1</title><a xlink:href="SHC1.html"><ellipse cx="149" cy="39" rx="38" ry="24" style="fill:turquoise;stroke:turquoise;"/><text text-anchor="middle" x="149" y="46" style="font-family:Times New Roman;"><![CDATA[SHC1]]></text></a></g><g id="edge4" class="edge"><title>SHC1-&gt;SIRPA</title><path style="fill:none;stroke:#0000ff;" d="M165,67C171,79 181,94 187,106"/><polygon style="fill:#0000ff;stroke:#0000ff;" points="165,61 159,63 162,69 167,66 165,61"/><polygon style="fill:#0000ff;stroke:#0000ff;" points="187,113 193,110 190,105 185,107 187,113"/></g><g id="node6" class="node"><title>PTPN6</title><a xlink:href="PTPN6.html"><ellipse cx="260" cy="39" rx="48" ry="24" style="fill:turquoise;stroke:turquoise;"/><text text-anchor="middle" x="260" y="46" style="font-family:Times New Roman;"><![CDATA[PTPN6]]></text></a></g><g id="edge6" class="edge"><title>PTPN6-&gt;SIRPA</title><path style="fill:none;stroke:#ff0000;" d="M246,62C239,73 233,85 226,95"/><polyline style="fill:none;stroke:#ff0000;" points="218,90 235,99 "/></g><g id="node8" class="node"><title>PTPN11</title><a xlink:href="PTPN11.html"><ellipse cx="381" cy="39" rx="49" ry="24" style="fill:turquoise;stroke:turquoise;"/><text text-anchor="middle" x="381" y="46" style="font-family:Times New Roman;"><![CDATA[PTPN11]]></text></a></g><g id="edge8" class="edge"><title>PTPN11-&gt;SIRPA</title><path style="fill:none;stroke:#ff0000;" d="M348,58C321,71 282,93 251,109"/><polyline style="fill:none;stroke:#ff0000;" points="247,99 258,117 "/></g></g></svg>