<?xml version="1.0" encoding="UTF-8" standalone="no"?><!DOCTYPE svg PUBLIC "-//W3C//DTD SVG 1.0//EN" "http://www.w3.org/TR/2001/REC-SVG-20010904/DTD/svg10.dtd" [ <!ATTLIST svg xmlns:xlink CDATA #FIXED "http://www.w3.org/1999/xlink">]><!-- Generated by WinGraphviz version ver1.02.23, 08/01/2003 (08/04/2003)     For user: Avi Ma'ayan   Title: G    Pages: 1 --><svg width="430px" height="276px" xmlns="http://www.w3.org/2000/svg" xmlns:xlink="http://www.w3.org/1999/xlink"><g id="graph0" class="graph" style="font-family:Times New Roman;font-size:18.67;"><title>G</title><g id="node1" class="node"><title>ABL1</title><a xlink:href="ABL1.html"><ellipse cx="55" cy="39" rx="40" ry="24" style="fill:turquoise;stroke:turquoise;"/><text text-anchor="middle" x="55" y="46" style="font-family:Times New Roman;"><![CDATA[ABL1]]></text></a></g><g id="node2" class="node"><title>SORBS1</title><a xlink:href="SORBS1.html"><ellipse cx="213" cy="135" rx="52" ry="24" style="fill:turquoise;stroke:turquoise;"/><text text-anchor="middle" x="213" y="142" style="font-family:Times New Roman;"><![CDATA[SORBS1]]></text></a></g><g id="edge2" class="edge"><title>ABL1-&gt;SORBS1</title><path style="fill:none;stroke:#0000ff;" d="M89,59C114,75 149,97 175,113"/><polygon style="fill:#0000ff;stroke:#0000ff;" points="85,54 82,59 88,62 90,57 85,54"/><polygon style="fill:#0000ff;stroke:#0000ff;" points="179,119 183,114 178,110 174,115 179,119"/></g><g id="node10" class="node"><title>INPPL1</title><a xlink:href="INPPL1.html"><ellipse cx="55" cy="231" rx="49" ry="24" style="fill:turquoise;stroke:turquoise;"/><text text-anchor="middle" x="55" y="238" style="font-family:Times New Roman;"><![CDATA[INPPL1]]></text></a></g><g id="edge10" class="edge"><title>SORBS1-&gt;INPPL1</title><path style="fill:none;stroke:#0000ff;" d="M174,158C150,174 117,194 92,210"/><polygon style="fill:#0000ff;stroke:#0000ff;" points="182,157 179,151 174,155 177,161 182,157"/><polygon style="fill:#0000ff;stroke:#0000ff;" points="85,210 88,215 93,213 90,207 85,210"/></g><g id="node12" class="node"><title>SOS1</title><a xlink:href="SOS1.html"><ellipse cx="165" cy="231" rx="36" ry="24" style="fill:turquoise;stroke:turquoise;"/><text text-anchor="middle" x="165" y="238" style="font-family:Times New Roman;"><![CDATA[SOS1]]></text></a></g><g id="edge12" class="edge"><title>SORBS1-&gt;SOS1</title><path style="fill:none;stroke:#0000ff;" d="M198,165C191,177 185,191 178,203"/><polygon style="fill:#0000ff;stroke:#0000ff;" points="203,161 198,158 195,163 201,166 203,161"/><polygon style="fill:#0000ff;stroke:#0000ff;" points="173,207 178,210 181,205 175,202 173,207"/></g><g id="node14" class="node"><title>VCL</title><a xlink:href="VCL.html"><ellipse cx="262" cy="231" rx="37" ry="24" style="fill:turquoise;stroke:turquoise;"/><text text-anchor="middle" x="262" y="238" style="font-family:Times New Roman;"><![CDATA[VCL]]></text></a></g><g id="edge14" class="edge"><title>SORBS1-&gt;VCL</title><path style="fill:none;stroke:#0000ff;" d="M227,165C234,177 241,191 247,203"/><polygon style="fill:#0000ff;stroke:#0000ff;" points="227,158 222,161 225,166 230,163 227,158"/><polygon style="fill:#0000ff;stroke:#0000ff;" points="247,210 253,207 250,202 245,205 247,210"/></g><g id="node16" class="node"><title>CBL</title><a xlink:href="CBL.html"><ellipse cx="360" cy="231" rx="36" ry="24" style="fill:turquoise;stroke:turquoise;"/><text text-anchor="middle" x="360" y="238" style="font-family:Times New Roman;"><![CDATA[CBL]]></text></a></g><g id="edge16" class="edge"><title>SORBS1-&gt;CBL</title><path style="fill:none;stroke:#0000ff;" d="M250,159C274,175 306,197 329,211"/><polygon style="fill:#0000ff;stroke:#0000ff;" points="245,153 242,158 247,162 250,157 245,153"/><polygon style="fill:#0000ff;stroke:#0000ff;" points="333,217 336,211 330,209 328,214 333,217"/></g><g id="node4" class="node"><title>PTK2</title><a xlink:href="PTK2.html"><ellipse cx="161" cy="39" rx="41" ry="24" style="fill:turquoise;stroke:turquoise;"/><text text-anchor="middle" x="161" y="46" style="font-family:Times New Roman;"><![CDATA[PTK2]]></text></a></g><g id="edge4" class="edge"><title>PTK2-&gt;SORBS1</title><path style="fill:none;stroke:#0000ff;" d="M175,67C182,81 190,94 197,107"/><polygon style="fill:#0000ff;stroke:#0000ff;" points="175,61 170,63 173,69 178,66 175,61"/><polygon style="fill:#0000ff;stroke:#0000ff;" points="197,114 202,111 199,106 194,109 197,114"/></g><g id="node6" class="node"><title>INSR</title><a xlink:href="INSR.html"><ellipse cx="266" cy="39" rx="40" ry="24" style="fill:turquoise;stroke:turquoise;"/><text text-anchor="middle" x="266" y="46" style="font-family:Times New Roman;"><![CDATA[INSR]]></text></a></g><g id="edge6" class="edge"><title>INSR-&gt;SORBS1</title><path style="fill:none;stroke:#0000ff;" d="M250,67C243,81 235,94 229,107"/><polygon style="fill:#0000ff;stroke:#0000ff;" points="255,63 250,61 247,66 253,69 255,63"/><polygon style="fill:#0000ff;stroke:#0000ff;" points="223,111 229,114 231,109 226,106 223,111"/></g><g id="node8" class="node"><title>NCK2</title><a xlink:href="NCK2.html"><ellipse cx="376" cy="39" rx="45" ry="24" style="fill:turquoise;stroke:turquoise;"/><text text-anchor="middle" x="376" y="46" style="font-family:Times New Roman;"><![CDATA[NCK2]]></text></a></g><g id="edge8" class="edge"><title>NCK2-&gt;SORBS1</title><path style="fill:none;stroke:#0000ff;" d="M340,61C314,75 278,97 251,113"/><polygon style="fill:#0000ff;stroke:#0000ff;" points="346,61 344,55 338,58 341,63 346,61"/><polygon style="fill:#0000ff;stroke:#0000ff;" points="243,114 246,119 251,115 249,110 243,114"/></g></g></svg>