<?xml version="1.0" encoding="UTF-8" standalone="no"?><!DOCTYPE svg PUBLIC "-//W3C//DTD SVG 1.0//EN" "http://www.w3.org/TR/2001/REC-SVG-20010904/DTD/svg10.dtd" [ <!ATTLIST svg xmlns:xlink CDATA #FIXED "http://www.w3.org/1999/xlink">]><!-- Generated by WinGraphviz version ver1.02.23, 08/01/2003 (08/04/2003)     For user: Avi Ma'ayan   Title: G    Pages: 1 --><svg width="314px" height="276px" xmlns="http://www.w3.org/2000/svg" xmlns:xlink="http://www.w3.org/1999/xlink"><g id="graph0" class="graph" style="font-family:Times New Roman;font-size:18.67;"><title>G</title><g id="node1" class="node"><title>MAPK1</title><a xlink:href="MAPK1.html"><ellipse cx="58" cy="39" rx="52" ry="24" style="fill:turquoise;stroke:turquoise;"/><text text-anchor="middle" x="58" y="46" style="font-family:Times New Roman;"><![CDATA[MAPK1]]></text></a></g><g id="node2" class="node"><title>SORBS3</title><a xlink:href="SORBS3.html"><ellipse cx="170" cy="135" rx="53" ry="24" style="fill:turquoise;stroke:turquoise;"/><text text-anchor="middle" x="170" y="142" style="font-family:Times New Roman;"><![CDATA[SORBS3]]></text></a></g><g id="edge2" class="edge"><title>MAPK1-&gt;SORBS3</title><path style="fill:none;stroke:darkgreen;" d="M84,61C98,74 118,91 135,106"/><polygon style="fill:darkgreen;stroke:darkgreen;" points="137,103 145,114 133,107 137,103"/></g><g id="node4" class="node"><title>INPPL1</title><a xlink:href="INPPL1.html"><ellipse cx="170" cy="231" rx="49" ry="24" style="fill:turquoise;stroke:turquoise;"/><text text-anchor="middle" x="170" y="238" style="font-family:Times New Roman;"><![CDATA[INPPL1]]></text></a></g><g id="edge10" class="edge"><title>SORBS3-&gt;INPPL1</title><path style="fill:none;stroke:#0000ff;" d="M162,166C161,177 161,190 162,201"/><polygon style="fill:#0000ff;stroke:#0000ff;" points="166,159 159,159 159,166 166,166 166,159"/><polygon style="fill:#0000ff;stroke:#0000ff;" points="159,207 166,207 166,201 159,201 159,207"/></g><g id="edge4" class="edge"><title>INPPL1-&gt;SORBS3</title><path style="fill:none;stroke:#0000ff;" d="M178,166C179,177 179,190 178,201"/><polygon style="fill:#0000ff;stroke:#0000ff;" points="182,159 175,159 175,166 182,166 182,159"/><polygon style="fill:#0000ff;stroke:#0000ff;" points="175,207 182,207 182,201 175,201 175,207"/></g><g id="node6" class="node"><title>SOS1</title><a xlink:href="SOS1.html"><ellipse cx="170" cy="39" rx="36" ry="24" style="fill:turquoise;stroke:turquoise;"/><text text-anchor="middle" x="170" y="46" style="font-family:Times New Roman;"><![CDATA[SOS1]]></text></a></g><g id="edge6" class="edge"><title>SOS1-&gt;SORBS3</title><path style="fill:none;stroke:#0000ff;" d="M170,70C170,81 170,94 170,105"/><polygon style="fill:#0000ff;stroke:#0000ff;" points="174,63 167,63 167,70 174,70 174,63"/><polygon style="fill:#0000ff;stroke:#0000ff;" points="167,111 174,111 174,105 167,105 167,111"/></g><g id="node8" class="node"><title>VCL</title><a xlink:href="VCL.html"><ellipse cx="268" cy="39" rx="37" ry="24" style="fill:turquoise;stroke:turquoise;"/><text text-anchor="middle" x="268" y="46" style="font-family:Times New Roman;"><![CDATA[VCL]]></text></a></g><g id="edge8" class="edge"><title>VCL-&gt;SORBS3</title><path style="fill:none;stroke:#0000ff;" d="M243,63C229,78 211,94 197,109"/><polygon style="fill:#0000ff;stroke:#0000ff;" points="250,62 245,57 239,62 245,67 250,62"/><polygon style="fill:#0000ff;stroke:#0000ff;" points="189,111 194,117 199,111 194,106 189,111"/></g></g></svg>