<?xml version="1.0" encoding="UTF-8" standalone="no"?><!DOCTYPE svg PUBLIC "-//W3C//DTD SVG 1.0//EN" "http://www.w3.org/TR/2001/REC-SVG-20010904/DTD/svg10.dtd" [ <!ATTLIST svg xmlns:xlink CDATA #FIXED "http://www.w3.org/1999/xlink">]><!-- Generated by WinGraphviz version ver1.02.23, 08/01/2003 (08/04/2003)     For user: Avi Ma'ayan   Title: G    Pages: 1 --><svg width="330px" height="276px" xmlns="http://www.w3.org/2000/svg" xmlns:xlink="http://www.w3.org/1999/xlink"><g id="graph0" class="graph" style="font-family:Times New Roman;font-size:18.67;"><title>G</title><g id="node1" class="node"><title>ABL1</title><a xlink:href="ABL1.html"><ellipse cx="150" cy="39" rx="40" ry="24" style="fill:turquoise;stroke:turquoise;"/><text text-anchor="middle" x="150" y="46" style="font-family:Times New Roman;"><![CDATA[ABL1]]></text></a></g><g id="node2" class="node"><title>SORBS2</title><a xlink:href="SORBS2.html"><ellipse cx="150" cy="135" rx="54" ry="24" style="fill:turquoise;stroke:turquoise;"/><text text-anchor="middle" x="150" y="142" style="font-family:Times New Roman;"><![CDATA[SORBS2]]></text></a></g><g id="edge2" class="edge"><title>ABL1-&gt;SORBS2</title><path style="fill:none;stroke:darkgreen;" d="M150,63C150,74 150,86 150,98"/><polygon style="fill:darkgreen;stroke:darkgreen;" points="154,98 150,111 147,98 154,98"/></g><g id="node4" class="node"><title>CBL</title><a xlink:href="CBL.html"><ellipse cx="42" cy="231" rx="36" ry="24" style="fill:turquoise;stroke:turquoise;"/><text text-anchor="middle" x="42" y="238" style="font-family:Times New Roman;"><![CDATA[CBL]]></text></a></g><g id="edge4" class="edge"><title>SORBS2-&gt;CBL</title><path style="fill:none;stroke:#0000ff;" d="M121,162C105,177 85,194 69,209"/><polygon style="fill:#0000ff;stroke:#0000ff;" points="129,159 124,154 118,159 124,165 129,159"/><polygon style="fill:#0000ff;stroke:#0000ff;" points="62,210 66,215 72,211 68,206 62,210"/></g><g id="node6" class="node"><title>DNM2</title><a xlink:href="DNM2.html"><ellipse cx="150" cy="231" rx="48" ry="24" style="fill:turquoise;stroke:turquoise;"/><text text-anchor="middle" x="150" y="238" style="font-family:Times New Roman;"><![CDATA[DNM2]]></text></a></g><g id="edge6" class="edge"><title>SORBS2-&gt;DNM2</title><path style="fill:none;stroke:#0000ff;" d="M150,166C150,177 150,190 150,201"/><polygon style="fill:#0000ff;stroke:#0000ff;" points="154,159 147,159 147,166 154,166 154,159"/><polygon style="fill:#0000ff;stroke:#0000ff;" points="147,207 154,207 154,201 147,201 147,207"/></g><g id="node8" class="node"><title>PTK2B</title><a xlink:href="PTK2B.html"><ellipse cx="272" cy="231" rx="49" ry="24" style="fill:turquoise;stroke:turquoise;"/><text text-anchor="middle" x="272" y="238" style="font-family:Times New Roman;"><![CDATA[PTK2B]]></text></a></g><g id="edge8" class="edge"><title>SORBS2-&gt;PTK2B</title><path style="fill:none;stroke:#0000ff;" d="M182,161C199,175 222,193 239,207"/><polygon style="fill:#0000ff;stroke:#0000ff;" points="179,154 175,159 181,163 185,158 179,154"/><polygon style="fill:#0000ff;stroke:#0000ff;" points="243,214 247,209 242,205 238,210 243,214"/></g></g></svg>