<?xml version="1.0" encoding="UTF-8" standalone="no"?><!DOCTYPE svg PUBLIC "-//W3C//DTD SVG 1.0//EN" "http://www.w3.org/TR/2001/REC-SVG-20010904/DTD/svg10.dtd" [ <!ATTLIST svg xmlns:xlink CDATA #FIXED "http://www.w3.org/1999/xlink">]><!-- Generated by WinGraphviz version ver1.02.23, 08/01/2003 (08/04/2003)     For user: Avi Ma'ayan   Title: G    Pages: 1 --><svg width="735px" height="199px" xmlns="http://www.w3.org/2000/svg" xmlns:xlink="http://www.w3.org/1999/xlink"><g id="graph0" class="graph" style="font-family:Times New Roman;font-size:13.23;"><title>G</title><g id="node1" class="node"><title>ABI1</title><a xlink:href="ABI1.html"><ellipse cx="33" cy="28" rx="26" ry="17" style="fill:turquoise;stroke:turquoise;"/><text text-anchor="middle" x="33" y="33" style="font-family:Times New Roman;"><![CDATA[ABI1]]></text></a></g><g id="node2" class="node"><title>SOS1</title><a xlink:href="SOS1.html"><ellipse cx="366" cy="96" rx="25" ry="17" style="fill:turquoise;stroke:turquoise;"/><text text-anchor="middle" x="366" y="101" style="font-family:Times New Roman;"><![CDATA[SOS1]]></text></a></g><g id="edge2" class="edge"><title>ABI1-&gt;SOS1</title><path style="fill:none;stroke:#0000ff;" d="M56,40C60,42 64,43 68,45 163,76 280,89 336,94"/><polygon style="fill:#0000ff;stroke:#0000ff;" points="53,38 52,41 56,42 58,39 53,38"/><polygon style="fill:#0000ff;stroke:#0000ff;" points="341,96 341,92 336,92 336,96 341,96"/></g><g id="node20" class="node"><title>HRAS</title><a xlink:href="HRAS.html"><ellipse cx="288" cy="164" rx="32" ry="17" style="fill:turquoise;stroke:turquoise;"/><text text-anchor="middle" x="288" y="169" style="font-family:Times New Roman;"><![CDATA[HRAS]]></text></a></g><g id="edge20" class="edge"><title>SOS1-&gt;HRAS</title><path style="fill:none;stroke:darkgreen;" d="M350,110C339,120 324,133 311,144"/><polygon style="fill:darkgreen;stroke:darkgreen;" points="313,145 305,150 310,143 313,145"/></g><g id="node22" class="node"><title>RAC1</title><a xlink:href="RAC1.html"><ellipse cx="366" cy="164" rx="29" ry="17" style="fill:turquoise;stroke:turquoise;"/><text text-anchor="middle" x="366" y="169" style="font-family:Times New Roman;"><![CDATA[RAC1]]></text></a></g><g id="edge22" class="edge"><title>SOS1-&gt;RAC1</title><path style="fill:none;stroke:darkgreen;" d="M366,113C366,121 366,129 366,138"/><polygon style="fill:darkgreen;stroke:darkgreen;" points="369,138 366,147 364,138 369,138"/></g><g id="node24" class="node"><title>SORBS3</title><a xlink:href="SORBS3.html"><ellipse cx="450" cy="164" rx="37" ry="17" style="fill:turquoise;stroke:turquoise;"/><text text-anchor="middle" x="450" y="169" style="font-family:Times New Roman;"><![CDATA[SORBS3]]></text></a></g><g id="edge24" class="edge"><title>SOS1-&gt;SORBS3</title><path style="fill:none;stroke:#0000ff;" d="M387,112C399,123 415,135 428,146"/><polygon style="fill:#0000ff;stroke:#0000ff;" points="385,108 382,111 386,114 389,110 385,108"/><polygon style="fill:#0000ff;stroke:#0000ff;" points="430,151 433,147 429,144 427,148 430,151"/></g><g id="node4" class="node"><title>SH3KBP1</title><a xlink:href="SH3KBP1.html"><ellipse cx="118" cy="28" rx="41" ry="17" style="fill:turquoise;stroke:turquoise;"/><text text-anchor="middle" x="118" y="33" style="font-family:Times New Roman;"><![CDATA[SH3KBP1]]></text></a></g><g id="edge4" class="edge"><title>SH3KBP1-&gt;SOS1</title><path style="fill:none;stroke:#0000ff;" d="M154,40C158,42 163,43 168,45 227,63 299,81 337,90"/><polygon style="fill:#0000ff;stroke:#0000ff;" points="151,38 149,41 154,42 155,39 151,38"/><polygon style="fill:#0000ff;stroke:#0000ff;" points="342,92 342,89 337,88 337,92 342,92"/></g><g id="node6" class="node"><title>CRK</title><a xlink:href="CRK.html"><ellipse cx="204" cy="28" rx="27" ry="17" style="fill:turquoise;stroke:turquoise;"/><text text-anchor="middle" x="204" y="33" style="font-family:Times New Roman;"><![CDATA[CRK]]></text></a></g><g id="edge6" class="edge"><title>CRK-&gt;SOS1</title><path style="fill:none;stroke:#0000ff;" d="M229,40C232,42 236,43 240,45 274,60 313,76 339,86"/><polygon style="fill:#0000ff;stroke:#0000ff;" points="226,37 224,40 228,42 230,39 226,37"/><polygon style="fill:#0000ff;stroke:#0000ff;" points="343,90 344,86 340,84 338,88 343,90"/></g><g id="node8" class="node"><title>CRKL</title><a xlink:href="CRKL.html"><ellipse cx="280" cy="28" rx="32" ry="17" style="fill:turquoise;stroke:turquoise;"/><text text-anchor="middle" x="280" y="33" style="font-family:Times New Roman;"><![CDATA[CRKL]]></text></a></g><g id="edge8" class="edge"><title>CRKL-&gt;SOS1</title><path style="fill:none;stroke:#0000ff;" d="M302,45C314,57 332,70 345,80"/><polygon style="fill:#0000ff;stroke:#0000ff;" points="300,40 297,44 301,47 304,43 300,40"/><polygon style="fill:#0000ff;stroke:#0000ff;" points="349,85 351,81 347,78 345,82 349,85"/></g><g id="node10" class="node"><title>MAPK1</title><a xlink:href="MAPK1.html"><ellipse cx="366" cy="28" rx="36" ry="17" style="fill:turquoise;stroke:turquoise;"/><text text-anchor="middle" x="366" y="33" style="font-family:Times New Roman;"><![CDATA[MAPK1]]></text></a></g><g id="edge10" class="edge"><title>MAPK1-&gt;SOS1</title><path style="fill:none;stroke:darkgreen;" d="M366,45C366,53 366,61 366,70"/><polygon style="fill:darkgreen;stroke:darkgreen;" points="369,70 366,79 364,70 369,70"/></g><g id="node12" class="node"><title>FYN</title><a xlink:href="FYN.html"><ellipse cx="447" cy="28" rx="27" ry="17" style="fill:turquoise;stroke:turquoise;"/><text text-anchor="middle" x="447" y="33" style="font-family:Times New Roman;"><![CDATA[FYN]]></text></a></g><g id="edge12" class="edge"><title>FYN-&gt;SOS1</title><path style="fill:none;stroke:#0000ff;" d="M428,45C415,56 399,69 386,79"/><polygon style="fill:#0000ff;stroke:#0000ff;" points="433,44 430,40 427,43 429,47 433,44"/><polygon style="fill:#0000ff;stroke:#0000ff;" points="380,81 384,85 388,81 384,77 380,81"/></g><g id="node14" class="node"><title>GRB2</title><a xlink:href="GRB2.html"><ellipse cx="523" cy="28" rx="31" ry="17" style="fill:turquoise;stroke:turquoise;"/><text text-anchor="middle" x="523" y="33" style="font-family:Times New Roman;"><![CDATA[GRB2]]></text></a></g><g id="edge14" class="edge"><title>GRB2-&gt;SOS1</title><path style="fill:none;stroke:#0000ff;" d="M495,40C466,53 420,74 393,85"/><polygon style="fill:#0000ff;stroke:#0000ff;" points="499,40 498,37 494,39 496,42 499,40"/><polygon style="fill:#0000ff;stroke:#0000ff;" points="387,85 389,89 394,87 392,83 387,85"/></g><g id="node16" class="node"><title>NCK2</title><a xlink:href="NCK2.html"><ellipse cx="603" cy="28" rx="32" ry="17" style="fill:turquoise;stroke:turquoise;"/><text text-anchor="middle" x="603" y="33" style="font-family:Times New Roman;"><![CDATA[NCK2]]></text></a></g><g id="edge16" class="edge"><title>NCK2-&gt;SOS1</title><path style="fill:none;stroke:#0000ff;" d="M575,40C571,42 566,43 563,45 504,65 433,82 395,91"/><polygon style="fill:#0000ff;stroke:#0000ff;" points="580,41 578,38 573,39 575,42 580,41"/><polygon style="fill:#0000ff;stroke:#0000ff;" points="391,90 391,93 395,92 395,89 391,90"/></g><g id="node18" class="node"><title>SORBS1</title><a xlink:href="SORBS1.html"><ellipse cx="689" cy="28" rx="36" ry="17" style="fill:turquoise;stroke:turquoise;"/><text text-anchor="middle" x="689" y="33" style="font-family:Times New Roman;"><![CDATA[SORBS1]]></text></a></g><g id="edge18" class="edge"><title>SORBS1-&gt;SOS1</title><path style="fill:none;stroke:#0000ff;" d="M657,40C652,42 649,43 644,45 554,70 447,86 397,92"/><polygon style="fill:#0000ff;stroke:#0000ff;" points="662,41 660,38 655,39 657,42 662,41"/><polygon style="fill:#0000ff;stroke:#0000ff;" points="392,92 392,95 396,94 396,91 392,92"/></g></g></svg>