<?xml version="1.0" encoding="UTF-8" standalone="no"?><!DOCTYPE svg PUBLIC "-//W3C//DTD SVG 1.0//EN" "http://www.w3.org/TR/2001/REC-SVG-20010904/DTD/svg10.dtd" [ <!ATTLIST svg xmlns:xlink CDATA #FIXED "http://www.w3.org/1999/xlink">]><!-- Generated by WinGraphviz version ver1.02.23, 08/01/2003 (08/04/2003)     For user: Avi Ma'ayan   Title: G    Pages: 1 --><!--="735px" height="62px" xmlns="http://www.w3.org/2000/svg" --><svg onload="init(evt)" width="735px" height="600px" xmlns="http://www.w3.org/2000/svg" xmlns:xlink="http://www.w3.org/1999/xlink">
<script type="text/ecmascript">
<![CDATA[
var svgDocument;
var zoomAmt;
var xOffset;
var yOffset;
var scale;
var maxScale;
var imageWidth;
var imageHeight;
function init(evt)
{
    svgDocument = evt.getTarget().getOwnerDocument();
    zoomAmt = 0;
    xOffset = 0;
    yOffset = 60;
    scale = 0.8;
    maxScale = 10;
    imageWidth = 742;
    imageHeight = 606;
    panRestore();
    //panUp();
}
function transformMap ()
{
    var obj = svgDocument.getElementById("Pathway");
    var centerX = imageWidth  / 2.0;
    var centerY = imageHeight / 2.0;
    var adjustX = (-centerX * (scale - 0.8)) + xOffset;
    var adjustY = (-centerY * (scale - 0.8)) + yOffset;
    var transParms = 'translate(' + adjustX + ',' + adjustY + ') ';
    transParms += 'scale(' + scale + ')';
    // alert(transParms);
    obj.setAttribute("transform", transParms); 
}
function click_node(id)
{
    var testx = parent.click_node;
    if (typeof(testx) == "function")
    {
		parent.click_node(id);
    }
}
function click_relation(id)
{
    var testx = parent.click_relation;
    if (typeof(testx) == "function")
    {
        parent.click_relation(id);
    }
}
function click_pathway(toId, fromId)
{
    var testx = parent.click_pathway;
    if (typeof(testx) == "function")
    {
	parent.click_pathway(toId, fromId);
    }
}
function check_interpath(evt, pathid)
{
  var obj = evt.getTarget();
  var testx = parent.is_frompath;
  var child = obj.firstChild;
  if (typeof(testx) == "function")
  {
    if (parent.is_frompath(pathid))
    {
      while (child != null)
      {
        if (child.nodeType == 1)
        {
          if ((child.localName == "g") || (child.localName == "polyline"))
          {
            child.setAttribute("style", "fill:none;stroke:red");
          }
          else if (child.localName == "polygon")
          {
            child.setAttribute("style", "fill:red;stroke:red");
          }
        }
        child = child.nextSibling;
      }
    }
  }
}
function set_status (msg)
{
 var obj = svgDocument.getElementById("status_text");
  var child;
 
  child = obj.firstChild;
  if ((child != null) && (child.nodeType == 3))
  {
    if ((msg != null) && (msg.length > 0))
    {
      child.data = msg;
    }
    else
    {
child.data = " ";
    }
  }
}
function zoomIn ()
{
    scale = scale + 0.8;
    if (scale > maxScale)
    {
       scale = maxScale;
    }
    transformMap();
    panUp();
    panUp();
    panUp();
    panUp();
    panUp();
    panUp();
    panUp();
    panUp();
    panUp();
    panUp();
    panUp();
    panUp();
}
function zoomOut ()
{
    scale = scale - 0.8;
    if (scale < 0.8)
    {
       scale = 0.8;
    }
    transformMap();
    panDown();
    panDown();
    panDown();
    panDown();
    panDown();
    panDown();
    panDown();
    panDown();
    panDown();
    panDown();
    panDown();
    panDown();
}
function panUp ()
{
    yOffset = yOffset + 20;
    transformMap();
}
function panDown ()
{
    yOffset = yOffset - 20;
    transformMap();
}
function panLeft ()
{
    xOffset = xOffset + 20;
    transformMap();
}
function panRight ()
{
    xOffset = xOffset - 20;
    transformMap();
}
function panRestore ()
{
    xOffset = 0;
    yOffset = 0;
    scale = 0.5;
    //obj = svgDocument.getElementById("zoom");
    //obj.setAttribute("x1", 0);
    //obj.setAttribute("x2", 0);
    transformMap();    
}
function doHighlight (evt, msg)
{
  var obj = evt.getTarget();
  obj.setAttribute("fill", "rgb(239,24,33)");
  set_status(msg);
}
function resetHighlight (evt)
{
  var obj = evt.getTarget();
  obj.setAttribute("fill", "rgb(99,154,206)");
  set_status(" ");
}
// ]]>
</script>
<defs>
<clipPath id="theClip">
<polygon points="1 61, 741 61, 741 665, 1 665"
style="fill: none;"/>
</clipPath>
</defs>
<!-- viewport outline -->
<rect x="0" y="61" width="742" height="606"
style="stroke: black; stroke-width: 1; fill: none;"/>
<!-- pathway graph style="clip-path: url(#theClip);" -->
<g style="clip-path: url(#theClip);">
<g id="Pathway"  transform="translate(0,60)">
<!-- prefile.include ends, begin pathway graph -->
<g id="stkecm;CMP_10705" class="graph">
</g>
<g id="graph0" class="graph" style="font-family:Times New Roman;font-size:3.42;"><title>G</title><g id="node1" class="node"><title>CAPN1</title><a xlink:href="CAPN1.html"><ellipse cx="236" cy="10" rx="9" ry="4" style="fill:turquoise;stroke:turquoise;"/><text text-anchor="middle" x="236" y="12" style="font-family:Times New Roman;"><![CDATA[CAPN1]]></text></a></g><g id="node2" class="node"><title>SRC</title><a xlink:href="SRC.html"><ellipse cx="350" cy="28" rx="6" ry="4" style="fill:turquoise;stroke:turquoise;"/><text text-anchor="middle" x="350" y="29" style="font-family:Times New Roman;"><![CDATA[SRC]]></text></a></g><g id="edge2" class="edge"><title>CAPN1-&gt;SRC</title><path style="fill:none;stroke:#ff0000;" d="M242,13C244,14 245,14 247,15 280,23 321,26 340,27"/><polyline style="fill:none;stroke:#ff0000;" points="340,29 340,26 "/></g><g id="node12" class="node"><title>PRKCA</title><a xlink:href="PRKCA.html"><ellipse cx="16" cy="45" rx="9" ry="4" style="fill:turquoise;stroke:turquoise;"/><text text-anchor="middle" x="16" y="47" style="font-family:Times New Roman;"><![CDATA[PRKCA]]></text></a></g><g id="edge72" class="edge"><title>SRC-&gt;PRKCA</title><path style="fill:none;stroke:darkgreen;" d="M343,28C300,29 58,35 26,41 25,41 25,41 24,41"/><polygon style="fill:darkgreen;stroke:darkgreen;" points="25,42 22,42 24,41 25,42"/></g><g id="node20" class="node"><title>PTPRA</title><a xlink:href="PTPRA.html"><ellipse cx="39" cy="45" rx="9" ry="4" style="fill:turquoise;stroke:turquoise;"/><text text-anchor="middle" x="39" y="47" style="font-family:Times New Roman;"><![CDATA[PTPRA]]></text></a></g><g id="edge78" class="edge"><title>SRC-&gt;PTPRA</title><path style="fill:none;stroke:darkgreen;" d="M343,28C302,29 79,35 49,41 48,41 48,41 47,41"/><polygon style="fill:darkgreen;stroke:darkgreen;" points="48,42 45,42 47,41 48,42"/></g><g id="node28" class="node"><title>ABL1</title><a xlink:href="ABL1.html"><ellipse cx="60" cy="45" rx="7" ry="4" style="fill:turquoise;stroke:turquoise;"/><text text-anchor="middle" x="60" y="47" style="font-family:Times New Roman;"><![CDATA[ABL1]]></text></a></g><g id="edge28" class="edge"><title>SRC-&gt;ABL1</title><path style="fill:none;stroke:darkgreen;" d="M343,28C303,29 97,34 70,41 69,41 69,41 68,42"/><polygon style="fill:darkgreen;stroke:darkgreen;" points="68,42 66,43 68,41 68,42"/></g><g id="node30" class="node"><title>ADAM12</title><a xlink:href="ADAM12.html"><ellipse cx="83" cy="45" rx="10" ry="4" style="fill:turquoise;stroke:turquoise;"/><text text-anchor="middle" x="83" y="47" style="font-family:Times New Roman;"><![CDATA[ADAM12]]></text></a></g><g id="edge30" class="edge"><title>SRC-&gt;ADAM12</title><path style="fill:none;stroke:darkgreen;" d="M343,28C308,29 145,32 96,41 95,41 94,42 93,42"/><polygon style="fill:darkgreen;stroke:darkgreen;" points="93,42 91,43 93,41 93,42"/></g><g id="node32" class="node"><title>AKT1</title><a xlink:href="AKT1.html"><ellipse cx="106" cy="45" rx="7" ry="4" style="fill:turquoise;stroke:turquoise;"/><text text-anchor="middle" x="106" y="47" style="font-family:Times New Roman;"><![CDATA[AKT1]]></text></a></g><g id="edge32" class="edge"><title>SRC-&gt;AKT1</title><path style="fill:none;stroke:darkgreen;" d="M343,28C310,28 160,30 115,41 115,41 114,41 113,42"/><polygon style="fill:darkgreen;stroke:darkgreen;" points="114,42 112,43 113,41 114,42"/></g><g id="node34" class="node"><title>DDEF1</title><a xlink:href="DDEF1.html"><ellipse cx="126" cy="45" rx="8" ry="4" style="fill:turquoise;stroke:turquoise;"/><text text-anchor="middle" x="126" y="47" style="font-family:Times New Roman;"><![CDATA[DDEF1]]></text></a></g><g id="edge34" class="edge"><title>SRC-&gt;DDEF1</title><path style="fill:none;stroke:darkgreen;" d="M343,28C312,29 178,32 137,41 136,41 135,42 134,42"/><polygon style="fill:darkgreen;stroke:darkgreen;" points="135,42 133,43 134,41 135,42"/></g><g id="node36" class="node"><title>RAPGEF1</title><a xlink:href="RAPGEF1.html"><ellipse cx="151" cy="45" rx="11" ry="4" style="fill:turquoise;stroke:turquoise;"/><text text-anchor="middle" x="151" y="47" style="font-family:Times New Roman;"><![CDATA[RAPGEF1]]></text></a></g><g id="edge36" class="edge"><title>SRC-&gt;RAPGEF1</title><path style="fill:none;stroke:darkgreen;" d="M343,28C314,29 200,34 164,41 163,41 162,42 161,42"/><polygon style="fill:darkgreen;stroke:darkgreen;" points="161,42 159,43 161,41 161,42"/></g><g id="node38" class="node"><title>BCAR1</title><a xlink:href="BCAR1.html"><ellipse cx="176" cy="45" rx="9" ry="4" style="fill:turquoise;stroke:turquoise;"/><text text-anchor="middle" x="176" y="47" style="font-family:Times New Roman;"><![CDATA[BCAR1]]></text></a></g><g id="edge38" class="edge"><title>SRC-&gt;BCAR1</title><path style="fill:none;stroke:darkgreen;" d="M343,28C317,29 217,34 187,41 186,41 185,42 184,42"/><polygon style="fill:darkgreen;stroke:darkgreen;" points="185,42 182,43 184,41 185,42"/></g><g id="node40" class="node"><title>CAV1</title><a xlink:href="CAV1.html"><ellipse cx="197" cy="45" rx="7" ry="4" style="fill:turquoise;stroke:turquoise;"/><text text-anchor="middle" x="197" y="47" style="font-family:Times New Roman;"><![CDATA[CAV1]]></text></a></g><g id="edge40" class="edge"><title>SRC-&gt;CAV1</title><path style="fill:none;stroke:darkgreen;" d="M343,28C319,30 233,34 207,41 206,41 206,41 205,42"/><polygon style="fill:darkgreen;stroke:darkgreen;" points="205,42 203,43 205,41 205,42"/></g><g id="node42" class="node"><title>CTTN</title><a xlink:href="CTTN.html"><ellipse cx="217" cy="45" rx="8" ry="4" style="fill:turquoise;stroke:turquoise;"/><text text-anchor="middle" x="217" y="47" style="font-family:Times New Roman;"><![CDATA[CTTN]]></text></a></g><g id="edge42" class="edge"><title>SRC-&gt;CTTN</title><path style="fill:none;stroke:darkgreen;" d="M343,28C321,30 250,35 227,41 227,41 226,42 225,42"/><polygon style="fill:darkgreen;stroke:darkgreen;" points="226,42 223,43 225,41 226,42"/></g><g id="node44" class="node"><title>PTK2</title><a xlink:href="PTK2.html"><ellipse cx="237" cy="45" rx="7" ry="4" style="fill:turquoise;stroke:turquoise;"/><text text-anchor="middle" x="237" y="47" style="font-family:Times New Roman;"><![CDATA[PTK2]]></text></a></g><g id="edge44" class="edge"><title>SRC-&gt;PTK2</title><path style="fill:none;stroke:darkgreen;" d="M343,28C327,29 282,31 247,41 246,41 246,42 245,42"/><polygon style="fill:darkgreen;stroke:darkgreen;" points="245,42 243,43 245,41 245,42"/></g><g id="node46" class="node"><title>GIT1</title><a xlink:href="GIT1.html"><ellipse cx="256" cy="45" rx="6" ry="4" style="fill:turquoise;stroke:turquoise;"/><text text-anchor="middle" x="256" y="47" style="font-family:Times New Roman;"><![CDATA[GIT1]]></text></a></g><g id="edge46" class="edge"><title>SRC-&gt;GIT1</title><path style="fill:none;stroke:darkgreen;" d="M343,28C329,29 293,32 264,41 264,41 264,42 263,42"/><polygon style="fill:darkgreen;stroke:darkgreen;" points="263,42 261,43 263,41 263,42"/></g><g id="node48" class="node"><title>GRB2</title><a xlink:href="GRB2.html"><ellipse cx="275" cy="45" rx="8" ry="4" style="fill:turquoise;stroke:turquoise;"/><text text-anchor="middle" x="275" y="47" style="font-family:Times New Roman;"><![CDATA[GRB2]]></text></a></g><g id="edge48" class="edge"><title>SRC-&gt;GRB2</title><path style="fill:none;stroke:darkgreen;" d="M343,29C331,31 306,35 285,41 285,41 284,42 283,42"/><polygon style="fill:darkgreen;stroke:darkgreen;" points="284,42 281,43 283,41 284,42"/></g><g id="node50" class="node"><title>ITGB1</title><a xlink:href="ITGB1.html"><ellipse cx="295" cy="45" rx="8" ry="4" style="fill:turquoise;stroke:turquoise;"/><text text-anchor="middle" x="295" y="47" style="font-family:Times New Roman;"><![CDATA[ITGB1]]></text></a></g><g id="edge50" class="edge"><title>SRC-&gt;ITGB1</title><path style="fill:none;stroke:darkgreen;" d="M344,30C335,32 319,36 306,41 305,41 304,42 304,42"/><polygon style="fill:darkgreen;stroke:darkgreen;" points="304,42 302,43 304,41 304,42"/></g><g id="node52" class="node"><title>IRS1</title><a xlink:href="IRS1.html"><ellipse cx="314" cy="45" rx="6" ry="4" style="fill:turquoise;stroke:turquoise;"/><text text-anchor="middle" x="314" y="47" style="font-family:Times New Roman;"><![CDATA[IRS1]]></text></a></g><g id="edge52" class="edge"><title>SRC-&gt;IRS1</title><path style="fill:none;stroke:darkgreen;" d="M344,31C339,33 330,37 323,41 323,41 322,42 322,42"/><polygon style="fill:darkgreen;stroke:darkgreen;" points="322,42 320,43 322,41 322,42"/></g><g id="node54" class="node"><title>MAPK8IP3</title><a xlink:href="MAPK8IP3.html"><ellipse cx="338" cy="45" rx="12" ry="4" style="fill:turquoise;stroke:turquoise;"/><text text-anchor="middle" x="338" y="47" style="font-family:Times New Roman;"><![CDATA[MAPK8IP3]]></text></a></g><g id="edge54" class="edge"><title>SRC-&gt;MAPK8IP3</title><path style="fill:none;stroke:darkgreen;" d="M347,32C346,34 344,37 342,39"/><polygon style="fill:darkgreen;stroke:darkgreen;" points="343,39 341,41 342,39 343,39"/></g><g id="node56" class="node"><title>LRP1</title><a xlink:href="LRP1.html"><ellipse cx="362" cy="45" rx="7" ry="4" style="fill:limegreen;stroke:limegreen;"/><text text-anchor="middle" x="362" y="47" style="font-family:Times New Roman;"><![CDATA[LRP1]]></text></a></g><g id="edge56" class="edge"><title>SRC-&gt;LRP1</title><path style="fill:none;stroke:darkgreen;" d="M352,32C354,34 356,37 358,39"/><polygon style="fill:darkgreen;stroke:darkgreen;" points="358,39 359,41 357,40 358,39"/></g><g id="node58" class="node"><title>RASA1</title><a xlink:href="RASA1.html"><ellipse cx="382" cy="45" rx="8" ry="4" style="fill:turquoise;stroke:turquoise;"/><text text-anchor="middle" x="382" y="47" style="font-family:Times New Roman;"><![CDATA[RASA1]]></text></a></g><g id="edge58" class="edge"><title>SRC-&gt;RASA1</title><path style="fill:none;stroke:darkgreen;" d="M355,31C360,34 368,38 374,41"/><polygon style="fill:darkgreen;stroke:darkgreen;" points="374,41 376,42 374,42 374,41"/></g><g id="node60" class="node"><title>GRLF1</title><a xlink:href="GRLF1.html"><ellipse cx="404" cy="45" rx="8" ry="4" style="fill:turquoise;stroke:turquoise;"/><text text-anchor="middle" x="404" y="47" style="font-family:Times New Roman;"><![CDATA[GRLF1]]></text></a></g><g id="edge60" class="edge"><title>SRC-&gt;GRLF1</title><path style="fill:none;stroke:darkgreen;" d="M356,30C364,32 380,36 393,41 394,41 394,42 395,42"/><polygon style="fill:darkgreen;stroke:darkgreen;" points="395,41 397,43 395,42 395,41"/></g><g id="node62" class="node"><title>DDEF2</title><a xlink:href="DDEF2.html"><ellipse cx="426" cy="45" rx="9" ry="4" style="fill:turquoise;stroke:turquoise;"/><text text-anchor="middle" x="426" y="47" style="font-family:Times New Roman;"><![CDATA[DDEF2]]></text></a></g><g id="edge62" class="edge"><title>SRC-&gt;DDEF2</title><path style="fill:none;stroke:darkgreen;" d="M356,29C368,31 394,35 415,41 415,41 416,42 417,42"/><polygon style="fill:darkgreen;stroke:darkgreen;" points="417,41 419,43 417,42 417,41"/></g><g id="node64" class="node"><title>PXN</title><a xlink:href="PXN.html"><ellipse cx="446" cy="45" rx="7" ry="4" style="fill:turquoise;stroke:turquoise;"/><text text-anchor="middle" x="446" y="47" style="font-family:Times New Roman;"><![CDATA[PXN]]></text></a></g><g id="edge64" class="edge"><title>SRC-&gt;PXN</title><path style="fill:none;stroke:darkgreen;" d="M356,28C371,29 408,32 437,41 438,41 438,42 439,42"/><polygon style="fill:darkgreen;stroke:darkgreen;" points="439,41 441,43 439,42 439,41"/></g><g id="node66" class="node"><title>PDPK1</title><a xlink:href="PDPK1.html"><ellipse cx="466" cy="45" rx="8" ry="4" style="fill:turquoise;stroke:turquoise;"/><text text-anchor="middle" x="466" y="47" style="font-family:Times New Roman;"><![CDATA[PDPK1]]></text></a></g><g id="edge66" class="edge"><title>SRC-&gt;PDPK1</title><path style="fill:none;stroke:darkgreen;" d="M356,28C373,29 419,32 456,41 456,41 457,42 458,42"/><polygon style="fill:darkgreen;stroke:darkgreen;" points="458,41 460,43 457,42 458,41"/></g><g id="node68" class="node"><title>PIK3CA</title><a xlink:href="PIK3CA.html"><ellipse cx="489" cy="45" rx="9" ry="4" style="fill:turquoise;stroke:turquoise;"/><text text-anchor="middle" x="489" y="47" style="font-family:Times New Roman;"><![CDATA[PIK3CA]]></text></a></g><g id="edge68" class="edge"><title>SRC-&gt;PIK3CA</title><path style="fill:none;stroke:darkgreen;" d="M356,28C375,28 432,31 477,41 478,41 479,42 480,42"/><polygon style="fill:darkgreen;stroke:darkgreen;" points="480,41 482,43 479,42 480,41"/></g><g id="node70" class="node"><title>PIP5K1C</title><a xlink:href="PIP5K1C.html"><ellipse cx="513" cy="45" rx="10" ry="4" style="fill:turquoise;stroke:turquoise;"/><text text-anchor="middle" x="513" y="47" style="font-family:Times New Roman;"><![CDATA[PIP5K1C]]></text></a></g><g id="edge70" class="edge"><title>SRC-&gt;PIP5K1C</title><path style="fill:none;stroke:darkgreen;" d="M356,28C382,30 473,35 501,41 502,41 503,42 504,42"/><polygon style="fill:darkgreen;stroke:darkgreen;" points="504,41 506,43 503,42 504,41"/></g><g id="node73" class="node"><title>PKD1</title><a xlink:href="PKD1.html"><ellipse cx="535" cy="45" rx="7" ry="4" style="fill:turquoise;stroke:turquoise;"/><text text-anchor="middle" x="535" y="47" style="font-family:Times New Roman;"><![CDATA[PKD1]]></text></a></g><g id="edge74" class="edge"><title>SRC-&gt;PKD1</title><path style="fill:none;stroke:darkgreen;" d="M356,28C384,29 493,33 526,41 526,41 527,41 527,42"/><polygon style="fill:darkgreen;stroke:darkgreen;" points="527,41 529,43 527,42 527,41"/></g><g id="node75" class="node"><title>PLCG1</title><a xlink:href="PLCG1.html"><ellipse cx="556" cy="45" rx="8" ry="4" style="fill:turquoise;stroke:turquoise;"/><text text-anchor="middle" x="556" y="47" style="font-family:Times New Roman;"><![CDATA[PLCG1]]></text></a></g><g id="edge76" class="edge"><title>SRC-&gt;PLCG1</title><path style="fill:none;stroke:darkgreen;" d="M356,28C386,29 508,33 545,41 546,41 547,42 548,42"/><polygon style="fill:darkgreen;stroke:darkgreen;" points="548,41 549,43 547,42 548,41"/></g><g id="node78" class="node"><title>RICS</title><a xlink:href="RICS.html"><ellipse cx="576" cy="45" rx="7" ry="4" style="fill:turquoise;stroke:turquoise;"/><text text-anchor="middle" x="576" y="47" style="font-family:Times New Roman;"><![CDATA[RICS]]></text></a></g><g id="edge80" class="edge"><title>SRC-&gt;RICS</title><path style="fill:none;stroke:darkgreen;" d="M356,28C388,28 525,31 567,41 567,41 568,41 569,42"/><polygon style="fill:darkgreen;stroke:darkgreen;" points="569,41 570,43 568,42 569,41"/></g><g id="node80" class="node"><title>OSTF1</title><a xlink:href="OSTF1.html"><ellipse cx="595" cy="45" rx="8" ry="4" style="fill:turquoise;stroke:turquoise;"/><text text-anchor="middle" x="595" y="47" style="font-family:Times New Roman;"><![CDATA[OSTF1]]></text></a></g><g id="edge82" class="edge"><title>SRC-&gt;OSTF1</title><path style="fill:none;stroke:darkgreen;" d="M356,28C390,28 540,31 585,41 586,41 586,41 587,42"/><polygon style="fill:darkgreen;stroke:darkgreen;" points="587,41 589,43 587,42 587,41"/></g><g id="node82" class="node"><title>SHC1</title><a xlink:href="SHC1.html"><ellipse cx="615" cy="45" rx="7" ry="4" style="fill:turquoise;stroke:turquoise;"/><text text-anchor="middle" x="615" y="47" style="font-family:Times New Roman;"><![CDATA[SHC1]]></text></a></g><g id="edge84" class="edge"><title>SRC-&gt;SHC1</title><path style="fill:none;stroke:darkgreen;" d="M356,28C394,29 581,35 606,41 606,41 607,41 608,42"/><polygon style="fill:darkgreen;stroke:darkgreen;" points="608,41 610,43 607,42 608,41"/></g><g id="node84" class="node"><title>INPPL1</title><a xlink:href="INPPL1.html"><ellipse cx="635" cy="45" rx="9" ry="4" style="fill:turquoise;stroke:turquoise;"/><text text-anchor="middle" x="635" y="47" style="font-family:Times New Roman;"><![CDATA[INPPL1]]></text></a></g><g id="edge86" class="edge"><title>SRC-&gt;INPPL1</title><path style="fill:none;stroke:darkgreen;" d="M356,28C393,28 571,30 624,41 625,41 626,42 627,42"/><polygon style="fill:darkgreen;stroke:darkgreen;" points="627,41 629,43 626,42 627,41"/></g><g id="node86" class="node"><title>STAT3</title><a xlink:href="STAT3.html"><ellipse cx="657" cy="45" rx="8" ry="4" style="fill:#eea9b9;stroke:#eea9b9;"/><text text-anchor="middle" x="657" y="47" style="font-family:Times New Roman;"><![CDATA[STAT3]]></text></a></g><g id="edge88" class="edge"><title>SRC-&gt;STAT3</title><path style="fill:none;stroke:darkgreen;" d="M356,28C398,29 617,35 647,41 647,41 648,42 649,42"/><polygon style="fill:darkgreen;stroke:darkgreen;" points="649,41 651,43 649,42 649,41"/></g><g id="node88" class="node"><title>SYK</title><a xlink:href="SYK.html"><ellipse cx="677" cy="45" rx="6" ry="4" style="fill:turquoise;stroke:turquoise;"/><text text-anchor="middle" x="677" y="47" style="font-family:Times New Roman;"><![CDATA[SYK]]></text></a></g><g id="edge90" class="edge"><title>SRC-&gt;SYK</title><path style="fill:none;stroke:darkgreen;" d="M356,28C399,29 637,33 668,41 669,41 669,42 670,42"/><polygon style="fill:darkgreen;stroke:darkgreen;" points="670,41 672,43 670,42 670,41"/></g><g id="node90" class="node"><title>TIAM1</title><a xlink:href="TIAM1.html"><ellipse cx="697" cy="45" rx="8" ry="4" style="fill:turquoise;stroke:turquoise;"/><text text-anchor="middle" x="697" y="47" style="font-family:Times New Roman;"><![CDATA[TIAM1]]></text></a></g><g id="edge92" class="edge"><title>SRC-&gt;TIAM1</title><path style="fill:none;stroke:darkgreen;" d="M356,28C401,29 653,34 686,41 687,41 688,42 689,42"/><polygon style="fill:darkgreen;stroke:darkgreen;" points="689,41 691,43 688,42 689,41"/></g><g id="node92" class="node"><title>TRIP6</title><a xlink:href="TRIP6.html"><ellipse cx="718" cy="45" rx="8" ry="4" style="fill:turquoise;stroke:turquoise;"/><text text-anchor="middle" x="718" y="47" style="font-family:Times New Roman;"><![CDATA[TRIP6]]></text></a></g><g id="edge94" class="edge"><title>SRC-&gt;TRIP6</title><path style="fill:none;stroke:#0000ff;" d="M358,28C407,29 673,33 708,41 709,41 710,42 711,42"/><polygon style="fill:#0000ff;stroke:#0000ff;" points="356,27 356,28 358,28 358,27 356,27"/><polygon style="fill:#0000ff;stroke:#0000ff;" points="712,43 712,42 711,42 711,43 712,43"/></g><g id="node4" class="node"><title>CBL</title><a xlink:href="CBL.html"><ellipse cx="256" cy="10" rx="6" ry="4" style="fill:turquoise;stroke:turquoise;"/><text text-anchor="middle" x="256" y="12" style="font-family:Times New Roman;"><![CDATA[CBL]]></text></a></g><g id="edge4" class="edge"><title>CBL-&gt;SRC</title><path style="fill:none;stroke:#0000ff;" d="M262,13C263,14 264,14 264,15 292,23 326,26 342,28"/><polygon style="fill:#0000ff;stroke:#0000ff;" points="261,13 260,14 262,14 262,13 261,13"/><polygon style="fill:#0000ff;stroke:#0000ff;" points="343,28 343,27 342,27 342,28 343,28"/></g><g id="node6" class="node"><title>CSK</title><a xlink:href="CSK.html"><ellipse cx="273" cy="10" rx="6" ry="4" style="fill:turquoise;stroke:turquoise;"/><text text-anchor="middle" x="273" y="12" style="font-family:Times New Roman;"><![CDATA[CSK]]></text></a></g><g id="edge6" class="edge"><title>CSK-&gt;SRC</title><path style="fill:none;stroke:darkgreen;" d="M278,13C280,14 281,14 282,15 303,22 328,25 341,27"/><polygon style="fill:darkgreen;stroke:darkgreen;" points="341,26 343,27 341,27 341,26"/></g><g id="node8" class="node"><title>CD47</title><a xlink:href="CD47.html"><ellipse cx="292" cy="10" rx="7" ry="4" style="fill:limegreen;stroke:limegreen;"/><text text-anchor="middle" x="292" y="12" style="font-family:Times New Roman;"><![CDATA[CD47]]></text></a></g><g id="edge8" class="edge"><title>CD47-&gt;SRC</title><path style="fill:none;stroke:#0000ff;" d="M298,13C299,14 300,14 301,15 316,20 333,24 342,26"/><polygon style="fill:#0000ff;stroke:#0000ff;" points="297,13 297,14 298,14 299,13 297,13"/><polygon style="fill:#0000ff;stroke:#0000ff;" points="343,27 343,26 342,26 342,27 343,27"/></g><g id="node10" class="node"><title>PRKACA</title><a xlink:href="PRKACA.html"><ellipse cx="315" cy="10" rx="11" ry="4" style="fill:turquoise;stroke:turquoise;"/><text text-anchor="middle" x="315" y="12" style="font-family:Times New Roman;"><![CDATA[PRKACA]]></text></a></g><g id="edge10" class="edge"><title>PRKACA-&gt;SRC</title><path style="fill:none;stroke:darkgreen;" d="M322,14C328,17 337,21 342,24"/><polygon style="fill:darkgreen;stroke:darkgreen;" points="342,23 344,25 342,25 342,23"/></g><g id="edge12" class="edge"><title>PRKCA-&gt;SRC</title><path style="fill:none;stroke:darkgreen;" d="M341,28C292,29 61,35 30,41 28,42 26,42 24,43"/><polygon style="fill:darkgreen;stroke:darkgreen;" points="341,27 343,28 341,29 341,27"/></g><g id="node14" class="node"><title>PTPN1</title><a xlink:href="PTPN1.html"><ellipse cx="339" cy="10" rx="8" ry="4" style="fill:turquoise;stroke:turquoise;"/><text text-anchor="middle" x="339" y="12" style="font-family:Times New Roman;"><![CDATA[PTPN1]]></text></a></g><g id="edge14" class="edge"><title>PTPN1-&gt;SRC</title><path style="fill:none;stroke:#ff0000;" d="M342,14C343,16 344,19 345,21"/><polyline style="fill:none;stroke:#ff0000;" points="344,22 347,20 "/></g><g id="node16" class="node"><title>PTK2B</title><a xlink:href="PTK2B.html"><ellipse cx="361" cy="10" rx="9" ry="4" style="fill:turquoise;stroke:turquoise;"/><text text-anchor="middle" x="361" y="12" style="font-family:Times New Roman;"><![CDATA[PTK2B]]></text></a></g><g id="edge16" class="edge"><title>PTK2B-&gt;SRC</title><path style="fill:none;stroke:#0000ff;" d="M358,15C356,18 354,21 353,23"/><polygon style="fill:#0000ff;stroke:#0000ff;" points="359,15 358,14 357,15 358,16 359,15"/><polygon style="fill:#0000ff;stroke:#0000ff;" points="352,23 353,24 353,23 352,23 352,23"/></g><g id="node18" class="node"><title>GNB2L1</title><a xlink:href="GNB2L1.html"><ellipse cx="384" cy="10" rx="10" ry="4" style="fill:turquoise;stroke:turquoise;"/><text text-anchor="middle" x="384" y="12" style="font-family:Times New Roman;"><![CDATA[GNB2L1]]></text></a></g><g id="edge18" class="edge"><title>GNB2L1-&gt;SRC</title><path style="fill:none;stroke:#0000ff;" d="M377,14C371,17 362,22 356,25"/><polygon style="fill:#0000ff;stroke:#0000ff;" points="378,14 377,13 376,14 377,15 378,14"/><polygon style="fill:#0000ff;stroke:#0000ff;" points="355,25 355,26 357,25 356,24 355,25"/></g><g id="edge20" class="edge"><title>PTPRA-&gt;SRC</title><path style="fill:none;stroke:#ff0000;" d="M340,28C291,29 82,35 53,41 51,42 49,42 47,43"/><polyline style="fill:none;stroke:#ff0000;" points="340,30 340,26 "/></g><g id="node22" class="node"><title>PTPRH</title><a xlink:href="PTPRH.html"><ellipse cx="408" cy="10" rx="9" ry="4" style="fill:turquoise;stroke:turquoise;"/><text text-anchor="middle" x="408" y="12" style="font-family:Times New Roman;"><![CDATA[PTPRH]]></text></a></g><g id="edge22" class="edge"><title>PTPRH-&gt;SRC</title><path style="fill:none;stroke:#ff0000;" d="M401,13C399,14 398,14 396,15 384,19 368,23 359,26"/><polyline style="fill:none;stroke:#ff0000;" points="359,24 360,27 "/></g><g id="node24" class="node"><title>INPP5D</title><a xlink:href="INPP5D.html"><ellipse cx="431" cy="10" rx="9" ry="4" style="fill:turquoise;stroke:turquoise;"/><text text-anchor="middle" x="431" y="12" style="font-family:Times New Roman;"><![CDATA[INPP5D]]></text></a></g><g id="edge24" class="edge"><title>INPP5D-&gt;SRC</title><path style="fill:none;stroke:#0000ff;" d="M423,13C422,14 421,14 419,15 397,21 371,25 358,27"/><polygon style="fill:#0000ff;stroke:#0000ff;" points="424,14 424,13 422,13 423,14 424,14"/><polygon style="fill:#0000ff;stroke:#0000ff;" points="356,27 356,28 358,27 358,26 356,27"/></g><g id="node26" class="node"><title>PTPN6</title><a xlink:href="PTPN6.html"><ellipse cx="454" cy="10" rx="8" ry="4" style="fill:turquoise;stroke:turquoise;"/><text text-anchor="middle" x="454" y="12" style="font-family:Times New Roman;"><![CDATA[PTPN6]]></text></a></g><g id="edge26" class="edge"><title>PTPN6-&gt;SRC</title><path style="fill:none;stroke:#ff0000;" d="M447,13C446,14 444,14 443,15 413,23 377,26 360,27"/><polyline style="fill:none;stroke:#ff0000;" points="360,25 360,29 "/></g><g id="node94" class="node"><title>PTPN2</title><a xlink:href="PTPN2.html"><ellipse cx="476" cy="10" rx="8" ry="4" style="fill:turquoise;stroke:turquoise;"/><text text-anchor="middle" x="476" y="12" style="font-family:Times New Roman;"><![CDATA[PTPN2]]></text></a></g><g id="edge96" class="edge"><title>PTPN2-&gt;SRC</title><path style="fill:none;stroke:#ff0000;" d="M469,13C468,14 466,14 465,15 427,24 380,27 360,28"/><polyline style="fill:none;stroke:#ff0000;" points="360,26 360,29 "/></g></g></g></g>
<!-- navigation controls -->
<g id="navbox">
	<rect x="0" y="0" width="742" height="60"
		 style="fill:rgb(206,207,206);stroke:rgb(0,0,0);stroke-width:1"/>

	<polygon id="pan_right"
        onmouseup="panRight()"
        onmouseover="doHighlight(evt, 'Click to pan to the right')"
        onmouseout="resetHighlight(evt)"
		points="28.0732,13 32,20.5 28.0732,28 28.0732,23.4412 25,23.4412 25,17.4118 28.0732,17.4118"
		 transform="matrix(3.39111 0 0 2.98838 -12.6265 -29.7101)"
         fill="rgb(99,154,206)"
		 style="stroke:rgb(0,0,0);stroke-width:0.5"/>
	<polygon id="pan_left"
        onmouseup="panLeft()"
        onmouseover="doHighlight(evt, 'Click to pan to the left')"
        onmouseout="resetHighlight(evt)"
		points="123.991,25 120.064,32.5 123.991,40 123.991,35.4412 127.064,35.4412 127.064,29.4118
			123.991,29.4118" transform="matrix(3.39111 0 0 2.98838 -404.865 -65.5706)"
         fill="rgb(99,154,206)"
		 style="stroke:rgb(0,0,0);stroke-width:0.5"/>
	<polygon id="pan_down"
        onmouseup="panDown()"
        onmouseover="doHighlight(evt, 'Click to pan down')"
        onmouseout="resetHighlight(evt)"
		points="116.032,32.0408 123.532,35.9678 131.032,32.0408 126.473,32.0408 126.473,28.9678 120.444,28.9678
			120.444,32.0408" transform="matrix(3.39111 0 0 2.98838 -369.822 -50.6287)"
         fill="rgb(99,154,206)"
		 style="stroke:rgb(0,0,0);stroke-width:0.5"/>
	<polygon id="pan_up"
        onmouseup="panUp()"
  onmouseover="doHighlight(evt, 'Click to pan up')"
        onmouseout="resetHighlight(evt)"
		points="116.032,32.0408 123.532,35.9678 131.032,32.0408 126.473,32.0408 126.473,28.9678 120.444,28.9678
			120.444,32.0408" transform="matrix(3.39111 0 0 -2.98838 -369.823 111.74)"
         fill="rgb(99,154,206)"
		 style="stroke:rgb(0,0,0);stroke-width:0.5"/>
	<g id="go_home" 
         onmouseup="panRestore()" 
         onmouseover="doHighlight(evt, 'Click to restore graph to original position')"
         onmouseout="resetHighlight(evt)"
         fill="rgb(99,154,206)"
         transform="matrix(1 0 0 1 0 -0.333333)">
		<rect x="196" y="11" width="26" height="26"
			transform="translate(-19.1111 -2.66667)"
			 style="stroke:rgb(0,0,0);stroke-width:1"/>
		<line x1="182" y1="16" x2="182" y2="28"
			transform="matrix(1 0 0 1 2.22222 0.444444)"
			 style="fill:none;stroke:rgb(0,0,0);stroke-width:2"/>
		<line x1="187" y1="22" x2="187" y2="28"
			transform="matrix(1 0 0 1 2.22222 0.444444)"
			 style="fill:none;stroke:rgb(0,0,0);stroke-width:2"/>
	<line x1="192" y1="13" x2="192" y2="28"
			transform="matrix(1 0 0 1 2.22222 0.444444)"
			 style="fill:none;stroke:rgb(0,0,0);stroke-width:2"/>
		<line x1="182" y1="28" x2="192" y2="28"
			transform="matrix(1 0 0 1 2.22222 0.444444)"
	style="fill:none;stroke:rgb(0,0,0);stroke-width:2"/>
		<line x1="189" y1="12" x2="179" y2="21"
			 style="fill:none;stroke:rgb(0,0,0);stroke-width:2"/>
		<line x1="188" y1="12" x2="199" y2="20"
			 style="fill:none;stroke:rgb(0,0,0);stroke-width:2"/>
	</g>
	<g id="zoom_out" onmouseup="zoomOut()" 
             onmouseover="doHighlight(evt, 'Click to zoom out')"
             onmouseout="resetHighlight(evt)"
             fill="rgb(99,154,206)"
             transform="matrix(1 0 0 1 0 0)">
		<rect x="116" y="8" width="26" height="26"
			 style="stroke:rgb(0,0,0);stroke-width:1"/>
		<ellipse cx="126" cy="18" rx="6" ry="6"
			 style="stroke:rgb(0,0,0);stroke-width:1"/>
		<line x1="130" y1="23" x2="137" y2="29"
			transform="matrix(1 0 0 1 0.888889 -0.888889)"
			 style="fill:none;stroke:rgb(0,0,0);stroke-width:2"/>
		<line x1="123" y1="18" x2="129" y2="18"
			 style="fill:none;stroke:rgb(0,0,0);stroke-width:2"/>
	</g>
	<g id="zoom_in" onmouseup="zoomIn()" 
             onmouseover="doHighlight(evt, 'Click to zoom in')"
             onmouseout="resetHighlight(evt)"
             fill="rgb(99,154,206)"
             transform="matrix(1 0 0 1 0.888889 -0.444444)">
		<rect x="116" y="8" width="26" height="26"
			transform="matrix(1 0 0 1 29.7778 0.444444)"
			 style="stroke:rgb(0,0,0);stroke-width:1"/>
		<ellipse cx="126" cy="18" rx="6" ry="6"
			transform="matrix(1 0 0 1 29.7778 0.444444)"
			 style="stroke:rgb(0,0,0);stroke-width:1"/>
		<line x1="130" y1="23" x2="137" y2="29"
			transform="matrix(1 0 0 1 30.6667 -0.444445)"
		style="fill:none;stroke:rgb(0,0,0);stroke-width:2"/>
		<line x1="123" y1="18" x2="129" y2="18"
			transform="matrix(1 0 0 1 29.7778 0.444444)"
			 style="fill:none;stroke:rgb(0,0,0);stroke-width:2"/>
		<line x1="156" y1="15" x2="156" y2="22"
			 style="fill:none;stroke:rgb(0,0,0);stroke-width:2"/>
	</g>
	<g>
		<rect x="117" y="40" width="452" height="14"
			transform="matrix(1.54201 0 0 1 -64.1436 -0.222222)"
			 style="fill:rgb(192,192,192);stroke:rgb(0,0,0);stroke-width:1"/>
		<text id="status_text" x="183px" y="48px"
			transform="matrix(1 0 0 1 -63.5556 3.00778)"
			 style="fill:rgb(0,0,0);font-size:14;font-family:Arial"> </text>
	</g>
</g>	
</svg>