<?xml version="1.0" encoding="UTF-8" standalone="no"?><!DOCTYPE svg PUBLIC "-//W3C//DTD SVG 1.0//EN" "http://www.w3.org/TR/2001/REC-SVG-20010904/DTD/svg10.dtd" [ <!ATTLIST svg xmlns:xlink CDATA #FIXED "http://www.w3.org/1999/xlink">]><!-- Generated by WinGraphviz version ver1.02.23, 08/01/2003 (08/04/2003)     For user: Avi Ma'ayan   Title: G    Pages: 1 --><svg width="735px" height="167px" xmlns="http://www.w3.org/2000/svg" xmlns:xlink="http://www.w3.org/1999/xlink"><g id="graph0" class="graph" style="font-family:Times New Roman;font-size:17.20;"><title>G</title><g id="node1" class="node"><title>MAPK8</title><a xlink:href="MAPK8.html"><ellipse cx="55" cy="36" rx="49" ry="22" style="fill:turquoise;stroke:turquoise;"/><text text-anchor="middle" x="55" y="43" style="font-family:Times New Roman;"><![CDATA[MAPK8]]></text></a></g><g id="node2" class="node"><title>STAT3</title><a xlink:href="STAT3.html"><ellipse cx="391" cy="125" rx="43" ry="22" style="fill:#eea9b9;stroke:#eea9b9;"/><text text-anchor="middle" x="391" y="131" style="font-family:Times New Roman;"><![CDATA[STAT3]]></text></a></g><g id="edge2" class="edge"><title>MAPK8-&gt;STAT3</title><path style="fill:none;stroke:darkgreen;" d="M92,51C100,54 108,56 116,59 193,82 283,103 338,114"/><polygon style="fill:darkgreen;stroke:darkgreen;" points="339,111 350,116 338,116 339,111"/></g><g id="node4" class="node"><title>PRKCA</title><a xlink:href="PRKCA.html"><ellipse cx="176" cy="36" rx="49" ry="22" style="fill:turquoise;stroke:turquoise;"/><text text-anchor="middle" x="176" y="43" style="font-family:Times New Roman;"><![CDATA[PRKCA]]></text></a></g><g id="edge4" class="edge"><title>PRKCA-&gt;STAT3</title><path style="fill:none;stroke:darkgreen;" d="M213,51C249,67 307,90 347,106"/><polygon style="fill:darkgreen;stroke:darkgreen;" points="348,104 358,111 345,109 348,104"/></g><g id="node6" class="node"><title>RAC1</title><a xlink:href="RAC1.html"><ellipse cx="285" cy="36" rx="38" ry="22" style="fill:turquoise;stroke:turquoise;"/><text text-anchor="middle" x="285" y="43" style="font-family:Times New Roman;"><![CDATA[RAC1]]></text></a></g><g id="edge6" class="edge"><title>RAC1-&gt;STAT3</title><path style="fill:none;stroke:#0000ff;" d="M311,59C327,71 347,88 364,102"/><polygon style="fill:#0000ff;stroke:#0000ff;" points="310,52 305,57 310,62 315,57 310,52"/><polygon style="fill:#0000ff;stroke:#0000ff;" points="366,109 371,104 366,99 361,104 366,109"/></g><g id="node8" class="node"><title>PTPN11</title><a xlink:href="PTPN11.html"><ellipse cx="391" cy="36" rx="45" ry="22" style="fill:turquoise;stroke:turquoise;"/><text text-anchor="middle" x="391" y="43" style="font-family:Times New Roman;"><![CDATA[PTPN11]]></text></a></g><g id="edge8" class="edge"><title>PTPN11-&gt;STAT3</title><path style="fill:none;stroke:#ff0000;" d="M391,59C391,66 391,76 391,84"/><polyline style="fill:none;stroke:#ff0000;" points="382,84 401,84 "/></g><g id="node10" class="node"><title>SRC</title><a xlink:href="SRC.html"><ellipse cx="491" cy="36" rx="33" ry="22" style="fill:turquoise;stroke:turquoise;"/><text text-anchor="middle" x="491" y="43" style="font-family:Times New Roman;"><![CDATA[SRC]]></text></a></g><g id="edge10" class="edge"><title>SRC-&gt;STAT3</title><path style="fill:none;stroke:darkgreen;" d="M471,55C456,67 437,84 421,98"/><polygon style="fill:darkgreen;stroke:darkgreen;" points="424,99 413,105 420,95 424,99"/></g><g id="node12" class="node"><title>SYK</title><a xlink:href="SYK.html"><ellipse cx="581" cy="36" rx="34" ry="22" style="fill:turquoise;stroke:turquoise;"/><text text-anchor="middle" x="581" y="43" style="font-family:Times New Roman;"><![CDATA[SYK]]></text></a></g><g id="edge12" class="edge"><title>SYK-&gt;STAT3</title><path style="fill:none;stroke:darkgreen;" d="M554,50C548,52 542,56 536,59 500,75 461,93 433,106"/><polygon style="fill:darkgreen;stroke:darkgreen;" points="436,108 424,110 434,103 436,108"/></g><g id="node14" class="node"><title>PTPN2</title><a xlink:href="PTPN2.html"><ellipse cx="682" cy="36" rx="44" ry="22" style="fill:turquoise;stroke:turquoise;"/><text text-anchor="middle" x="682" y="43" style="font-family:Times New Roman;"><![CDATA[PTPN2]]></text></a></g><g id="edge14" class="edge"><title>PTPN2-&gt;STAT3</title><path style="fill:none;stroke:#ff0000;" d="M648,51C641,54 634,56 627,59 565,79 493,99 445,111"/><polyline style="fill:none;stroke:#ff0000;" points="446,102 450,120 "/></g></g></svg>