<?xml version="1.0" encoding="UTF-8" standalone="no"?><!DOCTYPE svg PUBLIC "-//W3C//DTD SVG 1.0//EN" "http://www.w3.org/TR/2001/REC-SVG-20010904/DTD/svg10.dtd" [ <!ATTLIST svg xmlns:xlink CDATA #FIXED "http://www.w3.org/1999/xlink">]><!-- Generated by WinGraphviz version ver1.02.23, 08/01/2003 (08/04/2003)     For user: Avi Ma'ayan   Title: G    Pages: 1 --><!--="735px" height="187px" xmlns="http://www.w3.org/2000/svg" --><svg onload="init(evt)" width="735px" height="600px" xmlns="http://www.w3.org/2000/svg" xmlns:xlink="http://www.w3.org/1999/xlink">
<script type="text/ecmascript">
<![CDATA[
var svgDocument;
var zoomAmt;
var xOffset;
var yOffset;
var scale;
var maxScale;
var imageWidth;
var imageHeight;
function init(evt)
{
    svgDocument = evt.getTarget().getOwnerDocument();
    zoomAmt = 0;
    xOffset = 0;
    yOffset = 60;
    scale = 0.8;
    maxScale = 10;
    imageWidth = 742;
    imageHeight = 606;
    panRestore();
    //panUp();
}
function transformMap ()
{
    var obj = svgDocument.getElementById("Pathway");
    var centerX = imageWidth  / 2.0;
    var centerY = imageHeight / 2.0;
    var adjustX = (-centerX * (scale - 0.8)) + xOffset;
    var adjustY = (-centerY * (scale - 0.8)) + yOffset;
    var transParms = 'translate(' + adjustX + ',' + adjustY + ') ';
    transParms += 'scale(' + scale + ')';
    // alert(transParms);
    obj.setAttribute("transform", transParms); 
}
function click_node(id)
{
    var testx = parent.click_node;
    if (typeof(testx) == "function")
    {
		parent.click_node(id);
    }
}
function click_relation(id)
{
    var testx = parent.click_relation;
    if (typeof(testx) == "function")
    {
        parent.click_relation(id);
    }
}
function click_pathway(toId, fromId)
{
    var testx = parent.click_pathway;
    if (typeof(testx) == "function")
    {
	parent.click_pathway(toId, fromId);
    }
}
function check_interpath(evt, pathid)
{
  var obj = evt.getTarget();
  var testx = parent.is_frompath;
  var child = obj.firstChild;
  if (typeof(testx) == "function")
  {
    if (parent.is_frompath(pathid))
    {
      while (child != null)
      {
        if (child.nodeType == 1)
        {
          if ((child.localName == "g") || (child.localName == "polyline"))
          {
            child.setAttribute("style", "fill:none;stroke:red");
          }
          else if (child.localName == "polygon")
          {
            child.setAttribute("style", "fill:red;stroke:red");
          }
        }
        child = child.nextSibling;
      }
    }
  }
}
function set_status (msg)
{
 var obj = svgDocument.getElementById("status_text");
  var child;
 
  child = obj.firstChild;
  if ((child != null) && (child.nodeType == 3))
  {
    if ((msg != null) && (msg.length > 0))
    {
      child.data = msg;
    }
    else
    {
child.data = " ";
    }
  }
}
function zoomIn ()
{
    scale = scale + 0.8;
    if (scale > maxScale)
    {
       scale = maxScale;
    }
    transformMap();
    panUp();
    panUp();
    panUp();
    panUp();
    panUp();
    panUp();
    panUp();
    panUp();
    panUp();
    panUp();
    panUp();
    panUp();
}
function zoomOut ()
{
    scale = scale - 0.8;
    if (scale < 0.8)
    {
       scale = 0.8;
    }
    transformMap();
    panDown();
    panDown();
    panDown();
    panDown();
    panDown();
    panDown();
    panDown();
    panDown();
    panDown();
    panDown();
    panDown();
    panDown();
}
function panUp ()
{
    yOffset = yOffset + 20;
    transformMap();
}
function panDown ()
{
    yOffset = yOffset - 20;
    transformMap();
}
function panLeft ()
{
    xOffset = xOffset + 20;
    transformMap();
}
function panRight ()
{
    xOffset = xOffset - 20;
    transformMap();
}
function panRestore ()
{
    xOffset = 0;
    yOffset = 0;
    scale = 0.5;
    //obj = svgDocument.getElementById("zoom");
    //obj.setAttribute("x1", 0);
    //obj.setAttribute("x2", 0);
    transformMap();    
}
function doHighlight (evt, msg)
{
  var obj = evt.getTarget();
  obj.setAttribute("fill", "rgb(239,24,33)");
  set_status(msg);
}
function resetHighlight (evt)
{
  var obj = evt.getTarget();
  obj.setAttribute("fill", "rgb(99,154,206)");
  set_status(" ");
}
// ]]>
</script>
<defs>
<clipPath id="theClip">
<polygon points="1 61, 741 61, 741 665, 1 665"
style="fill: none;"/>
</clipPath>
</defs>
<!-- viewport outline -->
<rect x="0" y="61" width="742" height="606"
style="stroke: black; stroke-width: 1; fill: none;"/>
<!-- pathway graph style="clip-path: url(#theClip);" -->
<g style="clip-path: url(#theClip);">
<g id="Pathway"  transform="translate(0,60)">
<!-- prefile.include ends, begin pathway graph -->
<g id="stkecm;CMP_10705" class="graph">
</g>
<g id="graph0" class="graph" style="font-family:Times New Roman;font-size:12.35;"><title>G</title><g id="node1" class="node"><title>CBL</title><a xlink:href="CBL.html"><ellipse cx="30" cy="27" rx="23" ry="15" style="fill:turquoise;stroke:turquoise;"/><text text-anchor="middle" x="30" y="31" style="font-family:Times New Roman;"><![CDATA[CBL]]></text></a></g><g id="node2" class="node"><title>SYK</title><a xlink:href="SYK.html"><ellipse cx="319" cy="90" rx="24" ry="15" style="fill:turquoise;stroke:turquoise;"/><text text-anchor="middle" x="319" y="95" style="font-family:Times New Roman;"><![CDATA[SYK]]></text></a></g><g id="edge2" class="edge"><title>CBL-&gt;SYK</title><path style="fill:none;stroke:#ff0000;" d="M45,39C48,41 51,42 54,43 132,68 229,82 282,88"/><polyline style="fill:none;stroke:#ff0000;" points="281,94 282,81 "/></g><g id="edge24" class="edge"><title>SYK-&gt;CBL</title><path style="fill:none;stroke:darkgreen;" d="M58,38C62,40 66,42 70,43 150,69 250,82 295,88"/><polygon style="fill:darkgreen;stroke:darkgreen;" points="58,41 51,35 60,37 58,41"/></g><g id="node16" class="node"><title>PRKCA</title><a xlink:href="PRKCA.html"><ellipse cx="65" cy="154" rx="35" ry="15" style="fill:turquoise;stroke:turquoise;"/><text text-anchor="middle" x="65" y="158" style="font-family:Times New Roman;"><![CDATA[PRKCA]]></text></a></g><g id="edge32" class="edge"><title>SYK-&gt;PRKCA</title><path style="fill:none;stroke:darkgreen;" d="M296,94C254,101 170,118 101,138 100,138 98,139 96,139"/><polygon style="fill:darkgreen;stroke:darkgreen;" points="98,141 89,142 96,136 98,141"/></g><g id="node25" class="node"><title>CTTN</title><a xlink:href="CTTN.html"><ellipse cx="146" cy="154" rx="29" ry="15" style="fill:turquoise;stroke:turquoise;"/><text text-anchor="middle" x="146" y="158" style="font-family:Times New Roman;"><![CDATA[CTTN]]></text></a></g><g id="edge26" class="edge"><title>SYK-&gt;CTTN</title><path style="fill:none;stroke:darkgreen;" d="M297,97C270,106 223,123 183,138 181,139 178,140 176,141"/><polygon style="fill:darkgreen;stroke:darkgreen;" points="178,142 169,144 176,138 178,142"/></g><g id="node27" class="node"><title>VIL2</title><a xlink:href="VIL2.html"><ellipse cx="216" cy="154" rx="25" ry="15" style="fill:turquoise;stroke:turquoise;"/><text text-anchor="middle" x="216" y="158" style="font-family:Times New Roman;"><![CDATA[VIL2]]></text></a></g><g id="edge28" class="edge"><title>SYK-&gt;VIL2</title><path style="fill:none;stroke:darkgreen;" d="M302,102C284,112 259,127 242,138"/><polygon style="fill:darkgreen;stroke:darkgreen;" points="244,140 235,142 241,136 244,140"/></g><g id="node29" class="node"><title>PXN</title><a xlink:href="PXN.html"><ellipse cx="283" cy="154" rx="25" ry="15" style="fill:turquoise;stroke:turquoise;"/><text text-anchor="middle" x="283" y="158" style="font-family:Times New Roman;"><![CDATA[PXN]]></text></a></g><g id="edge30" class="edge"><title>SYK-&gt;PXN</title><path style="fill:none;stroke:darkgreen;" d="M311,105C306,112 301,122 296,131"/><polygon style="fill:darkgreen;stroke:darkgreen;" points="298,132 292,139 295,130 298,132"/></g><g id="node32" class="node"><title>PLCG1</title><a xlink:href="PLCG1.html"><ellipse cx="356" cy="154" rx="30" ry="15" style="fill:turquoise;stroke:turquoise;"/><text text-anchor="middle" x="356" y="158" style="font-family:Times New Roman;"><![CDATA[PLCG1]]></text></a></g><g id="edge34" class="edge"><title>SYK-&gt;PLCG1</title><path style="fill:none;stroke:darkgreen;" d="M328,105C333,112 338,122 342,131"/><polygon style="fill:darkgreen;stroke:darkgreen;" points="344,129 347,138 341,132 344,129"/></g><g id="node34" class="node"><title>SHC1</title><a xlink:href="SHC1.html"><ellipse cx="428" cy="154" rx="25" ry="15" style="fill:turquoise;stroke:turquoise;"/><text text-anchor="middle" x="428" y="158" style="font-family:Times New Roman;"><![CDATA[SHC1]]></text></a></g><g id="edge36" class="edge"><title>SYK-&gt;SHC1</title><path style="fill:none;stroke:darkgreen;" d="M338,101C356,112 383,127 402,139"/><polygon style="fill:darkgreen;stroke:darkgreen;" points="403,137 409,143 401,141 403,137"/></g><g id="node36" class="node"><title>STAT3</title><a xlink:href="STAT3.html"><ellipse cx="500" cy="154" rx="30" ry="15" style="fill:#eea9b9;stroke:#eea9b9;"/><text text-anchor="middle" x="500" y="158" style="font-family:Times New Roman;"><![CDATA[STAT3]]></text></a></g><g id="edge38" class="edge"><title>SYK-&gt;STAT3</title><path style="fill:none;stroke:darkgreen;" d="M341,97C370,106 419,123 461,138 463,139 466,140 469,141"/><polygon style="fill:darkgreen;stroke:darkgreen;" points="469,138 476,144 467,142 469,138"/></g><g id="node38" class="node"><title>TUBA1</title><a xlink:href="TUBA1.html"><ellipse cx="580" cy="154" rx="32" ry="15" style="fill:turquoise;stroke:turquoise;"/><text text-anchor="middle" x="580" y="158" style="font-family:Times New Roman;"><![CDATA[TUBA1]]></text></a></g><g id="edge40" class="edge"><title>SYK-&gt;TUBA1</title><path style="fill:none;stroke:darkgreen;" d="M343,95C384,102 469,118 539,138 542,139 544,140 547,141"/><polygon style="fill:darkgreen;stroke:darkgreen;" points="547,138 555,143 546,142 547,138"/></g><g id="node40" class="node"><title>VAV1</title><a xlink:href="VAV1.html"><ellipse cx="657" cy="154" rx="29" ry="15" style="fill:turquoise;stroke:turquoise;"/><text text-anchor="middle" x="657" y="158" style="font-family:Times New Roman;"><![CDATA[VAV1]]></text></a></g><g id="edge42" class="edge"><title>SYK-&gt;VAV1</title><path style="fill:none;stroke:darkgreen;" d="M344,92C396,97 520,110 620,138 623,139 625,140 627,141"/><polygon style="fill:darkgreen;stroke:darkgreen;" points="627,138 635,143 626,142 627,138"/></g><g id="node4" class="node"><title>CRKL</title><a xlink:href="CRKL.html"><ellipse cx="100" cy="27" rx="30" ry="15" style="fill:turquoise;stroke:turquoise;"/><text text-anchor="middle" x="100" y="31" style="font-family:Times New Roman;"><![CDATA[CRKL]]></text></a></g><g id="edge4" class="edge"><title>CRKL-&gt;SYK</title><path style="fill:none;stroke:#0000ff;" d="M126,38C130,40 134,41 138,43 191,61 256,77 291,84"/><polygon style="fill:#0000ff;stroke:#0000ff;" points="124,36 122,39 126,40 128,37 124,36"/><polygon style="fill:#0000ff;stroke:#0000ff;" points="296,87 296,83 291,82 291,86 296,87"/></g><g id="node6" class="node"><title>PTK2</title><a xlink:href="PTK2.html"><ellipse cx="173" cy="27" rx="27" ry="15" style="fill:turquoise;stroke:turquoise;"/><text text-anchor="middle" x="173" y="31" style="font-family:Times New Roman;"><![CDATA[PTK2]]></text></a></g><g id="edge6" class="edge"><title>PTK2-&gt;SYK</title><path style="fill:none;stroke:#0000ff;" d="M198,38C201,40 205,41 208,43 238,56 272,70 294,80"/><polygon style="fill:#0000ff;stroke:#0000ff;" points="195,35 193,38 197,40 199,37 195,35"/><polygon style="fill:#0000ff;stroke:#0000ff;" points="297,83 299,80 295,78 293,82 297,83"/></g><g id="node8" class="node"><title>GRB2</title><a xlink:href="GRB2.html"><ellipse cx="245" cy="27" rx="29" ry="15" style="fill:turquoise;stroke:turquoise;"/><text text-anchor="middle" x="245" y="31" style="font-family:Times New Roman;"><![CDATA[GRB2]]></text></a></g><g id="edge8" class="edge"><title>GRB2-&gt;SYK</title><path style="fill:none;stroke:#0000ff;" d="M264,43C275,52 289,65 301,74"/><polygon style="fill:#0000ff;stroke:#0000ff;" points="263,38 259,42 263,45 266,42 263,38"/><polygon style="fill:#0000ff;stroke:#0000ff;" points="304,79 306,75 303,73 300,76 304,79"/></g><g id="node10" class="node"><title>ITGB1</title><a xlink:href="ITGB1.html"><ellipse cx="319" cy="27" rx="29" ry="15" style="fill:turquoise;stroke:turquoise;"/><text text-anchor="middle" x="319" y="31" style="font-family:Times New Roman;"><![CDATA[ITGB1]]></text></a></g><g id="edge10" class="edge"><title>ITGB1-&gt;SYK</title><path style="fill:none;stroke:#0000ff;" d="M319,47C319,54 319,63 319,70"/><polygon style="fill:#0000ff;stroke:#0000ff;" points="322,43 318,43 318,47 322,47 322,43"/><polygon style="fill:#0000ff;stroke:#0000ff;" points="318,74 322,74 322,70 318,70 318,74"/></g><g id="node12" class="node"><title>LYN</title><a xlink:href="LYN.html"><ellipse cx="390" cy="27" rx="25" ry="15" style="fill:turquoise;stroke:turquoise;"/><text text-anchor="middle" x="390" y="31" style="font-family:Times New Roman;"><![CDATA[LYN]]></text></a></g><g id="edge12" class="edge"><title>LYN-&gt;SYK</title><path style="fill:none;stroke:darkgreen;" d="M375,40C365,49 351,61 341,72"/><polygon style="fill:darkgreen;stroke:darkgreen;" points="342,73 334,77 340,70 342,73"/></g><g id="node14" class="node"><title>PIK3CA</title><a xlink:href="PIK3CA.html"><ellipse cx="467" cy="27" rx="35" ry="15" style="fill:turquoise;stroke:turquoise;"/><text text-anchor="middle" x="467" y="31" style="font-family:Times New Roman;"><![CDATA[PIK3CA]]></text></a></g><g id="edge14" class="edge"><title>PIK3CA-&gt;SYK</title><path style="fill:none;stroke:#0000ff;" d="M438,40C410,52 370,69 344,80"/><polygon style="fill:#0000ff;stroke:#0000ff;" points="442,40 440,37 437,38 439,42 442,40"/><polygon style="fill:#0000ff;stroke:#0000ff;" points="339,80 341,83 345,82 343,78 339,80"/></g><g id="edge16" class="edge"><title>PRKCA-&gt;SYK</title><path style="fill:none;stroke:darkgreen;" d="M289,97C249,105 176,120 116,138 109,140 102,142 95,145"/><polygon style="fill:darkgreen;stroke:darkgreen;" points="288,96 296,96 289,100 288,96"/></g><g id="node18" class="node"><title>PTK2B</title><a xlink:href="PTK2B.html"><ellipse cx="551" cy="27" rx="32" ry="15" style="fill:turquoise;stroke:turquoise;"/><text text-anchor="middle" x="551" y="31" style="font-family:Times New Roman;"><![CDATA[PTK2B]]></text></a></g><g id="edge18" class="edge"><title>PTK2B-&gt;SYK</title><path style="fill:none;stroke:darkgreen;" d="M526,37C521,39 515,41 510,43 454,60 390,75 352,84"/><polygon style="fill:darkgreen;stroke:darkgreen;" points="352,86 343,86 351,82 352,86"/></g><g id="node20" class="node"><title>PTPN6</title><a xlink:href="PTPN6.html"><ellipse cx="631" cy="27" rx="31" ry="15" style="fill:turquoise;stroke:turquoise;"/><text text-anchor="middle" x="631" y="31" style="font-family:Times New Roman;"><![CDATA[PTPN6]]></text></a></g><g id="edge20" class="edge"><title>PTPN6-&gt;SYK</title><path style="fill:none;stroke:#ff0000;" d="M607,37C602,39 596,42 591,43 509,67 410,80 357,86"/><polyline style="fill:none;stroke:#ff0000;" points="356,80 358,92 "/></g><g id="node22" class="node"><title>SRC</title><a xlink:href="SRC.html"><ellipse cx="702" cy="27" rx="23" ry="15" style="fill:turquoise;stroke:turquoise;"/><text text-anchor="middle" x="702" y="31" style="font-family:Times New Roman;"><![CDATA[SRC]]></text></a></g><g id="edge22" class="edge"><title>SRC-&gt;SYK</title><path style="fill:none;stroke:darkgreen;" d="M685,37C680,39 675,41 671,43 557,78 416,87 353,89"/><polygon style="fill:darkgreen;stroke:darkgreen;" points="353,91 344,89 353,87 353,91"/></g></g></g></g>
<!-- navigation controls -->
<g id="navbox">
	<rect x="0" y="0" width="742" height="60"
		 style="fill:rgb(206,207,206);stroke:rgb(0,0,0);stroke-width:1"/>

	<polygon id="pan_right"
        onmouseup="panRight()"
        onmouseover="doHighlight(evt, 'Click to pan to the right')"
        onmouseout="resetHighlight(evt)"
		points="28.0732,13 32,20.5 28.0732,28 28.0732,23.4412 25,23.4412 25,17.4118 28.0732,17.4118"
		 transform="matrix(3.39111 0 0 2.98838 -12.6265 -29.7101)"
         fill="rgb(99,154,206)"
		 style="stroke:rgb(0,0,0);stroke-width:0.5"/>
	<polygon id="pan_left"
        onmouseup="panLeft()"
        onmouseover="doHighlight(evt, 'Click to pan to the left')"
        onmouseout="resetHighlight(evt)"
		points="123.991,25 120.064,32.5 123.991,40 123.991,35.4412 127.064,35.4412 127.064,29.4118
			123.991,29.4118" transform="matrix(3.39111 0 0 2.98838 -404.865 -65.5706)"
         fill="rgb(99,154,206)"
		 style="stroke:rgb(0,0,0);stroke-width:0.5"/>
	<polygon id="pan_down"
        onmouseup="panDown()"
        onmouseover="doHighlight(evt, 'Click to pan down')"
        onmouseout="resetHighlight(evt)"
		points="116.032,32.0408 123.532,35.9678 131.032,32.0408 126.473,32.0408 126.473,28.9678 120.444,28.9678
			120.444,32.0408" transform="matrix(3.39111 0 0 2.98838 -369.822 -50.6287)"
         fill="rgb(99,154,206)"
		 style="stroke:rgb(0,0,0);stroke-width:0.5"/>
	<polygon id="pan_up"
        onmouseup="panUp()"
  onmouseover="doHighlight(evt, 'Click to pan up')"
        onmouseout="resetHighlight(evt)"
		points="116.032,32.0408 123.532,35.9678 131.032,32.0408 126.473,32.0408 126.473,28.9678 120.444,28.9678
			120.444,32.0408" transform="matrix(3.39111 0 0 -2.98838 -369.823 111.74)"
         fill="rgb(99,154,206)"
		 style="stroke:rgb(0,0,0);stroke-width:0.5"/>
	<g id="go_home" 
         onmouseup="panRestore()" 
         onmouseover="doHighlight(evt, 'Click to restore graph to original position')"
         onmouseout="resetHighlight(evt)"
         fill="rgb(99,154,206)"
         transform="matrix(1 0 0 1 0 -0.333333)">
		<rect x="196" y="11" width="26" height="26"
			transform="translate(-19.1111 -2.66667)"
			 style="stroke:rgb(0,0,0);stroke-width:1"/>
		<line x1="182" y1="16" x2="182" y2="28"
			transform="matrix(1 0 0 1 2.22222 0.444444)"
			 style="fill:none;stroke:rgb(0,0,0);stroke-width:2"/>
		<line x1="187" y1="22" x2="187" y2="28"
			transform="matrix(1 0 0 1 2.22222 0.444444)"
			 style="fill:none;stroke:rgb(0,0,0);stroke-width:2"/>
	<line x1="192" y1="13" x2="192" y2="28"
			transform="matrix(1 0 0 1 2.22222 0.444444)"
			 style="fill:none;stroke:rgb(0,0,0);stroke-width:2"/>
		<line x1="182" y1="28" x2="192" y2="28"
			transform="matrix(1 0 0 1 2.22222 0.444444)"
	style="fill:none;stroke:rgb(0,0,0);stroke-width:2"/>
		<line x1="189" y1="12" x2="179" y2="21"
			 style="fill:none;stroke:rgb(0,0,0);stroke-width:2"/>
		<line x1="188" y1="12" x2="199" y2="20"
			 style="fill:none;stroke:rgb(0,0,0);stroke-width:2"/>
	</g>
	<g id="zoom_out" onmouseup="zoomOut()" 
             onmouseover="doHighlight(evt, 'Click to zoom out')"
             onmouseout="resetHighlight(evt)"
             fill="rgb(99,154,206)"
             transform="matrix(1 0 0 1 0 0)">
		<rect x="116" y="8" width="26" height="26"
			 style="stroke:rgb(0,0,0);stroke-width:1"/>
		<ellipse cx="126" cy="18" rx="6" ry="6"
			 style="stroke:rgb(0,0,0);stroke-width:1"/>
		<line x1="130" y1="23" x2="137" y2="29"
			transform="matrix(1 0 0 1 0.888889 -0.888889)"
			 style="fill:none;stroke:rgb(0,0,0);stroke-width:2"/>
		<line x1="123" y1="18" x2="129" y2="18"
			 style="fill:none;stroke:rgb(0,0,0);stroke-width:2"/>
	</g>
	<g id="zoom_in" onmouseup="zoomIn()" 
             onmouseover="doHighlight(evt, 'Click to zoom in')"
             onmouseout="resetHighlight(evt)"
             fill="rgb(99,154,206)"
             transform="matrix(1 0 0 1 0.888889 -0.444444)">
		<rect x="116" y="8" width="26" height="26"
			transform="matrix(1 0 0 1 29.7778 0.444444)"
			 style="stroke:rgb(0,0,0);stroke-width:1"/>
		<ellipse cx="126" cy="18" rx="6" ry="6"
			transform="matrix(1 0 0 1 29.7778 0.444444)"
			 style="stroke:rgb(0,0,0);stroke-width:1"/>
		<line x1="130" y1="23" x2="137" y2="29"
			transform="matrix(1 0 0 1 30.6667 -0.444445)"
		style="fill:none;stroke:rgb(0,0,0);stroke-width:2"/>
		<line x1="123" y1="18" x2="129" y2="18"
			transform="matrix(1 0 0 1 29.7778 0.444444)"
			 style="fill:none;stroke:rgb(0,0,0);stroke-width:2"/>
		<line x1="156" y1="15" x2="156" y2="22"
			 style="fill:none;stroke:rgb(0,0,0);stroke-width:2"/>
	</g>
	<g>
		<rect x="117" y="40" width="452" height="14"
			transform="matrix(1.54201 0 0 1 -64.1436 -0.222222)"
			 style="fill:rgb(192,192,192);stroke:rgb(0,0,0);stroke-width:1"/>
		<text id="status_text" x="183px" y="48px"
			transform="matrix(1 0 0 1 -63.5556 3.00778)"
			 style="fill:rgb(0,0,0);font-size:14;font-family:Arial"> </text>
	</g>
</g>	
</svg>