<?xml version="1.0" encoding="UTF-8" standalone="no"?><!DOCTYPE svg PUBLIC "-//W3C//DTD SVG 1.0//EN" "http://www.w3.org/TR/2001/REC-SVG-20010904/DTD/svg10.dtd" [ <!ATTLIST svg xmlns:xlink CDATA #FIXED "http://www.w3.org/1999/xlink">]><!-- Generated by WinGraphviz version ver1.02.23, 08/01/2003 (08/04/2003)     For user: Avi Ma'ayan   Title: G    Pages: 1 --><svg width="319px" height="276px" xmlns="http://www.w3.org/2000/svg" xmlns:xlink="http://www.w3.org/1999/xlink"><g id="graph0" class="graph" style="font-family:Times New Roman;font-size:18.67;"><title>G</title><g id="node1" class="node"><title>ACTN1</title><a xlink:href="ACTN1.html"><ellipse cx="55" cy="39" rx="49" ry="24" style="fill:turquoise;stroke:turquoise;"/><text text-anchor="middle" x="55" y="46" style="font-family:Times New Roman;"><![CDATA[ACTN1]]></text></a></g><g id="node2" class="node"><title>TES</title><a xlink:href="TES.html"><ellipse cx="167" cy="135" rx="36" ry="24" style="fill:turquoise;stroke:turquoise;"/><text text-anchor="middle" x="167" y="142" style="font-family:Times New Roman;"><![CDATA[TES]]></text></a></g><g id="edge2" class="edge"><title>ACTN1-&gt;TES</title><path style="fill:none;stroke:#0000ff;" d="M85,65C102,79 122,98 139,113"/><polygon style="fill:#0000ff;stroke:#0000ff;" points="84,58 78,63 84,69 89,63 84,58"/><polygon style="fill:#0000ff;stroke:#0000ff;" points="143,119 147,114 142,110 138,115 143,119"/></g><g id="node8" class="node"><title>VASP</title><a xlink:href="VASP.html"><ellipse cx="114" cy="231" rx="44" ry="24" style="fill:turquoise;stroke:turquoise;"/><text text-anchor="middle" x="114" y="238" style="font-family:Times New Roman;"><![CDATA[VASP]]></text></a></g><g id="edge8" class="edge"><title>TES-&gt;VASP</title><path style="fill:none;stroke:#0000ff;" d="M153,163C146,175 137,190 130,202"/><polygon style="fill:#0000ff;stroke:#0000ff;" points="158,159 153,157 150,162 155,165 158,159"/><polygon style="fill:#0000ff;stroke:#0000ff;" points="125,206 130,209 133,203 128,201 125,206"/></g><g id="node10" class="node"><title>ZYX</title><a xlink:href="ZYX.html"><ellipse cx="221" cy="231" rx="38" ry="24" style="fill:turquoise;stroke:turquoise;"/><text text-anchor="middle" x="221" y="238" style="font-family:Times New Roman;"><![CDATA[ZYX]]></text></a></g><g id="edge10" class="edge"><title>TES-&gt;ZYX</title><path style="fill:none;stroke:#0000ff;" d="M182,163C189,175 198,190 205,203"/><polygon style="fill:#0000ff;stroke:#0000ff;" points="182,157 177,159 179,165 185,162 182,157"/><polygon style="fill:#0000ff;stroke:#0000ff;" points="205,210 210,207 207,202 202,205 205,210"/></g><g id="node4" class="node"><title>PXN</title><a xlink:href="PXN.html"><ellipse cx="167" cy="39" rx="38" ry="24" style="fill:turquoise;stroke:turquoise;"/><text text-anchor="middle" x="167" y="46" style="font-family:Times New Roman;"><![CDATA[PXN]]></text></a></g><g id="edge4" class="edge"><title>PXN-&gt;TES</title><path style="fill:none;stroke:#0000ff;" d="M167,70C167,81 167,94 167,105"/><polygon style="fill:#0000ff;stroke:#0000ff;" points="171,63 165,63 165,70 171,70 171,63"/><polygon style="fill:#0000ff;stroke:#0000ff;" points="165,111 171,111 171,105 165,105 165,111"/></g><g id="node6" class="node"><title>TLN1</title><a xlink:href="TLN1.html"><ellipse cx="270" cy="39" rx="40" ry="24" style="fill:turquoise;stroke:turquoise;"/><text text-anchor="middle" x="270" y="46" style="font-family:Times New Roman;"><![CDATA[TLN1]]></text></a></g><g id="edge6" class="edge"><title>TLN1-&gt;TES</title><path style="fill:none;stroke:#0000ff;" d="M245,63C229,78 209,97 194,111"/><polygon style="fill:#0000ff;stroke:#0000ff;" points="251,62 246,57 241,62 246,67 251,62"/><polygon style="fill:#0000ff;stroke:#0000ff;" points="187,113 191,118 197,114 193,109 187,113"/></g></g></svg>