<?xml version="1.0" encoding="UTF-8" standalone="no"?><!DOCTYPE svg PUBLIC "-//W3C//DTD SVG 1.0//EN" "http://www.w3.org/TR/2001/REC-SVG-20010904/DTD/svg10.dtd" [ <!ATTLIST svg xmlns:xlink CDATA #FIXED "http://www.w3.org/1999/xlink">]><!-- Generated by WinGraphviz version ver1.02.23, 08/01/2003 (08/04/2003)     For user: Avi Ma'ayan   Title: G    Pages: 1 --><svg width="231px" height="276px" xmlns="http://www.w3.org/2000/svg" xmlns:xlink="http://www.w3.org/1999/xlink"><g id="graph0" class="graph" style="font-family:Times New Roman;font-size:18.67;"><title>G</title><g id="node1" class="node"><title>PARVA</title><a xlink:href="PARVA.html"><ellipse cx="61" cy="39" rx="54" ry="24" style="fill:turquoise;stroke:turquoise;"/><text text-anchor="middle" x="61" y="46" style="font-family:Times New Roman;"><![CDATA[PARVA]]></text></a></g><g id="node2" class="node"><title>TESK1</title><a xlink:href="TESK1.html"><ellipse cx="121" cy="135" rx="45" ry="24" style="fill:turquoise;stroke:turquoise;"/><text text-anchor="middle" x="121" y="142" style="font-family:Times New Roman;"><![CDATA[TESK1]]></text></a></g><g id="edge2" class="edge"><title>PARVA-&gt;TESK1</title><path style="fill:none;stroke:#ff0000;" d="M76,62C82,73 89,85 96,95"/><polyline style="fill:none;stroke:#ff0000;" points="88,101 105,90 "/></g><g id="node6" class="node"><title>CFL1</title><a xlink:href="CFL1.html"><ellipse cx="121" cy="231" rx="37" ry="24" style="fill:turquoise;stroke:turquoise;"/><text text-anchor="middle" x="121" y="238" style="font-family:Times New Roman;"><![CDATA[CFL1]]></text></a></g><g id="edge6" class="edge"><title>TESK1-&gt;CFL1</title><path style="fill:none;stroke:darkgreen;" d="M121,159C121,170 121,182 121,194"/><polygon style="fill:darkgreen;stroke:darkgreen;" points="125,194 121,207 118,194 125,194"/></g><g id="node4" class="node"><title>RAC1</title><a xlink:href="RAC1.html"><ellipse cx="181" cy="39" rx="41" ry="24" style="fill:turquoise;stroke:turquoise;"/><text text-anchor="middle" x="181" y="46" style="font-family:Times New Roman;"><![CDATA[RAC1]]></text></a></g><g id="edge4" class="edge"><title>RAC1-&gt;TESK1</title><path style="fill:none;stroke:darkgreen;" d="M166,62C159,73 150,87 142,101"/><polygon style="fill:darkgreen;stroke:darkgreen;" points="145,102 135,111 139,98 145,102"/></g></g></svg>