<?xml version="1.0" encoding="UTF-8" standalone="no"?><!DOCTYPE svg PUBLIC "-//W3C//DTD SVG 1.0//EN" "http://www.w3.org/TR/2001/REC-SVG-20010904/DTD/svg10.dtd" [ <!ATTLIST svg xmlns:xlink CDATA #FIXED "http://www.w3.org/1999/xlink">]><!-- Generated by WinGraphviz version ver1.02.23, 08/01/2003 (08/04/2003)     For user: Avi Ma'ayan   Title: G    Pages: 1 --><svg width="604px" height="276px" xmlns="http://www.w3.org/2000/svg" xmlns:xlink="http://www.w3.org/1999/xlink"><g id="graph0" class="graph" style="font-family:Times New Roman;font-size:18.67;"><title>G</title><g id="node1" class="node"><title>CSK</title><a xlink:href="CSK.html"><ellipse cx="85" cy="39" rx="36" ry="24" style="fill:turquoise;stroke:turquoise;"/><text text-anchor="middle" x="85" y="46" style="font-family:Times New Roman;"><![CDATA[CSK]]></text></a></g><g id="node2" class="node"><title>TGFB1I1</title><a xlink:href="TGFB1I1.html"><ellipse cx="290" cy="135" rx="53" ry="24" style="fill:turquoise;stroke:turquoise;"/><text text-anchor="middle" x="290" y="142" style="font-family:Times New Roman;"><![CDATA[TGFB1I1]]></text></a></g><g id="edge2" class="edge"><title>CSK-&gt;TGFB1I1</title><path style="fill:none;stroke:#0000ff;" d="M118,57C122,58 128,61 133,63 171,82 214,101 246,115"/><polygon style="fill:#0000ff;stroke:#0000ff;" points="114,51 112,57 117,59 120,54 114,51"/><polygon style="fill:#0000ff;stroke:#0000ff;" points="251,121 254,115 247,113 245,118 251,121"/></g><g id="node10" class="node"><title>HSPB1</title><a xlink:href="HSPB1.html"><ellipse cx="51" cy="231" rx="45" ry="24" style="fill:turquoise;stroke:turquoise;"/><text text-anchor="middle" x="51" y="238" style="font-family:Times New Roman;"><![CDATA[HSPB1]]></text></a></g><g id="edge10" class="edge"><title>TGFB1I1-&gt;HSPB1</title><path style="fill:none;stroke:#0000ff;" d="M243,154C207,169 155,190 109,207 104,210 98,213 93,214"/><polygon style="fill:#0000ff;stroke:#0000ff;" points="251,154 249,149 242,151 245,157 251,154"/><polygon style="fill:#0000ff;stroke:#0000ff;" points="86,214 89,219 94,217 92,211 86,214"/></g><g id="node12" class="node"><title>ITGA5</title><a xlink:href="ITGA5.html"><ellipse cx="167" cy="231" rx="46" ry="24" style="fill:turquoise;stroke:turquoise;"/><text text-anchor="middle" x="167" y="238" style="font-family:Times New Roman;"><![CDATA[ITGA5]]></text></a></g><g id="edge12" class="edge"><title>TGFB1I1-&gt;ITGA5</title><path style="fill:none;stroke:#0000ff;" d="M258,161C239,175 217,193 199,207"/><polygon style="fill:#0000ff;stroke:#0000ff;" points="266,159 262,154 257,158 261,163 266,159"/><polygon style="fill:#0000ff;stroke:#0000ff;" points="193,209 197,214 202,210 198,205 193,209"/></g><g id="node14" class="node"><title>PTPN12</title><a xlink:href="PTPN12.html"><ellipse cx="290" cy="231" rx="52" ry="24" style="fill:turquoise;stroke:turquoise;"/><text text-anchor="middle" x="290" y="238" style="font-family:Times New Roman;"><![CDATA[PTPN12]]></text></a></g><g id="edge14" class="edge"><title>TGFB1I1-&gt;PTPN12</title><path style="fill:none;stroke:#0000ff;" d="M290,166C290,177 290,190 290,201"/><polygon style="fill:#0000ff;stroke:#0000ff;" points="294,159 288,159 288,166 294,166 294,159"/><polygon style="fill:#0000ff;stroke:#0000ff;" points="288,207 294,207 294,201 288,201 288,207"/></g><g id="node16" class="node"><title>NUDT16L1</title><a xlink:href="NUDT16L1.html"><ellipse cx="432" cy="231" rx="65" ry="24" style="fill:turquoise;stroke:turquoise;"/><text text-anchor="middle" x="432" y="238" style="font-family:Times New Roman;"><![CDATA[NUDT16L1]]></text></a></g><g id="edge16" class="edge"><title>TGFB1I1-&gt;NUDT16L1</title><path style="fill:none;stroke:#0000ff;" d="M325,159C348,173 374,193 396,207"/><polygon style="fill:#0000ff;stroke:#0000ff;" points="322,153 318,158 324,162 328,157 322,153"/><polygon style="fill:#0000ff;stroke:#0000ff;" points="400,213 402,207 397,205 394,210 400,213"/></g><g id="node18" class="node"><title>VCL</title><a xlink:href="VCL.html"><ellipse cx="558" cy="231" rx="37" ry="24" style="fill:turquoise;stroke:turquoise;"/><text text-anchor="middle" x="558" y="238" style="font-family:Times New Roman;"><![CDATA[VCL]]></text></a></g><g id="edge18" class="edge"><title>TGFB1I1-&gt;VCL</title><path style="fill:none;stroke:#0000ff;" d="M342,150C386,165 452,186 509,207 514,210 519,213 523,214"/><polygon style="fill:#0000ff;stroke:#0000ff;" points="336,146 336,151 342,153 342,147 336,146"/><polygon style="fill:#0000ff;stroke:#0000ff;" points="527,219 530,214 525,211 522,217 527,219"/></g><g id="node4" class="node"><title>PTK2</title><a xlink:href="PTK2.html"><ellipse cx="186" cy="39" rx="41" ry="24" style="fill:turquoise;stroke:turquoise;"/><text text-anchor="middle" x="186" y="46" style="font-family:Times New Roman;"><![CDATA[PTK2]]></text></a></g><g id="edge4" class="edge"><title>PTK2-&gt;TGFB1I1</title><path style="fill:none;stroke:#0000ff;" d="M213,63C227,78 246,94 261,109"/><polygon style="fill:#0000ff;stroke:#0000ff;" points="211,57 206,62 211,67 217,62 211,57"/><polygon style="fill:#0000ff;stroke:#0000ff;" points="264,117 269,111 264,106 258,111 264,117"/></g><g id="node6" class="node"><title>FYN</title><a xlink:href="FYN.html"><ellipse cx="290" cy="39" rx="38" ry="24" style="fill:turquoise;stroke:turquoise;"/><text text-anchor="middle" x="290" y="46" style="font-family:Times New Roman;"><![CDATA[FYN]]></text></a></g><g id="edge6" class="edge"><title>FYN-&gt;TGFB1I1</title><path style="fill:none;stroke:darkgreen;" d="M290,63C290,74 290,86 290,98"/><polygon style="fill:darkgreen;stroke:darkgreen;" points="294,98 290,111 288,98 294,98"/></g><g id="node8" class="node"><title>GIT1</title><a xlink:href="GIT1.html"><ellipse cx="389" cy="39" rx="36" ry="24" style="fill:turquoise;stroke:turquoise;"/><text text-anchor="middle" x="389" y="46" style="font-family:Times New Roman;"><![CDATA[GIT1]]></text></a></g><g id="edge8" class="edge"><title>GIT1-&gt;TGFB1I1</title><path style="fill:none;stroke:#0000ff;" d="M365,63C350,78 333,94 318,109"/><polygon style="fill:#0000ff;stroke:#0000ff;" points="372,62 366,57 361,62 366,67 372,62"/><polygon style="fill:#0000ff;stroke:#0000ff;" points="310,111 316,117 321,111 316,106 310,111"/></g><g id="node20" class="node"><title>PTK2B</title><a xlink:href="PTK2B.html"><ellipse cx="498" cy="39" rx="49" ry="24" style="fill:turquoise;stroke:turquoise;"/><text text-anchor="middle" x="498" y="46" style="font-family:Times New Roman;"><![CDATA[PTK2B]]></text></a></g><g id="edge20" class="edge"><title>PTK2B-&gt;TGFB1I1</title><path style="fill:none;stroke:darkgreen;" d="M462,57C429,73 378,95 340,113"/><polygon style="fill:darkgreen;stroke:darkgreen;" points="341,115 328,118 338,110 341,115"/></g></g></svg>