<?xml version="1.0" encoding="UTF-8" standalone="no"?><!DOCTYPE svg PUBLIC "-//W3C//DTD SVG 1.0//EN" "http://www.w3.org/TR/2001/REC-SVG-20010904/DTD/svg10.dtd" [ <!ATTLIST svg xmlns:xlink CDATA #FIXED "http://www.w3.org/1999/xlink">]><!-- Generated by WinGraphviz version ver1.02.23, 08/01/2003 (08/04/2003)     For user: Avi Ma'ayan   Title: G    Pages: 1 --><svg width="322px" height="180px" xmlns="http://www.w3.org/2000/svg" xmlns:xlink="http://www.w3.org/1999/xlink"><g id="graph0" class="graph" style="font-family:Times New Roman;font-size:18.67;"><title>G</title><g id="node1" class="node"><title>FYN</title><a xlink:href="FYN.html"><ellipse cx="45" cy="39" rx="38" ry="24" style="fill:turquoise;stroke:turquoise;"/><text text-anchor="middle" x="45" y="46" style="font-family:Times New Roman;"><![CDATA[FYN]]></text></a></g><g id="node2" class="node"><title>THY1</title><a xlink:href="THY1.html"><ellipse cx="154" cy="135" rx="41" ry="24" style="fill:turquoise;stroke:turquoise;"/><text text-anchor="middle" x="154" y="142" style="font-family:Times New Roman;"><![CDATA[THY1]]></text></a></g><g id="edge2" class="edge"><title>FYN-&gt;THY1</title><path style="fill:none;stroke:#0000ff;" d="M72,63C89,78 109,97 126,111"/><polygon style="fill:#0000ff;stroke:#0000ff;" points="70,57 65,62 70,67 76,62 70,57"/><polygon style="fill:#0000ff;stroke:#0000ff;" points="130,118 134,113 129,109 125,114 130,118"/></g><g id="node4" class="node"><title>ITGA5</title><a xlink:href="ITGA5.html"><ellipse cx="154" cy="39" rx="46" ry="24" style="fill:turquoise;stroke:turquoise;"/><text text-anchor="middle" x="154" y="46" style="font-family:Times New Roman;"><![CDATA[ITGA5]]></text></a></g><g id="edge4" class="edge"><title>ITGA5-&gt;THY1</title><path style="fill:none;stroke:#0000ff;" d="M154,70C154,81 154,94 154,105"/><polygon style="fill:#0000ff;stroke:#0000ff;" points="158,63 151,63 151,70 158,70 158,63"/><polygon style="fill:#0000ff;stroke:#0000ff;" points="151,111 158,111 158,105 151,105 151,111"/></g><g id="node6" class="node"><title>ITGB1</title><a xlink:href="ITGB1.html"><ellipse cx="269" cy="39" rx="44" ry="24" style="fill:turquoise;stroke:turquoise;"/><text text-anchor="middle" x="269" y="46" style="font-family:Times New Roman;"><![CDATA[ITGB1]]></text></a></g><g id="edge6" class="edge"><title>ITGB1-&gt;THY1</title><path style="fill:none;stroke:#0000ff;" d="M241,63C223,78 202,97 183,111"/><polygon style="fill:#0000ff;stroke:#0000ff;" points="247,62 242,57 237,62 242,67 247,62"/><polygon style="fill:#0000ff;stroke:#0000ff;" points="177,113 181,118 186,114 182,109 177,113"/></g></g></svg>