<?xml version="1.0" encoding="UTF-8" standalone="no"?><!DOCTYPE svg PUBLIC "-//W3C//DTD SVG 1.0//EN" "http://www.w3.org/TR/2001/REC-SVG-20010904/DTD/svg10.dtd" [ <!ATTLIST svg xmlns:xlink CDATA #FIXED "http://www.w3.org/1999/xlink">]><!-- Generated by WinGraphviz version ver1.02.23, 08/01/2003 (08/04/2003)     For user: Avi Ma'ayan   Title: G    Pages: 1 --><svg width="554px" height="276px" xmlns="http://www.w3.org/2000/svg" xmlns:xlink="http://www.w3.org/1999/xlink"><g id="graph0" class="graph" style="font-family:Times New Roman;font-size:18.67;"><title>G</title><g id="node1" class="node"><title>ARPC2</title><a xlink:href="ARPC2.html"><ellipse cx="57" cy="39" rx="50" ry="24" style="fill:turquoise;stroke:turquoise;"/><text text-anchor="middle" x="57" y="46" style="font-family:Times New Roman;"><![CDATA[ARPC2]]></text></a></g><g id="node2" class="node"><title>TIAM1</title><a xlink:href="TIAM1.html"><ellipse cx="282" cy="135" rx="46" ry="24" style="fill:turquoise;stroke:turquoise;"/><text text-anchor="middle" x="282" y="142" style="font-family:Times New Roman;"><![CDATA[TIAM1]]></text></a></g><g id="edge2" class="edge"><title>ARPC2-&gt;TIAM1</title><path style="fill:none;stroke:#0000ff;" d="M100,58C139,75 198,101 239,117"/><polygon style="fill:#0000ff;stroke:#0000ff;" points="96,53 93,58 98,61 101,55 96,53"/><polygon style="fill:#0000ff;stroke:#0000ff;" points="245,122 247,117 241,114 238,119 245,122"/></g><g id="node12" class="node"><title>RAC1</title><a xlink:href="RAC1.html"><ellipse cx="282" cy="231" rx="41" ry="24" style="fill:turquoise;stroke:turquoise;"/><text text-anchor="middle" x="282" y="238" style="font-family:Times New Roman;"><![CDATA[RAC1]]></text></a></g><g id="edge12" class="edge"><title>TIAM1-&gt;RAC1</title><path style="fill:none;stroke:darkgreen;" d="M282,159C282,170 282,182 282,194"/><polygon style="fill:darkgreen;stroke:darkgreen;" points="286,194 282,207 280,194 286,194"/></g><g id="node4" class="node"><title>HRAS</title><a xlink:href="HRAS.html"><ellipse cx="177" cy="39" rx="45" ry="24" style="fill:turquoise;stroke:turquoise;"/><text text-anchor="middle" x="177" y="46" style="font-family:Times New Roman;"><![CDATA[HRAS]]></text></a></g><g id="edge4" class="edge"><title>HRAS-&gt;TIAM1</title><path style="fill:none;stroke:#0000ff;" d="M203,65C219,79 238,95 253,110"/><polygon style="fill:#0000ff;stroke:#0000ff;" points="202,58 197,63 202,69 207,63 202,58"/><polygon style="fill:#0000ff;stroke:#0000ff;" points="257,117 261,111 255,107 251,113 257,117"/></g><g id="node6" class="node"><title>PIP2</title><a xlink:href="PIP2.html"><ellipse cx="282" cy="39" rx="36" ry="24" style="fill:turquoise;stroke:turquoise;"/><text text-anchor="middle" x="282" y="46" style="font-family:Times New Roman;"><![CDATA[PIP2]]></text></a></g><g id="edge6" class="edge"><title>PIP2-&gt;TIAM1</title><path style="fill:none;stroke:darkgreen;" d="M282,63C282,74 282,86 282,98"/><polygon style="fill:darkgreen;stroke:darkgreen;" points="286,98 282,111 280,98 286,98"/></g><g id="node8" class="node"><title>PRKCA</title><a xlink:href="PRKCA.html"><ellipse cx="396" cy="39" rx="53" ry="24" style="fill:turquoise;stroke:turquoise;"/><text text-anchor="middle" x="396" y="46" style="font-family:Times New Roman;"><![CDATA[PRKCA]]></text></a></g><g id="edge8" class="edge"><title>PRKCA-&gt;TIAM1</title><path style="fill:none;stroke:darkgreen;" d="M370,61C354,74 333,93 316,107"/><polygon style="fill:darkgreen;stroke:darkgreen;" points="318,109 306,115 314,105 318,109"/></g><g id="node10" class="node"><title>SRC</title><a xlink:href="SRC.html"><ellipse cx="509" cy="39" rx="36" ry="24" style="fill:turquoise;stroke:turquoise;"/><text text-anchor="middle" x="509" y="46" style="font-family:Times New Roman;"><![CDATA[SRC]]></text></a></g><g id="edge10" class="edge"><title>SRC-&gt;TIAM1</title><path style="fill:none;stroke:darkgreen;" d="M481,54C474,57 468,61 461,63 418,83 368,103 332,117"/><polygon style="fill:darkgreen;stroke:darkgreen;" points="333,119 320,121 332,113 333,119"/></g></g></svg>