<?xml version="1.0" encoding="UTF-8" standalone="no"?><!DOCTYPE svg PUBLIC "-//W3C//DTD SVG 1.0//EN" "http://www.w3.org/TR/2001/REC-SVG-20010904/DTD/svg10.dtd" [ <!ATTLIST svg xmlns:xlink CDATA #FIXED "http://www.w3.org/1999/xlink">]><!-- Generated by WinGraphviz version ver1.02.23, 08/01/2003 (08/04/2003)     For user: Avi Ma'ayan   Title: G    Pages: 1 --><!--="735px" height="160px" xmlns="http://www.w3.org/2000/svg" --><svg onload="init(evt)" width="735px" height="600px" xmlns="http://www.w3.org/2000/svg" xmlns:xlink="http://www.w3.org/1999/xlink">
<script type="text/ecmascript">
<![CDATA[
var svgDocument;
var zoomAmt;
var xOffset;
var yOffset;
var scale;
var maxScale;
var imageWidth;
var imageHeight;
function init(evt)
{
    svgDocument = evt.getTarget().getOwnerDocument();
    zoomAmt = 0;
    xOffset = 0;
    yOffset = 60;
    scale = 0.8;
    maxScale = 10;
    imageWidth = 742;
    imageHeight = 606;
    panRestore();
    //panUp();
}
function transformMap ()
{
    var obj = svgDocument.getElementById("Pathway");
    var centerX = imageWidth  / 2.0;
    var centerY = imageHeight / 2.0;
    var adjustX = (-centerX * (scale - 0.8)) + xOffset;
    var adjustY = (-centerY * (scale - 0.8)) + yOffset;
    var transParms = 'translate(' + adjustX + ',' + adjustY + ') ';
    transParms += 'scale(' + scale + ')';
    // alert(transParms);
    obj.setAttribute("transform", transParms); 
}
function click_node(id)
{
    var testx = parent.click_node;
    if (typeof(testx) == "function")
    {
		parent.click_node(id);
    }
}
function click_relation(id)
{
    var testx = parent.click_relation;
    if (typeof(testx) == "function")
    {
        parent.click_relation(id);
    }
}
function click_pathway(toId, fromId)
{
    var testx = parent.click_pathway;
    if (typeof(testx) == "function")
    {
	parent.click_pathway(toId, fromId);
    }
}
function check_interpath(evt, pathid)
{
  var obj = evt.getTarget();
  var testx = parent.is_frompath;
  var child = obj.firstChild;
  if (typeof(testx) == "function")
  {
    if (parent.is_frompath(pathid))
    {
      while (child != null)
      {
        if (child.nodeType == 1)
        {
          if ((child.localName == "g") || (child.localName == "polyline"))
          {
            child.setAttribute("style", "fill:none;stroke:red");
          }
          else if (child.localName == "polygon")
          {
            child.setAttribute("style", "fill:red;stroke:red");
          }
        }
        child = child.nextSibling;
      }
    }
  }
}
function set_status (msg)
{
 var obj = svgDocument.getElementById("status_text");
  var child;
 
  child = obj.firstChild;
  if ((child != null) && (child.nodeType == 3))
  {
    if ((msg != null) && (msg.length > 0))
    {
      child.data = msg;
    }
    else
    {
child.data = " ";
    }
  }
}
function zoomIn ()
{
    scale = scale + 0.8;
    if (scale > maxScale)
    {
       scale = maxScale;
    }
    transformMap();
    panUp();
    panUp();
    panUp();
    panUp();
    panUp();
    panUp();
    panUp();
    panUp();
    panUp();
    panUp();
    panUp();
    panUp();
}
function zoomOut ()
{
    scale = scale - 0.8;
    if (scale < 0.8)
    {
       scale = 0.8;
    }
    transformMap();
    panDown();
    panDown();
    panDown();
    panDown();
    panDown();
    panDown();
    panDown();
    panDown();
    panDown();
    panDown();
    panDown();
    panDown();
}
function panUp ()
{
    yOffset = yOffset + 20;
    transformMap();
}
function panDown ()
{
    yOffset = yOffset - 20;
    transformMap();
}
function panLeft ()
{
    xOffset = xOffset + 20;
    transformMap();
}
function panRight ()
{
    xOffset = xOffset - 20;
    transformMap();
}
function panRestore ()
{
    xOffset = 0;
    yOffset = 0;
    scale = 0.5;
    //obj = svgDocument.getElementById("zoom");
    //obj.setAttribute("x1", 0);
    //obj.setAttribute("x2", 0);
    transformMap();    
}
function doHighlight (evt, msg)
{
  var obj = evt.getTarget();
  obj.setAttribute("fill", "rgb(239,24,33)");
  set_status(msg);
}
function resetHighlight (evt)
{
  var obj = evt.getTarget();
  obj.setAttribute("fill", "rgb(99,154,206)");
  set_status(" ");
}
// ]]>
</script>
<defs>
<clipPath id="theClip">
<polygon points="1 61, 741 61, 741 665, 1 665"
style="fill: none;"/>
</clipPath>
</defs>
<!-- viewport outline -->
<rect x="0" y="61" width="742" height="606"
style="stroke: black; stroke-width: 1; fill: none;"/>
<!-- pathway graph style="clip-path: url(#theClip);" -->
<g style="clip-path: url(#theClip);">
<g id="Pathway"  transform="translate(0,60)">
<!-- prefile.include ends, begin pathway graph -->
<g id="stkecm;CMP_10705" class="graph">
</g>
<g id="graph0" class="graph" style="font-family:Times New Roman;font-size:10.41;"><title>G</title><g id="node1" class="node"><title>ACTB</title><a xlink:href="ACTB.html"><ellipse cx="31" cy="23" rx="24" ry="13" style="fill:turquoise;stroke:turquoise;"/><text text-anchor="middle" x="31" y="27" style="font-family:Times New Roman;"><![CDATA[ACTB]]></text></a></g><g id="node2" class="node"><title>TLN1</title><a xlink:href="TLN1.html"><ellipse cx="374" cy="77" rx="22" ry="13" style="fill:turquoise;stroke:turquoise;"/><text text-anchor="middle" x="374" y="81" style="font-family:Times New Roman;"><![CDATA[TLN1]]></text></a></g><g id="edge2" class="edge"><title>ACTB-&gt;TLN1</title><path style="fill:none;stroke:#0000ff;" d="M52,34C55,35 58,36 62,37 165,65 293,73 348,76"/><polygon style="fill:#0000ff;stroke:#0000ff;" points="50,31 49,34 52,35 53,32 50,31"/><polygon style="fill:#0000ff;stroke:#0000ff;" points="352,78 352,74 348,74 348,78 352,78"/></g><g id="node24" class="node"><title>TES</title><a xlink:href="TES.html"><ellipse cx="348" cy="130" rx="20" ry="13" style="fill:turquoise;stroke:turquoise;"/><text text-anchor="middle" x="348" y="134" style="font-family:Times New Roman;"><![CDATA[TES]]></text></a></g><g id="edge24" class="edge"><title>TLN1-&gt;TES</title><path style="fill:none;stroke:#0000ff;" d="M366,93C363,100 359,107 356,115"/><polygon style="fill:#0000ff;stroke:#0000ff;" points="369,90 366,89 365,92 368,93 369,90"/><polygon style="fill:#0000ff;stroke:#0000ff;" points="353,117 356,119 357,116 354,114 353,117"/></g><g id="node26" class="node"><title>VCL</title><a xlink:href="VCL.html"><ellipse cx="402" cy="130" rx="20" ry="13" style="fill:turquoise;stroke:turquoise;"/><text text-anchor="middle" x="402" y="134" style="font-family:Times New Roman;"><![CDATA[VCL]]></text></a></g><g id="edge26" class="edge"><title>TLN1-&gt;VCL</title><path style="fill:none;stroke:#0000ff;" d="M383,93C386,100 390,107 394,115"/><polygon style="fill:#0000ff;stroke:#0000ff;" points="383,89 380,90 381,93 384,92 383,89"/><polygon style="fill:#0000ff;stroke:#0000ff;" points="394,119 397,117 395,114 392,116 394,119"/></g><g id="node4" class="node"><title>CAPN1</title><a xlink:href="CAPN1.html"><ellipse cx="96" cy="23" rx="27" ry="13" style="fill:turquoise;stroke:turquoise;"/><text text-anchor="middle" x="96" y="27" style="font-family:Times New Roman;"><![CDATA[CAPN1]]></text></a></g><g id="edge4" class="edge"><title>CAPN1-&gt;TLN1</title><path style="fill:none;stroke:#ff0000;" d="M116,32C121,34 126,36 130,37 205,58 295,70 342,74"/><polyline style="fill:none;stroke:#ff0000;" points="341,79 342,68 "/></g><g id="node6" class="node"><title>CEACAM1</title><a xlink:href="CEACAM1.html"><ellipse cx="174" cy="23" rx="37" ry="13" style="fill:turquoise;stroke:turquoise;"/><text text-anchor="middle" x="174" y="27" style="font-family:Times New Roman;"><![CDATA[CEACAM1]]></text></a></g><g id="edge6" class="edge"><title>CEACAM1-&gt;TLN1</title><path style="fill:none;stroke:#0000ff;" d="M206,33C210,35 214,35 218,37 264,50 319,64 350,71"/><polygon style="fill:#0000ff;stroke:#0000ff;" points="203,31 202,34 206,35 207,32 203,31"/><polygon style="fill:#0000ff;stroke:#0000ff;" points="354,73 354,70 350,70 350,72 354,73"/></g><g id="node8" class="node"><title>PTK2</title><a xlink:href="PTK2.html"><ellipse cx="248" cy="23" rx="23" ry="13" style="fill:turquoise;stroke:turquoise;"/><text text-anchor="middle" x="248" y="27" style="font-family:Times New Roman;"><![CDATA[PTK2]]></text></a></g><g id="edge8" class="edge"><title>PTK2-&gt;TLN1</title><path style="fill:none;stroke:#0000ff;" d="M269,33C272,35 275,35 278,37 304,48 333,60 352,68"/><polygon style="fill:#0000ff;stroke:#0000ff;" points="266,30 265,33 268,35 269,32 266,30"/><polygon style="fill:#0000ff;stroke:#0000ff;" points="355,71 356,68 353,67 351,70 355,71"/></g><g id="node10" class="node"><title>ITGA5</title><a xlink:href="ITGA5.html"><ellipse cx="310" cy="23" rx="26" ry="13" style="fill:turquoise;stroke:turquoise;"/><text text-anchor="middle" x="310" y="27" style="font-family:Times New Roman;"><![CDATA[ITGA5]]></text></a></g><g id="edge10" class="edge"><title>ITGA5-&gt;TLN1</title><path style="fill:none;stroke:#0000ff;" d="M327,38C336,45 348,55 358,64"/><polygon style="fill:#0000ff;stroke:#0000ff;" points="326,34 323,37 326,40 329,37 326,34"/><polygon style="fill:#0000ff;stroke:#0000ff;" points="360,67 362,64 359,62 357,65 360,67"/></g><g id="node12" class="node"><title>ITGB1</title><a xlink:href="ITGB1.html"><ellipse cx="374" cy="23" rx="24" ry="13" style="fill:turquoise;stroke:turquoise;"/><text text-anchor="middle" x="374" y="27" style="font-family:Times New Roman;"><![CDATA[ITGB1]]></text></a></g><g id="edge12" class="edge"><title>ITGB1-&gt;TLN1</title><path style="fill:none;stroke:#0000ff;" d="M374,40C374,46 374,54 374,60"/><polygon style="fill:#0000ff;stroke:#0000ff;" points="377,37 373,37 373,40 377,40 377,37"/><polygon style="fill:#0000ff;stroke:#0000ff;" points="373,64 377,64 377,60 373,60 373,64"/></g><g id="node14" class="node"><title>LAYN</title><a xlink:href="LAYN.html"><ellipse cx="439" cy="23" rx="26" ry="13" style="fill:limegreen;stroke:limegreen;"/><text text-anchor="middle" x="439" y="27" style="font-family:Times New Roman;"><![CDATA[LAYN]]></text></a></g><g id="edge14" class="edge"><title>LAYN-&gt;TLN1</title><path style="fill:none;stroke:#0000ff;" d="M423,38C413,45 401,55 391,64"/><polygon style="fill:#0000ff;stroke:#0000ff;" points="426,37 423,34 420,37 423,40 426,37"/><polygon style="fill:#0000ff;stroke:#0000ff;" points="387,64 389,67 392,65 390,62 387,64"/></g><g id="node16" class="node"><title>PIP2</title><a xlink:href="PIP2.html"><ellipse cx="499" cy="23" rx="20" ry="13" style="fill:turquoise;stroke:turquoise;"/><text text-anchor="middle" x="499" y="27" style="font-family:Times New Roman;"><![CDATA[PIP2]]></text></a></g><g id="edge16" class="edge"><title>PIP2-&gt;TLN1</title><path style="fill:none;stroke:darkgreen;" d="M484,32C480,33 476,35 473,37 448,48 420,60 400,67"/><polygon style="fill:darkgreen;stroke:darkgreen;" points="400,69 393,70 400,65 400,69"/></g><g id="node18" class="node"><title>PIP5K1C</title><a xlink:href="PIP5K1C.html"><ellipse cx="563" cy="23" rx="30" ry="13" style="fill:turquoise;stroke:turquoise;"/><text text-anchor="middle" x="563" y="27" style="font-family:Times New Roman;"><![CDATA[PIP5K1C]]></text></a></g><g id="edge18" class="edge"><title>PIP5K1C-&gt;TLN1</title><path style="fill:none;stroke:#0000ff;" d="M537,33C534,35 530,35 526,37 481,50 429,64 399,71"/><polygon style="fill:#0000ff;stroke:#0000ff;" points="541,34 539,31 536,32 537,35 541,34"/><polygon style="fill:#0000ff;stroke:#0000ff;" points="395,70 395,73 399,72 399,70 395,70"/></g><g id="node20" class="node"><title>PRKCA</title><a xlink:href="PRKCA.html"><ellipse cx="637" cy="23" rx="29" ry="13" style="fill:turquoise;stroke:turquoise;"/><text text-anchor="middle" x="637" y="27" style="font-family:Times New Roman;"><![CDATA[PRKCA]]></text></a></g><g id="edge20" class="edge"><title>PRKCA-&gt;TLN1</title><path style="fill:none;stroke:#0000ff;" d="M612,33C608,35 604,35 600,37 529,56 443,69 401,74"/><polygon style="fill:#0000ff;stroke:#0000ff;" points="615,34 614,31 610,32 612,35 615,34"/><polygon style="fill:#0000ff;stroke:#0000ff;" points="397,73 397,76 400,75 400,72 397,73"/></g><g id="node22" class="node"><title>PKD1</title><a xlink:href="PKD1.html"><ellipse cx="703" cy="23" rx="23" ry="13" style="fill:turquoise;stroke:turquoise;"/><text text-anchor="middle" x="703" y="27" style="font-family:Times New Roman;"><![CDATA[PKD1]]></text></a></g><g id="edge22" class="edge"><title>PKD1-&gt;TLN1</title><path style="fill:none;stroke:#0000ff;" d="M682,34C679,35 676,36 673,37 575,65 454,73 401,76"/><polygon style="fill:#0000ff;stroke:#0000ff;" points="686,34 685,31 682,32 683,35 686,34"/><polygon style="fill:#0000ff;stroke:#0000ff;" points="397,74 397,78 400,78 400,74 397,74"/></g></g></g></g>
<!-- navigation controls -->
<g id="navbox">
	<rect x="0" y="0" width="742" height="60"
		 style="fill:rgb(206,207,206);stroke:rgb(0,0,0);stroke-width:1"/>

	<polygon id="pan_right"
        onmouseup="panRight()"
        onmouseover="doHighlight(evt, 'Click to pan to the right')"
        onmouseout="resetHighlight(evt)"
		points="28.0732,13 32,20.5 28.0732,28 28.0732,23.4412 25,23.4412 25,17.4118 28.0732,17.4118"
		 transform="matrix(3.39111 0 0 2.98838 -12.6265 -29.7101)"
         fill="rgb(99,154,206)"
		 style="stroke:rgb(0,0,0);stroke-width:0.5"/>
	<polygon id="pan_left"
        onmouseup="panLeft()"
        onmouseover="doHighlight(evt, 'Click to pan to the left')"
        onmouseout="resetHighlight(evt)"
		points="123.991,25 120.064,32.5 123.991,40 123.991,35.4412 127.064,35.4412 127.064,29.4118
			123.991,29.4118" transform="matrix(3.39111 0 0 2.98838 -404.865 -65.5706)"
         fill="rgb(99,154,206)"
		 style="stroke:rgb(0,0,0);stroke-width:0.5"/>
	<polygon id="pan_down"
        onmouseup="panDown()"
        onmouseover="doHighlight(evt, 'Click to pan down')"
        onmouseout="resetHighlight(evt)"
		points="116.032,32.0408 123.532,35.9678 131.032,32.0408 126.473,32.0408 126.473,28.9678 120.444,28.9678
			120.444,32.0408" transform="matrix(3.39111 0 0 2.98838 -369.822 -50.6287)"
         fill="rgb(99,154,206)"
		 style="stroke:rgb(0,0,0);stroke-width:0.5"/>
	<polygon id="pan_up"
        onmouseup="panUp()"
  onmouseover="doHighlight(evt, 'Click to pan up')"
        onmouseout="resetHighlight(evt)"
		points="116.032,32.0408 123.532,35.9678 131.032,32.0408 126.473,32.0408 126.473,28.9678 120.444,28.9678
			120.444,32.0408" transform="matrix(3.39111 0 0 -2.98838 -369.823 111.74)"
         fill="rgb(99,154,206)"
		 style="stroke:rgb(0,0,0);stroke-width:0.5"/>
	<g id="go_home" 
         onmouseup="panRestore()" 
         onmouseover="doHighlight(evt, 'Click to restore graph to original position')"
         onmouseout="resetHighlight(evt)"
         fill="rgb(99,154,206)"
         transform="matrix(1 0 0 1 0 -0.333333)">
		<rect x="196" y="11" width="26" height="26"
			transform="translate(-19.1111 -2.66667)"
			 style="stroke:rgb(0,0,0);stroke-width:1"/>
		<line x1="182" y1="16" x2="182" y2="28"
			transform="matrix(1 0 0 1 2.22222 0.444444)"
			 style="fill:none;stroke:rgb(0,0,0);stroke-width:2"/>
		<line x1="187" y1="22" x2="187" y2="28"
			transform="matrix(1 0 0 1 2.22222 0.444444)"
			 style="fill:none;stroke:rgb(0,0,0);stroke-width:2"/>
	<line x1="192" y1="13" x2="192" y2="28"
			transform="matrix(1 0 0 1 2.22222 0.444444)"
			 style="fill:none;stroke:rgb(0,0,0);stroke-width:2"/>
		<line x1="182" y1="28" x2="192" y2="28"
			transform="matrix(1 0 0 1 2.22222 0.444444)"
	style="fill:none;stroke:rgb(0,0,0);stroke-width:2"/>
		<line x1="189" y1="12" x2="179" y2="21"
			 style="fill:none;stroke:rgb(0,0,0);stroke-width:2"/>
		<line x1="188" y1="12" x2="199" y2="20"
			 style="fill:none;stroke:rgb(0,0,0);stroke-width:2"/>
	</g>
	<g id="zoom_out" onmouseup="zoomOut()" 
             onmouseover="doHighlight(evt, 'Click to zoom out')"
             onmouseout="resetHighlight(evt)"
             fill="rgb(99,154,206)"
             transform="matrix(1 0 0 1 0 0)">
		<rect x="116" y="8" width="26" height="26"
			 style="stroke:rgb(0,0,0);stroke-width:1"/>
		<ellipse cx="126" cy="18" rx="6" ry="6"
			 style="stroke:rgb(0,0,0);stroke-width:1"/>
		<line x1="130" y1="23" x2="137" y2="29"
			transform="matrix(1 0 0 1 0.888889 -0.888889)"
			 style="fill:none;stroke:rgb(0,0,0);stroke-width:2"/>
		<line x1="123" y1="18" x2="129" y2="18"
			 style="fill:none;stroke:rgb(0,0,0);stroke-width:2"/>
	</g>
	<g id="zoom_in" onmouseup="zoomIn()" 
             onmouseover="doHighlight(evt, 'Click to zoom in')"
             onmouseout="resetHighlight(evt)"
             fill="rgb(99,154,206)"
             transform="matrix(1 0 0 1 0.888889 -0.444444)">
		<rect x="116" y="8" width="26" height="26"
			transform="matrix(1 0 0 1 29.7778 0.444444)"
			 style="stroke:rgb(0,0,0);stroke-width:1"/>
		<ellipse cx="126" cy="18" rx="6" ry="6"
			transform="matrix(1 0 0 1 29.7778 0.444444)"
			 style="stroke:rgb(0,0,0);stroke-width:1"/>
		<line x1="130" y1="23" x2="137" y2="29"
			transform="matrix(1 0 0 1 30.6667 -0.444445)"
		style="fill:none;stroke:rgb(0,0,0);stroke-width:2"/>
		<line x1="123" y1="18" x2="129" y2="18"
			transform="matrix(1 0 0 1 29.7778 0.444444)"
			 style="fill:none;stroke:rgb(0,0,0);stroke-width:2"/>
		<line x1="156" y1="15" x2="156" y2="22"
			 style="fill:none;stroke:rgb(0,0,0);stroke-width:2"/>
	</g>
	<g>
		<rect x="117" y="40" width="452" height="14"
			transform="matrix(1.54201 0 0 1 -64.1436 -0.222222)"
			 style="fill:rgb(192,192,192);stroke:rgb(0,0,0);stroke-width:1"/>
		<text id="status_text" x="183px" y="48px"
			transform="matrix(1 0 0 1 -63.5556 3.00778)"
			 style="fill:rgb(0,0,0);font-size:14;font-family:Arial"> </text>
	</g>
</g>	
</svg>