<?xml version="1.0" encoding="UTF-8" standalone="no"?><!DOCTYPE svg PUBLIC "-//W3C//DTD SVG 1.0//EN" "http://www.w3.org/TR/2001/REC-SVG-20010904/DTD/svg10.dtd" [ <!ATTLIST svg xmlns:xlink CDATA #FIXED "http://www.w3.org/1999/xlink">]><!-- Generated by WinGraphviz version ver1.02.23, 08/01/2003 (08/04/2003)     For user: Avi Ma'ayan   Title: G    Pages: 1 --><svg width="468px" height="180px" xmlns="http://www.w3.org/2000/svg" xmlns:xlink="http://www.w3.org/1999/xlink"><g id="graph0" class="graph" style="font-family:Times New Roman;font-size:18.67;"><title>G</title><g id="node1" class="node"><title>ACTB</title><a xlink:href="ACTB.html"><ellipse cx="50" cy="39" rx="44" ry="24" style="fill:turquoise;stroke:turquoise;"/><text text-anchor="middle" x="50" y="46" style="font-family:Times New Roman;"><![CDATA[ACTB]]></text></a></g><g id="node2" class="node"><title>TNS1</title><a xlink:href="TNS1.html"><ellipse cx="226" cy="135" rx="38" ry="24" style="fill:turquoise;stroke:turquoise;"/><text text-anchor="middle" x="226" y="142" style="font-family:Times New Roman;"><![CDATA[TNS1]]></text></a></g><g id="edge2" class="edge"><title>ACTB-&gt;TNS1</title><path style="fill:none;stroke:#0000ff;" d="M88,59C117,77 159,101 190,117"/><polygon style="fill:#0000ff;stroke:#0000ff;" points="84,54 81,59 86,62 89,57 84,54"/><polygon style="fill:#0000ff;stroke:#0000ff;" points="195,122 198,117 191,114 189,119 195,122"/></g><g id="node4" class="node"><title>CAPN1</title><a xlink:href="CAPN1.html"><ellipse cx="167" cy="39" rx="49" ry="24" style="fill:turquoise;stroke:turquoise;"/><text text-anchor="middle" x="167" y="46" style="font-family:Times New Roman;"><![CDATA[CAPN1]]></text></a></g><g id="edge4" class="edge"><title>CAPN1-&gt;TNS1</title><path style="fill:none;stroke:#ff0000;" d="M182,62C189,73 195,85 202,95"/><polyline style="fill:none;stroke:#ff0000;" points="194,101 211,90 "/></g><g id="node6" class="node"><title>ITGB1</title><a xlink:href="ITGB1.html"><ellipse cx="285" cy="39" rx="44" ry="24" style="fill:turquoise;stroke:turquoise;"/><text text-anchor="middle" x="285" y="46" style="font-family:Times New Roman;"><![CDATA[ITGB1]]></text></a></g><g id="edge6" class="edge"><title>ITGB1-&gt;TNS1</title><path style="fill:none;stroke:#0000ff;" d="M268,67C260,81 250,94 242,107"/><polygon style="fill:#0000ff;stroke:#0000ff;" points="273,63 268,61 265,66 270,69 273,63"/><polygon style="fill:#0000ff;stroke:#0000ff;" points="237,111 242,114 245,109 239,106 237,111"/></g><g id="node8" class="node"><title>PIK3CA</title><a xlink:href="PIK3CA.html"><ellipse cx="406" cy="39" rx="53" ry="24" style="fill:turquoise;stroke:turquoise;"/><text text-anchor="middle" x="406" y="46" style="font-family:Times New Roman;"><![CDATA[PIK3CA]]></text></a></g><g id="edge8" class="edge"><title>PIK3CA-&gt;TNS1</title><path style="fill:none;stroke:#0000ff;" d="M366,61C336,77 293,101 262,117"/><polygon style="fill:#0000ff;stroke:#0000ff;" points="373,61 370,55 365,58 368,63 373,61"/><polygon style="fill:#0000ff;stroke:#0000ff;" points="254,117 257,122 264,119 261,114 254,117"/></g></g></svg>