<?xml version="1.0" encoding="UTF-8" standalone="no"?><!DOCTYPE svg PUBLIC "-//W3C//DTD SVG 1.0//EN" "http://www.w3.org/TR/2001/REC-SVG-20010904/DTD/svg10.dtd" [ <!ATTLIST svg xmlns:xlink CDATA #FIXED "http://www.w3.org/1999/xlink">]><!-- Generated by WinGraphviz version ver1.02.23, 08/01/2003 (08/04/2003)     For user: Avi Ma'ayan   Title: G    Pages: 1 --><svg width="332px" height="276px" xmlns="http://www.w3.org/2000/svg" xmlns:xlink="http://www.w3.org/1999/xlink"><g id="graph0" class="graph" style="font-family:Times New Roman;font-size:18.67;"><title>G</title><g id="node1" class="node"><title>PTK2</title><a xlink:href="PTK2.html"><ellipse cx="47" cy="39" rx="41" ry="24" style="fill:turquoise;stroke:turquoise;"/><text text-anchor="middle" x="47" y="46" style="font-family:Times New Roman;"><![CDATA[PTK2]]></text></a></g><g id="node2" class="node"><title>TRIO</title><a xlink:href="TRIO.html"><ellipse cx="158" cy="135" rx="41" ry="24" style="fill:turquoise;stroke:turquoise;"/><text text-anchor="middle" x="158" y="142" style="font-family:Times New Roman;"><![CDATA[TRIO]]></text></a></g><g id="edge2" class="edge"><title>PTK2-&gt;TRIO</title><path style="fill:none;stroke:#0000ff;" d="M76,63C93,78 113,97 130,111"/><polygon style="fill:#0000ff;stroke:#0000ff;" points="74,57 69,62 74,67 80,62 74,57"/><polygon style="fill:#0000ff;stroke:#0000ff;" points="134,118 138,113 133,109 129,114 134,118"/></g><g id="node8" class="node"><title>RAC1</title><a xlink:href="RAC1.html"><ellipse cx="102" cy="231" rx="41" ry="24" style="fill:turquoise;stroke:turquoise;"/><text text-anchor="middle" x="102" y="238" style="font-family:Times New Roman;"><![CDATA[RAC1]]></text></a></g><g id="edge8" class="edge"><title>TRIO-&gt;RAC1</title><path style="fill:none;stroke:darkgreen;" d="M145,158C138,169 130,183 122,197"/><polygon style="fill:darkgreen;stroke:darkgreen;" points="125,198 116,209 120,195 125,198"/></g><g id="node10" class="node"><title>RHOA</title><a xlink:href="RHOA.html"><ellipse cx="215" cy="231" rx="48" ry="24" style="fill:turquoise;stroke:turquoise;"/><text text-anchor="middle" x="215" y="238" style="font-family:Times New Roman;"><![CDATA[RHOA]]></text></a></g><g id="edge10" class="edge"><title>TRIO-&gt;RHOA</title><path style="fill:none;stroke:darkgreen;" d="M171,158C178,169 187,183 195,197"/><polygon style="fill:darkgreen;stroke:darkgreen;" points="198,194 202,207 193,198 198,194"/></g><g id="node4" class="node"><title>FLNA</title><a xlink:href="FLNA.html"><ellipse cx="158" cy="39" rx="45" ry="24" style="fill:turquoise;stroke:turquoise;"/><text text-anchor="middle" x="158" y="46" style="font-family:Times New Roman;"><![CDATA[FLNA]]></text></a></g><g id="edge4" class="edge"><title>FLNA-&gt;TRIO</title><path style="fill:none;stroke:#0000ff;" d="M158,70C158,81 158,94 158,105"/><polygon style="fill:#0000ff;stroke:#0000ff;" points="162,63 155,63 155,70 162,70 162,63"/><polygon style="fill:#0000ff;stroke:#0000ff;" points="155,111 162,111 162,105 155,105 155,111"/></g><g id="node6" class="node"><title>PTPRF</title><a xlink:href="PTPRF.html"><ellipse cx="276" cy="39" rx="48" ry="24" style="fill:turquoise;stroke:turquoise;"/><text text-anchor="middle" x="276" y="46" style="font-family:Times New Roman;"><![CDATA[PTPRF]]></text></a></g><g id="edge6" class="edge"><title>PTPRF-&gt;TRIO</title><path style="fill:none;stroke:#0000ff;" d="M246,65C229,78 206,97 187,111"/><polygon style="fill:#0000ff;stroke:#0000ff;" points="253,63 247,58 242,63 247,69 253,63"/><polygon style="fill:#0000ff;stroke:#0000ff;" points="181,113 185,118 190,114 186,109 181,113"/></g></g></svg>