<?xml version="1.0" encoding="UTF-8" standalone="no"?><!DOCTYPE svg PUBLIC "-//W3C//DTD SVG 1.0//EN" "http://www.w3.org/TR/2001/REC-SVG-20010904/DTD/svg10.dtd" [ <!ATTLIST svg xmlns:xlink CDATA #FIXED "http://www.w3.org/1999/xlink">]><!-- Generated by WinGraphviz version ver1.02.23, 08/01/2003 (08/04/2003)     For user: Avi Ma'ayan   Title: G    Pages: 1 --><svg width="439px" height="276px" xmlns="http://www.w3.org/2000/svg" xmlns:xlink="http://www.w3.org/1999/xlink"><g id="graph0" class="graph" style="font-family:Times New Roman;font-size:18.67;"><title>G</title><g id="node1" class="node"><title>BCAR1</title><a xlink:href="BCAR1.html"><ellipse cx="55" cy="39" rx="49" ry="24" style="fill:turquoise;stroke:turquoise;"/><text text-anchor="middle" x="55" y="46" style="font-family:Times New Roman;"><![CDATA[BCAR1]]></text></a></g><g id="node2" class="node"><title>TRIP6</title><a xlink:href="TRIP6.html"><ellipse cx="225" cy="135" rx="44" ry="24" style="fill:turquoise;stroke:turquoise;"/><text text-anchor="middle" x="225" y="142" style="font-family:Times New Roman;"><![CDATA[TRIP6]]></text></a></g><g id="edge2" class="edge"><title>BCAR1-&gt;TRIP6</title><path style="fill:none;stroke:#0000ff;" d="M93,61C121,77 159,98 187,114"/><polygon style="fill:#0000ff;stroke:#0000ff;" points="89,55 86,61 92,63 94,58 89,55"/><polygon style="fill:#0000ff;stroke:#0000ff;" points="193,121 195,115 190,111 187,117 193,121"/></g><g id="node10" class="node"><title>VASP</title><a xlink:href="VASP.html"><ellipse cx="225" cy="231" rx="44" ry="24" style="fill:turquoise;stroke:turquoise;"/><text text-anchor="middle" x="225" y="238" style="font-family:Times New Roman;"><![CDATA[VASP]]></text></a></g><g id="edge10" class="edge"><title>TRIP6-&gt;VASP</title><path style="fill:none;stroke:#0000ff;" d="M225,166C225,177 225,190 225,201"/><polygon style="fill:#0000ff;stroke:#0000ff;" points="229,159 222,159 222,166 229,166 229,159"/><polygon style="fill:#0000ff;stroke:#0000ff;" points="222,207 229,207 229,201 222,201 222,207"/></g><g id="node4" class="node"><title>ENG</title><a xlink:href="ENG.html"><ellipse cx="167" cy="39" rx="38" ry="24" style="fill:turquoise;stroke:turquoise;"/><text text-anchor="middle" x="167" y="46" style="font-family:Times New Roman;"><![CDATA[ENG]]></text></a></g><g id="edge4" class="edge"><title>ENG-&gt;TRIP6</title><path style="fill:none;stroke:#0000ff;" d="M183,67C191,79 201,94 209,106"/><polygon style="fill:#0000ff;stroke:#0000ff;" points="183,61 178,63 181,69 186,66 183,61"/><polygon style="fill:#0000ff;stroke:#0000ff;" points="209,113 214,110 211,105 206,107 209,113"/></g><g id="node6" class="node"><title>NEDD9</title><a xlink:href="NEDD9.html"><ellipse cx="282" cy="39" rx="52" ry="24" style="fill:turquoise;stroke:turquoise;"/><text text-anchor="middle" x="282" y="46" style="font-family:Times New Roman;"><![CDATA[NEDD9]]></text></a></g><g id="edge6" class="edge"><title>NEDD9-&gt;TRIP6</title><path style="fill:none;stroke:#0000ff;" d="M266,67C258,81 249,94 241,107"/><polygon style="fill:#0000ff;stroke:#0000ff;" points="272,63 266,61 264,66 269,69 272,63"/><polygon style="fill:#0000ff;stroke:#0000ff;" points="235,111 241,114 243,109 238,106 235,111"/></g><g id="node8" class="node"><title>SRC</title><a xlink:href="SRC.html"><ellipse cx="394" cy="39" rx="36" ry="24" style="fill:turquoise;stroke:turquoise;"/><text text-anchor="middle" x="394" y="46" style="font-family:Times New Roman;"><![CDATA[SRC]]></text></a></g><g id="edge8" class="edge"><title>SRC-&gt;TRIP6</title><path style="fill:none;stroke:#0000ff;" d="M361,58C333,74 292,98 262,114"/><polygon style="fill:#0000ff;stroke:#0000ff;" points="368,58 365,53 360,55 362,61 368,58"/><polygon style="fill:#0000ff;stroke:#0000ff;" points="254,115 257,121 262,117 260,111 254,115"/></g></g></svg>