<?xml version="1.0" encoding="UTF-8" standalone="no"?><!DOCTYPE svg PUBLIC "-//W3C//DTD SVG 1.0//EN" "http://www.w3.org/TR/2001/REC-SVG-20010904/DTD/svg10.dtd" [ <!ATTLIST svg xmlns:xlink CDATA #FIXED "http://www.w3.org/1999/xlink">]><!-- Generated by WinGraphviz version ver1.02.23, 08/01/2003 (08/04/2003)     For user: Avi Ma'ayan   Title: G    Pages: 1 --><svg width="351px" height="180px" xmlns="http://www.w3.org/2000/svg" xmlns:xlink="http://www.w3.org/1999/xlink"><g id="graph0" class="graph" style="font-family:Times New Roman;font-size:18.67;"><title>G</title><g id="node1" class="node"><title>ITGA5</title><a xlink:href="ITGA5.html"><ellipse cx="53" cy="39" rx="46" ry="24" style="fill:turquoise;stroke:turquoise;"/><text text-anchor="middle" x="53" y="46" style="font-family:Times New Roman;"><![CDATA[ITGA5]]></text></a></g><g id="node2" class="node"><title>TSPAN1</title><a xlink:href="TSPAN1.html"><ellipse cx="167" cy="135" rx="53" ry="24" style="fill:turquoise;stroke:turquoise;"/><text text-anchor="middle" x="167" y="142" style="font-family:Times New Roman;"><![CDATA[TSPAN1]]></text></a></g><g id="edge2" class="edge"><title>ITGA5-&gt;TSPAN1</title><path style="fill:none;stroke:#0000ff;" d="M84,65C100,79 120,95 137,110"/><polygon style="fill:#0000ff;stroke:#0000ff;" points="81,58 77,63 82,67 86,62 81,58"/><polygon style="fill:#0000ff;stroke:#0000ff;" points="141,117 145,111 139,107 135,113 141,117"/></g><g id="node4" class="node"><title>ITGB1</title><a xlink:href="ITGB1.html"><ellipse cx="167" cy="39" rx="44" ry="24" style="fill:turquoise;stroke:turquoise;"/><text text-anchor="middle" x="167" y="46" style="font-family:Times New Roman;"><![CDATA[ITGB1]]></text></a></g><g id="edge4" class="edge"><title>ITGB1-&gt;TSPAN1</title><path style="fill:none;stroke:#0000ff;" d="M167,70C167,81 167,94 167,105"/><polygon style="fill:#0000ff;stroke:#0000ff;" points="171,63 165,63 165,70 171,70 171,63"/><polygon style="fill:#0000ff;stroke:#0000ff;" points="165,111 171,111 171,105 165,105 165,111"/></g><g id="node6" class="node"><title>PRKCA</title><a xlink:href="PRKCA.html"><ellipse cx="289" cy="39" rx="53" ry="24" style="fill:turquoise;stroke:turquoise;"/><text text-anchor="middle" x="289" y="46" style="font-family:Times New Roman;"><![CDATA[PRKCA]]></text></a></g><g id="edge6" class="edge"><title>PRKCA-&gt;TSPAN1</title><path style="fill:none;stroke:#0000ff;" d="M257,65C239,79 218,95 199,110"/><polygon style="fill:#0000ff;stroke:#0000ff;" points="265,63 261,58 255,62 260,67 265,63"/><polygon style="fill:#0000ff;stroke:#0000ff;" points="193,111 197,117 202,113 198,107 193,111"/></g></g></svg>