<?xml version="1.0" encoding="UTF-8" standalone="no"?><!DOCTYPE svg PUBLIC "-//W3C//DTD SVG 1.0//EN" "http://www.w3.org/TR/2001/REC-SVG-20010904/DTD/svg10.dtd" [ <!ATTLIST svg xmlns:xlink CDATA #FIXED "http://www.w3.org/1999/xlink">]><!-- Generated by WinGraphviz version ver1.02.23, 08/01/2003 (08/04/2003)     For user: Avi Ma'ayan   Title: G    Pages: 1 --><svg width="735px" height="176px" xmlns="http://www.w3.org/2000/svg" xmlns:xlink="http://www.w3.org/1999/xlink"><g id="graph0" class="graph" style="font-family:Times New Roman;font-size:18.26;"><title>G</title><g id="node1" class="node"><title>CBL</title><a xlink:href="CBL.html"><ellipse cx="41" cy="38" rx="35" ry="23" style="fill:turquoise;stroke:turquoise;"/><text text-anchor="middle" x="41" y="45" style="font-family:Times New Roman;"><![CDATA[CBL]]></text></a></g><g id="node2" class="node"><title>TUBA1</title><a xlink:href="TUBA1.html"><ellipse cx="360" cy="132" rx="48" ry="23" style="fill:turquoise;stroke:turquoise;"/><text text-anchor="middle" x="360" y="138" style="font-family:Times New Roman;"><![CDATA[TUBA1]]></text></a></g><g id="edge2" class="edge"><title>CBL-&gt;TUBA1</title><path style="fill:none;stroke:#0000ff;" d="M74,56C79,58 83,60 88,61 164,90 253,111 307,121"/><polygon style="fill:#0000ff;stroke:#0000ff;" points="70,51 67,56 73,59 75,54 70,51"/><polygon style="fill:#0000ff;stroke:#0000ff;" points="314,125 314,120 307,119 307,124 314,125"/></g><g id="node4" class="node"><title>DNM2</title><a xlink:href="DNM2.html"><ellipse cx="147" cy="38" rx="46" ry="23" style="fill:turquoise;stroke:turquoise;"/><text text-anchor="middle" x="147" y="45" style="font-family:Times New Roman;"><![CDATA[DNM2]]></text></a></g><g id="edge4" class="edge"><title>DNM2-&gt;TUBA1</title><path style="fill:none;stroke:#0000ff;" d="M187,56C224,73 279,98 317,114"/><polygon style="fill:#0000ff;stroke:#0000ff;" points="184,51 181,56 186,59 189,54 184,51"/><polygon style="fill:#0000ff;stroke:#0000ff;" points="322,119 324,114 318,111 315,116 322,119"/></g><g id="node6" class="node"><title>FYN</title><a xlink:href="FYN.html"><ellipse cx="255" cy="38" rx="37" ry="23" style="fill:turquoise;stroke:turquoise;"/><text text-anchor="middle" x="255" y="45" style="font-family:Times New Roman;"><![CDATA[FYN]]></text></a></g><g id="edge6" class="edge"><title>FYN-&gt;TUBA1</title><path style="fill:none;stroke:#0000ff;" d="M281,61C297,75 317,93 331,107"/><polygon style="fill:#0000ff;stroke:#0000ff;" points="280,55 275,60 280,65 285,60 280,55"/><polygon style="fill:#0000ff;stroke:#0000ff;" points="335,114 339,108 334,105 330,110 335,114"/></g><g id="node8" class="node"><title>GRB2</title><a xlink:href="GRB2.html"><ellipse cx="360" cy="38" rx="43" ry="23" style="fill:turquoise;stroke:turquoise;"/><text text-anchor="middle" x="360" y="45" style="font-family:Times New Roman;"><![CDATA[GRB2]]></text></a></g><g id="edge8" class="edge"><title>GRB2-&gt;TUBA1</title><path style="fill:none;stroke:#0000ff;" d="M360,68C360,78 360,91 360,102"/><polygon style="fill:#0000ff;stroke:#0000ff;" points="364,61 357,61 357,68 364,68 364,61"/><polygon style="fill:#0000ff;stroke:#0000ff;" points="357,108 364,108 364,102 357,102 357,108"/></g><g id="node10" class="node"><title>PXN</title><a xlink:href="PXN.html"><ellipse cx="464" cy="38" rx="37" ry="23" style="fill:turquoise;stroke:turquoise;"/><text text-anchor="middle" x="464" y="45" style="font-family:Times New Roman;"><![CDATA[PXN]]></text></a></g><g id="edge10" class="edge"><title>PXN-&gt;TUBA1</title><path style="fill:none;stroke:#0000ff;" d="M438,61C422,75 403,93 388,107"/><polygon style="fill:#0000ff;stroke:#0000ff;" points="444,60 439,55 434,60 439,65 444,60"/><polygon style="fill:#0000ff;stroke:#0000ff;" points="382,108 386,114 391,110 387,105 382,108"/></g><g id="node12" class="node"><title>PIK3CA</title><a xlink:href="PIK3CA.html"><ellipse cx="577" cy="38" rx="52" ry="23" style="fill:turquoise;stroke:turquoise;"/><text text-anchor="middle" x="577" y="45" style="font-family:Times New Roman;"><![CDATA[PIK3CA]]></text></a></g><g id="edge12" class="edge"><title>PIK3CA-&gt;TUBA1</title><path style="fill:none;stroke:#0000ff;" d="M534,58C497,73 441,98 403,114"/><polygon style="fill:#0000ff;stroke:#0000ff;" points="541,58 538,52 533,55 536,60 541,58"/><polygon style="fill:#0000ff;stroke:#0000ff;" points="395,114 397,119 404,116 401,111 395,114"/></g><g id="node14" class="node"><title>SYK</title><a xlink:href="SYK.html"><ellipse cx="690" cy="38" rx="36" ry="23" style="fill:turquoise;stroke:turquoise;"/><text text-anchor="middle" x="690" y="45" style="font-family:Times New Roman;"><![CDATA[SYK]]></text></a></g><g id="edge14" class="edge"><title>SYK-&gt;TUBA1</title><path style="fill:none;stroke:darkgreen;" d="M661,54C654,56 648,59 641,61 567,89 476,110 418,121"/><polygon style="fill:darkgreen;stroke:darkgreen;" points="418,124 405,124 417,119 418,124"/></g></g></svg>