<?xml version="1.0" encoding="UTF-8" standalone="no"?><!DOCTYPE svg PUBLIC "-//W3C//DTD SVG 1.0//EN" "http://www.w3.org/TR/2001/REC-SVG-20010904/DTD/svg10.dtd" [ <!ATTLIST svg xmlns:xlink CDATA #FIXED "http://www.w3.org/1999/xlink">]><!-- Generated by WinGraphviz version ver1.02.23, 08/01/2003 (08/04/2003)     For user: Avi Ma'ayan   Title: G    Pages: 1 --><!--="735px" height="176px" xmlns="http://www.w3.org/2000/svg" --><svg onload="init(evt)" width="735px" height="600px" xmlns="http://www.w3.org/2000/svg" xmlns:xlink="http://www.w3.org/1999/xlink">
<script type="text/ecmascript">
<![CDATA[
var svgDocument;
var zoomAmt;
var xOffset;
var yOffset;
var scale;
var maxScale;
var imageWidth;
var imageHeight;
function init(evt)
{
    svgDocument = evt.getTarget().getOwnerDocument();
    zoomAmt = 0;
    xOffset = 0;
    yOffset = 60;
    scale = 0.8;
    maxScale = 10;
    imageWidth = 742;
    imageHeight = 606;
    panRestore();
    //panUp();
}
function transformMap ()
{
    var obj = svgDocument.getElementById("Pathway");
    var centerX = imageWidth  / 2.0;
    var centerY = imageHeight / 2.0;
    var adjustX = (-centerX * (scale - 0.8)) + xOffset;
    var adjustY = (-centerY * (scale - 0.8)) + yOffset;
    var transParms = 'translate(' + adjustX + ',' + adjustY + ') ';
    transParms += 'scale(' + scale + ')';
    // alert(transParms);
    obj.setAttribute("transform", transParms); 
}
function click_node(id)
{
    var testx = parent.click_node;
    if (typeof(testx) == "function")
    {
		parent.click_node(id);
    }
}
function click_relation(id)
{
    var testx = parent.click_relation;
    if (typeof(testx) == "function")
    {
        parent.click_relation(id);
    }
}
function click_pathway(toId, fromId)
{
    var testx = parent.click_pathway;
    if (typeof(testx) == "function")
    {
	parent.click_pathway(toId, fromId);
    }
}
function check_interpath(evt, pathid)
{
  var obj = evt.getTarget();
  var testx = parent.is_frompath;
  var child = obj.firstChild;
  if (typeof(testx) == "function")
  {
    if (parent.is_frompath(pathid))
    {
      while (child != null)
      {
        if (child.nodeType == 1)
        {
          if ((child.localName == "g") || (child.localName == "polyline"))
          {
            child.setAttribute("style", "fill:none;stroke:red");
          }
          else if (child.localName == "polygon")
          {
            child.setAttribute("style", "fill:red;stroke:red");
          }
        }
        child = child.nextSibling;
      }
    }
  }
}
function set_status (msg)
{
 var obj = svgDocument.getElementById("status_text");
  var child;
 
  child = obj.firstChild;
  if ((child != null) && (child.nodeType == 3))
  {
    if ((msg != null) && (msg.length > 0))
    {
      child.data = msg;
    }
    else
    {
child.data = " ";
    }
  }
}
function zoomIn ()
{
    scale = scale + 0.8;
    if (scale > maxScale)
    {
       scale = maxScale;
    }
    transformMap();
    panUp();
    panUp();
    panUp();
    panUp();
    panUp();
    panUp();
    panUp();
    panUp();
    panUp();
    panUp();
    panUp();
    panUp();
}
function zoomOut ()
{
    scale = scale - 0.8;
    if (scale < 0.8)
    {
       scale = 0.8;
    }
    transformMap();
    panDown();
    panDown();
    panDown();
    panDown();
    panDown();
    panDown();
    panDown();
    panDown();
    panDown();
    panDown();
    panDown();
    panDown();
}
function panUp ()
{
    yOffset = yOffset + 20;
    transformMap();
}
function panDown ()
{
    yOffset = yOffset - 20;
    transformMap();
}
function panLeft ()
{
    xOffset = xOffset + 20;
    transformMap();
}
function panRight ()
{
    xOffset = xOffset - 20;
    transformMap();
}
function panRestore ()
{
    xOffset = 0;
    yOffset = 0;
    scale = 0.5;
    //obj = svgDocument.getElementById("zoom");
    //obj.setAttribute("x1", 0);
    //obj.setAttribute("x2", 0);
    transformMap();    
}
function doHighlight (evt, msg)
{
  var obj = evt.getTarget();
  obj.setAttribute("fill", "rgb(239,24,33)");
  set_status(msg);
}
function resetHighlight (evt)
{
  var obj = evt.getTarget();
  obj.setAttribute("fill", "rgb(99,154,206)");
  set_status(" ");
}
// ]]>
</script>
<defs>
<clipPath id="theClip">
<polygon points="1 61, 741 61, 741 665, 1 665"
style="fill: none;"/>
</clipPath>
</defs>
<!-- viewport outline -->
<rect x="0" y="61" width="742" height="606"
style="stroke: black; stroke-width: 1; fill: none;"/>
<!-- pathway graph style="clip-path: url(#theClip);" -->
<g style="clip-path: url(#theClip);">
<g id="Pathway"  transform="translate(0,60)">
<!-- prefile.include ends, begin pathway graph -->
<g id="stkecm;CMP_10705" class="graph">
</g>
<g id="graph0" class="graph" style="font-family:Times New Roman;font-size:11.53;"><title>G</title><g id="node1" class="node"><title>LASP1</title><a xlink:href="LASP1.html"><ellipse cx="34" cy="26" rx="28" ry="14" style="fill:turquoise;stroke:turquoise;"/><text text-anchor="middle" x="34" y="30" style="font-family:Times New Roman;"><![CDATA[LASP1]]></text></a></g><g id="node2" class="node"><title>VASP</title><a xlink:href="VASP.html"><ellipse cx="376" cy="85" rx="27" ry="14" style="fill:turquoise;stroke:turquoise;"/><text text-anchor="middle" x="376" y="89" style="font-family:Times New Roman;"><![CDATA[VASP]]></text></a></g><g id="edge2" class="edge"><title>LASP1-&gt;VASP</title><path style="fill:none;stroke:#0000ff;" d="M59,37C62,38 65,40 70,41 168,68 288,79 344,83"/><polygon style="fill:#0000ff;stroke:#0000ff;" points="56,34 55,37 58,39 60,36 56,34"/><polygon style="fill:#0000ff;stroke:#0000ff;" points="349,85 349,81 345,81 345,85 349,85"/></g><g id="node22" class="node"><title>ACTB</title><a xlink:href="ACTB.html"><ellipse cx="311" cy="144" rx="27" ry="14" style="fill:turquoise;stroke:turquoise;"/><text text-anchor="middle" x="311" y="149" style="font-family:Times New Roman;"><![CDATA[ACTB]]></text></a></g><g id="edge22" class="edge"><title>VASP-&gt;ACTB</title><path style="fill:none;stroke:#0000ff;" d="M359,101C350,110 338,121 328,130"/><polygon style="fill:#0000ff;stroke:#0000ff;" points="364,100 361,97 358,99 360,102 364,100"/><polygon style="fill:#0000ff;stroke:#0000ff;" points="324,130 327,134 330,131 327,128 324,130"/></g><g id="node24" class="node"><title>VCL</title><a xlink:href="VCL.html"><ellipse cx="376" cy="144" rx="23" ry="14" style="fill:turquoise;stroke:turquoise;"/><text text-anchor="middle" x="376" y="149" style="font-family:Times New Roman;"><![CDATA[VCL]]></text></a></g><g id="edge24" class="edge"><title>VASP-&gt;VCL</title><path style="fill:none;stroke:#0000ff;" d="M376,104C376,111 376,119 376,125"/><polygon style="fill:#0000ff;stroke:#0000ff;" points="379,100 374,100 374,104 379,104 379,100"/><polygon style="fill:#0000ff;stroke:#0000ff;" points="374,130 379,130 379,125 374,125 374,130"/></g><g id="node26" class="node"><title>ZYX</title><a xlink:href="ZYX.html"><ellipse cx="438" cy="144" rx="23" ry="14" style="fill:turquoise;stroke:turquoise;"/><text text-anchor="middle" x="438" y="149" style="font-family:Times New Roman;"><![CDATA[ZYX]]></text></a></g><g id="edge26" class="edge"><title>VASP-&gt;ZYX</title><path style="fill:none;stroke:#0000ff;" d="M393,101C402,110 413,121 422,130"/><polygon style="fill:#0000ff;stroke:#0000ff;" points="392,97 389,100 393,102 395,99 392,97"/><polygon style="fill:#0000ff;stroke:#0000ff;" points="423,134 426,130 423,127 420,130 423,134"/></g><g id="node4" class="node"><title>LPP</title><a xlink:href="LPP.html"><ellipse cx="99" cy="26" rx="22" ry="14" style="fill:turquoise;stroke:turquoise;"/><text text-anchor="middle" x="99" y="30" style="font-family:Times New Roman;"><![CDATA[LPP]]></text></a></g><g id="edge4" class="edge"><title>LPP-&gt;VASP</title><path style="fill:none;stroke:#0000ff;" d="M120,37C123,38 126,40 129,41 204,65 297,78 345,82"/><polygon style="fill:#0000ff;stroke:#0000ff;" points="117,34 116,37 119,39 121,36 117,34"/><polygon style="fill:#0000ff;stroke:#0000ff;" points="349,84 349,81 345,80 345,83 349,84"/></g><g id="node6" class="node"><title>FBLIM1</title><a xlink:href="FBLIM1.html"><ellipse cx="168" cy="26" rx="32" ry="14" style="fill:turquoise;stroke:turquoise;"/><text text-anchor="middle" x="168" y="30" style="font-family:Times New Roman;"><![CDATA[FBLIM1]]></text></a></g><g id="edge6" class="edge"><title>FBLIM1-&gt;VASP</title><path style="fill:none;stroke:#0000ff;" d="M196,36C201,38 204,39 208,41 257,56 313,71 346,79"/><polygon style="fill:#0000ff;stroke:#0000ff;" points="194,34 192,37 196,38 198,35 194,34"/><polygon style="fill:#0000ff;stroke:#0000ff;" points="351,81 351,78 346,77 346,80 351,81"/></g><g id="node8" class="node"><title>PALLD</title><a xlink:href="PALLD.html"><ellipse cx="248" cy="26" rx="32" ry="14" style="fill:turquoise;stroke:turquoise;"/><text text-anchor="middle" x="248" y="30" style="font-family:Times New Roman;"><![CDATA[PALLD]]></text></a></g><g id="edge8" class="edge"><title>PALLD-&gt;VASP</title><path style="fill:none;stroke:#0000ff;" d="M274,38C296,49 329,65 351,74"/><polygon style="fill:#0000ff;stroke:#0000ff;" points="271,35 270,38 273,40 275,36 271,35"/><polygon style="fill:#0000ff;stroke:#0000ff;" points="355,77 356,74 352,72 351,75 355,77"/></g><g id="node10" class="node"><title>PRKACA</title><a xlink:href="PRKACA.html"><ellipse cx="333" cy="26" rx="38" ry="14" style="fill:turquoise;stroke:turquoise;"/><text text-anchor="middle" x="333" y="30" style="font-family:Times New Roman;"><![CDATA[PRKACA]]></text></a></g><g id="edge10" class="edge"><title>PRKACA-&gt;VASP</title><path style="fill:none;stroke:darkgreen;" d="M344,40C349,47 355,56 361,65"/><polygon style="fill:darkgreen;stroke:darkgreen;" points="363,63 366,71 360,65 363,63"/></g><g id="node12" class="node"><title>PRKCA</title><a xlink:href="PRKCA.html"><ellipse cx="420" cy="26" rx="32" ry="14" style="fill:turquoise;stroke:turquoise;"/><text text-anchor="middle" x="420" y="30" style="font-family:Times New Roman;"><![CDATA[PRKCA]]></text></a></g><g id="edge12" class="edge"><title>PRKCA-&gt;VASP</title><path style="fill:none;stroke:darkgreen;" d="M409,40C404,47 397,56 391,65"/><polygon style="fill:darkgreen;stroke:darkgreen;" points="393,65 387,71 389,63 393,65"/></g><g id="node14" class="node"><title>PPP2CA</title><a xlink:href="PPP2CA.html"><ellipse cx="501" cy="26" rx="33" ry="14" style="fill:turquoise;stroke:turquoise;"/><text text-anchor="middle" x="501" y="30" style="font-family:Times New Roman;"><![CDATA[PPP2CA]]></text></a></g><g id="edge14" class="edge"><title>PPP2CA-&gt;VASP</title><path style="fill:none;stroke:#ff0000;" d="M478,36C458,46 429,60 407,70"/><polyline style="fill:none;stroke:#ff0000;" points="405,65 411,75 "/></g><g id="node16" class="node"><title>PFN1</title><a xlink:href="PFN1.html"><ellipse cx="574" cy="26" rx="23" ry="14" style="fill:turquoise;stroke:turquoise;"/><text text-anchor="middle" x="574" y="30" style="font-family:Times New Roman;"><![CDATA[PFN1]]></text></a></g><g id="edge16" class="edge"><title>PFN1-&gt;VASP</title><path style="fill:none;stroke:#0000ff;" d="M552,36C549,38 546,39 542,41 496,58 439,72 406,79"/><polygon style="fill:#0000ff;stroke:#0000ff;" points="556,37 555,34 551,35 552,38 556,37"/><polygon style="fill:#0000ff;stroke:#0000ff;" points="402,79 402,82 406,81 406,78 402,79"/></g><g id="node18" class="node"><title>TES</title><a xlink:href="TES.html"><ellipse cx="635" cy="26" rx="22" ry="14" style="fill:turquoise;stroke:turquoise;"/><text text-anchor="middle" x="635" y="30" style="font-family:Times New Roman;"><![CDATA[TES]]></text></a></g><g id="edge18" class="edge"><title>TES-&gt;VASP</title><path style="fill:none;stroke:#0000ff;" d="M614,37C611,38 608,40 605,41 537,65 452,77 408,82"/><polygon style="fill:#0000ff;stroke:#0000ff;" points="618,37 617,34 613,36 615,39 618,37"/><polygon style="fill:#0000ff;stroke:#0000ff;" points="403,81 403,84 407,83 407,80 403,81"/></g><g id="node20" class="node"><title>TRIP6</title><a xlink:href="TRIP6.html"><ellipse cx="699" cy="26" rx="27" ry="14" style="fill:turquoise;stroke:turquoise;"/><text text-anchor="middle" x="699" y="30" style="font-family:Times New Roman;"><![CDATA[TRIP6]]></text></a></g><g id="edge20" class="edge"><title>TRIP6-&gt;VASP</title><path style="fill:none;stroke:#0000ff;" d="M675,37C672,38 669,40 664,41 573,67 461,79 407,83"/><polygon style="fill:#0000ff;stroke:#0000ff;" points="679,37 678,34 674,36 676,39 679,37"/><polygon style="fill:#0000ff;stroke:#0000ff;" points="403,81 403,85 407,85 407,81 403,81"/></g></g></g></g>
<!-- navigation controls -->
<g id="navbox">
	<rect x="0" y="0" width="742" height="60"
		 style="fill:rgb(206,207,206);stroke:rgb(0,0,0);stroke-width:1"/>

	<polygon id="pan_right"
        onmouseup="panRight()"
        onmouseover="doHighlight(evt, 'Click to pan to the right')"
        onmouseout="resetHighlight(evt)"
		points="28.0732,13 32,20.5 28.0732,28 28.0732,23.4412 25,23.4412 25,17.4118 28.0732,17.4118"
		 transform="matrix(3.39111 0 0 2.98838 -12.6265 -29.7101)"
         fill="rgb(99,154,206)"
		 style="stroke:rgb(0,0,0);stroke-width:0.5"/>
	<polygon id="pan_left"
        onmouseup="panLeft()"
        onmouseover="doHighlight(evt, 'Click to pan to the left')"
        onmouseout="resetHighlight(evt)"
		points="123.991,25 120.064,32.5 123.991,40 123.991,35.4412 127.064,35.4412 127.064,29.4118
			123.991,29.4118" transform="matrix(3.39111 0 0 2.98838 -404.865 -65.5706)"
         fill="rgb(99,154,206)"
		 style="stroke:rgb(0,0,0);stroke-width:0.5"/>
	<polygon id="pan_down"
        onmouseup="panDown()"
        onmouseover="doHighlight(evt, 'Click to pan down')"
        onmouseout="resetHighlight(evt)"
		points="116.032,32.0408 123.532,35.9678 131.032,32.0408 126.473,32.0408 126.473,28.9678 120.444,28.9678
			120.444,32.0408" transform="matrix(3.39111 0 0 2.98838 -369.822 -50.6287)"
         fill="rgb(99,154,206)"
		 style="stroke:rgb(0,0,0);stroke-width:0.5"/>
	<polygon id="pan_up"
        onmouseup="panUp()"
  onmouseover="doHighlight(evt, 'Click to pan up')"
        onmouseout="resetHighlight(evt)"
		points="116.032,32.0408 123.532,35.9678 131.032,32.0408 126.473,32.0408 126.473,28.9678 120.444,28.9678
			120.444,32.0408" transform="matrix(3.39111 0 0 -2.98838 -369.823 111.74)"
         fill="rgb(99,154,206)"
		 style="stroke:rgb(0,0,0);stroke-width:0.5"/>
	<g id="go_home" 
         onmouseup="panRestore()" 
         onmouseover="doHighlight(evt, 'Click to restore graph to original position')"
         onmouseout="resetHighlight(evt)"
         fill="rgb(99,154,206)"
         transform="matrix(1 0 0 1 0 -0.333333)">
		<rect x="196" y="11" width="26" height="26"
			transform="translate(-19.1111 -2.66667)"
			 style="stroke:rgb(0,0,0);stroke-width:1"/>
		<line x1="182" y1="16" x2="182" y2="28"
			transform="matrix(1 0 0 1 2.22222 0.444444)"
			 style="fill:none;stroke:rgb(0,0,0);stroke-width:2"/>
		<line x1="187" y1="22" x2="187" y2="28"
			transform="matrix(1 0 0 1 2.22222 0.444444)"
			 style="fill:none;stroke:rgb(0,0,0);stroke-width:2"/>
	<line x1="192" y1="13" x2="192" y2="28"
			transform="matrix(1 0 0 1 2.22222 0.444444)"
			 style="fill:none;stroke:rgb(0,0,0);stroke-width:2"/>
		<line x1="182" y1="28" x2="192" y2="28"
			transform="matrix(1 0 0 1 2.22222 0.444444)"
	style="fill:none;stroke:rgb(0,0,0);stroke-width:2"/>
		<line x1="189" y1="12" x2="179" y2="21"
			 style="fill:none;stroke:rgb(0,0,0);stroke-width:2"/>
		<line x1="188" y1="12" x2="199" y2="20"
			 style="fill:none;stroke:rgb(0,0,0);stroke-width:2"/>
	</g>
	<g id="zoom_out" onmouseup="zoomOut()" 
             onmouseover="doHighlight(evt, 'Click to zoom out')"
             onmouseout="resetHighlight(evt)"
             fill="rgb(99,154,206)"
             transform="matrix(1 0 0 1 0 0)">
		<rect x="116" y="8" width="26" height="26"
			 style="stroke:rgb(0,0,0);stroke-width:1"/>
		<ellipse cx="126" cy="18" rx="6" ry="6"
			 style="stroke:rgb(0,0,0);stroke-width:1"/>
		<line x1="130" y1="23" x2="137" y2="29"
			transform="matrix(1 0 0 1 0.888889 -0.888889)"
			 style="fill:none;stroke:rgb(0,0,0);stroke-width:2"/>
		<line x1="123" y1="18" x2="129" y2="18"
			 style="fill:none;stroke:rgb(0,0,0);stroke-width:2"/>
	</g>
	<g id="zoom_in" onmouseup="zoomIn()" 
             onmouseover="doHighlight(evt, 'Click to zoom in')"
             onmouseout="resetHighlight(evt)"
             fill="rgb(99,154,206)"
             transform="matrix(1 0 0 1 0.888889 -0.444444)">
		<rect x="116" y="8" width="26" height="26"
			transform="matrix(1 0 0 1 29.7778 0.444444)"
			 style="stroke:rgb(0,0,0);stroke-width:1"/>
		<ellipse cx="126" cy="18" rx="6" ry="6"
			transform="matrix(1 0 0 1 29.7778 0.444444)"
			 style="stroke:rgb(0,0,0);stroke-width:1"/>
		<line x1="130" y1="23" x2="137" y2="29"
			transform="matrix(1 0 0 1 30.6667 -0.444445)"
		style="fill:none;stroke:rgb(0,0,0);stroke-width:2"/>
		<line x1="123" y1="18" x2="129" y2="18"
			transform="matrix(1 0 0 1 29.7778 0.444444)"
			 style="fill:none;stroke:rgb(0,0,0);stroke-width:2"/>
		<line x1="156" y1="15" x2="156" y2="22"
			 style="fill:none;stroke:rgb(0,0,0);stroke-width:2"/>
	</g>
	<g>
		<rect x="117" y="40" width="452" height="14"
			transform="matrix(1.54201 0 0 1 -64.1436 -0.222222)"
			 style="fill:rgb(192,192,192);stroke:rgb(0,0,0);stroke-width:1"/>
		<text id="status_text" x="183px" y="48px"
			transform="matrix(1 0 0 1 -63.5556 3.00778)"
			 style="fill:rgb(0,0,0);font-size:14;font-family:Arial"> </text>
	</g>
</g>	
</svg>