<?xml version="1.0" encoding="UTF-8" standalone="no"?><!DOCTYPE svg PUBLIC "-//W3C//DTD SVG 1.0//EN" "http://www.w3.org/TR/2001/REC-SVG-20010904/DTD/svg10.dtd" [ <!ATTLIST svg xmlns:xlink CDATA #FIXED "http://www.w3.org/1999/xlink">]><!-- Generated by WinGraphviz version ver1.02.23, 08/01/2003 (08/04/2003)     For user: Avi Ma'ayan   Title: G    Pages: 1 --><!--="735px" height="135px" xmlns="http://www.w3.org/2000/svg" --><svg onload="init(evt)" width="735px" height="600px" xmlns="http://www.w3.org/2000/svg" xmlns:xlink="http://www.w3.org/1999/xlink">
<script type="text/ecmascript">
<![CDATA[
var svgDocument;
var zoomAmt;
var xOffset;
var yOffset;
var scale;
var maxScale;
var imageWidth;
var imageHeight;
function init(evt)
{
    svgDocument = evt.getTarget().getOwnerDocument();
    zoomAmt = 0;
    xOffset = 0;
    yOffset = 60;
    scale = 0.8;
    maxScale = 10;
    imageWidth = 742;
    imageHeight = 606;
    panRestore();
    //panUp();
}
function transformMap ()
{
    var obj = svgDocument.getElementById("Pathway");
    var centerX = imageWidth  / 2.0;
    var centerY = imageHeight / 2.0;
    var adjustX = (-centerX * (scale - 0.8)) + xOffset;
    var adjustY = (-centerY * (scale - 0.8)) + yOffset;
    var transParms = 'translate(' + adjustX + ',' + adjustY + ') ';
    transParms += 'scale(' + scale + ')';
    // alert(transParms);
    obj.setAttribute("transform", transParms); 
}
function click_node(id)
{
    var testx = parent.click_node;
    if (typeof(testx) == "function")
    {
		parent.click_node(id);
    }
}
function click_relation(id)
{
    var testx = parent.click_relation;
    if (typeof(testx) == "function")
    {
        parent.click_relation(id);
    }
}
function click_pathway(toId, fromId)
{
    var testx = parent.click_pathway;
    if (typeof(testx) == "function")
    {
	parent.click_pathway(toId, fromId);
    }
}
function check_interpath(evt, pathid)
{
  var obj = evt.getTarget();
  var testx = parent.is_frompath;
  var child = obj.firstChild;
  if (typeof(testx) == "function")
  {
    if (parent.is_frompath(pathid))
    {
      while (child != null)
      {
        if (child.nodeType == 1)
        {
          if ((child.localName == "g") || (child.localName == "polyline"))
          {
            child.setAttribute("style", "fill:none;stroke:red");
          }
          else if (child.localName == "polygon")
          {
            child.setAttribute("style", "fill:red;stroke:red");
          }
        }
        child = child.nextSibling;
      }
    }
  }
}
function set_status (msg)
{
 var obj = svgDocument.getElementById("status_text");
  var child;
 
  child = obj.firstChild;
  if ((child != null) && (child.nodeType == 3))
  {
    if ((msg != null) && (msg.length > 0))
    {
      child.data = msg;
    }
    else
    {
child.data = " ";
    }
  }
}
function zoomIn ()
{
    scale = scale + 0.8;
    if (scale > maxScale)
    {
       scale = maxScale;
    }
    transformMap();
    panUp();
    panUp();
    panUp();
    panUp();
    panUp();
    panUp();
    panUp();
    panUp();
    panUp();
    panUp();
    panUp();
    panUp();
}
function zoomOut ()
{
    scale = scale - 0.8;
    if (scale < 0.8)
    {
       scale = 0.8;
    }
    transformMap();
    panDown();
    panDown();
    panDown();
    panDown();
    panDown();
    panDown();
    panDown();
    panDown();
    panDown();
    panDown();
    panDown();
    panDown();
}
function panUp ()
{
    yOffset = yOffset + 20;
    transformMap();
}
function panDown ()
{
    yOffset = yOffset - 20;
    transformMap();
}
function panLeft ()
{
    xOffset = xOffset + 20;
    transformMap();
}
function panRight ()
{
    xOffset = xOffset - 20;
    transformMap();
}
function panRestore ()
{
    xOffset = 0;
    yOffset = 0;
    scale = 0.5;
    //obj = svgDocument.getElementById("zoom");
    //obj.setAttribute("x1", 0);
    //obj.setAttribute("x2", 0);
    transformMap();    
}
function doHighlight (evt, msg)
{
  var obj = evt.getTarget();
  obj.setAttribute("fill", "rgb(239,24,33)");
  set_status(msg);
}
function resetHighlight (evt)
{
  var obj = evt.getTarget();
  obj.setAttribute("fill", "rgb(99,154,206)");
  set_status(" ");
}
// ]]>
</script>
<defs>
<clipPath id="theClip">
<polygon points="1 61, 741 61, 741 665, 1 665"
style="fill: none;"/>
</clipPath>
</defs>
<!-- viewport outline -->
<rect x="0" y="61" width="742" height="606"
style="stroke: black; stroke-width: 1; fill: none;"/>
<!-- pathway graph style="clip-path: url(#theClip);" -->
<g style="clip-path: url(#theClip);">
<g id="Pathway"  transform="translate(0,60)">
<!-- prefile.include ends, begin pathway graph -->
<g id="stkecm;CMP_10705" class="graph">
</g>
<g id="graph0" class="graph" style="font-family:Times New Roman;font-size:8.63;"><title>G</title><g id="node1" class="node"><title>CBL</title><a xlink:href="CBL.html"><ellipse cx="23" cy="20" rx="16" ry="11" style="fill:turquoise;stroke:turquoise;"/><text text-anchor="middle" x="23" y="23" style="font-family:Times New Roman;"><![CDATA[CBL]]></text></a></g><g id="node2" class="node"><title>VAV1</title><a xlink:href="VAV1.html"><ellipse cx="356" cy="64" rx="20" ry="11" style="fill:turquoise;stroke:turquoise;"/><text text-anchor="middle" x="356" y="68" style="font-family:Times New Roman;"><![CDATA[VAV1]]></text></a></g><g id="edge2" class="edge"><title>CBL-&gt;VAV1</title><path style="fill:none;stroke:#ff0000;" d="M35,27C38,29 42,30 45,31 98,47 260,58 327,63"/><polyline style="fill:none;stroke:#ff0000;" points="327,67 327,58 "/></g><g id="node30" class="node"><title>HRAS</title><a xlink:href="HRAS.html"><ellipse cx="279" cy="109" rx="20" ry="11" style="fill:turquoise;stroke:turquoise;"/><text text-anchor="middle" x="279" y="112" style="font-family:Times New Roman;"><![CDATA[HRAS]]></text></a></g><g id="edge30" class="edge"><title>VAV1-&gt;HRAS</title><path style="fill:none;stroke:darkgreen;" d="M342,72C330,80 312,90 298,98"/><polygon style="fill:darkgreen;stroke:darkgreen;" points="300,100 293,101 298,96 300,100"/></g><g id="node32" class="node"><title>RAC1</title><a xlink:href="RAC1.html"><ellipse cx="330" cy="109" rx="19" ry="11" style="fill:turquoise;stroke:turquoise;"/><text text-anchor="middle" x="330" y="112" style="font-family:Times New Roman;"><![CDATA[RAC1]]></text></a></g><g id="edge32" class="edge"><title>VAV1-&gt;RAC1</title><path style="fill:none;stroke:darkgreen;" d="M350,75C347,80 343,87 340,93"/><polygon style="fill:darkgreen;stroke:darkgreen;" points="341,94 337,98 338,92 341,94"/></g><g id="node34" class="node"><title>RHOA</title><a xlink:href="RHOA.html"><ellipse cx="383" cy="109" rx="22" ry="11" style="fill:turquoise;stroke:turquoise;"/><text text-anchor="middle" x="383" y="112" style="font-family:Times New Roman;"><![CDATA[RHOA]]></text></a></g><g id="edge34" class="edge"><title>VAV1-&gt;RHOA</title><path style="fill:none;stroke:darkgreen;" d="M362,75C366,80 370,87 373,93"/><polygon style="fill:darkgreen;stroke:darkgreen;" points="374,92 376,98 372,94 374,92"/></g><g id="node36" class="node"><title>ZYX</title><a xlink:href="ZYX.html"><ellipse cx="434" cy="109" rx="17" ry="11" style="fill:turquoise;stroke:turquoise;"/><text text-anchor="middle" x="434" y="112" style="font-family:Times New Roman;"><![CDATA[ZYX]]></text></a></g><g id="edge36" class="edge"><title>VAV1-&gt;ZYX</title><path style="fill:none;stroke:#0000ff;" d="M374,74C387,82 406,93 419,100"/><polygon style="fill:#0000ff;stroke:#0000ff;" points="371,71 370,74 372,76 374,73 371,71"/><polygon style="fill:#0000ff;stroke:#0000ff;" points="420,103 422,100 419,99 418,101 420,103"/></g><g id="node4" class="node"><title>CRK</title><a xlink:href="CRK.html"><ellipse cx="68" cy="20" rx="17" ry="11" style="fill:turquoise;stroke:turquoise;"/><text text-anchor="middle" x="68" y="23" style="font-family:Times New Roman;"><![CDATA[CRK]]></text></a></g><g id="edge4" class="edge"><title>CRK-&gt;VAV1</title><path style="fill:none;stroke:#0000ff;" d="M84,28C87,29 89,30 92,31 178,56 285,63 332,64"/><polygon style="fill:#0000ff;stroke:#0000ff;" points="83,26 81,29 84,29 86,27 83,26"/><polygon style="fill:#0000ff;stroke:#0000ff;" points="336,65 336,62 333,62 333,65 336,65"/></g><g id="node6" class="node"><title>DNM2</title><a xlink:href="DNM2.html"><ellipse cx="120" cy="20" rx="22" ry="11" style="fill:turquoise;stroke:turquoise;"/><text text-anchor="middle" x="120" y="23" style="font-family:Times New Roman;"><![CDATA[DNM2]]></text></a></g><g id="edge6" class="edge"><title>DNM2-&gt;VAV1</title><path style="fill:none;stroke:#0000ff;" d="M139,28C142,29 144,31 147,31 214,50 293,59 332,62"/><polygon style="fill:#0000ff;stroke:#0000ff;" points="137,26 136,29 139,29 140,27 137,26"/><polygon style="fill:#0000ff;stroke:#0000ff;" points="336,64 336,61 333,61 333,63 336,64"/></g><g id="node8" class="node"><title>MAPK1</title><a xlink:href="MAPK1.html"><ellipse cx="177" cy="20" rx="24" ry="11" style="fill:turquoise;stroke:turquoise;"/><text text-anchor="middle" x="177" y="23" style="font-family:Times New Roman;"><![CDATA[MAPK1]]></text></a></g><g id="edge8" class="edge"><title>MAPK1-&gt;VAV1</title><path style="fill:none;stroke:darkgreen;" d="M195,27C199,29 203,30 207,31 250,44 301,55 330,59"/><polygon style="fill:darkgreen;stroke:darkgreen;" points="331,58 337,61 330,61 331,58"/></g><g id="node10" class="node"><title>FYN</title><a xlink:href="FYN.html"><ellipse cx="230" cy="20" rx="17" ry="11" style="fill:turquoise;stroke:turquoise;"/><text text-anchor="middle" x="230" y="23" style="font-family:Times New Roman;"><![CDATA[FYN]]></text></a></g><g id="edge10" class="edge"><title>FYN-&gt;VAV1</title><path style="fill:none;stroke:darkgreen;" d="M243,27C247,29 250,30 253,31 280,42 311,51 332,58"/><polygon style="fill:darkgreen;stroke:darkgreen;" points="332,56 338,59 332,59 332,56"/></g><g id="node12" class="node"><title>GRB2</title><a xlink:href="GRB2.html"><ellipse cx="279" cy="20" rx="20" ry="11" style="fill:turquoise;stroke:turquoise;"/><text text-anchor="middle" x="279" y="23" style="font-family:Times New Roman;"><![CDATA[GRB2]]></text></a></g><g id="edge12" class="edge"><title>GRB2-&gt;VAV1</title><path style="fill:none;stroke:#0000ff;" d="M296,29C308,37 326,47 339,55"/><polygon style="fill:#0000ff;stroke:#0000ff;" points="294,27 293,29 295,31 297,28 294,27"/><polygon style="fill:#0000ff;stroke:#0000ff;" points="342,58 343,55 340,53 339,56 342,58"/></g><g id="node14" class="node"><title>INSR</title><a xlink:href="INSR.html"><ellipse cx="329" cy="20" rx="18" ry="11" style="fill:turquoise;stroke:turquoise;"/><text text-anchor="middle" x="329" y="23" style="font-family:Times New Roman;"><![CDATA[INSR]]></text></a></g><g id="edge14" class="edge"><title>INSR-&gt;VAV1</title><path style="fill:none;stroke:darkgreen;" d="M335,31C338,36 343,42 346,49"/><polygon style="fill:darkgreen;stroke:darkgreen;" points="348,48 350,54 345,50 348,48"/></g><g id="node16" class="node"><title>PIK3CA</title><a xlink:href="PIK3CA.html"><ellipse cx="383" cy="20" rx="24" ry="11" style="fill:turquoise;stroke:turquoise;"/><text text-anchor="middle" x="383" y="23" style="font-family:Times New Roman;"><![CDATA[PIK3CA]]></text></a></g><g id="edge16" class="edge"><title>PIK3CA-&gt;VAV1</title><path style="fill:none;stroke:darkgreen;" d="M377,31C374,36 369,43 366,49"/><polygon style="fill:darkgreen;stroke:darkgreen;" points="367,50 362,54 364,48 367,50"/></g><g id="node18" class="node"><title>PLCG1</title><a xlink:href="PLCG1.html"><ellipse cx="441" cy="20" rx="21" ry="11" style="fill:turquoise;stroke:turquoise;"/><text text-anchor="middle" x="441" y="23" style="font-family:Times New Roman;"><![CDATA[PLCG1]]></text></a></g><g id="edge18" class="edge"><title>PLCG1-&gt;VAV1</title><path style="fill:none;stroke:#0000ff;" d="M423,29C409,37 389,48 374,55"/><polygon style="fill:#0000ff;stroke:#0000ff;" points="427,29 425,27 423,28 424,31 427,29"/><polygon style="fill:#0000ff;stroke:#0000ff;" points="370,55 372,58 375,56 374,54 370,55"/></g><g id="node20" class="node"><title>PTPN12</title><a xlink:href="PTPN12.html"><ellipse cx="497" cy="20" rx="24" ry="11" style="fill:turquoise;stroke:turquoise;"/><text text-anchor="middle" x="497" y="23" style="font-family:Times New Roman;"><![CDATA[PTPN12]]></text></a></g><g id="edge20" class="edge"><title>PTPN12-&gt;VAV1</title><path style="fill:none;stroke:#ff0000;" d="M479,27C475,29 472,30 468,31 438,41 404,51 382,58"/><polyline style="fill:none;stroke:#ff0000;" points="382,53 385,61 "/></g><g id="node22" class="node"><title>PTK2B</title><a xlink:href="PTK2B.html"><ellipse cx="555" cy="20" rx="22" ry="11" style="fill:turquoise;stroke:turquoise;"/><text text-anchor="middle" x="555" y="23" style="font-family:Times New Roman;"><![CDATA[PTK2B]]></text></a></g><g id="edge22" class="edge"><title>PTK2B-&gt;VAV1</title><path style="fill:none;stroke:#0000ff;" d="M536,28C533,29 530,30 527,31 475,46 412,56 380,61"/><polygon style="fill:#0000ff;stroke:#0000ff;" points="539,29 538,26 534,27 536,29 539,29"/><polygon style="fill:#0000ff;stroke:#0000ff;" points="376,61 376,63 379,63 379,60 376,61"/></g><g id="node24" class="node"><title>SHC1</title><a xlink:href="SHC1.html"><ellipse cx="607" cy="20" rx="17" ry="11" style="fill:turquoise;stroke:turquoise;"/><text text-anchor="middle" x="607" y="23" style="font-family:Times New Roman;"><![CDATA[SHC1]]></text></a></g><g id="edge24" class="edge"><title>SHC1-&gt;VAV1</title><path style="fill:none;stroke:#0000ff;" d="M591,28C589,29 586,30 584,31 511,53 422,61 380,64"/><polygon style="fill:#0000ff;stroke:#0000ff;" points="594,29 593,26 590,27 591,29 594,29"/><polygon style="fill:#0000ff;stroke:#0000ff;" points="377,62 377,65 380,65 380,62 377,62"/></g><g id="node26" class="node"><title>PTPN6</title><a xlink:href="PTPN6.html"><ellipse cx="658" cy="20" rx="22" ry="11" style="fill:turquoise;stroke:turquoise;"/><text text-anchor="middle" x="658" y="23" style="font-family:Times New Roman;"><![CDATA[PTPN6]]></text></a></g><g id="edge26" class="edge"><title>PTPN6-&gt;VAV1</title><path style="fill:none;stroke:#0000ff;" d="M639,28C636,29 634,31 631,31 540,55 428,61 380,64"/><polygon style="fill:#0000ff;stroke:#0000ff;" points="642,29 641,26 638,27 639,29 642,29"/><polygon style="fill:#0000ff;stroke:#0000ff;" points="377,62 377,65 380,65 380,62 377,62"/></g><g id="node28" class="node"><title>SYK</title><a xlink:href="SYK.html"><ellipse cx="709" cy="20" rx="17" ry="11" style="fill:turquoise;stroke:turquoise;"/><text text-anchor="middle" x="709" y="23" style="font-family:Times New Roman;"><![CDATA[SYK]]></text></a></g><g id="edge28" class="edge"><title>SYK-&gt;VAV1</title><path style="fill:none;stroke:darkgreen;" d="M696,27C693,29 689,31 686,31 629,47 451,59 383,63"/><polygon style="fill:darkgreen;stroke:darkgreen;" points="383,64 377,63 383,61 383,64"/></g></g></g></g>
<!-- navigation controls -->
<g id="navbox">
	<rect x="0" y="0" width="742" height="60"
		 style="fill:rgb(206,207,206);stroke:rgb(0,0,0);stroke-width:1"/>

	<polygon id="pan_right"
        onmouseup="panRight()"
        onmouseover="doHighlight(evt, 'Click to pan to the right')"
        onmouseout="resetHighlight(evt)"
		points="28.0732,13 32,20.5 28.0732,28 28.0732,23.4412 25,23.4412 25,17.4118 28.0732,17.4118"
		 transform="matrix(3.39111 0 0 2.98838 -12.6265 -29.7101)"
         fill="rgb(99,154,206)"
		 style="stroke:rgb(0,0,0);stroke-width:0.5"/>
	<polygon id="pan_left"
        onmouseup="panLeft()"
        onmouseover="doHighlight(evt, 'Click to pan to the left')"
        onmouseout="resetHighlight(evt)"
		points="123.991,25 120.064,32.5 123.991,40 123.991,35.4412 127.064,35.4412 127.064,29.4118
			123.991,29.4118" transform="matrix(3.39111 0 0 2.98838 -404.865 -65.5706)"
         fill="rgb(99,154,206)"
		 style="stroke:rgb(0,0,0);stroke-width:0.5"/>
	<polygon id="pan_down"
        onmouseup="panDown()"
        onmouseover="doHighlight(evt, 'Click to pan down')"
        onmouseout="resetHighlight(evt)"
		points="116.032,32.0408 123.532,35.9678 131.032,32.0408 126.473,32.0408 126.473,28.9678 120.444,28.9678
			120.444,32.0408" transform="matrix(3.39111 0 0 2.98838 -369.822 -50.6287)"
         fill="rgb(99,154,206)"
		 style="stroke:rgb(0,0,0);stroke-width:0.5"/>
	<polygon id="pan_up"
        onmouseup="panUp()"
  onmouseover="doHighlight(evt, 'Click to pan up')"
        onmouseout="resetHighlight(evt)"
		points="116.032,32.0408 123.532,35.9678 131.032,32.0408 126.473,32.0408 126.473,28.9678 120.444,28.9678
			120.444,32.0408" transform="matrix(3.39111 0 0 -2.98838 -369.823 111.74)"
         fill="rgb(99,154,206)"
		 style="stroke:rgb(0,0,0);stroke-width:0.5"/>
	<g id="go_home" 
         onmouseup="panRestore()" 
         onmouseover="doHighlight(evt, 'Click to restore graph to original position')"
         onmouseout="resetHighlight(evt)"
         fill="rgb(99,154,206)"
         transform="matrix(1 0 0 1 0 -0.333333)">
		<rect x="196" y="11" width="26" height="26"
			transform="translate(-19.1111 -2.66667)"
			 style="stroke:rgb(0,0,0);stroke-width:1"/>
		<line x1="182" y1="16" x2="182" y2="28"
			transform="matrix(1 0 0 1 2.22222 0.444444)"
			 style="fill:none;stroke:rgb(0,0,0);stroke-width:2"/>
		<line x1="187" y1="22" x2="187" y2="28"
			transform="matrix(1 0 0 1 2.22222 0.444444)"
			 style="fill:none;stroke:rgb(0,0,0);stroke-width:2"/>
	<line x1="192" y1="13" x2="192" y2="28"
			transform="matrix(1 0 0 1 2.22222 0.444444)"
			 style="fill:none;stroke:rgb(0,0,0);stroke-width:2"/>
		<line x1="182" y1="28" x2="192" y2="28"
			transform="matrix(1 0 0 1 2.22222 0.444444)"
	style="fill:none;stroke:rgb(0,0,0);stroke-width:2"/>
		<line x1="189" y1="12" x2="179" y2="21"
			 style="fill:none;stroke:rgb(0,0,0);stroke-width:2"/>
		<line x1="188" y1="12" x2="199" y2="20"
			 style="fill:none;stroke:rgb(0,0,0);stroke-width:2"/>
	</g>
	<g id="zoom_out" onmouseup="zoomOut()" 
             onmouseover="doHighlight(evt, 'Click to zoom out')"
             onmouseout="resetHighlight(evt)"
             fill="rgb(99,154,206)"
             transform="matrix(1 0 0 1 0 0)">
		<rect x="116" y="8" width="26" height="26"
			 style="stroke:rgb(0,0,0);stroke-width:1"/>
		<ellipse cx="126" cy="18" rx="6" ry="6"
			 style="stroke:rgb(0,0,0);stroke-width:1"/>
		<line x1="130" y1="23" x2="137" y2="29"
			transform="matrix(1 0 0 1 0.888889 -0.888889)"
			 style="fill:none;stroke:rgb(0,0,0);stroke-width:2"/>
		<line x1="123" y1="18" x2="129" y2="18"
			 style="fill:none;stroke:rgb(0,0,0);stroke-width:2"/>
	</g>
	<g id="zoom_in" onmouseup="zoomIn()" 
             onmouseover="doHighlight(evt, 'Click to zoom in')"
             onmouseout="resetHighlight(evt)"
             fill="rgb(99,154,206)"
             transform="matrix(1 0 0 1 0.888889 -0.444444)">
		<rect x="116" y="8" width="26" height="26"
			transform="matrix(1 0 0 1 29.7778 0.444444)"
			 style="stroke:rgb(0,0,0);stroke-width:1"/>
		<ellipse cx="126" cy="18" rx="6" ry="6"
			transform="matrix(1 0 0 1 29.7778 0.444444)"
			 style="stroke:rgb(0,0,0);stroke-width:1"/>
		<line x1="130" y1="23" x2="137" y2="29"
			transform="matrix(1 0 0 1 30.6667 -0.444445)"
		style="fill:none;stroke:rgb(0,0,0);stroke-width:2"/>
		<line x1="123" y1="18" x2="129" y2="18"
			transform="matrix(1 0 0 1 29.7778 0.444444)"
			 style="fill:none;stroke:rgb(0,0,0);stroke-width:2"/>
		<line x1="156" y1="15" x2="156" y2="22"
			 style="fill:none;stroke:rgb(0,0,0);stroke-width:2"/>
	</g>
	<g>
		<rect x="117" y="40" width="452" height="14"
			transform="matrix(1.54201 0 0 1 -64.1436 -0.222222)"
			 style="fill:rgb(192,192,192);stroke:rgb(0,0,0);stroke-width:1"/>
		<text id="status_text" x="183px" y="48px"
			transform="matrix(1 0 0 1 -63.5556 3.00778)"
			 style="fill:rgb(0,0,0);font-size:14;font-family:Arial"> </text>
	</g>
</g>	
</svg>