<?xml version="1.0" encoding="UTF-8" standalone="no"?><!DOCTYPE svg PUBLIC "-//W3C//DTD SVG 1.0//EN" "http://www.w3.org/TR/2001/REC-SVG-20010904/DTD/svg10.dtd" [ <!ATTLIST svg xmlns:xlink CDATA #FIXED "http://www.w3.org/1999/xlink">]><!-- Generated by WinGraphviz version ver1.02.23, 08/01/2003 (08/04/2003)     For user: Avi Ma'ayan   Title: G    Pages: 1 --><!--="735px" height="131px" xmlns="http://www.w3.org/2000/svg" --><svg onload="init(evt)" width="735px" height="600px" xmlns="http://www.w3.org/2000/svg" xmlns:xlink="http://www.w3.org/1999/xlink">
<script type="text/ecmascript">
<![CDATA[
var svgDocument;
var zoomAmt;
var xOffset;
var yOffset;
var scale;
var maxScale;
var imageWidth;
var imageHeight;
function init(evt)
{
    svgDocument = evt.getTarget().getOwnerDocument();
    zoomAmt = 0;
    xOffset = 0;
    yOffset = 60;
    scale = 0.8;
    maxScale = 10;
    imageWidth = 742;
    imageHeight = 606;
    panRestore();
    //panUp();
}
function transformMap ()
{
    var obj = svgDocument.getElementById("Pathway");
    var centerX = imageWidth  / 2.0;
    var centerY = imageHeight / 2.0;
    var adjustX = (-centerX * (scale - 0.8)) + xOffset;
    var adjustY = (-centerY * (scale - 0.8)) + yOffset;
    var transParms = 'translate(' + adjustX + ',' + adjustY + ') ';
    transParms += 'scale(' + scale + ')';
    // alert(transParms);
    obj.setAttribute("transform", transParms); 
}
function click_node(id)
{
    var testx = parent.click_node;
    if (typeof(testx) == "function")
    {
		parent.click_node(id);
    }
}
function click_relation(id)
{
    var testx = parent.click_relation;
    if (typeof(testx) == "function")
    {
        parent.click_relation(id);
    }
}
function click_pathway(toId, fromId)
{
    var testx = parent.click_pathway;
    if (typeof(testx) == "function")
    {
	parent.click_pathway(toId, fromId);
    }
}
function check_interpath(evt, pathid)
{
  var obj = evt.getTarget();
  var testx = parent.is_frompath;
  var child = obj.firstChild;
  if (typeof(testx) == "function")
  {
    if (parent.is_frompath(pathid))
    {
      while (child != null)
      {
        if (child.nodeType == 1)
        {
          if ((child.localName == "g") || (child.localName == "polyline"))
          {
            child.setAttribute("style", "fill:none;stroke:red");
          }
          else if (child.localName == "polygon")
          {
            child.setAttribute("style", "fill:red;stroke:red");
          }
        }
        child = child.nextSibling;
      }
    }
  }
}
function set_status (msg)
{
 var obj = svgDocument.getElementById("status_text");
  var child;
 
  child = obj.firstChild;
  if ((child != null) && (child.nodeType == 3))
  {
    if ((msg != null) && (msg.length > 0))
    {
      child.data = msg;
    }
    else
    {
child.data = " ";
    }
  }
}
function zoomIn ()
{
    scale = scale + 0.8;
    if (scale > maxScale)
    {
       scale = maxScale;
    }
    transformMap();
    panUp();
    panUp();
    panUp();
    panUp();
    panUp();
    panUp();
    panUp();
    panUp();
    panUp();
    panUp();
    panUp();
    panUp();
}
function zoomOut ()
{
    scale = scale - 0.8;
    if (scale < 0.8)
    {
       scale = 0.8;
    }
    transformMap();
    panDown();
    panDown();
    panDown();
    panDown();
    panDown();
    panDown();
    panDown();
    panDown();
    panDown();
    panDown();
    panDown();
    panDown();
}
function panUp ()
{
    yOffset = yOffset + 20;
    transformMap();
}
function panDown ()
{
    yOffset = yOffset - 20;
    transformMap();
}
function panLeft ()
{
    xOffset = xOffset + 20;
    transformMap();
}
function panRight ()
{
    xOffset = xOffset - 20;
    transformMap();
}
function panRestore ()
{
    xOffset = 0;
    yOffset = 0;
    scale = 0.5;
    //obj = svgDocument.getElementById("zoom");
    //obj.setAttribute("x1", 0);
    //obj.setAttribute("x2", 0);
    transformMap();    
}
function doHighlight (evt, msg)
{
  var obj = evt.getTarget();
  obj.setAttribute("fill", "rgb(239,24,33)");
  set_status(msg);
}
function resetHighlight (evt)
{
  var obj = evt.getTarget();
  obj.setAttribute("fill", "rgb(99,154,206)");
  set_status(" ");
}
// ]]>
</script>
<defs>
<clipPath id="theClip">
<polygon points="1 61, 741 61, 741 665, 1 665"
style="fill: none;"/>
</clipPath>
</defs>
<!-- viewport outline -->
<rect x="0" y="61" width="742" height="606"
style="stroke: black; stroke-width: 1; fill: none;"/>
<!-- pathway graph style="clip-path: url(#theClip);" -->
<g style="clip-path: url(#theClip);">
<g id="Pathway"  transform="translate(0,60)">
<!-- prefile.include ends, begin pathway graph -->
<g id="stkecm;CMP_10705" class="graph">
</g>
<g id="graph0" class="graph" style="font-family:Times New Roman;font-size:8.30;"><title>G</title><g id="node1" class="node"><title>ACTB</title><a xlink:href="ACTB.html"><ellipse cx="26" cy="20" rx="19" ry="10" style="fill:turquoise;stroke:turquoise;"/><text text-anchor="middle" x="26" y="23" style="font-family:Times New Roman;"><![CDATA[ACTB]]></text></a></g><g id="node2" class="node"><title>VCL</title><a xlink:href="VCL.html"><ellipse cx="365" cy="63" rx="16" ry="10" style="fill:turquoise;stroke:turquoise;"/><text text-anchor="middle" x="365" y="66" style="font-family:Times New Roman;"><![CDATA[VCL]]></text></a></g><g id="edge2" class="edge"><title>ACTB-&gt;VCL</title><path style="fill:none;stroke:#0000ff;" d="M43,28C45,29 48,30 51,31 107,46 286,57 345,62"/><polygon style="fill:#0000ff;stroke:#0000ff;" points="41,26 40,28 42,29 44,27 41,26"/><polygon style="fill:#0000ff;stroke:#0000ff;" points="348,63 348,60 345,60 345,63 348,63"/></g><g id="node30" class="node"><title>SORBS3</title><a xlink:href="SORBS3.html"><ellipse cx="365" cy="105" rx="23" ry="10" style="fill:turquoise;stroke:turquoise;"/><text text-anchor="middle" x="365" y="108" style="font-family:Times New Roman;"><![CDATA[SORBS3]]></text></a></g><g id="edge30" class="edge"><title>VCL-&gt;SORBS3</title><path style="fill:none;stroke:#0000ff;" d="M365,76C365,81 365,87 365,92"/><polygon style="fill:#0000ff;stroke:#0000ff;" points="367,73 364,73 364,76 367,76 367,73"/><polygon style="fill:#0000ff;stroke:#0000ff;" points="364,95 367,95 367,92 364,92 364,95"/></g><g id="node4" class="node"><title>ACTN1</title><a xlink:href="ACTN1.html"><ellipse cx="78" cy="20" rx="21" ry="10" style="fill:turquoise;stroke:turquoise;"/><text text-anchor="middle" x="78" y="23" style="font-family:Times New Roman;"><![CDATA[ACTN1]]></text></a></g><g id="edge4" class="edge"><title>ACTN1-&gt;VCL</title><path style="fill:none;stroke:#0000ff;" d="M96,28C99,29 102,30 105,31 193,53 301,60 345,62"/><polygon style="fill:#0000ff;stroke:#0000ff;" points="95,26 93,28 96,29 98,27 95,26"/><polygon style="fill:#0000ff;stroke:#0000ff;" points="348,63 348,60 345,60 345,63 348,63"/></g><g id="node6" class="node"><title>ARPC2</title><a xlink:href="ARPC2.html"><ellipse cx="133" cy="20" rx="22" ry="10" style="fill:turquoise;stroke:turquoise;"/><text text-anchor="middle" x="133" y="23" style="font-family:Times New Roman;"><![CDATA[ARPC2]]></text></a></g><g id="edge6" class="edge"><title>ARPC2-&gt;VCL</title><path style="fill:none;stroke:#0000ff;" d="M152,28C155,29 158,30 161,31 227,48 308,57 345,61"/><polygon style="fill:#0000ff;stroke:#0000ff;" points="150,26 149,28 152,29 153,27 150,26"/><polygon style="fill:#0000ff;stroke:#0000ff;" points="348,63 348,60 345,60 345,62 348,63"/></g><g id="node8" class="node"><title>CAPN1</title><a xlink:href="CAPN1.html"><ellipse cx="188" cy="20" rx="21" ry="10" style="fill:turquoise;stroke:turquoise;"/><text text-anchor="middle" x="188" y="23" style="font-family:Times New Roman;"><![CDATA[CAPN1]]></text></a></g><g id="edge8" class="edge"><title>CAPN1-&gt;VCL</title><path style="fill:none;stroke:#ff0000;" d="M205,27C208,28 212,29 216,31 259,44 311,54 340,59"/><polyline style="fill:none;stroke:#ff0000;" points="339,63 340,54 "/></g><g id="node10" class="node"><title>TGFB1I1</title><a xlink:href="TGFB1I1.html"><ellipse cx="245" cy="20" rx="23" ry="10" style="fill:turquoise;stroke:turquoise;"/><text text-anchor="middle" x="245" y="23" style="font-family:Times New Roman;"><![CDATA[TGFB1I1]]></text></a></g><g id="edge10" class="edge"><title>TGFB1I1-&gt;VCL</title><path style="fill:none;stroke:#0000ff;" d="M265,28C268,29 271,29 274,31 300,40 329,50 347,56"/><polygon style="fill:#0000ff;stroke:#0000ff;" points="264,26 262,28 265,29 267,27 264,26"/><polygon style="fill:#0000ff;stroke:#0000ff;" points="350,59 351,56 348,55 347,57 350,59"/></g><g id="node12" class="node"><title>PXN</title><a xlink:href="PXN.html"><ellipse cx="296" cy="20" rx="17" ry="10" style="fill:turquoise;stroke:turquoise;"/><text text-anchor="middle" x="296" y="23" style="font-family:Times New Roman;"><![CDATA[PXN]]></text></a></g><g id="edge12" class="edge"><title>PXN-&gt;VCL</title><path style="fill:none;stroke:#0000ff;" d="M311,29C322,36 338,46 350,53"/><polygon style="fill:#0000ff;stroke:#0000ff;" points="309,27 308,29 310,30 312,28 309,27"/><polygon style="fill:#0000ff;stroke:#0000ff;" points="352,56 353,54 351,52 350,54 352,56"/></g><g id="node14" class="node"><title>PIP2</title><a xlink:href="PIP2.html"><ellipse cx="340" cy="20" rx="16" ry="10" style="fill:turquoise;stroke:turquoise;"/><text text-anchor="middle" x="340" y="23" style="font-family:Times New Roman;"><![CDATA[PIP2]]></text></a></g><g id="edge14" class="edge"><title>PIP2-&gt;VCL</title><path style="fill:none;stroke:#ff0000;" d="M346,30C348,34 351,40 354,45"/><polyline style="fill:none;stroke:#ff0000;" points="351,47 358,43 "/></g><g id="node16" class="node"><title>PRKCA</title><a xlink:href="PRKCA.html"><ellipse cx="390" cy="20" rx="23" ry="10" style="fill:turquoise;stroke:turquoise;"/><text text-anchor="middle" x="390" y="23" style="font-family:Times New Roman;"><![CDATA[PRKCA]]></text></a></g><g id="edge16" class="edge"><title>PRKCA-&gt;VCL</title><path style="fill:none;stroke:darkgreen;" d="M385,30C382,35 377,42 374,48"/><polygon style="fill:darkgreen;stroke:darkgreen;" points="375,48 371,53 373,47 375,48"/></g><g id="node18" class="node"><title>PKD1</title><a xlink:href="PKD1.html"><ellipse cx="443" cy="20" rx="18" ry="10" style="fill:turquoise;stroke:turquoise;"/><text text-anchor="middle" x="443" y="23" style="font-family:Times New Roman;"><![CDATA[PKD1]]></text></a></g><g id="edge18" class="edge"><title>PKD1-&gt;VCL</title><path style="fill:none;stroke:#0000ff;" d="M427,28C414,36 395,47 381,54"/><polygon style="fill:#0000ff;stroke:#0000ff;" points="430,28 429,26 427,27 428,29 430,28"/><polygon style="fill:#0000ff;stroke:#0000ff;" points="377,54 379,57 382,56 380,53 377,54"/></g><g id="node20" class="node"><title>SORBS1</title><a xlink:href="SORBS1.html"><ellipse cx="495" cy="20" rx="23" ry="10" style="fill:turquoise;stroke:turquoise;"/><text text-anchor="middle" x="495" y="23" style="font-family:Times New Roman;"><![CDATA[SORBS1]]></text></a></g><g id="edge20" class="edge"><title>SORBS1-&gt;VCL</title><path style="fill:none;stroke:#0000ff;" d="M475,28C472,29 470,29 467,31 437,41 404,51 383,58"/><polygon style="fill:#0000ff;stroke:#0000ff;" points="478,28 477,26 474,27 475,29 478,28"/><polygon style="fill:#0000ff;stroke:#0000ff;" points="380,57 380,60 383,59 383,57 380,57"/></g><g id="node22" class="node"><title>RAVER1</title><a xlink:href="RAVER1.html"><ellipse cx="555" cy="20" rx="26" ry="10" style="fill:turquoise;stroke:turquoise;"/><text text-anchor="middle" x="555" y="23" style="font-family:Times New Roman;"><![CDATA[RAVER1]]></text></a></g><g id="edge22" class="edge"><title>RAVER1-&gt;VCL</title><path style="fill:none;stroke:#0000ff;" d="M533,28C530,29 527,29 524,31 474,44 415,55 385,60"/><polygon style="fill:#0000ff;stroke:#0000ff;" points="536,28 535,26 532,27 533,29 536,28"/><polygon style="fill:#0000ff;stroke:#0000ff;" points="382,59 382,62 385,61 385,59 382,59"/></g><g id="node24" class="node"><title>DMN</title><a xlink:href="DMN.html"><ellipse cx="611" cy="20" rx="18" ry="10" style="fill:turquoise;stroke:turquoise;"/><text text-anchor="middle" x="611" y="23" style="font-family:Times New Roman;"><![CDATA[DMN]]></text></a></g><g id="edge24" class="edge"><title>DMN-&gt;VCL</title><path style="fill:none;stroke:#0000ff;" d="M595,28C592,29 590,30 587,31 514,52 424,59 385,62"/><polygon style="fill:#0000ff;stroke:#0000ff;" points="597,28 596,26 594,27 595,29 597,28"/><polygon style="fill:#0000ff;stroke:#0000ff;" points="382,60 382,63 385,63 385,60 382,60"/></g><g id="node26" class="node"><title>TLN1</title><a xlink:href="TLN1.html"><ellipse cx="659" cy="20" rx="17" ry="10" style="fill:turquoise;stroke:turquoise;"/><text text-anchor="middle" x="659" y="23" style="font-family:Times New Roman;"><![CDATA[TLN1]]></text></a></g><g id="edge26" class="edge"><title>TLN1-&gt;VCL</title><path style="fill:none;stroke:#0000ff;" d="M643,28C640,29 638,30 635,31 588,44 439,57 385,62"/><polygon style="fill:#0000ff;stroke:#0000ff;" points="646,28 644,26 642,27 643,29 646,28"/><polygon style="fill:#0000ff;stroke:#0000ff;" points="382,60 382,63 385,63 385,60 382,60"/></g><g id="node28" class="node"><title>VASP</title><a xlink:href="VASP.html"><ellipse cx="707" cy="20" rx="19" ry="10" style="fill:turquoise;stroke:turquoise;"/><text text-anchor="middle" x="707" y="23" style="font-family:Times New Roman;"><![CDATA[VASP]]></text></a></g><g id="edge28" class="edge"><title>VASP-&gt;VCL</title><path style="fill:none;stroke:#0000ff;" d="M689,28C687,29 685,30 682,31 625,46 445,57 385,62"/><polygon style="fill:#0000ff;stroke:#0000ff;" points="692,28 691,26 689,27 690,29 692,28"/><polygon style="fill:#0000ff;stroke:#0000ff;" points="382,60 382,63 385,63 385,60 382,60"/></g></g></g></g>
<!-- navigation controls -->
<g id="navbox">
	<rect x="0" y="0" width="742" height="60"
		 style="fill:rgb(206,207,206);stroke:rgb(0,0,0);stroke-width:1"/>

	<polygon id="pan_right"
        onmouseup="panRight()"
        onmouseover="doHighlight(evt, 'Click to pan to the right')"
        onmouseout="resetHighlight(evt)"
		points="28.0732,13 32,20.5 28.0732,28 28.0732,23.4412 25,23.4412 25,17.4118 28.0732,17.4118"
		 transform="matrix(3.39111 0 0 2.98838 -12.6265 -29.7101)"
         fill="rgb(99,154,206)"
		 style="stroke:rgb(0,0,0);stroke-width:0.5"/>
	<polygon id="pan_left"
        onmouseup="panLeft()"
        onmouseover="doHighlight(evt, 'Click to pan to the left')"
        onmouseout="resetHighlight(evt)"
		points="123.991,25 120.064,32.5 123.991,40 123.991,35.4412 127.064,35.4412 127.064,29.4118
			123.991,29.4118" transform="matrix(3.39111 0 0 2.98838 -404.865 -65.5706)"
         fill="rgb(99,154,206)"
		 style="stroke:rgb(0,0,0);stroke-width:0.5"/>
	<polygon id="pan_down"
        onmouseup="panDown()"
        onmouseover="doHighlight(evt, 'Click to pan down')"
        onmouseout="resetHighlight(evt)"
		points="116.032,32.0408 123.532,35.9678 131.032,32.0408 126.473,32.0408 126.473,28.9678 120.444,28.9678
			120.444,32.0408" transform="matrix(3.39111 0 0 2.98838 -369.822 -50.6287)"
         fill="rgb(99,154,206)"
		 style="stroke:rgb(0,0,0);stroke-width:0.5"/>
	<polygon id="pan_up"
        onmouseup="panUp()"
  onmouseover="doHighlight(evt, 'Click to pan up')"
        onmouseout="resetHighlight(evt)"
		points="116.032,32.0408 123.532,35.9678 131.032,32.0408 126.473,32.0408 126.473,28.9678 120.444,28.9678
			120.444,32.0408" transform="matrix(3.39111 0 0 -2.98838 -369.823 111.74)"
         fill="rgb(99,154,206)"
		 style="stroke:rgb(0,0,0);stroke-width:0.5"/>
	<g id="go_home" 
         onmouseup="panRestore()" 
         onmouseover="doHighlight(evt, 'Click to restore graph to original position')"
         onmouseout="resetHighlight(evt)"
         fill="rgb(99,154,206)"
         transform="matrix(1 0 0 1 0 -0.333333)">
		<rect x="196" y="11" width="26" height="26"
			transform="translate(-19.1111 -2.66667)"
			 style="stroke:rgb(0,0,0);stroke-width:1"/>
		<line x1="182" y1="16" x2="182" y2="28"
			transform="matrix(1 0 0 1 2.22222 0.444444)"
			 style="fill:none;stroke:rgb(0,0,0);stroke-width:2"/>
		<line x1="187" y1="22" x2="187" y2="28"
			transform="matrix(1 0 0 1 2.22222 0.444444)"
			 style="fill:none;stroke:rgb(0,0,0);stroke-width:2"/>
	<line x1="192" y1="13" x2="192" y2="28"
			transform="matrix(1 0 0 1 2.22222 0.444444)"
			 style="fill:none;stroke:rgb(0,0,0);stroke-width:2"/>
		<line x1="182" y1="28" x2="192" y2="28"
			transform="matrix(1 0 0 1 2.22222 0.444444)"
	style="fill:none;stroke:rgb(0,0,0);stroke-width:2"/>
		<line x1="189" y1="12" x2="179" y2="21"
			 style="fill:none;stroke:rgb(0,0,0);stroke-width:2"/>
		<line x1="188" y1="12" x2="199" y2="20"
			 style="fill:none;stroke:rgb(0,0,0);stroke-width:2"/>
	</g>
	<g id="zoom_out" onmouseup="zoomOut()" 
             onmouseover="doHighlight(evt, 'Click to zoom out')"
             onmouseout="resetHighlight(evt)"
             fill="rgb(99,154,206)"
             transform="matrix(1 0 0 1 0 0)">
		<rect x="116" y="8" width="26" height="26"
			 style="stroke:rgb(0,0,0);stroke-width:1"/>
		<ellipse cx="126" cy="18" rx="6" ry="6"
			 style="stroke:rgb(0,0,0);stroke-width:1"/>
		<line x1="130" y1="23" x2="137" y2="29"
			transform="matrix(1 0 0 1 0.888889 -0.888889)"
			 style="fill:none;stroke:rgb(0,0,0);stroke-width:2"/>
		<line x1="123" y1="18" x2="129" y2="18"
			 style="fill:none;stroke:rgb(0,0,0);stroke-width:2"/>
	</g>
	<g id="zoom_in" onmouseup="zoomIn()" 
             onmouseover="doHighlight(evt, 'Click to zoom in')"
             onmouseout="resetHighlight(evt)"
             fill="rgb(99,154,206)"
             transform="matrix(1 0 0 1 0.888889 -0.444444)">
		<rect x="116" y="8" width="26" height="26"
			transform="matrix(1 0 0 1 29.7778 0.444444)"
			 style="stroke:rgb(0,0,0);stroke-width:1"/>
		<ellipse cx="126" cy="18" rx="6" ry="6"
			transform="matrix(1 0 0 1 29.7778 0.444444)"
			 style="stroke:rgb(0,0,0);stroke-width:1"/>
		<line x1="130" y1="23" x2="137" y2="29"
			transform="matrix(1 0 0 1 30.6667 -0.444445)"
		style="fill:none;stroke:rgb(0,0,0);stroke-width:2"/>
		<line x1="123" y1="18" x2="129" y2="18"
			transform="matrix(1 0 0 1 29.7778 0.444444)"
			 style="fill:none;stroke:rgb(0,0,0);stroke-width:2"/>
		<line x1="156" y1="15" x2="156" y2="22"
			 style="fill:none;stroke:rgb(0,0,0);stroke-width:2"/>
	</g>
	<g>
		<rect x="117" y="40" width="452" height="14"
			transform="matrix(1.54201 0 0 1 -64.1436 -0.222222)"
			 style="fill:rgb(192,192,192);stroke:rgb(0,0,0);stroke-width:1"/>
		<text id="status_text" x="183px" y="48px"
			transform="matrix(1 0 0 1 -63.5556 3.00778)"
			 style="fill:rgb(0,0,0);font-size:14;font-family:Arial"> </text>
	</g>
</g>	
</svg>