<?xml version="1.0" encoding="UTF-8" standalone="no"?><!DOCTYPE svg PUBLIC "-//W3C//DTD SVG 1.0//EN" "http://www.w3.org/TR/2001/REC-SVG-20010904/DTD/svg10.dtd" [ <!ATTLIST svg xmlns:xlink CDATA #FIXED "http://www.w3.org/1999/xlink">]><!-- Generated by WinGraphviz version ver1.02.23, 08/01/2003 (08/04/2003)     For user: Avi Ma'ayan   Title: G    Pages: 1 --><!--="735px" height="220px" xmlns="http://www.w3.org/2000/svg" --><svg onload="init(evt)" width="735px" height="600px" xmlns="http://www.w3.org/2000/svg" xmlns:xlink="http://www.w3.org/1999/xlink">
<script type="text/ecmascript">
<![CDATA[
var svgDocument;
var zoomAmt;
var xOffset;
var yOffset;
var scale;
var maxScale;
var imageWidth;
var imageHeight;
function init(evt)
{
    svgDocument = evt.getTarget().getOwnerDocument();
    zoomAmt = 0;
    xOffset = 0;
    yOffset = 60;
    scale = 0.8;
    maxScale = 10;
    imageWidth = 742;
    imageHeight = 606;
    panRestore();
    //panUp();
}
function transformMap ()
{
    var obj = svgDocument.getElementById("Pathway");
    var centerX = imageWidth  / 2.0;
    var centerY = imageHeight / 2.0;
    var adjustX = (-centerX * (scale - 0.8)) + xOffset;
    var adjustY = (-centerY * (scale - 0.8)) + yOffset;
    var transParms = 'translate(' + adjustX + ',' + adjustY + ') ';
    transParms += 'scale(' + scale + ')';
    // alert(transParms);
    obj.setAttribute("transform", transParms); 
}
function click_node(id)
{
    var testx = parent.click_node;
    if (typeof(testx) == "function")
    {
		parent.click_node(id);
    }
}
function click_relation(id)
{
    var testx = parent.click_relation;
    if (typeof(testx) == "function")
    {
        parent.click_relation(id);
    }
}
function click_pathway(toId, fromId)
{
    var testx = parent.click_pathway;
    if (typeof(testx) == "function")
    {
	parent.click_pathway(toId, fromId);
    }
}
function check_interpath(evt, pathid)
{
  var obj = evt.getTarget();
  var testx = parent.is_frompath;
  var child = obj.firstChild;
  if (typeof(testx) == "function")
  {
    if (parent.is_frompath(pathid))
    {
      while (child != null)
      {
        if (child.nodeType == 1)
        {
          if ((child.localName == "g") || (child.localName == "polyline"))
          {
            child.setAttribute("style", "fill:none;stroke:red");
          }
          else if (child.localName == "polygon")
          {
            child.setAttribute("style", "fill:red;stroke:red");
          }
        }
        child = child.nextSibling;
      }
    }
  }
}
function set_status (msg)
{
 var obj = svgDocument.getElementById("status_text");
  var child;
 
  child = obj.firstChild;
  if ((child != null) && (child.nodeType == 3))
  {
    if ((msg != null) && (msg.length > 0))
    {
      child.data = msg;
    }
    else
    {
child.data = " ";
    }
  }
}
function zoomIn ()
{
    scale = scale + 0.8;
    if (scale > maxScale)
    {
       scale = maxScale;
    }
    transformMap();
    panUp();
    panUp();
    panUp();
    panUp();
    panUp();
    panUp();
    panUp();
    panUp();
    panUp();
    panUp();
    panUp();
    panUp();
}
function zoomOut ()
{
    scale = scale - 0.8;
    if (scale < 0.8)
    {
       scale = 0.8;
    }
    transformMap();
    panDown();
    panDown();
    panDown();
    panDown();
    panDown();
    panDown();
    panDown();
    panDown();
    panDown();
    panDown();
    panDown();
    panDown();
}
function panUp ()
{
    yOffset = yOffset + 20;
    transformMap();
}
function panDown ()
{
    yOffset = yOffset - 20;
    transformMap();
}
function panLeft ()
{
    xOffset = xOffset + 20;
    transformMap();
}
function panRight ()
{
    xOffset = xOffset - 20;
    transformMap();
}
function panRestore ()
{
    xOffset = 0;
    yOffset = 0;
    scale = 0.5;
    //obj = svgDocument.getElementById("zoom");
    //obj.setAttribute("x1", 0);
    //obj.setAttribute("x2", 0);
    transformMap();    
}
function doHighlight (evt, msg)
{
  var obj = evt.getTarget();
  obj.setAttribute("fill", "rgb(239,24,33)");
  set_status(msg);
}
function resetHighlight (evt)
{
  var obj = evt.getTarget();
  obj.setAttribute("fill", "rgb(99,154,206)");
  set_status(" ");
}
// ]]>
</script>
<defs>
<clipPath id="theClip">
<polygon points="1 61, 741 61, 741 665, 1 665"
style="fill: none;"/>
</clipPath>
</defs>
<!-- viewport outline -->
<rect x="0" y="61" width="742" height="606"
style="stroke: black; stroke-width: 1; fill: none;"/>
<!-- pathway graph style="clip-path: url(#theClip);" -->
<g style="clip-path: url(#theClip);">
<g id="Pathway"  transform="translate(0,60)">
<!-- prefile.include ends, begin pathway graph -->
<g id="stkecm;CMP_10705" class="graph">
</g>
<g id="graph0" class="graph" style="font-family:Times New Roman;font-size:14.69;"><title>G</title><g id="node1" class="node"><title>ACTB</title><a xlink:href="ACTB.html"><ellipse cx="177" cy="31" rx="34" ry="18" style="fill:turquoise;stroke:turquoise;"/><text text-anchor="middle" x="177" y="37" style="font-family:Times New Roman;"><![CDATA[ACTB]]></text></a></g><g id="node2" class="node"><title>VIL2</title><a xlink:href="VIL2.html"><ellipse cx="356" cy="107" rx="30" ry="18" style="fill:turquoise;stroke:turquoise;"/><text text-anchor="middle" x="356" y="112" style="font-family:Times New Roman;"><![CDATA[VIL2]]></text></a></g><g id="edge2" class="edge"><title>ACTB-&gt;VIL2</title><path style="fill:none;stroke:#0000ff;" d="M209,45C213,47 217,48 221,50 257,66 298,83 324,94"/><polygon style="fill:#0000ff;stroke:#0000ff;" points="206,41 203,45 208,47 210,43 206,41"/><polygon style="fill:#0000ff;stroke:#0000ff;" points="328,99 330,94 325,92 323,96 328,99"/></g><g id="node6" class="node"><title>PTK2</title><a xlink:href="PTK2.html"><ellipse cx="39" cy="183" rx="32" ry="18" style="fill:turquoise;stroke:turquoise;"/><text text-anchor="middle" x="39" y="188" style="font-family:Times New Roman;"><![CDATA[PTK2]]></text></a></g><g id="edge6" class="edge"><title>VIL2-&gt;PTK2</title><path style="fill:none;stroke:#0000ff;" d="M320,112C269,120 165,137 81,164 76,166 72,167 68,169"/><polygon style="fill:#0000ff;stroke:#0000ff;" points="325,113 325,109 320,110 320,114 325,113"/><polygon style="fill:#0000ff;stroke:#0000ff;" points="63,169 65,173 69,171 67,167 63,169"/></g><g id="node8" class="node"><title>NF2</title><a xlink:href="NF2.html"><ellipse cx="118" cy="183" rx="28" ry="18" style="fill:turquoise;stroke:turquoise;"/><text text-anchor="middle" x="118" y="188" style="font-family:Times New Roman;"><![CDATA[NF2]]></text></a></g><g id="edge8" class="edge"><title>VIL2-&gt;NF2</title><path style="fill:none;stroke:#0000ff;" d="M322,114C282,124 214,143 156,164 152,166 148,168 145,169"/><polygon style="fill:#0000ff;stroke:#0000ff;" points="327,115 327,111 322,112 322,116 327,115"/><polygon style="fill:#0000ff;stroke:#0000ff;" points="139,169 142,173 146,171 144,167 139,169"/></g><g id="node10" class="node"><title>SLC9A1</title><a xlink:href="SLC9A1.html"><ellipse cx="206" cy="183" rx="39" ry="18" style="fill:turquoise;stroke:turquoise;"/><text text-anchor="middle" x="206" y="188" style="font-family:Times New Roman;"><![CDATA[SLC9A1]]></text></a></g><g id="edge10" class="edge"><title>VIL2-&gt;SLC9A1</title><path style="fill:none;stroke:#0000ff;" d="M326,121C301,133 263,153 237,167"/><polygon style="fill:#0000ff;stroke:#0000ff;" points="333,121 330,116 325,119 327,123 333,121"/><polygon style="fill:#0000ff;stroke:#0000ff;" points="232,167 234,171 238,169 236,165 232,167"/></g><g id="node12" class="node"><title>PALLD</title><a xlink:href="PALLD.html"><ellipse cx="305" cy="183" rx="40" ry="18" style="fill:turquoise;stroke:turquoise;"/><text text-anchor="middle" x="305" y="188" style="font-family:Times New Roman;"><![CDATA[PALLD]]></text></a></g><g id="edge12" class="edge"><title>VIL2-&gt;PALLD</title><path style="fill:none;stroke:#0000ff;" d="M342,129C336,138 327,150 321,159"/><polygon style="fill:#0000ff;stroke:#0000ff;" points="346,126 342,124 340,128 344,130 346,126"/><polygon style="fill:#0000ff;stroke:#0000ff;" points="316,162 320,165 323,161 319,157 316,162"/></g><g id="node14" class="node"><title>PIK3CA</title><a xlink:href="PIK3CA.html"><ellipse cx="407" cy="183" rx="41" ry="18" style="fill:turquoise;stroke:turquoise;"/><text text-anchor="middle" x="407" y="188" style="font-family:Times New Roman;"><![CDATA[PIK3CA]]></text></a></g><g id="edge14" class="edge"><title>VIL2-&gt;PIK3CA</title><path style="fill:none;stroke:#0000ff;" d="M370,129C377,138 385,150 391,159"/><polygon style="fill:#0000ff;stroke:#0000ff;" points="369,123 365,126 368,130 372,127 369,123"/><polygon style="fill:#0000ff;stroke:#0000ff;" points="392,165 397,162 393,157 389,161 392,165"/></g><g id="node16" class="node"><title>PRKCA</title><a xlink:href="PRKCA.html"><ellipse cx="510" cy="183" rx="41" ry="18" style="fill:turquoise;stroke:turquoise;"/><text text-anchor="middle" x="510" y="188" style="font-family:Times New Roman;"><![CDATA[PRKCA]]></text></a></g><g id="edge16" class="edge"><title>VIL2-&gt;PRKCA</title><path style="fill:none;stroke:#0000ff;" d="M385,121C411,133 450,153 477,167"/><polygon style="fill:#0000ff;stroke:#0000ff;" points="381,116 379,121 384,123 386,119 381,116"/><polygon style="fill:#0000ff;stroke:#0000ff;" points="481,171 483,167 478,165 476,169 481,171"/></g><g id="node18" class="node"><title>PLEC1</title><a xlink:href="PLEC1.html"><ellipse cx="607" cy="183" rx="35" ry="18" style="fill:turquoise;stroke:turquoise;"/><text text-anchor="middle" x="607" y="188" style="font-family:Times New Roman;"><![CDATA[PLEC1]]></text></a></g><g id="edge18" class="edge"><title>VIL2-&gt;PLEC1</title><path style="fill:none;stroke:#0000ff;" d="M389,114C429,125 501,144 561,164 566,166 570,167 575,169"/><polygon style="fill:#0000ff;stroke:#0000ff;" points="384,111 384,115 389,116 389,112 384,111"/><polygon style="fill:#0000ff;stroke:#0000ff;" points="578,173 580,169 576,167 574,171 578,173"/></g><g id="node20" class="node"><title>SDC4</title><a xlink:href="SDC4.html"><ellipse cx="694" cy="183" rx="32" ry="18" style="fill:turquoise;stroke:turquoise;"/><text text-anchor="middle" x="694" y="188" style="font-family:Times New Roman;"><![CDATA[SDC4]]></text></a></g><g id="edge20" class="edge"><title>VIL2-&gt;SDC4</title><path style="fill:none;stroke:#0000ff;" d="M391,111C447,119 559,135 652,164 656,166 660,167 664,169"/><polygon style="fill:#0000ff;stroke:#0000ff;" points="386,108 386,112 391,113 391,109 386,108"/><polygon style="fill:#0000ff;stroke:#0000ff;" points="667,172 669,168 664,167 662,171 667,172"/></g><g id="node4" class="node"><title>CAPN1</title><a xlink:href="CAPN1.html"><ellipse cx="270" cy="31" rx="38" ry="18" style="fill:turquoise;stroke:turquoise;"/><text text-anchor="middle" x="270" y="37" style="font-family:Times New Roman;"><![CDATA[CAPN1]]></text></a></g><g id="edge4" class="edge"><title>CAPN1-&gt;VIL2</title><path style="fill:none;stroke:#ff0000;" d="M288,48C300,58 314,70 326,82"/><polyline style="fill:none;stroke:#ff0000;" points="321,87 330,75 "/></g><g id="node22" class="node"><title>PIP2</title><a xlink:href="PIP2.html"><ellipse cx="356" cy="31" rx="28" ry="18" style="fill:turquoise;stroke:turquoise;"/><text text-anchor="middle" x="356" y="37" style="font-family:Times New Roman;"><![CDATA[PIP2]]></text></a></g><g id="edge22" class="edge"><title>PIP2-&gt;VIL2</title><path style="fill:none;stroke:darkgreen;" d="M356,50C356,59 356,68 356,78"/><polygon style="fill:darkgreen;stroke:darkgreen;" points="359,78 356,88 354,78 359,78"/></g><g id="node24" class="node"><title>ROCK1</title><a xlink:href="ROCK1.html"><ellipse cx="442" cy="31" rx="38" ry="18" style="fill:turquoise;stroke:turquoise;"/><text text-anchor="middle" x="442" y="37" style="font-family:Times New Roman;"><![CDATA[ROCK1]]></text></a></g><g id="edge24" class="edge"><title>ROCK1-&gt;VIL2</title><path style="fill:none;stroke:darkgreen;" d="M423,48C410,59 395,73 381,85"/><polygon style="fill:darkgreen;stroke:darkgreen;" points="383,86 374,91 380,83 383,86"/></g><g id="node26" class="node"><title>SYK</title><a xlink:href="SYK.html"><ellipse cx="529" cy="31" rx="29" ry="18" style="fill:turquoise;stroke:turquoise;"/><text text-anchor="middle" x="529" y="37" style="font-family:Times New Roman;"><![CDATA[SYK]]></text></a></g><g id="edge26" class="edge"><title>SYK-&gt;VIL2</title><path style="fill:none;stroke:darkgreen;" d="M506,43C501,45 495,48 490,50 456,65 417,82 390,93"/><polygon style="fill:darkgreen;stroke:darkgreen;" points="392,95 382,96 390,90 392,95"/></g></g></g></g>
<!-- navigation controls -->
<g id="navbox">
	<rect x="0" y="0" width="742" height="60"
		 style="fill:rgb(206,207,206);stroke:rgb(0,0,0);stroke-width:1"/>

	<polygon id="pan_right"
        onmouseup="panRight()"
        onmouseover="doHighlight(evt, 'Click to pan to the right')"
        onmouseout="resetHighlight(evt)"
		points="28.0732,13 32,20.5 28.0732,28 28.0732,23.4412 25,23.4412 25,17.4118 28.0732,17.4118"
		 transform="matrix(3.39111 0 0 2.98838 -12.6265 -29.7101)"
         fill="rgb(99,154,206)"
		 style="stroke:rgb(0,0,0);stroke-width:0.5"/>
	<polygon id="pan_left"
        onmouseup="panLeft()"
        onmouseover="doHighlight(evt, 'Click to pan to the left')"
        onmouseout="resetHighlight(evt)"
		points="123.991,25 120.064,32.5 123.991,40 123.991,35.4412 127.064,35.4412 127.064,29.4118
			123.991,29.4118" transform="matrix(3.39111 0 0 2.98838 -404.865 -65.5706)"
         fill="rgb(99,154,206)"
		 style="stroke:rgb(0,0,0);stroke-width:0.5"/>
	<polygon id="pan_down"
        onmouseup="panDown()"
        onmouseover="doHighlight(evt, 'Click to pan down')"
        onmouseout="resetHighlight(evt)"
		points="116.032,32.0408 123.532,35.9678 131.032,32.0408 126.473,32.0408 126.473,28.9678 120.444,28.9678
			120.444,32.0408" transform="matrix(3.39111 0 0 2.98838 -369.822 -50.6287)"
         fill="rgb(99,154,206)"
		 style="stroke:rgb(0,0,0);stroke-width:0.5"/>
	<polygon id="pan_up"
        onmouseup="panUp()"
  onmouseover="doHighlight(evt, 'Click to pan up')"
        onmouseout="resetHighlight(evt)"
		points="116.032,32.0408 123.532,35.9678 131.032,32.0408 126.473,32.0408 126.473,28.9678 120.444,28.9678
			120.444,32.0408" transform="matrix(3.39111 0 0 -2.98838 -369.823 111.74)"
         fill="rgb(99,154,206)"
		 style="stroke:rgb(0,0,0);stroke-width:0.5"/>
	<g id="go_home" 
         onmouseup="panRestore()" 
         onmouseover="doHighlight(evt, 'Click to restore graph to original position')"
         onmouseout="resetHighlight(evt)"
         fill="rgb(99,154,206)"
         transform="matrix(1 0 0 1 0 -0.333333)">
		<rect x="196" y="11" width="26" height="26"
			transform="translate(-19.1111 -2.66667)"
			 style="stroke:rgb(0,0,0);stroke-width:1"/>
		<line x1="182" y1="16" x2="182" y2="28"
			transform="matrix(1 0 0 1 2.22222 0.444444)"
			 style="fill:none;stroke:rgb(0,0,0);stroke-width:2"/>
		<line x1="187" y1="22" x2="187" y2="28"
			transform="matrix(1 0 0 1 2.22222 0.444444)"
			 style="fill:none;stroke:rgb(0,0,0);stroke-width:2"/>
	<line x1="192" y1="13" x2="192" y2="28"
			transform="matrix(1 0 0 1 2.22222 0.444444)"
			 style="fill:none;stroke:rgb(0,0,0);stroke-width:2"/>
		<line x1="182" y1="28" x2="192" y2="28"
			transform="matrix(1 0 0 1 2.22222 0.444444)"
	style="fill:none;stroke:rgb(0,0,0);stroke-width:2"/>
		<line x1="189" y1="12" x2="179" y2="21"
			 style="fill:none;stroke:rgb(0,0,0);stroke-width:2"/>
		<line x1="188" y1="12" x2="199" y2="20"
			 style="fill:none;stroke:rgb(0,0,0);stroke-width:2"/>
	</g>
	<g id="zoom_out" onmouseup="zoomOut()" 
             onmouseover="doHighlight(evt, 'Click to zoom out')"
             onmouseout="resetHighlight(evt)"
             fill="rgb(99,154,206)"
             transform="matrix(1 0 0 1 0 0)">
		<rect x="116" y="8" width="26" height="26"
			 style="stroke:rgb(0,0,0);stroke-width:1"/>
		<ellipse cx="126" cy="18" rx="6" ry="6"
			 style="stroke:rgb(0,0,0);stroke-width:1"/>
		<line x1="130" y1="23" x2="137" y2="29"
			transform="matrix(1 0 0 1 0.888889 -0.888889)"
			 style="fill:none;stroke:rgb(0,0,0);stroke-width:2"/>
		<line x1="123" y1="18" x2="129" y2="18"
			 style="fill:none;stroke:rgb(0,0,0);stroke-width:2"/>
	</g>
	<g id="zoom_in" onmouseup="zoomIn()" 
             onmouseover="doHighlight(evt, 'Click to zoom in')"
             onmouseout="resetHighlight(evt)"
             fill="rgb(99,154,206)"
             transform="matrix(1 0 0 1 0.888889 -0.444444)">
		<rect x="116" y="8" width="26" height="26"
			transform="matrix(1 0 0 1 29.7778 0.444444)"
			 style="stroke:rgb(0,0,0);stroke-width:1"/>
		<ellipse cx="126" cy="18" rx="6" ry="6"
			transform="matrix(1 0 0 1 29.7778 0.444444)"
			 style="stroke:rgb(0,0,0);stroke-width:1"/>
		<line x1="130" y1="23" x2="137" y2="29"
			transform="matrix(1 0 0 1 30.6667 -0.444445)"
		style="fill:none;stroke:rgb(0,0,0);stroke-width:2"/>
		<line x1="123" y1="18" x2="129" y2="18"
			transform="matrix(1 0 0 1 29.7778 0.444444)"
			 style="fill:none;stroke:rgb(0,0,0);stroke-width:2"/>
		<line x1="156" y1="15" x2="156" y2="22"
			 style="fill:none;stroke:rgb(0,0,0);stroke-width:2"/>
	</g>
	<g>
		<rect x="117" y="40" width="452" height="14"
			transform="matrix(1.54201 0 0 1 -64.1436 -0.222222)"
			 style="fill:rgb(192,192,192);stroke:rgb(0,0,0);stroke-width:1"/>
		<text id="status_text" x="183px" y="48px"
			transform="matrix(1 0 0 1 -63.5556 3.00778)"
			 style="fill:rgb(0,0,0);font-size:14;font-family:Arial"> </text>
	</g>
</g>	
</svg>