<?xml version="1.0" encoding="UTF-8" standalone="no"?><!DOCTYPE svg PUBLIC "-//W3C//DTD SVG 1.0//EN" "http://www.w3.org/TR/2001/REC-SVG-20010904/DTD/svg10.dtd" [ <!ATTLIST svg xmlns:xlink CDATA #FIXED "http://www.w3.org/1999/xlink">]><!-- Generated by WinGraphviz version ver1.02.23, 08/01/2003 (08/04/2003)     For user: Avi Ma'ayan   Title: G    Pages: 1 --><svg width="575px" height="180px" xmlns="http://www.w3.org/2000/svg" xmlns:xlink="http://www.w3.org/1999/xlink"><g id="graph0" class="graph" style="font-family:Times New Roman;font-size:18.67;"><title>G</title><g id="node1" class="node"><title>PAK1</title><a xlink:href="PAK1.html"><ellipse cx="47" cy="39" rx="41" ry="24" style="fill:turquoise;stroke:turquoise;"/><text text-anchor="middle" x="47" y="46" style="font-family:Times New Roman;"><![CDATA[PAK1]]></text></a></g><g id="node2" class="node"><title>VIM</title><a xlink:href="VIM.html"><ellipse cx="289" cy="135" rx="37" ry="24" style="fill:turquoise;stroke:turquoise;"/><text text-anchor="middle" x="289" y="142" style="font-family:Times New Roman;"><![CDATA[VIM]]></text></a></g><g id="edge2" class="edge"><title>PAK1-&gt;VIM</title><path style="fill:none;stroke:darkgreen;" d="M80,54C88,58 94,61 101,63 149,83 205,105 243,119"/><polygon style="fill:darkgreen;stroke:darkgreen;" points="243,115 255,123 242,122 243,115"/></g><g id="node4" class="node"><title>PRKCA</title><a xlink:href="PRKCA.html"><ellipse cx="166" cy="39" rx="53" ry="24" style="fill:turquoise;stroke:turquoise;"/><text text-anchor="middle" x="166" y="46" style="font-family:Times New Roman;"><![CDATA[PRKCA]]></text></a></g><g id="edge4" class="edge"><title>PRKCA-&gt;VIM</title><path style="fill:none;stroke:darkgreen;" d="M193,61C211,74 235,94 255,109"/><polygon style="fill:darkgreen;stroke:darkgreen;" points="257,106 265,117 253,110 257,106"/></g><g id="node6" class="node"><title>PLEC1</title><a xlink:href="PLEC1.html"><ellipse cx="289" cy="39" rx="45" ry="24" style="fill:turquoise;stroke:turquoise;"/><text text-anchor="middle" x="289" y="46" style="font-family:Times New Roman;"><![CDATA[PLEC1]]></text></a></g><g id="edge6" class="edge"><title>PLEC1-&gt;VIM</title><path style="fill:none;stroke:#0000ff;" d="M289,70C289,81 289,94 289,105"/><polygon style="fill:#0000ff;stroke:#0000ff;" points="293,63 286,63 286,70 293,70 293,63"/><polygon style="fill:#0000ff;stroke:#0000ff;" points="286,111 293,111 293,105 286,105 286,111"/></g><g id="node8" class="node"><title>ROCK1</title><a xlink:href="ROCK1.html"><ellipse cx="408" cy="39" rx="49" ry="24" style="fill:turquoise;stroke:turquoise;"/><text text-anchor="middle" x="408" y="46" style="font-family:Times New Roman;"><![CDATA[ROCK1]]></text></a></g><g id="edge8" class="edge"><title>ROCK1-&gt;VIM</title><path style="fill:none;stroke:darkgreen;" d="M382,61C365,74 341,94 322,109"/><polygon style="fill:darkgreen;stroke:darkgreen;" points="325,110 313,117 321,106 325,110"/></g><g id="node10" class="node"><title>DMN</title><a xlink:href="DMN.html"><ellipse cx="523" cy="39" rx="42" ry="24" style="fill:turquoise;stroke:turquoise;"/><text text-anchor="middle" x="523" y="46" style="font-family:Times New Roman;"><![CDATA[DMN]]></text></a></g><g id="edge10" class="edge"><title>DMN-&gt;VIM</title><path style="fill:none;stroke:#0000ff;" d="M485,57C480,59 474,61 469,63 420,83 364,106 328,119"/><polygon style="fill:#0000ff;stroke:#0000ff;" points="492,57 489,51 484,54 486,59 492,57"/><polygon style="fill:#0000ff;stroke:#0000ff;" points="320,119 322,125 329,122 326,117 320,119"/></g></g></svg>