<?xml version="1.0" encoding="UTF-8" standalone="no"?><!DOCTYPE svg PUBLIC "-//W3C//DTD SVG 1.0//EN" "http://www.w3.org/TR/2001/REC-SVG-20010904/DTD/svg10.dtd" [ <!ATTLIST svg xmlns:xlink CDATA #FIXED "http://www.w3.org/1999/xlink">]><!-- Generated by WinGraphviz version ver1.02.23, 08/01/2003 (08/04/2003)     For user: Avi Ma'ayan   Title: G    Pages: 1 --><svg width="735px" height="134px" xmlns="http://www.w3.org/2000/svg" xmlns:xlink="http://www.w3.org/1999/xlink"><g id="graph0" class="graph" style="font-family:Times New Roman;font-size:13.51;"><title>G</title><g id="node1" class="node"><title>ACTN1</title><a xlink:href="ACTN1.html"><ellipse cx="42" cy="29" rx="35" ry="17" style="fill:turquoise;stroke:turquoise;"/><text text-anchor="middle" x="42" y="34" style="font-family:Times New Roman;"><![CDATA[ACTN1]]></text></a></g><g id="node2" class="node"><title>ZYX</title><a xlink:href="ZYX.html"><ellipse cx="375" cy="99" rx="27" ry="17" style="fill:turquoise;stroke:turquoise;"/><text text-anchor="middle" x="375" y="104" style="font-family:Times New Roman;"><![CDATA[ZYX]]></text></a></g><g id="edge2" class="edge"><title>ACTN1-&gt;ZYX</title><path style="fill:none;stroke:#0000ff;" d="M72,42C77,44 81,46 86,47 177,73 287,88 341,95"/><polygon style="fill:#0000ff;stroke:#0000ff;" points="69,39 67,43 72,44 74,40 69,39"/><polygon style="fill:#0000ff;stroke:#0000ff;" points="347,98 347,94 342,93 342,97 347,98"/></g><g id="node4" class="node"><title>CSRP1</title><a xlink:href="CSRP1.html"><ellipse cx="127" cy="29" rx="31" ry="17" style="fill:turquoise;stroke:turquoise;"/><text text-anchor="middle" x="127" y="34" style="font-family:Times New Roman;"><![CDATA[CSRP1]]></text></a></g><g id="edge4" class="edge"><title>CSRP1-&gt;ZYX</title><path style="fill:none;stroke:#0000ff;" d="M155,42C159,44 163,45 167,47 228,68 302,84 343,93"/><polygon style="fill:#0000ff;stroke:#0000ff;" points="152,39 150,43 155,44 157,40 152,39"/><polygon style="fill:#0000ff;stroke:#0000ff;" points="348,96 348,92 343,91 343,95 348,96"/></g><g id="node6" class="node"><title>ENG</title><a xlink:href="ENG.html"><ellipse cx="204" cy="29" rx="27" ry="17" style="fill:turquoise;stroke:turquoise;"/><text text-anchor="middle" x="204" y="34" style="font-family:Times New Roman;"><![CDATA[ENG]]></text></a></g><g id="edge6" class="edge"><title>ENG-&gt;ZYX</title><path style="fill:none;stroke:#0000ff;" d="M230,42C233,44 237,45 241,47 276,62 319,78 346,88"/><polygon style="fill:#0000ff;stroke:#0000ff;" points="227,38 225,42 229,44 231,40 227,38"/><polygon style="fill:#0000ff;stroke:#0000ff;" points="350,92 352,88 347,86 345,90 350,92"/></g><g id="node8" class="node"><title>NEDD9</title><a xlink:href="NEDD9.html"><ellipse cx="287" cy="29" rx="37" ry="17" style="fill:turquoise;stroke:turquoise;"/><text text-anchor="middle" x="287" y="34" style="font-family:Times New Roman;"><![CDATA[NEDD9]]></text></a></g><g id="edge8" class="edge"><title>NEDD9-&gt;ZYX</title><path style="fill:none;stroke:#0000ff;" d="M310,48C323,58 340,72 354,82"/><polygon style="fill:#0000ff;stroke:#0000ff;" points="308,43 305,47 309,50 312,46 308,43"/><polygon style="fill:#0000ff;stroke:#0000ff;" points="357,87 359,83 356,80 353,84 357,87"/></g><g id="node10" class="node"><title>LASP1</title><a xlink:href="LASP1.html"><ellipse cx="375" cy="29" rx="32" ry="17" style="fill:turquoise;stroke:turquoise;"/><text text-anchor="middle" x="375" y="34" style="font-family:Times New Roman;"><![CDATA[LASP1]]></text></a></g><g id="edge10" class="edge"><title>LASP1-&gt;ZYX</title><path style="fill:none;stroke:#0000ff;" d="M375,51C375,59 375,69 375,77"/><polygon style="fill:#0000ff;stroke:#0000ff;" points="378,47 373,47 373,51 378,51 378,47"/><polygon style="fill:#0000ff;stroke:#0000ff;" points="373,81 378,81 378,77 373,77 373,81"/></g><g id="node12" class="node"><title>ENAH</title><a xlink:href="ENAH.html"><ellipse cx="460" cy="29" rx="34" ry="17" style="fill:turquoise;stroke:turquoise;"/><text text-anchor="middle" x="460" y="34" style="font-family:Times New Roman;"><![CDATA[ENAH]]></text></a></g><g id="edge12" class="edge"><title>ENAH-&gt;ZYX</title><path style="fill:none;stroke:#0000ff;" d="M439,48C426,57 410,71 396,81"/><polygon style="fill:#0000ff;stroke:#0000ff;" points="443,47 440,43 436,47 440,50 443,47"/><polygon style="fill:#0000ff;stroke:#0000ff;" points="391,82 394,86 398,83 395,79 391,82"/></g><g id="node14" class="node"><title>TES</title><a xlink:href="TES.html"><ellipse cx="538" cy="29" rx="26" ry="17" style="fill:turquoise;stroke:turquoise;"/><text text-anchor="middle" x="538" y="34" style="font-family:Times New Roman;"><![CDATA[TES]]></text></a></g><g id="edge14" class="edge"><title>TES-&gt;ZYX</title><path style="fill:none;stroke:#0000ff;" d="M514,42C511,43 507,45 503,47 468,62 430,78 404,88"/><polygon style="fill:#0000ff;stroke:#0000ff;" points="519,42 517,38 513,40 515,44 519,42"/><polygon style="fill:#0000ff;stroke:#0000ff;" points="398,88 400,92 405,90 403,86 398,88"/></g><g id="node16" class="node"><title>VASP</title><a xlink:href="VASP.html"><ellipse cx="613" cy="29" rx="31" ry="17" style="fill:turquoise;stroke:turquoise;"/><text text-anchor="middle" x="613" y="34" style="font-family:Times New Roman;"><![CDATA[VASP]]></text></a></g><g id="edge16" class="edge"><title>VASP-&gt;ZYX</title><path style="fill:none;stroke:#0000ff;" d="M585,42C581,44 577,45 573,47 514,67 445,83 407,92"/><polygon style="fill:#0000ff;stroke:#0000ff;" points="590,43 588,39 583,40 585,44 590,43"/><polygon style="fill:#0000ff;stroke:#0000ff;" points="402,91 402,95 407,94 407,90 402,91"/></g><g id="node18" class="node"><title>VAV1</title><a xlink:href="VAV1.html"><ellipse cx="694" cy="29" rx="31" ry="17" style="fill:turquoise;stroke:turquoise;"/><text text-anchor="middle" x="694" y="34" style="font-family:Times New Roman;"><![CDATA[VAV1]]></text></a></g><g id="edge18" class="edge"><title>VAV1-&gt;ZYX</title><path style="fill:none;stroke:#0000ff;" d="M666,43C662,44 659,46 654,47 566,73 461,88 409,95"/><polygon style="fill:#0000ff;stroke:#0000ff;" points="671,43 669,39 665,41 667,45 671,43"/><polygon style="fill:#0000ff;stroke:#0000ff;" points="403,94 403,98 408,97 408,93 403,94"/></g></g></svg>